<svg xmlns="http://www.w3.org/2000/svg" xmlns:xlink="http://www.w3.org/1999/xlink" xmlns:inkscape="http://www.inkscape.org/namespaces/inkscape" version="1.1" width="204" height="173" viewBox="0 0 204 173">
<defs>
<path id="font_1_1" d="M.6589966 .23046875C.6759949 .23046875 .69400027 .23046875 .69400027 .25045777 .69400027 .27046205 .6759949 .27046205 .6589966 .27046205H.117996219C.100997928 .27046205 .08299255 .27046205 .08299255 .25045777 .08299255 .23046875 .100997928 .23046875 .117996219 .23046875H.6589966Z"/>
<path id="font_2_4" d="M.2899933 .35191346C.37199403 .37893678 .42999269 .4490509 .42999269 .52809146 .42999269 .6100464 .34199525 .6660156 .24598694 .6660156 .14498902 .6660156 .068984989 .60606387 .068984989 .53009036 .068984989 .49710084 .09098816 .47808839 .11999512 .47808839 .15098572 .47808839 .17098999 .50009158 .17098999 .5290985 .17098999 .57910159 .12399292 .57910159 .10899353 .57910159 .13999939 .62802127 .20599365 .64100649 .24198914 .64100649 .2829895 .64100649 .33799745 .6190338 .33799745 .5290985 .33799745 .51708987 .33599855 .45906068 .30999757 .4149933 .27999879 .36691285 .24598694 .36390687 .22099304 .36291505 .21299744 .36190797 .18899536 .35990907 .18199158 .35990907 .17399597 .35890199 .16699219 .35791017 .16699219 .3479004 .16699219 .33691407 .17399597 .33691407 .19099427 .33691407H.23498535C.31698609 .33691407 .35398866 .2686615 .35398866 .17037964 .35398866 .034469606 .2849884 .0055389406 .24099732 .0055389406 .19799805 .0055389406 .12298584 .022491456 .08799744 .08137512 .12298584 .07637024 .1539917 .09837341 .1539917 .1363678 .1539917 .17237854 .1269989 .19238281 .09799194 .19238281 .07398987 .19238281 .041992189 .17837525 .041992189 .1343689 .041992189 .043441774 .1349945-.022460938 .24398804-.022460938 .3659973-.022460938 .45700074 .06838989 .45700074 .17037964 .45700074 .252594 .3939972 .33088685 .2899933 .35191346Z"/>
<clipPath id="clip_3">
<path transform="matrix(1.00003,0,0,-1.00005,17.535996,171.41287)" d="M-16.43858 0H177.83496V161.39636H-16.43858Z"/>
</clipPath>
<path id="font_4_3" d="M.1329956 .08345032C.18699646 .14138794 .21598816 .16636658 .2519989 .19732666 .2519989 .19833374 .31399537 .25128175 .34999085 .2872467 .44499208 .3803711 .46699525 .42837525 .46699525 .43237306 .46699525 .4423828 .45799256 .4423828 .45599366 .4423828 .44898988 .4423828 .44599916 .44036866 .44099427 .43138124 .41099549 .38337709 .3899994 .3671875 .3659973 .3671875 .34199525 .3671875 .32998658 .38237 .31498719 .3993683 .29599 .42237855 .2789917 .4423828 .24598694 .4423828 .17098999 .4423828 .125 .34918214 .125 .3282013 .125 .3231964 .12799073 .31721498 .13699341 .31721498 .1459961 .31721498 .147995 .3222046 .1499939 .3282013 .16899109 .37434388 .22698975 .37538148 .23498535 .37538148 .2559967 .37538148 .2749939 .36820985 .2979889 .36018373 .33799745 .34518434 .34899903 .34518434 .375 .34518434 .33898927 .30223084 .25498963 .2303009 .23599243 .21430969L.1459961 .13040161C.07798767 .06341553 .042999269 .0062561037 .042999269-.00074768069 .042999269-.0107421879 .052993776-.0107421879 .054992677-.0107421879 .06298828-.0107421879 .06498718-.008743286 .070999149 .002243042 .09399414 .037246705 .12399292 .064453128 .1559906 .064453128 .1789856 .064453128 .18899536 .055252077 .21398926 .026245118 .23098755 .0052490236 .24899292-.0107421879 .27799989-.0107421879 .3769989-.0107421879 .43499757 .1164093 .43499757 .14338684 .43499757 .14837647 .43099977 .15338135 .4229889 .15338135 .4139862 .15338135 .4119873 .14738465 .40899659 .14039612 .38598634 .07543945 .32199098 .056243898 .2889862 .056243898 .2689972 .056243898 .25099183 .06239319 .22999573 .06944275 .19599915 .08244324 .18099976 .08644104 .1599884 .08644104 .1579895 .08644104 .14199829 .08644104 .1329956 .08345032Z"/>
<path id="font_2_5" d="M.68699648 .32714845C.70199587 .32714845 .72099307 .32714845 .72099307 .34713746 .72099307 .36714173 .70199587 .36714173 .6879883 .36714173H.08898926C.07499695 .36714173 .055999757 .36714173 .055999757 .34713746 .055999757 .32714845 .07499695 .32714845 .08999634 .32714845H.68699648M.6879883 .13284302C.70199587 .13284302 .72099307 .13284302 .72099307 .15284729 .72099307 .17285156 .70199587 .17285156 .68699648 .17285156H.08999634C.07499695 .17285156 .055999757 .17285156 .055999757 .15284729 .055999757 .13284302 .07499695 .13284302 .08898926 .13284302H.6879883Z"/>
<path id="font_2_1" d="M.45999146 .31976319C.45999146 .39982606 .45498658 .47988893 .41999818 .5539398 .37399293 .65000918 .2919922 .6660156 .25 .6660156 .18998719 .6660156 .116989139 .64001467 .07598877 .54693606 .04399109 .47789 .038986207 .39982606 .038986207 .31976319 .038986207 .24472046 .042999269 .15464783 .083999637 .07859802 .1269989-.0024719239 .19999695-.022460938 .24899292-.022460938 .30299378-.022460938 .3789978-.0014648438 .4229889 .09359741 .45498658 .16265869 .45999146 .2407074 .45999146 .31976319M.24899292-.00047302247C.20999146-.00047302247 .15098572 .024551392 .1329956 .12062073 .12199402 .18066406 .12199402 .2727356 .12199402 .3317871 .12199402 .39582826 .12199402 .46188355 .12998963 .5159149 .14898682 .63500979 .22399903 .64401248 .24899292 .64401248 .28199769 .64401248 .34799195 .6259918 .36698915 .52693179 .3769989 .47088624 .3769989 .39482118 .3769989 .3317871 .3769989 .25672914 .3769989 .18867493 .3659973 .12461853 .35099793 .029556275 .2939911-.00047302247 .24899292-.00047302247Z"/>
<path id="font_2_2" d="M.2939911 .64004519C.2939911 .66400149 .2939911 .6660156 .2709961 .6660156 .20899964 .60227969 .12098694 .60227969 .08898926 .60227969V.57128909C.10899353 .57128909 .16799927 .57128909 .21998596 .5972748V.07902527C.21998596 .042999269 .21699524 .0309906 .1269989 .0309906H.09498596V0C.12998963 .0029907227 .21699524 .0029907227 .25698854 .0029907227 .29699708 .0029907227 .38398744 .0029907227 .4189911 0V.0309906H.3869934C.29699708 .0309906 .2939911 .041992189 .2939911 .07902527V.64004519Z"/>
<path id="font_2_3" d="M.1269989 .07699585 .23298645 .18003845C.3889923 .31811524 .44898988 .3721466 .44898988 .47216798 .44898988 .5860901 .35899354 .6660156 .23699951 .6660156 .12399292 .6660156 .049987794 .57411196 .049987794 .48516847 .049987794 .4291687 .099990848 .4291687 .102996829 .4291687 .11999512 .4291687 .15499878 .44117738 .15499878 .48217774 .15499878 .5081787 .13699341 .5341797 .101989749 .5341797 .09399414 .5341797 .09199524 .5341797 .08898926 .5331726 .11199951 .59806826 .1659851 .63500979 .22399903 .63500979 .31498719 .63500979 .35798646 .5541382 .35798646 .47216798 .35798646 .39215089 .30799867 .31311036 .25299073 .25108338L.06098938 .036987306C.049987794 .025985718 .049987794 .023986817 .049987794 0H.42099L.44898988 .17404175H.42399598C.4189911 .14402771 .4119873 .1000061 .4019928 .084991458 .394989 .07699585 .32899476 .07699585 .30699159 .07699585H.1269989Z"/>
<path id="font_4_1" d="M.33399964 .30233766C.33999635 .32835389 .36299134 .42037965 .43299867 .42037965 .43798829 .42037965 .46199037 .42037965 .48298646 .40734864 .45498658 .402359 .43499757 .37734986 .43499757 .35334779 .43499757 .33735658 .44599916 .31835938 .47299195 .31835938 .49499513 .31835938 .5269928 .3363495 .5269928 .37635804 .5269928 .42837525 .46798707 .4423828 .43399049 .4423828 .37599183 .4423828 .34098817 .38935853 .32899476 .36634828 .3039856 .43237306 .25 .4423828 .22099304 .4423828 .116989139 .4423828 .05999756 .3133545 .05999756 .28834535 .05999756 .27833558 .069992069 .27833558 .07199097 .27833558 .07998657 .27833558 .08299255 .28033448 .084991458 .28933717 .11898804 .39535523 .18499756 .42037965 .21899414 .42037965 .23799134 .42037965 .272995 .4113617 .272995 .35334779 .272995 .32235719 .2559967 .25532533 .21899414 .11528015 .20298767 .053268434 .16799927 .011245728 .12399292 .011245728 .117996219 .011245728 .09498596 .011245728 .07398987 .024276734 .09899902 .029266358 .12098694 .05027771 .12098694 .07827759 .12098694 .105270389 .09899902 .11328125 .083999637 .11328125 .053985597 .11328125 .0289917 .08728027 .0289917 .055267335 .0289917 .009246826 .07899475-.0107421879 .12298584-.0107421879 .18899536-.0107421879 .22499085 .059280397 .22799683 .0652771 .23999024 .028274537 .27598573-.0107421879 .33599855-.0107421879 .43899537-.0107421879 .49598695 .118270877 .49598695 .14328003 .49598695 .1532898 .4869995 .1532898 .48399354 .1532898 .47499085 .1532898 .47299195 .14929199 .47099305 .14228821 .43798829 .03527832 .36999513 .011245728 .33799745 .011245728 .29899598 .011245728 .2829895 .043273927 .2829895 .07727051 .2829895 .09927368 .2889862 .121276859 .2999878 .16529846L.33399964 .30233766Z"/>
<path id="font_4_2" d="M.48599244 .38136292C.48999024 .39537049 .48999024 .39736939 .48999024 .40437318 .48999024 .42237855 .47599793 .43138124 .46099855 .43138124 .45098878 .43138124 .43499757 .42536927 .42599488 .41036988 .42399598 .405365 .41600038 .37435914 .4119873 .35635377 .40499879 .33035279 .397995 .30334474 .3919983 .27633668L.34700013 .09628296C.34298707 .08126831 .2999878 .011245728 .23399353 .011245728 .18299866 .011245728 .17199707 .055267335 .17199707 .0922699 .17199707 .1382904 .18899536 .20030213 .22299195 .28833009 .23899842 .3293457 .24299622 .3403473 .24299622 .36035157 .24299622 .405365 .21099854 .4423828 .16099549 .4423828 .06599426 .4423828 .0289917 .29733277 .0289917 .28833009 .0289917 .27833558 .038986207 .27833558 .040985109 .27833558 .050994874 .27833558 .051986696 .28033448 .056991579 .29634095 .083999637 .3903656 .12399292 .42037965 .1579895 .42037965 .1659851 .42037965 .18299866 .42037965 .18299866 .3883667 .18299866 .36335755 .17298889 .3373413 .1659851 .31834413 .12599182 .21231079 .10798645 .1552887 .10798645 .10827637 .10798645 .019256592 .17098999-.0107421879 .22999573-.0107421879 .2689972-.0107421879 .30299378 .0062561037 .33099366 .03425598 .31799317-.017745972 .30599977-.06674194 .2659912-.11973572 .23999024-.15385437 .20199585-.18309021 .1559906-.18309021 .14199829-.18309021 .09700012-.18005371 .07998657-.14074707 .09599304-.14074707 .10899353-.14074707 .12298584-.1287384 .1329956-.11973572 .14299011-.10673523 .14299011-.08773804 .14299011-.056747438 .115997318-.052734376 .10598755-.052734376 .08299255-.052734376 .049987794-.068740848 .049987794-.11773682 .049987794-.16796875 .09399414-.20507813 .1559906-.20507813 .25898744-.20507813 .3619995-.11373901 .3899994-.00074768069L.48599244 .38136292Z"/>
</defs>
<path transform="matrix(1.00003,0,0,-1.00005,17.535996,171.41287)" stroke-width=".19925" stroke-linecap="butt" stroke-miterlimit="10" stroke-linejoin="miter" fill="none" stroke="#7f807f" d="M20.17455 78.57219V82.82414M141.22182 78.57219V82.82414"/>
<path transform="matrix(1.00003,0,0,-1.00005,17.535996,171.41287)" stroke-width=".19925" stroke-linecap="butt" stroke-miterlimit="10" stroke-linejoin="miter" fill="none" stroke="#7f807f" d="M78.57219 20.17455H82.82414M78.57219 141.22182H82.82414"/>
<path transform="matrix(1.00003,0,0,-1.00005,17.535996,171.41287)" stroke-width=".3985" stroke-linecap="butt" stroke-miterlimit="10" stroke-linejoin="miter" fill="none" stroke="#000000" d="M-16.43858 80.69818H175.84244"/>
<path transform="matrix(1.00003,0,0,-1.00005,193.38372,90.71066)" d="M1.99252 0-1.19551 1.59401 0 0-1.19551-1.59401"/>
<path transform="matrix(1.00003,0,0,-1.00005,17.535996,171.41287)" stroke-width=".3985" stroke-linecap="butt" stroke-miterlimit="10" stroke-linejoin="miter" fill="none" stroke="#000000" d="M80.69818 0V159.40384"/>
<path transform="matrix(0,-1.00005,-1.00003,-0,98.2366,12.001068)" d="M1.99252 0-1.19551 1.59401 0 0-1.19551-1.59401"/>
<use data-text="&#x2212;" xlink:href="#font_1_1" transform="matrix(9.962899,0,0,-9.963098,31.345414,102.77744)"/>
<use data-text="3" xlink:href="#font_2_4" transform="matrix(9.962899,0,0,-9.963098,39.093645,102.77744)"/>
<use data-text="3" xlink:href="#font_2_4" transform="matrix(9.962899,0,0,-9.963098,156.27117,102.77744)"/>
<use data-text="&#x2212;" xlink:href="#font_1_1" transform="matrix(9.962899,0,0,-9.963098,79.85986,154.033)"/>
<use data-text="3" xlink:href="#font_2_4" transform="matrix(9.962899,0,0,-9.963098,87.60809,154.033)"/>
<use data-text="3" xlink:href="#font_2_4" transform="matrix(9.962899,0,0,-9.963098,87.6091,33.393983)"/>
<g clip-path="url(#clip_3)">
<path transform="matrix(1.00003,0,0,-1.00005,17.535996,171.41287)" stroke-width=".79701" stroke-linecap="butt" stroke-miterlimit="10" stroke-linejoin="miter" fill="none" stroke="#467082" d="M141.22182 80.69818 140.87743 87.13062 139.85216 93.49045 138.15689 99.70622 135.80979 105.70654 132.83928 111.42178 129.27869 116.79022 125.16731 121.75014 120.553 126.24524 115.48535 130.22284 110.02368 133.64061 104.23036 136.45738 98.16954 138.64229 91.91138 140.17111 85.52614 141.0251 79.08824 141.19699 72.66669 140.68315 66.33652 139.49024 60.16734 137.63094 54.23178 135.12647 48.59583 132.00527 43.32483 128.30182 38.47688 124.05911 34.10767 119.32495 30.26564 114.15321 26.99554 108.6032 24.33311 102.73604 22.30981 96.62073 20.9474 90.32385 20.2623 83.91803V77.4771L20.94681 71.07248 22.3086 64.7756 24.33311 58.65909 26.99493 52.79314 30.26564 47.24312 34.10829 42.07138 38.47748 37.33722 43.32483 33.09451 48.59583 29.39107 54.23178 26.27048 60.16734 23.7654 66.33652 21.90552 72.66669 20.7132 79.08763 20.19934 85.52614 20.37123 91.91138 21.22522 98.17012 22.75404 104.22975 24.94016 110.0255 27.75572 115.48535 31.17288 120.553 35.15111 125.16731 39.6462 129.27869 44.60611 132.83988 49.97394 135.81099 55.68979 138.15689 61.69133 139.85155 67.9059 140.87743 74.26692 141.2206 80.69818"/>
<use data-text="z" xlink:href="#font_4_3" transform="matrix(7.9703195,0,0,-7.9704778,137.36779,51.57907)"/>
<use data-text="=" xlink:href="#font_2_5" transform="matrix(7.9703195,0,0,-7.9704778,143.63837,51.57907)"/>
<use data-text="0" xlink:href="#font_2_1" transform="matrix(7.9703195,0,0,-7.9704778,152.0391,51.57907)"/>
<path transform="matrix(1.00003,0,0,-1.00005,17.535996,171.41287)" stroke-width=".79701" stroke-linecap="butt" stroke-miterlimit="10" stroke-linejoin="miter" fill="none" stroke="#2a87a6" d="M137.79215 80.69818 137.46727 86.76611 136.50009 92.76555 134.90091 98.6291 132.6868 104.2894 129.88462 109.68077 126.52579 114.74501 122.6474 119.42386 118.29456 123.66425 113.51408 127.41646 108.36191 130.64055 102.89688 133.2977 97.17949 135.3588 91.27597 136.80098 85.25255 137.60659 79.17947 137.76873 73.1218 137.284 67.15034 136.15869 61.33075 134.40476 55.73154 132.0422 50.41495 129.09787 45.44264 125.6043 40.86942 121.602 36.7478 117.13611 33.12347 112.25743 30.0387 107.02193 27.52713 101.48723 25.61847 95.71844 24.33328 89.7784 23.68698 83.73557V77.65962L24.33272 71.61794 25.61734 65.67789 27.52713 59.90796 30.03812 54.37442 33.12347 49.1389 36.74837 44.26022 40.86998 39.79433 45.44264 35.79205 50.41495 32.29846 55.73154 29.3547 61.33075 26.99158 67.15034 25.23709 73.1218 24.11234 79.17891 23.62761 85.25255 23.78975 91.27597 24.59535 97.18005 26.03755 102.8963 28.09978 108.36362 30.75578 113.51408 33.97932 118.29456 37.73209 122.6474 41.97247 126.52579 46.65132 129.8852 51.71498 132.68795 57.10693 134.90091 62.76837 136.49953 68.63078 137.46727 74.63135 137.791 80.69818"/>
<use data-text="z" xlink:href="#font_4_3" transform="matrix(7.9703195,0,0,-7.9704778,129.29755,59.648477)"/>
<use data-text="=" xlink:href="#font_2_5" transform="matrix(7.9703195,0,0,-7.9704778,135.56813,59.648477)"/>
<use data-text="1" xlink:href="#font_2_2" transform="matrix(7.9703195,0,0,-7.9704778,143.96886,59.648477)"/>
<path transform="matrix(1.00003,0,0,-1.00005,17.535996,171.41287)" stroke-width=".79701" stroke-linecap="butt" stroke-miterlimit="10" stroke-linejoin="miter" fill="none" stroke="#009bca" d="M125.88914 80.69818 125.632 85.50107 124.86646 90.24973 123.60066 94.89085 121.84816 99.37108 119.63019 103.63846 116.9716 107.6469 113.90178 111.3503 110.45642 114.70662 106.67258 117.67657 102.59454 120.22852 98.26886 122.33171 93.74345 123.96309 89.0707 125.10463 84.30305 125.74226 79.4961 125.8706 74.70132 125.48694 69.97481 124.59622 65.36848 123.20795 60.9366 121.33795 56.72842 119.00746 52.79274 116.24222 49.17294 113.07433 45.9106 109.53949 43.04189 105.67793 40.60022 101.53392 38.61227 97.1531 37.10153 92.587 36.08427 87.88533 35.57272 83.10233V78.2931L36.08383 73.511 37.10063 68.80933 38.61227 64.24232 40.59976 59.86241 43.04189 55.7184 45.91106 51.85684 49.17339 48.322 52.79274 45.15411 56.72842 42.38887 60.9366 40.05884 65.36848 38.18839 69.97481 36.79967 74.70132 35.9094 79.49564 35.52573 84.30305 35.65407 89.0707 36.2917 93.7439 37.43324 98.26842 39.06554 102.5959 41.16782 106.67258 43.7193 110.45642 46.68971 113.90178 50.04604 116.9716 53.74945 119.63065 57.75742 121.84906 62.02525 123.60066 66.5064 124.866 71.1466 125.632 75.89618 125.88823 80.69818"/>
<use data-text="z" xlink:href="#font_4_3" transform="matrix(7.9703195,0,0,-7.9704778,121.22731,67.71888)"/>
<use data-text="=" xlink:href="#font_2_5" transform="matrix(7.9703195,0,0,-7.9704778,127.497898,67.71888)"/>
<use data-text="2" xlink:href="#font_2_3" transform="matrix(7.9703195,0,0,-7.9704778,135.89862,67.71888)"/>
<use data-text="z" xlink:href="#font_4_3" transform="matrix(7.9703195,0,0,-7.9704778,103.069759,85.876789)"/>
<use data-text="=" xlink:href="#font_2_5" transform="matrix(7.9703195,0,0,-7.9704778,109.34034,85.876789)"/>
<use data-text="3" xlink:href="#font_2_4" transform="matrix(7.9703195,0,0,-7.9704778,117.741069,85.876789)"/>
</g>
<path transform="matrix(1.00003,0,0,-1.00005,17.535996,171.41287)" d="M82.69073 80.69818C82.69073 81.79865 81.79865 82.69073 80.69818 82.69073 79.5977 82.69073 78.70563 81.79865 78.70563 80.69818 78.70563 79.5977 79.5977 78.70563 80.69818 78.70563 81.79865 78.70563 82.69073 79.5977 82.69073 80.69818ZM80.69818 80.69818" fill="#ff0000"/>
<path transform="matrix(1.00003,0,0,-1.00005,17.535996,171.41287)" stroke-width=".3985" stroke-linecap="butt" stroke-miterlimit="10" stroke-linejoin="miter" fill="none" stroke="#ff0000" d="M82.69073 80.69818C82.69073 81.79865 81.79865 82.69073 80.69818 82.69073 79.5977 82.69073 78.70563 81.79865 78.70563 80.69818 78.70563 79.5977 79.5977 78.70563 80.69818 78.70563 81.79865 78.70563 82.69073 79.5977 82.69073 80.69818ZM80.69818 80.69818"/>
<path transform="matrix(1.00003,0,0,-1.00005,17.535996,171.41287)" stroke-width=".3985" stroke-linecap="butt" stroke-miterlimit="10" stroke-linejoin="miter" fill="none" stroke="#ff0000" d=""/>
<use data-text="x" xlink:href="#font_4_1" transform="matrix(9.962899,0,0,-9.963098,197.56839,97.19216)"/>
<use data-text="y" xlink:href="#font_4_2" transform="matrix(9.962899,0,0,-9.963098,90.80219,5.879608)"/>
</svg>
