<svg xmlns="http://www.w3.org/2000/svg" xmlns:xlink="http://www.w3.org/1999/xlink" xmlns:inkscape="http://www.inkscape.org/namespaces/inkscape" version="1.1" width="270" height="119" viewBox="0 0 270 119">
<defs>
<path id="font_1_5" d="M.13198853 .327713V.35173036C.13198853 .6047821 .2559967 .64100649 .30699159 .64100649 .33099366 .64100649 .37298585 .634964 .394989 .6007538 .37998963 .6007538 .33999635 .6007538 .33999635 .5557556 .33999635 .524765 .3639984 .5097656 .38598634 .5097656 .4019928 .5097656 .43199159 .51875308 .43199159 .5577545 .43199159 .6178589 .3880005 .6660156 .30499269 .6660156 .1769867 .6660156 .041992189 .5367584 .041992189 .31570436 .041992189 .048553468 .1579895-.022460938 .25099183-.022460938 .3619995-.022460938 .45700074 .07156372 .45700074 .2036438 .45700074 .33070375 .36799623 .4267578 .25698854 .4267578 .18899536 .4267578 .1519928 .37573243 .13198853 .327713M.25099183 .0055389406C.18798828 .0055389406 .1579895 .06556702 .1519928 .080566409 .13398743 .127594 .13398743 .2076416 .13398743 .22564698 .13398743 .30369569 .1659851 .40374757 .2559967 .40374757 .27198792 .40374757 .31799317 .40374757 .34899903 .34172059 .36698915 .30470277 .36698915 .2536621 .36698915 .20463562 .36698915 .15661621 .36698915 .10658264 .34999085 .0705719 .31999208 .010528564 .27398683 .0055389406 .25099183 .0055389406Z"/>
<path id="font_1_2" d="M.2939911 .64004519C.2939911 .66400149 .2939911 .6660156 .2709961 .6660156 .20899964 .60227969 .12098694 .60227969 .08898926 .60227969V.57128909C.10899353 .57128909 .16799927 .57128909 .21998596 .5972748V.07902527C.21998596 .042999269 .21699524 .0309906 .1269989 .0309906H.09498596V0C.12998963 .0029907227 .21699524 .0029907227 .25698854 .0029907227 .29699708 .0029907227 .38398744 .0029907227 .4189911 0V.0309906H.3869934C.29699708 .0309906 .2939911 .041992189 .2939911 .07902527V.64004519Z"/>
<path id="font_1_4" d="M.2939911 .16503906V.07800293C.2939911 .041992189 .2919922 .0309906 .21798706 .0309906H.19699097V0C.23799134 .0029907227 .2899933 .0029907227 .33198548 .0029907227 .37399293 .0029907227 .4269867 .0029907227 .46798707 0V.0309906H.44699098C.37298585 .0309906 .37098695 .041992189 .37098695 .07800293V.16503906H.47099305V.19602967H.37098695V.65075686C.37098695 .67074587 .37098695 .6767578 .35499574 .6767578 .34599305 .6767578 .34298707 .6767578 .33499146 .66474917L.027999878 .19602967V.16503906H.2939911M.2999878 .19602967H.055999757L.2999878 .5688019V.19602967Z"/>
<path id="font_1_6" d="M.47599793 .609375C.4850006 .6213684 .4850006 .62338259 .4850006 .64437869H.24198914C.11999512 .64437869 .117996219 .65737918 .11399841 .67637637H.08898926L.055999757 .4702301H.08099365C.083999637 .48625184 .09298706 .5493469 .10598755 .56137087 .11299133 .5673828 .19099427 .5673828 .20399475 .5673828H.41099549C.3999939 .5513611 .32099916 .4421997 .29899598 .40914918 .20899964 .27394105 .17599488 .1347351 .17599488 .032577516 .17599488 .022567749 .17599488-.022460938 .22200012-.022460938 .2679901-.022460938 .2679901 .022567749 .2679901 .032577516V.08366394C.2679901 .13873291 .2709961 .19381714 .2789917 .24790955 .2829895 .27093507 .29699708 .35707093 .34098817 .41915895L.47599793 .609375Z"/>
<path id="font_1_1" d="M.45999146 .31976319C.45999146 .39982606 .45498658 .47988893 .41999818 .5539398 .37399293 .65000918 .2919922 .6660156 .25 .6660156 .18998719 .6660156 .116989139 .64001467 .07598877 .54693606 .04399109 .47789 .038986207 .39982606 .038986207 .31976319 .038986207 .24472046 .042999269 .15464783 .083999637 .07859802 .1269989-.0024719239 .19999695-.022460938 .24899292-.022460938 .30299378-.022460938 .3789978-.0014648438 .4229889 .09359741 .45498658 .16265869 .45999146 .2407074 .45999146 .31976319M.24899292-.00047302247C.20999146-.00047302247 .15098572 .024551392 .1329956 .12062073 .12199402 .18066406 .12199402 .2727356 .12199402 .3317871 .12199402 .39582826 .12199402 .46188355 .12998963 .5159149 .14898682 .63500979 .22399903 .64401248 .24899292 .64401248 .28199769 .64401248 .34799195 .6259918 .36698915 .52693179 .3769989 .47088624 .3769989 .39482118 .3769989 .3317871 .3769989 .25672914 .3769989 .18867493 .3659973 .12461853 .35099793 .029556275 .2939911-.00047302247 .24899292-.00047302247Z"/>
<path id="font_1_3" d="M.2899933 .35191346C.37199403 .37893678 .42999269 .4490509 .42999269 .52809146 .42999269 .6100464 .34199525 .6660156 .24598694 .6660156 .14498902 .6660156 .068984989 .60606387 .068984989 .53009036 .068984989 .49710084 .09098816 .47808839 .11999512 .47808839 .15098572 .47808839 .17098999 .50009158 .17098999 .5290985 .17098999 .57910159 .12399292 .57910159 .10899353 .57910159 .13999939 .62802127 .20599365 .64100649 .24198914 .64100649 .2829895 .64100649 .33799745 .6190338 .33799745 .5290985 .33799745 .51708987 .33599855 .45906068 .30999757 .4149933 .27999879 .36691285 .24598694 .36390687 .22099304 .36291505 .21299744 .36190797 .18899536 .35990907 .18199158 .35990907 .17399597 .35890199 .16699219 .35791017 .16699219 .3479004 .16699219 .33691407 .17399597 .33691407 .19099427 .33691407H.23498535C.31698609 .33691407 .35398866 .2686615 .35398866 .17037964 .35398866 .034469606 .2849884 .0055389406 .24099732 .0055389406 .19799805 .0055389406 .12298584 .022491456 .08799744 .08137512 .12298584 .07637024 .1539917 .09837341 .1539917 .1363678 .1539917 .17237854 .1269989 .19238281 .09799194 .19238281 .07398987 .19238281 .041992189 .17837525 .041992189 .1343689 .041992189 .043441774 .1349945-.022460938 .24398804-.022460938 .3659973-.022460938 .45700074 .06838989 .45700074 .17037964 .45700074 .252594 .3939972 .33088685 .2899933 .35191346Z"/>
<path id="font_1_7" d="M.36698915 .31781007V.28579713C.36698915 .05178833 .2630005 .0055389406 .20498657 .0055389406 .18798828 .0055389406 .13398743 .007537842 .10699463 .041778566 .15098572 .041778566 .15899658 .07078552 .15899658 .08778381 .15899658 .118774417 .1349945 .13378906 .11299133 .13378906 .09700012 .13378906 .066986087 .12478638 .066986087 .08578491 .066986087 .018615723 .12098694-.022460938 .20599365-.022460938 .33499146-.022460938 .45700074 .11378479 .45700074 .32881166 .45700074 .5979767 .34199525 .6660156 .25299073 .6660156 .19799805 .6660156 .14898682 .64801028 .10598755 .60298159 .06498718 .5579529 .041992189 .5159302 .041992189 .44088746 .041992189 .31581117 .12998963 .21777344 .24198914 .21777344 .30299378 .21777344 .34399415 .25978089 .36698915 .31781007M.24299622 .24076844C.22698975 .24076844 .18099976 .24076844 .1499939 .3038025 .13198853 .3408203 .13198853 .39085389 .13198853 .43988038 .13198853 .49391175 .13198853 .54093936 .15299988 .5779724 .17999268 .6279907 .21798706 .64100649 .25299073 .64100649 .29899598 .64100649 .33198548 .60697939 .34899903 .5619507 .36099244 .52993777 .36499024 .4669037 .36499024 .42086793 .36499024 .3378296 .33099366 .24076844 .24299622 .24076844Z"/>
<clipPath id="clip_2">
<path transform="matrix(1.00008,0,0,-1.00003,1.0966492,89.50348)" d="M0 0H266.9808V96.9012H0Z"/>
</clipPath>
<path id="font_3_101" d="M.45700074 .2036438C.45700074 .33070375 .36799623 .4267578 .25698854 .4267578 .18899536 .4267578 .1519928 .37573243 .13198853 .327713V.35173036C.13198853 .6047821 .2559967 .64100649 .30699159 .64100649 .33099366 .64100649 .37298585 .634964 .394989 .6007538 .37998963 .6007538 .33999635 .6007538 .33999635 .5557556 .33999635 .524765 .3639984 .5097656 .38598634 .5097656 .4019928 .5097656 .43199159 .51875308 .43199159 .5577545 .43199159 .6178589 .3880005 .6660156 .30499269 .6660156 .1769867 .6660156 .041992189 .5367584 .041992189 .31570436 .041992189 .048553468 .1579895-.022460938 .25099183-.022460938 .3619995-.022460938 .45700074 .07156372 .45700074 .2036438M.36698915 .20463562C.36698915 .15661621 .36698915 .10658264 .34999085 .0705719 .31999208 .010528564 .27398683 .0055389406 .25099183 .0055389406 .18798828 .0055389406 .1579895 .06556702 .1519928 .080566409 .13398743 .127594 .13398743 .2076416 .13398743 .22564698 .13398743 .30369569 .1659851 .40374757 .2559967 .40374757 .27198792 .40374757 .31799317 .40374757 .34899903 .34172059 .36698915 .30470277 .36698915 .2536621 .36698915 .20463562Z"/>
<path id="font_3_51" d="M.45700074 .16764832C.45700074 .20367432 .44599916 .24871826 .4079895 .29074098 .3889923 .31176759 .37298585 .32176209 .30899049 .36180116 .3809967 .39881898 .42999269 .4508667 .42999269 .51690676 .42999269 .6089783 .34098817 .6660156 .25 .6660156 .1499939 .6660156 .068984989 .5919647 .068984989 .49890138 .068984989 .48088075 .070999149 .43585206 .11299133 .38882447 .12399292 .3768158 .16099549 .35179139 .18598938 .33477784 .12799073 .30575563 .041992189 .24971009 .041992189 .15063477 .041992189 .044555665 .14399719-.022460938 .24899292-.022460938 .3619995-.022460938 .45700074 .060577394 .45700074 .16764832M.38598634 .51690676C.38598634 .45986939 .34700013 .41183473 .2869873 .3768158L.16299439 .4568634C.116989139 .4868927 .11299133 .5209198 .11299133 .53793337 .11299133 .5989685 .17799378 .64100649 .24899292 .64100649 .32199098 .64100649 .38598634 .588974 .38598634 .51690676M.40699769 .13162232C.40699769 .05757141 .33198548 .0055389406 .25 .0055389406 .1639862 .0055389406 .09199524 .06758118 .09199524 .15063477 .09199524 .2086792 .12399292 .2727356 .20899964 .31976319L.33198548 .24171448C.3600006 .22268677 .40699769 .19267273 .40699769 .13162232Z"/>
<path id="font_3_87" d="M.69299319 .7299957C.69299319 .7409973 .6839905 .75 .6729889 .75 .6629944 .75 .6579895 .7429962 .6519928 .73599246 .60198977 .6680908 .5349884 .64112856 .46199037 .64112856 .3919983 .64112856 .32998658 .6660919 .2749939 .7180023 .2559967 .73498538 .23498535 .75 .20298767 .75 .1269989 .75 .055999757 .6660919 .055999757 .5491333 .055999757 .4281311 .12799073 .34713746 .20298767 .34713746 .27598573 .34713746 .33299256 .4361267 .33299256 .5481262 .33299256 .5621338 .33299256 .60913088 .31199647 .6611023 .3769989 .62413027 .4269867 .6191406 .46299745 .6191406 .5389862 .6191406 .58999636 .65011599 .59599307 .65411379L.5970001 .6531067 .147995-.016174317C.13899231-.029190064 .13899231-.036193849 .13899231-.036193849 .13899231-.047180177 .14898682-.05618286 .15899658-.05618286 .16899109-.05618286 .17098999-.05218506 .1789856-.04118347L.68499758 .7120209C.69099429 .7210083 .69299319 .723999 .69299319 .7299957M.776001 .1449585C.776001 .26005555 .71699526 .34713746 .6459961 .34713746 .56999209 .34713746 .49899293 .26306153 .49899293 .14596558 .49899293 .024856568 .57099917-.05618286 .6459961-.05618286 .71899417-.05618286 .776001 .03286743 .776001 .1449585M.30799867 .5491333C.30799867 .4411316 .2559967 .36914063 .20399475 .36914063 .18399048 .36914063 .117996219 .38212586 .117996219 .5481262 .117996219 .7150116 .18299866 .7279968 .20399475 .7279968 .25698854 .7279968 .30799867 .65411379 .30799867 .5491333M.7509918 .14596558C.7509918 .037872316 .69898989-.034179689 .6469879-.034179689 .6269989-.034179689 .5609894-.0211792 .5609894 .1449585 .5609894 .31219483 .6259918 .3251953 .6469879 .3251953 .69999697 .3251953 .7509918 .2511902 .7509918 .14619446V.14596558Z"/>
<path id="font_3_78" d="M.45700074 .32888795C.45700074 .598114 .34199525 .6660156 .25299073 .6660156 .19799805 .6660156 .14898682 .64801028 .10598755 .6031189 .06498718 .5580902 .041992189 .5160217 .041992189 .44091798 .041992189 .3158722 .12998963 .21777344 .24198914 .21777344 .30299378 .21777344 .34399415 .25979615 .36698915 .3178711V.28582765C.36698915 .05178833 .2630005 .0055389406 .20498657 .0055389406 .18798828 .0055389406 .13398743 .007537842 .10699463 .041778566 .15098572 .041778566 .15899658 .07078552 .15899658 .08778381 .15899658 .118774417 .1349945 .13378906 .11299133 .13378906 .09700012 .13378906 .066986087 .12478638 .066986087 .08578491 .066986087 .018615723 .12098694-.022460938 .20599365-.022460938 .33499146-.022460938 .45700074 .11378479 .45700074 .32888795M.36499024 .42089845C.36499024 .33789063 .33099366 .24076844 .24299622 .24076844 .22698975 .2407074 .18099976 .2407074 .1499939 .30371095 .13198853 .34072877 .13198853 .3908081 .13198853 .43988038 .13198853 .49397279 .13198853 .5410614 .15299988 .578125 .17999268 .62805178 .21798706 .64100649 .25299073 .64100649 .29899598 .64100649 .33198548 .60710147 .34899903 .562088 .36099244 .52989199 .36499024 .46688844 .36499024 .42089845Z"/>
<path id="font_3_56" d="M.44898988 .20091248C.44898988 .31991578 .36698915 .41992188 .25898744 .41992188 .21099854 .41992188 .16799927 .4039154 .13198853 .36891175V.5641022C.1519928 .55778506 .18499756 .55078127 .21699524 .55078127 .33999635 .55078127 .4099884 .6418457 .4099884 .65493777 .4099884 .6609802 .40699769 .6660156 .3999939 .6660156 .3999939 .66607668 .39698792 .66607668 .3919983 .66308596 .37199403 .65408328 .32299806 .63378909 .2559967 .63378909 .21598816 .63409426 .16999817 .641098 .12298584 .6621094 .114990238 .6651001 .11099243 .6651001 .11099243 .6651001 .100997928 .66508486 .100997928 .657074 .100997928 .64108279V.3447113C.100997928 .3266449 .100997928 .31861878 .114990238 .31861878 .12199402 .31861878 .12399292 .32164 .12799073 .32765199 .13899231 .34371949 .17599488 .3979187 .25698854 .3979187 .30899049 .3979187 .33399964 .3517456 .34199525 .3336792 .35798646 .2965393 .3600006 .2574005 .3600006 .20721436 .3600006 .17218018 .3600006 .112197879 .33599855 .07032776 .31199647 .031448366 .2749939 .0055389406 .22898865 .0055389406 .1559906 .0055389406 .09899902 .05836487 .08198547 .1171875 .084991458 .11685181 .08799744 .115859989 .09899902 .115859989 .13198853 .115859989 .14898682 .14085388 .14898682 .16485596 .14898682 .18885803 .13198853 .21386719 .09899902 .21386719 .084991458 .21386719 .049987794 .2068634 .049987794 .16085816 .049987794 .07432556 .11898804-.022460938 .23098755-.022460938 .34700013-.022460938 .44898988 .07331848 .44898988 .20019531V.20091248Z"/>
<path id="font_3_88" d="M.19198609 .052993776C.19198609 .08198547 .16799927 .10598755 .13899231 .10598755 .10998535 .10598755 .085998538 .08198547 .085998538 .052993776 .085998538 .023986817 .10998535 0 .13899231 0 .16799927 0 .19198609 .023986817 .19198609 .052993776Z"/>
<path id="font_3_100" d="M.4850006 .6435547H.24198914C.11999512 .6435547 .117996219 .6566467 .11399841 .67578127H.08898926L.055999757 .46954347H.08099365C.083999637 .48554994 .09298706 .54855349 .10598755 .5605469 .11299133 .5665436 .19099427 .5665436 .20399475 .5665436H.41099549L.29899598 .40853883C.20899964 .2735443 .17599488 .13453675 .17599488 .03253174 .17599488 .022537232 .17599488-.022460938 .22200012-.022460938 .2679901-.022460938 .2679901 .022537232 .2679901 .03253174V.08354187C.2679901 .13853455 .2709961 .19354248 .2789917 .24754334 .2829895 .27053834 .29699708 .35653688 .34098817 .41854859L.47599793 .608551C.4850006 .62054446 .4850006 .62254336 .4850006 .6435547Z"/>
<path id="font_3_62" d="M.71598818 0V.0309906H.69200137C.61499026 .0309906 .61299136 .041992189 .61299136 .07797241V.6046448C.61299136 .640625 .61499026 .6516113 .69200137 .6516113H.71598818V.6826172C.68099978 .6796112 .6069946 .6796112 .56900027 .6796112 .5309906 .6796112 .45599366 .6796112 .42099 .6826172V.6516113H.44499208C.5219879 .6516113 .5239868 .640625 .5239868 .6046448V.37083436H.22499085V.6046448C.22499085 .640625 .22698975 .6516113 .3039856 .6516113H.32798768V.6826172C.29299928 .6796112 .21899414 .6796112 .18099976 .6796112 .14299011 .6796112 .067993167 .6796112 .032989503 .6826172V.6516113H.056991579C.13398743 .6516113 .13598633 .640625 .13598633 .6046448V.07797241C.13598633 .041992189 .13398743 .0309906 .056991579 .0309906H.032989503V0C.067993167 .0029907227 .14199829 .0029907227 .17999268 .0029907227 .21798706 .0029907227 .29299928 .0029907227 .32798768 0V.0309906H.3039856C.22698975 .0309906 .22499085 .041992189 .22499085 .07797241V.33984376H.5239868V.07797241C.5239868 .041992189 .5219879 .0309906 .44499208 .0309906H.42099V0C.45599366 .0029907227 .5299988 .0029907227 .56799319 .0029907227 .60598757 .0029907227 .68099978 .0029907227 .71598818 0Z"/>
<path id="font_3_50" d="M.4149933 .11933899C.4149933 .12934876 .40699769 .13134766 .4019928 .13134766 .3929901 .13134766 .3909912 .12535095 .3889923 .11734009 .35398866 .014251709 .2639923 .014251709 .2539978 .014251709 .20399475 .014251709 .1639862 .044281007 .14099121 .08131409 .11099243 .12934876 .11099243 .19540406 .11099243 .23144531H.3899994C.4119873 .23144531 .4149933 .23144531 .4149933 .2524414 .4149933 .35131837 .36099244 .4482422 .23599243 .4482422 .11999512 .4482422 .027999878 .34532167 .027999878 .22042847 .027999878 .08631897 .1329956-.0107421879 .24798584-.0107421879 .36999513-.0107421879 .4149933 .10032654 .4149933 .11933899M.34899903 .2524414H.11199951C.117996219 .40126039 .20199585 .426239 .23599243 .426239 .33898927 .426239 .34899903 .2913971 .34899903 .2524414Z"/>
<path id="font_3_66" d="M.24699402 0V.0309906C.18099976 .0309906 .1769867 .035995485 .1769867 .075042728V.4423828L.036987306 .43066407V.3996582C.101989749 .3996582 .11099243 .3936615 .11099243 .3447113V.07595825C.11099243 .0309906 .099990848 .0309906 .032989503 .0309906V0L.14299011 .0029907227C.17799378 .0029907227 .21299744 .0009918213 .24699402 0M.19198609 .603775C.19198609 .6307678 .16899109 .6567688 .13899231 .6567688 .10499573 .6567688 .084991458 .6287689 .084991458 .603775 .084991458 .57676699 .10798645 .55078127 .13798523 .55078127 .17199707 .55078127 .19198609 .5787811 .19198609 .603775Z"/>
<path id="font_3_59" d="M.4850006 .40411378C.4850006 .42111207 .47299195 .453125 .43399049 .453125 .4139862 .453125 .36999513 .44711305 .32798768 .40611268 .28599549 .43937684 .24398804 .4423828 .22200012 .4423828 .1289978 .4423828 .05999756 .37338258 .05999756 .29638673 .05999756 .25239564 .08198547 .21440125 .10699463 .19340515 .09399414 .17840576 .07598877 .14538574 .07598877 .11035156 .07598877 .07899475 .08898926 .04083252 .11999512 .020828248 .05999756 .003829956 .027999878-.039138795 .027999878-.07911682 .027999878-.15107727 .1269989-.20605469 .24899292-.20605469 .36698915-.20605469 .47099305-.15507508 .47099305-.07711792 .47099305-.042144777 .45700074 .008834839 .4059906 .036834718 .35299684 .064834598 .29499818 .064834598 .23399353 .064834598 .20899964 .064834598 .1659851 .064834598 .15899658 .065841678 .1269989 .069885257 .10598755 .101242069 .10598755 .13334656 .10598755 .13735962 .10598755 .16040039 .12298584 .18040467 .1619873 .15240479 .20298767 .14941406 .22200012 .14941406 .31498719 .14941406 .38398744 .21839905 .38398744 .2953949 .38398744 .3323822 .36799623 .36938478 .34298707 .39237977 .3789978 .42637635 .4149933 .43138124 .43299867 .43138124 .43299867 .43112184 .43998719 .43112184 .44299317 .43011476 .43199159 .42611695 .4269867 .41513063 .4269867 .40315248 .4269867 .38616944 .43998719 .37417604 .45599366 .37417604 .46598817 .37417604 .4850006 .3811798 .4850006 .4041443V.40411378M.30899049 .29626466C.30899049 .26930238 .30799867 .2373352 .29299928 .21235657 .2849884 .20037842 .2619934 .17240906 .22200012 .17240906 .1349945 .17240906 .1349945 .2722931 .1349945 .29527284 .1349945 .3222351 .13598633 .35420228 .15098572 .3791809 .15899658 .3913269 .18199158 .41937257 .22200012 .41937257 .30899049 .41937257 .30899049 .31922914 .30899049 .29618836V.29626466M.4189911-.07911682C.4189911-.13308716 .34799195-.18305969 .25-.18305969 .14898682-.18305969 .07998657-.13209534 .07998657-.07911682 .07998657-.03314209 .117996219 .003829956 .1619873 .0068359377H.22099304C.30699159 .0068359377 .4189911 .0068359377 .4189911-.07911682Z"/>
<path id="font_3_63" d="M.5349884 0V.0309906C.48298646 .0309906 .45799256 .0309906 .45700074 .061019899V.25221253C.45700074 .3383026 .45700074 .36932374 .42599488 .405365 .4119873 .42237855 .3789978 .4423828 .32099916 .4423828 .23699951 .4423828 .19299317 .38233949 .1769867 .34629823H.17599488V.69433596L.03199768 .6826172V.6516113C.101989749 .6516113 .10998535 .64463809 .10998535 .59580996V.076034549C.10998535 .0309906 .09899902 .0309906 .03199768 .0309906V0L.14498902 .0029907227 .25698854 0V.0309906C.18998719 .0309906 .1789856 .0309906 .1789856 .076034549V.2602234C.1789856 .36431886 .25 .42037965 .31399537 .42037965 .3769989 .42037965 .3880005 .36631776 .3880005 .30926515V.076034549C.3880005 .0309906 .3769989 .0309906 .30999757 .0309906V0L.4229889 .0029907227 .5349884 0Z"/>
<path id="font_3_105" d="M.33198548 .12385559V.18066406H.30699159V.12585449C.30699159 .052108766 .2769928 .014251709 .23999024 .014251709 .17298889 .014251709 .17298889 .10491943 .17298889 .12187195V.3996582H.31599427V.43066407H.17298889V.6142578H.147995C.14698792 .5324249 .116989139 .42565919 .018997193 .42166139V.3996582H.10398865V.12408447C.10398865 .0012512207 .19699097-.0107421879 .23298645-.0107421879 .3039856-.0107421879 .33198548 .060180665 .33198548 .12408447V.12385559Z"/>
<path id="font_3_77" d="M.5349884 0V.0309906C.48298646 .0309906 .45799256 .0309906 .45700074 .061019899V.25221253C.45700074 .3383026 .45700074 .36932374 .42599488 .405365 .4119873 .42237855 .3789978 .4423828 .32099916 .4423828 .24798584 .4423828 .20098877 .39935304 .17298889 .33729554V.4423828L.03199768 .43066407V.3996582C.101989749 .3996582 .10998535 .39266969 .10998535 .34370423V.07595825C.10998535 .0309906 .09899902 .0309906 .03199768 .0309906V0L.14498902 .0029907227 .25698854 0V.0309906C.18998719 .0309906 .1789856 .0309906 .1789856 .07595825V.25978089C.1789856 .36431886 .25 .42037965 .31399537 .42037965 .3769989 .42037965 .3880005 .36631776 .3880005 .30926515V.076034549C.3880005 .0309906 .3769989 .0309906 .30999757 .0309906V0L.4229889 .0029907227 .5349884 0Z"/>
<path id="font_3_65" d="M.33299256 0V.0309906H.30699159C.22799683 .0309906 .22499085 .041992189 .22499085 .07795715V.6046295C.22499085 .64060977 .22799683 .6516113 .30699159 .6516113H.33299256V.6826172C.2979889 .6796112 .21899414 .6796112 .18099976 .6796112 .14199829 .6796112 .06298828 .6796112 .027999878 .6826172V.6516113H.053985597C.1329956 .6516113 .13598633 .64060977 .13598633 .6046295V.07795715C.13598633 .041992189 .1329956 .0309906 .053985597 .0309906H.027999878V0C.06298828 .0029907227 .14199829 .0029907227 .17999268 .0029907227 .21899414 .0029907227 .2979889 .0029907227 .33299256 0Z"/>
<path id="font_3_43" d="M.4149933 .119140628C.4149933 .12911988 .40499879 .12911988 .4019928 .12911988 .3929901 .12911988 .3909912 .12512207 .3889923 .119140628 .3600006 .026229859 .29499818 .014251709 .2579956 .014251709 .20498657 .014251709 .116989139 .0572052 .116989139 .21801758 .116989139 .38093568 .19898987 .42323304 .2519989 .42323304 .26098634 .42323304 .32398988 .42222596 .35899354 .38594056 .31799317 .38293458 .31199647 .3529358 .31199647 .3399353 .31199647 .31393434 .32998658 .2939453 .35798646 .2939453 .38398744 .2939453 .4039917 .3109436 .4039917 .34094239 .4039917 .40911866 .32798768 .4482422 .25099183 .4482422 .12599182 .4482422 .033996583 .3399353 .033996583 .21601868 .033996583 .08816528 .1329956-.0107421879 .24899292-.0107421879 .3829956-.0107421879 .4149933 .10914612 .4149933 .119140628Z"/>
<path id="font_3_98" d="M.3600006 .12823487C.3600006 .18122864 .32998658 .21122742 .31799317 .22323609 .2849884 .25523377 .24598694 .26322938 .20399475 .27124024 .147995 .28224183 .08099365 .29522706 .08099365 .35324098 .08099365 .38822938 .10699463 .42922975 .19299317 .42922975 .30299378 .42922975 .30799867 .3392334 .30999757 .30822755 .31098939 .2992401 .32199098 .2992401 .32199098 .2992401 .33499146 .2992401 .33499146 .30422975 .33499146 .32322694V.4242401C.33499146 .4412384 .33499146 .4482422 .32398988 .4482422 .31900025 .4482422 .31698609 .4482422 .3039856 .43623353 .30099488 .43223573 .29100038 .42323304 .2869873 .42022706 .24899292 .4482422 .20799256 .4482422 .19299317 .4482422 .070999149 .4482422 .032989503 .38124085 .032989503 .3252411 .032989503 .29023744 .04899597 .26223756 .07598877 .24023438 .10798645 .2142334 .13598633 .2082367 .20799256 .19422913 .22999573 .19021607 .31199647 .17422486 .31199647 .10221863 .31199647 .051223756 .2769928 .011245728 .19898987 .011245728 .114990238 .011245728 .07899475 .068222049 .05999756 .1532135 .056991579 .16621399 .055999757 .17021179 .04598999 .17021179 .032989503 .17021179 .032989503 .16322327 .032989503 .1452179V.013214111C.032989503-.003753662 .032989503-.0107421879 .04399109-.0107421879 .04899597-.0107421879 .049987794-.009750366 .068984989 .009246826 .070999149 .011245728 .070999149 .013214111 .08898926 .032226564 .1329956-.009750366 .17799378-.0107421879 .19898987-.0107421879 .31399537-.0107421879 .3600006 .05621338 .3600006 .1282196V.12823487Z"/>
</defs>
<path transform="matrix(1.00008,0,0,-1.00003,1.0966492,89.50348)" stroke-width=".19925" stroke-linecap="butt" stroke-miterlimit="10" stroke-linejoin="miter" fill="none" stroke="#7f807f" d="M33.37259-2.12607V2.12607M66.7452-2.12607V2.12607M100.11778-2.12607V2.12607M133.49039-2.12607V2.12607M166.86299-2.12607V2.12607M200.23558-2.12607V2.12607M233.60819-2.12607V2.12607"/>
<path transform="matrix(1.00008,0,0,-1.00003,1.0966492,89.50348)" stroke-width=".3985" stroke-linecap="butt" stroke-miterlimit="10" stroke-linejoin="miter" fill="none" stroke="#000000" d="M0 0H264.98829"/>
<path transform="matrix(1.00008,0,0,-1.00003,266.10615,89.50348)" d="M1.99252 0-1.19551 1.59401 0 0-1.19551-1.59401"/>
<use data-text="6" xlink:href="#font_1_5" transform="matrix(9.963397,0,0,-9.962899,29.489922,101.56984)"/>
<use data-text="1" xlink:href="#font_1_2" transform="matrix(9.963397,0,0,-9.962899,34.471628,101.56984)"/>
<use data-text="6" xlink:href="#font_1_5" transform="matrix(9.963397,0,0,-9.962899,62.86559,101.56984)"/>
<use data-text="4" xlink:href="#font_1_4" transform="matrix(9.963397,0,0,-9.962899,67.84729,101.56984)"/>
<use data-text="6" xlink:href="#font_1_5" transform="matrix(9.963397,0,0,-9.962899,96.24026,101.56984)"/>
<use data-text="7" xlink:href="#font_1_6" transform="matrix(9.963397,0,0,-9.962899,101.22196,101.56984)"/>
<use data-text="7" xlink:href="#font_1_6" transform="matrix(9.963397,0,0,-9.962899,129.61594,101.56984)"/>
<use data-text="0" xlink:href="#font_1_1" transform="matrix(9.963397,0,0,-9.962899,134.59764,101.56984)"/>
<use data-text="7" xlink:href="#font_1_6" transform="matrix(9.963397,0,0,-9.962899,162.99161,101.56984)"/>
<use data-text="3" xlink:href="#font_1_3" transform="matrix(9.963397,0,0,-9.962899,167.97332,101.56984)"/>
<use data-text="7" xlink:href="#font_1_6" transform="matrix(9.963397,0,0,-9.962899,196.36627,101.56984)"/>
<use data-text="6" xlink:href="#font_1_5" transform="matrix(9.963397,0,0,-9.962899,201.34798,101.56984)"/>
<use data-text="7" xlink:href="#font_1_6" transform="matrix(9.963397,0,0,-9.962899,229.74195,101.56984)"/>
<use data-text="9" xlink:href="#font_1_7" transform="matrix(9.963397,0,0,-9.962899,234.72364,101.56984)"/>
<g clip-path="url(#clip_2)">
<path transform="matrix(1.00008,0,0,-1.00003,1.0966492,89.50348)" d="M0 .0288 11.12419 .10341 22.2484 .33212 33.37259 .95428 44.4968 2.4539 55.62099 5.64635 66.7452 11.62567 77.86938 21.42155 88.99359 35.3246 100.11778 52.11412 111.24199 68.80139 122.3662 81.27754 133.49039 85.90616 144.6146 81.27754 155.73879 68.80139 166.86299 52.11412 177.98719 35.3246 189.11139 21.42155 200.23558 11.62567 211.35979 5.64635 222.484 2.4539 233.60819 .95428 244.73239 .33212 255.85659 .10341 266.9808 .0288V0H0Z" fill="#e6e6ff"/>
<path transform="matrix(1.00008,0,0,-1.00003,1.0966492,89.50348)" d="M100.11778 52.11412 102.89883 56.44548 105.67989 60.71588 108.46094 64.85657 111.24199 68.80139 114.02304 72.47903 116.8041 75.82938 119.58514 78.77594 122.3662 81.27754 125.14723 83.27914 127.92828 84.74043 130.70934 85.62526 133.49039 85.90616 136.27144 85.62526 139.05249 84.74043 141.83354 83.27914 144.6146 81.27754 147.39565 78.77594 150.17668 75.82938 152.95774 72.47903 155.73879 68.80139 158.51984 64.85657 161.30089 60.71588 164.08194 56.44548 166.86299 52.11412V0H100.11778Z" fill="#b3b3ff"/>
<path transform="matrix(1.00008,0,0,-1.00003,1.0966492,89.50348)" stroke-width=".79701" stroke-linecap="butt" stroke-miterlimit="10" stroke-linejoin="miter" fill="none" stroke="#0000ff" d="M0 .0288 2.6967 .03967 5.39343 .05428 8.09015 .07378 10.78688 .09964 13.4836 .13367 16.18033 .17818 18.87703 .23593 21.57376 .31041 24.27048 .40565 26.96721 .52675 29.66393 .67953 32.36066 .8709 35.05737 1.10893 37.75409 1.40279 40.45082 1.76299 43.14754 2.20125 45.84427 2.73062 48.54099 3.36519 51.23772 4.12025 53.93442 5.01189 56.63115 6.05682 59.32787 7.27193 62.0246 8.66963 64.72131 10.27522 67.41805 12.0973 70.11476 14.15132 72.81148 16.44586 75.50821 18.9887 78.20493 21.78236 80.90166 24.82343 83.59837 28.10677 86.2951 31.61174 88.9918 35.3246 91.68854 39.20757 94.38525 43.24687 97.08199 47.38756 99.77872 51.58063 102.47543 55.79091 105.17215 59.94101 107.86887 63.98892 110.5656 67.86415 113.26231 71.50829 115.95905 74.85004 118.65576 77.84042 121.3525 80.42706 124.0492 82.54893 126.74593 84.19061 129.44264 85.29022 132.13938 85.8486H134.8361L137.53282 85.29968 140.22954 84.19061 142.92626 82.5584 145.62299 80.42706 148.3197 77.84988 151.01644 74.85863 153.71315 71.50829 156.40987 67.87274 159.10659 63.99838 161.80332 59.95047 164.50003 55.80034 167.19676 51.59007 169.8935 47.397 172.59021 43.25461 175.28693 39.21616 177.98365 35.3246 180.68038 31.61174 183.37709 28.10677 186.07382 24.83203 188.77054 21.7901 191.46726 18.99814 194.16397 16.45447 196.8607 14.15991 199.55744 12.10674 202.25415 10.28467 204.95088 8.67737 207.6476 7.27444 210.34432 6.05907 213.04103 5.01376 215.73777 4.12187 218.43448 3.36653 221.13121 2.73174 223.82793 2.20222 226.52465 1.76378 229.22136 1.40343 231.91809 1.10944 234.61483 .87132 237.31154 .67986 240.00827 .52702 242.70499 .40588 245.4017 .31053 248.09842 .23607 250.79515 .17828 253.49187 .13376 256.1886 .09969 258.8853 .07382 261.58204 .05432 264.27876 .0397 266.9755 .02882"/>
<path transform="matrix(1.00008,0,0,-1.00003,1.0966492,89.50348)" stroke-width=".3985" stroke-linecap="butt" stroke-dasharray="2.98883,2.98883" stroke-miterlimit="10" stroke-linejoin="miter" fill="none" stroke="#7f807f" d="M133.49039 0V85.91907"/>
<path transform="matrix(1.00008,0,0,-1.00003,1.0966492,89.50348)" stroke-width=".3985" stroke-linecap="butt" stroke-dasharray="2.98883,2.98883" stroke-miterlimit="10" stroke-linejoin="miter" fill="none" stroke="#999999" d="M100.11778 0V51.68063"/>
<path transform="matrix(1.00008,0,0,-1.00003,1.0966492,89.50348)" stroke-width=".3985" stroke-linecap="butt" stroke-dasharray="2.98883,2.98883" stroke-miterlimit="10" stroke-linejoin="miter" fill="none" stroke="#999999" d="M166.86299 0V51.68063"/>
<path transform="matrix(1.00008,0,0,-1.00003,1.0966492,89.50348)" stroke-width=".3985" stroke-linecap="butt" stroke-dasharray="2.98883,2.98883" stroke-miterlimit="10" stroke-linejoin="miter" fill="none" stroke="#b2b3b2" d="M66.7452 0V9.69011"/>
<path transform="matrix(1.00008,0,0,-1.00003,1.0966492,89.50348)" stroke-width=".3985" stroke-linecap="butt" stroke-dasharray="2.98883,2.98883" stroke-miterlimit="10" stroke-linejoin="miter" fill="none" stroke="#b2b3b2" d="M200.23558 0V9.69011"/>
<use data-text="6" xlink:href="#font_3_101" transform="matrix(9.963397,0,0,-9.962899,125.4666,67.119808)"/>
<use data-text="8" xlink:href="#font_3_51" transform="matrix(9.963397,0,0,-9.962899,130.4483,67.119808)"/>
<use data-text="%" xlink:href="#font_3_87" transform="matrix(9.963397,0,0,-9.962899,135.43,67.119808)"/>
<path transform="matrix(1.00008,0,0,-1.00003,1.0966492,89.50348)" stroke-width=".79701" stroke-linecap="butt" stroke-miterlimit="10" stroke-linejoin="miter" fill="none" stroke="#ff0000" d="M67.45256 71.06088H199.52823"/>
<path transform="matrix(-1.00008,-0,0,1.00003,68.5546,18.44046)" stroke-width=".6376" stroke-linecap="round" stroke-linejoin="round" fill="none" stroke="#ff0000" d="M-1.55415 2.0722C-1.42464 1.29512 0 .1295 .38852 0 0-.1295-1.42464-1.29512-1.55415-2.0722"/>
<path transform="matrix(1.00008,0,0,-1.00003,200.64084,18.44046)" stroke-width=".6376" stroke-linecap="round" stroke-linejoin="round" fill="none" stroke="#ff0000" d="M-1.55415 2.0722C-1.42464 1.29512 0 .1295 .38852 0 0-.1295-1.42464-1.29512-1.55415-2.0722"/>
<path transform="matrix(1.00008,0,0,-1.00003,1.0966492,89.50348)" d="M121.03896 63.72533H145.94182V78.39641H121.03896Z" fill="#ffffff"/>
<use data-text="9" xlink:href="#font_3_78" transform="matrix(9.963397,0,0,-9.962899,125.4666,21.897454)" fill="#ff0000"/>
<use data-text="5" xlink:href="#font_3_56" transform="matrix(9.963397,0,0,-9.962899,130.4483,21.897454)" fill="#ff0000"/>
<use data-text="%" xlink:href="#font_3_87" transform="matrix(9.963397,0,0,-9.962899,135.43,21.897454)" fill="#ff0000"/>
<path transform="matrix(1.00008,0,0,-1.00003,1.0966492,89.50348)" stroke-width=".79701" stroke-linecap="butt" stroke-miterlimit="10" stroke-linejoin="miter" fill="none" stroke="#000000" d="M34.07996 83.98105H232.90082"/>
<path transform="matrix(-1.00008,-0,0,1.00003,35.179338,5.519905)" stroke-width=".6376" stroke-linecap="round" stroke-linejoin="round" fill="none" stroke="#000000" d="M-1.55415 2.0722C-1.42464 1.29512 0 .1295 .38852 0 0-.1295-1.42464-1.29512-1.55415-2.0722"/>
<path transform="matrix(1.00008,0,0,-1.00003,234.0161,5.519905)" stroke-width=".6376" stroke-linecap="round" stroke-linejoin="round" fill="none" stroke="#000000" d="M-1.55415 2.0722C-1.42464 1.29512 0 .1295 .38852 0 0-.1295-1.42464-1.29512-1.55415-2.0722"/>
<path transform="matrix(1.00008,0,0,-1.00003,1.0966492,89.50348)" d="M117.16344 76.6455H149.81734V91.31658H117.16344Z" fill="#ffffff"/>
<use data-text="9" xlink:href="#font_3_78" transform="matrix(9.963397,0,0,-9.962899,121.59029,8.977058)"/>
<use data-text="9" xlink:href="#font_3_78" transform="matrix(9.963397,0,0,-9.962899,126.57199,8.977058)"/>
<use data-text="." xlink:href="#font_3_88" transform="matrix(9.963397,0,0,-9.962899,131.55368,8.977058)"/>
<use data-text="7" xlink:href="#font_3_100" transform="matrix(9.963397,0,0,-9.962899,134.32352,8.977058)"/>
<use data-text="%" xlink:href="#font_3_87" transform="matrix(9.963397,0,0,-9.962899,139.3052,8.977058)"/>
</g>
<use data-text="H" xlink:href="#font_3_62" transform="matrix(9.963397,0,0,-9.962899,99.14749,114.88224)"/>
<use data-text="e" xlink:href="#font_3_50" transform="matrix(9.963397,0,0,-9.962899,106.62005,114.88224)"/>
<use data-text="i" xlink:href="#font_3_66" transform="matrix(9.963397,0,0,-9.962899,111.04379,114.88224)"/>
<use data-text="g" xlink:href="#font_3_59" transform="matrix(9.963397,0,0,-9.962899,113.813617,114.88224)"/>
<use data-text="h" xlink:href="#font_3_63" transform="matrix(9.963397,0,0,-9.962899,118.79531,114.88224)"/>
<use data-text="t" xlink:href="#font_3_105" transform="matrix(9.963397,0,0,-9.962899,124.065959,114.88224)"/>
<use data-text="i" xlink:href="#font_3_66" transform="matrix(9.963397,0,0,-9.962899,131.24958,114.88224)"/>
<use data-text="n" xlink:href="#font_3_77" transform="matrix(9.963397,0,0,-9.962899,134.01938,114.88224)"/>
<use data-text="I" xlink:href="#font_3_65" transform="matrix(9.963397,0,0,-9.962899,142.87685,114.88224)"/>
<use data-text="n" xlink:href="#font_3_77" transform="matrix(9.963397,0,0,-9.962899,146.47364,114.88224)"/>
<use data-text="c" xlink:href="#font_3_43" transform="matrix(9.963397,0,0,-9.962899,152.01328,114.88224)"/>
<use data-text="h" xlink:href="#font_3_63" transform="matrix(9.963397,0,0,-9.962899,156.16803,114.88224)"/>
<use data-text="e" xlink:href="#font_3_50" transform="matrix(9.963397,0,0,-9.962899,161.70767,114.88224)"/>
<use data-text="s" xlink:href="#font_3_98" transform="matrix(9.963397,0,0,-9.962899,166.13141,114.88224)"/>
</svg>
