<svg xmlns="http://www.w3.org/2000/svg" xmlns:xlink="http://www.w3.org/1999/xlink" xmlns:inkscape="http://www.inkscape.org/namespaces/inkscape" version="1.1" width="144" height="92" viewBox="0 0 144 92">
<defs>
<path id="font_1_3" d="M.33399964 .30233766C.33999635 .32835389 .36299134 .42037965 .43299867 .42037965 .43798829 .42037965 .46199037 .42037965 .48298646 .40734864 .45498658 .402359 .43499757 .37734986 .43499757 .35334779 .43499757 .33735658 .44599916 .31835938 .47299195 .31835938 .49499513 .31835938 .5269928 .3363495 .5269928 .37635804 .5269928 .42837525 .46798707 .4423828 .43399049 .4423828 .37599183 .4423828 .34098817 .38935853 .32899476 .36634828 .3039856 .43237306 .25 .4423828 .22099304 .4423828 .116989139 .4423828 .05999756 .3133545 .05999756 .28834535 .05999756 .27833558 .069992069 .27833558 .07199097 .27833558 .07998657 .27833558 .08299255 .28033448 .084991458 .28933717 .11898804 .39535523 .18499756 .42037965 .21899414 .42037965 .23799134 .42037965 .272995 .4113617 .272995 .35334779 .272995 .32235719 .2559967 .25532533 .21899414 .11528015 .20298767 .053268434 .16799927 .011245728 .12399292 .011245728 .117996219 .011245728 .09498596 .011245728 .07398987 .024276734 .09899902 .029266358 .12098694 .05027771 .12098694 .07827759 .12098694 .105270389 .09899902 .11328125 .083999637 .11328125 .053985597 .11328125 .0289917 .08728027 .0289917 .055267335 .0289917 .009246826 .07899475-.0107421879 .12298584-.0107421879 .18899536-.0107421879 .22499085 .059280397 .22799683 .0652771 .23999024 .028274537 .27598573-.0107421879 .33599855-.0107421879 .43899537-.0107421879 .49598695 .118270877 .49598695 .14328003 .49598695 .1532898 .4869995 .1532898 .48399354 .1532898 .47499085 .1532898 .47299195 .14929199 .47099305 .14228821 .43798829 .03527832 .36999513 .011245728 .33799745 .011245728 .29899598 .011245728 .2829895 .043273927 .2829895 .07727051 .2829895 .09927368 .2889862 .121276859 .2999878 .16529846L.33399964 .30233766Z"/>
<path id="font_1_4" d="M.48599244 .38136292C.48999024 .39537049 .48999024 .39736939 .48999024 .40437318 .48999024 .42237855 .47599793 .43138124 .46099855 .43138124 .45098878 .43138124 .43499757 .42536927 .42599488 .41036988 .42399598 .405365 .41600038 .37435914 .4119873 .35635377 .40499879 .33035279 .397995 .30334474 .3919983 .27633668L.34700013 .09628296C.34298707 .08126831 .2999878 .011245728 .23399353 .011245728 .18299866 .011245728 .17199707 .055267335 .17199707 .0922699 .17199707 .1382904 .18899536 .20030213 .22299195 .28833009 .23899842 .3293457 .24299622 .3403473 .24299622 .36035157 .24299622 .405365 .21099854 .4423828 .16099549 .4423828 .06599426 .4423828 .0289917 .29733277 .0289917 .28833009 .0289917 .27833558 .038986207 .27833558 .040985109 .27833558 .050994874 .27833558 .051986696 .28033448 .056991579 .29634095 .083999637 .3903656 .12399292 .42037965 .1579895 .42037965 .1659851 .42037965 .18299866 .42037965 .18299866 .3883667 .18299866 .36335755 .17298889 .3373413 .1659851 .31834413 .12599182 .21231079 .10798645 .1552887 .10798645 .10827637 .10798645 .019256592 .17098999-.0107421879 .22999573-.0107421879 .2689972-.0107421879 .30299378 .0062561037 .33099366 .03425598 .31799317-.017745972 .30599977-.06674194 .2659912-.11973572 .23999024-.15385437 .20199585-.18309021 .1559906-.18309021 .14199829-.18309021 .09700012-.18005371 .07998657-.14074707 .09599304-.14074707 .10899353-.14074707 .12298584-.1287384 .1329956-.11973572 .14299011-.10673523 .14299011-.08773804 .14299011-.056747438 .115997318-.052734376 .10598755-.052734376 .08299255-.052734376 .049987794-.068740848 .049987794-.11773682 .049987794-.16796875 .09399414-.20507813 .1559906-.20507813 .25898744-.20507813 .3619995-.11373901 .3899994-.00074768069L.48599244 .38136292Z"/>
<path id="font_1_2" d="M.5159912 .68333438C.5159912 .6843262 .5159912 .69433596 .5029907 .69433596 .48799134 .69433596 .3929901 .68533328 .37599183 .68333438 .36799623 .6823273 .3619995 .6773224 .3619995 .6643219 .3619995 .6523285 .37098695 .6523285 .38598634 .6523285 .43399049 .6523285 .43598939 .6453247 .43598939 .6353302L.43299867 .6153412 .37298585 .37835694C.35499574 .41537477 .32598878 .4423828 .2809906 .4423828 .1639862 .4423828 .039993287 .29533387 .039993287 .14929199 .039993287 .055267335 .09498596-.0107421879 .17298889-.0107421879 .19299317-.0107421879 .24299622-.0067443849 .30299378 .06427002 .31098939 .022247315 .34599305-.0107421879 .3939972-.0107421879 .42900086-.0107421879 .45199586 .012252808 .46798707 .044265748 .4850006 .08027649 .49798585 .14129639 .49798585 .14329529 .49798585 .1532898 .4889984 .1532898 .48599244 .1532898 .47599793 .1532898 .47499085 .14929199 .47200013 .13528443 .45498658 .07026672 .43699647 .011245728 .3959961 .011245728 .36898805 .011245728 .3659973 .037261964 .3659973 .057266237 .3659973 .08126831 .36799623 .088272098 .37199403 .105285648L.5159912 .68333438M.30799867 .119277957C.30299378 .10127258 .30299378 .09927368 .28799439 .08227539 .24398804 .027252198 .20298767 .011245728 .1749878 .011245728 .125 .011245728 .11099243 .06626892 .11099243 .105285648 .11099243 .1552887 .14299011 .27833558 .1659851 .32434083 .19699097 .38336183 .24198914 .42037965 .28199769 .42037965 .34700013 .42037965 .36099244 .3383484 .36099244 .33235169 .36099244 .32633973 .35899354 .32034303 .35798646 .31533814L.30799867 .119277957Z"/>
<path id="font_2_1" d="M.33099366-.2400055C.33099366-.23701477 .33099366-.23500061 .31399537-.21800232 .18899536-.0920105 .15699768 .09700012 .15699768 .25 .15699768 .42399598 .19499207 .59799197 .31799317 .72299197 .33099366 .73498538 .33099366 .7369995 .33099366 .73999026 .33099366 .746994 .32699586 .75 .32099916 .75 .31098939 .75 .22099304 .6819916 .1619873 .5549927 .11099243 .44499208 .09899902 .33399964 .09899902 .25 .09899902 .17199707 .10998535 .050994874 .16499329-.06201172 .22499085-.18501282 .31098939-.25 .32099916-.25 .32699586-.25 .33099366-.24700928 .33099366-.2400055Z"/>
<path id="font_2_3" d="M.45999146 .31976319C.45999146 .39982606 .45498658 .47988893 .41999818 .5539398 .37399293 .65000918 .2919922 .6660156 .25 .6660156 .18998719 .6660156 .116989139 .64001467 .07598877 .54693606 .04399109 .47789 .038986207 .39982606 .038986207 .31976319 .038986207 .24472046 .042999269 .15464783 .083999637 .07859802 .1269989-.0024719239 .19999695-.022460938 .24899292-.022460938 .30299378-.022460938 .3789978-.0014648438 .4229889 .09359741 .45498658 .16265869 .45999146 .2407074 .45999146 .31976319M.24899292-.00047302247C.20999146-.00047302247 .15098572 .024551392 .1329956 .12062073 .12199402 .18066406 .12199402 .2727356 .12199402 .3317871 .12199402 .39582826 .12199402 .46188355 .12998963 .5159149 .14898682 .63500979 .22399903 .64401248 .24899292 .64401248 .28199769 .64401248 .34799195 .6259918 .36698915 .52693179 .3769989 .47088624 .3769989 .39482118 .3769989 .3317871 .3769989 .25672914 .3769989 .18867493 .3659973 .12461853 .35099793 .029556275 .2939911-.00047302247 .24899292-.00047302247Z"/>
<path id="font_1_1" d="M.20298767 .0009918213C.20298767 .066986087 .17799378 .10598755 .13899231 .10598755 .10598755 .10598755 .085998538 .08099365 .085998538 .052993776 .085998538 .025985718 .10598755 0 .13899231 0 .15098572 0 .1639862 .0039978029 .17399597 .0129852299 .1769867 .01499939 .17799378 .015991211 .1789856 .015991211 .17999268 .015991211 .18099976 .01499939 .18099976 .0009918213 .18099976-.07316589 .1459961-.13328552 .11299133-.16635132 .101989749-.17736817 .101989749-.17936707 .101989749-.18237305 .101989749-.18936157 .10699463-.19335938 .11199951-.19335938 .12298584-.19335938 .20298767-.116256717 .20298767 .0009918213Z"/>
<path id="font_2_2" d="M.2889862 .25C.2889862 .32798768 .27799989 .44898988 .22299195 .56199648 .16299439 .68499758 .07699585 .75 .066986087 .75 .06098938 .75 .056991579 .74598696 .056991579 .73999026 .056991579 .7369995 .056991579 .73498538 .07598877 .71699526 .17399597 .6179962 .23098755 .45899964 .23098755 .25 .23098755 .07899475 .19400025-.09700012 .069992069-.2230072 .056991579-.23500061 .056991579-.23701477 .056991579-.2400055 .056991579-.2460022 .06098938-.25 .066986087-.25 .07699585-.25 .16699219-.18200684 .22599793-.055007936 .2769928 .054992677 .2889862 .16600037 .2889862 .25Z"/>
<path id="font_2_4" d="M.2899933 .35191346C.37199403 .37893678 .42999269 .4490509 .42999269 .52809146 .42999269 .6100464 .34199525 .6660156 .24598694 .6660156 .14498902 .6660156 .068984989 .60606387 .068984989 .53009036 .068984989 .49710084 .09098816 .47808839 .11999512 .47808839 .15098572 .47808839 .17098999 .50009158 .17098999 .5290985 .17098999 .57910159 .12399292 .57910159 .10899353 .57910159 .13999939 .62802127 .20599365 .64100649 .24198914 .64100649 .2829895 .64100649 .33799745 .6190338 .33799745 .5290985 .33799745 .51708987 .33599855 .45906068 .30999757 .4149933 .27999879 .36691285 .24598694 .36390687 .22099304 .36291505 .21299744 .36190797 .18899536 .35990907 .18199158 .35990907 .17399597 .35890199 .16699219 .35791017 .16699219 .3479004 .16699219 .33691407 .17399597 .33691407 .19099427 .33691407H.23498535C.31698609 .33691407 .35398866 .2686615 .35398866 .17037964 .35398866 .034469606 .2849884 .0055389406 .24099732 .0055389406 .19799805 .0055389406 .12298584 .022491456 .08799744 .08137512 .12298584 .07637024 .1539917 .09837341 .1539917 .1363678 .1539917 .17237854 .1269989 .19238281 .09799194 .19238281 .07398987 .19238281 .041992189 .17837525 .041992189 .1343689 .041992189 .043441774 .1349945-.022460938 .24398804-.022460938 .3659973-.022460938 .45700074 .06838989 .45700074 .17037964 .45700074 .252594 .3939972 .33088685 .2899933 .35191346Z"/>
<path id="font_3_1" d="M.6589966 .23046875C.6759949 .23046875 .69400027 .23046875 .69400027 .25045777 .69400027 .27046205 .6759949 .27046205 .6589966 .27046205H.117996219C.100997928 .27046205 .08299255 .27046205 .08299255 .25045777 .08299255 .23046875 .100997928 .23046875 .117996219 .23046875H.6589966Z"/>
<path id="font_4_2" d="M.272995 .33428956C.35099793 .33428956 .40699769 .2803192 .40699769 .1733551 .40699769 .04940796 .33499146 .012466431 .2769928 .012466431 .23699951 .012466431 .14898682 .0234375 .10699463 .082351688 .1539917 .084350589 .16499329 .11735535 .16499329 .13835144 .16499329 .17034912 .14099121 .19335938 .10998535 .19335938 .08198547 .19335938 .053985597 .17634583 .053985597 .13534546 .053985597 .041412355 .1579895-.01953125 .2789917-.01953125 .41799928-.01953125 .5139923 .07336426 .5139923 .1733551 .5139923 .2513275 .44999696 .32929994 .33999635 .35229493 .44499208 .39024354 .48298646 .4650879 .48298646 .5260773 .48298646 .60505679 .3919983 .6640625 .2809906 .6640625 .16999817 .6640625 .084991458 .61006167 .084991458 .5300751 .084991458 .49606324 .10699463 .47706605 .13699341 .47706605 .16799927 .47706605 .18798828 .5000763 .18798828 .5280762 .18798828 .5570679 .16799927 .57806399 .13699341 .5800781 .17199707 .62405398 .24099732 .63505557 .27799989 .63505557 .32299806 .63505557 .38598634 .6130676 .38598634 .5260773 .38598634 .48406983 .37199403 .43814088 .34599305 .4072113 .31298829 .36927796 .2849884 .3672943 .23498535 .36428834 .20999146 .3623047 .20799256 .3623047 .20298767 .3612976 .20098877 .3612976 .19299317 .3592987 .19299317 .34829713 .19299317 .33428956 .20199585 .33428956 .21899414 .33428956H.272995Z"/>
<path id="font_4_1" d="M.5049896 .18203736H.47099305C.46798707 .16001892 .45799256 .100997928 .44499208 .09098816 .43699647 .084991458 .3600006 .084991458 .34599305 .084991458H.1619873C.2669983 .17803955 .3019867 .20603943 .3619995 .25306703 .43598939 .312088 .5049896 .374115 .5049896 .46914674 .5049896 .5900879 .39898683 .6640625 .2709961 .6640625 .14698792 .6640625 .06298828 .57710269 .06298828 .4851532 .06298828 .43414308 .10598755 .42915345 .115997318 .42915345 .13999939 .42915345 .16899109 .44615174 .16899109 .48214723 .16899109 .5001526 .1619873 .53515627 .10998535 .53515627 .14099121 .6060791 .20899964 .62805178 .2559967 .62805178 .35598756 .62805178 .4079895 .5501404 .4079895 .46914674 .4079895 .38212586 .34599305 .3130951 .31399537 .27708436L.07299805 .038986207C.06298828 .02999878 .06298828 .027999878 .06298828 0H.47499085L.5049896 .18203736Z"/>
<path id="font_5_95" d="M.7519989 .088897708C.7519989 .09489441 .7519989 .10687256 .73799136 .10687256 .72499087 .10687256 .72499087 .09788513 .723999 .08988953 .71899417 .026992798 .6879883 .0029907227 .6569977 .0029907227 .625 .0029907227 .6139984 .022994996 .60598757 .039978029 .5970001 .061935426 .58799746 .12983704 .58200076 .17475891 .57398989 .23666382 .5649872 .3035431 .45399476 .33850099 .548996 .36550904 .6269989 .42453004 .6269989 .5025635 .6269989 .601593 .5059967 .6826172 .35899354 .6826172H.039993287V.6516113H.06298828C.13999939 .6516113 .14199829 .64060977 .14199829 .6035919V.07891846C.14199829 .04197693 .13999939 .0309906 .06298828 .0309906H.039993287V0C.08699036 .0029907227 .13699341 .0029907227 .18499756 .0029907227 .23298645 .0029907227 .2829895 .0029907227 .33099366 0V.0309906H.30799867C.23098755 .0309906 .22898865 .04197693 .22898865 .07891846V.32850648H.34899903C.42099 .32850648 .45298768 .29057313 .45700074 .28657533 .4869995 .24963379 .4869995 .23466492 .4869995 .16377259 .4869995 .09687805 .4869995 .052963258 .5349884 .01499939 .58200076-.022003174 .6419983-.022003174 .6529999-.022003174 .7369995-.022003174 .7519989 .064941409 .7519989 .088897708M.5249939 .5025635C.5249939 .41653443 .48098756 .35351563 .34498597 .35351563H.22898865V.6105957C.22898865 .63661196 .23098755 .6456146 .25 .6496124 .25898744 .6516113 .29100038 .6516113 .31199647 .6516113 .397995 .6516113 .5249939 .6516113 .5249939 .5025635Z"/>
<path id="font_5_50" d="M.4269867 .11936951C.4269867 .12637329 .42199708 .13237 .41299439 .13237 .40299989 .13237 .3999939 .12536621 .39898683 .12136841 .36499024 .019256592 .27598573 .01725769 .26098634 .01725769 .21299744 .01725769 .17199707 .044281007 .14898682 .078323367 .115997318 .12736511 .114990238 .18743897 .114990238 .22949219H.3999939C.42199708 .22949219 .4269867 .22949219 .4269867 .25048829 .4269867 .35333253 .37098695 .4482422 .24299622 .4482422 .12298584 .4482422 .0289917 .3443451 .0289917 .22047425 .0289917 .08932495 .13398743-.0107421879 .2559967-.0107421879 .37799073-.0107421879 .4269867 .096343997 .4269867 .11936951M.35899354 .253479H.115997318C.125 .40725709 .21499634 .42323304 .24299622 .42323304 .2979889 .42323304 .35798646 .38130189 .35899354 .253479Z"/>
<path id="font_5_59" d="M.49899293 .40338136C.49899293 .42237855 .4850006 .45336915 .44499208 .45336915 .41600038 .45336915 .37098695 .4423828 .33599855 .40637208 .30899049 .42837525 .269989 .4423828 .22799683 .4423828 .1329956 .4423828 .06098938 .3743744 .06098938 .29537965 .06098938 .2443695 .09098816 .20837403 .10699463 .19337464 .10499573 .19137573 .07699585 .15637207 .07699585 .11038208 .07699585 .07637024 .09298706 .040374757 .11999512 .022369385 .068984989 .005874634 .0289917-.03111267 .0289917-.07809448 .0289917-.14907837 .12799073-.20605469 .2559967-.20605469 .3789978-.20605469 .48399354-.15307617 .48399354-.07609558 .48399354-.035110475 .46499635 .008880615 .42799378 .03288269 .37199403 .067871097 .31399537 .067871097 .21899414 .067871097 .19898987 .067871097 .16699219 .067871097 .15899658 .069885257 .12998963 .075927738 .11099243 .1031189 .11099243 .13534546 .11099243 .15142823 .115997318 .16642761 .125 .1794281 .1499939 .16343689 .18099976 .1484375 .22698975 .1484375 .32199098 .1484375 .3939972 .21643067 .3939972 .29542542 .3939972 .34443666 .3659973 .37843324 .35299684 .39242555 .3929901 .42843629 .43998719 .42843629 .45199586 .42843629 .44699098 .4254303 .43899537 .42042542 .43899537 .4024353 .43899537 .39143373 .44599916 .37243653 .46899415 .37243653 .48298646 .37243653 .49899293 .38243104 .49899293 .40342713V.40338136M.31698609 .29542542C.31698609 .27243043 .31698609 .1754303 .22698975 .1754303 .13798523 .17520142 .13798523 .27326966 .13798523 .2952881 .13798523 .3223114 .13999939 .35632325 .15699768 .38034059 .17199707 .4003601 .19898987 .41537477 .22698975 .41537477 .31698609 .41537477 .31698609 .31829835 .31698609 .2952881V.29542542M.42799378-.07698059C.42799378-.1340332 .35099793-.17906189 .25698854-.17906189 .15899658-.17912293 .084991458-.13212586 .084991458-.07711792 .084991458-.06112671 .09498596 .0048828127 .18099976 .0048828127H.272995C.30499269 .0048828127 .42799378 .0038757325 .42799378-.07711792V-.07698059Z"/>
<path id="font_5_66" d="M.25299073 0V.0309906C.18798828 .0309906 .18399048 .035995485 .18399048 .075042728V.4423828L.039993287 .43066407V.3996582C.10398865 .3996582 .11299133 .3936615 .11299133 .3447113V.07695007C.11299133 .0309906 .101989749 .0309906 .035995485 .0309906V0C.08099365 .0019989014 .101989749 .0029907227 .1459961 .0029907227 .1619873 .0029907227 .20399475 .0029907227 .25299073 0M.19699097 .6028137C.19699097 .63282778 .17298889 .6568146 .14299011 .6568146 .11299133 .6568146 .08898926 .63282778 .08898926 .6028137 .08898926 .57281497 .11299133 .5488281 .14299011 .5488281 .17298889 .5488281 .19699097 .57281497 .19699097 .6028137Z"/>
<path id="font_5_81" d="M.48399354 .21324158C.48399354 .34423829 .37998963 .4482422 .25698854 .4482422 .12998963 .4482422 .0289917 .3412323 .0289917 .21324158 .0289917 .08824158 .1329956-.0107421879 .2559967-.0107421879 .3829956-.0107421879 .48399354 .09024048 .48399354 .21324158M.397995 .22224427C.397995 .1852417 .397995 .12724304 .37298585 .08325195 .34498597 .037246705 .29899598 .01725769 .25698854 .01725769 .20698548 .01725769 .16499329 .042251588 .14199829 .08125305 .115997318 .12324524 .114990238 .17623902 .114990238 .22224427 .114990238 .25924684 .114990238 .3162384 .13999939 .35723878 .16999817 .40823365 .21998596 .42323304 .2559967 .42323304 .31298829 .42323304 .35398866 .39123536 .37399293 .35723878 .39698792 .31523133 .397995 .26423646 .397995 .22224427Z"/>
<path id="font_5_77" d="M.5469971 0V.0309906C.49598695 .03125 .47099305 .03125 .46998597 .0622406V.25431825C.46998597 .3373413 .46998597 .36636354 .44198609 .4013672 .4189911 .42938233 .3809967 .4423828 .33099366 .4423828 .23799134 .4423828 .19499207 .37335206 .18099976 .34535218H.17999268V.4423828L.034988405 .43066407V.3996582C.102996829 .3996582 .11199951 .39266969 .11199951 .34370423V.07695007C.11199951 .0309906 .100997928 .0309906 .034988405 .0309906V0C.08198547 .0019989014 .100997928 .0029907227 .14898682 .0029907227 .19699097 .0029907227 .20999146 .0019989014 .2630005 0V.0309906C.19699097 .0309906 .18598938 .0309906 .18598938 .07695007V.25878907C.18598938 .36532594 .26098634 .41737367 .32398988 .41737367 .3829956 .41737367 .3959961 .3683319 .3959961 .30825807V.077041629C.3959961 .0309906 .3849945 .0309906 .31900025 .0309906V0C.3659973 .0019989014 .3849945 .0029907227 .43299867 .0029907227 .48098756 .0029907227 .49398805 .0019989014 .5469971 0Z"/>
<path id="font_6_1" d="M.3809967 .6125946C.3869934 .63760378 .3899994 .6476135 .4079895 .65060427 .4169922 .6516113 .44999696 .6516113 .47099305 .6516113 .5499878 .6516113 .6599884 .6516113 .6599884 .5505829 .6599884 .51356509 .644989 .4385376 .58799746 .39552308 .56399539 .3795166 .5139923 .35351563 .43299867 .35351563H.31599427L.3809967 .6125946M.5359955 .33850099C.6719971 .3735199 .7559967 .44953919 .7559967 .53157046 .7559967 .61860659 .6609955 .6826172 .5279999 .6826172H.23799134C.21998596 .6826172 .20799256 .6826172 .20799256 .6646118 .20799256 .6516113 .21699524 .6516113 .23799134 .6516113 .24198914 .6516113 .2599945 .6516113 .27598573 .6496124 .29299928 .6476135 .2999878 .6456146 .2999878 .6345978 .2999878 .62960818 .29899598 .6255951 .29599 .6145935L.16099549 .075531009C.1519928 .039535524 .1499939 .030532837 .07499695 .030532837 .055999757 .030532837 .04499817 .030532837 .04499817 .012527466 .04499817 .0015258789 .052993776-.00047302247 .05999756-.00047302247 .07598877-.00047302247 .10598755 .0005340576 .12298584 .0015258789 .14399719 .002532959 .1459961 .002532959 .18499756 .002532959 .21699524 .002532959 .21899414 .002532959 .24899292 .0015258789 .2689972 .0005340576 .2939911-.00047302247 .31298829-.00047302247 .31999208-.00047302247 .33299256-.00047302247 .33299256 .017532349 .33299256 .030532837 .32299806 .030532837 .3019867 .030532837 .2979889 .030532837 .27999879 .030532837 .2639923 .03253174 .24198914 .03552246 .24099732 .039535524 .24099732 .04852295 .24099732 .05152893 .24099732 .053527833 .24598694 .0715332L.30999757 .32850648H.43299867C.522995 .32850648 .54599 .27650453 .54599 .23851013 .54599 .2315216 .54599 .22451782 .5399933 .20251465 .5159912 .11051941 .5159912 .10151672 .5159912 .08653259 .5159912-.0034637452 .6009979-.022460938 .6519928-.022460938 .7389984-.022460938 .7749939 .07852173 .7749939 .0945282 .7749939 .10151672 .7689972 .10652161 .7619934 .10652161 .7509918 .10652161 .75 .10151672 .74598696 .089523319 .72898867 .037521364 .69200137 .002532959 .6549988 .002532959 .61698916 .002532959 .61499026 .03253174 .61499026 .061523439 .61499026 .08653259 .621994 .14451599 .6230011 .15151978 .625 .16752625 .6299896 .20751953 .6299896 .22251892 .6299896 .2795105 .59399417 .31851197 .5359955 .33850099Z"/>
</defs>
<path transform="matrix(1.00006,0,0,-1.00003,70.74816,76.82292)" d="M59.52805 0 59.44176 3.16702 59.18924 6.32617 58.76868 9.46716 58.18098 12.58212 57.428 15.66135 56.51332 18.69516 55.43785 21.67628 54.20525 24.59564 52.81914 27.44597 51.28317 30.2188 49.60277 32.90501 47.78249 35.49918 45.82413 37.99164 43.7377 40.3769 41.52592 42.6465 39.19879 44.79741 36.75812 46.82057 34.21481 48.7105 31.57431 50.46295 28.84387 52.0713 26.03079 53.53188 23.14413 54.84169 20.19298 55.99646 17.1837 56.99019 14.12537 57.82463 11.02887 58.49437 7.90062 58.99818 4.7487 59.33427 1.5832 59.5032H-1.5841L-4.7487 59.33427-7.8997 58.99818-11.02798 58.49437-14.12537 57.82584-17.1837 56.99078-20.19298 55.99646-23.14413 54.84169-26.03079 53.53188-28.84387 52.0713-31.57341 50.46295-34.21481 48.70988-36.75812 46.81935-39.19879 44.79741-41.52592 42.64772-43.7368 40.3769-45.82323 37.99164-47.78065 35.49918-49.60277 32.90501-51.28317 30.2188-52.81914 27.44597-54.20525 24.59564-55.43785 21.67628-56.51332 18.69516-57.428 15.66013-58.1801 12.58212-58.76778 9.46838-59.18924 6.32617-59.44176 3.16702-59.52715 0Z" fill="#d9d9ff"/>
<path transform="matrix(1.00006,0,0,-1.00003,70.74816,76.82292)" stroke-width=".79701" stroke-linecap="butt" stroke-miterlimit="10" stroke-linejoin="miter" fill="none" stroke="#000000" d="M-69.4494 0H64.78691"/>
<path transform="matrix(1.00006,0,0,-1.00003,135.53896,76.82292)" d="M4.66248 0C3.28098 .25902 1.0361 1.0361-.51805 1.94269V-1.94269C1.0361-1.0361 3.28098-.25902 4.66248 0"/>
<use data-text="x" xlink:href="#font_1_3" transform="matrix(9.963197,0,0,-9.962899,137.35416,84.83216)"/>
<path transform="matrix(1.00006,0,0,-1.00003,70.74816,76.82292)" stroke-width=".79701" stroke-linecap="butt" stroke-miterlimit="10" stroke-linejoin="miter" fill="none" stroke="#000000" d="M0-11.90572V66.77129"/>
<path transform="matrix(0,-1.00003,-1.00006,-0,70.74816,10.049622)" d="M4.66248 0C3.28098 .25902 1.0361 1.0361-.51805 1.94269V-1.94269C1.0361-1.0361 3.28098-.25902 4.66248 0"/>
<use data-text="y" xlink:href="#font_1_4" transform="matrix(9.963197,0,0,-9.962899,61.78662,6.562805)"/>
<path transform="matrix(1.00006,0,0,-1.00003,70.74816,76.82292)" stroke-width=".79701" stroke-linecap="butt" stroke-miterlimit="10" stroke-linejoin="miter" fill="none" stroke="#0000cc" d="M59.52805 0 59.44176 3.16702 59.18924 6.32617 58.76868 9.46716 58.18098 12.58212 57.428 15.66135 56.51332 18.69516 55.43785 21.67628 54.20525 24.59564 52.81914 27.44597 51.28317 30.2188 49.60277 32.90501 47.78249 35.49918 45.82413 37.99164 43.7377 40.3769 41.52592 42.6465 39.19879 44.79741 36.75812 46.82057 34.21481 48.7105 31.57431 50.46295 28.84387 52.0713 26.03079 53.53188 23.14413 54.84169 20.19298 55.99646 17.1837 56.99019 14.12537 57.82463 11.02887 58.49437 7.90062 58.99818 4.7487 59.33427 1.5832 59.5032H-1.5841L-4.7487 59.33427-7.8997 58.99818-11.02798 58.49437-14.12537 57.82584-17.1837 56.99078-20.19298 55.99646-23.14413 54.84169-26.03079 53.53188-28.84387 52.0713-31.57341 50.46295-34.21481 48.70988-36.75812 46.81935-39.19879 44.79741-41.52592 42.64772-43.7368 40.3769-45.82323 37.99164-47.78065 35.49918-49.60277 32.90501-51.28317 30.2188-52.81914 27.44597-54.20525 24.59564-55.43785 21.67628-56.51332 18.69516-57.428 15.66013-58.1801 12.58212-58.76778 9.46838-59.18924 6.32617-59.44176 3.16702-59.52715 0"/>
<path transform="matrix(1.00006,0,0,-1.00003,70.74816,76.82292)" stroke-width=".79701" stroke-linecap="butt" stroke-miterlimit="10" stroke-linejoin="miter" fill="none" stroke="#0000cc" d="M-59.52805 0H59.52805"/>
<path transform="matrix(1.00006,0,0,-1.00003,70.74816,76.82292)" stroke-width=".79701" stroke-linecap="butt" stroke-miterlimit="10" stroke-linejoin="miter" fill="none" stroke="#ff0000" d="M-35.71687 23.81145H31.0544"/>
<path transform="matrix(1.00006,0,0,-1.00003,101.80442,53.010759)" d="M4.66248 0C3.28098 .25902 1.0361 1.0361-.51805 1.94269V-1.94269C1.0361-1.0361 3.28098-.25902 4.66248 0" fill="#ff0000"/>
<use data-text="d" xlink:href="#font_1_2" transform="matrix(9.963197,0,0,-9.962899,65.30784,49.291093)" fill="#ff0000"/>
<use data-text="x" xlink:href="#font_1_3" transform="matrix(9.963197,0,0,-9.962899,70.488719,49.291093)" fill="#ff0000"/>
<path transform="matrix(1.00006,0,0,-1.00003,70.74816,76.82292)" d="M1.49442 0C1.49442 .82533 .82533 1.49442 0 1.49442-.82533 1.49442-1.49442 .82533-1.49442 0-1.49442-.82533-.82533-1.49442 0-1.49442 .82533-1.49442 1.49442-.82533 1.49442 0ZM0 0"/>
<use data-text="(" xlink:href="#font_2_1" transform="matrix(9.963197,0,0,-9.962899,45.087625,87.81525)"/>
<use data-text="0" xlink:href="#font_2_3" transform="matrix(9.963197,0,0,-9.962899,48.953348,87.81525)"/>
<use data-text="," xlink:href="#font_1_1" transform="matrix(9.963197,0,0,-9.962899,53.943155,87.81525)"/>
<use data-text="0" xlink:href="#font_2_3" transform="matrix(9.963197,0,0,-9.962899,58.371408,87.81525)"/>
<use data-text=")" xlink:href="#font_2_2" transform="matrix(9.963197,0,0,-9.962899,63.353006,87.81525)"/>
<path transform="matrix(1.00006,0,0,-1.00003,70.74816,76.82292)" d="M61.02246 0C61.02246 .82533 60.3534 1.49442 59.52805 1.49442 58.70271 1.49442 58.03363 .82533 58.03363 0 58.03363-.82533 58.70271-1.49442 59.52805-1.49442 60.3534-1.49442 61.02246-.82533 61.02246 0ZM59.52805 0"/>
<use data-text="3" xlink:href="#font_2_4" transform="matrix(9.963197,0,0,-9.962899,127.78858,86.76322)"/>
<path transform="matrix(1.00006,0,0,-1.00003,70.74816,76.82292)" d="M-58.03363 0C-58.03363 .82533-58.70271 1.49442-59.52805 1.49442-60.3534 1.49442-61.02246 .82533-61.02246 0-61.02246-.82533-60.3534-1.49442-59.52805-1.49442-58.70271-1.49442-58.03363-.82533-58.03363 0ZM-59.52805 0"/>
<use data-text="&#x2212;" xlink:href="#font_3_1" transform="matrix(9.963197,0,0,-9.962899,4.8512117,86.76322)"/>
<use data-text="3" xlink:href="#font_2_4" transform="matrix(9.963197,0,0,-9.962899,12.599686,86.76322)"/>
<path transform="matrix(1.00006,0,0,-1.00003,70.74816,76.82292)" d="M1.49442 59.52805C1.49442 60.3534 .82533 61.02246 0 61.02246-.82533 61.02246-1.49442 60.3534-1.49442 59.52805-1.49442 58.70271-.82533 58.03363 0 58.03363 .82533 58.03363 1.49442 58.70271 1.49442 59.52805ZM0 59.52805"/>
<use data-text="3" xlink:href="#font_4_2" transform="matrix(6.9742186,0,0,-6.9740097,75.46344,6.4148027)"/>
<path transform="matrix(1.00006,0,0,-1.00003,-78.48479,-53.487)" stroke-width=".3985" stroke-linecap="butt" stroke-miterlimit="10" stroke-linejoin="miter" fill="none" stroke="#000000" d="M153.939-61.332H157.91"/>
<use data-text="2" xlink:href="#font_4_1" transform="matrix(6.9742186,0,0,-6.9740097,75.46344,13.7730259)"/>
<use data-text="R" xlink:href="#font_5_95" transform="matrix(8.966938,0,0,-8.966669,51.802026,39.276796)"/>
<use data-text="e" xlink:href="#font_5_50" transform="matrix(8.966938,0,0,-8.966669,58.58103,39.276796)"/>
<use data-text="g" xlink:href="#font_5_59" transform="matrix(8.966938,0,0,-8.966669,62.678918,39.276796)"/>
<use data-text="i" xlink:href="#font_5_66" transform="matrix(8.966938,0,0,-8.966669,67.287929,39.276796)"/>
<use data-text="o" xlink:href="#font_5_81" transform="matrix(8.966938,0,0,-8.966669,69.85247,39.276796)"/>
<use data-text="n" xlink:href="#font_5_77" transform="matrix(8.966938,0,0,-8.966669,74.46148,39.276796)"/>
<use data-text="R" xlink:href="#font_6_1" transform="matrix(8.966938,0,0,-8.966669,82.65687,39.276796)"/>
</svg>
