<svg xmlns="http://www.w3.org/2000/svg" xmlns:xlink="http://www.w3.org/1999/xlink" xmlns:inkscape="http://www.inkscape.org/namespaces/inkscape" version="1.1" width="212" height="105" viewBox="0 0 212 105">
<defs>
<path id="font_1_62" d="M.7509918 0V.032989503H.72898867C.6519928 .032989503 .6499939 .04399109 .6499939 .08097839V.60165408C.6499939 .63861086 .6519928 .6496124 .72898867 .6496124H.7509918V.6826172L.60398867 .6796112 .45700074 .6826172V.6496124H.47898866C.55599978 .6496124 .55799868 .63861086 .55799868 .60165408V.3718567H.23699951V.60165408C.23699951 .63861086 .23899842 .6496124 .31599427 .6496124H.33799745V.6826172L.19099427 .6796112 .04399109 .6826172V.6496124H.06599426C.14299011 .6496124 .14498902 .63861086 .14498902 .60165408V.08097839C.14498902 .04399109 .14299011 .032989503 .06599426 .032989503H.04399109V0L.19099427 .0029907227 .33799745 0V.032989503H.31599427C.23899842 .032989503 .23699951 .04399109 .23699951 .08097839V.3388672H.55799868V.08097839C.55799868 .04399109 .55599978 .032989503 .47898866 .032989503H.45700074V0L.60398867 .0029907227 .7509918 0Z"/>
<path id="font_1_81" d="M.5 .21325684C.5 .3382721 .39698792 .44628907 .2649994 .44628907 .1329956 .44628907 .02999878 .3382721 .02999878 .21325684 .02999878 .08824158 .13699341-.009765625 .2649994-.009765625 .3939972-.009765625 .5 .08824158 .5 .21325684M.41099549 .22225952C.41099549 .17625427 .40899659 .12124634 .3809967 .07923889 .35398866 .039230348 .30899049 .021224976 .2649994 .021224976 .21099854 .021224976 .16899109 .047225954 .14698792 .082229617 .12199402 .12324524 .11898804 .17224121 .11898804 .22225952 .11898804 .2602539 .11898804 .32026673 .1499939 .363266 .17599488 .3982849 .21798706 .41827394 .2649994 .41827394 .31698609 .41827394 .3600006 .39328004 .3829956 .35827638 .4099884 .31626893 .41099549 .2622528 .41099549 .22225952Z"/>
<path id="font_1_96" d="M.38398744 .3784027C.38398744 .4133911 .35198976 .44140626 .30799867 .44140626 .24299622 .44140626 .19898987 .39239503 .17799378 .33639527H.1769867V.44140626L.034988405 .43045045V.39746095C.102996829 .39746095 .11099243 .3904419 .11099243 .3413849V.078048709C.11099243 .032989503 .09899902 .032989503 .034988405 .032989503V0C.07398987 .0029907227 .1289978 .0029907227 .15299988 .0029907227 .21199036 .0029907227 .21398926 .0029907227 .2789917 0V.032989503H.25898744C.18598938 .032989503 .18399048 .044006349 .18399048 .08004761V.22824097C.18399048 .30332948 .21499634 .41145326 .31098939 .41345216 .30499269 .40899659 .29499818 .40098573 .29499818 .37799073 .29499818 .34700013 .31900025 .33299256 .33898927 .33299256 .36299134 .33299256 .38398744 .34899903 .38398744 .37799073V.3784027Z"/>
<path id="font_1_66" d="M.2599945 .0001373291V.03314209C.19499207 .03314209 .19099427 .038146974 .19099427 .07714844V.44140626L.04499817 .43045045V.39746095C.10899353 .39746095 .117996219 .39144898 .117996219 .34239198V.07814026C.117996219 .03314209 .10598755 .03314209 .041992189 .03314209V0C.08099365 .0029907227 .13699341 .0029907227 .1519928 .0029907227 .16499329 .0029907227 .22499085 .0029907227 .2599945 0V.0001373291M.20298767 .6021881C.20298767 .6351929 .1769867 .6582031 .147995 .6582031 .11898804 .6582031 .09298706 .6351929 .09298706 .6021881 .09298706 .5731964 .115997318 .54719546 .147995 .54719546 .1789856 .54719546 .20298767 .5731964 .20298767 .6021881Z"/>
<path id="font_1_120" d="M.4269867 .19284058H.3959961C.38598634 .07695007 .36698915 .0309906 .24398804 .0309906H.125L.4149933 .3956604C.42199708 .4046631 .42399598 .406662 .42399598 .4146576 .42399598 .43066407 .4119873 .43066407 .3959961 .43066407H.055999757L.04399109 .2637787H.07499695C.08099365 .36769105 .102996829 .40264894 .21499634 .40264894H.32899476L.038986207 .036987306C.03199768 .027999878 .02999878 .025985718 .02999878 .016998291 .02999878 0 .040985109 0 .057998659 0H.40899659L.4269867 .19284058Z"/>
<path id="font_1_77" d="M.56199648 0V.032989503C.49798585 .032989503 .48599244 .032989503 .48599244 .07803345V.3032837C.48599244 .38737489 .44799806 .44140626 .34298707 .44140626 .24398804 .44140626 .19898987 .36935426 .18699646 .34532167H.18598938V.44140626L.040985109 .43045045V.39746095C.10899353 .39746095 .116989139 .3904419 .116989139 .3413849V.078048709C.116989139 .032989503 .10499573 .032989503 .040985109 .032989503V0C.083999637 .0029907227 .12799073 .0029907227 .15499878 .0029907227 .18399048 .0029907227 .22599793 .0029907227 .2689972 0V.032989503C.20498657 .032989503 .19299317 .032989503 .19299317 .078048709V.25927735C.19299317 .36434938 .272995 .4133911 .33399964 .4133911 .394989 .4133911 .4099884 .37036134 .4099884 .3072815V.07803345C.4099884 .032989503 .397995 .032989503 .33399964 .032989503V0C.3769989 .0029907227 .42099 .0029907227 .44799806 .0029907227 .47698976 .0029907227 .5189972 .0029907227 .56199648 0Z"/>
<path id="font_1_105" d="M.35299684 .1250763V.1809845H.32199098V.12705994C.32199098 .058166505 .29100038 .021224976 .25299073 .021224976 .18598938 .021224976 .18598938 .10710144 .18598938 .12307739V.3976593H.33499146V.43066407H.18598938V.6142578H.15499878C.1539917 .52345278 .11299133 .4286499 .019989014 .42565919V.3976593H.10998535V.1250763C.10998535 .008224487 .19999695-.009765625 .24598694-.009765625 .31298829-.010009766 .35299684 .049987794 .35299684 .125V.1250763Z"/>
<path id="font_1_28" d="M.5139923 .09020996V.14530945H.48298646V.09020996C.48298646 .0491333 .46798707 .033111574 .44699098 .033111574 .4099884 .033111574 .4099884 .079193118 .4099884 .09020996V.29856874C.4099884 .39653016 .31498719 .44628907 .22399903 .44628907 .14099121 .44628907 .066986087 .4143219 .066986087 .34857179 .066986087 .318573 .08799744 .30056764 .11399841 .30056764 .14199829 .30056764 .16099549 .3205719 .16099549 .3475647 .16099549 .37156678 .1459961 .38856507 .12399292 .3935547 .16099549 .41827394 .21499634 .41827394 .22200012 .41827394 .27799989 .41827394 .33399964 .37957765 .33399964 .29756166V.26651C.27598573 .26350404 .20899964 .26049806 .13899231 .23144531 .050994874 .1933899 .033996583 .13528443 .033996583 .10223389 .033996583 .016220093 .1349945-.009765625 .20399475-.009765625 .2769928-.009765625 .32199098 .031219483 .34399415 .07122803 .34899903 .033111574 .375-.0048828127 .4189911-.0048828127 .42900086-.0048828127 .5139923-.00088500979 .5139923 .09010315V.09020996M.33399964 .14111328C.33399964 .04421997 .2519989 .018234253 .21199036 .018234253 .1599884 .018234253 .115997318 .053222658 .115997318 .10122681 .115997318 .16722107 .17799378 .23522949 .33399964 .24023438V.14111328Z"/>
<path id="font_1_72" d="M.2669983 0V.032989503C.20298767 .032989503 .19099427 .032989503 .19099427 .07801819V.69433596L.041992189 .6826172V.6496124C.10998535 .6496124 .117996219 .64260867 .117996219 .5936432V.07795715C.117996219 .032989503 .10598755 .032989503 .041992189 .032989503V0C.08099365 .0029907227 .13699341 .0029907227 .1539917 .0029907227 .17399597 .0029907227 .22799683 .0029907227 .2669983 0Z"/>
<path id="font_1_58" d="M.7819977 .24238587V.27539063C.73098757 .27238465 .7029877 .27238465 .6459961 .27238465 .6029968 .27238465 .5219879 .27238465 .48298646 .27539063V.24238587H.5179901C.61299136 .24272156 .6159973 .23069763 .6159973 .19366455V.12960816C.6159973 .10958862 .6159973 .06855774 .5629883 .039535524 .5130005 .011505127 .45700074 .011505127 .44499208 .011505127 .34298707 .011505127 .16299439 .07356262 .16299439 .34179688 .16299439 .61305239 .34599305 .6710968 .43798829 .6710968 .5379944 .6710968 .6499939 .5980377 .6749878 .43289186 .6759949 .42288209 .6769867 .41687013 .69099429 .41687013 .70799258 .41687013 .70799258 .4238739 .70799258 .4429016V.6781006C.70799258 .6940918 .70799258 .70410159 .69499209 .70410159 .6879883 .70410159 .68699648 .7030945 .6779938 .690094L.6269989 .6160431C.58399966 .6620941 .5179901 .70410159 .42799378 .70410159 .22799683 .70410159 .05899048 .542984 .05899048 .34179688 .05899048 .1426239 .22299195-.021484375 .43099977-.021484375 .5079956-.021484375 .59399417 .0015106201 .6339874 .060546876 .6519928 .03253174 .6859894-.00048828127 .69599917-.00048828127 .70799258 0 .70799258 .010986328 .70799258 .025985718V.19799805C.70799258 .23738098 .71199038 .24238587 .7819977 .24238587Z"/>
<path id="font_1_109" d="M.56199648 .00022888184V.033233644C.49398805 .033233644 .48599244 .040237428 .48599244 .08924866V.44140626L.33399964 .43040467V.3973999C.4019928 .3973999 .4099884 .39039613 .4099884 .34136964V.16726685C.4099884 .08125305 .35798646 .018234253 .2829895 .018234253 .19699097 .018234253 .19299317 .06123352 .19299317 .11126709V.44140626L.040985109 .43040467V.3973999C.116989139 .3973999 .116989139 .39439393 .116989139 .30534364V.15527344C.116989139 .08325195 .116989139-.009765625 .2769928-.009765625 .37098695-.009765625 .40699769 .0622406 .4119873 .071243289H.41299439V-.009765625L.56199648 .00022888184Z"/>
<path id="font_1_47" d="M.55400088 0V.032989503C.48599244 .032989503 .47799684 .039993287 .47799684 .089019779V.69433596L.32899476 .6826172V.6496124C.39698792 .6496124 .40499879 .64263918 .40499879 .5938263V.38339234C.36999513 .42140199 .32299806 .44140626 .2709961 .44140626 .1459961 .44140626 .034988405 .3443756 .034988405 .21531677 .034988405 .09225464 .1349945-.009765625 .26098634-.009765625 .31999208-.009765625 .36898805 .018234253 .4019928 .053237916V-.009765625L.55400088 0M.4019928 .12399292C.4019928 .10598755 .4019928 .101989749 .3869934 .08198547 .35899354 .042236329 .31298829 .018234253 .2659912 .018234253 .21998596 .018234253 .17999268 .042236329 .1559906 .07925415 .1289978 .118270877 .12399292 .16729737 .12399292 .21430969 .12399292 .27233888 .1329956 .3133545 .1559906 .3483734 .17999268 .38539125 .22499085 .4133911 .27598573 .4133911 .32398988 .4133911 .37199403 .38938905 .4019928 .33737184V.12399292Z"/>
<path id="font_2_42" d="M.6839905 .23170471C.6839905 .24171448 .6839905 .25073243 .66999819 .25073243 .6569977 .25073243 .6569977 .24372864 .6559906 .2347107 .647995 .082595828 .5279999 .008529663 .4249878 .008529663 .33999635 .008529663 .15899658 .061569215 .15899658 .34179688 .15899658 .6210327 .34098817 .67407229 .42399598 .67407229 .522995 .67407229 .6279907 .5990143 .6519928 .4368744 .6539917 .4238739 .6549988 .41886903 .66799929 .41886903 .6839905 .41886903 .6839905 .4238739 .6839905 .44488526V.67907717C.6839905 .69607546 .6839905 .7050781 .6719971 .7050781 .6649933 .7050781 .6619873 .70207217 .6559906 .69306948L.6049957 .61802676C.57299807 .64904788 .5159912 .7050781 .4149933 .7050781 .22099304 .7050781 .056991579 .5439606 .056991579 .34179688 .056991579 .13563538 .22299195-.022460938 .4149933-.022460938 .58099368-.022460938 .6839905 .11462402 .6839905 .23170471Z"/>
<path id="font_2_96" d="M.37298585 .3798828C.37298585 .41236878 .34298707 .4423828 .2979889 .4423828 .23799134 .4423828 .19599915 .40037538 .17298889 .33787538H.17199707V.4423828L.02999878 .43066407V.3996582C.09799194 .3996582 .10699463 .3927307 .10699463 .34387208V.07698059C.10699463 .0309906 .09599304 .0309906 .02999878 .0309906V0C.08299255 .0019989014 .09599304 .0029907227 .14698792 .0029907227L.27398683 0V.0309906H.2539978C.18099976 .0309906 .17799378 .041992189 .17799378 .07897949V.22891236C.17799378 .26989747 .18899536 .4166565 .30299378 .4166565V.4156494C.30099488 .4146576 .2849884 .40264894 .2849884 .37887574 .2849884 .35186769 .30599977 .33486939 .32899476 .33486939 .34999085 .33486939 .37298585 .34986878 .37298585 .3798828Z"/>
<path id="font_2_28" d="M.49699403 .089141849V.14515686H.46899415V.090148929C.46899415 .07914734 .46899415 .029129029 .43299867 .029129029 .39698792 .029129029 .39698792 .07714844 .39698792 .09315491V.26818849C.39698792 .32521058 .39698792 .3592224 .35198976 .40022279 .31498719 .43322755 .2669983 .4482422 .21699524 .4482422 .1329956 .4482422 .06298828 .40623475 .06298828 .34220887 .06298828 .311203 .083999637 .2942047 .10998535 .2942047 .13699341 .2942047 .1559906 .31420899 .1559906 .34020997 .1559906 .3832245 .11099243 .38822938 .11099243 .38822938 .13798523 .41423036 .18598938 .42323304 .21499634 .42323304 .2659912 .42323304 .32299806 .3852234 .32299806 .29719544V.26419068C.2689972 .26219178 .19400025 .2571869 .1269989 .22518921 .054992677 .19017029 .032989503 .13816834 .032989503 .09814453 .032989503 .01625061 .12998963-.0107421879 .19699097-.0107421879 .27999879-.0107421879 .31799317 .04425049 .33198548 .072250369 .33699037 .030136109 .3659973-.005859375 .40899659-.005859375 .43399049-.005859375 .49699403 .009140015 .49699403 .08912659V.089141849M.32299806 .14112854C.32299806 .04425049 .24798584 .014251709 .20399475 .014251709 .15699768 .014251709 .11299133 .04824829 .11299133 .098236087 .11299133 .16423035 .16999817 .23422241 .32299806 .24023438V.14112854Z"/>
<path id="font_2_105" d="M.34199525 .12408447V.18099976H.31399537V.1270752C.31399537 .05319214 .2829895 .01725769 .24699402 .01725769 .17999268 .01725769 .17999268 .1051178 .17999268 .12309265V.3996582H.32499696V.43066407H.17999268V.6142578H.1519928C.15098572 .5304413 .115997318 .42765809 .018997193 .4246521V.3996582H.10598755V.12408447C.10598755 .012252808 .18699646-.0107421879 .23999024-.0107421879 .30699159-.011001587 .34199525 .052993776 .34199525 .12399292V.12408447Z"/>
<path id="font_2_50" d="M.4269867 .11936951C.4269867 .12637329 .42199708 .13237 .41299439 .13237 .40299989 .13237 .3999939 .12536621 .39898683 .12136841 .36499024 .019256592 .27598573 .01725769 .26098634 .01725769 .21299744 .01725769 .17199707 .044281007 .14898682 .078323367 .115997318 .12736511 .114990238 .18743897 .114990238 .22949219H.3999939C.42199708 .22949219 .4269867 .22949219 .4269867 .25048829 .4269867 .35333253 .37098695 .4482422 .24299622 .4482422 .12298584 .4482422 .0289917 .3443451 .0289917 .22047425 .0289917 .08932495 .13398743-.0107421879 .2559967-.0107421879 .37799073-.0107421879 .4269867 .096343997 .4269867 .11936951M.35899354 .253479H.115997318C.125 .40725709 .21499634 .42323304 .24299622 .42323304 .2979889 .42323304 .35798646 .38130189 .35899354 .253479Z"/>
<path id="font_3_3" d="M.5369873 .5947571C.522995 .5818329 .48999024 .55400088 .48999024 .5361023 .48999024 .5261078 .5 .516098 .5099945 .516098 .5189972 .516098 .5239868 .5231018 .5289917 .5290985 .54100039 .5440674 .56399539 .5718994 .60798647 .59376528 .61499026 .59776309 .625 .6027527 .625 .61476138 .625 .62475588 .6179962 .62976077 .61099246 .6347656 .58898928 .6497803 .5779877 .66781619 .56999209 .69184878 .56799319 .7008667 .56399539 .7138672 .5499878 .7138672 .5359955 .7138672 .5299988 .7008667 .5299988 .69285586 .5299988 .68785098 .5379944 .65579226 .55400088 .6347656H.21699524C.19999695 .6347656 .18199158 .6347656 .18199158 .61476138 .18199158 .5947571 .19999695 .5947571 .21699524 .5947571H.5369873Z"/>
<path id="font_3_1" d="M.15899658 .07795715C.14898682 .038986207 .14698792 .0309906 .067993167 .0309906 .050994874 .0309906 .039993287 .0309906 .039993287 .011993408 .039993287 0 .04899597 0 .067993167 0H.39898683C.6069946 0 .80400088 .21087647 .80400088 .42974855 .80400088 .5706482 .71899417 .6826172 .56900027 .6826172H.23298645C.21398926 .6826172 .20298767 .6826172 .20298767 .66360476 .20298767 .6516113 .21199036 .6516113 .23199463 .6516113 .24499512 .6516113 .2630005 .65060427 .2749939 .6496124 .29100038 .6476135 .29699708 .64460757 .29699708 .6336212 .29699708 .6296234 .29599 .62661746 .29299928 .614624L.15899658 .07795715M.375 .6136322C.38398744 .64860537 .38598634 .6516113 .42900086 .6516113H.5359955C.6339874 .6516113 .71699526 .5986328 .71699526 .46672059 .71699526 .41775514 .69699099 .25386048 .6119995 .1439209 .58299258 .10694885 .5039978 .0309906 .3809967 .0309906H.2679901C.2539978 .0309906 .2519989 .0309906 .24598694 .03199768 .23599243 .032989503 .23298645 .033996583 .23298645 .041992189 .23298645 .04498291 .23298645 .04698181 .23799134 .064971927L.375 .6136322Z"/>
<path id="font_4_1" d="M.18199158 .71299746C.18199158 .72898867 .18199158 .75 .15899658 .75 .13598633 .75 .13598633 .72499087 .13598633 .70899966V-.2090149C.13598633-.2250061 .13598633-.25 .15899658-.25 .18199158-.25 .18199158-.2290039 .18199158-.2130127V.71299746M.3939972 .70899966C.3939972 .72499087 .3939972 .75 .37098695 .75 .34799195 .75 .34799195 .72898867 .34799195 .71299746V-.2130127C.34799195-.2290039 .34799195-.25 .37098695-.25 .3939972-.25 .3939972-.2250061 .3939972-.2090149V.70899966Z"/>
<path id="font_5_3" d="M.5509949 .5917969 .5269928 .5679474C.5099945 .5500641 .5069885 .5431061 .5069885 .53616335 .5069885 .5241699 .5179901 .51316836 .5299988 .51316836 .54100039 .51316836 .54599 .5201721 .548996 .5231781 .5629883 .5391388 .58699038 .5689392 .6339874 .5907898 .6439972 .5957947 .6549988 .6007843 .6549988 .61479189 .6549988 .62779238 .644989 .632782 .6399994 .63679507 .6069946 .65678408 .59799197 .6797943 .59298709 .6947937 .59098818 .7027893 .58599856 .7167969 .56999209 .7167969 .5549927 .7167969 .5469971 .7037964 .5469971 .6937866 .5469971 .6877899 .55400088 .66178897 .57099917 .63778689H.22099304C.20498657 .63778689 .18299866 .63778689 .18299866 .61479189 .18299866 .5917969 .20498657 .5917969 .22099304 .5917969H.5509949Z"/>
<path id="font_5_1" d="M.16699219 .07896423C.1579895 .040985109 .1559906 .032989503 .08198547 .032989503 .06298828 .032989503 .050994874 .032989503 .050994874 .01399231 .050994874 0 .06399536 0 .08099365 0H.4249878C.6359863 0 .84599307 .20188904 .84599307 .42474366 .84599307 .577652 .74398806 .6826172 .59498599 .6826172H.24499512C.22698975 .6826172 .21398926 .6826172 .21398926 .66360476 .21398926 .6496124 .22599793 .6496124 .24299622 .6496124 .27598573 .6496124 .30499269 .6496124 .30499269 .6336212 .30499269 .6296234 .3039856 .62861636 .30099488 .6156311L.16699219 .07896423M.3880005 .6126251C.39698792 .64660647 .397995 .6496124 .43899537 .6496124H.55999758C.6769867 .6496124 .7559967 .58265689 .7559967 .46072389 .7559967 .42774964 .74198916 .2648468 .6549988 .15292359 .61099246 .096954349 .5249939 .032989503 .40699769 .032989503H.2579956C.24899292 .034988405 .24598694 .034988405 .24598694 .041992189 .24598694 .049987794 .24798584 .0579834 .25 .0639801L.3880005 .6126251Z"/>
<path id="font_6_5" d="M.73098757 .3330078C.74598696 .3330078 .7659912 .3330078 .7659912 .3560028 .7659912 .3789978 .74198916 .3789978 .72698977 .3789978H.09799194C.08299255 .3789978 .05899048 .3789978 .05899048 .3560028 .05899048 .3330078 .07899475 .3330078 .09399414 .3330078H.73098757M.72698977 .12098694C.74198916 .12098694 .7659912 .12098694 .7659912 .14398194 .7659912 .16699219 .74598696 .16699219 .73098757 .16699219H.09399414C.07899475 .16699219 .05899048 .16699219 .05899048 .14398194 .05899048 .12098694 .08299255 .12098694 .09799194 .12098694H.72698977Z"/>
<path id="font_6_4" d="M.33198548 .36080934C.3880005 .38783265 .45599366 .4378662 .45599366 .5159302 .45599366 .6110077 .35899354 .66503909 .2659912 .66503909 .1599884 .66503909 .07398987 .59199526 .07398987 .49790956 .07398987 .46089173 .08699036 .42686463 .11199951 .39782716 .1289978 .3768158 .1329956 .3748169 .19499207 .3357849 .070999149 .2807312 .04399109 .20767212 .04399109 .15162659 .04399109 .041534425 .15499878-.021484375 .2639923-.021484375 .3869934-.021484375 .48599244 .061553956 .48599244 .16764832 .48599244 .23069763 .45199586 .2727356 .43598939 .28974916 .4189911 .30575563 .41799928 .3067627 .33198548 .36080934M.1769867 .45487977C.147995 .4718933 .12399292 .5009155 .12399292 .5359497 .12399292 .598999 .19299317 .6390381 .2639923 .6390381 .34199525 .6390381 .4059906 .5859833 .4059906 .5159302 .4059906 .45788575 .36099244 .408844 .3019867 .37982179L.1769867 .45487977M.22599793 .31776429C.22999573 .31576539 .34399415 .24571228 .36099244 .23469544 .3769989 .22569275 .42900086 .19366455 .42900086 .13360596 .42900086 .056549074 .34799195 .008514404 .2659912 .008514404 .1769867 .008514404 .100997928 .06956482 .100997928 .15162659 .100997928 .22668457 .15699768 .28573609 .22599793 .31776429Z"/>
<path id="font_1_75" d="M.8569946 0V.032989503C.79299929 .032989503 .7809906 .032989503 .7809906 .07803345V.3032837C.7809906 .3843689 .74598696 .44140626 .6369934 .44140626 .54499819 .44140626 .49899293 .37835694 .48298646 .34933473 .46499635 .42140199 .4079895 .44140626 .34298707 .44140626 .24598694 .44140626 .19999695 .37236024 .18699646 .34532167H.18598938V.44140626L.040985109 .43045045V.39746095C.10899353 .39746095 .116989139 .3904419 .116989139 .3413849V.078048709C.116989139 .032989503 .10499573 .032989503 .040985109 .032989503V0C.083999637 .0029907227 .12799073 .0029907227 .15499878 .0029907227 .18399048 .0029907227 .22599793 .0029907227 .2689972 0V.032989503C.20498657 .032989503 .19299317 .032989503 .19299317 .078048709V.25927735C.19299317 .36434938 .27198792 .4133911 .33499146 .4133911 .3999939 .4133911 .41099549 .36235047 .41099549 .3072815V.07803345C.41099549 .032989503 .39898683 .032989503 .33499146 .032989503V0C.37799073 .0029907227 .42199708 .0029907227 .44898988 .0029907227 .47799684 .0029907227 .519989 .0029907227 .5629883 0V.032989503C.49899293 .032989503 .4869995 .032989503 .4869995 .07803345V.25923158C.4869995 .36434938 .56599429 .4133911 .6289978 .4133911 .69400027 .4133911 .7049866 .36235047 .7049866 .3072815V.07803345C.7049866 .032989503 .69299319 .032989503 .6289978 .032989503V0C.6719971 .0029907227 .71598818 .0029907227 .7429962 .0029907227 .7719879 .0029907227 .81399539 .0029907227 .8569946 0Z"/>
<path id="font_3_2" d="M.30299378 .3244629H.3999939C.47499085 .3244629 .48298646 .30848695 .48298646 .27954103 .48298646 .2725525 .48298646 .26057435 .47599793 .2306366 .47399903 .22564698 .47299195 .22164917 .47299195 .21965027 .47299195 .21166992 .47898866 .20767212 .4850006 .20767212 .49499513 .20767212 .49499513 .21066284 .5 .2286377L.5549927 .44551087C.55799868 .45651246 .55799868 .45851136 .55799868 .46151734 .55799868 .46351625 .55599978 .47251893 .54599 .47251893 .5359955 .47251893 .5349884 .46751405 .5309906 .45150758 .5099945 .37347413 .4869995 .35546876 .4019928 .35546876H.31098939L.375 .6095886C.38398744 .64460757 .3849945 .64860537 .42900086 .64860537H.5609894C.6839905 .64860537 .70700076 .6156006 .70700076 .53855898 .70700076 .5155487 .70700076 .51153567 .70399478 .4845276 .70199587 .4715271 .70199587 .46951295 .70199587 .46652223 .70199587 .46151734 .7049866 .45451356 .71398928 .45451356 .72499087 .45451356 .7259979 .46051026 .7279968 .4795227L.7480011 .65260317C.7509918 .6796112 .74598696 .6796112 .72099307 .6796112H.23098755C.21099854 .6796112 .20098877 .6796112 .20098877 .65960696 .20098877 .64860537 .20999146 .64860537 .22898865 .64860537 .2659912 .64860537 .2939911 .64860537 .2939911 .6306 .2939911 .6266022 .2939911 .6246033 .2889862 .60658267L.15699768 .07791138C.14698792 .038970949 .14498902 .0309906 .06599426 .0309906 .04899597 .0309906 .037994386 .0309906 .037994386 .011993408 .037994386 0 .049987794 0 .052993776 0 .08198547 0 .1559906 .0029907227 .18499756 .0029907227 .21798706 .0029907227 .30099488 0 .33399964 0 .34298707 0 .35499574 0 .35499574 .018997193 .35499574 .026992798 .34899903 .0289917 .34899903 .02999878 .34599305 .0309906 .34399415 .0309906 .32099916 .0309906 .29899598 .0309906 .2939911 .0309906 .2689972 .032989503 .23999024 .035980226 .23699951 .039978029 .23699951 .052947999 .23699951 .0549469 .23699951 .060943605 .24099732 .075912479L.30299378 .3244629Z"/>
<path id="font_5_2" d="M.31599427 .32344056H.41999818C.5019989 .32344056 .5059967 .3074646 .5059967 .27851869 .5059967 .27153016 .5059967 .2615509 .49899293 .23561096 .49798585 .23161316 .49699403 .22363281 .49699403 .22062683 .49699403 .21963501 .49699403 .20666504 .5119934 .20666504 .5239868 .20666504 .5269928 .21664429 .5299988 .22961426L.58299258 .4434967C.58399966 .4454956 .58699038 .4584961 .58699038 .45950318 .58699038 .46350099 .58399966 .47351075 .57099917 .47351075 .5589905 .47351075 .5569916 .46450807 .55400088 .4524994 .5339966 .37445069 .5109863 .3564453 .42199708 .3564453H.32499696L.3880005 .60858157C.39698792 .64460757 .397995 .64660647 .43899537 .64660647H.58599856C.7049866 .64660647 .7389984 .6215973 .7389984 .5355377 .7389984 .51452639 .73399356 .48851014 .73399356 .46949769 .73399356 .45750428 .7409973 .4524994 .7489929 .4524994 .7630005 .4524994 .7639923 .46150209 .7659912 .47851563L.7839966 .64860537C.7849884 .6536102 .7849884 .660614 .7849884 .66560366 .7849884 .6796112 .772995 .6796112 .7549896 .6796112H.24198914C.22399903 .6796112 .21099854 .6796112 .21099854 .66160586 .21099854 .64660647 .22299195 .64660647 .23999024 .64660647 .24699402 .64660647 .26098634 .64660647 .27799989 .64460757 .29899598 .64260867 .3019867 .64060977 .3019867 .6306 .3019867 .6255951 .30099488 .6215973 .2979889 .6105957L.16499329 .0789032C.1559906 .04096985 .1539917 .032989503 .07998657 .032989503 .06098938 .032989503 .04899597 .032989503 .04899597 .01399231 .04899597 .009994507 .051986696 0 .06498718 0 .085998538 0 .10998535 .0029907227 .13198853 .0029907227H.269989C.2889862 .0019989014 .32499696 0 .34399415 0 .35099793 0 .36499024 0 .36499024 .018997193 .36499024 .032989503 .35299684 .032989503 .33198548 .032989503 .31098939 .032989503 .30299378 .032989503 .27999879 .034988405 .25299073 .037979127 .25 .04096985 .25 .052947999 .25 .053955079 .25 .059936525 .2539978 .074905399L.31599427 .32344056Z"/>
<path id="font_6_2" d="M.28199769 .20405579C.2979889 .21907044 .33999635 .2520752 .35598756 .26608277 .41799928 .32312013 .47698976 .3781433 .47698976 .46917726 .47698976 .588089 .3769989 .66503909 .2519989 .66503909 .13198853 .66503909 .052993776 .57411196 .052993776 .48516847 .052993776 .4361725 .09199524 .4291687 .10598755 .4291687 .1269989 .4291687 .1579895 .4441681 .1579895 .48217774 .1579895 .5341797 .10798645 .5341797 .09599304 .5341797 .125 .6070709 .19198609 .6320343 .24099732 .6320343 .33399964 .6320343 .38198854 .55314639 .38198854 .46917726 .38198854 .36514283 .30899049 .28910829 .19099427 .16804505L.06498718 .037994386C.052993776 .026992798 .052993776 .024993897 .052993776 0H.44799806L.47698976 .17904663H.44599916C.44299317 .1590271 .43499757 .10900879 .4229889 .08999634 .4169922 .08198547 .34098817 .08198547 .32499696 .08198547H.14698792L.28199769 .20405579Z"/>
<path id="font_6_1" d="M.4889984 .31877137C.4889984 .42585755 .47799684 .49090577 .44499208 .55496218 .40098573 .6430359 .31999208 .66503909 .2649994 .66503909 .13899231 .66503909 .09298706 .5709839 .07899475 .5429535 .042999269 .4698944 .040985109 .3708191 .040985109 .31877137 .040985109 .25271607 .04399109 .15162659 .09199524 .07156372 .13798523-.0024871827 .21199036-.021484375 .2649994-.021484375 .31298829-.021484375 .39898683-.0064849855 .44898988 .09257507 .48599244 .16464234 .4889984 .2537079 .4889984 .31877137M.2649994 .006515503C.23098755 .006515503 .1619873 .022521973 .14099121 .12760926 .12998963 .18466187 .12998963 .2787323 .12998963 .33078004 .12998963 .3998413 .12998963 .4698944 .14099121 .5249481 .1619873 .6270294 .23999024 .6370239 .2649994 .6370239 .29899598 .6370239 .36799623 .62002566 .3880005 .5289459 .3999939 .4738922 .3999939 .39883424 .3999939 .33078004 .3999939 .27172853 .3999939 .18165589 .3880005 .12561035 .36698915 .020523072 .2979889 .006515503 .2649994 .006515503Z"/>
<path id="font_1_76" d="M.7509918 .6496124V.6826172C.70599368 .6796112 .6589966 .6796112 .6329956 .6796112 .6069946 .6796112 .55999758 .6796112 .5149994 .6826172V.6496124C.6159973 .6496124 .6159973 .6016388 .6159973 .5756531V.14892578L.24299622 .66760256C.23199463 .6816101 .23098755 .6826172 .21099854 .6826172H.04399109V.6496124H.07199097C.08999634 .6496124 .09799194 .6496124 .117996219 .6476135 .14399719 .64460757 .14498902 .6436157 .14498902 .62461856V.10694885C.14498902 .080963138 .14498902 .032989503 .04399109 .032989503V0C.08898926 .0029907227 .13598633 .0029907227 .1619873 .0029907227 .18798828 .0029907227 .23498535 .0029907227 .27999879 0V.032989503C.1789856 .032989503 .1789856 .080963138 .1789856 .10694885V.6164093L.6119995 .01499939C.62098696 .0029907227 .6230011 0 .6329956 0 .6499939 0 .6499939 .009994507 .6499939 .027999878V.5754547C.6499939 .6014252 .6499939 .64941409 .7509918 .64941409V.6496124Z"/>
<path id="font_6_3" d="M.13999939 .5618439C.15299988 .55784609 .19299317 .54785159 .23498535 .54785159 .3600006 .54785159 .43598939 .6358948 .43598939 .6510315 .43598939 .6620331 .42900086 .66503909 .42399598 .66503909 .42199708 .66503909 .41999818 .66503909 .41099549 .6600342 .37199403 .6450348 .32598878 .632843 .27198792 .632843 .21299744 .632843 .1639862 .6480255 .1329956 .6600342 .12298584 .66503909 .12098694 .66503909 .11999512 .66503909 .10699463 .66503909 .10699463 .6540375 .10699463 .6358948V.34292604C.10699463 .32492066 .10699463 .312912 .12298584 .312912 .1309967 .312912 .13398743 .3169098 .13899231 .32492066 .15098572 .33992005 .18899536 .39093019 .27398683 .39093019 .32998658 .39093019 .35699464 .34492494 .3659973 .32591249 .3829956 .28990174 .3849945 .24389649 .3849945 .20487976 .3849945 .1678772 .38398744 .11387634 .35598756 .069732669 .33699037 .039611818 .29699708 .008514404 .24398804 .008514404 .1789856 .008514404 .114990238 .0496521 .09199524 .11488342 .09498596 .11387634 .100997928 .11387634 .101989749 .11387634 .12998963 .11387634 .1519928 .13188172 .1519928 .16288758 .1519928 .19989014 .12298584 .21289063 .102996829 .21289063 .084991458 .21289063 .052993776 .20288086 .052993776 .15988159 .052993776 .069732669 .1309967-.021484375 .24598694-.021484375 .37098695-.021484375 .47698976 .07574463 .47698976 .19989014 .47698976 .31591798 .3929901 .4189453 .2749939 .4189453 .22499085 .4189453 .17799378 .40293885 .13999939 .368927V.5618439Z"/>
<path id="font_7_1" d="M.54499819 .25C.54499819 .3768463 .44299317 .47679139 .31900025 .47679139 .19499207 .47679139 .09298706 .3758545 .09298706 .25 .09298706 .12313843 .19499207 .02319336 .31900025 .02319336 .44299317 .02319336 .54499819 .12413025 .54499819 .25M.31900025 .07519531C.22299195 .07519531 .14498902 .15209961 .14498902 .25 .14498902 .34788514 .22299195 .4248047 .31900025 .4248047 .4149933 .4248047 .49299623 .34788514 .49299623 .25 .49299623 .15209961 .4149933 .07519531 .31900025 .07519531Z"/>
</defs>
<path transform="matrix(1.00005,0,0,-1.00003,21.139153,83.77213)" stroke-width=".79701" stroke-linecap="butt" stroke-miterlimit="10" stroke-linejoin="miter" fill="none" stroke="#7f807f" d="M-19.84267-9.92133H178.5841"/>
<path transform="matrix(1.00005,0,0,-1.00003,21.139153,83.77213)" d="M0-9.92133 158.74143 39.68535V-9.92133Z" fill="#f2f2f2"/>
<path transform="matrix(1.00005,0,0,-1.00003,21.139153,83.77213)" stroke-width=".79701" stroke-linecap="butt" stroke-miterlimit="10" stroke-linejoin="miter" fill="none" stroke="#000000" d="M0-9.92133 158.74143 39.68535V-9.92133Z"/>
<use data-text="H" xlink:href="#font_1_62" transform="matrix(7.970498,0,0,-7.9703395,65.678379,102.82471)"/>
<use data-text="o" xlink:href="#font_1_81" transform="matrix(7.970498,0,0,-7.9703395,72.022899,102.82471)"/>
<use data-text="r" xlink:href="#font_1_96" transform="matrix(7.970498,0,0,-7.9703395,76.255229,102.82471)"/>
<use data-text="i" xlink:href="#font_1_66" transform="matrix(7.970498,0,0,-7.9703395,79.555019,102.82471)"/>
<use data-text="z" xlink:href="#font_1_120" transform="matrix(7.970498,0,0,-7.9703395,81.90631,102.82471)"/>
<use data-text="o" xlink:href="#font_1_81" transform="matrix(7.970498,0,0,-7.9703395,85.66839,102.82471)"/>
<use data-text="n" xlink:href="#font_1_77" transform="matrix(7.970498,0,0,-7.9703395,89.90073,102.82471)"/>
<use data-text="t" xlink:href="#font_1_105" transform="matrix(7.970498,0,0,-7.9703395,94.364208,102.82471)"/>
<use data-text="a" xlink:href="#font_1_28" transform="matrix(7.970498,0,0,-7.9703395,97.65601,102.82471)"/>
<use data-text="l" xlink:href="#font_1_72" transform="matrix(7.970498,0,0,-7.9703395,101.88834,102.82471)"/>
<use data-text="G" xlink:href="#font_1_58" transform="matrix(7.970498,0,0,-7.9703395,107.05323,102.82471)"/>
<use data-text="r" xlink:href="#font_1_96" transform="matrix(7.970498,0,0,-7.9703395,113.70063,102.82471)"/>
<use data-text="o" xlink:href="#font_1_81" transform="matrix(7.970498,0,0,-7.9703395,117.00042,102.82471)"/>
<use data-text="u" xlink:href="#font_1_109" transform="matrix(7.970498,0,0,-7.9703395,121.232738,102.82471)"/>
<use data-text="n" xlink:href="#font_1_77" transform="matrix(7.970498,0,0,-7.9703395,125.93534,102.82471)"/>
<use data-text="d" xlink:href="#font_1_47" transform="matrix(7.970498,0,0,-7.9703395,130.63794,102.82471)"/>
<path transform="matrix(1.00005,0,0,-1.00003,21.139153,83.77213)" d="M57.25673 7.62436 51.34006 26.56302 81.642 36.02974 87.55867 17.0911ZM81.642 36.02974" fill="#e6ccb3"/>
<path transform="matrix(1.00005,0,0,-1.00003,21.139153,83.77213)" stroke-width=".79701" stroke-linecap="butt" stroke-miterlimit="10" stroke-linejoin="miter" fill="none" stroke="#000000" d="M57.25673 7.62436 51.34006 26.56302 81.642 36.02974 87.55867 17.0911ZM81.642 36.02974"/>
<use data-text="C" xlink:href="#font_2_42" transform="matrix(8.966848,0,0,-8.966669,79.316059,65.00657)"/>
<use data-text="r" xlink:href="#font_2_96" transform="matrix(8.966848,0,0,-8.966669,85.96947,65.00657)"/>
<use data-text="a" xlink:href="#font_2_28" transform="matrix(8.966848,0,0,-8.966669,89.57413,65.00657)"/>
<use data-text="t" xlink:href="#font_2_105" transform="matrix(8.966848,0,0,-8.966669,94.18309,65.00657)"/>
<use data-text="e" xlink:href="#font_2_50" transform="matrix(8.966848,0,0,-8.966669,97.76984,65.00657)"/>
<path transform="matrix(1.00005,0,0,-1.00003,21.139153,83.77213)" stroke-width="1.59404" stroke-linecap="butt" stroke-miterlimit="10" stroke-linejoin="miter" fill="none" stroke="#0000ff" d="M69.44937 21.82706 141.59067 44.36497"/>
<path transform="matrix(.9544977,-.29817898,-.2981849,-.9544787,162.73688,39.40583)" d="M3.78581 0-2.27148 3.02866 0 0-2.27148-3.02866" fill="#0000ff"/>
<use data-text="&#x20d7;" xlink:href="#font_3_3" transform="matrix(9.963098,0,0,-9.962899,125.76738,61.34645)" fill="#0000ff"/>
<use data-text="D" xlink:href="#font_3_1" transform="matrix(9.963098,0,0,-9.962899,124.208309,63.864526)" fill="#0000ff"/>
<use data-text="&#x2225;" xlink:href="#font_4_1" transform="matrix(7.970498,0,0,-7.9703395,169.87058,41.14485)" fill="#0000ff"/>
<use data-text="&#x20d7;" xlink:href="#font_5_3" transform="matrix(7.970498,0,0,-7.9703395,175.43587,39.12979)" fill="#0000ff"/>
<use data-text="D" xlink:href="#font_5_1" transform="matrix(7.970498,0,0,-7.9703395,174.1048,41.14485)" fill="#0000ff"/>
<use data-text="&#x2225;" xlink:href="#font_4_1" transform="matrix(7.970498,0,0,-7.9703395,181.28716,41.14485)" fill="#0000ff"/>
<use data-text="=" xlink:href="#font_6_5" transform="matrix(7.970498,0,0,-7.9703395,187.87448,41.14485)" fill="#0000ff"/>
<use data-text="8" xlink:href="#font_6_4" transform="matrix(7.970498,0,0,-7.9703395,196.80942,41.14485)" fill="#0000ff"/>
<use data-text="m" xlink:href="#font_1_75" transform="matrix(7.970498,0,0,-7.9703395,203.86928,41.14485)" fill="#0000ff"/>
<path transform="matrix(1.00005,0,0,-1.00003,21.139153,83.77213)" stroke-width="1.59404" stroke-linecap="butt" stroke-miterlimit="10" stroke-linejoin="miter" fill="none" stroke="#ff0000" d="M69.44937 21.82706 117.97495 66.05865"/>
<path transform="matrix(.7390469,-.6736302,-.6736436,-.73903217,139.12,17.711503)" d="M3.78581 0-2.27148 3.02866 0 0-2.27148-3.02866" fill="#ff0000"/>
<use data-text="&#x20d7;" xlink:href="#font_3_3" transform="matrix(9.963098,0,0,-9.962899,105.81439,31.916569)" fill="#ff0000"/>
<use data-text="F" xlink:href="#font_3_2" transform="matrix(9.963098,0,0,-9.962899,104.34631,34.434644)" fill="#ff0000"/>
<use data-text="&#x2225;" xlink:href="#font_4_1" transform="matrix(7.970498,0,0,-7.9703395,145.43836,9.648903)" fill="#ff0000"/>
<use data-text="&#x20d7;" xlink:href="#font_5_3" transform="matrix(7.970498,0,0,-7.9703395,150.91564,7.6338427)" fill="#ff0000"/>
<use data-text="F" xlink:href="#font_5_2" transform="matrix(7.970498,0,0,-7.9703395,149.67258,9.648903)" fill="#ff0000"/>
<use data-text="&#x2225;" xlink:href="#font_4_1" transform="matrix(7.970498,0,0,-7.9703395,156.2079,9.648903)" fill="#ff0000"/>
<use data-text="=" xlink:href="#font_6_5" transform="matrix(7.970498,0,0,-7.9703395,162.79523,9.648903)" fill="#ff0000"/>
<use data-text="2" xlink:href="#font_6_2" transform="matrix(7.970498,0,0,-7.9703395,171.73017,9.648903)" fill="#ff0000"/>
<use data-text="0" xlink:href="#font_6_1" transform="matrix(7.970498,0,0,-7.9703395,175.9625,9.648903)" fill="#ff0000"/>
<use data-text="0" xlink:href="#font_6_1" transform="matrix(7.970498,0,0,-7.9703395,180.19481,9.648903)" fill="#ff0000"/>
<use data-text="N" xlink:href="#font_1_76" transform="matrix(7.970498,0,0,-7.9703395,187.25846,9.648903)" fill="#ff0000"/>
<path transform="matrix(1.00005,0,0,-1.00003,21.139153,83.77213)" stroke-width=".79701" stroke-linecap="butt" stroke-miterlimit="10" stroke-linejoin="miter" fill="none" stroke="#000000" d="M88.38803 27.74374C87.52441 30.50813 86.06387 33.05304 84.11317 35.1933"/>
<use data-text="2" xlink:href="#font_6_2" transform="matrix(7.970498,0,0,-7.9703395,108.412509,51.16115)"/>
<use data-text="5" xlink:href="#font_6_3" transform="matrix(7.970498,0,0,-7.9703395,112.644847,51.16115)"/>
<use data-text="&#x25e6;" xlink:href="#font_7_1" transform="matrix(5.9778988,0,0,-5.97778,116.880939,48.348066)"/>
</svg>
