<svg xmlns="http://www.w3.org/2000/svg" xmlns:xlink="http://www.w3.org/1999/xlink" xmlns:inkscape="http://www.inkscape.org/namespaces/inkscape" version="1.1" width="172" height="107" viewBox="0 0 172 107">
<defs>
<path id="font_1_3" d="M.5369873 .5947571C.522995 .5818329 .48999024 .55400088 .48999024 .5361023 .48999024 .5261078 .5 .516098 .5099945 .516098 .5189972 .516098 .5239868 .5231018 .5289917 .5290985 .54100039 .5440674 .56399539 .5718994 .60798647 .59376528 .61499026 .59776309 .625 .6027527 .625 .61476138 .625 .62475588 .6179962 .62976077 .61099246 .6347656 .58898928 .6497803 .5779877 .66781619 .56999209 .69184878 .56799319 .7008667 .56399539 .7138672 .5499878 .7138672 .5359955 .7138672 .5299988 .7008667 .5299988 .69285586 .5299988 .68785098 .5379944 .65579226 .55400088 .6347656H.21699524C.19999695 .6347656 .18199158 .6347656 .18199158 .61476138 .18199158 .5947571 .19999695 .5947571 .21699524 .5947571H.5369873Z"/>
<path id="font_1_2" d="M.23899842 .68333438C.23899842 .6843262 .23899842 .69433596 .22599793 .69433596 .20298767 .69433596 .12998963 .6863251 .10398865 .6843262 .09599304 .68333438 .084991458 .6823273 .084991458 .6643219 .084991458 .6523285 .09399414 .6523285 .10899353 .6523285 .15699768 .6523285 .15899658 .6453247 .15899658 .6353302 .15899658 .6283264 .1499939 .5943451 .14498902 .573349L.06298828 .24731446C.050994874 .1973114 .04699707 .18130493 .04699707 .14628601 .04699707 .05126953 .099990848-.0107421879 .17399597-.0107421879 .2919922-.0107421879 .4149933 .1382904 .4149933 .28233338 .4149933 .37335206 .3619995 .4423828 .28199769 .4423828 .23599243 .4423828 .19499207 .41337586 .16499329 .38235475L.23899842 .68333438M.14498902 .30534364C.15098572 .3273468 .15098572 .3293457 .1599884 .3403473 .20899964 .405365 .2539978 .42037965 .27999879 .42037965 .31599427 .42037965 .34298707 .3903656 .34298707 .32633973 .34298707 .26733399 .30999757 .15229798 .2919922 .11428833 .25898744 .04725647 .21299744 .011245728 .17399597 .011245728 .13999939 .011245728 .10699463 .038253786 .10699463 .11227417 .10699463 .13128662 .10699463 .15029907 .12298584 .21331787L.14498902 .30534364Z"/>
<path id="font_2_1" d="M.18199158 .71299746C.18199158 .72898867 .18199158 .75 .15899658 .75 .13598633 .75 .13598633 .72499087 .13598633 .70899966V-.2090149C.13598633-.2250061 .13598633-.25 .15899658-.25 .18199158-.25 .18199158-.2290039 .18199158-.2130127V.71299746M.3939972 .70899966C.3939972 .72499087 .3939972 .75 .37098695 .75 .34799195 .75 .34799195 .72898867 .34799195 .71299746V-.2130127C.34799195-.2290039 .34799195-.25 .37098695-.25 .3939972-.25 .3939972-.2250061 .3939972-.2090149V.70899966Z"/>
<path id="font_3_3" d="M.5509949 .5917969 .5269928 .5679474C.5099945 .5500641 .5069885 .5431061 .5069885 .53616335 .5069885 .5241699 .5179901 .51316836 .5299988 .51316836 .54100039 .51316836 .54599 .5201721 .548996 .5231781 .5629883 .5391388 .58699038 .5689392 .6339874 .5907898 .6439972 .5957947 .6549988 .6007843 .6549988 .61479189 .6549988 .62779238 .644989 .632782 .6399994 .63679507 .6069946 .65678408 .59799197 .6797943 .59298709 .6947937 .59098818 .7027893 .58599856 .7167969 .56999209 .7167969 .5549927 .7167969 .5469971 .7037964 .5469971 .6937866 .5469971 .6877899 .55400088 .66178897 .57099917 .63778689H.22099304C.20498657 .63778689 .18299866 .63778689 .18299866 .61479189 .18299866 .5917969 .20498657 .5917969 .22099304 .5917969H.5509949Z"/>
<path id="font_3_2" d="M.24398804 .66430667C.24499512 .66630557 .24798584 .67930606 .24798584 .68029788 .24798584 .68530276 .24398804 .6943054 .23199463 .6943054 .22799683 .6943054 .19699097 .69129946 .17399597 .68930056L.117996219 .68530276C.09599304 .68330386 .085998538 .682312 .085998538 .66430667 .085998538 .6502991 .099990848 .6502991 .11199951 .6502991 .1599884 .6502991 .1599884 .64430239 .1599884 .63531497 .1599884 .62931826 .1499939 .5893402 .14399719 .5663452L.056991579 .2183075C.04899597 .18429566 .04899597 .16929627 .04899597 .15228272 .04899597 .049240114 .11199951-.009765625 .18899536-.009765625 .31199647-.009765625 .43998719 .13227844 .43998719 .27734376 .43998719 .37638856 .37599183 .44140626 .29599 .44140626 .23999024 .44140626 .19699097 .4053955 .1749878 .38638307L.24398804 .66430667M.18899536 .018234253C.15299988 .018234253 .116989139 .04623413 .116989139 .119277957 .116989139 .14628601 .12098694 .17129517 .1329956 .21931458 .13999939 .24832154 .14698792 .27633668 .15499878 .3053589 .1599884 .32336427 .1599884 .32536317 .17199707 .34036256 .20599365 .38238526 .25099183 .4133911 .29299928 .4133911 .34298707 .4133911 .3619995 .36437989 .3619995 .3193512 .3619995 .28234864 .33999635 .17529297 .30999757 .11627197 .28399659 .0622406 .23599243 .018234253 .18899536 .018234253Z"/>
<path id="font_4_3" d="M.73098757 .3330078C.74598696 .3330078 .7659912 .3330078 .7659912 .3560028 .7659912 .3789978 .74198916 .3789978 .72698977 .3789978H.09799194C.08299255 .3789978 .05899048 .3789978 .05899048 .3560028 .05899048 .3330078 .07899475 .3330078 .09399414 .3330078H.73098757M.72698977 .12098694C.74198916 .12098694 .7659912 .12098694 .7659912 .14398194 .7659912 .16699219 .74598696 .16699219 .73098757 .16699219H.09399414C.07899475 .16699219 .05899048 .16699219 .05899048 .14398194 .05899048 .12098694 .08299255 .12098694 .09799194 .12098694H.72698977Z"/>
<path id="font_4_2" d="M.13798523 .33073426C.13798523 .41377259 .14498902 .4868164 .18099976 .54782107 .21099854 .5978241 .2619934 .6390381 .32499696 .6390381 .34498597 .6390381 .3909912 .63601687 .4139862 .60084536 .36898805 .5988312 .36499024 .5648346 .36499024 .553833 .36499024 .5238342 .3880005 .50683596 .4119873 .50683596 .42999269 .50683596 .45899964 .51782229 .45899964 .5558319 .45899964 .615921 .4139862 .66503909 .32398988 .66503909 .18499756 .66503909 .04399109 .53282168 .04399109 .31672669 .04399109 .045532228 .16999817-.021484375 .2669983-.021484375 .31498719-.021484375 .36698915-.0084991459 .4119873 .03453064 .45199586 .07354736 .48599244 .11558533 .48599244 .20263672 .48599244 .33372499 .3869934 .42578126 .27598573 .42578126 .20399475 .42578126 .16099549 .37976075 .13798523 .33073426M.2669983 .008514404C.21398926 .008514404 .18099976 .045532228 .1659851 .07354736 .14299011 .11859131 .14099121 .18663025 .14099121 .22465515 .14099121 .32373048 .19499207 .3977661 .27198792 .3977661 .32199098 .3977661 .35198976 .37176515 .37098695 .33673097 .3919983 .29971314 .3919983 .25468446 .3919983 .2036438 .3919983 .15260315 .3919983 .10858154 .37199403 .07255554 .34599305 .026519776 .31098939 .008514404 .2669983 .008514404Z"/>
<path id="font_1_1" d="M.37298585 .37835694C.35499574 .41537477 .32598878 .4423828 .2809906 .4423828 .1639862 .4423828 .039993287 .29533387 .039993287 .14929199 .039993287 .055267335 .09498596-.0107421879 .17298889-.0107421879 .19299317-.0107421879 .24299622-.0067443849 .30299378 .06427002 .31098939 .022247315 .34599305-.0107421879 .3939972-.0107421879 .42900086-.0107421879 .45199586 .012252808 .46798707 .044265748 .4850006 .08027649 .49798585 .14129639 .49798585 .14329529 .49798585 .1532898 .4889984 .1532898 .48599244 .1532898 .47599793 .1532898 .47499085 .14929199 .47200013 .13528443 .45498658 .07026672 .43699647 .011245728 .3959961 .011245728 .36898805 .011245728 .3659973 .037261964 .3659973 .057266237 .3659973 .07926941 .36799623 .08728027 .3789978 .13128662 .3899994 .17329407 .3919983 .18330384 .40098573 .22131348L.43699647 .36135865C.44400025 .38935853 .44400025 .39135743 .44400025 .39537049 .44400025 .41236878 .43199159 .42237855 .4149933 .42237855 .3909912 .42237855 .37599183 .4003601 .37298585 .37835694M.30799867 .119277957C.30299378 .10127258 .30299378 .09927368 .28799439 .08227539 .24398804 .027252198 .20298767 .011245728 .1749878 .011245728 .125 .011245728 .11099243 .06626892 .11099243 .105285648 .11099243 .1552887 .14299011 .27833558 .1659851 .32434083 .19699097 .38336183 .24198914 .42037965 .28199769 .42037965 .34700013 .42037965 .36099244 .3383484 .36099244 .33235169 .36099244 .32633973 .35899354 .32034303 .35798646 .31533814L.30799867 .119277957Z"/>
<path id="font_3_1" d="M.3919983 .38137818C.3829956 .39839173 .35398866 .44140626 .29299928 .44140626 .17399597 .44140626 .042999269 .3023529 .042999269 .15428162 .042999269 .050247194 .10998535-.009765625 .18699646-.009765625 .25099183-.009765625 .30599977 .041229249 .32398988 .06124878 .34199525-.0077667238 .4099884-.009765625 .42199708-.009765625 .46798707-.009765625 .4909973 .02822876 .49899293 .04524231 .5189972 .08125305 .5329895 .13928223 .5329895 .14328003 .5329895 .14927674 .5289917 .15628052 .5169983 .15628052 .5049896 .15628052 .5029907 .15028382 .49699403 .12527466 .48298646 .070251468 .46398927 .018234253 .4249878 .018234253 .4019928 .018234253 .3929901 .037231447 .3929901 .06524658 .3929901 .08226013 .4019928 .11627197 .4079895 .14128113 .4139862 .16629029 .42900086 .22631836 .43299867 .24432373L.45298768 .32035829C.45799256 .3443756 .46899415 .38638307 .46899415 .39138795 .46899415 .4143982 .44999696 .4223938 .43699647 .4223938 .42199708 .4223938 .39698792 .4123993 .3919983 .38137818M.32398988 .10826111C.27398683 .039230348 .22200012 .018234253 .18998719 .018234253 .14399719 .018234253 .12098694 .0602417 .12098694 .11227417 .12098694 .1592865 .147995 .2663269 .16999817 .3103485 .19898987 .37138368 .24798584 .4133911 .2939911 .4133911 .35899354 .4133911 .37799073 .34036256 .37799073 .32835389 .37799073 .32435609 .35299684 .22631836 .34700013 .20030213 .33399964 .1532898 .33399964 .1512909 .32398988 .10826111Z"/>
<path id="font_4_1" d="M.3939972 .6468048C.3939972 .6667938 .3939972 .6748047 .37298585 .6748047 .3600006 .6748047 .35899354 .6737976 .34899903 .65979006L.02999878 .197052V.1640625H.31199647V.08100891C.31199647 .04399109 .30899049 .032989503 .23199463 .032989503H.20899964V0C.2939911 .0029907227 .29599 .0029907227 .35299684 .0029907227 .4099884 .0029907227 .4119873 .0029907227 .49699403 0V.032989503H.47399903C.39698792 .032989503 .3939972 .04399109 .3939972 .08100891V.1640625H.5V.197052H.3939972V.6468048M.31900025 .5658417V.197052H.06498718L.31900025 .5658417Z"/>
<path id="font_5_1" d="M.33999635 .35964967H.46299745C.44198609 .2718048 .42900086 .20690918 .42900086 .14201355 .42900086 .09109497 .44299317-.009765625 .48999024-.009765625 .5159912-.009765625 .5389862 .014221191 .5389862 .03617859 .5389862 .045166017 .5339966 .05316162 .5319977 .058151246 .49499513 .1240387 .4889984 .1879425 .4889984 .23886109 .4889984 .25482179 .4889984 .29875184 .5019989 .35964967H.6339874C.6459961 .35964967 .68899539 .35964967 .68899539 .40065003 .68899539 .43066407 .6609955 .43066407 .6439972 .43066407H.24598694C.22599793 .43066407 .18099976 .43066407 .1269989 .380661 .09599304 .3516693 .05999756 .30374146 .05999756 .2937622 .05999756 .27978517 .07398987 .27978517 .07798767 .27978517 .08898926 .27978517 .09098816 .28178407 .09799194 .29077149 .114990238 .31472779 .1539917 .35964967 .23599243 .35964967H.30099488C.2669983 .2358551 .19898987 .10107422 .18598938 .07511902 .1769867 .059143068 .1639862 .034194948 .1639862 .02420044 .1639862 .0032196046 .17999268-.009765625 .19999695-.009765625 .23498535-.009765625 .24699402 .02520752 .2579956 .057144166 .27799989 .12004089 .27799989 .122039798 .2919922 .1759491L.33999635 .35964967Z"/>
<path id="font_6_1" d="M.2939911 .33203126C.3789978 .33203126 .43598939 .274765 .43598939 .17237854 .43598939 .062408449 .36999513 .014511108 .29699708 .014511108 .269989 .014511108 .16699219 .020492554 .12199402 .07836914 .16099549 .0823822 .1769867 .10836792 .1769867 .13537598 .1769867 .16937256 .15299988 .19238281 .11999512 .19238281 .09298706 .19238281 .06298828 .17536927 .06298828 .13337708 .06298828 .034469606 .17298889-.021484375 .2999878-.021484375 .44799806-.021484375 .5469971 .07337952 .5469971 .17237854 .5469971 .24562073 .4909973 .3229828 .37199403 .35302735 .45098878 .37902833 .5149994 .44306947 .5149994 .5251007 .5149994 .60505679 .42099 .66503909 .30099488 .66503909 .18399048 .66503909 .09498596 .61105349 .09498596 .5290985 .09498596 .48609925 .12799073 .47409059 .147995 .47409059 .17399597 .47409059 .20098877 .49209596 .20098877 .5270996 .20098877 .5580902 .1789856 .5760956 .1519928 .5800934 .19898987 .6320343 .2899933 .6320343 .29899598 .6320343 .34999085 .6320343 .4139862 .60806277 .4139862 .5251007 .4139862 .47009278 .3829956 .37402345 .2829895 .36802674 .2649994 .36701966 .23799134 .36502076 .22898865 .36502076 .21899414 .36402894 .20799256 .36302186 .20799256 .34802247 .20799256 .33203126 .21899414 .33203126 .23599243 .33203126H.2939911Z"/>
</defs>
<path transform="matrix(1.00005,0,0,-1.00005,3.6902314,90.97095)" d="M1.59404 0C1.59404 .88037 .88037 1.59404 0 1.59404-.88037 1.59404-1.59404 .88037-1.59404 0-1.59404-.88037-.88037-1.59404 0-1.59404 .88037-1.59404 1.59404-.88037 1.59404 0ZM0 0"/>
<path transform="matrix(1.00005,0,0,-1.00005,3.6902314,90.97095)" stroke-width=".3985" stroke-linecap="butt" stroke-miterlimit="10" stroke-linejoin="miter" fill="none" stroke="#000000" d="M1.59404 0C1.59404 .88037 .88037 1.59404 0 1.59404-.88037 1.59404-1.59404 .88037-1.59404 0-1.59404-.88037-.88037-1.59404 0-1.59404 .88037-1.59404 1.59404-.88037 1.59404 0ZM0 0"/>
<path transform="matrix(1.00005,0,0,-1.00005,3.6902314,90.97095)" stroke-width="1.59404" stroke-linecap="butt" stroke-miterlimit="10" stroke-linejoin="miter" fill="none" stroke="#ff0000" d="M0 0H132.27938"/>
<path transform="matrix(1.00005,0,0,-1.00005,135.97621,90.97095)" d="M3.78581 0-2.27148 3.02866 0 0-2.27148-3.02866" fill="#ff0000"/>
<use data-text="&#x20d7;" xlink:href="#font_1_3" transform="matrix(9.963098,0,0,-9.963098,68.46946,102.20651)" fill="#ff0000"/>
<use data-text="b" xlink:href="#font_1_2" transform="matrix(9.963098,0,0,-9.963098,69.58852,104.83564)" fill="#ff0000"/>
<use data-text="&#x2225;" xlink:href="#font_2_1" transform="matrix(7.970498,0,0,-7.970498,143.28221,93.883098)" fill="#ff0000"/>
<use data-text="&#x20d7;" xlink:href="#font_3_3" transform="matrix(7.970498,0,0,-7.970498,146.59738,91.77999)" fill="#ff0000"/>
<use data-text="b" xlink:href="#font_3_2" transform="matrix(7.970498,0,0,-7.970498,147.51642,93.883098)" fill="#ff0000"/>
<use data-text="&#x2225;" xlink:href="#font_2_1" transform="matrix(7.970498,0,0,-7.970498,151.13962,93.883098)" fill="#ff0000"/>
<use data-text="=" xlink:href="#font_4_3" transform="matrix(7.970498,0,0,-7.970498,157.72594,93.883098)" fill="#ff0000"/>
<use data-text="6" xlink:href="#font_4_2" transform="matrix(7.970498,0,0,-7.970498,166.66088,93.883098)" fill="#ff0000"/>
<path transform="matrix(1.00005,0,0,-1.00005,3.6902314,90.97095)" stroke-width="1.59404" stroke-linecap="butt" stroke-miterlimit="10" stroke-linejoin="miter" fill="none" stroke="#0000ff" d="M0 0 43.4622 75.27892"/>
<path transform="matrix(.50000497,-.8660533,-.8660533,-.50000497,47.154603,15.688263)" d="M3.78581 0-2.27148 3.02866 0 0-2.27148-3.02866" fill="#0000ff"/>
<use data-text="&#x20d7;" xlink:href="#font_1_3" transform="matrix(9.963098,0,0,-9.963098,16.360863,47.57278)" fill="#0000ff"/>
<use data-text="a" xlink:href="#font_1_1" transform="matrix(9.963098,0,0,-9.963098,16.98854,47.57278)" fill="#0000ff"/>
<use data-text="&#x2225;" xlink:href="#font_2_1" transform="matrix(7.970498,0,0,-7.970498,52.567674,6.8967516)" fill="#0000ff"/>
<use data-text="&#x20d7;" xlink:href="#font_3_3" transform="matrix(7.970498,0,0,-7.970498,56.32086,6.8967516)" fill="#0000ff"/>
<use data-text="a" xlink:href="#font_3_1" transform="matrix(7.970498,0,0,-7.970498,56.80706,6.8967516)" fill="#0000ff"/>
<use data-text="&#x2225;" xlink:href="#font_2_1" transform="matrix(7.970498,0,0,-7.970498,61.30011,6.8967516)" fill="#0000ff"/>
<use data-text="=" xlink:href="#font_4_3" transform="matrix(7.970498,0,0,-7.970498,67.887439,6.8967516)" fill="#0000ff"/>
<use data-text="4" xlink:href="#font_4_1" transform="matrix(7.970498,0,0,-7.970498,76.822368,6.8967516)" fill="#0000ff"/>
<path transform="matrix(1.00005,0,0,-1.00005,3.6902314,90.97095)" stroke-width=".79701" stroke-linecap="butt" stroke-miterlimit="10" stroke-linejoin="miter" fill="none" stroke="#000000" d="M18.14206 0C18.14206 6.48076 14.68338 12.47128 9.07103 15.71153"/>
<use data-text="&#x03c0;" xlink:href="#font_5_1" transform="matrix(5.9778988,0,0,-5.9778988,24.978295,75.29216)"/>
<path transform="matrix(1.00005,0,0,-1.00005,-60.910997,-.009596825)" stroke-width=".3786" stroke-linecap="butt" stroke-miterlimit="10" stroke-linejoin="miter" fill="none" stroke="#000000" d="M85.885-76.73H90.444"/>
<use data-text="3" xlink:href="#font_6_1" transform="matrix(5.9778988,0,0,-5.9778988,25.431313,82.0095)"/>
</svg>
