<svg xmlns="http://www.w3.org/2000/svg" xmlns:xlink="http://www.w3.org/1999/xlink" xmlns:inkscape="http://www.inkscape.org/namespaces/inkscape" version="1.1" width="189" height="159" viewBox="0 0 189 159">
<defs>
<clipPath id="clip_1">
<path transform="matrix(1.00002,0,0,-1.00005,1.095665,91.40496)" d="M195.35301-55.47202V26.32375L166.30204 93.80228 0 81.79576V0L29.05098-67.47853Z"/>
</clipPath>
<path id="font_2_1" d="M.20298767 .3371582V.4501953L.036987306 .44218446V.39518739C.09899902 .39518739 .10598755 .39518739 .10598755 .35617066V.04699707H.036987306V0C.07199097 .0009918213 .116989139 .0029907227 .16299439 .0029907227 .20098877 .0029907227 .2649994 .0029907227 .30099488 0V.04699707H.21398926V.22209168C.21398926 .2921753 .23899842 .41418458 .33898927 .41418458 .33799745 .41319276 .31999208 .39718629 .31999208 .36819459 .31999208 .3271942 .35198976 .30718995 .3809967 .30718995 .4099884 .30718995 .44198609 .32818605 .44198609 .36819459 .44198609 .42118836 .3880005 .4501953 .33599855 .4501953 .2659912 .4501953 .22599793 .40019227 .20298767 .3371582Z"/>
<path id="font_3_1" d="M.33099366-.2400055C.33099366-.23701477 .33099366-.23500061 .31399537-.21800232 .18899536-.0920105 .15699768 .09700012 .15699768 .25 .15699768 .42399598 .19499207 .59799197 .31799317 .72299197 .33099366 .73498538 .33099366 .7369995 .33099366 .73999026 .33099366 .746994 .32699586 .75 .32099916 .75 .31098939 .75 .22099304 .6819916 .1619873 .5549927 .11099243 .44499208 .09899902 .33399964 .09899902 .25 .09899902 .17199707 .10998535 .050994874 .16499329-.06201172 .22499085-.18501282 .31098939-.25 .32099916-.25 .32699586-.25 .33099366-.24700928 .33099366-.2400055Z"/>
<path id="font_3_3" d="M.2939911 .64004519C.2939911 .66400149 .2939911 .6660156 .2709961 .6660156 .20899964 .60227969 .12098694 .60227969 .08898926 .60227969V.57128909C.10899353 .57128909 .16799927 .57128909 .21998596 .5972748V.07902527C.21998596 .042999269 .21699524 .0309906 .1269989 .0309906H.09498596V0C.12998963 .0029907227 .21699524 .0029907227 .25698854 .0029907227 .29699708 .0029907227 .38398744 .0029907227 .4189911 0V.0309906H.3869934C.29699708 .0309906 .2939911 .041992189 .2939911 .07902527V.64004519Z"/>
<path id="font_3_2" d="M.2889862 .25C.2889862 .32798768 .27799989 .44898988 .22299195 .56199648 .16299439 .68499758 .07699585 .75 .066986087 .75 .06098938 .75 .056991579 .74598696 .056991579 .73999026 .056991579 .7369995 .056991579 .73498538 .07598877 .71699526 .17399597 .6179962 .23098755 .45899964 .23098755 .25 .23098755 .07899475 .19400025-.09700012 .069992069-.2230072 .056991579-.23500061 .056991579-.23701477 .056991579-.2400055 .056991579-.2460022 .06098938-.25 .066986087-.25 .07699585-.25 .16699219-.18200684 .22599793-.055007936 .2769928 .054992677 .2889862 .16600037 .2889862 .25Z"/>
<path id="font_3_4" d="M.2899933 .35191346C.37199403 .37893678 .42999269 .4490509 .42999269 .52809146 .42999269 .6100464 .34199525 .6660156 .24598694 .6660156 .14498902 .6660156 .068984989 .60606387 .068984989 .53009036 .068984989 .49710084 .09098816 .47808839 .11999512 .47808839 .15098572 .47808839 .17098999 .50009158 .17098999 .5290985 .17098999 .57910159 .12399292 .57910159 .10899353 .57910159 .13999939 .62802127 .20599365 .64100649 .24198914 .64100649 .2829895 .64100649 .33799745 .6190338 .33799745 .5290985 .33799745 .51708987 .33599855 .45906068 .30999757 .4149933 .27999879 .36691285 .24598694 .36390687 .22099304 .36291505 .21299744 .36190797 .18899536 .35990907 .18199158 .35990907 .17399597 .35890199 .16699219 .35791017 .16699219 .3479004 .16699219 .33691407 .17399597 .33691407 .19099427 .33691407H.23498535C.31698609 .33691407 .35398866 .2686615 .35398866 .17037964 .35398866 .034469606 .2849884 .0055389406 .24099732 .0055389406 .19799805 .0055389406 .12298584 .022491456 .08799744 .08137512 .12298584 .07637024 .1539917 .09837341 .1539917 .1363678 .1539917 .17237854 .1269989 .19238281 .09799194 .19238281 .07398987 .19238281 .041992189 .17837525 .041992189 .1343689 .041992189 .043441774 .1349945-.022460938 .24398804-.022460938 .3659973-.022460938 .45700074 .06838989 .45700074 .17037964 .45700074 .252594 .3939972 .33088685 .2899933 .35191346Z"/>
<path id="font_4_1" d="M.33399964 .30233766C.33999635 .32835389 .36299134 .42037965 .43299867 .42037965 .43798829 .42037965 .46199037 .42037965 .48298646 .40734864 .45498658 .402359 .43499757 .37734986 .43499757 .35334779 .43499757 .33735658 .44599916 .31835938 .47299195 .31835938 .49499513 .31835938 .5269928 .3363495 .5269928 .37635804 .5269928 .42837525 .46798707 .4423828 .43399049 .4423828 .37599183 .4423828 .34098817 .38935853 .32899476 .36634828 .3039856 .43237306 .25 .4423828 .22099304 .4423828 .116989139 .4423828 .05999756 .3133545 .05999756 .28834535 .05999756 .27833558 .069992069 .27833558 .07199097 .27833558 .07998657 .27833558 .08299255 .28033448 .084991458 .28933717 .11898804 .39535523 .18499756 .42037965 .21899414 .42037965 .23799134 .42037965 .272995 .4113617 .272995 .35334779 .272995 .32235719 .2559967 .25532533 .21899414 .11528015 .20298767 .053268434 .16799927 .011245728 .12399292 .011245728 .117996219 .011245728 .09498596 .011245728 .07398987 .024276734 .09899902 .029266358 .12098694 .05027771 .12098694 .07827759 .12098694 .105270389 .09899902 .11328125 .083999637 .11328125 .053985597 .11328125 .0289917 .08728027 .0289917 .055267335 .0289917 .009246826 .07899475-.0107421879 .12298584-.0107421879 .18899536-.0107421879 .22499085 .059280397 .22799683 .0652771 .23999024 .028274537 .27598573-.0107421879 .33599855-.0107421879 .43899537-.0107421879 .49598695 .118270877 .49598695 .14328003 .49598695 .1532898 .4869995 .1532898 .48399354 .1532898 .47499085 .1532898 .47299195 .14929199 .47099305 .14228821 .43798829 .03527832 .36999513 .011245728 .33799745 .011245728 .29899598 .011245728 .2829895 .043273927 .2829895 .07727051 .2829895 .09927368 .2889862 .121276859 .2999878 .16529846L.33399964 .30233766Z"/>
<path id="font_4_2" d="M.48599244 .38136292C.48999024 .39537049 .48999024 .39736939 .48999024 .40437318 .48999024 .42237855 .47599793 .43138124 .46099855 .43138124 .45098878 .43138124 .43499757 .42536927 .42599488 .41036988 .42399598 .405365 .41600038 .37435914 .4119873 .35635377 .40499879 .33035279 .397995 .30334474 .3919983 .27633668L.34700013 .09628296C.34298707 .08126831 .2999878 .011245728 .23399353 .011245728 .18299866 .011245728 .17199707 .055267335 .17199707 .0922699 .17199707 .1382904 .18899536 .20030213 .22299195 .28833009 .23899842 .3293457 .24299622 .3403473 .24299622 .36035157 .24299622 .405365 .21099854 .4423828 .16099549 .4423828 .06599426 .4423828 .0289917 .29733277 .0289917 .28833009 .0289917 .27833558 .038986207 .27833558 .040985109 .27833558 .050994874 .27833558 .051986696 .28033448 .056991579 .29634095 .083999637 .3903656 .12399292 .42037965 .1579895 .42037965 .1659851 .42037965 .18299866 .42037965 .18299866 .3883667 .18299866 .36335755 .17298889 .3373413 .1659851 .31834413 .12599182 .21231079 .10798645 .1552887 .10798645 .10827637 .10798645 .019256592 .17098999-.0107421879 .22999573-.0107421879 .2689972-.0107421879 .30299378 .0062561037 .33099366 .03425598 .31799317-.017745972 .30599977-.06674194 .2659912-.11973572 .23999024-.15385437 .20199585-.18309021 .1559906-.18309021 .14199829-.18309021 .09700012-.18005371 .07998657-.14074707 .09599304-.14074707 .10899353-.14074707 .12298584-.1287384 .1329956-.11973572 .14299011-.10673523 .14299011-.08773804 .14299011-.056747438 .115997318-.052734376 .10598755-.052734376 .08299255-.052734376 .049987794-.068740848 .049987794-.11773682 .049987794-.16796875 .09399414-.20507813 .1559906-.20507813 .25898744-.20507813 .3619995-.11373901 .3899994-.00074768069L.48599244 .38136292Z"/>
<path id="font_4_3" d="M.1329956 .08345032C.18699646 .14138794 .21598816 .16636658 .2519989 .19732666 .2519989 .19833374 .31399537 .25128175 .34999085 .2872467 .44499208 .3803711 .46699525 .42837525 .46699525 .43237306 .46699525 .4423828 .45799256 .4423828 .45599366 .4423828 .44898988 .4423828 .44599916 .44036866 .44099427 .43138124 .41099549 .38337709 .3899994 .3671875 .3659973 .3671875 .34199525 .3671875 .32998658 .38237 .31498719 .3993683 .29599 .42237855 .2789917 .4423828 .24598694 .4423828 .17098999 .4423828 .125 .34918214 .125 .3282013 .125 .3231964 .12799073 .31721498 .13699341 .31721498 .1459961 .31721498 .147995 .3222046 .1499939 .3282013 .16899109 .37434388 .22698975 .37538148 .23498535 .37538148 .2559967 .37538148 .2749939 .36820985 .2979889 .36018373 .33799745 .34518434 .34899903 .34518434 .375 .34518434 .33898927 .30223084 .25498963 .2303009 .23599243 .21430969L.1459961 .13040161C.07798767 .06341553 .042999269 .0062561037 .042999269-.00074768069 .042999269-.0107421879 .052993776-.0107421879 .054992677-.0107421879 .06298828-.0107421879 .06498718-.008743286 .070999149 .002243042 .09399414 .037246705 .12399292 .064453128 .1559906 .064453128 .1789856 .064453128 .18899536 .055252077 .21398926 .026245118 .23098755 .0052490236 .24899292-.0107421879 .27799989-.0107421879 .3769989-.0107421879 .43499757 .1164093 .43499757 .14338684 .43499757 .14837647 .43099977 .15338135 .4229889 .15338135 .4139862 .15338135 .4119873 .14738465 .40899659 .14039612 .38598634 .07543945 .32199098 .056243898 .2889862 .056243898 .2689972 .056243898 .25099183 .06239319 .22999573 .06944275 .19599915 .08244324 .18099976 .08644104 .1599884 .08644104 .1579895 .08644104 .14199829 .08644104 .1329956 .08345032Z"/>
</defs>
<path transform="matrix(1.00002,0,0,-1.00005,1.095665,91.40496)" stroke-width=".3985" stroke-linecap="butt" stroke-miterlimit="10" stroke-linejoin="miter" fill="none" stroke="#000000" d="M75.59183 5.4575 103.85497-60.19098"/>
<path transform="matrix(.39540793,.9185059,.9184784,-.39541976,104.95272,151.59894)" d="M1.99252 0-1.19551 1.59401 0 0-1.19551-1.59401"/>
<path transform="matrix(1.00002,0,0,-1.00005,1.095665,91.40496)" stroke-width=".3985" stroke-linecap="butt" stroke-miterlimit="10" stroke-linejoin="miter" fill="none" stroke="#000000" d="M0 0 164.31478 11.86305"/>
<path transform="matrix(.99737998,-.072003599,-.07200144,-.9974098,165.41373,79.54133)" d="M1.99252 0-1.19551 1.59401 0 0-1.19551-1.59401"/>
<path transform="matrix(1.00002,0,0,-1.00005,1.095665,91.40496)" stroke-width=".3985" stroke-linecap="butt" stroke-miterlimit="10" stroke-linejoin="miter" fill="none" stroke="#000000" d="M75.59183 5.4575V85.26074"/>
<path transform="matrix(0,-1.00005,-1.00002,-0,76.689,6.1399614)" d="M1.99252 0-1.19551 1.59401 0 0-1.19551-1.59401"/>
<g clip-path="url(#clip_1)">
<path transform="matrix(1.00002,0,0,-1.00005,1.095665,91.40496)" stroke-width=".79701" stroke-linecap="butt" stroke-miterlimit="10" stroke-linejoin="miter" fill="none" stroke="#0000ff" d="M19.96019-10.1549C19.96019-10.1549 20.29253-10.79387 20.45924-11.01529 20.62596-11.2367 20.93864-11.56403 21.16187-11.75081 21.38507-11.93758 21.78835-12.20937 22.06805-12.36151 22.34775-12.51366 22.8416-12.72989 23.1778-12.84738 23.51399-12.96487 24.09845-13.12556 24.49112-13.20842 24.8838-13.29126 25.55885-13.39641 26.00801-13.44463 26.45717-13.49284 27.2228-13.54242 27.72844-13.55598 28.2341-13.56956 29.09032-13.56358 29.65245-13.54253 30.2146-13.52147 31.16142-13.4599 31.78004-13.40422 32.39868-13.34853 33.43607-13.23143 34.11118-13.1411 34.7863-13.05077 35.91429-12.8781 36.64589-12.75313 37.3775-12.62816 38.59605-12.39993 39.38416-12.24033 40.17226-12.08072 41.48138-11.79698 42.32597-11.60274 43.17058-11.40848 44.57033-11.06915 45.47139-10.84026 46.37245-10.61136 47.86278-10.21648 48.82034-9.95296 49.7779-9.68942 51.35881-9.23901 52.37288-8.94084 53.38693-8.64267 55.05847-8.1367 56.12901-7.80388 57.19955-7.47107 58.96162-6.90953 60.08865-6.54207 61.21568-6.1746 63.06837-5.55754 64.25188-5.15546 65.4354-4.75336 67.37862-4.08078 68.6186-3.64404 69.8586-3.2073 71.89246-2.47913 73.18896-2.00775 74.48546-1.53636 76.60991-.75264 77.96288-.24663 79.31586 .25937 81.53091 1.09863 82.94037 1.6393 84.34984 2.17996 86.65547 3.07478 88.12143 3.6501 89.58737 4.2254 91.9836 5.17578 93.50604 5.78572 95.02849 6.39565 97.51527 7.4016 99.09421 8.04617 100.67314 8.69075 103.25053 9.75223 104.88597 10.43146 106.5214 11.11067 109.18936 12.2277 110.88127 12.94157 112.5732 13.65544 115.33174 14.82803 117.08014 15.57654 118.82854 16.32503 121.6777 17.5532 123.48259 18.33633 125.28748 19.11946 128.22714 20.4031 130.0885 21.22087 131.94986 22.03865 134.9802 23.3779 136.89807 24.23032 138.81594 25.08273 141.93683 26.47754 143.9112 27.36461 145.88555 28.25166 149.09705 29.702 151.12789 30.6237 153.15874 31.54543 156.46083 33.05132 158.54817 34.00766 160.63552 34.96399 164.02819 36.52545 166.172 37.51643 168.31581 38.50743 171.79909 40.12444 173.99939 41.15004 176.19969 42.17566 179.77353 43.8482 182.03034 44.90848 184.28714 45.96875 190.26497 48.79184 190.26497 48.79184"/>
<path transform="matrix(1.00002,0,0,-1.00005,1.095665,91.40496)" stroke-width="1.59404" stroke-linecap="butt" stroke-miterlimit="10" stroke-linejoin="miter" fill="none" stroke="#ff0000" d="M75.59183 5.4575 41.00156-11.59721"/>
<path transform="matrix(-.89688798,.4422021,.44218887,.89691486,42.098058,103.00274)" stroke-width="1.27522" stroke-linecap="round" stroke-linejoin="round" fill="none" stroke="#ff0000" d="M-2.27148 3.02866C-2.0822 1.8929 0 .18927 .56786 0 0-.18927-2.0822-1.8929-2.27148-3.02866"/>
<use data-text="r" xlink:href="#font_2_1" transform="matrix(9.962799,0,0,-9.963098,18.055,114.528118)" fill="#ff0000"/>
<use data-text="(" xlink:href="#font_3_1" transform="matrix(9.962799,0,0,-9.963098,22.774094,114.528118)" fill="#ff0000"/>
<use data-text="1" xlink:href="#font_3_3" transform="matrix(9.962799,0,0,-9.963098,26.639657,114.528118)" fill="#ff0000"/>
<use data-text=")" xlink:href="#font_3_2" transform="matrix(9.962799,0,0,-9.963098,31.621056,114.528118)" fill="#ff0000"/>
<path transform="matrix(1.00002,0,0,-1.00005,1.095665,91.40496)" stroke-width="1.59404" stroke-linecap="butt" stroke-miterlimit="10" stroke-linejoin="miter" fill="none" stroke="#404040" d="M75.59183 5.4575 169.41641 39.13823"/>
<path transform="matrix(.94117888,-.33787687,-.33786676,-.94120708,170.51548,52.264799)" stroke-width="1.27522" stroke-linecap="round" stroke-linejoin="round" fill="none" stroke="#404040" d="M-2.27148 3.02866C-2.0822 1.8929 0 .18927 .56786 0 0-.18927-2.0822-1.8929-2.27148-3.02866"/>
<use data-text="r" xlink:href="#font_2_1" transform="matrix(9.962799,0,0,-9.963098,150.68067,43.853586)" fill="#404040"/>
<use data-text="(" xlink:href="#font_3_1" transform="matrix(9.962799,0,0,-9.963098,155.39975,43.853586)" fill="#404040"/>
<use data-text="3" xlink:href="#font_3_4" transform="matrix(9.962799,0,0,-9.963098,159.26532,43.853586)" fill="#404040"/>
<use data-text=")" xlink:href="#font_3_2" transform="matrix(9.962799,0,0,-9.963098,164.2467,43.853586)" fill="#404040"/>
<path transform="matrix(1.00002,0,0,-1.00005,1.095665,91.40496)" d="M42.03383-12.13026C42.03383-10.96304 41.08762-10.01682 39.9204-10.01682 38.75316-10.01682 37.80695-10.96304 37.80695-12.13026 37.80695-13.29749 38.75316-14.2437 39.9204-14.2437 41.08762-14.2437 42.03383-13.29749 42.03383-12.13026ZM39.9204-12.13026" fill="#ff0000"/>
<path transform="matrix(1.00002,0,0,-1.00005,1.095665,91.40496)" d="M172.66443 39.5455C172.66443 40.71272 171.71822 41.65895 170.551 41.65895 169.38376 41.65895 168.43755 40.71272 168.43755 39.5455 168.43755 38.37828 169.38376 37.43207 170.551 37.43207 171.71822 37.43207 172.66443 38.37828 172.66443 39.5455ZM170.551 39.5455" fill="#404040"/>
</g>
<use data-text="x" xlink:href="#font_4_1" transform="matrix(9.962799,0,0,-9.963098,96.40157,156.53621)"/>
<use data-text="y" xlink:href="#font_4_2" transform="matrix(9.962799,0,0,-9.963098,165.05695,86.2067)"/>
<use data-text="z" xlink:href="#font_4_3" transform="matrix(9.962799,0,0,-9.963098,69.42603,6.0456926)"/>
</svg>
