<svg xmlns="http://www.w3.org/2000/svg" xmlns:xlink="http://www.w3.org/1999/xlink" xmlns:inkscape="http://www.inkscape.org/namespaces/inkscape" version="1.1" width="142" height="149" viewBox="0 0 142 149">
<defs>
<path id="font_1_5" d="M.5369873 .5947571C.522995 .5818329 .48999024 .55400088 .48999024 .5361023 .48999024 .5261078 .5 .516098 .5099945 .516098 .5189972 .516098 .5239868 .5231018 .5289917 .5290985 .54100039 .5440674 .56399539 .5718994 .60798647 .59376528 .61499026 .59776309 .625 .6027527 .625 .61476138 .625 .62475588 .6179962 .62976077 .61099246 .6347656 .58898928 .6497803 .5779877 .66781619 .56999209 .69184878 .56799319 .7008667 .56399539 .7138672 .5499878 .7138672 .5359955 .7138672 .5299988 .7008667 .5299988 .69285586 .5299988 .68785098 .5379944 .65579226 .55400088 .6347656H.21699524C.19999695 .6347656 .18199158 .6347656 .18199158 .61476138 .18199158 .5947571 .19999695 .5947571 .21699524 .5947571H.5369873Z"/>
<path id="font_1_2" d="M.37298585 .37835694C.35499574 .41537477 .32598878 .4423828 .2809906 .4423828 .1639862 .4423828 .039993287 .29533387 .039993287 .14929199 .039993287 .055267335 .09498596-.0107421879 .17298889-.0107421879 .19299317-.0107421879 .24299622-.0067443849 .30299378 .06427002 .31098939 .022247315 .34599305-.0107421879 .3939972-.0107421879 .42900086-.0107421879 .45199586 .012252808 .46798707 .044265748 .4850006 .08027649 .49798585 .14129639 .49798585 .14329529 .49798585 .1532898 .4889984 .1532898 .48599244 .1532898 .47599793 .1532898 .47499085 .14929199 .47200013 .13528443 .45498658 .07026672 .43699647 .011245728 .3959961 .011245728 .36898805 .011245728 .3659973 .037261964 .3659973 .057266237 .3659973 .07926941 .36799623 .08728027 .3789978 .13128662 .3899994 .17329407 .3919983 .18330384 .40098573 .22131348L.43699647 .36135865C.44400025 .38935853 .44400025 .39135743 .44400025 .39537049 .44400025 .41236878 .43199159 .42237855 .4149933 .42237855 .3909912 .42237855 .37599183 .4003601 .37298585 .37835694M.30799867 .119277957C.30299378 .10127258 .30299378 .09927368 .28799439 .08227539 .24398804 .027252198 .20298767 .011245728 .1749878 .011245728 .125 .011245728 .11099243 .06626892 .11099243 .105285648 .11099243 .1552887 .14299011 .27833558 .1659851 .32434083 .19699097 .38336183 .24198914 .42037965 .28199769 .42037965 .34700013 .42037965 .36099244 .3383484 .36099244 .33235169 .36099244 .32633973 .35899354 .32034303 .35798646 .31533814L.30799867 .119277957Z"/>
<path id="font_1_3" d="M.23899842 .68333438C.23899842 .6843262 .23899842 .69433596 .22599793 .69433596 .20298767 .69433596 .12998963 .6863251 .10398865 .6843262 .09599304 .68333438 .084991458 .6823273 .084991458 .6643219 .084991458 .6523285 .09399414 .6523285 .10899353 .6523285 .15699768 .6523285 .15899658 .6453247 .15899658 .6353302 .15899658 .6283264 .1499939 .5943451 .14498902 .573349L.06298828 .24731446C.050994874 .1973114 .04699707 .18130493 .04699707 .14628601 .04699707 .05126953 .099990848-.0107421879 .17399597-.0107421879 .2919922-.0107421879 .4149933 .1382904 .4149933 .28233338 .4149933 .37335206 .3619995 .4423828 .28199769 .4423828 .23599243 .4423828 .19499207 .41337586 .16499329 .38235475L.23899842 .68333438M.14498902 .30534364C.15098572 .3273468 .15098572 .3293457 .1599884 .3403473 .20899964 .405365 .2539978 .42037965 .27999879 .42037965 .31599427 .42037965 .34298707 .3903656 .34298707 .32633973 .34298707 .26733399 .30999757 .15229798 .2919922 .11428833 .25898744 .04725647 .21299744 .011245728 .17399597 .011245728 .13999939 .011245728 .10699463 .038253786 .10699463 .11227417 .10699463 .13128662 .10699463 .15029907 .12298584 .21331787L.14498902 .30534364Z"/>
<path id="font_2_1" d="M.3889923 .27801515 .18899536 .47720338C.1769867 .48919679 .1749878 .49121095 .16699219 .49121095 .15699768 .49121095 .14698792 .48220826 .14698792 .47120667 .14698792 .46420289 .14898682 .46218873 .1599884 .45118714L.3600006 .24998474 .1599884 .048797609C.14898682 .03779602 .14698792 .03578186 .14698792 .028778077 .14698792 .01777649 .15699768 .0087890629 .16699219 .0087890629 .1749878 .0087890629 .1769867 .010787964 .18899536 .022781373L.3880005 .2219696 .59498599 .014785767C.5970001 .0137786869 .60398867 .0087890629 .6100006 .0087890629 .621994 .0087890629 .6299896 .01777649 .6299896 .028778077 .6299896 .030776978 .6299896 .03479004 .6269989 .039794923 .6259918 .041793825 .46699525 .19894409 .4169922 .24998474L.59999087 .4331665C.6049957 .43917848 .6199951 .45217896 .625 .45819093 .6259918 .46018983 .6299896 .46420289 .6299896 .47120667 .6299896 .48220826 .621994 .49121095 .6100006 .49121095 .60198977 .49121095 .59799197 .48719789 .58699038 .4761963L.3889923 .27801515Z"/>
<path id="font_3_3" d="M.68699648 .32714845C.70199587 .32714845 .72099307 .32714845 .72099307 .34713746 .72099307 .36714173 .70199587 .36714173 .6879883 .36714173H.08898926C.07499695 .36714173 .055999757 .36714173 .055999757 .34713746 .055999757 .32714845 .07499695 .32714845 .08999634 .32714845H.68699648M.6879883 .13284302C.70199587 .13284302 .72099307 .13284302 .72099307 .15284729 .72099307 .17285156 .70199587 .17285156 .68699648 .17285156H.08999634C.07499695 .17285156 .055999757 .17285156 .055999757 .15284729 .055999757 .13284302 .07499695 .13284302 .08898926 .13284302H.6879883Z"/>
<path id="font_3_1" d="M.33099366-.2400055C.33099366-.23701477 .33099366-.23500061 .31399537-.21800232 .18899536-.0920105 .15699768 .09700012 .15699768 .25 .15699768 .42399598 .19499207 .59799197 .31799317 .72299197 .33099366 .73498538 .33099366 .7369995 .33099366 .73999026 .33099366 .746994 .32699586 .75 .32099916 .75 .31098939 .75 .22099304 .6819916 .1619873 .5549927 .11099243 .44499208 .09899902 .33399964 .09899902 .25 .09899902 .17199707 .10998535 .050994874 .16499329-.06201172 .22499085-.18501282 .31098939-.25 .32099916-.25 .32699586-.25 .33099366-.24700928 .33099366-.2400055Z"/>
<path id="font_2_2" d="M.17199707 .71598818C.17199707 .7319946 .17199707 .75 .1519928 .75 .13198853 .75 .13198853 .7279968 .13198853 .71299746V-.2130127C.13198853-.2290039 .13198853-.25 .1519928-.25 .17199707-.25 .17199707-.23200989 .17199707-.21600342V.71598818M.36698915 .71299746C.36698915 .72898867 .36698915 .75 .34700013 .75 .32699586 .75 .32699586 .7319946 .32699586 .71598818V-.21600342C.32699586-.23200989 .32699586-.25 .34700013-.25 .36698915-.25 .36698915-.22801209 .36698915-.2130127V.71299746Z"/>
<path id="font_3_6" d="M.20799256 .19424439C.22999573 .19024658 .31199647 .17424011 .31199647 .102249149 .31199647 .051254274 .2769928 .011245728 .19898987 .011245728 .114990238 .011245728 .07899475 .06825256 .05999756 .15324402 .056991579 .1662445 .055999757 .17024231 .04598999 .17024231 .032989503 .17024231 .032989503 .16323853 .032989503 .14524842V.013244629C.032989503-.003753662 .032989503-.0107421879 .04399109-.0107421879 .04899597-.0107421879 .049987794-.009750366 .068984989 .009246826 .070999149 .011245728 .070999149 .013244629 .08898926 .03224182 .1329956-.009750366 .17799378-.0107421879 .19898987-.0107421879 .31399537-.0107421879 .3600006 .056243898 .3600006 .12825012 .3600006 .1812439 .32998658 .21124268 .31799317 .22323609 .2849884 .25523377 .24598694 .26324464 .20399475 .27124024 .147995 .28224183 .08099365 .2952423 .08099365 .35324098 .08099365 .38822938 .10699463 .42922975 .19299317 .42922975 .30299378 .42922975 .30799867 .3392334 .30999757 .3082428 .31098939 .2992401 .31999208 .2992401 .32199098 .2992401 .33499146 .2992401 .33499146 .304245 .33499146 .3232422V.4242401C.33499146 .4412384 .33499146 .4482422 .32398988 .4482422 .31900025 .4482422 .31698609 .4482422 .3039856 .43623353 .30099488 .43223573 .29100038 .42323304 .2869873 .42022706 .24899292 .4482422 .20799256 .4482422 .19299317 .4482422 .070999149 .4482422 .032989503 .38124085 .032989503 .3252411 .032989503 .29023744 .04899597 .26223756 .07598877 .24023438 .10798645 .21424866 .13598633 .2082367 .20799256 .19424439Z"/>
<path id="font_3_4" d="M.1769867 .4423828 .036987306 .43138124V.40037538C.101989749 .40037538 .11099243 .3943634 .11099243 .34532167V.076034549C.11099243 .0309906 .099990848 .0309906 .032989503 .0309906V0C.06498718 .0009918213 .11898804 .0029907227 .14299011 .0029907227 .17799378 .0029907227 .21299744 .0009918213 .24699402 0V.0309906C.18099976 .0309906 .1769867 .035995485 .1769867 .075042728V.4423828M.18099976 .6159363C.18099976 .64793398 .1559906 .6689453 .12799073 .6689453 .09700012 .6689453 .07499695 .64193728 .07499695 .6159363 .07499695 .5889435 .09700012 .5629425 .12799073 .5629425 .1559906 .5629425 .18099976 .5839386 .18099976 .6159363Z"/>
<path id="font_3_5" d="M.10998535 .34429933V.076034549C.10998535 .0309906 .09899902 .0309906 .03199768 .0309906V0C.066986087 .0009918213 .117996219 .0029907227 .14498902 .0029907227 .17098999 .0029907227 .22299195 .0009918213 .25698854 0V.0309906C.18998719 .0309906 .1789856 .0309906 .1789856 .076034549V.2602234C.1789856 .36431886 .25 .42037965 .31399537 .42037965 .3769989 .42037965 .3880005 .36631776 .3880005 .30926515V.076034549C.3880005 .0309906 .3769989 .0309906 .30999757 .0309906V0C.34498597 .0009918213 .3959961 .0029907227 .4229889 .0029907227 .44898988 .0029907227 .5009918 .0009918213 .5349884 0V.0309906C.48298646 .0309906 .45799256 .0309906 .45700074 .061019899V.25221253C.45700074 .3383026 .45700074 .36932374 .42599488 .405365 .4119873 .42237855 .3789978 .4423828 .32099916 .4423828 .24798584 .4423828 .20098877 .39935304 .17298889 .33729554V.4423828L.03199768 .43138124V.40037538C.101989749 .4003601 .10998535 .39335633 .10998535 .34429933Z"/>
<path id="font_1_1" d="M.45498658 .5001831C.45498658 .56614688 .43699647 .7050781 .33499146 .7050781 .19599915 .7050781 .041992189 .42323304 .041992189 .19425965 .041992189 .100250247 .070999149-.0107421879 .1619873-.0107421879 .30299378-.0107421879 .45498658 .27627564 .45498658 .5001831M.147995 .36328126C.16499329 .42723084 .18499756 .5071869 .22499085 .57814028 .2519989 .6271057 .2889862 .68307498 .33399964 .68307498 .3829956 .68307498 .3889923 .6191101 .3889923 .56214907 .3889923 .5131836 .3809967 .46220399 .35699464 .36328126H.147995M.34799195 .3312683C.33699037 .28527833 .31599427 .2002716 .27799989 .12826538 .24299622 .060256959 .20498657 .011245728 .1619873 .011245728 .1289978 .011245728 .10798645 .040252687 .10798645 .133255 .10798645 .17526245 .11399841 .23326111 .13999939 .3312683H.34799195Z"/>
<path id="font_3_2" d="M.2889862 .25C.2889862 .32798768 .27799989 .44898988 .22299195 .56199648 .16299439 .68499758 .07699585 .75 .066986087 .75 .06098938 .75 .056991579 .74598696 .056991579 .73999026 .056991579 .7369995 .056991579 .73498538 .07598877 .71699526 .17399597 .6179962 .23098755 .45899964 .23098755 .25 .23098755 .07899475 .19400025-.09700012 .069992069-.2230072 .056991579-.23500061 .056991579-.23701477 .056991579-.2400055 .056991579-.2460022 .06098938-.25 .066986087-.25 .07699585-.25 .16699219-.18200684 .22599793-.055007936 .2769928 .054992677 .2889862 .16600037 .2889862 .25Z"/>
<path id="font_1_4" d="M.08799744 .059265138C.084991458 .044265748 .07899475 .021255494 .07899475 .01625061 .07899475-.0017547608 .09298706-.0107421879 .10798645-.0107421879 .11999512-.0107421879 .13798523-.002746582 .14498902 .01725769 .1459961 .019256592 .1579895 .06626892 .1639862 .091278079L.18598938 .18130493C.19198609 .2033081 .19799805 .22531128 .20298767 .24832154 .20698548 .26531983 .21499634 .29434205 .21598816 .29833985 .23098755 .3293457 .28399659 .42037965 .3789978 .42037965 .42399598 .42037965 .43299867 .38336183 .43299867 .35035707 .43299867 .28833009 .38398744 .16029358 .36799623 .11727905 .35899354 .0942688 .35798646 .08227539 .35798646 .0712738 .35798646 .024261475 .3929901-.0107421879 .43998719-.0107421879 .5339966-.0107421879 .57099917 .13528443 .57099917 .14329529 .57099917 .1532898 .56199648 .1532898 .5589905 .1532898 .548996 .1532898 .548996 .15029907 .5439911 .13528443 .5239868 .06726074 .4909973 .011245728 .44198609 .011245728 .4249878 .011245728 .41799928 .021255494 .41799928 .044265748 .41799928 .0692749 .4269867 .09327698 .43598939 .11528015 .45498658 .16830445 .49699403 .27833558 .49699403 .3353424 .49699403 .40237428 .45399476 .4423828 .38198854 .4423828 .2919922 .4423828 .24299622 .37835694 .22599793 .35534669 .22099304 .41137696 .17999268 .4423828 .13398743 .4423828 .08799744 .4423828 .068984989 .4033661 .05899048 .38536073 .042999269 .35134889 .0289917 .29232789 .0289917 .28833009 .0289917 .27833558 .038986207 .27833558 .040985109 .27833558 .050994874 .27833558 .051986696 .2793274 .057998659 .30133058 .07499695 .37236024 .09498596 .42037965 .1309967 .42037965 .15098572 .42037965 .1619873 .4073639 .1619873 .37435914 .1619873 .35334779 .15899658 .3423462 .1459961 .29032899L.08799744 .059265138Z"/>
<path id="font_4_1" d="M.47898866 .4910736C.47898866 .61608889 .43099977 .70410159 .34799195 .70410159 .19898987 .70410159 .04399109 .42607118 .04399109 .20314026 .04399109 .107177738 .07699585-.009765625 .17599488-.009765625 .32199098-.009765625 .47898866 .2611084 .47898866 .4910736M.1559906 .3640747C.20298767 .5660858 .2849884 .6760864 .34700013 .6760864 .40699769 .6760864 .40699769 .5690918 .40699769 .55007937 .40699769 .4940796 .3889923 .41307069 .3769989 .3640747H.1559906M.36799623 .33007813C.32099916 .12916565 .23899842 .018234253 .1769867 .018234253 .12298584 .018234253 .116989139 .09819031 .116989139 .14416504 .116989139 .20713806 .13598633 .28808595 .14698792 .33007813H.36799623Z"/>
<path id="font_5_95" d="M.93699648 .09303284C.93699648 .11204529 .9269867 .11404419 .91600039 .11404419 .8999939 .11404419 .8959961 .10803223 .894989 .09402466 .8909912 .036987306 .85398867 .010986328 .81999209 .010986328 .7519989 .010986328 .7429962 .087020877 .7350006 .15106201 .7319946 .17808533 .72698977 .21810913 .723999 .23112488 .70899966 .29016114 .6569977 .3251953 .5970001 .34118653 .6609955 .3581848 .7839966 .40708924 .7839966 .49890138 .7839966 .60269168 .6289978 .6826172 .46299745 .6826172H.084991458V.63861086H.114990238C.19599915 .63861086 .19599915 .6286316 .19599915 .597702V.08502197C.19599915 .054000856 .19599915 .04399109 .114990238 .04399109H.084991458V0L.24699402 .0039978029 .40899659 0V.04399109H.3789978C.2979889 .04399109 .2979889 .054000856 .2979889 .08502197V.3251953H.45199586C.5059967 .3251953 .5529938 .3111725 .58399966 .28515626 .62098696 .2551422 .62098696 .23112488 .62098696 .17207337 .62098696 .09503174 .62098696 .055999757 .673996 .015991211 .71199038-.013000488 .7719879-.022003174 .8149872-.022003174 .9109955-.022003174 .93699648 .05999756 .93699648 .09303284M.6669922 .49890138C.6669922 .38414 .5529938 .3581848 .45199586 .3581848H.2979889V.60069277C.2979889 .6306305 .2999878 .6356201 .32998658 .63861086H.40098573C.5139923 .63861086 .6669922 .63861086 .6669922 .49890138Z"/>
<path id="font_5_66" d="M.32598878 0V.04399109C.25898744 .04399109 .25099183 .04399109 .25099183 .08403015V.4423828L.08699036 .43066407V.3866577C.1579895 .3866577 .1659851 .3796692 .1659851 .33070375V.08395386C.1659851 .052978517 .1659851 .04399109 .100997928 .04399109H.08299255V0C.12399292 .0029907227 .1659851 .0039978029 .20698548 .0039978029 .24499512 .0039978029 .2889862 .0029907227 .32598878 0M.2619934 .6000519C.2619934 .63404849 .23498535 .6610565 .20098877 .6610565 .16799927 .6610565 .13999939 .63404849 .13999939 .6000519 .13999939 .5660553 .16699219 .5390625 .20098877 .5390625 .23399353 .5390625 .2619934 .5660553 .2619934 .6000519Z"/>
<path id="font_5_59" d="M.6349945 .39611817C.6349945 .42211915 .6139984 .453125 .56599429 .453125 .5419922 .453125 .4889984 .44812013 .43598939 .40711976 .41299439 .42137147 .36799623 .4423828 .30599977 .4423828 .18798828 .4423828 .10598755 .3723755 .10598755 .29537965 .10598755 .2443695 .14299011 .2073822 .1579895 .19537354 .13398743 .16638184 .12799073 .1363678 .12799073 .11437988 .12799073 .06137085 .1619873 .028381348 .17098999 .021377564 .12098694 .007980347 .06298828-.024032593 .06298828-.077041629 .06298828-.15605164 .19499207-.20605469 .33999635-.20605469 .47399903-.20605469 .61698916-.1620636 .61698916-.075042728 .61698916-.030029297 .59098818 .017974854 .5419922 .041992189 .47499085 .074035648 .41099549 .074035648 .3039856 .074035648 .2789917 .07398987 .23498535 .07398987 .22999573 .07498169 .18199158 .08303833 .17098999 .12226868 .17098999 .14138794 .17098999 .16142273 .18099976 .1774292 .18399048 .1774292 .18399048 .1774292 .18798828 .17643738 .19099427 .1754303 .23098755 .1544342 .269989 .1484375 .30499269 .1484375 .4229889 .1484375 .5049896 .21842957 .5049896 .29542542 .5049896 .34321595 .47200013 .37817384 .45999146 .38916017 .5079956 .41812135 .5529938 .41911317 .56900027 .42012025 .56599429 .41612245 .5609894 .41012574 .5609894 .39614869 .5609894 .37617494 .57398989 .3591919 .59799197 .3591919 .621994 .3591919 .6349945 .37617494 .6349945 .39614869V.39611817M.4169922 .2952881C.4169922 .24035645 .3929901 .181427 .30599977 .181427 .21798706 .181427 .19400025 .23934937 .19400025 .2952881 .19400025 .35031129 .21798706 .40937806 .30499269 .40937806 .3929901 .40937806 .4169922 .35131837 .4169922 .29525758V.2952881M.5479889-.07701111C.5479889-.1260376 .45899964-.17306519 .33999635-.17306519 .22499085-.17306519 .13198853-.12902832 .13198853-.07600403 .13198853-.04498291 .16699219-.001953125 .24198914-.001953125H.30699159C.40699769-.001953125 .5479889-.001953125 .5479889-.07701111Z"/>
<path id="font_5_63" d="M.68299868 0V.04399109H.6649933C.59999087 .04399109 .59999087 .052978517 .59999087 .08395386V.3018036C.59999087 .41236878 .5249939 .4423828 .43199159 .4423828 .31698609 .4423828 .2649994 .37419129 .25 .35105897V.69433596L.08198547 .6826172V.63861086C.1559906 .63861086 .16499329 .6316376 .16499329 .5828247V.08395386C.16499329 .052978517 .16499329 .04399109 .099990848 .04399109H.08198547V0C.125 .0029907227 .16699219 .0039978029 .20999146 .0039978029 .2519989 .0039978029 .29499818 .0029907227 .33699037 0V.04399109H.31900025C.2539978 .04399109 .2539978 .052978517 .2539978 .08395386V.2578125C.2539978 .37117005 .35798646 .40937806 .41999818 .40937806 .49398805 .40937806 .5109863 .36715699 .5109863 .30281068V.08395386C.5109863 .052978517 .5109863 .04399109 .44599916 .04399109H.42799378V0C.47099305 .0029907227 .5130005 .0039978029 .55599978 .0039978029 .59799197 .0039978029 .6409912 .0029907227 .68299868 0Z"/>
<path id="font_5_105" d="M.44400025 .12608338V.18099976H.4019928V.1290741C.4019928 .05419922 .35798646 .025253296 .32299806 .025253296 .24598694 .025253296 .24598694 .1051178 .24598694 .12608338V.3866577H.4229889V.43066407H.24598694V.6142578H.20399475C.20298767 .52046206 .15299988 .4226532 .050994874 .41966249V.3866577H.15699768V.12608338C.15699768 .012252808 .25099183-.0107421879 .31298829-.0107421879 .3880005-.011001587 .44400025 .04399109 .44400025 .12599182V.12608338Z"/>
<path id="font_5_28" d="M.6349945 .090148929V.14515686H.59298709V.09214783C.59298709 .08213806 .59298709 .038131715 .5529938 .038131715 .5130005 .038131715 .5130005 .08213806 .5130005 .09214783V.2972107C.5130005 .39323426 .4119873 .4482422 .28799439 .4482422 .22698975 .4482422 .11099243 .4452362 .11099243 .36021424 .11099243 .32321168 .13899231 .30619813 .1639862 .30619813 .19099427 .30619813 .21699524 .32521058 .21699524 .3592224 .21699524 .3832245 .20298767 .39822389 .19400025 .40423585 .22698975 .41523744 .2749939 .41523744 .28599549 .41523744 .37098695 .41523744 .42399598 .3682251 .42399598 .2962036V.27020265C.32699586 .26519776 .272995 .26219178 .19599915 .23518372 .12998963 .21217346 .07199097 .17016602 .07199097 .105148319 .07199097 .011245728 .18798828-.0107421879 .2679901-.0107421879 .34498597-.0107421879 .40499879 .020248414 .43598939 .071243289 .43998719 .036132814 .46299745-.005859375 .5139923-.005859375 .5209961-.005859375 .6349945-.005859375 .6349945 .09013367V.090148929M.42399598 .14213562C.42399598 .03224182 .3039856 .022247315 .2789917 .022247315 .21998596 .022247315 .1639862 .053253175 .1639862 .10523987 .1639862 .13824463 .18499756 .23022461 .42399598 .24023438V.14213562Z"/>
<path id="font_5_77" d="M.68299868 0V.04399109H.6649933C.59999087 .04399109 .59999087 .052978517 .59999087 .08395386V.3017578C.59999087 .41236878 .5249939 .4423828 .43199159 .4423828 .32499696 .4423828 .2689972 .3832245 .24598694 .34399415V.4423828L.08198547 .43066407V.3866577C.1559906 .3866577 .16499329 .3796692 .16499329 .330719V.08395386C.16499329 .052978517 .16499329 .04399109 .099990848 .04399109H.08198547V0C.125 .0029907227 .16699219 .0039978029 .20999146 .0039978029 .2519989 .0039978029 .29499818 .0029907227 .33699037 0V.04399109H.31900025C.2539978 .04399109 .2539978 .052978517 .2539978 .08395386V.25775147C.2539978 .3713379 .35798646 .40937806 .41999818 .40937806 .49398805 .40937806 .5109863 .36732484 .5109863 .30326844V.08403015C.5109863 .053009035 .5109863 .04399109 .44599916 .04399109H.42799378V0C.47099305 .0029907227 .5130005 .0039978029 .55599978 .0039978029 .59799197 .0039978029 .6409912 .0029907227 .68299868 0Z"/>
<path id="font_5_47" d="M.6729889 0V.04399109C.598999 .04399109 .58999636 .050994874 .58999636 .10002136V.69433596L.42199708 .6826172V.63861086C.49598695 .63861086 .5049896 .6316376 .5049896 .5828247V.3883667C.48298646 .40737916 .42900086 .4423828 .34599305 .4423828 .19599915 .4423828 .07199097 .34135438 .07199097 .21531677 .07199097 .0942688 .18499756-.0107421879 .33399964-.0107421879 .41600038-.0107421879 .47299195 .025253296 .5009918 .04925537V-.0107421879L.6729889 0M.5009918 .10899353C.45298768 .03526306 .3789978 .022247315 .33999635 .022247315 .2899933 .022247315 .23999024 .042266847 .20698548 .08628845 .1749878 .12731934 .17199707 .18435669 .17199707 .21539307 .17199707 .24240113 .17399597 .30845643 .21699524 .3544922 .2519989 .39048768 .3039856 .40948487 .35299684 .40948487 .38198854 .40948487 .45298768 .40348817 .5009918 .33546449V.10899353Z"/>
<path id="font_5_43" d="M.5469971 .12023926C.5469971 .13424683 .5319977 .13424683 .526001 .13424683 .5099945 .13424683 .5089874 .13124085 .5039978 .11924744 .46998597 .036254884 .39698792 .025253296 .35299684 .025253296 .2669983 .025253296 .17199707 .08325195 .17199707 .21723938 .17199707 .26124574 .18099976 .3162384 .21798706 .3582306 .2659912 .41223146 .32499696 .41223146 .35598756 .41223146 .38598634 .41223146 .4139862 .41223146 .44898988 .40322877 .43499757 .39323426 .4269867 .37722779 .4269867 .35923768 .4269867 .3262329 .45199586 .3062439 .47999574 .3062439 .5039978 .3062439 .5329895 .3222351 .5329895 .3602295 .5329895 .4452362 .42199708 .4482422 .35198976 .4482422 .1559906 .4482422 .07199097 .3162384 .07199097 .21624756 .07199097 .09225464 .18899536-.0107421879 .33999635-.0107421879 .5130005-.0107421879 .5469971 .11125183 .5469971 .12023926Z"/>
<path id="font_5_109" d="M.68299868 .00024414063V.04425049C.60899356 .04425049 .59999087 .051254274 .59999087 .1002655V.4423828L.42799378 .43138124V.38737489C.5019989 .38737489 .5109863 .3803711 .5109863 .33135987V.16828919C.5109863 .07626343 .44198609 .022247315 .3600006 .022247315 .2579956 .022247315 .2539978 .06326294 .2539978 .11427307V.4423828L.08198547 .43138124V.38737489C.15899658 .38737489 .16499329 .379364 .16499329 .32835389V.11027527C.17399597-.0017547608 .2869873-.0107421879 .35198976-.0107421879 .43598939-.0107421879 .4850006 .027252198 .5149994 .07426453V-.0107421879L.68299868 .00024414063Z"/>
<path id="font_5_96" d="M.47898866 .37338258C.47898866 .41137696 .44299317 .4423828 .3899994 .4423828 .33999635 .44171144 .27598573 .41571046 .23699951 .33171083H.23599243V.4423828L.07598877 .43066407V.3866577C.1499939 .3866577 .15899658 .3796692 .15899658 .33070375V.08395386C.15899658 .052978517 .15899658 .04399109 .09399414 .04399109H.07598877V0C.117996219 .0029907227 .16299439 .0039978029 .20498657 .0039978029L.34799195 0V.04399109H.32099916C.24398804 .04399109 .24398804 .053985597 .24398804 .084991458V.22399903C.24398804 .31698609 .29699708 .40699769 .3919983 .40899659 .3919983 .40899659 .37799073 .394989 .37799073 .37298585 .37799073 .33699037 .4059906 .32199098 .42799378 .32199098 .45298768 .32199098 .47898866 .33898927 .47898866 .37298585V.37338258Z"/>
<path id="font_5_72" d="M.33399964 0V.04399109H.31599427C.25099183 .04399109 .25099183 .052993776 .25099183 .08401489V.69433596L.08299255 .6826172V.63861086C.15699768 .63861086 .1659851 .6316223 .1659851 .5826416V.083969119C.1659851 .052993776 .1659851 .04399109 .100997928 .04399109H.08299255V0C.125 .0029907227 .1659851 .0039978029 .20799256 .0039978029 .25 .0039978029 .2919922 .0029907227 .33399964 0Z"/>
</defs>
<path transform="matrix(1.00002,0,0,-1.00008,50.569719,110.427799)" d="M0 0-29.48654-25.80052 51.60109-18.42902 81.08769 7.37148Z" fill="#f2f2f2" fill-opacity=".5"/>
<path transform="matrix(1.00002,0,0,-1.00008,50.569719,110.427799)" stroke-width=".3985" stroke-linecap="butt" stroke-dasharray="2.98883,2.98883" stroke-miterlimit="10" stroke-linejoin="miter" fill="none" stroke="#cccccc" d="M-29.48654-25.80052 51.60109-18.42902 81.08769 7.37148"/>
<path transform="matrix(1.00002,0,0,-1.00008,50.569719,110.427799)" stroke-width=".79701" stroke-linecap="butt" stroke-miterlimit="10" stroke-linejoin="miter" fill="none" stroke="#b2b3b2" d="M0 11.05537-3.6853 7.37006V-3.6853"/>
<path transform="matrix(1.00002,0,0,-1.00008,50.569719,110.427799)" stroke-width=".79701" stroke-linecap="butt" stroke-miterlimit="10" stroke-linejoin="miter" fill="none" stroke="#b2b3b2" d="M0 11.05537H7.37006V.73715"/>
<path transform="matrix(1.00002,0,0,-1.00008,50.569719,110.427799)" stroke-width="1.59404" stroke-linecap="butt" stroke-miterlimit="10" stroke-linejoin="miter" fill="none" stroke="#0000ff" d="M0 0-26.63754-23.30763"/>
<path transform="matrix(-.7525651,.6585327,.65849319,.7526102,23.931654,133.73729)" d="M3.78581 0-2.27148 3.02866 0 0-2.27148-3.02866" fill="#0000ff"/>
<use data-text="&#x20d7;" xlink:href="#font_1_5" transform="matrix(9.962799,0,0,-9.963397,11.074936,147.46677)" fill="#0000ff"/>
<use data-text="a" xlink:href="#font_1_2" transform="matrix(9.962799,0,0,-9.963397,11.702591,147.46677)" fill="#0000ff"/>
<path transform="matrix(1.00002,0,0,-1.00008,50.569719,110.427799)" stroke-width="1.59404" stroke-linecap="butt" stroke-miterlimit="10" stroke-linejoin="miter" fill="none" stroke="#ff0000" d="M0 0 77.3176 7.02875"/>
<path transform="matrix(.99587,-.09053724,-.09053181,-.99592968,127.88885,103.39848)" d="M3.78581 0-2.27148 3.02866 0 0-2.27148-3.02866" fill="#ff0000"/>
<use data-text="&#x20d7;" xlink:href="#font_1_5" transform="matrix(9.962799,0,0,-9.963397,134.6574,105.300388)" fill="#ff0000"/>
<use data-text="b" xlink:href="#font_1_3" transform="matrix(9.962799,0,0,-9.963397,135.77643,107.929599)" fill="#ff0000"/>
<path transform="matrix(1.00002,0,0,-1.00008,50.569719,110.427799)" stroke-width="1.59404" stroke-linecap="butt" stroke-miterlimit="10" stroke-linejoin="miter" fill="none" stroke="#bf0040" d="M0 0V88.3594"/>
<path transform="matrix(0,-1.00008,-1.00002,-0,50.569719,22.061333)" d="M3.78581 0-2.27148 3.02866 0 0-2.27148-3.02866" fill="#bf0040"/>
<use data-text="&#x20d7;" xlink:href="#font_1_5" transform="matrix(9.962799,0,0,-9.963397,.5917206,11.665901)" fill="#bf0040"/>
<use data-text="a" xlink:href="#font_1_2" transform="matrix(9.962799,0,0,-9.963397,1.2193756,11.665901)" fill="#bf0040"/>
<use data-text="&#x00d7;" xlink:href="#font_2_1" transform="matrix(9.962799,0,0,-9.963397,8.695892,11.665901)" fill="#bf0040"/>
<use data-text="&#x20d7;" xlink:href="#font_1_5" transform="matrix(9.962799,0,0,-9.963397,17.540055,9.03669)" fill="#bf0040"/>
<use data-text="b" xlink:href="#font_1_3" transform="matrix(9.962799,0,0,-9.963397,18.659089,11.665901)" fill="#bf0040"/>
<use data-text="=" xlink:href="#font_3_3" transform="matrix(9.962799,0,0,-9.963397,25.702225,11.665901)" fill="#bf0040"/>
<use data-text="(" xlink:href="#font_3_1" transform="matrix(9.962799,0,0,-9.963397,36.20302,11.665901)" fill="#bf0040"/>
<use data-text="&#x2225;" xlink:href="#font_2_2" transform="matrix(9.962799,0,0,-9.963397,40.092515,11.665901)" fill="#bf0040"/>
<use data-text="&#x20d7;" xlink:href="#font_1_5" transform="matrix(9.962799,0,0,-9.963397,44.450609,11.665901)" fill="#bf0040"/>
<use data-text="a" xlink:href="#font_1_2" transform="matrix(9.962799,0,0,-9.963397,45.078264,11.665901)" fill="#bf0040"/>
<use data-text="&#x2225;" xlink:href="#font_2_2" transform="matrix(9.962799,0,0,-9.963397,50.340715,11.665901)" fill="#bf0040"/>
<use data-text="&#x2225;" xlink:href="#font_2_2" transform="matrix(9.962799,0,0,-9.963397,55.322114,11.665901)" fill="#bf0040"/>
<use data-text="&#x20d7;" xlink:href="#font_1_5" transform="matrix(9.962799,0,0,-9.963397,59.1839,9.03669)" fill="#bf0040"/>
<use data-text="b" xlink:href="#font_1_3" transform="matrix(9.962799,0,0,-9.963397,60.302919,11.665901)" fill="#bf0040"/>
<use data-text="&#x2225;" xlink:href="#font_2_2" transform="matrix(9.962799,0,0,-9.963397,64.57901,11.665901)" fill="#bf0040"/>
<use data-text="s" xlink:href="#font_3_6" transform="matrix(9.962799,0,0,-9.963397,71.221149,11.665901)" fill="#bf0040"/>
<use data-text="i" xlink:href="#font_3_4" transform="matrix(9.962799,0,0,-9.963397,75.146488,11.665901)" fill="#bf0040"/>
<use data-text="n" xlink:href="#font_3_5" transform="matrix(9.962799,0,0,-9.963397,77.90619,11.665901)" fill="#bf0040"/>
<use data-text="&#x03b8;" xlink:href="#font_1_1" transform="matrix(9.962799,0,0,-9.963397,85.11342,11.665901)" fill="#bf0040"/>
<use data-text=")" xlink:href="#font_3_2" transform="matrix(9.962799,0,0,-9.963397,90.06752,11.665901)" fill="#bf0040"/>
<use data-text="&#x20d7;" xlink:href="#font_1_5" transform="matrix(9.962799,0,0,-9.963397,93.674579,11.665901)" fill="#bf0040"/>
<use data-text="n" xlink:href="#font_1_4" transform="matrix(9.962799,0,0,-9.963397,93.94357,11.665901)" fill="#bf0040"/>
<path transform="matrix(1.00002,0,0,-1.00008,50.569719,110.427799)" stroke-width=".79701" stroke-linecap="butt" stroke-miterlimit="10" stroke-linejoin="miter" fill="none" stroke="#000000" d="M-14.74013-12.89804C-19.04059-3.67548-15.0505 7.28767-5.82796 11.58812 .13718 14.36981 7.13585 13.75748 12.52745 9.98221 16.98817 6.85864 19.83961 1.91994 20.08855-.92477"/>
<path transform="matrix(.08711174,.9962497,.99618998,-.087116967,70.65867,111.35264)" d="M2.59026 0-1.55415 2.0722 0 0-1.55415-2.0722"/>
<use data-text="&#x03b8;" xlink:href="#font_4_1" transform="matrix(7.9702599,0,0,-7.9707376,44.791604,127.937198)"/>
<path transform="matrix(1.00002,0,0,-1.00008,50.569719,110.427799)" stroke-width=".79701" stroke-linecap="butt" stroke-miterlimit="10" stroke-linejoin="miter" fill="none" stroke="#7f807f" d="M-11.05537-3.6853C5.3354-5.04605 16.05013-2.12337 27.36572 5.87503"/>
<path transform="matrix(.8165763,-.5772262,-.5771916,-.8166253,77.93599,104.55229)" d="M2.59026 0-1.55415 2.0722 0 0-1.55415-2.0722" fill="#7f807f"/>
<use data-text="R" xlink:href="#font_5_95" transform="matrix(4.9813997,0,0,-4.9816987,37.985467,96.90172)" fill="#7f807f"/>
<use data-text="i" xlink:href="#font_5_66" transform="matrix(4.9813997,0,0,-4.9816987,42.81243,96.90172)" fill="#7f807f"/>
<use data-text="g" xlink:href="#font_5_59" transform="matrix(4.9813997,0,0,-4.9816987,44.81994,96.90172)" fill="#7f807f"/>
<use data-text="h" xlink:href="#font_5_63" transform="matrix(4.9813997,0,0,-4.9816987,48.212274,96.90172)" fill="#7f807f"/>
<use data-text="t" xlink:href="#font_5_105" transform="matrix(4.9813997,0,0,-4.9816987,51.77897,96.90172)" fill="#7f807f"/>
<use data-text="h" xlink:href="#font_5_63" transform="matrix(4.9813997,0,0,-4.9816987,56.825128,96.90172)" fill="#7f807f"/>
<use data-text="a" xlink:href="#font_5_28" transform="matrix(4.9813997,0,0,-4.9816987,60.56118,96.90172)" fill="#7f807f"/>
<use data-text="n" xlink:href="#font_5_77" transform="matrix(4.9813997,0,0,-4.9816987,63.953516,96.90172)" fill="#7f807f"/>
<use data-text="d" xlink:href="#font_5_47" transform="matrix(4.9813997,0,0,-4.9816987,67.68957,96.90172)" fill="#7f807f"/>
<use data-text="c" xlink:href="#font_5_43" transform="matrix(4.9813997,0,0,-4.9816987,73.77685,96.90172)" fill="#7f807f"/>
<use data-text="u" xlink:href="#font_5_109" transform="matrix(4.9813997,0,0,-4.9816987,76.82049,96.90172)" fill="#7f807f"/>
<use data-text="r" xlink:href="#font_5_96" transform="matrix(4.9813997,0,0,-4.9816987,80.55654,96.90172)" fill="#7f807f"/>
<use data-text="l" xlink:href="#font_5_72" transform="matrix(4.9813997,0,0,-4.9816987,83.25645,96.90172)" fill="#7f807f"/>
</svg>
