<svg xmlns="http://www.w3.org/2000/svg" xmlns:xlink="http://www.w3.org/1999/xlink" xmlns:inkscape="http://www.inkscape.org/namespaces/inkscape" version="1.1" width="162" height="91" viewBox="0 0 162 91">
<defs>
<path id="font_1_3" d="M.33399964 .30233766C.33999635 .32835389 .36299134 .42037965 .43299867 .42037965 .43798829 .42037965 .46199037 .42037965 .48298646 .40734864 .45498658 .402359 .43499757 .37734986 .43499757 .35334779 .43499757 .33735658 .44599916 .31835938 .47299195 .31835938 .49499513 .31835938 .5269928 .3363495 .5269928 .37635804 .5269928 .42837525 .46798707 .4423828 .43399049 .4423828 .37599183 .4423828 .34098817 .38935853 .32899476 .36634828 .3039856 .43237306 .25 .4423828 .22099304 .4423828 .116989139 .4423828 .05999756 .3133545 .05999756 .28834535 .05999756 .27833558 .069992069 .27833558 .07199097 .27833558 .07998657 .27833558 .08299255 .28033448 .084991458 .28933717 .11898804 .39535523 .18499756 .42037965 .21899414 .42037965 .23799134 .42037965 .272995 .4113617 .272995 .35334779 .272995 .32235719 .2559967 .25532533 .21899414 .11528015 .20298767 .053268434 .16799927 .011245728 .12399292 .011245728 .117996219 .011245728 .09498596 .011245728 .07398987 .024276734 .09899902 .029266358 .12098694 .05027771 .12098694 .07827759 .12098694 .105270389 .09899902 .11328125 .083999637 .11328125 .053985597 .11328125 .0289917 .08728027 .0289917 .055267335 .0289917 .009246826 .07899475-.0107421879 .12298584-.0107421879 .18899536-.0107421879 .22499085 .059280397 .22799683 .0652771 .23999024 .028274537 .27598573-.0107421879 .33599855-.0107421879 .43899537-.0107421879 .49598695 .118270877 .49598695 .14328003 .49598695 .1532898 .4869995 .1532898 .48399354 .1532898 .47499085 .1532898 .47299195 .14929199 .47099305 .14228821 .43798829 .03527832 .36999513 .011245728 .33799745 .011245728 .29899598 .011245728 .2829895 .043273927 .2829895 .07727051 .2829895 .09927368 .2889862 .121276859 .2999878 .16529846L.33399964 .30233766Z"/>
<path id="font_1_4" d="M.48599244 .38136292C.48999024 .39537049 .48999024 .39736939 .48999024 .40437318 .48999024 .42237855 .47599793 .43138124 .46099855 .43138124 .45098878 .43138124 .43499757 .42536927 .42599488 .41036988 .42399598 .405365 .41600038 .37435914 .4119873 .35635377 .40499879 .33035279 .397995 .30334474 .3919983 .27633668L.34700013 .09628296C.34298707 .08126831 .2999878 .011245728 .23399353 .011245728 .18299866 .011245728 .17199707 .055267335 .17199707 .0922699 .17199707 .1382904 .18899536 .20030213 .22299195 .28833009 .23899842 .3293457 .24299622 .3403473 .24299622 .36035157 .24299622 .405365 .21099854 .4423828 .16099549 .4423828 .06599426 .4423828 .0289917 .29733277 .0289917 .28833009 .0289917 .27833558 .038986207 .27833558 .040985109 .27833558 .050994874 .27833558 .051986696 .28033448 .056991579 .29634095 .083999637 .3903656 .12399292 .42037965 .1579895 .42037965 .1659851 .42037965 .18299866 .42037965 .18299866 .3883667 .18299866 .36335755 .17298889 .3373413 .1659851 .31834413 .12599182 .21231079 .10798645 .1552887 .10798645 .10827637 .10798645 .019256592 .17098999-.0107421879 .22999573-.0107421879 .2689972-.0107421879 .30299378 .0062561037 .33099366 .03425598 .31799317-.017745972 .30599977-.06674194 .2659912-.11973572 .23999024-.15385437 .20199585-.18309021 .1559906-.18309021 .14199829-.18309021 .09700012-.18005371 .07998657-.14074707 .09599304-.14074707 .10899353-.14074707 .12298584-.1287384 .1329956-.11973572 .14299011-.10673523 .14299011-.08773804 .14299011-.056747438 .115997318-.052734376 .10598755-.052734376 .08299255-.052734376 .049987794-.068740848 .049987794-.11773682 .049987794-.16796875 .09399414-.20507813 .1559906-.20507813 .25898744-.20507813 .3619995-.11373901 .3899994-.00074768069L.48599244 .38136292Z"/>
<path id="font_1_2" d="M.7599945 .69506838C.7599945 .69807437 .7579956 .7050781 .7489929 .7050781 .74598696 .7050781 .7449951 .70407107 .73399356 .69306948L.6639862 .61602786C.6549988 .6300354 .60899356 .7050781 .49798585 .7050781 .2749939 .7050781 .049987794 .48391725 .049987794 .25172425 .049987794 .08659363 .16799927-.022460938 .32099916-.022460938 .4079895-.022460938 .48399354 .017532349 .5369873 .063583377 .6299896 .14564514 .6469879 .2367096 .6469879 .23971558 .6469879 .24972534 .6369934 .24972534 .6349945 .24972534 .6289978 .24972534 .6239929 .24772644 .621994 .23971558 .61299136 .21069336 .58999636 .13963318 .5209961 .081588748 .45199586 .025543213 .3889923 .008529663 .33699037 .008529663 .24699402 .008529663 .14099121 .060577394 .14099121 .21670532 .14099121 .27374269 .1619873 .43588258 .2619934 .55296328 .32299806 .62402346 .4169922 .67407229 .5059967 .67407229 .60798647 .67407229 .6669922 .5970001 .6669922 .48091126 .6669922 .44088746 .6639862 .43988038 .6639862 .4298706 .6639862 .41986085 .6749878 .41986085 .67900088 .41986085 .69200137 .41986085 .69200137 .42185975 .69699099 .43988038L.7599945 .69506838Z"/>
<path id="font_2_1" d="M.33099366-.2400055C.33099366-.23701477 .33099366-.23500061 .31399537-.21800232 .18899536-.0920105 .15699768 .09700012 .15699768 .25 .15699768 .42399598 .19499207 .59799197 .31799317 .72299197 .33099366 .73498538 .33099366 .7369995 .33099366 .73999026 .33099366 .746994 .32699586 .75 .32099916 .75 .31098939 .75 .22099304 .6819916 .1619873 .5549927 .11099243 .44499208 .09899902 .33399964 .09899902 .25 .09899902 .17199707 .10998535 .050994874 .16499329-.06201172 .22499085-.18501282 .31098939-.25 .32099916-.25 .32699586-.25 .33099366-.24700928 .33099366-.2400055Z"/>
<path id="font_2_3" d="M.45999146 .31976319C.45999146 .39982606 .45498658 .47988893 .41999818 .5539398 .37399293 .65000918 .2919922 .6660156 .25 .6660156 .18998719 .6660156 .116989139 .64001467 .07598877 .54693606 .04399109 .47789 .038986207 .39982606 .038986207 .31976319 .038986207 .24472046 .042999269 .15464783 .083999637 .07859802 .1269989-.0024719239 .19999695-.022460938 .24899292-.022460938 .30299378-.022460938 .3789978-.0014648438 .4229889 .09359741 .45498658 .16265869 .45999146 .2407074 .45999146 .31976319M.24899292-.00047302247C.20999146-.00047302247 .15098572 .024551392 .1329956 .12062073 .12199402 .18066406 .12199402 .2727356 .12199402 .3317871 .12199402 .39582826 .12199402 .46188355 .12998963 .5159149 .14898682 .63500979 .22399903 .64401248 .24899292 .64401248 .28199769 .64401248 .34799195 .6259918 .36698915 .52693179 .3769989 .47088624 .3769989 .39482118 .3769989 .3317871 .3769989 .25672914 .3769989 .18867493 .3659973 .12461853 .35099793 .029556275 .2939911-.00047302247 .24899292-.00047302247Z"/>
<path id="font_1_1" d="M.20298767 .0009918213C.20298767 .066986087 .17799378 .10598755 .13899231 .10598755 .10598755 .10598755 .085998538 .08099365 .085998538 .052993776 .085998538 .025985718 .10598755 0 .13899231 0 .15098572 0 .1639862 .0039978029 .17399597 .0129852299 .1769867 .01499939 .17799378 .015991211 .1789856 .015991211 .17999268 .015991211 .18099976 .01499939 .18099976 .0009918213 .18099976-.07316589 .1459961-.13328552 .11299133-.16635132 .101989749-.17736817 .101989749-.17936707 .101989749-.18237305 .101989749-.18936157 .10699463-.19335938 .11199951-.19335938 .12298584-.19335938 .20298767-.116256717 .20298767 .0009918213Z"/>
<path id="font_2_2" d="M.2889862 .25C.2889862 .32798768 .27799989 .44898988 .22299195 .56199648 .16299439 .68499758 .07699585 .75 .066986087 .75 .06098938 .75 .056991579 .74598696 .056991579 .73999026 .056991579 .7369995 .056991579 .73498538 .07598877 .71699526 .17399597 .6179962 .23098755 .45899964 .23098755 .25 .23098755 .07899475 .19400025-.09700012 .069992069-.2230072 .056991579-.23500061 .056991579-.23701477 .056991579-.2400055 .056991579-.2460022 .06098938-.25 .066986087-.25 .07699585-.25 .16699219-.18200684 .22599793-.055007936 .2769928 .054992677 .2889862 .16600037 .2889862 .25Z"/>
<path id="font_2_4" d="M.2939911 .64004519C.2939911 .66400149 .2939911 .6660156 .2709961 .6660156 .20899964 .60227969 .12098694 .60227969 .08898926 .60227969V.57128909C.10899353 .57128909 .16799927 .57128909 .21998596 .5972748V.07902527C.21998596 .042999269 .21699524 .0309906 .1269989 .0309906H.09498596V0C.12998963 .0029907227 .21699524 .0029907227 .25698854 .0029907227 .29699708 .0029907227 .38398744 .0029907227 .4189911 0V.0309906H.3869934C.29699708 .0309906 .2939911 .041992189 .2939911 .07902527V.64004519Z"/>
<path id="font_3_1" d="M.6589966 .23046875C.6759949 .23046875 .69400027 .23046875 .69400027 .25045777 .69400027 .27046205 .6759949 .27046205 .6589966 .27046205H.117996219C.100997928 .27046205 .08299255 .27046205 .08299255 .25045777 .08299255 .23046875 .100997928 .23046875 .117996219 .23046875H.6589966Z"/>
</defs>
<path transform="matrix(1.00006,0,0,-1,84.65424,76.466999)" stroke-width=".79701" stroke-linecap="butt" stroke-miterlimit="10" stroke-linejoin="miter" fill="none" stroke="#000000" d="M-71.43379 0H66.7713"/>
<path transform="matrix(1.00006,0,0,-1,151.42955,76.466999)" d="M4.66248 0C3.28098 .25902 1.0361 1.0361-.51805 1.94269V-1.94269C1.0361-1.0361 3.28098-.25902 4.66248 0"/>
<use data-text="x" xlink:href="#font_1_3" transform="matrix(9.963197,0,0,-9.9626,153.24536,84.476)"/>
<path transform="matrix(1.00006,0,0,-1,84.65424,76.466999)" stroke-width=".79701" stroke-linecap="butt" stroke-miterlimit="10" stroke-linejoin="miter" fill="none" stroke="#000000" d="M0-10.2047V66.7713"/>
<path transform="matrix(0,-1,-1.00006,-0,84.65424,9.695694)" d="M4.66248 0C3.28098 .25902 1.0361 1.0361-.51805 1.94269V-1.94269C1.0361-1.0361 3.28098-.25902 4.66248 0"/>
<use data-text="y" xlink:href="#font_1_4" transform="matrix(9.963197,0,0,-9.9626,75.6927,6.208992)"/>
<path transform="matrix(1.00006,0,0,-1,84.65424,76.466999)" stroke-width=".79701" stroke-linecap="butt" stroke-miterlimit="10" stroke-linejoin="miter" fill="none" stroke="#0000cc" d="M51.02435 0 50.95038 2.71486 50.73393 5.42271 50.37346 8.11502 49.86974 10.78473 49.22429 13.42409 48.44028 16.0245 47.51845 18.57977 46.46191 21.08209 45.27382 23.52525 43.95728 25.90224 42.51692 28.20447 40.95667 30.42805 39.27806 32.56445 37.48969 34.60898 35.59387 36.55463 33.59918 38.39827 31.50716 40.13216 29.32716 41.75237 27.06386 43.25421 24.72346 44.63306 22.31224 45.88501 19.83795 47.0077 17.30836 47.99725 14.72897 48.84903 12.10753 49.56453 9.45338 50.13834 6.77199 50.57043 4.07036 50.85852 1.35703 51.00333H-1.35782L-4.07036 50.85852-6.77121 50.57043-9.45259 50.13834-12.10753 49.5653-14.72897 48.84981-17.30836 47.99725-19.83795 47.0077-22.31224 45.88501-24.72346 44.63306-27.06306 43.25421-29.32716 41.75157-31.50716 40.13138-33.59918 38.39827-35.59387 36.5554-37.4889 34.60898-39.27728 32.56445-40.9551 30.42805-42.51692 28.20447-43.95728 25.90224-45.27382 23.52525-46.46191 21.08209-47.51845 18.57977-48.44028 16.0245-49.22429 13.42331-49.86894 10.78473-50.3727 8.1158-50.73393 5.42271-50.95038 2.71486-50.89815 4.66054"/>
<path transform="matrix(-.026901614,.99959,.99964997,.0269,33.753065,71.80644)" d="M4.66248 0C3.28098 .25902 1.0361 1.0361-.51805 1.94269V-1.94269C1.0361-1.0361 3.28098-.25902 4.66248 0" fill="#0000cc"/>
<path transform="matrix(1.00006,0,0,-1,84.65424,76.466999)" stroke-width=".79701" stroke-linecap="butt" stroke-miterlimit="10" stroke-linejoin="miter" fill="none" stroke="#ff0000" d="M36.0797 36.0797 38.76941 33.43607"/>
<path transform="matrix(-.71319279,-.70093,-.700972,.71315,123.42599,43.030946)" d="M4.66248 0C3.28098 .25902 1.0361 1.0361-.51805 1.94269V-1.94269C1.0361-1.0361 3.28098-.25902 4.66248 0" fill="#ff0000"/>
<path transform="matrix(1.00006,0,0,-1,84.65424,76.466999)" stroke-width=".79701" stroke-linecap="butt" stroke-miterlimit="10" stroke-linejoin="miter" fill="none" stroke="#ff0000" d="M-36.0797 36.0797-33.43607 38.76941"/>
<path transform="matrix(-.700972,.71315,.71319279,.70093,51.216188,37.697576)" d="M4.66248 0C3.28098 .25902 1.0361 1.0361-.51805 1.94269V-1.94269C1.0361-1.0361 3.28098-.25902 4.66248 0" fill="#ff0000"/>
<use data-text="C" xlink:href="#font_1_2" transform="matrix(9.963197,0,0,-9.9626,98.814098,28.758996)" fill="#000099"/>
<path transform="matrix(1.00006,0,0,-1,84.65424,76.466999)" d="M1.49442 0C1.49442 .82533 .82533 1.49442 0 1.49442-.82533 1.49442-1.49442 .82533-1.49442 0-1.49442-.82533-.82533-1.49442 0-1.49442 .82533-1.49442 1.49442-.82533 1.49442 0ZM0 0"/>
<use data-text="(" xlink:href="#font_2_1" transform="matrix(9.963197,0,0,-9.9626,58.993707,87.459)"/>
<use data-text="0" xlink:href="#font_2_3" transform="matrix(9.963197,0,0,-9.9626,62.85943,87.459)"/>
<use data-text="," xlink:href="#font_1_1" transform="matrix(9.963197,0,0,-9.9626,67.84922,87.459)"/>
<use data-text="0" xlink:href="#font_2_3" transform="matrix(9.963197,0,0,-9.9626,72.27749,87.459)"/>
<use data-text=")" xlink:href="#font_2_2" transform="matrix(9.963197,0,0,-9.9626,77.25907,87.459)"/>
<path transform="matrix(1.00006,0,0,-1,84.65424,76.466999)" d="M52.51877 0C52.51877 .82533 51.8497 1.49442 51.02435 1.49442 50.199 1.49442 49.52994 .82533 49.52994 0 49.52994-.82533 50.199-1.49442 51.02435-1.49442 51.8497-1.49442 52.51877-.82533 52.51877 0ZM51.02435 0"/>
<use data-text="(" xlink:href="#font_2_1" transform="matrix(9.963197,0,0,-9.9626,139.2015,87.459)"/>
<use data-text="1" xlink:href="#font_2_4" transform="matrix(9.963197,0,0,-9.9626,143.06723,87.459)"/>
<use data-text="," xlink:href="#font_1_1" transform="matrix(9.963197,0,0,-9.9626,148.05702,87.459)"/>
<use data-text="0" xlink:href="#font_2_3" transform="matrix(9.963197,0,0,-9.9626,152.48529,87.459)"/>
<use data-text=")" xlink:href="#font_2_2" transform="matrix(9.963197,0,0,-9.9626,157.46688,87.459)"/>
<path transform="matrix(1.00006,0,0,-1,84.65424,76.466999)" d="M-49.52994 0C-49.52994 .82533-50.199 1.49442-51.02435 1.49442-51.8497 1.49442-52.51877 .82533-52.51877 0-52.51877-.82533-51.8497-1.49442-51.02435-1.49442-50.199-1.49442-49.52994-.82533-49.52994 0ZM-51.02435 0"/>
<use data-text="(" xlink:href="#font_2_1" transform="matrix(9.963197,0,0,-9.9626,.21618653,87.459)"/>
<use data-text="&#x2212;" xlink:href="#font_3_1" transform="matrix(9.963197,0,0,-9.9626,4.0904085,87.459)"/>
<use data-text="1" xlink:href="#font_2_4" transform="matrix(9.963197,0,0,-9.9626,11.839859,87.459)"/>
<use data-text="," xlink:href="#font_1_1" transform="matrix(9.963197,0,0,-9.9626,16.821167,87.459)"/>
<use data-text="0" xlink:href="#font_2_3" transform="matrix(9.963197,0,0,-9.9626,21.24942,87.459)"/>
<use data-text=")" xlink:href="#font_2_2" transform="matrix(9.963197,0,0,-9.9626,26.231019,87.459)"/>
<path transform="matrix(1.00006,0,0,-1,84.65424,76.466999)" d="M1.49442 51.02435C1.49442 51.8497 .82533 52.51877 0 52.51877-.82533 52.51877-1.49442 51.8497-1.49442 51.02435-1.49442 50.199-.82533 49.52994 0 49.52994 .82533 49.52994 1.49442 50.199 1.49442 51.02435ZM0 51.02435"/>
<use data-text="(" xlink:href="#font_2_1" transform="matrix(9.963197,0,0,-9.9626,88.17445,19.431996)"/>
<use data-text="0" xlink:href="#font_2_3" transform="matrix(9.963197,0,0,-9.9626,92.04018,19.431996)"/>
<use data-text="," xlink:href="#font_1_1" transform="matrix(9.963197,0,0,-9.9626,97.02997,19.431996)"/>
<use data-text="1" xlink:href="#font_2_4" transform="matrix(9.963197,0,0,-9.9626,101.45824,19.431996)"/>
<use data-text=")" xlink:href="#font_2_2" transform="matrix(9.963197,0,0,-9.9626,106.43982,19.431996)"/>
</svg>
