<svg xmlns="http://www.w3.org/2000/svg" xmlns:xlink="http://www.w3.org/1999/xlink" xmlns:inkscape="http://www.inkscape.org/namespaces/inkscape" version="1.1" width="156" height="177" viewBox="0 0 156 177">
<defs>
<clipPath id="clip_1">
<path transform="matrix(1.00003,0,0,-1.00002,-42.10251,123.47516)" d="M238.13138-28.1343V105.30865L150.96932 171.87508 0 133.44297V0L87.16205-66.56642Z"/>
</clipPath>
<path id="font_2_1" d="M.20599365 .3996582H.2999878C.31999208 .3996582 .32998658 .3996582 .32998658 .41966249 .32998658 .43066407 .31999208 .43066407 .3019867 .43066407H.21398926C.25 .5724945 .25498963 .59246829 .25498963 .59846499 .25498963 .61546328 .24299622 .62545779 .22599793 .62545779 .22299195 .62545779 .19499207 .62446597 .18598938 .58947756L.14698792 .43066407H.052993776C.032989503 .43066407 .022994996 .43066407 .022994996 .4116516 .022994996 .3996582 .0309906 .3996582 .050994874 .3996582H.13899231C.066986087 .11608887 .06298828 .099121097 .06298828 .08114624 .06298828 .02722168 .100997928-.0107421879 .15499878-.0107421879 .25698854-.0107421879 .31399537 .13505554 .31399537 .14305115 .31399537 .1530304 .30599977 .1530304 .3019867 .1530304 .29299928 .1530304 .2919922 .15003968 .2869873 .13905335 .24398804 .035217287 .19099427 .011245728 .15699768 .011245728 .13598633 .011245728 .12599182 .024230957 .12599182 .057174684 .12599182 .08114624 .12799073 .088134769 .13198853 .10510254L.20599365 .3996582Z"/>
<path id="font_3_4" d="M.68699648 .32714845C.70199587 .32714845 .72099307 .32714845 .72099307 .34713746 .72099307 .36714173 .70199587 .36714173 .6879883 .36714173H.08898926C.07499695 .36714173 .055999757 .36714173 .055999757 .34713746 .055999757 .32714845 .07499695 .32714845 .08999634 .32714845H.68699648M.6879883 .13284302C.70199587 .13284302 .72099307 .13284302 .72099307 .15284729 .72099307 .17285156 .70199587 .17285156 .68699648 .17285156H.08999634C.07499695 .17285156 .055999757 .17285156 .055999757 .15284729 .055999757 .13284302 .07499695 .13284302 .08898926 .13284302H.6879883Z"/>
<path id="font_3_3" d="M.45999146 .31976319C.45999146 .39982606 .45498658 .47988893 .41999818 .5539398 .37399293 .65000918 .2919922 .6660156 .25 .6660156 .18998719 .6660156 .116989139 .64001467 .07598877 .54693606 .04399109 .47789 .038986207 .39982606 .038986207 .31976319 .038986207 .24472046 .042999269 .15464783 .083999637 .07859802 .1269989-.0024719239 .19999695-.022460938 .24899292-.022460938 .30299378-.022460938 .3789978-.0014648438 .4229889 .09359741 .45498658 .16265869 .45999146 .2407074 .45999146 .31976319M.24899292-.00047302247C.20999146-.00047302247 .15098572 .024551392 .1329956 .12062073 .12199402 .18066406 .12199402 .2727356 .12199402 .3317871 .12199402 .39582826 .12199402 .46188355 .12998963 .5159149 .14898682 .63500979 .22399903 .64401248 .24899292 .64401248 .28199769 .64401248 .34799195 .6259918 .36698915 .52693179 .3769989 .47088624 .3769989 .39482118 .3769989 .3317871 .3769989 .25672914 .3769989 .18867493 .3659973 .12461853 .35099793 .029556275 .2939911-.00047302247 .24899292-.00047302247Z"/>
<path id="font_4_1" d="M.20298767 .3371582V.4501953L.036987306 .44218446V.39518739C.09899902 .39518739 .10598755 .39518739 .10598755 .35617066V.04699707H.036987306V0C.07199097 .0009918213 .116989139 .0029907227 .16299439 .0029907227 .20098877 .0029907227 .2649994 .0029907227 .30099488 0V.04699707H.21398926V.22209168C.21398926 .2921753 .23899842 .41418458 .33898927 .41418458 .33799745 .41319276 .31999208 .39718629 .31999208 .36819459 .31999208 .3271942 .35198976 .30718995 .3809967 .30718995 .4099884 .30718995 .44198609 .32818605 .44198609 .36819459 .44198609 .42118836 .3880005 .4501953 .33599855 .4501953 .2659912 .4501953 .22599793 .40019227 .20298767 .3371582Z"/>
<path id="font_3_1" d="M.33099366-.2400055C.33099366-.23701477 .33099366-.23500061 .31399537-.21800232 .18899536-.0920105 .15699768 .09700012 .15699768 .25 .15699768 .42399598 .19499207 .59799197 .31799317 .72299197 .33099366 .73498538 .33099366 .7369995 .33099366 .73999026 .33099366 .746994 .32699586 .75 .32099916 .75 .31098939 .75 .22099304 .6819916 .1619873 .5549927 .11099243 .44499208 .09899902 .33399964 .09899902 .25 .09899902 .17199707 .10998535 .050994874 .16499329-.06201172 .22499085-.18501282 .31098939-.25 .32099916-.25 .32699586-.25 .33099366-.24700928 .33099366-.2400055Z"/>
<path id="font_3_2" d="M.2889862 .25C.2889862 .32798768 .27799989 .44898988 .22299195 .56199648 .16299439 .68499758 .07699585 .75 .066986087 .75 .06098938 .75 .056991579 .74598696 .056991579 .73999026 .056991579 .7369995 .056991579 .73498538 .07598877 .71699526 .17399597 .6179962 .23098755 .45899964 .23098755 .25 .23098755 .07899475 .19400025-.09700012 .069992069-.2230072 .056991579-.23500061 .056991579-.23701477 .056991579-.2400055 .056991579-.2460022 .06098938-.25 .066986087-.25 .07699585-.25 .16699219-.18200684 .22599793-.055007936 .2769928 .054992677 .2889862 .16600037 .2889862 .25Z"/>
<path id="font_2_2" d="M.33399964 .30233766C.33999635 .32835389 .36299134 .42037965 .43299867 .42037965 .43798829 .42037965 .46199037 .42037965 .48298646 .40734864 .45498658 .402359 .43499757 .37734986 .43499757 .35334779 .43499757 .33735658 .44599916 .31835938 .47299195 .31835938 .49499513 .31835938 .5269928 .3363495 .5269928 .37635804 .5269928 .42837525 .46798707 .4423828 .43399049 .4423828 .37599183 .4423828 .34098817 .38935853 .32899476 .36634828 .3039856 .43237306 .25 .4423828 .22099304 .4423828 .116989139 .4423828 .05999756 .3133545 .05999756 .28834535 .05999756 .27833558 .069992069 .27833558 .07199097 .27833558 .07998657 .27833558 .08299255 .28033448 .084991458 .28933717 .11898804 .39535523 .18499756 .42037965 .21899414 .42037965 .23799134 .42037965 .272995 .4113617 .272995 .35334779 .272995 .32235719 .2559967 .25532533 .21899414 .11528015 .20298767 .053268434 .16799927 .011245728 .12399292 .011245728 .117996219 .011245728 .09498596 .011245728 .07398987 .024276734 .09899902 .029266358 .12098694 .05027771 .12098694 .07827759 .12098694 .105270389 .09899902 .11328125 .083999637 .11328125 .053985597 .11328125 .0289917 .08728027 .0289917 .055267335 .0289917 .009246826 .07899475-.0107421879 .12298584-.0107421879 .18899536-.0107421879 .22499085 .059280397 .22799683 .0652771 .23999024 .028274537 .27598573-.0107421879 .33599855-.0107421879 .43899537-.0107421879 .49598695 .118270877 .49598695 .14328003 .49598695 .1532898 .4869995 .1532898 .48399354 .1532898 .47499085 .1532898 .47299195 .14929199 .47099305 .14228821 .43798829 .03527832 .36999513 .011245728 .33799745 .011245728 .29899598 .011245728 .2829895 .043273927 .2829895 .07727051 .2829895 .09927368 .2889862 .121276859 .2999878 .16529846L.33399964 .30233766Z"/>
<path id="font_2_3" d="M.48599244 .38136292C.48999024 .39537049 .48999024 .39736939 .48999024 .40437318 .48999024 .42237855 .47599793 .43138124 .46099855 .43138124 .45098878 .43138124 .43499757 .42536927 .42599488 .41036988 .42399598 .405365 .41600038 .37435914 .4119873 .35635377 .40499879 .33035279 .397995 .30334474 .3919983 .27633668L.34700013 .09628296C.34298707 .08126831 .2999878 .011245728 .23399353 .011245728 .18299866 .011245728 .17199707 .055267335 .17199707 .0922699 .17199707 .1382904 .18899536 .20030213 .22299195 .28833009 .23899842 .3293457 .24299622 .3403473 .24299622 .36035157 .24299622 .405365 .21099854 .4423828 .16099549 .4423828 .06599426 .4423828 .0289917 .29733277 .0289917 .28833009 .0289917 .27833558 .038986207 .27833558 .040985109 .27833558 .050994874 .27833558 .051986696 .28033448 .056991579 .29634095 .083999637 .3903656 .12399292 .42037965 .1579895 .42037965 .1659851 .42037965 .18299866 .42037965 .18299866 .3883667 .18299866 .36335755 .17298889 .3373413 .1659851 .31834413 .12599182 .21231079 .10798645 .1552887 .10798645 .10827637 .10798645 .019256592 .17098999-.0107421879 .22999573-.0107421879 .2689972-.0107421879 .30299378 .0062561037 .33099366 .03425598 .31799317-.017745972 .30599977-.06674194 .2659912-.11973572 .23999024-.15385437 .20199585-.18309021 .1559906-.18309021 .14199829-.18309021 .09700012-.18005371 .07998657-.14074707 .09599304-.14074707 .10899353-.14074707 .12298584-.1287384 .1329956-.11973572 .14299011-.10673523 .14299011-.08773804 .14299011-.056747438 .115997318-.052734376 .10598755-.052734376 .08299255-.052734376 .049987794-.068740848 .049987794-.11773682 .049987794-.16796875 .09399414-.20507813 .1559906-.20507813 .25898744-.20507813 .3619995-.11373901 .3899994-.00074768069L.48599244 .38136292Z"/>
<path id="font_2_4" d="M.1329956 .08345032C.18699646 .14138794 .21598816 .16636658 .2519989 .19732666 .2519989 .19833374 .31399537 .25128175 .34999085 .2872467 .44499208 .3803711 .46699525 .42837525 .46699525 .43237306 .46699525 .4423828 .45799256 .4423828 .45599366 .4423828 .44898988 .4423828 .44599916 .44036866 .44099427 .43138124 .41099549 .38337709 .3899994 .3671875 .3659973 .3671875 .34199525 .3671875 .32998658 .38237 .31498719 .3993683 .29599 .42237855 .2789917 .4423828 .24598694 .4423828 .17098999 .4423828 .125 .34918214 .125 .3282013 .125 .3231964 .12799073 .31721498 .13699341 .31721498 .1459961 .31721498 .147995 .3222046 .1499939 .3282013 .16899109 .37434388 .22698975 .37538148 .23498535 .37538148 .2559967 .37538148 .2749939 .36820985 .2979889 .36018373 .33799745 .34518434 .34899903 .34518434 .375 .34518434 .33898927 .30223084 .25498963 .2303009 .23599243 .21430969L.1459961 .13040161C.07798767 .06341553 .042999269 .0062561037 .042999269-.00074768069 .042999269-.0107421879 .052993776-.0107421879 .054992677-.0107421879 .06298828-.0107421879 .06498718-.008743286 .070999149 .002243042 .09399414 .037246705 .12399292 .064453128 .1559906 .064453128 .1789856 .064453128 .18899536 .055252077 .21398926 .026245118 .23098755 .0052490236 .24899292-.0107421879 .27799989-.0107421879 .3769989-.0107421879 .43499757 .1164093 .43499757 .14338684 .43499757 .14837647 .43099977 .15338135 .4229889 .15338135 .4139862 .15338135 .4119873 .14738465 .40899659 .14039612 .38598634 .07543945 .32199098 .056243898 .2889862 .056243898 .2689972 .056243898 .25099183 .06239319 .22999573 .06944275 .19599915 .08244324 .18099976 .08644104 .1599884 .08644104 .1579895 .08644104 .14199829 .08644104 .1329956 .08345032Z"/>
</defs>
<path transform="matrix(1.00003,0,0,-1.00002,-42.10251,123.47516)" stroke-width=".3985" stroke-linecap="butt" stroke-miterlimit="10" stroke-linejoin="miter" fill="none" stroke="#000000" d="M75.48465 19.21605 161.06325-46.1411"/>
<path transform="matrix(.7947339,.60691216,.6069182,-.7947259,118.965579,169.61719)" d="M1.99252 0-1.19551 1.59401 0 0-1.19551-1.59401"/>
<path transform="matrix(1.00003,0,0,-1.00002,-42.10251,123.47516)" stroke-width=".3985" stroke-linecap="butt" stroke-miterlimit="10" stroke-linejoin="miter" fill="none" stroke="#000000" d="M43.58102-33.2832 192.61949 4.65741"/>
<path transform="matrix(.9690891,-.24667494,-.2466774,-.96907946,150.52277,118.817668)" d="M1.99252 0-1.19551 1.59401 0 0-1.19551-1.59401"/>
<path transform="matrix(1.00003,0,0,-1.00002,-42.10251,123.47516)" stroke-width=".3985" stroke-linecap="butt" stroke-miterlimit="10" stroke-linejoin="miter" fill="none" stroke="#000000" d="M119.06569-14.06714V117.38329"/>
<path transform="matrix(0,-1.00002,-1.00003,-0,76.96676,6.0895159)" d="M1.99252 0-1.19551 1.59401 0 0-1.19551-1.59401"/>
<g clip-path="url(#clip_1)">
<path transform="matrix(1.00003,0,0,-1.00002,-42.10251,123.47516)" stroke-width=".3985" stroke-linecap="butt" stroke-dasharray="2.98883,2.98883" stroke-miterlimit="10" stroke-linejoin="miter" fill="none" stroke="#bfbfbf" d="M148.1197-36.25595 158.04932-31.18082 166.23842-25.25708 172.31623-18.66434 176.01422-11.61353 177.16584-4.33524 175.7204 2.92952 171.74216 9.94005 165.40868 16.46638 157.00019 22.30177 146.89737 27.26918 135.54924 31.23166 123.46478 34.09525 111.18326 35.81694 99.25435 36.40387 88.21352 35.91338 78.54997 34.45251 70.69836 32.16951 65.00974 29.25224 61.73743 25.91525 61.02776 22.39157 62.91373 18.92244 67.31036 15.74812 74.02087 13.09563 82.74716 11.16609 93.09647 10.13077 104.60645 10.1199 116.76334 11.21837 129.0234 13.4617 140.83827 16.83368 151.67777 21.26828 161.06026 26.65056 168.5652 32.82469 173.8571 39.599 176.7 46.75403 176.96445 54.055 174.64124 61.25992 169.83293 68.12955 162.75257 74.4418 153.72068 79.99896 143.13945 84.63687 131.48099 88.23221 119.26746 90.70908 107.04541 92.04002 95.36002 92.2493 84.73561 91.41364 75.64629 89.65309 68.49754 87.131 63.61023 84.04558 61.20288 80.61778 61.3811 77.08525 64.13924 73.69054 69.35445 70.67043 76.79135 68.24313 86.11865 66.60118 96.91937 65.90266 108.71063 66.26367 120.96523 67.7518 133.13352 70.3845 144.67267 74.12946"/>
<path transform="matrix(1.00003,0,0,-1.00002,-42.10251,123.47516)" stroke-width="1.59404" stroke-linecap="butt" stroke-miterlimit="10" stroke-linejoin="miter" fill="none" stroke="#0000ff" d="M148.1197-36.25595C148.1197-36.25595 151.86687-34.55336 153.2341-33.8556 154.60134-33.15785 156.71805-31.98543 157.9738-31.22699 159.22954-30.46854 161.15454-29.20296 162.28464-28.38924 163.41474-27.5755 165.12677-26.22516 166.11879-25.36214 167.11081-24.49911 168.59156-23.0746 169.43444-22.16914 170.27732-21.26369 171.50917-19.77702 172.19367-18.83614 172.87818-17.89526 173.84918-16.35672 174.36788-15.3879 174.88657-14.41907 175.58489-12.84227 175.9321-11.85347 176.27931-10.86469 176.69843-9.26212 176.8704-8.26128 177.04239-7.26044 177.17723-5.6449 177.17166-4.64012 177.16609-3.63535 177.01291-2.01994 176.83022-1.01955 176.6475-.01915 176.21266 1.58226 175.8549 2.57011 175.49713 3.55797 174.78105 5.1329 174.2517 6.10022 173.72235 7.06755 172.73412 8.60304 172.03963 9.5419 171.34514 10.48076 170.09835 11.96399 169.24623 12.86696 168.39412 13.76993 166.89897 15.18985 165.89813 16.04993 164.8973 16.90999 163.17107 18.25519 162.03285 19.06573 160.89463 19.8763 158.95743 21.13696 157.69458 21.89189 156.43175 22.64682 154.30489 23.81311 152.93106 24.50684 151.55722 25.20058 149.26244 26.26404 147.79294 26.89183 146.32344 27.51964 143.889 28.47366 142.33994 29.03156 140.79085 29.58946 138.23966 30.42819 136.62816 30.91283 135.01665 31.39745 132.38147 32.11554 130.7253 32.52443 129.06914 32.93332 126.3743 33.52832 124.6916 33.85985 123.00891 34.19138 120.28795 34.66064 118.59755 34.91394 116.90715 35.16724 114.18822 35.51038 112.50836 35.68553 110.82849 35.86069 108.1407 36.07838 106.49019 36.17638 104.83968 36.27437 102.21562 36.36926 100.61258 36.39183 99.00955 36.41438 96.4745 36.3892 94.93655 36.33904 93.39862 36.28885 90.98383 36.14966 89.52815 36.0301 88.07248 35.91057 85.80264 35.66228 84.44502 35.4774 83.08739 35.29251 80.9879 34.94264 79.74321 34.69751 78.49854 34.45238 76.592 34.0105 75.47415 33.71059 74.35631 33.41069 72.66512 32.88445 71.68652 32.53592 70.70792 32.1874 69.24988 31.58897 68.4211 31.19862 67.59232 30.80826 66.38303 30.14766 65.71323 29.72249 65.04343 29.29732 64.09673 28.58662 63.59361 28.13428 63.09048 27.68193 62.41812 26.93391 62.08704 26.46223 61.75595 25.99054 61.36304 25.21753 61.20734 24.73463 61.05164 24.25172 60.94304 23.46774 60.96478 22.9817 60.98651 22.49567 61.16513 21.71248 61.36409 21.23152 61.56303 20.75055 62.02492 19.98286 62.39867 19.51521 62.77243 19.04756 63.51323 18.30727 64.05795 17.86092 64.60268 17.41457 65.61523 16.71553 66.32463 16.29826 67.03403 15.881 68.30472 15.23424 69.1709 14.85353 70.03708 14.47281 71.5537 13.89131 72.56749 13.55421 73.58128 13.2171 75.32748 12.71092 76.47765 12.42381 77.62782 12.13669 79.58347 11.71567 80.85718 11.4848 82.13089 11.25392 84.27434 10.92905 85.6577 10.75974 87.04106 10.59044 89.35002 10.3676 90.82758 10.26453 92.30513 10.16144 94.75146 10.04932 96.3069 10.01671 97.86234 9.9841 100.42186 9.98857 102.03816 10.02948 103.65446 10.07039 106.2967 10.19489 107.95612 10.31166 109.61551 10.42844 112.3137 10.67699 113.99799 10.87123 115.68228 11.06548 118.40492 11.4393 120.09532 11.71179 121.78572 11.98428 124.5032 12.48453 126.18121 12.83522 127.85922 13.18591 130.54238 13.81177 132.18933 14.23944 133.83628 14.66711 136.45357 15.41481 138.05132 15.9177 139.64907 16.42058 142.17374 17.28848 143.70476 17.86386 145.23577 18.43925 147.63845 19.42029 149.08585 20.06464 150.53324 20.709 152.78879 21.79865 154.13661 22.50795 155.48444 23.21725 157.56644 24.4078 158.8 25.1769 160.03359 25.946 161.9219 27.22795 163.02748 28.05116 164.13306 28.87439 165.80312 30.2388 166.7683 31.11008 167.73348 31.98137 169.16933 33.41829 169.98381 34.33084 170.79831 35.24341 171.98386 36.74063 172.6386 37.68724 173.29335 38.63387 174.21527 40.1803 174.70287 41.1534 175.19045 42.12648 175.83779 43.70908 176.15287 44.70073 176.46793 45.69238 176.83454 47.29845 176.97376 48.30061 177.11296 49.3028 177.19454 50.9192 177.15628 51.92378 177.11801 52.92836 176.91307 54.54224 176.69789 55.54094 176.48271 56.53963 175.99494 58.13708 175.60533 59.12175 175.21572 60.10641 174.44998 61.6751 173.88976 62.63776 173.32953 63.60042 172.2919 65.12721 171.56761 66.05998 170.8433 66.99274 169.54975 68.46494 168.66951 69.36049 167.78929 70.25606 166.25029 71.66327 165.22354 72.51468 164.19681 73.36607 162.43137 74.69614 161.26938 75.49689 160.10738 76.29765 158.13312 77.54204 156.84867 78.28609 155.56423 79.03015 153.40457 80.17769 152.0119 80.85963 150.61923 81.54158 148.29674 82.5859 146.81125 83.20117 145.32576 83.81642 142.86727 84.74945 141.3055 85.29407 139.74375 85.83868 137.17604 86.65553 135.55507 87.1264 133.9341 87.59729 131.28507 88.29317 129.62259 88.6879 127.96013 89.08261 125.25867 89.65422 123.57306 89.97133 121.88745 90.28845 119.16379 90.73465 117.47385 90.97353 115.7839 91.2124 113.06879 91.53224 111.39302 91.6931 109.71725 91.85394 107.03937 92.0489 105.39612 92.13289 103.75285 92.21687 101.14201 92.28958 99.54953 92.29852 97.95705 92.30748 95.44241 92.26068 93.91861 92.19743 92.3948 92.1342 90.00563 91.97452 88.56694 91.84264 87.12827 91.71075 84.88742 91.44318 83.54953 91.24689 82.21165 91.0506 80.14682 90.6836 78.92441 90.42792 77.702 90.17223 75.83252 89.71347 74.73926 89.40408 73.646 89.09471 71.99672 88.55486 71.04489 88.19814 70.09306 87.8414 68.67915 87.23029 67.87907 86.83295 67.079 86.43561 65.91797 85.76509 65.2784 85.3344 64.63882 84.90372 63.7413 84.18526 63.26944 83.72879 62.79759 83.27234 62.17667 82.51889 61.87752 82.0445 61.57837 81.5701 61.2365 80.79381 61.11337 80.30963 60.99025 79.82544 60.93555 79.04054 60.99004 78.5548 61.04454 78.06903 61.27492 77.28769 61.50621 76.8086 61.7375 76.3295 62.25166 75.5662 62.65717 75.10182 63.06267 74.63745 63.85329 73.90321 64.42882 73.46164 65.00435 73.02007 66.06624 72.33015 66.8052 71.91919 67.54417 71.50821 68.86063 70.8728 69.75479 70.49957 70.64896 70.12636 72.21013 69.55765 73.24977 69.22916 74.2894 68.90068 76.07396 68.40926 77.24782 68.13206 78.42166 67.85487 80.41495 67.4512 81.71013 67.2313 83.00531 67.01138 85.1809 66.70445 86.58264 66.54704 87.9844 66.38965 90.31982 66.18713 91.81305 66.09683 93.30629 66.00652 95.7767 65.91539 97.34482 65.89607 98.91293 65.87675 101.4894 65.9028 103.115 65.9575 104.74063 66.01219 107.39578 66.15935 109.06122 66.29036 110.72665 66.42137 113.43166 66.69312 115.11842 66.90175 116.80519 67.1104 119.52892 67.50726 121.21834 67.79416 122.90775 68.08105 125.62096 68.60457 127.29456 68.96954 128.96814 69.33452 131.64109 69.98291 133.28038 70.4246 134.91967 70.8663 137.52275 71.63669 139.1095 72.15306 140.69625 72.66945 144.71668 74.14632 144.71668 74.14632"/>
<path transform="matrix(1.00003,0,0,-1.00002,-42.10251,123.47516)" d="M150.23316-36.25595C150.23316-35.08873 149.28693-34.14252 148.1197-34.14252 146.95249-34.14252 146.00627-35.08873 146.00627-36.25595 146.00627-37.42317 146.95249-38.36938 148.1197-38.36938 149.28693-38.36938 150.23316-37.42317 150.23316-36.25595ZM148.1197-36.25595" fill="#0000ff"/>
<use data-text="t" xlink:href="#font_2_1" transform="matrix(9.962899,0,0,-9.962799,111.5341,162.94196)"/>
<use data-text="=" xlink:href="#font_3_4" transform="matrix(9.962899,0,0,-9.962799,117.89929,162.94297)"/>
<use data-text="0" xlink:href="#font_3_3" transform="matrix(9.962899,0,0,-9.962799,128.4002,162.94297)"/>
<path transform="matrix(1.00003,0,0,-1.00002,-42.10251,123.47516)" d="M146.83113 74.14673C146.83113 75.31395 145.88492 76.26016 144.71768 76.26016 143.55046 76.26016 142.60425 75.31395 142.60425 74.14673 142.60425 72.9795 143.55046 72.0333 144.71768 72.0333 145.88492 72.0333 146.83113 72.9795 146.83113 74.14673ZM144.71768 74.14673" fill="#0000ff"/>
<use data-text="r" xlink:href="#font_4_1" transform="matrix(9.962899,0,0,-9.962799,108.132,43.31656)"/>
<use data-text="(" xlink:href="#font_3_1" transform="matrix(9.962899,0,0,-9.962799,112.85015,43.317567)"/>
<use data-text="t" xlink:href="#font_2_1" transform="matrix(9.962899,0,0,-9.962799,116.724269,43.31656)"/>
<use data-text=")" xlink:href="#font_3_2" transform="matrix(9.962899,0,0,-9.962799,120.32237,43.317567)"/>
</g>
<use data-text="x" xlink:href="#font_2_2" transform="matrix(9.962899,0,0,-9.962799,109.75806,175.08919)"/>
<use data-text="y" xlink:href="#font_2_3" transform="matrix(9.962899,0,0,-9.962799,149.61325,126.08821)"/>
<use data-text="z" xlink:href="#font_2_4" transform="matrix(9.962899,0,0,-9.962799,69.70385,6.3528139)"/>
</svg>
