<svg xmlns="http://www.w3.org/2000/svg" xmlns:xlink="http://www.w3.org/1999/xlink" xmlns:inkscape="http://www.inkscape.org/namespaces/inkscape" version="1.1" width="380" height="77" viewBox="0 0 380 77">
<defs>
<path id="font_1_74" d="M.8789978 0V.0309906H.8549957C.7779999 .0309906 .776001 .041992189 .776001 .07795715V.6046295C.776001 .64060977 .7779999 .6516113 .8549957 .6516113H.8789978V.6826172H.70999148C.6839905 .6826172 .6839905 .6816101 .6769867 .66360476L.45799256 .10095215 .24099732 .660614C.23199463 .6826172 .22898865 .6826172 .20599365 .6826172H.036987306V.6516113H.06098938C.13798523 .6516113 .13999939 .64060977 .13999939 .6046295V.10494995C.13999939 .07795715 .13999939 .0309906 .036987306 .0309906V0L.1539917 .0029907227 .2709961 0V.0309906C.16799927 .0309906 .16799927 .07795715 .16799927 .10494995V.6436157H.16899109L.4099884 .021987915C.4149933 .008987427 .41999818 0 .42999269 0 .44099427 0 .44400025 .0079956059 .44799806 .018997193L.69400027 .6516113H.69499209V.07795715C.69499209 .041992189 .69299319 .0309906 .6159973 .0309906H.59199526V0C.6289978 .0029907227 .69699099 .0029907227 .73599246 .0029907227 .7749939 .0029907227 .84199526 .0029907227 .8789978 0Z"/>
<path id="font_1_66" d="M.24699402 0V.0309906C.18099976 .0309906 .1769867 .035995485 .1769867 .075042728V.4423828L.036987306 .43066407V.3996582C.101989749 .3996582 .11099243 .3936615 .11099243 .3447113V.07595825C.11099243 .0309906 .099990848 .0309906 .032989503 .0309906V0L.14299011 .0029907227C.17799378 .0029907227 .21299744 .0009918213 .24699402 0M.19198609 .603775C.19198609 .6307678 .16899109 .6567688 .13899231 .6567688 .10499573 .6567688 .084991458 .6287689 .084991458 .603775 .084991458 .57676699 .10798645 .55078127 .13798523 .55078127 .17199707 .55078127 .19198609 .5787811 .19198609 .603775Z"/>
<path id="font_1_72" d="M.25498963 0V.0309906C.18798828 .0309906 .1769867 .0309906 .1769867 .07601929V.69433596L.032989503 .6826172V.6516113C.102996829 .6516113 .11099243 .64460757 .11099243 .5956421V.07595825C.11099243 .0309906 .099990848 .0309906 .032989503 .0309906V0L.14399719 .0029907227 .25498963 0Z"/>
<path id="font_1_50" d="M.4149933 .11933899C.4149933 .12934876 .40699769 .13134766 .4019928 .13134766 .3929901 .13134766 .3909912 .12535095 .3889923 .11734009 .35398866 .014251709 .2639923 .014251709 .2539978 .014251709 .20399475 .014251709 .1639862 .044281007 .14099121 .08131409 .11099243 .12934876 .11099243 .19540406 .11099243 .23144531H.3899994C.4119873 .23144531 .4149933 .23144531 .4149933 .2524414 .4149933 .35131837 .36099244 .4482422 .23599243 .4482422 .11999512 .4482422 .027999878 .34532167 .027999878 .22042847 .027999878 .08631897 .1329956-.0107421879 .24798584-.0107421879 .36999513-.0107421879 .4149933 .10032654 .4149933 .11933899M.34899903 .2524414H.11199951C.117996219 .40126039 .20199585 .426239 .23599243 .426239 .33898927 .426239 .34899903 .2913971 .34899903 .2524414Z"/>
<path id="font_1_98" d="M.3600006 .12823487C.3600006 .18122864 .32998658 .21122742 .31799317 .22323609 .2849884 .25523377 .24598694 .26322938 .20399475 .27124024 .147995 .28224183 .08099365 .29522706 .08099365 .35324098 .08099365 .38822938 .10699463 .42922975 .19299317 .42922975 .30299378 .42922975 .30799867 .3392334 .30999757 .30822755 .31098939 .2992401 .32199098 .2992401 .32199098 .2992401 .33499146 .2992401 .33499146 .30422975 .33499146 .32322694V.4242401C.33499146 .4412384 .33499146 .4482422 .32398988 .4482422 .31900025 .4482422 .31698609 .4482422 .3039856 .43623353 .30099488 .43223573 .29100038 .42323304 .2869873 .42022706 .24899292 .4482422 .20799256 .4482422 .19299317 .4482422 .070999149 .4482422 .032989503 .38124085 .032989503 .3252411 .032989503 .29023744 .04899597 .26223756 .07598877 .24023438 .10798645 .2142334 .13598633 .2082367 .20799256 .19422913 .22999573 .19021607 .31199647 .17422486 .31199647 .10221863 .31199647 .051223756 .2769928 .011245728 .19898987 .011245728 .114990238 .011245728 .07899475 .068222049 .05999756 .1532135 .056991579 .16621399 .055999757 .17021179 .04598999 .17021179 .032989503 .17021179 .032989503 .16322327 .032989503 .1452179V.013214111C.032989503-.003753662 .032989503-.0107421879 .04399109-.0107421879 .04899597-.0107421879 .049987794-.009750366 .068984989 .009246826 .070999149 .011245728 .070999149 .013214111 .08898926 .032226564 .1329956-.009750366 .17799378-.0107421879 .19898987-.0107421879 .31399537-.0107421879 .3600006 .05621338 .3600006 .1282196V.12823487Z"/>
<path id="font_1_121" d="M.45999146 .31976319C.45999146 .39982606 .45498658 .47988893 .41999818 .5539398 .37399293 .65000918 .2919922 .6660156 .25 .6660156 .18998719 .6660156 .116989139 .64001467 .07598877 .54693606 .04399109 .47789 .038986207 .39982606 .038986207 .31976319 .038986207 .24472046 .042999269 .15464783 .083999637 .07859802 .1269989-.0024719239 .19999695-.022460938 .24899292-.022460938 .30299378-.022460938 .3789978-.0014648438 .4229889 .09359741 .45498658 .16265869 .45999146 .2407074 .45999146 .31976319M.3769989 .3317871C.3769989 .25672914 .3769989 .18867493 .3659973 .12461853 .35099793 .029556275 .2939911-.00047302247 .24899292-.00047302247 .20999146-.00047302247 .15098572 .024551392 .1329956 .12062073 .12199402 .18066406 .12199402 .2727356 .12199402 .3317871 .12199402 .39582826 .12199402 .46188355 .12998963 .5159149 .14898682 .63500979 .22399903 .64401248 .24899292 .64401248 .28199769 .64401248 .34799195 .6259918 .36698915 .52693179 .3769989 .47088624 .3769989 .39482118 .3769989 .3317871Z"/>
<path id="font_1_56" d="M.44898988 .20091248C.44898988 .31991578 .36698915 .41992188 .25898744 .41992188 .21099854 .41992188 .16799927 .4039154 .13198853 .36891175V.5641022C.1519928 .55778506 .18499756 .55078127 .21699524 .55078127 .33999635 .55078127 .4099884 .6418457 .4099884 .65493777 .4099884 .6609802 .40699769 .6660156 .3999939 .6660156 .3999939 .66607668 .39698792 .66607668 .3919983 .66308596 .37199403 .65408328 .32299806 .63378909 .2559967 .63378909 .21598816 .63409426 .16999817 .641098 .12298584 .6621094 .114990238 .6651001 .11099243 .6651001 .11099243 .6651001 .100997928 .66508486 .100997928 .657074 .100997928 .64108279V.3447113C.100997928 .3266449 .100997928 .31861878 .114990238 .31861878 .12199402 .31861878 .12399292 .32164 .12799073 .32765199 .13899231 .34371949 .17599488 .3979187 .25698854 .3979187 .30899049 .3979187 .33399964 .3517456 .34199525 .3336792 .35798646 .2965393 .3600006 .2574005 .3600006 .20721436 .3600006 .17218018 .3600006 .112197879 .33599855 .07032776 .31199647 .031448366 .2749939 .0055389406 .22898865 .0055389406 .1559906 .0055389406 .09899902 .05836487 .08198547 .1171875 .084991458 .11685181 .08799744 .115859989 .09899902 .115859989 .13198853 .115859989 .14898682 .14085388 .14898682 .16485596 .14898682 .18885803 .13198853 .21386719 .09899902 .21386719 .084991458 .21386719 .049987794 .2068634 .049987794 .16085816 .049987794 .07432556 .11898804-.022460938 .23098755-.022460938 .34700013-.022460938 .44898988 .07331848 .44898988 .20019531V.20091248Z"/>
<path id="font_1_82" d="M.4189911 0V.0309906H.3869934C.29699708 .0309906 .2939911 .041992189 .2939911 .07902527V.64012148C.2939911 .6640167 .2939911 .6660156 .2709961 .6660156 .20899964 .60227969 .12098694 .60227969 .08898926 .60227969V.57128909C.10899353 .57128909 .16799927 .57128909 .21998596 .5972748V.07902527C.21998596 .042999269 .21699524 .0309906 .1269989 .0309906H.09498596V0C.12998963 .0029907227 .21699524 .0029907227 .25698854 .0029907227 .29699708 .0029907227 .38398744 .0029907227 .4189911 0Z"/>
<path id="font_1_40" d="M.25498963-.25V-.21000672H.1579895V.70999148H.25498963V.75H.117996219V-.25H.25498963Z"/>
<path id="font_1_45" d="M.20298767 .0009918213C.20298767 .06498718 .1789856 .10598755 .13899231 .10598755 .10398865 .10598755 .085998538 .07899475 .085998538 .052993776 .085998538 .026992798 .102996829 0 .13899231 0 .1539917 0 .16799927 .005996704 .1789856 .015991211 .18099976-.06312561 .15299988-.12423706 .10899353-.17132569 .102996829-.17733765 .101989749-.17834473 .101989749-.18234253 .101989749-.18936157 .10699463-.19335938 .11199951-.19335938 .12399292-.19335938 .20298767-.114227298 .20298767 .0009918213Z"/>
<path id="font_1_86" d="M.2889862 .25C.2889862 .32798768 .27799989 .44898988 .22299195 .56199648 .16299439 .68499758 .07699585 .75 .066986087 .75 .06098938 .75 .056991579 .74598696 .056991579 .73999026 .056991579 .7369995 .056991579 .7350006 .07598877 .71699526 .17399597 .6179962 .23098755 .45899964 .23098755 .25 .23098755 .07899475 .19400025-.09700012 .069992069-.2230072 .056991579-.23500061 .056991579-.23701477 .056991579-.2400055 .056991579-.2460022 .06098938-.25 .066986087-.25 .07699585-.25 .16699219-.18200684 .22599793-.055007936 .2769928 .054992677 .2889862 .16600037 .2889862 .25Z"/>
</defs>
<path transform="matrix(1.00002,0,0,-1.00002,11.924889,62.175985)" stroke-width=".79701" stroke-linecap="butt" stroke-miterlimit="10" stroke-linejoin="miter" fill="none" stroke="#000000" d="M-10.63004 0H339.45436"/>
<path transform="matrix(1.00002,0,0,-1.00002,351.38606,62.175985)" stroke-width=".6376" stroke-linecap="round" stroke-linejoin="round" fill="none" stroke="#000000" d="M-1.55415 2.0722C-1.42464 1.29512 0 .1295 .38852 0 0-.1295-1.42464-1.29512-1.55415-2.0722"/>
<use data-text="M" xlink:href="#font_1_74" transform="matrix(9.962799,0,0,-9.962799,355.8128,65.57805)"/>
<use data-text="i" xlink:href="#font_1_66" transform="matrix(9.962799,0,0,-9.962799,364.9487,65.57805)"/>
<use data-text="l" xlink:href="#font_1_72" transform="matrix(9.962799,0,0,-9.962799,367.71836,65.57805)"/>
<use data-text="e" xlink:href="#font_1_50" transform="matrix(9.962799,0,0,-9.962799,370.488,65.57805)"/>
<use data-text="s" xlink:href="#font_1_98" transform="matrix(9.962799,0,0,-9.962799,374.9115,65.57805)"/>
<path transform="matrix(1.00002,0,0,-1.00002,11.924889,62.175985)" stroke-width=".79701" stroke-linecap="butt" stroke-miterlimit="10" stroke-linejoin="miter" fill="none" stroke="#000000" d="M0 2.12613V-2.12613"/>
<use data-text="0" xlink:href="#font_1_121" transform="matrix(9.962799,0,0,-9.962799,9.433838,74.656238)"/>
<path transform="matrix(1.00002,0,0,-1.00002,11.924889,62.175985)" stroke-width=".79701" stroke-linecap="butt" stroke-miterlimit="10" stroke-linejoin="miter" fill="none" stroke="#000000" d="M106.30052 2.12613V-2.12613"/>
<use data-text="5" xlink:href="#font_1_56" transform="matrix(9.962799,0,0,-9.962799,115.73697,74.656238)"/>
<path transform="matrix(1.00002,0,0,-1.00002,11.924889,62.175985)" stroke-width=".79701" stroke-linecap="butt" stroke-miterlimit="10" stroke-linejoin="miter" fill="none" stroke="#000000" d="M212.60106 2.12613V-2.12613"/>
<use data-text="1" xlink:href="#font_1_82" transform="matrix(9.962799,0,0,-9.962799,219.54904,74.656238)"/>
<use data-text="0" xlink:href="#font_1_121" transform="matrix(9.962799,0,0,-9.962799,224.53046,74.656238)"/>
<path transform="matrix(1.00002,0,0,-1.00002,11.924889,62.175985)" stroke-width=".79701" stroke-linecap="butt" stroke-miterlimit="10" stroke-linejoin="miter" fill="none" stroke="#000000" d="M318.9016 2.12613V-2.12613"/>
<use data-text="1" xlink:href="#font_1_82" transform="matrix(9.962799,0,0,-9.962799,325.8512,74.656238)"/>
<use data-text="5" xlink:href="#font_1_56" transform="matrix(9.962799,0,0,-9.962799,330.83259,74.656238)"/>
<path transform="matrix(1.00002,0,0,-1.00002,11.924889,62.175985)" stroke-width="1.19553" stroke-linecap="butt" stroke-miterlimit="10" stroke-linejoin="miter" fill="none" stroke="#0000ff" d="M0 10.63004H102.47385"/>
<path transform="matrix(1.00002,0,0,-1.00002,11.924889,62.175985)" d="M2.24162 10.63004C2.24162 11.86806 1.238 12.87166 0 12.87166-1.238 12.87166-2.24162 11.86806-2.24162 10.63004-2.24162 9.39201-1.238 8.38841 0 8.38841 1.238 8.38841 2.24162 9.39201 2.24162 10.63004ZM0 10.63004" fill="#0000ff"/>
<path transform="matrix(1.00002,0,0,-1.00002,11.924889,62.175985)" d="M108.54214 10.63004C108.54214 11.86806 107.53854 12.87166 106.30052 12.87166 105.0625 12.87166 104.0589 11.86806 104.0589 10.63004 104.0589 9.39201 105.0625 8.38841 106.30052 8.38841 107.53854 8.38841 108.54214 9.39201 108.54214 10.63004ZM106.30052 10.63004" fill="#ffffff"/>
<path transform="matrix(1.00002,0,0,-1.00002,11.924889,62.175985)" stroke-width=".79701" stroke-linecap="butt" stroke-miterlimit="10" stroke-linejoin="miter" fill="none" stroke="#0000ff" d="M108.54214 10.63004C108.54214 11.86806 107.53854 12.87166 106.30052 12.87166 105.0625 12.87166 104.0589 11.86806 104.0589 10.63004 104.0589 9.39201 105.0625 8.38841 106.30052 8.38841 107.53854 8.38841 108.54214 9.39201 108.54214 10.63004ZM106.30052 10.63004"/>
<use data-text="[" xlink:href="#font_1_40" transform="matrix(9.962799,0,0,-9.962799,53.728727,43.408609)" fill="#0000ff"/>
<use data-text="0" xlink:href="#font_1_121" transform="matrix(9.962799,0,0,-9.962799,56.49838,43.408609)" fill="#0000ff"/>
<use data-text="," xlink:href="#font_1_45" transform="matrix(9.962799,0,0,-9.962799,61.47978,43.408609)" fill="#0000ff"/>
<use data-text="5" xlink:href="#font_1_56" transform="matrix(9.962799,0,0,-9.962799,67.56705,43.408609)" fill="#0000ff"/>
<use data-text=")" xlink:href="#font_1_86" transform="matrix(9.962799,0,0,-9.962799,72.54845,43.408609)" fill="#0000ff"/>
<path transform="matrix(1.00002,0,0,-1.00002,11.924889,62.175985)" stroke-width="1.19553" stroke-linecap="butt" stroke-miterlimit="10" stroke-linejoin="miter" fill="none" stroke="#009900" d="M106.30052 27.6382H208.77439"/>
<path transform="matrix(1.00002,0,0,-1.00002,11.924889,62.175985)" d="M108.54214 27.6382C108.54214 28.8762 107.53854 29.87982 106.30052 29.87982 105.0625 29.87982 104.0589 28.8762 104.0589 27.6382 104.0589 26.40018 105.0625 25.39658 106.30052 25.39658 107.53854 25.39658 108.54214 26.40018 108.54214 27.6382ZM106.30052 27.6382" fill="#009900"/>
<path transform="matrix(1.00002,0,0,-1.00002,11.924889,62.175985)" d="M214.84268 27.6382C214.84268 28.8762 213.83908 29.87982 212.60106 29.87982 211.36304 29.87982 210.35944 28.8762 210.35944 27.6382 210.35944 26.40018 211.36304 25.39658 212.60106 25.39658 213.83908 25.39658 214.84268 26.40018 214.84268 27.6382ZM212.60106 27.6382" fill="#ffffff"/>
<path transform="matrix(1.00002,0,0,-1.00002,11.924889,62.175985)" stroke-width=".79701" stroke-linecap="butt" stroke-miterlimit="10" stroke-linejoin="miter" fill="none" stroke="#009900" d="M214.84268 27.6382C214.84268 28.8762 213.83908 29.87982 212.60106 29.87982 211.36304 29.87982 210.35944 28.8762 210.35944 27.6382 210.35944 26.40018 211.36304 25.39658 212.60106 25.39658 213.83908 25.39658 214.84268 26.40018 214.84268 27.6382ZM212.60106 27.6382"/>
<use data-text="[" xlink:href="#font_1_40" transform="matrix(9.962799,0,0,-9.962799,157.5408,26.401268)" fill="#009900"/>
<use data-text="5" xlink:href="#font_1_56" transform="matrix(9.962799,0,0,-9.962799,160.31046,26.401268)" fill="#009900"/>
<use data-text="," xlink:href="#font_1_45" transform="matrix(9.962799,0,0,-9.962799,165.29187,26.401268)" fill="#009900"/>
<use data-text="1" xlink:href="#font_1_82" transform="matrix(9.962799,0,0,-9.962799,171.37912,26.401268)" fill="#009900"/>
<use data-text="0" xlink:href="#font_1_121" transform="matrix(9.962799,0,0,-9.962799,176.36054,26.401268)" fill="#009900"/>
<use data-text=")" xlink:href="#font_1_86" transform="matrix(9.962799,0,0,-9.962799,181.34192,26.401268)" fill="#009900"/>
<path transform="matrix(1.00002,0,0,-1.00002,11.924889,62.175985)" stroke-width="1.19553" stroke-linecap="butt" stroke-miterlimit="10" stroke-linejoin="miter" fill="none" stroke="#bf0040" d="M212.60106 44.64633H315.07496"/>
<path transform="matrix(1.00002,0,0,-1.00002,11.924889,62.175985)" d="M214.84268 44.64633C214.84268 45.88435 213.83908 46.88795 212.60106 46.88795 211.36304 46.88795 210.35944 45.88435 210.35944 44.64633 210.35944 43.40831 211.36304 42.40471 212.60106 42.40471 213.83908 42.40471 214.84268 43.40831 214.84268 44.64633ZM212.60106 44.64633" fill="#bf0040"/>
<path transform="matrix(1.00002,0,0,-1.00002,11.924889,62.175985)" d="M321.14323 44.64633C321.14323 45.88435 320.13963 46.88795 318.9016 46.88795 317.66358 46.88795 316.65998 45.88435 316.65998 44.64633 316.65998 43.40831 317.66358 42.40471 318.9016 42.40471 320.13963 42.40471 321.14323 43.40831 321.14323 44.64633ZM318.9016 44.64633" fill="#ffffff"/>
<path transform="matrix(1.00002,0,0,-1.00002,11.924889,62.175985)" stroke-width=".79701" stroke-linecap="butt" stroke-miterlimit="10" stroke-linejoin="miter" fill="none" stroke="#bf0040" d="M321.14323 44.64633C321.14323 45.88435 320.13963 46.88795 318.9016 46.88795 317.66358 46.88795 316.65998 45.88435 316.65998 44.64633 316.65998 43.40831 317.66358 42.40471 318.9016 42.40471 320.13963 42.40471 321.14323 43.40831 321.14323 44.64633ZM318.9016 44.64633"/>
<use data-text="[" xlink:href="#font_1_40" transform="matrix(9.962799,0,0,-9.962799,261.35188,9.391926)" fill="#bf0040"/>
<use data-text="1" xlink:href="#font_1_82" transform="matrix(9.962799,0,0,-9.962799,264.12153,9.391926)" fill="#bf0040"/>
<use data-text="0" xlink:href="#font_1_121" transform="matrix(9.962799,0,0,-9.962799,269.10295,9.391926)" fill="#bf0040"/>
<use data-text="," xlink:href="#font_1_45" transform="matrix(9.962799,0,0,-9.962799,274.08433,9.391926)" fill="#bf0040"/>
<use data-text="1" xlink:href="#font_1_82" transform="matrix(9.962799,0,0,-9.962799,280.1716,9.391926)" fill="#bf0040"/>
<use data-text="5" xlink:href="#font_1_56" transform="matrix(9.962799,0,0,-9.962799,285.15299,9.391926)" fill="#bf0040"/>
<use data-text=")" xlink:href="#font_1_86" transform="matrix(9.962799,0,0,-9.962799,290.1344,9.391926)" fill="#bf0040"/>
<path transform="matrix(1.00002,0,0,-1.00002,11.924889,62.175985)" stroke-width=".3985" stroke-linecap="butt" stroke-dasharray="2.98883,2.98883" stroke-miterlimit="10" stroke-linejoin="miter" fill="none" stroke="#ff0000" d="M106.30052-4.25194V27.6382"/>
<path transform="matrix(1.00002,0,0,-1.00002,11.924889,62.175985)" stroke-width=".3985" stroke-linecap="butt" stroke-dasharray="2.98883,2.98883" stroke-miterlimit="10" stroke-linejoin="miter" fill="none" stroke="#ff0000" d="M212.60106-4.25194V44.64633"/>
</svg>
