<svg xmlns="http://www.w3.org/2000/svg" xmlns:xlink="http://www.w3.org/1999/xlink" xmlns:inkscape="http://www.inkscape.org/namespaces/inkscape" version="1.1" width="184" height="112" viewBox="0 0 184 112">
<defs>
<clipPath id="clip_1">
<path transform="matrix(1.00003,0,0,-1.00003,1.0964966,87.50348)" d="M0 0H181.9403V96.9012H0Z"/>
</clipPath>
<path id="font_2_2" d="M.1329956 .08345032C.18699646 .14138794 .21598816 .16636658 .2519989 .19732666 .2519989 .19833374 .31399537 .25128175 .34999085 .2872467 .44499208 .3803711 .46699525 .42837525 .46699525 .43237306 .46699525 .4423828 .45799256 .4423828 .45599366 .4423828 .44898988 .4423828 .44599916 .44036866 .44099427 .43138124 .41099549 .38337709 .3899994 .3671875 .3659973 .3671875 .34199525 .3671875 .32998658 .38237 .31498719 .3993683 .29599 .42237855 .2789917 .4423828 .24598694 .4423828 .17098999 .4423828 .125 .34918214 .125 .3282013 .125 .3231964 .12799073 .31721498 .13699341 .31721498 .1459961 .31721498 .147995 .3222046 .1499939 .3282013 .16899109 .37434388 .22698975 .37538148 .23498535 .37538148 .2559967 .37538148 .2749939 .36820985 .2979889 .36018373 .33799745 .34518434 .34899903 .34518434 .375 .34518434 .33898927 .30223084 .25498963 .2303009 .23599243 .21430969L.1459961 .13040161C.07798767 .06341553 .042999269 .0062561037 .042999269-.00074768069 .042999269-.0107421879 .052993776-.0107421879 .054992677-.0107421879 .06298828-.0107421879 .06498718-.008743286 .070999149 .002243042 .09399414 .037246705 .12399292 .064453128 .1559906 .064453128 .1789856 .064453128 .18899536 .055252077 .21398926 .026245118 .23098755 .0052490236 .24899292-.0107421879 .27799989-.0107421879 .3769989-.0107421879 .43499757 .1164093 .43499757 .14338684 .43499757 .14837647 .43099977 .15338135 .4229889 .15338135 .4139862 .15338135 .4119873 .14738465 .40899659 .14039612 .38598634 .07543945 .32199098 .056243898 .2889862 .056243898 .2689972 .056243898 .25099183 .06239319 .22999573 .06944275 .19599915 .08244324 .18099976 .08644104 .1599884 .08644104 .1579895 .08644104 .14199829 .08644104 .1329956 .08345032Z"/>
<path id="font_3_2" d="M.7220001 .4517517C.7220001 .4727478 .71499636 .4817505 .70799258 .4817505 .70399478 .4817505 .69499209 .4777527 .69400027 .4547577 .6899872 .38589479 .6199951 .34506227 .5549927 .34506227 .49699403 .34506227 .44699098 .37594605 .394989 .41081239 .34098817 .44674684 .2869873 .48275758 .22200012 .48275758 .1289978 .48275758 .054992677 .4118042 .054992677 .3200531 .054992677 .29804994 .06298828 .29005433 .068984989 .29005433 .07899475 .29005433 .08299255 .3090515 .08299255 .31304933 .08799744 .39686585 .16999817 .4267578 .22200012 .4267578 .27999879 .4267578 .32998658 .39585877 .38198854 .36099244 .43598939 .32505799 .48999024 .2890625 .5549927 .2890625 .647995 .2890625 .7220001 .3600006 .7220001 .4517517M.7220001 .21798706C.7220001 .24699402 .70999148 .24899292 .70799258 .24899292 .70399478 .24899292 .69499209 .24398804 .69400027 .22198487 .6899872 .1531372 .6199951 .11230469 .5549927 .11230469 .49699403 .11230469 .44699098 .14318848 .394989 .17805481 .34098817 .21398926 .2869873 .25 .22200012 .25 .1289978 .25 .054992677 .17904663 .054992677 .08729553 .054992677 .06529236 .06298828 .057296754 .068984989 .057296754 .07899475 .057296754 .08299255 .076293949 .08299255 .08029175 .08799744 .16410828 .16999817 .19398499 .22200012 .19398499 .27999879 .19398499 .32998658 .1631012 .38198854 .12823487 .43598939 .092300418 .48999024 .056289674 .5549927 .056289674 .6499939 .056289674 .7220001 .13023377 .7220001 .21798706Z"/>
<path id="font_3_1" d="M.6589966 .23046875C.6759949 .23046875 .69400027 .23046875 .69400027 .25045777 .69400027 .27046205 .6759949 .27046205 .6589966 .27046205H.117996219C.100997928 .27046205 .08299255 .27046205 .08299255 .25045777 .08299255 .23046875 .100997928 .23046875 .117996219 .23046875H.6589966Z"/>
<path id="font_4_3" d="M.2939911 .16503906V.07800293C.2939911 .041992189 .2919922 .0309906 .21798706 .0309906H.19699097V0C.23799134 .0029907227 .2899933 .0029907227 .33198548 .0029907227 .37399293 .0029907227 .4269867 .0029907227 .46798707 0V.0309906H.44699098C.37298585 .0309906 .37098695 .041992189 .37098695 .07800293V.16503906H.47099305V.19602967H.37098695V.65075686C.37098695 .67074587 .37098695 .6767578 .35499574 .6767578 .34599305 .6767578 .34298707 .6767578 .33499146 .66474917L.027999878 .19602967V.16503906H.2939911M.2999878 .19602967H.055999757L.2999878 .5688019V.19602967Z"/>
<path id="font_2_1" d="M.19198609 .052993776C.19198609 .08198547 .16799927 .10598755 .13899231 .10598755 .10998535 .10598755 .085998538 .08198547 .085998538 .052993776 .085998538 .023986817 .10998535 0 .13899231 0 .16799927 0 .19198609 .023986817 .19198609 .052993776Z"/>
<path id="font_4_2" d="M.1269989 .07699585 .23298645 .18003845C.3889923 .31811524 .44898988 .3721466 .44898988 .47216798 .44898988 .5860901 .35899354 .6660156 .23699951 .6660156 .12399292 .6660156 .049987794 .57411196 .049987794 .48516847 .049987794 .4291687 .099990848 .4291687 .102996829 .4291687 .11999512 .4291687 .15499878 .44117738 .15499878 .48217774 .15499878 .5081787 .13699341 .5341797 .101989749 .5341797 .09399414 .5341797 .09199524 .5341797 .08898926 .5331726 .11199951 .59806826 .1659851 .63500979 .22399903 .63500979 .31498719 .63500979 .35798646 .5541382 .35798646 .47216798 .35798646 .39215089 .30799867 .31311036 .25299073 .25108338L.06098938 .036987306C.049987794 .025985718 .049987794 .023986817 .049987794 0H.42099L.44898988 .17404175H.42399598C.4189911 .14402771 .4119873 .1000061 .4019928 .084991458 .394989 .07699585 .32899476 .07699585 .30699159 .07699585H.1269989Z"/>
<path id="font_4_1" d="M.45999146 .31976319C.45999146 .39982606 .45498658 .47988893 .41999818 .5539398 .37399293 .65000918 .2919922 .6660156 .25 .6660156 .18998719 .6660156 .116989139 .64001467 .07598877 .54693606 .04399109 .47789 .038986207 .39982606 .038986207 .31976319 .038986207 .24472046 .042999269 .15464783 .083999637 .07859802 .1269989-.0024719239 .19999695-.022460938 .24899292-.022460938 .30299378-.022460938 .3789978-.0014648438 .4229889 .09359741 .45498658 .16265869 .45999146 .2407074 .45999146 .31976319M.24899292-.00047302247C.20999146-.00047302247 .15098572 .024551392 .1329956 .12062073 .12199402 .18066406 .12199402 .2727356 .12199402 .3317871 .12199402 .39582826 .12199402 .46188355 .12998963 .5159149 .14898682 .63500979 .22399903 .64401248 .24899292 .64401248 .28199769 .64401248 .34799195 .6259918 .36698915 .52693179 .3769989 .47088624 .3769989 .39482118 .3769989 .3317871 .3769989 .25672914 .3769989 .18867493 .3659973 .12461853 .35099793 .029556275 .2939911-.00047302247 .24899292-.00047302247Z"/>
</defs>
<path transform="matrix(1.00003,0,0,-1.00003,1.0964966,87.50348)" stroke-width=".3985" stroke-linecap="butt" stroke-miterlimit="10" stroke-linejoin="miter" fill="none" stroke="#000000" d="M0 0H179.94779"/>
<path transform="matrix(1.00003,0,0,-1.00003,181.04969,87.50348)" d="M1.99252 0-1.19551 1.59401 0 0-1.19551-1.59401"/>
<g clip-path="url(#clip_1)">
<path transform="matrix(1.00003,0,0,-1.00003,1.0964966,87.50348)" d="M0 .00029 7.58084 .00192 15.16168 .01025 22.74254 .04713 30.32338 .18791 37.90422 .65079 45.48508 1.95819 53.06592 5.11902 60.64676 11.62625 68.22762 22.94322 75.80846 39.33838 83.3893 58.59521 90.97015 75.83315 98.551 85.26009 106.13185 83.2833 113.71269 70.67851 121.29353 52.1167 128.87439 33.38307 136.45523 18.57811 144.03607 8.97934 151.61693 3.77452 159.19777 1.37773 166.77861 .43694 174.35947 .12038 181.9403 .0288V0H0Z" fill="#e6e6ff"/>
<path transform="matrix(1.00003,0,0,-1.00003,1.0964966,87.50348)" stroke-width=".79701" stroke-linecap="butt" stroke-miterlimit="10" stroke-linejoin="miter" fill="none" stroke="#0000ff" d="M0 .00029 1.83775 .00049 3.67554 .00076 5.51332 .00119 7.35109 .00183 9.18887 .00279 11.02666 .0042 12.86444 .00629 14.70221 .00931 16.54 .01369 18.37778 .01994 20.21555 .0288 22.05331 .04128 23.8911 .05865 25.72888 .08264 27.56667 .11551 29.40443 .1601 31.24222 .22008 33.08 .30008 34.91779 .40569 36.75555 .54402 38.59334 .72354 40.4311 .95433 42.26889 1.24838 44.10666 1.6196 45.94444 2.08392 47.78223 2.65927 49.62001 3.36557 51.45778 4.22444 53.29556 5.2587 55.13335 6.49243 56.97113 7.9495 58.8089 9.64944 60.64667 11.62625 62.48445 13.88657 64.32224 16.45528 66.16 19.32553 67.99779 22.52228 69.83557 26.02742 71.67334 29.83412 73.51112 33.90712 75.3489 38.22928 77.18669 42.7413 79.02444 47.38991 80.86223 52.1167 82.70001 56.84264 84.5378 61.4835 86.37558 65.96031 88.21335 70.18024 90.05113 74.04704 91.88892 77.49208 93.7267 80.43106 95.56448 82.79446 97.40225 84.52126 99.24002 85.56938 101.0778 85.91043 102.91559 85.56938 104.75336 84.52126 106.59114 82.79446 108.42892 80.43106 110.26671 77.49208 112.10448 74.04704 113.94226 70.18024 115.78004 65.96031 117.61783 61.4835 119.4556 56.84264 121.29337 52.1167 123.13115 47.38991 124.96893 42.7413 126.80672 38.22928 128.6445 33.90712 130.48227 29.83412 132.32006 26.02742 134.15784 22.52228 135.99562 19.32553 137.83338 16.45528 139.67116 13.88657 141.50894 11.62625 143.34671 9.64944 145.1845 7.94974 147.02228 6.4926 148.86006 5.25885 150.69783 4.22447 152.53562 3.36566 154.3734 2.65936 156.21118 2.08398 158.04894 1.61967 159.88672 1.24843 161.7245 .95436 163.56229 .72356 165.40006 .54402 167.23784 .40578 169.07563 .30008 170.9134 .22012 172.75118 .16011 174.58896 .11551 176.42675 .08266 178.26451 .05865 180.10228 .04128 181.94007 .0288"/>
<path transform="matrix(1.00003,0,0,-1.00003,1.0964966,87.50348)" stroke-width=".79701" stroke-linecap="butt" stroke-dasharray="2.98883,2.98883" stroke-miterlimit="10" stroke-linejoin="miter" fill="none" stroke="#ff0000" d="M15.76816 0V10.7668"/>
<use data-text="z" xlink:href="#font_2_2" transform="matrix(9.962899,0,0,-9.962899,-5.043686,72.386028)" fill="#ff0000"/>
<use data-text="&#x2248;" xlink:href="#font_3_2" transform="matrix(9.962899,0,0,-9.962899,2.7955476,72.386028)" fill="#ff0000"/>
<use data-text="&#x2212;" xlink:href="#font_3_1" transform="matrix(9.962899,0,0,-9.962899,13.296448,72.386028)" fill="#ff0000"/>
<use data-text="4" xlink:href="#font_4_3" transform="matrix(9.962899,0,0,-9.962899,21.061097,72.386028)" fill="#ff0000"/>
<use data-text="." xlink:href="#font_2_1" transform="matrix(9.962899,0,0,-9.962899,26.042244,72.386028)" fill="#ff0000"/>
<use data-text="2" xlink:href="#font_4_2" transform="matrix(9.962899,0,0,-9.962899,28.809327,72.386028)" fill="#ff0000"/>
<use data-text="2" xlink:href="#font_4_2" transform="matrix(9.962899,0,0,-9.962899,33.79078,72.386028)" fill="#ff0000"/>
<path transform="matrix(1.00003,0,0,-1.00003,1.0964966,87.50348)" stroke-width=".3985" stroke-linecap="butt" stroke-dasharray="2.98883,2.98883" stroke-miterlimit="10" stroke-linejoin="miter" fill="none" stroke="#7f807f" d="M101.07794 0V85.91043"/>
<use data-text="0" xlink:href="#font_4_1" transform="matrix(9.962899,0,0,-9.962899,99.686458,97.44378)" fill="#7f807f"/>
</g>
<use data-text="z" xlink:href="#font_2_2" transform="matrix(9.962899,0,0,-9.962899,89.53315,110.257167)"/>
</svg>
