<svg xmlns="http://www.w3.org/2000/svg" xmlns:xlink="http://www.w3.org/1999/xlink" xmlns:inkscape="http://www.inkscape.org/namespaces/inkscape" version="1.1" width="200" height="96" viewBox="0 0 200 96">
<defs>
<path id="font_1_4" d="M.13899231 .08526611C.1599884 .11027527 .21499634 .16029358 .2579956 .19630432 .33198548 .25933839 .35499574 .28134156 .36799623 .29534913 .44999696 .3743744 .47698976 .42536927 .47698976 .43138124 .47698976 .43237306 .47698976 .4423828 .46398927 .4423828 .45498658 .4423828 .45298768 .43937684 .44799806 .43138124 .43499757 .41137696 .4079895 .3683777 .37399293 .3683777 .35398866 .3683777 .34098817 .37937928 .31799317 .40538026 .2939911 .43138124 .2749939 .4423828 .24899292 .4423828 .17199707 .4423828 .125 .3503723 .125 .32536317 .125 .32235719 .1269989 .3143463 .13798523 .3143463 .147995 .3143463 .15098572 .32035829 .1519928 .32336427 .17098999 .3713684 .22999573 .3713684 .23799134 .3713684 .26098634 .3713684 .2849884 .36437989 .30699159 .35636903 .34700013 .34336854 .3639984 .34336854 .3789978 .34336854 .34799195 .3083496 .2919922 .2603302 .22898865 .20631409 .1789856 .16329956 .147995 .13328552 .12599182 .11126709 .08898926 .072250369 .04399109 .011245728 .04399109 .00024414063 .04399109-.0067443849 .04899597-.0107421879 .056991579-.0107421879 .06599426-.0107421879 .067993167-.0067443849 .07299805-.00074768069 .11199951 .059249879 .14898682 .06324768 .1599884 .06324768 .18499756 .06324768 .19898987 .04824829 .22099304 .022247315 .24398804-.002746582 .2659912-.0107421879 .28599549-.0107421879 .3889923-.0107421879 .44898988 .11727905 .44898988 .14428711 .44898988 .1532898 .44198609 .15629578 .43499757 .15629578 .4249878 .15629578 .4229889 .14929199 .42099 .14527893 .3939972 .071258548 .32299806 .060256959 .29699708 .060256959 .27799989 .060256959 .2579956 .06524658 .22799683 .07525635 .20799256 .08125305 .18399048 .088256839 .16299439 .088256839 .15299988 .088256839 .14299011 .086257938 .13899231 .08526611Z"/>
<path id="font_2_7" d="M.70799258 .3310089C.7220001 .3310089 .7409973 .3310089 .7409973 .35202027 .7409973 .37402345 .71899417 .37402345 .70399478 .37402345H.09399414C.07899475 .37402345 .056991579 .37402345 .056991579 .35202027 .056991579 .3310089 .07699585 .3310089 .08999634 .3310089H.70799258M.70399478 .12695313C.71899417 .12695313 .7409973 .12695313 .7409973 .14894104 .7409973 .1699524 .7220001 .1699524 .70799258 .1699524H.08999634C.07699585 .1699524 .056991579 .1699524 .056991579 .14894104 .056991579 .12695313 .07899475 .12695313 .09399414 .12695313H.70399478Z"/>
<path id="font_1_2" d="M.49198915 .40434266C.45498658 .39733888 .44400025 .3653412 .44400025 .3503418 .44400025 .33132936 .45799256 .31433106 .48298646 .31433106 .5109863 .31433106 .5379944 .33833314 .5379944 .3733368 .5379944 .41937257 .48799134 .4423828 .44099427 .4423828 .3809967 .4423828 .34599305 .38934327 .33399964 .3683319 .31498719 .41737367 .2709961 .4423828 .22299195 .4423828 .115997318 .4423828 .057998659 .31433106 .057998659 .28833009 .057998659 .2793274 .06498718 .2763214 .07199097 .2763214 .08099365 .2763214 .083999637 .2813263 .085998538 .287323 .116989139 .38633729 .18299866 .41737367 .22099304 .41737367 .25 .41737367 .27598573 .3983307 .27598573 .35133363 .27598573 .31533814 .23298645 .15530396 .21998596 .107284549 .21199036 .076293949 .18199158 .014251709 .1269989 .014251709 .10699463 .014251709 .085998538 .021270752 .07598877 .027282715 .102996829 .032287599 .12298584 .055282594 .12298584 .08128357 .12298584 .106292728 .10398865 .11729431 .084991458 .11729431 .055999757 .11729431 .02999878 .092285159 .02999878 .058288576 .02999878 .009246826 .083999637-.0107421879 .12599182-.0107421879 .18399048-.0107421879 .21798706 .03729248 .23298645 .06428528 .2579956-.0017547608 .31698609-.0107421879 .34399415-.0107421879 .45199586-.0107421879 .5089874 .11929321 .5089874 .14329529 .5089874 .14830017 .5059967 .15530396 .49598695 .15530396 .4850006 .15530396 .48399354 .1512909 .47898866 .1362915 .45700074 .06428528 .39898683 .014251709 .34700013 .014251709 .31799317 .014251709 .29100038 .032287599 .29100038 .08029175 .29100038 .10229492 .30499269 .15730286 .31399537 .1953125 .31799317 .21331787 .34498597 .32133485 .34700013 .32833863 .35899354 .3643341 .3889923 .41737367 .43998719 .41737367 .45799256 .41737367 .47698976 .41436769 .49198915 .40434266Z"/>
<path id="font_3_1" d="M.5379944 .18702698H.5009918C.49899293 .17301941 .4889984 .10699463 .47399903 .09599304 .46699525 .08999634 .38598634 .08999634 .37199403 .08999634H.18499756L.31298829 .19403076C.34700013 .22103882 .43598939 .28504945 .46699525 .31506349 .49699403 .3450775 .5379944 .39608766 .5379944 .46710206 .5379944 .5920563 .4249878 .66503909 .29100038 .66503909 .1619873 .66503909 .07199097 .58006289 .07199097 .48609925 .07199097 .43510438 .114990238 .42910768 .12599182 .42910768 .15098572 .42910768 .17999268 .44709779 .17999268 .48310853 .17999268 .50509646 .16699219 .5371094 .12298584 .5371094 .1459961 .5880585 .20698548 .6260376 .27598573 .6260376 .3809967 .6260376 .43699647 .5480957 .43699647 .46710206 .43699647 .39608766 .3899994 .32305909 .31999208 .25904847L.08299255 .041992189C.07299805 .03199768 .07199097 .0309906 .07199097 0H.5069885L.5379944 .18702698Z"/>
<path id="font_1_3" d="M.5019989 .38536073C.5029907 .3903656 .5049896 .39637757 .5049896 .40237428 .5049896 .41537477 .49598695 .43138124 .47399903 .43138124 .46099855 .43138124 .44299317 .42337037 .43499757 .40437318 .43399049 .40037538 .42399598 .35935975 .41799928 .33735658L.36799623 .13728333C.3600006 .10827637 .3600006 .106277469 .35798646 .09727478 .35699464 .09327698 .31498719 .014251709 .24299622 .014251709 .18099976 .014251709 .18099976 .07727051 .18099976 .09628296 .18099976 .14129639 .19400025 .19030762 .23699951 .30233766 .24499512 .3253479 .25099183 .33935548 .25099183 .35835267 .25099183 .40737916 .21398926 .4423828 .16499329 .4423828 .068984989 .4423828 .0289917 .30033876 .0289917 .28833009 .0289917 .2793274 .035995485 .27633668 .042999269 .27633668 .053985597 .27633668 .054992677 .28233338 .05899048 .29533387 .07998657 .3693695 .11999512 .41737367 .1619873 .41737367 .18598938 .41737367 .18598938 .39837647 .18598938 .3843689 .18598938 .36735536 .18199158 .34934999 .17298889 .3253479 .12599182 .2013092 .11299133 .15930176 .11299133 .11128235 .11299133 .00024414063 .20298767-.0107421879 .23999024-.0107421879 .2889862-.0107421879 .32398988 .01524353 .34199525 .0332489 .32899476-.017745972 .31799317-.0627594 .2789917-.11276245 .24899292-.15286255 .20899964-.18008423 .16499329-.18008423 .13699341-.18008423 .10398865-.16999817 .08999634-.14176941 .14299011-.14176941 .1499939-.09776306 .1499939-.087768558 .1499939-.06576538 .13398743-.051757814 .11199951-.051757814 .08799744-.051757814 .055999757-.07077026 .055999757-.116760257 .055999757-.16899109 .101989749-.20507813 .16499329-.20507813 .2669983-.20507813 .37599183-.117767337 .40499879-.00074768069L.5019989 .38536073Z"/>
<path id="font_2_3" d="M.70599368 .22944641C.7200012 .22944641 .7409973 .22944641 .7409973 .25045777 .7409973 .27246095 .7220001 .27246095 .70599368 .27246095H.42099V.5578003C.42099 .573761 .42099 .59277346 .39898683 .59277346 .37799073 .59277346 .37799073 .57177737 .37799073 .5578003V.27246095H.09199524C.07798767 .27246095 .056991579 .27246095 .056991579 .25144959 .056991579 .22944641 .07598877 .22944641 .09199524 .22944641H.37799073V-.056793214C.37799073-.07279968 .37799073-.091796878 .3999939-.091796878 .42099-.091796878 .42099-.07080078 .42099-.056793214V.22944641H.70599368Z"/>
<path id="font_2_6" d="M.30499269 .35195924C.397995 .38697816 .44198609 .46006776 .44198609 .5290985 .44198609 .60606387 .35699464 .6660156 .25299073 .6660156 .14898682 .6660156 .070999149 .60705569 .070999149 .5310974 .070999149 .49809266 .09298706 .47909547 .12199402 .47909547 .15098572 .47909547 .17199707 .50009158 .17199707 .5290985 .17199707 .5640869 .147995 .57910159 .11399841 .57910159 .13999939 .6210327 .20098877 .64100649 .25 .64100649 .33299256 .64100649 .34899903 .5750885 .34899903 .52809146 .34899903 .49809266 .34298707 .45005799 .31799317 .41201783 .2869873 .36695863 .2519989 .36495973 .22299195 .36296083 .19799805 .36094667 .19599915 .36094667 .18798828 .36094667 .1789856 .35995484 .17098999 .35894776 .17098999 .34794618 .17098999 .33496095 .1789856 .33496095 .19599915 .33496095H.24299622C.32998658 .33496095 .36799623 .2646637 .36799623 .16937256 .36799623 .04145813 .2999878 .0055389406 .24899292 .0055389406 .22999573 .0055389406 .1329956 .010528564 .08799744 .0843811 .12399292 .07939148 .1519928 .10437012 .1519928 .13838196 .1519928 .17137146 .1269989 .19238281 .09799194 .19238281 .07299805 .19238281 .042999269 .17736817 .042999269 .13537598 .042999269 .046447755 .13598633-.022460938 .2519989-.022460938 .3769989-.022460938 .46998597 .06741333 .46998597 .16937256 .46998597 .25663758 .40098573 .33093263 .30499269 .35195924Z"/>
<path id="font_3_3" d="M.56399539 .1640625V.2030487H.44699098V.6448059C.44699098 .6678009 .44699098 .6748047 .42199708 .6748047 .4039917 .6748047 .4019928 .6717987 .3929901 .65979006L.04598999 .2030487V.1640625H.35699464V.08401489C.35699464 .050994874 .35699464 .038986207 .272995 .038986207H.24398804V0C.2639923 .0009918213 .35798646 .0039978029 .4019928 .0039978029 .44599916 .0039978029 .5399933 .0009918213 .55999758 0V.038986207H.5309906C.44699098 .038986207 .44699098 .050994874 .44699098 .08401489V.1640625H.56399539M.3639984 .56585696V.2030487H.08898926L.3639984 .56585696Z"/>
<path id="font_2_12" d="M.34399415 .42222596C.34399415 .4392395 .34399415 .4482422 .33198548 .4482422 .32699586 .4482422 .32499696 .4482422 .31199647 .43623353 .30999757 .43423463 .30099488 .42523194 .29499818 .42022706 .2639923 .44223023 .23298645 .4482422 .19898987 .4482422 .066986087 .4482422 .033996583 .37522889 .033996583 .324234 .033996583 .29223634 .04798889 .26623536 .070999149 .24424744 .10499573 .21324158 .14299011 .2062378 .19400025 .1972351 .24499512 .1872406 .2619934 .18424988 .28399659 .16723633 .2939911 .15924073 .31900025 .14024353 .31900025 .102249149 .31900025 .014251709 .21798706 .014251709 .20399475 .014251709 .101989749 .014251709 .07598877 .099243167 .06399536 .15324402 .06098938 .16323853 .05999756 .16925049 .04798889 .16925049 .033996583 .16925049 .033996583 .16123963 .033996583 .14324951V.01524353C.033996583-.0017547608 .033996583-.0107421879 .04598999-.0107421879 .051986696-.0107421879 .052993776-.009750366 .070999149 .009246826 .07499695 .01524353 .085998538 .028244019 .09098816 .0332489 .1329956-.007751465 .1789856-.0107421879 .20399475-.0107421879 .32699586-.0107421879 .36999513 .06124878 .36999513 .12825012 .36999513 .17324829 .34999085 .20024109 .32798768 .22323609 .2939911 .25624085 .2579956 .26324464 .18399048 .27723695 .1579895 .28224183 .084991458 .2952423 .084991458 .3522339 .084991458 .38423158 .10798645 .426239 .19898987 .426239 .30699159 .426239 .31399537 .3432312 .31599427 .3182373 .31698609 .3062439 .31698609 .30023194 .32998658 .30023194 .34399415 .30023194 .34399415 .30723573 .34399415 .3262329V.42222596Z"/>
<path id="font_2_9" d="M.18399048 .4423828 .039993287 .43138124V.40037538C.10398865 .40037538 .11299133 .3943634 .11299133 .34532167V.077041629C.11299133 .0309906 .101989749 .0309906 .035995485 .0309906V0C.08099365 .0019989014 .101989749 .0029907227 .1459961 .0029907227 .1619873 .0029907227 .20399475 .0029907227 .25299073 0V.0309906C.18798828 .0309906 .18399048 .035995485 .18399048 .075042728V.4423828M.18699646 .615921C.18699646 .6459198 .16299439 .6699219 .1329956 .6699219 .101989749 .6699219 .07899475 .6449127 .07899475 .615921 .07899475 .58691409 .101989749 .56192019 .1329956 .56192019 .16299439 .56192019 .18699646 .585907 .18699646 .615921Z"/>
<path id="font_2_10" d="M.18598938 .2592163C.18598938 .36532594 .26098634 .41737367 .32398988 .41737367 .3829956 .41737367 .3959961 .3683319 .3959961 .30825807V.077041629C.3959961 .0309906 .3849945 .0309906 .31900025 .0309906V0C.3659973 .0019989014 .3849945 .0029907227 .43299867 .0029907227 .48098756 .0029907227 .49398805 .0019989014 .5469971 0V.0309906C.49598695 .0309906 .47099305 .0309906 .46998597 .062026979V.25421144C.46998597 .33729554 .46998597 .36631776 .44198609 .40135194 .4189911 .42938233 .3809967 .4423828 .33099366 .4423828 .23799134 .4423828 .19499207 .3733368 .18099976 .3453064H.17999268V.4416504L.034988405 .43066407V.3996582C.102996829 .3996582 .11199951 .39266969 .11199951 .34370423V.07695007C.11199951 .0309906 .100997928 .0309906 .034988405 .0309906V0C.08198547 .0019989014 .100997928 .0029907227 .14898682 .0029907227 .19699097 .0029907227 .20999146 .0019989014 .2630005 0V.0309906C.19699097 .0309906 .18598938 .0309906 .18598938 .07695007V.2592163Z"/>
<path id="font_2_1" d="M.34098817-.23803711C.34098817-.23303223 .33799745-.23002625 .33198548-.22303772 .20298767-.105026248 .1639862 .07498169 .1639862 .24996948 .1639862 .40498353 .19400025 .59298709 .33499146 .72698977 .33898927 .73098757 .34098817 .73399356 .34098817 .7389984 .34098817 .74598696 .33599855 .75 .32899476 .75 .31698609 .75 .22698975 .6779785 .17298889 .568985 .125 .47297669 .100997928 .36997987 .100997928 .25097657 .100997928 .17897034 .10998535 .064971927 .16499329-.053024293 .22399903-.17602539 .31698609-.24902344 .32899476-.24902344 .33599855-.24902344 .34098817-.24502564 .34098817-.23803711Z"/>
<path id="font_2_5" d="M.46199037 .17704773H.43399049C.43199159 .16404724 .42399598 .10501099 .41099549 .08900452 .40499879 .07998657 .33599855 .07998657 .31599427 .07998657H.13798523L.23699951 .17404175C.40098573 .3161316 .46199037 .36915589 .46199037 .4711914 .46199037 .5860901 .36698915 .6660156 .24398804 .6660156 .1289978 .6660156 .050994874 .575119 .050994874 .4841919 .050994874 .43418885 .09399414 .42919923 .102996829 .42919923 .125 .42919923 .15499878 .44519044 .15499878 .48120118 .15499878 .51119998 .13398743 .5332031 .102996829 .5332031 .09799194 .5332031 .09498596 .5332031 .09098816 .53219607 .114990238 .6030731 .1789856 .63500979 .23298645 .63500979 .33499146 .63500979 .36999513 .5401764 .36999513 .4711914 .36999513 .36915589 .29299928 .28611756 .24499512 .23408509L.06199646 .035995485C.050994874 .024993897 .050994874 .022994996 .050994874 0H.43399049L.46199037 .17704773Z"/>
<path id="font_1_1" d="M.21299744 .3996582H.30799867C.32598878 .3996582 .33799745 .3996582 .33799745 .41766358 .33799745 .43066407 .32798768 .43066407 .30999757 .43066407H.22099304L.2619934 .59646609C.2619934 .6124573 .24899292 .62545779 .23098755 .62545779 .19898987 .62545779 .19099427 .59646609 .18899536 .5864868L.14898682 .43066407H.054992677C.035995485 .43066407 .023986817 .43066407 .023986817 .4126587 .023986817 .3996582 .034988405 .3996582 .052993776 .3996582H.14199829L.07398987 .12808228C.06599426 .09811401 .06599426 .09613037 .06599426 .08215332 .06599426 .023239136 .11099243-.0107421879 .16299439-.0107421879 .2669983-.0107421879 .32598878 .1330719 .32598878 .14305115 .32598878 .14804077 .32299806 .1550293 .31298829 .1550293 .30299378 .1550293 .3019867 .15203858 .29499818 .1350708 .2639923 .06317139 .21398926 .014251709 .16499329 .014251709 .14498902 .014251709 .1329956 .027236939 .1329956 .060180665 .1329956 .08215332 .13598633 .09413147 .13999939 .10910034L.21299744 .3996582Z"/>
<path id="font_2_2" d="M.2979889 .25097657C.2979889 .3329773 .28599549 .4429779 .23399353 .5539856 .1749878 .6769867 .08198547 .75 .069992069 .75 .05999756 .75 .057998659 .74198916 .057998659 .7389984 .057998659 .73399356 .05999756 .73098757 .066986087 .72398379 .125 .6719818 .23498535 .5359802 .23498535 .25097657 .23498535 .10797119 .20899964-.091033939 .06399536-.22602844 .06199646-.22903443 .057998659-.23303223 .057998659-.23803711 .057998659-.24102783 .05999756-.24902344 .069992069-.24902344 .08198547-.24902344 .17199707-.17703247 .22599793-.06802368 .27398683 .02796936 .2979889 .13098145 .2979889 .25097657Z"/>
<path id="font_4_2" d="M.6049957 .66430667C.60598757 .66830447 .60798647 .67430117 .60798647 .67930606 .60798647 .6953125 .58799746 .6943054 .57598879 .69329836L.46398927 .6843109C.44699098 .68330386 .43399049 .682312 .43399049 .65930178 .43399049 .64331057 .44699098 .64331057 .46199037 .64331057 .49198915 .64331057 .49899293 .64131167 .5119934 .63630679 .5109863 .62132266 .5109863 .61932376 .5079956 .60632327 .4869995 .5203552 .47099305 .45339967 .45098878 .38139344 .43699647 .4044037 .40299989 .44140626 .34098817 .44140626 .21299744 .44140626 .07499695 .3073578 .07499695 .16029358 .07499695 .052246095 .15098572-.009765625 .23599243-.009765625 .30299378-.009765625 .3600006 .036239625 .3849945 .06124878 .4039917-.0017700195 .47099305-.009765625 .49299623-.009765625 .5289917-.009765625 .5549927 .010223389 .57398989 .041229249 .598999 .08125305 .61299136 .13928223 .61299136 .14428711 .61299136 .14628601 .6119995 .15829468 .59399417 .15829468 .57899478 .15829468 .57699587 .1512909 .57299807 .13528443 .5569916 .07424927 .5359955 .023223877 .49699403 .023223877 .46299745 .023223877 .45999146 .059249879 .45999146 .07424927 .45999146 .087249759 .45999146 .09025574 .46499635 .10826111L.6049957 .66430667M.3889923 .13127136C.38398744 .11326599 .38398744 .11126709 .36999513 .09625244 .31498719 .034225465 .2639923 .023223877 .23899842 .023223877 .19898987 .023223877 .1599884 .050231935 .1599884 .121276859 .1599884 .16229248 .18099976 .2603302 .21299744 .3173523 .24299622 .37138368 .2939911 .4084015 .34199525 .4084015 .4169922 .4084015 .43598939 .32936097 .43598939 .32235719L.43299867 .3083496 .3889923 .13127136Z"/>
<path id="font_4_4" d="M.5629883 .39352418C.5279999 .38352967 .519989 .3545227 .519989 .33952333 .519989 .30752564 .54599 .30052186 .55999758 .30052186 .58898928 .30052186 .6179962 .32452394 .6179962 .3635254 .6179962 .41740418 .5589905 .44140626 .5079956 .44140626 .44198609 .44140626 .4019928 .3905182 .3909912 .371521 .37799073 .39649964 .33999635 .44140626 .2649994 .44140626 .1499939 .44140626 .08198547 .32252503 .08198547 .28749085 .08198547 .2824707 .085998538 .27345277 .099990848 .27345277 .11399841 .27345277 .116989139 .27946473 .11999512 .28848268 .14498902 .3695221 .21299744 .4084015 .2619934 .4084015 .31098939 .4084015 .32598878 .37652589 .32598878 .34352113 .32598878 .3315277 .32598878 .32252503 .31799317 .29148866 .29499818 .19825745 .272995 .10707092 .2679901 .095077518 .25299073 .05708313 .21699524 .023223877 .1749878 .023223877 .16899109 .023223877 .14099121 .023223877 .117996219 .038085939 .15699768 .051071168 .16099549 .08407593 .16099549 .09207153 .16099549 .11807251 .14099121 .13108826 .12098694 .13108826 .09298706 .13108826 .06298828 .10908508 .06298828 .06808472 .06298828 .011230469 .12599182-.009765625 .17298889-.009765625 .22999573-.009765625 .2709961 .029159546 .2899933 .060073854 .30999757 .018234253 .35798646-.009765625 .4149933-.009765625 .5329895-.009765625 .598999 .111083988 .598999 .14411927 .598999 .14611817 .59799197 .15815735 .5799866 .15815735 .56599429 .15815735 .56399539 .1511383 .5609894 .1421051 .5319977 .05508423 .46099855 .023223877 .4189911 .023223877 .3809967 .023223877 .35398866 .045074464 .35398866 .08708191 .35398866 .1060791 .35899354 .12808228 .36799623 .16316223L.3999939 .2935028C.4099884 .33251954 .4149933 .3505249 .43598939 .37452699 .44999696 .38952638 .47399903 .4084015 .5059967 .4084015 .5109863 .4084015 .54100039 .4084015 .5629883 .39352418Z"/>
<path id="font_4_3" d="M.2689972 .39065553H.37799073C.397995 .39065553 .4119873 .39065553 .4119873 .4156494 .4119873 .43066407 .39898683 .43066407 .3809967 .43066407H.2789917L.31399537 .5685272C.31799317 .58351138 .31799317 .5894928 .31799317 .5904999 .31799317 .6144867 .29899598 .6244812 .2829895 .6244812 .2709961 .6244812 .24499512 .6174774 .23599243 .58551028L.19699097 .43066407H.08898926C.067993167 .43066407 .066986087 .42965699 .06298828 .426651 .057998659 .4226532 .053985597 .4096527 .053985597 .4046631 .056991579 .39065553 .06599426 .39065553 .085998538 .39065553H.18699646L.12799073 .15501404C.12199402 .13204956 .11399841 .09811401 .11399841 .086120609 .11399841 .028213501 .1659851-.009765625 .22698975-.009765625 .34199525-.009765625 .4099884 .12705994 .4099884 .14404297 .4099884 .14703369 .4079895 .15802002 .3909912 .15802002 .37799073 .15802002 .37599183 .1530304 .37098695 .14103699 .33699037 .06616211 .27999879 .023223877 .23098755 .023223877 .19400025 .023223877 .19299317 .060165407 .19299317 .073150638 .19299317 .087127689 .19299317 .08912659 .19799805 .10809326L.2689972 .39065553Z"/>
<path id="font_2_8" d="M.3639984 .39356996C.34298707 .3895874 .32299806 .3755951 .32299806 .34658814 .32299806 .32058717 .34298707 .30059815 .36898805 .30059815 .394989 .30059815 .41600038 .31759645 .41600038 .34858705 .41600038 .4103546 .34599305 .4482422 .2579956 .4482422 .12998963 .4482422 .033996583 .3415985 .033996583 .2164917 .033996583 .08734131 .13798523-.0107421879 .2559967-.0107421879 .394989-.0107421879 .4269867 .11036682 .4269867 .11936951 .4269867 .13139344 .41600038 .13139344 .41299439 .13139344 .4019928 .13139344 .4019928 .12937927 .3959961 .11236572 .37298585 .043289186 .31698609 .01725769 .2659912 .01725769 .20199585 .01725769 .11999512 .06932068 .11999512 .21749878 .11999512 .3735962 .19999695 .42022706 .2599945 .42022706 .272995 .42022706 .32699586 .41825868 .3639984 .39356996Z"/>
<path id="font_2_11" d="M.48399354 .21324158C.48399354 .34423829 .37998963 .4482422 .25698854 .4482422 .12998963 .4482422 .0289917 .3412323 .0289917 .21324158 .0289917 .08824158 .1329956-.0107421879 .2559967-.0107421879 .3829956-.0107421879 .48399354 .09024048 .48399354 .21324158M.25698854 .01725769C.20698548 .01725769 .16499329 .042251588 .14199829 .08125305 .115997318 .12324524 .114990238 .17623902 .114990238 .22224427 .114990238 .25924684 .114990238 .3162384 .13999939 .35723878 .16999817 .40823365 .21998596 .42323304 .2559967 .42323304 .31298829 .42323304 .35398866 .39123536 .37399293 .35723878 .39698792 .31523133 .397995 .26423646 .397995 .22224427 .397995 .1852417 .397995 .12724304 .37298585 .08325195 .34498597 .037246705 .29899598 .01725769 .25698854 .01725769Z"/>
<path id="font_4_1" d="M.25498963 .6113434C.28199769 .651062 .33699037 .68084719 .4079895 .68084719 .5069885 .68084719 .58499148 .6163025 .58499148 .48919679 .58499148 .4690857 .58299258 .4270172 .56199648 .33992005 .5399933 .41400147 .47898866 .45703126 .3999939 .45703126 .35899354 .45703126 .269989 .4550171 .16699219 .36294557 .07299805 .2788391 .07299805 .17671204 .07299805 .16470337 .07299805 .11262512 .09799194 .068573 .13899231 .030532837 .18299866-.009490967 .23699951-.021484375 .29599-.021484375 .57598879-.021484375 .673996 .31488038 .673996 .4400177 .673996 .6013489 .5649872 .71484377 .41099549 .71484377 .23799134 .71484377 .19499207 .5843506 .19499207 .55433657 .19499207 .53834536 .20498657 .51634219 .23498535 .51634219 .27198792 .51634219 .2919922 .54833987 .2919922 .5723419 .2919922 .6043396 .26098634 .61035159 .25498963 .6113434M.29899598 .01550293C.17399597 .01550293 .1639862 .10562134 .1639862 .13265991 .1639862 .14967346 .18099976 .27583314 .22698975 .33590699 .2630005 .38197328 .31799317 .4240265 .40098573 .4240265 .5099945 .4240265 .5399933 .34391786 .5399933 .28785707 .5399933 .22377014 .47499085 .01550293 .29899598 .01550293Z"/>
<path id="font_4_6" d="M.18899536 .09024048C.21998596 .12025452 .25498963 .14927674 .30799867 .18930054 .37599183 .24133301 .41600038 .27235414 .45899964 .31237794 .5159912 .36439515 .55400088 .41740418 .55400088 .42739869 .55400088 .44140626 .5399933 .44140626 .5359955 .44140626 .526001 .44140626 .522995 .4393921 .5159912 .42840577 .49798585 .4024048 .47099305 .372406 .43899537 .372406 .4149933 .372406 .3939972 .3894043 .3809967 .40040589 .35499574 .4223938 .33198548 .44140626 .29499818 .44140626 .21099854 .44140626 .15499878 .35339356 .15499878 .32337953 .15499878 .31237794 .16299439 .30836488 .17298889 .30836488 .18598938 .30836488 .18899536 .31437684 .19198609 .32237245 .20599365 .35739137 .2619934 .36039735 .2829895 .36039735 .30899049 .36039735 .33499146 .35539247 .35499574 .35038758 .4059906 .34039308 .4169922 .34039308 .43899537 .339386 .41600038 .31736756 .3919983 .29536439 .32699586 .24633789 .24598694 .18429566 .21598816 .1612854 .17399597 .12225342 .12298584 .07623291 .07499695 .017227173 .07499695 .0042266848 .07499695-.009765625 .08999634-.009765625 .09399414-.009765625 .10398865-.009765625 .10598755-.0077667238 .11199951 .00022888184 .1519928 .053222658 .19099427 .05921936 .20698548 .05921936 .23098755 .05921936 .24798584 .04623413 .2659912 .031219483 .29599 .008224487 .31698609-.009765625 .35299684-.009765625 .46398927-.009765625 .5349884 .11225891 .5349884 .14826966 .5349884 .15727234 .526001 .16227722 .5159912 .16227722 .5019989 .16227722 .5 .15628052 .49699403 .14627075 .47698976 .0912323 .41099549 .07122803 .3639984 .07122803 .33999635 .07122803 .31599427 .07623291 .2899933 .08123779 .2599945 .0872345 .23599243 .09223938 .21199036 .09223938 .20698548 .09223938 .19799805 .09223938 .18899536 .09024048Z"/>
<path id="font_4_5" d="M.59599307 .38438417C.59799197 .39138795 .598999 .395401 .598999 .39839173 .598999 .4104004 .58999636 .43139649 .5629883 .43139649 .54599 .43139649 .5289917 .4203949 .5219879 .4064026 .5179901 .3993988 .5109863 .3683777 .5059967 .3493805L.4850006 .26634217 .45399476 .14128113C.44699098 .11326599 .44299317 .09725952 .40299989 .059249879 .3919983 .049240114 .3600006 .023223877 .31698609 .023223877 .24299622 .023223877 .24299622 .088256839 .24299622 .10626221 .24299622 .15028382 .25498963 .19529724 .29899598 .3053589 .30899049 .32936097 .31199647 .33636476 .31199647 .35437013 .31199647 .4104004 .2619934 .44140626 .21199036 .44140626 .10998535 .44140626 .06098938 .3093567 .06098938 .28733827 .06098938 .28234864 .06498718 .27334596 .07899475 .27334596 .09298706 .27334596 .09599304 .27934266 .09899902 .28834535 .1269989 .38539125 .17999268 .4084015 .20799256 .4084015 .22799683 .4084015 .23498535 .395401 .23498535 .37239076 .23498535 .3513794 .22200012 .3173523 .21099854 .29034425 .17599488 .20230103 .1639862 .15628052 .1639862 .120269779 .1639862 .025222779 .23498535-.009765625 .31298829-.009765625 .32699586-.009765625 .37399293-.009765625 .4269867 .036239625 .4139862-.01878357 .40499879-.05781555 .35699464-.109817508 .33898927-.12980652 .2939911-.1710968 .23399353-.1710968 .22499085-.1710968 .18199158-.17008972 .15899658-.14382935 .20298767-.13581848 .20899964-.09681702 .20899964-.08781433 .20899964-.060806276 .18699646-.049804689 .16799927-.049804689 .14299011-.049804689 .10998535-.06980896 .10998535-.11581421 .10998535-.16403198 .15699768-.20410156 .23498535-.20410156 .34098817-.20410156 .46899415-.12580872 .5-.00077819827L.59599307 .38438417Z"/>
<path id="font_5_1" d="M.6749878 .22944641C.69299319 .22944641 .71199038 .22944641 .71199038 .25144959 .71199038 .27246095 .69200137 .27246095 .6749878 .27246095H.12298584C.10598755 .27246095 .085998538 .27246095 .085998538 .25144959 .085998538 .22944641 .10499573 .22944641 .12298584 .22944641H.6749878Z"/>
<path id="font_2_4" d="M.3039856 .6392822C.3039856 .6642761 .30299378 .666275 .27799989 .666275 .21598816 .60227969 .12399292 .60227969 .09298706 .60227969V.57128909C.11199951 .57128909 .17298889 .57128909 .22698975 .5972748V.08001709C.22698975 .042999269 .22399903 .0309906 .1309967 .0309906H.09899902V0C.1349945 .0029907227 .22399903 .0029907227 .2649994 .0029907227 .30599977 .0029907227 .3959961 .0029907227 .43199159 0V.0309906H.3999939C.30699159 .0309906 .3039856 .042999269 .3039856 .08001709V.6392822Z"/>
<path id="font_3_2" d="M.2939911 .33203126C.3789978 .33203126 .43598939 .274765 .43598939 .17237854 .43598939 .062408449 .36999513 .014511108 .29699708 .014511108 .269989 .014511108 .16699219 .020492554 .12199402 .07836914 .16099549 .0823822 .1769867 .10836792 .1769867 .13537598 .1769867 .16937256 .15299988 .19238281 .11999512 .19238281 .09298706 .19238281 .06298828 .17536927 .06298828 .13337708 .06298828 .034469606 .17298889-.021484375 .2999878-.021484375 .44799806-.021484375 .5469971 .07337952 .5469971 .17237854 .5469971 .24562073 .4909973 .3229828 .37199403 .35302735 .45098878 .37902833 .5149994 .44306947 .5149994 .5251007 .5149994 .60505679 .42099 .66503909 .30099488 .66503909 .18399048 .66503909 .09498596 .61105349 .09498596 .5290985 .09498596 .48609925 .12799073 .47409059 .147995 .47409059 .17399597 .47409059 .20098877 .49209596 .20098877 .5270996 .20098877 .5580902 .1789856 .5760956 .1519928 .5800934 .19898987 .6320343 .2899933 .6320343 .29899598 .6320343 .34999085 .6320343 .4139862 .60806277 .4139862 .5251007 .4139862 .47009278 .3829956 .37402345 .2829895 .36802674 .2649994 .36701966 .23799134 .36502076 .22898865 .36502076 .21899414 .36402894 .20799256 .36302186 .20799256 .34802247 .20799256 .33203126 .21899414 .33203126 .23599243 .33203126H.2939911Z"/>
</defs>
<use data-text="z" xlink:href="#font_1_4" transform="matrix(8.9664,0,0,-8.966579,70.423999,9.252905)"/>
<use data-text="=" xlink:href="#font_2_7" transform="matrix(8.9664,0,0,-8.966579,77.65799,9.252905)"/>
<use data-text="x" xlink:href="#font_1_2" transform="matrix(8.9664,0,0,-8.966579,87.384998,9.252905)"/>
<use data-text="2" xlink:href="#font_3_1" transform="matrix(5.9776,0,0,-5.97772,92.608,5.4438288)"/>
<use data-text="y" xlink:href="#font_1_3" transform="matrix(8.9664,0,0,-8.966579,96.759,9.252905)"/>
<use data-text="+" xlink:href="#font_2_3" transform="matrix(8.9664,0,0,-8.966579,103.66701,9.252905)"/>
<use data-text="3" xlink:href="#font_2_6" transform="matrix(8.9664,0,0,-8.966579,112.8755,9.252905)"/>
<use data-text="x" xlink:href="#font_1_2" transform="matrix(8.9664,0,0,-8.966579,117.49101,9.252905)"/>
<use data-text="y" xlink:href="#font_1_3" transform="matrix(8.9664,0,0,-8.966579,122.70946,9.252905)"/>
<use data-text="4" xlink:href="#font_3_3" transform="matrix(5.9776,0,0,-5.97772,127.574008,5.4438288)"/>
<use data-text="x" xlink:href="#font_1_2" transform="matrix(8.9664,0,0,-8.966579,36.59099,51.056745)"/>
<use data-text="=" xlink:href="#font_2_7" transform="matrix(8.9664,0,0,-8.966579,44.374986,51.056745)"/>
<use data-text="s" xlink:href="#font_2_12" transform="matrix(8.9664,0,0,-8.966579,54.09456,51.056745)"/>
<use data-text="i" xlink:href="#font_2_9" transform="matrix(8.9664,0,0,-8.966579,57.725954,51.056745)"/>
<use data-text="n" xlink:href="#font_2_10" transform="matrix(8.9664,0,0,-8.966579,60.281373,51.056745)"/>
<use data-text="(" xlink:href="#font_2_1" transform="matrix(8.9664,0,0,-8.966579,65.39223,51.056745)"/>
<use data-text="2" xlink:href="#font_2_5" transform="matrix(8.9664,0,0,-8.966579,68.96982,51.056745)"/>
<use data-text="t" xlink:href="#font_1_1" transform="matrix(8.9664,0,0,-8.966579,73.60799,51.056745)"/>
<use data-text=")" xlink:href="#font_2_2" transform="matrix(8.9664,0,0,-8.966579,76.93599,51.056745)"/>
<path transform="matrix(1,0,0,-1.00002,101.075,6.2938458)" stroke-width=".79701" stroke-linecap="butt" stroke-miterlimit="10" stroke-linejoin="miter" fill="none" stroke="#000000" d="M-6.89272-6.8942-35.8476-35.84517"/>
<use data-text="t" xlink:href="#font_1_1" transform="matrix(8.9664,0,0,-8.966579,56.891008,94.0936)"/>
<path transform="matrix(1,0,0,-1.00002,101.075,6.2938458)" stroke-width=".79701" stroke-linecap="butt" stroke-miterlimit="10" stroke-linejoin="miter" fill="none" stroke="#000000" d="M-42.5202-49.19527-42.52019-80.09108"/>
<use data-text="d" xlink:href="#font_4_2" transform="matrix(5.9776,0,0,-5.97772,1.0839996,69.65611)"/>
<use data-text="x" xlink:href="#font_4_4" transform="matrix(5.9776,0,0,-5.97772,4.9216158,69.65611)"/>
<path transform="matrix(1,0,0,-1.00002,-186.187,81.03334)" stroke-width=".3786" stroke-linecap="butt" stroke-miterlimit="10" stroke-linejoin="miter" fill="none" stroke="#000000" d="M187.271 9.945H195.283"/>
<use data-text="d" xlink:href="#font_4_2" transform="matrix(5.9776,0,0,-5.97772,1.7450104,76.372249)"/>
<use data-text="t" xlink:href="#font_4_3" transform="matrix(5.9776,0,0,-5.97772,5.5826265,76.372249)"/>
<use data-text="=" xlink:href="#font_2_7" transform="matrix(8.9664,0,0,-8.966579,12.851013,73.329189)"/>
<use data-text="2" xlink:href="#font_2_5" transform="matrix(8.9664,0,0,-8.966579,22.570588,73.329189)"/>
<use data-text="c" xlink:href="#font_2_8" transform="matrix(8.9664,0,0,-8.966579,28.703598,73.329189)"/>
<use data-text="o" xlink:href="#font_2_11" transform="matrix(8.9664,0,0,-8.966579,32.792284,73.329189)"/>
<use data-text="s" xlink:href="#font_2_12" transform="matrix(8.9664,0,0,-8.966579,37.392045,73.329189)"/>
<use data-text="(" xlink:href="#font_2_1" transform="matrix(8.9664,0,0,-8.966579,41.023439,73.329189)"/>
<use data-text="2" xlink:href="#font_2_5" transform="matrix(8.9664,0,0,-8.966579,44.60103,73.329189)"/>
<use data-text="t" xlink:href="#font_1_1" transform="matrix(8.9664,0,0,-8.966579,49.252016,73.329189)"/>
<use data-text=")" xlink:href="#font_2_2" transform="matrix(8.9664,0,0,-8.966579,52.580018,73.329189)"/>
<use data-text="&#x2202;" xlink:href="#font_4_1" transform="matrix(5.9776,0,0,-5.97772,15.947983,18.55709)"/>
<use data-text="z" xlink:href="#font_4_6" transform="matrix(5.9776,0,0,-5.97772,20.26381,18.55709)"/>
<path transform="matrix(1,0,0,-1.00002,-171.51001,29.934319)" stroke-width=".3786" stroke-linecap="butt" stroke-miterlimit="10" stroke-linejoin="miter" fill="none" stroke="#000000" d="M187.271 9.945H195.767"/>
<use data-text="&#x2202;" xlink:href="#font_4_1" transform="matrix(5.9776,0,0,-5.97772,15.760986,25.273226)"/>
<use data-text="x" xlink:href="#font_4_4" transform="matrix(5.9776,0,0,-5.97772,20.076813,25.273226)"/>
<use data-text="=" xlink:href="#font_2_7" transform="matrix(8.9664,0,0,-8.966579,28.012986,22.230164)"/>
<use data-text="2" xlink:href="#font_2_5" transform="matrix(8.9664,0,0,-8.966579,37.73256,22.230164)"/>
<use data-text="x" xlink:href="#font_1_2" transform="matrix(8.9664,0,0,-8.966579,42.347993,22.230164)"/>
<use data-text="y" xlink:href="#font_1_3" transform="matrix(8.9664,0,0,-8.966579,47.566438,22.230164)"/>
<use data-text="+" xlink:href="#font_2_3" transform="matrix(8.9664,0,0,-8.966579,54.47899,22.230164)"/>
<use data-text="3" xlink:href="#font_2_6" transform="matrix(8.9664,0,0,-8.966579,63.687486,22.230164)"/>
<use data-text="y" xlink:href="#font_1_3" transform="matrix(8.9664,0,0,-8.966579,68.30199,22.230164)"/>
<use data-text="4" xlink:href="#font_3_3" transform="matrix(5.9776,0,0,-5.97772,73.162998,18.42109)"/>
<use data-text="y" xlink:href="#font_1_3" transform="matrix(8.9664,0,0,-8.966579,123.604,51.056745)"/>
<use data-text="=" xlink:href="#font_2_7" transform="matrix(8.9664,0,0,-8.966579,131.02399,51.056745)"/>
<use data-text="c" xlink:href="#font_2_8" transform="matrix(8.9664,0,0,-8.966579,140.74356,51.056745)"/>
<use data-text="o" xlink:href="#font_2_11" transform="matrix(8.9664,0,0,-8.966579,144.83225,51.056745)"/>
<use data-text="s" xlink:href="#font_2_12" transform="matrix(8.9664,0,0,-8.966579,149.432,51.056745)"/>
<use data-text="(" xlink:href="#font_2_1" transform="matrix(8.9664,0,0,-8.966579,153.06342,51.056745)"/>
<use data-text="t" xlink:href="#font_1_1" transform="matrix(8.9664,0,0,-8.966579,156.67398,51.056745)"/>
<use data-text=")" xlink:href="#font_2_2" transform="matrix(8.9664,0,0,-8.966579,160.00199,51.056745)"/>
<path transform="matrix(1,0,0,-1.00002,101.075,6.2938458)" stroke-width=".79701" stroke-linecap="butt" stroke-miterlimit="10" stroke-linejoin="miter" fill="none" stroke="#000000" d="M6.89272-6.8942 35.84764-35.84517"/>
<use data-text="t" xlink:href="#font_1_1" transform="matrix(8.9664,0,0,-8.966579,141.931,94.0936)"/>
<path transform="matrix(1,0,0,-1.00002,101.075,6.2938458)" stroke-width=".79701" stroke-linecap="butt" stroke-miterlimit="10" stroke-linejoin="miter" fill="none" stroke="#000000" d="M42.52025-49.19527 42.52026-80.09108"/>
<use data-text="d" xlink:href="#font_4_2" transform="matrix(5.9776,0,0,-5.97772,147.18199,69.50711)"/>
<use data-text="y" xlink:href="#font_4_5" transform="matrix(5.9776,0,0,-5.97772,151.0196,69.50711)"/>
<path transform="matrix(1,0,0,-1.00002,-40.089,81.18234)" stroke-width=".3786" stroke-linecap="butt" stroke-miterlimit="10" stroke-linejoin="miter" fill="none" stroke="#000000" d="M187.271 9.945H195.11"/>
<use data-text="d" xlink:href="#font_4_2" transform="matrix(5.9776,0,0,-5.97772,147.756,76.52125)"/>
<use data-text="t" xlink:href="#font_4_3" transform="matrix(5.9776,0,0,-5.97772,151.59362,76.52125)"/>
<use data-text="=" xlink:href="#font_2_7" transform="matrix(8.9664,0,0,-8.966579,158.776,73.47819)"/>
<use data-text="&#x2212;" xlink:href="#font_5_1" transform="matrix(8.9664,0,0,-8.966579,168.504,73.47819)"/>
<use data-text="s" xlink:href="#font_2_12" transform="matrix(8.9664,0,0,-8.966579,177.207,73.47819)"/>
<use data-text="i" xlink:href="#font_2_9" transform="matrix(8.9664,0,0,-8.966579,180.8384,73.47819)"/>
<use data-text="n" xlink:href="#font_2_10" transform="matrix(8.9664,0,0,-8.966579,183.39382,73.47819)"/>
<use data-text="(" xlink:href="#font_2_1" transform="matrix(8.9664,0,0,-8.966579,188.50467,73.47819)"/>
<use data-text="t" xlink:href="#font_1_1" transform="matrix(8.9664,0,0,-8.966579,192.105,73.47819)"/>
<use data-text=")" xlink:href="#font_2_2" transform="matrix(8.9664,0,0,-8.966579,195.433,73.47819)"/>
<use data-text="&#x2202;" xlink:href="#font_4_1" transform="matrix(5.9776,0,0,-5.97772,126.132,17.39507)"/>
<use data-text="z" xlink:href="#font_4_6" transform="matrix(5.9776,0,0,-5.97772,130.44783,17.39507)"/>
<path transform="matrix(1,0,0,-1.00002,-61.239,28.772297)" stroke-width=".3786" stroke-linecap="butt" stroke-miterlimit="10" stroke-linejoin="miter" fill="none" stroke="#000000" d="M187.271 9.945H195.594"/>
<use data-text="&#x2202;" xlink:href="#font_4_1" transform="matrix(5.9776,0,0,-5.97772,126.032,24.111205)"/>
<use data-text="y" xlink:href="#font_4_5" transform="matrix(5.9776,0,0,-5.97772,130.34783,24.111205)"/>
<use data-text="=" xlink:href="#font_2_7" transform="matrix(8.9664,0,0,-8.966579,138.111,21.068142)"/>
<use data-text="x" xlink:href="#font_1_2" transform="matrix(8.9664,0,0,-8.966579,147.838,21.068142)"/>
<use data-text="2" xlink:href="#font_3_1" transform="matrix(5.9776,0,0,-5.97772,153.062,17.259068)"/>
<use data-text="+" xlink:href="#font_2_3" transform="matrix(8.9664,0,0,-8.966579,159.26,21.068142)"/>
<use data-text="1" xlink:href="#font_2_4" transform="matrix(8.9664,0,0,-8.966579,168.46849,21.068142)"/>
<use data-text="2" xlink:href="#font_2_5" transform="matrix(8.9664,0,0,-8.966579,173.06826,21.068142)"/>
<use data-text="x" xlink:href="#font_1_2" transform="matrix(8.9664,0,0,-8.966579,177.691,21.068142)"/>
<use data-text="y" xlink:href="#font_1_3" transform="matrix(8.9664,0,0,-8.966579,182.90944,21.068142)"/>
<use data-text="3" xlink:href="#font_3_2" transform="matrix(5.9776,0,0,-5.97772,187.775,17.259068)"/>
</svg>
