<svg xmlns="http://www.w3.org/2000/svg" xmlns:xlink="http://www.w3.org/1999/xlink" xmlns:inkscape="http://www.inkscape.org/namespaces/inkscape" version="1.1" width="196" height="93" viewBox="0 0 196 93">
<defs>
<path id="font_1_5" d="M.13899231 .08526611C.1599884 .11027527 .21499634 .16029358 .2579956 .19630432 .33198548 .25933839 .35499574 .28134156 .36799623 .29534913 .44999696 .3743744 .47698976 .42536927 .47698976 .43138124 .47698976 .43237306 .47698976 .4423828 .46398927 .4423828 .45498658 .4423828 .45298768 .43937684 .44799806 .43138124 .43499757 .41137696 .4079895 .3683777 .37399293 .3683777 .35398866 .3683777 .34098817 .37937928 .31799317 .40538026 .2939911 .43138124 .2749939 .4423828 .24899292 .4423828 .17199707 .4423828 .125 .3503723 .125 .32536317 .125 .32235719 .1269989 .3143463 .13798523 .3143463 .147995 .3143463 .15098572 .32035829 .1519928 .32336427 .17098999 .3713684 .22999573 .3713684 .23799134 .3713684 .26098634 .3713684 .2849884 .36437989 .30699159 .35636903 .34700013 .34336854 .3639984 .34336854 .3789978 .34336854 .34799195 .3083496 .2919922 .2603302 .22898865 .20631409 .1789856 .16329956 .147995 .13328552 .12599182 .11126709 .08898926 .072250369 .04399109 .011245728 .04399109 .00024414063 .04399109-.0067443849 .04899597-.0107421879 .056991579-.0107421879 .06599426-.0107421879 .067993167-.0067443849 .07299805-.00074768069 .11199951 .059249879 .14898682 .06324768 .1599884 .06324768 .18499756 .06324768 .19898987 .04824829 .22099304 .022247315 .24398804-.002746582 .2659912-.0107421879 .28599549-.0107421879 .3889923-.0107421879 .44898988 .11727905 .44898988 .14428711 .44898988 .1532898 .44198609 .15629578 .43499757 .15629578 .4249878 .15629578 .4229889 .14929199 .42099 .14527893 .3939972 .071258548 .32299806 .060256959 .29699708 .060256959 .27799989 .060256959 .2579956 .06524658 .22799683 .07525635 .20799256 .08125305 .18399048 .088256839 .16299439 .088256839 .15299988 .088256839 .14299011 .086257938 .13899231 .08526611Z"/>
<path id="font_1_3" d="M.49198915 .40434266C.45498658 .39733888 .44400025 .3653412 .44400025 .3503418 .44400025 .33132936 .45799256 .31433106 .48298646 .31433106 .5109863 .31433106 .5379944 .33833314 .5379944 .3733368 .5379944 .41937257 .48799134 .4423828 .44099427 .4423828 .3809967 .4423828 .34599305 .38934327 .33399964 .3683319 .31498719 .41737367 .2709961 .4423828 .22299195 .4423828 .115997318 .4423828 .057998659 .31433106 .057998659 .28833009 .057998659 .2793274 .06498718 .2763214 .07199097 .2763214 .08099365 .2763214 .083999637 .2813263 .085998538 .287323 .116989139 .38633729 .18299866 .41737367 .22099304 .41737367 .25 .41737367 .27598573 .3983307 .27598573 .35133363 .27598573 .31533814 .23298645 .15530396 .21998596 .107284549 .21199036 .076293949 .18199158 .014251709 .1269989 .014251709 .10699463 .014251709 .085998538 .021270752 .07598877 .027282715 .102996829 .032287599 .12298584 .055282594 .12298584 .08128357 .12298584 .106292728 .10398865 .11729431 .084991458 .11729431 .055999757 .11729431 .02999878 .092285159 .02999878 .058288576 .02999878 .009246826 .083999637-.0107421879 .12599182-.0107421879 .18399048-.0107421879 .21798706 .03729248 .23298645 .06428528 .2579956-.0017547608 .31698609-.0107421879 .34399415-.0107421879 .45199586-.0107421879 .5089874 .11929321 .5089874 .14329529 .5089874 .14830017 .5059967 .15530396 .49598695 .15530396 .4850006 .15530396 .48399354 .1512909 .47898866 .1362915 .45700074 .06428528 .39898683 .014251709 .34700013 .014251709 .31799317 .014251709 .29100038 .032287599 .29100038 .08029175 .29100038 .10229492 .30499269 .15730286 .31399537 .1953125 .31799317 .21331787 .34498597 .32133485 .34700013 .32833863 .35899354 .3643341 .3889923 .41737367 .43998719 .41737367 .45799256 .41737367 .47698976 .41436769 .49198915 .40434266Z"/>
<path id="font_1_1" d="M.39698792 .37402345C.35398866 .37001039 .34999085 .3360138 .34999085 .32901 .34999085 .31201173 .36299134 .29901124 .38198854 .29901124 .4099884 .29901124 .42900086 .32202149 .42900086 .355011 .42900086 .40527345 .37998963 .4423828 .30599977 .4423828 .17199707 .4423828 .13398743 .3420105 .13398743 .2960205 .13398743 .25810243 .15299988 .23814392 .1659851 .22616577 .18598938 .2071991 .21299744 .20121765 .24899292 .19422913 .2939911 .1852417 .3039856 .18325806 .32199098 .17027283 .33799745 .15830994 .34700013 .14231873 .34700013 .12130737 .34700013 .0953064 .32299806 .014251709 .20199585 .014251709 .1789856 .014251709 .10899353 .01725769 .08699036 .063308719 .13699341 .063308719 .14698792 .10331726 .14698792 .11730957 .14698792 .14730835 .11999512 .15332031 .10899353 .15332031 .09098816 .15332031 .052993776 .13931275 .052993776 .08731079 .052993776 .025268555 .115997318-.0107421879 .20098877-.0107421879 .36898805-.0107421879 .4059906 .11231995 .4059906 .15530396 .4059906 .1932373 .3849945 .21717835 .37298585 .2291565 .34700013 .25610353 .31498719 .26208497 .27999879 .2690735 .2679901 .2720642 .24598694 .276062 .24299622 .27705384 .20999146 .28404237 .19198609 .3040161 .19198609 .32901 .19198609 .3400116 .19898987 .37200929 .22698975 .3941803 .25498963 .41636659 .29299928 .41737367 .30599977 .41737367 .34098817 .41737367 .38198854 .40628053 .39698792 .37402345Z"/>
<path id="font_2_1" d="M.25498963 .6113434C.28199769 .651062 .33699037 .68084719 .4079895 .68084719 .5069885 .68084719 .58499148 .6163025 .58499148 .48919679 .58499148 .4690857 .58299258 .4270172 .56199648 .33992005 .5399933 .41400147 .47898866 .45703126 .3999939 .45703126 .35899354 .45703126 .269989 .4550171 .16699219 .36294557 .07299805 .2788391 .07299805 .17671204 .07299805 .16470337 .07299805 .11262512 .09799194 .068573 .13899231 .030532837 .18299866-.009490967 .23699951-.021484375 .29599-.021484375 .57598879-.021484375 .673996 .31488038 .673996 .4400177 .673996 .6013489 .5649872 .71484377 .41099549 .71484377 .23799134 .71484377 .19499207 .5843506 .19499207 .55433657 .19499207 .53834536 .20498657 .51634219 .23498535 .51634219 .27198792 .51634219 .2919922 .54833987 .2919922 .5723419 .2919922 .6043396 .26098634 .61035159 .25498963 .6113434M.29899598 .01550293C.17399597 .01550293 .1639862 .10562134 .1639862 .13265991 .1639862 .14967346 .18099976 .27583314 .22698975 .33590699 .2630005 .38197328 .31799317 .4240265 .40098573 .4240265 .5099945 .4240265 .5399933 .34391786 .5399933 .28785707 .5399933 .22377014 .47499085 .01550293 .29899598 .01550293Z"/>
<path id="font_2_4" d="M.5629883 .39352418C.5279999 .38352967 .519989 .3545227 .519989 .33952333 .519989 .30752564 .54599 .30052186 .55999758 .30052186 .58898928 .30052186 .6179962 .32452394 .6179962 .3635254 .6179962 .41740418 .5589905 .44140626 .5079956 .44140626 .44198609 .44140626 .4019928 .3905182 .3909912 .371521 .37799073 .39649964 .33999635 .44140626 .2649994 .44140626 .1499939 .44140626 .08198547 .32252503 .08198547 .28749085 .08198547 .2824707 .085998538 .27345277 .099990848 .27345277 .11399841 .27345277 .116989139 .27946473 .11999512 .28848268 .14498902 .3695221 .21299744 .4084015 .2619934 .4084015 .31098939 .4084015 .32598878 .37652589 .32598878 .34352113 .32598878 .3315277 .32598878 .32252503 .31799317 .29148866 .29499818 .19825745 .272995 .10707092 .2679901 .095077518 .25299073 .05708313 .21699524 .023223877 .1749878 .023223877 .16899109 .023223877 .14099121 .023223877 .117996219 .038085939 .15699768 .051071168 .16099549 .08407593 .16099549 .09207153 .16099549 .11807251 .14099121 .13108826 .12098694 .13108826 .09298706 .13108826 .06298828 .10908508 .06298828 .06808472 .06298828 .011230469 .12599182-.009765625 .17298889-.009765625 .22999573-.009765625 .2709961 .029159546 .2899933 .060073854 .30999757 .018234253 .35798646-.009765625 .4149933-.009765625 .5329895-.009765625 .598999 .111083988 .598999 .14411927 .598999 .14611817 .59799197 .15815735 .5799866 .15815735 .56599429 .15815735 .56399539 .1511383 .5609894 .1421051 .5319977 .05508423 .46099855 .023223877 .4189911 .023223877 .3809967 .023223877 .35398866 .045074464 .35398866 .08708191 .35398866 .1060791 .35899354 .12808228 .36799623 .16316223L.3999939 .2935028C.4099884 .33251954 .4149933 .3505249 .43598939 .37452699 .44999696 .38952638 .47399903 .4084015 .5059967 .4084015 .5109863 .4084015 .54100039 .4084015 .5629883 .39352418Z"/>
<path id="font_2_2" d="M.45700074 .37594605C.42799378 .36894227 .4169922 .34394837 .4169922 .32894898 .4169922 .3129425 .42900086 .2959442 .45199586 .2959442 .47200013 .2959442 .5009918 .30995179 .5009918 .35295106 .5009918 .4203949 .4249878 .44140626 .3600006 .44140626 .20698548 .44140626 .16999817 .33995057 .16999817 .2969513 .16999817 .21612549 .2619934 .2001648 .28799439 .19616699 .36299134 .18319702 .42099 .17222595 .42099 .1232605 .42099 .102264408 .4039917 .06626892 .36799623 .04624939 .32899476 .025222779 .28599549 .023223877 .25698854 .023223877 .22200012 .023223877 .1599884 .027236939 .1309967 .060272218 .1659851 .06626892 .18299866 .09326172 .18299866 .117263797 .18299866 .13825989 .16899109 .15527344 .14199829 .15527344 .115997318 .15527344 .083999637 .13426209 .083999637 .087265018 .083999637 .03224182 .13899231-.009765625 .2559967-.009765625 .44299317-.009765625 .48298646 .10626221 .48298646 .15226746 .48298646 .18519593 .46899415 .20814514 .44599916 .22810364 .4139862 .25604249 .3769989 .26202394 .32899476 .27000428 .27999879 .27897645 .23199463 .28697206 .23199463 .325943 .23199463 .32695008 .23199463 .40838624 .35899354 .40838624 .38398744 .40838624 .43399049 .4043274 .45700074 .37594605Z"/>
<path id="font_1_2" d="M.21299744 .3996582H.30799867C.32598878 .3996582 .33799745 .3996582 .33799745 .41766358 .33799745 .43066407 .32798768 .43066407 .30999757 .43066407H.22099304L.2619934 .59646609C.2619934 .6124573 .24899292 .62545779 .23098755 .62545779 .19898987 .62545779 .19099427 .59646609 .18899536 .5864868L.14898682 .43066407H.054992677C.035995485 .43066407 .023986817 .43066407 .023986817 .4126587 .023986817 .3996582 .034988405 .3996582 .052993776 .3996582H.14199829L.07398987 .12808228C.06599426 .09811401 .06599426 .09613037 .06599426 .08215332 .06599426 .023239136 .11099243-.0107421879 .16299439-.0107421879 .2669983-.0107421879 .32598878 .1330719 .32598878 .14305115 .32598878 .14804077 .32299806 .1550293 .31298829 .1550293 .30299378 .1550293 .3019867 .15203858 .29499818 .1350708 .2639923 .06317139 .21398926 .014251709 .16499329 .014251709 .14498902 .014251709 .1329956 .027236939 .1329956 .060180665 .1329956 .08215332 .13598633 .09413147 .13999939 .10910034L.21299744 .3996582Z"/>
<path id="font_2_3" d="M.2689972 .39065553H.37799073C.397995 .39065553 .4119873 .39065553 .4119873 .4156494 .4119873 .43066407 .39898683 .43066407 .3809967 .43066407H.2789917L.31399537 .5685272C.31799317 .58351138 .31799317 .5894928 .31799317 .5904999 .31799317 .6144867 .29899598 .6244812 .2829895 .6244812 .2709961 .6244812 .24499512 .6174774 .23599243 .58551028L.19699097 .43066407H.08898926C.067993167 .43066407 .066986087 .42965699 .06298828 .426651 .057998659 .4226532 .053985597 .4096527 .053985597 .4046631 .056991579 .39065553 .06599426 .39065553 .085998538 .39065553H.18699646L.12799073 .15501404C.12199402 .13204956 .11399841 .09811401 .11399841 .086120609 .11399841 .028213501 .1659851-.009765625 .22698975-.009765625 .34199525-.009765625 .4099884 .12705994 .4099884 .14404297 .4099884 .14703369 .4079895 .15802002 .3909912 .15802002 .37799073 .15802002 .37599183 .1530304 .37098695 .14103699 .33699037 .06616211 .27999879 .023223877 .23098755 .023223877 .19400025 .023223877 .19299317 .060165407 .19299317 .073150638 .19299317 .087127689 .19299317 .08912659 .19799805 .10809326L.2689972 .39065553Z"/>
<path id="font_2_6" d="M.18899536 .09024048C.21998596 .12025452 .25498963 .14927674 .30799867 .18930054 .37599183 .24133301 .41600038 .27235414 .45899964 .31237794 .5159912 .36439515 .55400088 .41740418 .55400088 .42739869 .55400088 .44140626 .5399933 .44140626 .5359955 .44140626 .526001 .44140626 .522995 .4393921 .5159912 .42840577 .49798585 .4024048 .47099305 .372406 .43899537 .372406 .4149933 .372406 .3939972 .3894043 .3809967 .40040589 .35499574 .4223938 .33198548 .44140626 .29499818 .44140626 .21099854 .44140626 .15499878 .35339356 .15499878 .32337953 .15499878 .31237794 .16299439 .30836488 .17298889 .30836488 .18598938 .30836488 .18899536 .31437684 .19198609 .32237245 .20599365 .35739137 .2619934 .36039735 .2829895 .36039735 .30899049 .36039735 .33499146 .35539247 .35499574 .35038758 .4059906 .34039308 .4169922 .34039308 .43899537 .339386 .41600038 .31736756 .3919983 .29536439 .32699586 .24633789 .24598694 .18429566 .21598816 .1612854 .17399597 .12225342 .12298584 .07623291 .07499695 .017227173 .07499695 .0042266848 .07499695-.009765625 .08999634-.009765625 .09399414-.009765625 .10398865-.009765625 .10598755-.0077667238 .11199951 .00022888184 .1519928 .053222658 .19099427 .05921936 .20698548 .05921936 .23098755 .05921936 .24798584 .04623413 .2659912 .031219483 .29599 .008224487 .31698609-.009765625 .35299684-.009765625 .46398927-.009765625 .5349884 .11225891 .5349884 .14826966 .5349884 .15727234 .526001 .16227722 .5159912 .16227722 .5019989 .16227722 .5 .15628052 .49699403 .14627075 .47698976 .0912323 .41099549 .07122803 .3639984 .07122803 .33999635 .07122803 .31599427 .07623291 .2899933 .08123779 .2599945 .0872345 .23599243 .09223938 .21199036 .09223938 .20698548 .09223938 .19799805 .09223938 .18899536 .09024048Z"/>
<path id="font_1_4" d="M.5019989 .38536073C.5029907 .3903656 .5049896 .39637757 .5049896 .40237428 .5049896 .41537477 .49598695 .43138124 .47399903 .43138124 .46099855 .43138124 .44299317 .42337037 .43499757 .40437318 .43399049 .40037538 .42399598 .35935975 .41799928 .33735658L.36799623 .13728333C.3600006 .10827637 .3600006 .106277469 .35798646 .09727478 .35699464 .09327698 .31498719 .014251709 .24299622 .014251709 .18099976 .014251709 .18099976 .07727051 .18099976 .09628296 .18099976 .14129639 .19400025 .19030762 .23699951 .30233766 .24499512 .3253479 .25099183 .33935548 .25099183 .35835267 .25099183 .40737916 .21398926 .4423828 .16499329 .4423828 .068984989 .4423828 .0289917 .30033876 .0289917 .28833009 .0289917 .2793274 .035995485 .27633668 .042999269 .27633668 .053985597 .27633668 .054992677 .28233338 .05899048 .29533387 .07998657 .3693695 .11999512 .41737367 .1619873 .41737367 .18598938 .41737367 .18598938 .39837647 .18598938 .3843689 .18598938 .36735536 .18199158 .34934999 .17298889 .3253479 .12599182 .2013092 .11299133 .15930176 .11299133 .11128235 .11299133 .00024414063 .20298767-.0107421879 .23999024-.0107421879 .2889862-.0107421879 .32398988 .01524353 .34199525 .0332489 .32899476-.017745972 .31799317-.0627594 .2789917-.11276245 .24899292-.15286255 .20899964-.18008423 .16499329-.18008423 .13699341-.18008423 .10398865-.16999817 .08999634-.14176941 .14299011-.14176941 .1499939-.09776306 .1499939-.087768558 .1499939-.06576538 .13398743-.051757814 .11199951-.051757814 .08799744-.051757814 .055999757-.07077026 .055999757-.116760257 .055999757-.16899109 .101989749-.20507813 .16499329-.20507813 .2669983-.20507813 .37599183-.117767337 .40499879-.00074768069L.5019989 .38536073Z"/>
<path id="font_2_5" d="M.59599307 .38438417C.59799197 .39138795 .598999 .395401 .598999 .39839173 .598999 .4104004 .58999636 .43139649 .5629883 .43139649 .54599 .43139649 .5289917 .4203949 .5219879 .4064026 .5179901 .3993988 .5109863 .3683777 .5059967 .3493805L.4850006 .26634217 .45399476 .14128113C.44699098 .11326599 .44299317 .09725952 .40299989 .059249879 .3919983 .049240114 .3600006 .023223877 .31698609 .023223877 .24299622 .023223877 .24299622 .088256839 .24299622 .10626221 .24299622 .15028382 .25498963 .19529724 .29899598 .3053589 .30899049 .32936097 .31199647 .33636476 .31199647 .35437013 .31199647 .4104004 .2619934 .44140626 .21199036 .44140626 .10998535 .44140626 .06098938 .3093567 .06098938 .28733827 .06098938 .28234864 .06498718 .27334596 .07899475 .27334596 .09298706 .27334596 .09599304 .27934266 .09899902 .28834535 .1269989 .38539125 .17999268 .4084015 .20799256 .4084015 .22799683 .4084015 .23498535 .395401 .23498535 .37239076 .23498535 .3513794 .22200012 .3173523 .21099854 .29034425 .17599488 .20230103 .1639862 .15628052 .1639862 .120269779 .1639862 .025222779 .23498535-.009765625 .31298829-.009765625 .32699586-.009765625 .37399293-.009765625 .4269867 .036239625 .4139862-.01878357 .40499879-.05781555 .35699464-.109817508 .33898927-.12980652 .2939911-.1710968 .23399353-.1710968 .22499085-.1710968 .18199158-.17008972 .15899658-.14382935 .20298767-.13581848 .20899964-.09681702 .20899964-.08781433 .20899964-.060806276 .18699646-.049804689 .16799927-.049804689 .14299011-.049804689 .10998535-.06980896 .10998535-.11581421 .10998535-.16403198 .15699768-.20410156 .23498535-.20410156 .34098817-.20410156 .46899415-.12580872 .5-.00077819827L.59599307 .38438417Z"/>
</defs>
<use data-text="z" xlink:href="#font_1_5" transform="matrix(8.966669,0,0,-8.9664,95.6624,5.453)"/>
<use data-text="x" xlink:href="#font_1_3" transform="matrix(8.966669,0,0,-8.9664,31.605469,47.973)"/>
<path transform="matrix(1.00003,0,0,-1,97.999469,3.5229998)" stroke-width=".79701" stroke-linecap="butt" stroke-miterlimit="10" stroke-linejoin="miter" fill="none" stroke="#000000" d="M-4.52852-3.01895-58.97675-39.3201"/>
<use data-text="s" xlink:href="#font_1_1" transform="matrix(8.966669,0,0,-8.9664,.8885498,90.494)"/>
<path transform="matrix(1.00003,0,0,-1,97.999469,3.5229998)" stroke-width=".79701" stroke-linecap="butt" stroke-miterlimit="10" stroke-linejoin="miter" fill="none" stroke="#000000" d="M-66.80255-46.64229-91.94002-80.91837"/>
<use data-text="&#x2202;" xlink:href="#font_2_1" transform="matrix(5.97778,0,0,-5.9776,6.5427248,66.02)"/>
<use data-text="x" xlink:href="#font_2_4" transform="matrix(5.97778,0,0,-5.9776,10.858673,66.02)"/>
<path transform="matrix(1.00003,0,0,-1,-176.65479,80.171)" stroke-width=".3786" stroke-linecap="butt" stroke-miterlimit="10" stroke-linejoin="miter" fill="none" stroke="#000000" d="M183.192 12.719H191.688"/>
<use data-text="&#x2202;" xlink:href="#font_2_1" transform="matrix(5.97778,0,0,-5.9776,6.881729,72.736)"/>
<use data-text="s" xlink:href="#font_2_2" transform="matrix(5.97778,0,0,-5.9776,11.197693,72.736)"/>
<use data-text="t" xlink:href="#font_1_2" transform="matrix(8.966669,0,0,-8.9664,63.735437,91.321)"/>
<path transform="matrix(1.00003,0,0,-1,97.999469,3.5229998)" stroke-width=".79701" stroke-linecap="butt" stroke-miterlimit="10" stroke-linejoin="miter" fill="none" stroke="#000000" d="M-60.75883-46.64229-36.22702-80.09108"/>
<use data-text="&#x2202;" xlink:href="#font_2_1" transform="matrix(5.97778,0,0,-5.9776,53.092134,65.607)"/>
<use data-text="x" xlink:href="#font_2_4" transform="matrix(5.97778,0,0,-5.9776,57.40808,65.607)"/>
<path transform="matrix(1.00003,0,0,-1,-130.10538,79.758)" stroke-width=".3786" stroke-linecap="butt" stroke-miterlimit="10" stroke-linejoin="miter" fill="none" stroke="#000000" d="M183.192 12.719H191.688"/>
<use data-text="&#x2202;" xlink:href="#font_2_1" transform="matrix(5.97778,0,0,-5.9776,53.75215,72.323009)"/>
<use data-text="t" xlink:href="#font_2_3" transform="matrix(5.97778,0,0,-5.9776,58.0681,72.323009)"/>
<use data-text="&#x2202;" xlink:href="#font_2_1" transform="matrix(5.97778,0,0,-5.9776,54.349168,15.585)"/>
<use data-text="z" xlink:href="#font_2_6" transform="matrix(5.97778,0,0,-5.9776,58.66513,15.585)"/>
<path transform="matrix(1.00003,0,0,-1,-129.03435,29.736)" stroke-width=".3786" stroke-linecap="butt" stroke-miterlimit="10" stroke-linejoin="miter" fill="none" stroke="#000000" d="M183.192 12.719H191.688"/>
<use data-text="&#x2202;" xlink:href="#font_2_1" transform="matrix(5.97778,0,0,-5.9776,54.163164,22.301)"/>
<use data-text="x" xlink:href="#font_2_4" transform="matrix(5.97778,0,0,-5.9776,58.47911,22.301)"/>
<use data-text="y" xlink:href="#font_1_4" transform="matrix(8.966669,0,0,-8.9664,159.3513,47.101999)"/>
<path transform="matrix(1.00003,0,0,-1,97.999469,3.5229998)" stroke-width=".79701" stroke-linecap="butt" stroke-miterlimit="10" stroke-linejoin="miter" fill="none" stroke="#000000" d="M4.52852-3.0173 59.15843-39.4411"/>
<use data-text="s" xlink:href="#font_1_1" transform="matrix(8.966669,0,0,-8.9664,128.45238,90.494)"/>
<path transform="matrix(1.00003,0,0,-1,97.999469,3.5229998)" stroke-width=".79701" stroke-linecap="butt" stroke-miterlimit="10" stroke-linejoin="miter" fill="none" stroke="#000000" d="M60.11899-47.51404 35.62067-80.91837"/>
<use data-text="&#x2202;" xlink:href="#font_2_1" transform="matrix(5.97778,0,0,-5.9776,133.96056,66.307)"/>
<use data-text="y" xlink:href="#font_2_5" transform="matrix(5.97778,0,0,-5.9776,138.2765,66.307)"/>
<path transform="matrix(1.00003,0,0,-1,-49.236955,80.756)" stroke-width=".3786" stroke-linecap="butt" stroke-miterlimit="10" stroke-linejoin="miter" fill="none" stroke="#000000" d="M183.192 12.719H191.515"/>
<use data-text="&#x2202;" xlink:href="#font_2_1" transform="matrix(5.97778,0,0,-5.9776,134.21256,73.321)"/>
<use data-text="s" xlink:href="#font_2_2" transform="matrix(5.97778,0,0,-5.9776,138.52852,73.321)"/>
<use data-text="t" xlink:href="#font_1_2" transform="matrix(8.966669,0,0,-8.9664,191.30027,91.321)"/>
<path transform="matrix(1.00003,0,0,-1,97.999469,3.5229998)" stroke-width=".79701" stroke-linecap="butt" stroke-miterlimit="10" stroke-linejoin="miter" fill="none" stroke="#000000" d="M67.44083-47.51404 91.33366-80.09108"/>
<use data-text="&#x2202;" xlink:href="#font_2_1" transform="matrix(5.97778,0,0,-5.9776,180.97597,65.894008)"/>
<use data-text="y" xlink:href="#font_2_5" transform="matrix(5.97778,0,0,-5.9776,185.29192,65.894008)"/>
<path transform="matrix(1.00003,0,0,-1,-2.2215424,80.343)" stroke-width=".3786" stroke-linecap="butt" stroke-miterlimit="10" stroke-linejoin="miter" fill="none" stroke="#000000" d="M183.192 12.719H191.515"/>
<use data-text="&#x2202;" xlink:href="#font_2_1" transform="matrix(5.97778,0,0,-5.9776,181.54999,72.908008)"/>
<use data-text="t" xlink:href="#font_2_3" transform="matrix(5.97778,0,0,-5.9776,185.86594,72.908008)"/>
<use data-text="&#x2202;" xlink:href="#font_2_1" transform="matrix(5.97778,0,0,-5.9776,133.53156,14.481999)"/>
<use data-text="z" xlink:href="#font_2_6" transform="matrix(5.97778,0,0,-5.9776,137.8475,14.481999)"/>
<path transform="matrix(1.00003,0,0,-1,-49.76597,28.633)" stroke-width=".3786" stroke-linecap="butt" stroke-miterlimit="10" stroke-linejoin="miter" fill="none" stroke="#000000" d="M183.192 12.719H191.515"/>
<use data-text="&#x2202;" xlink:href="#font_2_1" transform="matrix(5.97778,0,0,-5.9776,133.43155,21.198)"/>
<use data-text="y" xlink:href="#font_2_5" transform="matrix(5.97778,0,0,-5.9776,137.7475,21.198)"/>
</svg>
