<svg xmlns="http://www.w3.org/2000/svg" xmlns:xlink="http://www.w3.org/1999/xlink" xmlns:inkscape="http://www.inkscape.org/namespaces/inkscape" version="1.1" width="237" height="196" viewBox="0 0 237 196">
<defs>
<path id="font_1_4" d="M.13198853 .327713V.35173036C.13198853 .6047821 .2559967 .64100649 .30699159 .64100649 .33099366 .64100649 .37298585 .634964 .394989 .6007538 .37998963 .6007538 .33999635 .6007538 .33999635 .5557556 .33999635 .524765 .3639984 .5097656 .38598634 .5097656 .4019928 .5097656 .43199159 .51875308 .43199159 .5577545 .43199159 .6178589 .3880005 .6660156 .30499269 .6660156 .1769867 .6660156 .041992189 .5367584 .041992189 .31570436 .041992189 .048553468 .1579895-.022460938 .25099183-.022460938 .3619995-.022460938 .45700074 .07156372 .45700074 .2036438 .45700074 .33070375 .36799623 .4267578 .25698854 .4267578 .18899536 .4267578 .1519928 .37573243 .13198853 .327713M.25099183 .0055389406C.18798828 .0055389406 .1579895 .06556702 .1519928 .080566409 .13398743 .127594 .13398743 .2076416 .13398743 .22564698 .13398743 .30369569 .1659851 .40374757 .2559967 .40374757 .27198792 .40374757 .31799317 .40374757 .34899903 .34172059 .36698915 .30470277 .36698915 .2536621 .36698915 .20463562 .36698915 .15661621 .36698915 .10658264 .34999085 .0705719 .31999208 .010528564 .27398683 .0055389406 .25099183 .0055389406Z"/>
<path id="font_1_5" d="M.47599793 .609375C.4850006 .6213684 .4850006 .62338259 .4850006 .64437869H.24198914C.11999512 .64437869 .117996219 .65737918 .11399841 .67637637H.08898926L.055999757 .4702301H.08099365C.083999637 .48625184 .09298706 .5493469 .10598755 .56137087 .11299133 .5673828 .19099427 .5673828 .20399475 .5673828H.41099549C.3999939 .5513611 .32099916 .4421997 .29899598 .40914918 .20899964 .27394105 .17599488 .1347351 .17599488 .032577516 .17599488 .022567749 .17599488-.022460938 .22200012-.022460938 .2679901-.022460938 .2679901 .022567749 .2679901 .032577516V.08366394C.2679901 .13873291 .2709961 .19381714 .2789917 .24790955 .2829895 .27093507 .29699708 .35707093 .34098817 .41915895L.47599793 .609375Z"/>
<path id="font_1_6" d="M.16299439 .4569702C.116989139 .486969 .11299133 .52098086 .11299133 .5379791 .11299133 .598999 .17799378 .64100649 .24899292 .64100649 .32199098 .64100649 .38598634 .58898928 .38598634 .51698306 .38598634 .45996095 .34700013 .4119568 .2869873 .37695313L.16299439 .4569702M.30899049 .36193849C.3809967 .3989563 .42999269 .45095826 .42999269 .51698306 .42999269 .6090088 .34098817 .6660156 .25 .6660156 .1499939 .6660156 .068984989 .59199526 .068984989 .49897767 .068984989 .4809723 .070999149 .43595887 .11299133 .38894654 .12399292 .37695313 .16099549 .35194398 .18598938 .33494569 .12799073 .30592347 .041992189 .24984741 .041992189 .15072632 .041992189 .04458618 .14399719-.022460938 .24899292-.022460938 .3619995-.022460938 .45700074 .06060791 .45700074 .16773987 .45700074 .20379639 .44599916 .24885559 .4079895 .2909088 .3889923 .31193543 .37298585 .3219452 .30899049 .36193849M.20899964 .3199463 .33198548 .24183655C.3600006 .2228241 .40699769 .19277954 .40699769 .13169861 .40699769 .05760193 .33198548 .0055389406 .25 .0055389406 .1639862 .0055389406 .09199524 .067611698 .09199524 .15072632 .09199524 .20880127 .12399292 .27288819 .20899964 .3199463Z"/>
<path id="font_1_7" d="M.36698915 .31781007V.28579713C.36698915 .05178833 .2630005 .0055389406 .20498657 .0055389406 .18798828 .0055389406 .13398743 .007537842 .10699463 .041778566 .15098572 .041778566 .15899658 .07078552 .15899658 .08778381 .15899658 .118774417 .1349945 .13378906 .11299133 .13378906 .09700012 .13378906 .066986087 .12478638 .066986087 .08578491 .066986087 .018615723 .12098694-.022460938 .20599365-.022460938 .33499146-.022460938 .45700074 .11378479 .45700074 .32881166 .45700074 .5979767 .34199525 .6660156 .25299073 .6660156 .19799805 .6660156 .14898682 .64801028 .10598755 .60298159 .06498718 .5579529 .041992189 .5159302 .041992189 .44088746 .041992189 .31581117 .12998963 .21777344 .24198914 .21777344 .30299378 .21777344 .34399415 .25978089 .36698915 .31781007M.24299622 .24076844C.22698975 .24076844 .18099976 .24076844 .1499939 .3038025 .13198853 .3408203 .13198853 .39085389 .13198853 .43988038 .13198853 .49391175 .13198853 .54093936 .15299988 .5779724 .17999268 .6279907 .21798706 .64100649 .25299073 .64100649 .29899598 .64100649 .33198548 .60697939 .34899903 .5619507 .36099244 .52993777 .36499024 .4669037 .36499024 .42086793 .36499024 .3378296 .33099366 .24076844 .24299622 .24076844Z"/>
<path id="font_1_2" d="M.2939911 .64004519C.2939911 .66400149 .2939911 .6660156 .2709961 .6660156 .20899964 .60227969 .12098694 .60227969 .08898926 .60227969V.57128909C.10899353 .57128909 .16799927 .57128909 .21998596 .5972748V.07902527C.21998596 .042999269 .21699524 .0309906 .1269989 .0309906H.09498596V0C.12998963 .0029907227 .21699524 .0029907227 .25698854 .0029907227 .29699708 .0029907227 .38398744 .0029907227 .4189911 0V.0309906H.3869934C.29699708 .0309906 .2939911 .041992189 .2939911 .07902527V.64004519Z"/>
<path id="font_1_1" d="M.45999146 .31976319C.45999146 .39982606 .45498658 .47988893 .41999818 .5539398 .37399293 .65000918 .2919922 .6660156 .25 .6660156 .18998719 .6660156 .116989139 .64001467 .07598877 .54693606 .04399109 .47789 .038986207 .39982606 .038986207 .31976319 .038986207 .24472046 .042999269 .15464783 .083999637 .07859802 .1269989-.0024719239 .19999695-.022460938 .24899292-.022460938 .30299378-.022460938 .3789978-.0014648438 .4229889 .09359741 .45498658 .16265869 .45999146 .2407074 .45999146 .31976319M.24899292-.00047302247C.20999146-.00047302247 .15098572 .024551392 .1329956 .12062073 .12199402 .18066406 .12199402 .2727356 .12199402 .3317871 .12199402 .39582826 .12199402 .46188355 .12998963 .5159149 .14898682 .63500979 .22399903 .64401248 .24899292 .64401248 .28199769 .64401248 .34799195 .6259918 .36698915 .52693179 .3769989 .47088624 .3769989 .39482118 .3769989 .3317871 .3769989 .25672914 .3769989 .18867493 .3659973 .12461853 .35099793 .029556275 .2939911-.00047302247 .24899292-.00047302247Z"/>
<path id="font_1_3" d="M.1269989 .07699585 .23298645 .18003845C.3889923 .31811524 .44898988 .3721466 .44898988 .47216798 .44898988 .5860901 .35899354 .6660156 .23699951 .6660156 .12399292 .6660156 .049987794 .57411196 .049987794 .48516847 .049987794 .4291687 .099990848 .4291687 .102996829 .4291687 .11999512 .4291687 .15499878 .44117738 .15499878 .48217774 .15499878 .5081787 .13699341 .5341797 .101989749 .5341797 .09399414 .5341797 .09199524 .5341797 .08898926 .5331726 .11199951 .59806826 .1659851 .63500979 .22399903 .63500979 .31498719 .63500979 .35798646 .5541382 .35798646 .47216798 .35798646 .39215089 .30799867 .31311036 .25299073 .25108338L.06098938 .036987306C.049987794 .025985718 .049987794 .023986817 .049987794 0H.42099L.44898988 .17404175H.42399598C.4189911 .14402771 .4119873 .1000061 .4019928 .084991458 .394989 .07699585 .32899476 .07699585 .30699159 .07699585H.1269989Z"/>
<clipPath id="clip_2">
<path transform="matrix(1.00005,0,0,-1.00006,41.06929,166.5352)" d="M0 0H194.26912V161.39636H0Z"/>
</clipPath>
<path id="font_3_97" d="M.5299988 .18458557C.5299988 .2716217 .47299195 .36065675 .37098695 .38467408L.23298645 .416687C.16899109 .4316864 .12199402 .4827118 .12199402 .5437927 .12199402 .61094668 .17999268 .6740875 .2669983 .6740875 .43998719 .6740875 .46299745 .51171877 .46798707 .4737091 .46998597 .46270753 .47099305 .45570375 .48399354 .45570375 .5 .45570375 .5 .46270753 .5 .4817047V.6781006C.5 .6940918 .5 .70410159 .4869995 .70410159 .47898866 .70410159 .47698976 .7010956 .46998597 .690094L.43499757 .6340027C.3849945 .6890869 .32099916 .70410159 .2659912 .70410159 .14698792 .70410159 .05899048 .61395266 .05899048 .51171877 .05899048 .43569947 .101989749 .39367677 .12098694 .3746643 .15699768 .33865357 .18998719 .3306427 .2979889 .30563355 .38398744 .28562928 .39898683 .2826233 .43199159 .24760437 .44198609 .23660279 .46699525 .20259094 .46699525 .15356446 .46699525 .08453369 .4139862 .011505127 .31999208 .011505127 .20999146 .011505127 .09599304 .06452942 .08999634 .20359802 .08898926 .21960449 .08898926 .22660828 .07499695 .22660828 .05899048 .22660828 .05899048 .21859741 .05899048 .19958496V.004501343C.05899048-.011489868 .05899048-.021484375 .07199097-.021484375 .07998657-.021484375 .08099365-.019485474 .08799744-.009490967 .09199524-.0034942628 .09599304 .005508423 .12399292 .047531129 .18699646-.0084991459 .26098634-.021484375 .32099916-.021484375 .44599916-.021484375 .5299988 .07752991 .5299988 .18458557Z"/>
<path id="font_3_105" d="M.35299684 .1250763V.1809845H.32199098V.12705994C.32199098 .058166505 .29100038 .021224976 .25299073 .021224976 .18598938 .021224976 .18598938 .10710144 .18598938 .12307739V.3976593H.33499146V.43066407H.18598938V.6142578H.15499878C.1539917 .52345278 .11299133 .4286499 .019989014 .42565919V.3976593H.10998535V.1250763C.10998535 .008224487 .19999695-.009765625 .24598694-.009765625 .31298829-.010009766 .35299684 .049987794 .35299684 .125V.1250763Z"/>
<path id="font_3_109" d="M.56199648 .00022888184V.033233644C.49398805 .033233644 .48599244 .040237428 .48599244 .08924866V.44140626L.33399964 .43040467V.3973999C.4019928 .3973999 .4099884 .39039613 .4099884 .34136964V.16726685C.4099884 .08125305 .35798646 .018234253 .2829895 .018234253 .19699097 .018234253 .19299317 .06123352 .19299317 .11126709V.44140626L.040985109 .43040467V.3973999C.116989139 .3973999 .116989139 .39439393 .116989139 .30534364V.15527344C.116989139 .08325195 .116989139-.009765625 .2769928-.009765625 .37098695-.009765625 .40699769 .0622406 .4119873 .071243289H.41299439V-.009765625L.56199648 .00022888184Z"/>
<path id="font_3_47" d="M.55400088 0V.032989503C.48599244 .032989503 .47799684 .039993287 .47799684 .089019779V.69433596L.32899476 .6826172V.6496124C.39698792 .6496124 .40499879 .64263918 .40499879 .5938263V.38339234C.36999513 .42140199 .32299806 .44140626 .2709961 .44140626 .1459961 .44140626 .034988405 .3443756 .034988405 .21531677 .034988405 .09225464 .1349945-.009765625 .26098634-.009765625 .31999208-.009765625 .36898805 .018234253 .4019928 .053237916V-.009765625L.55400088 0M.4019928 .12399292C.4019928 .10598755 .4019928 .101989749 .3869934 .08198547 .35899354 .042236329 .31298829 .018234253 .2659912 .018234253 .21998596 .018234253 .17999268 .042236329 .1559906 .07925415 .1289978 .118270877 .12399292 .16729737 .12399292 .21430969 .12399292 .27233888 .1329956 .3133545 .1559906 .3483734 .17999268 .38539125 .22499085 .4133911 .27598573 .4133911 .32398988 .4133911 .37199403 .38938905 .4019928 .33737184V.12399292Z"/>
<path id="font_3_50" d="M.44099427 .12036133C.44099427 .12435913 .43798829 .13438416 .4249878 .13438416 .4139862 .13438416 .4119873 .12736511 .4099884 .12136841 .37399293 .024230957 .28799439 .021224976 .269989 .021224976 .22499085 .021224976 .1789856 .042251588 .14898682 .08831787 .11898804 .13438416 .11898804 .19847107 .11898804 .22851563H.41299439C.43499757 .22851563 .44099427 .22851563 .44099427 .25151063 .44099427 .34039308 .3919983 .44628907 .25099183 .44628907 .1269989 .44628907 .02999878 .3433838 .02999878 .21949768 .02999878 .09031677 .13798523-.009765625 .2639923-.009765625 .3909912-.009765625 .44099427 .097335819 .44099427 .12036133M.37298585 .25450135H.11999512C.1289978 .39431764 .21398926 .41827394 .25099183 .41827394 .36799623 .41827394 .37199403 .27748109 .37298585 .25450135Z"/>
<path id="font_3_77" d="M.56199648 0V.032989503C.49798585 .032989503 .48599244 .032989503 .48599244 .07803345V.3032837C.48599244 .38737489 .44799806 .44140626 .34298707 .44140626 .24398804 .44140626 .19898987 .36935426 .18699646 .34532167H.18598938V.44140626L.040985109 .43045045V.39746095C.10899353 .39746095 .116989139 .3904419 .116989139 .3413849V.078048709C.116989139 .032989503 .10499573 .032989503 .040985109 .032989503V0C.083999637 .0029907227 .12799073 .0029907227 .15499878 .0029907227 .18399048 .0029907227 .22599793 .0029907227 .2689972 0V.032989503C.20498657 .032989503 .19299317 .032989503 .19299317 .078048709V.25927735C.19299317 .36434938 .272995 .4133911 .33399964 .4133911 .394989 .4133911 .4099884 .37036134 .4099884 .3072815V.07803345C.4099884 .032989503 .397995 .032989503 .33399964 .032989503V0C.3769989 .0029907227 .42099 .0029907227 .44799806 .0029907227 .47698976 .0029907227 .5189972 .0029907227 .56199648 0Z"/>
<path id="font_3_82" d="M.44699098 0V.032989503H.4119873C.31698609 .032989503 .31399537 .04499817 .31399537 .08203125V.6371765C.31399537 .664032 .31199647 .66503909 .2849884 .66503909 .24398804 .6252289 .19099427 .6013489 .09599304 .6013489V.5683594C.12298584 .5683594 .1769867 .5683594 .23498535 .5953522V.08203125C.23498535 .04499817 .23199463 .032989503 .13699341 .032989503H.101989749V0C.14299011 .0029907227 .22898865 .0029907227 .27398683 .0029907227 .31900025 .0029907227 .4059906 .0029907227 .44699098 0Z"/>
<path id="font_3_107" d="M.47698976 .17900086H.44599916C.44299317 .15899658 .43499757 .10899353 .4229889 .08999634 .4169922 .08198547 .34098817 .08198547 .32499696 .08198547H.14698792L.28199769 .20399475C.2979889 .2190094 .33999635 .2519989 .35598756 .26600648 .41799928 .3230133 .47698976 .37802125 .47698976 .46902467 .47698976 .58802798 .3769989 .66503909 .2519989 .66503909 .13198853 .6651764 .052993776 .574173 .052993776 .48516847 .052993776 .4361725 .09199524 .4291687 .10598755 .4291687 .1269989 .4291687 .1579895 .4441681 .1579895 .48217774 .1579895 .5341797 .10798645 .5341797 .09599304 .5341797 .125 .6070709 .19198609 .6320343 .24099732 .6320343 .33399964 .6320343 .38198854 .55314639 .38198854 .46917726 .38198854 .36517335 .30899049 .2891693 .19099427 .16816712L.06498718 .03817749C.052993776 .026992798 .052993776 .024993897 .052993776 0H.44799806L.47698976 .17900086Z"/>
<path id="font_3_106" d="M.48599244 .17131043C.48599244 .25431825 .41999818 .330307 .31799317 .35231019 .39698792 .38031007 .45599366 .44831849 .45599366 .5283203 .45599366 .6080475 .3659973 .66503909 .2619934 .66503909 .15499878 .66503909 .07398987 .6070404 .07398987 .53105166 .07398987 .49404908 .09899902 .4780426 .125 .4780426 .1559906 .4780426 .17599488 .5000458 .17599488 .52905276 .17599488 .56604006 .14399719 .5800476 .12199402 .5810547 .1639862 .6360321 .24099732 .6390381 .25898744 .6390381 .2849884 .63931277 .36099244 .63131716 .36099244 .5283203 .36099244 .458313 .33198548 .41630555 .31799317 .40031434 .28799439 .36930848 .2649994 .36730958 .20399475 .36331178 .18499756 .36231996 .1769867 .36131288 .1769867 .34831239 .1769867 .3343048 .18598938 .3343048 .20298767 .3343048H.25299073C.33198548 .3343048 .38198854 .27630616 .38198854 .17131043 .38198854 .045440675 .31098939 .008514404 .2579956 .008514404 .20298767 .008514404 .12799073 .0284729 .09298706 .08137512 .1289978 .08137512 .1539917 .10437012 .1539917 .13737488 .1539917 .16937256 .1309967 .19238281 .09899902 .19238281 .07199097 .19238281 .04399109 .17536927 .04399109 .13537598 .04399109 .04045105 .1459961-.021484375 .2599945-.021484375 .3929901-.021484375 .48599244 .070388797 .48599244 .17037964V.17131043Z"/>
<path id="font_3_57" d="M.5 .1640625V.197052H.3939972V.64682009C.3939972 .6668091 .3939972 .6748047 .37298585 .6748047 .3600006 .6748047 .35899354 .6737976 .34899903 .6598053L.02999878 .197052V.1640625H.31199647V.08100891C.31199647 .04399109 .30899049 .032989503 .23199463 .032989503H.20899964V0L.35299684 .0029907227 .49699403 0V.032989503H.47399903C.39698792 .032989503 .3939972 .04399109 .3939972 .08100891V.1640625H.5M.31900025 .197052H.06498718L.31900025 .56585696V.197052Z"/>
<path id="font_3_56" d="M.47698976 .19924927C.47698976 .31576539 .3929901 .4189453 .2749939 .4189453 .22499085 .4189453 .17799378 .40293885 .13999939 .36886598V.5618439C.15299988 .55784609 .19299317 .54785159 .23498535 .54785159 .3600006 .54785159 .43598939 .63586428 .43598939 .6509552 .43598939 .6620178 .42900086 .66503909 .42399598 .66503909 .42399598 .66503909 .41999818 .66503909 .41099549 .66000369 .37199403 .6449127 .32598878 .632843 .27198792 .632843 .21299744 .632843 .1639862 .64793398 .1329956 .66000369 .12298584 .66503909 .11999512 .66503909 .11999512 .66503909 .10699463 .66503909 .10699463 .6539612 .10699463 .63586428V.34277345C.10699463 .32476808 .10699463 .3127594 .12298584 .3127594 .1309967 .3127594 .13398743 .31677247 .13899231 .32476808 .15098572 .33976747 .18899536 .39093019 .27398683 .39093019 .32998658 .39093019 .35699464 .34477235 .3659973 .3257599 .3829956 .2896576 .3849945 .24345398 .3849945 .20426941 .3849945 .16725159 .38398744 .11325073 .35598756 .069366458 .33699037 .03942871 .29699708 .008514404 .24398804 .008514404 .1789856 .008514404 .114990238 .04940796 .09199524 .11425781 .09498596 .11387634 .101989749 .11387634 .101989749 .11387634 .12998963 .11387634 .1519928 .13188172 .1519928 .16288758 .1519928 .19989014 .12298584 .21289063 .102996829 .21289063 .084991458 .21289063 .052993776 .20288086 .052993776 .15988159 .052993776 .069732669 .1309967-.021484375 .24598694-.021484375 .37098695-.021743775 .47698976 .07525635 .47698976 .19924927Z"/>
<path id="font_4_97" d="M.49899293 .18579102C.49899293 .2858429 .43299867 .36791993 .34899903 .38793946L.22099304 .4189453C.15899658 .43388368 .11999512 .48773194 .11999512 .5458069 .11999512 .61595156 .17399597 .677063 .2519989 .677063 .4189911 .677063 .44099427 .5127411 .44699098 .46777345 .44799806 .461792 .44799806 .45581056 .45899964 .45581056 .47200013 .45581056 .47200013 .46080018 .47200013 .47973634V.68107607C.47200013 .69807437 .47200013 .7050781 .46099855 .7050781 .45399476 .7050781 .45298768 .70407107 .44599916 .69207766L.41099549 .63497927C.3809967 .66404727 .33999635 .7050781 .25099183 .7050781 .13999939 .7050781 .055999757 .61694338 .055999757 .5107422 .055999757 .42790223 .10899353 .35490418 .18699646 .32788087 .19799805 .32388307 .24899292 .3118744 .31900025 .29486085 .34599305 .28785707 .37599183 .280838 .4039917 .24382019 .4249878 .2177887 .43499757 .18478394 .43499757 .1517334 .43499757 .0806427 .3849945 .008529663 .30099488 .008529663 .27198792 .008529663 .19599915 .013534546 .14299011 .06260681 .084991458 .11668396 .08198547 .18078614 .08099365 .21679688 .07998657 .22679138 .07199097 .22679138 .068984989 .22679138 .055999757 .22679138 .055999757 .2197876 .055999757 .20178223V.0015258789C.055999757-.015472412 .055999757-.022460938 .066986087-.022460938 .07398987-.022460938 .07499695-.020462037 .08198547-.009475708 .08198547-.009475708 .084991458-.0054626467 .117996219 .047592164 .14898682 .013534546 .21299744-.022460938 .3019867-.022460938 .4189911-.022460938 .49899293 .07562256 .49899293 .18579102Z"/>
<path id="font_4_63" d="M.5349884 0V.0309906C.48298646 .0309906 .45799256 .0309906 .45700074 .061019899V.25221253C.45700074 .3383026 .45700074 .36932374 .42599488 .405365 .4119873 .42237855 .3789978 .4423828 .32099916 .4423828 .23699951 .4423828 .19299317 .38233949 .1769867 .34629823H.17599488V.69433596L.03199768 .6826172V.6516113C.101989749 .6516113 .10998535 .64463809 .10998535 .59580996V.076034549C.10998535 .0309906 .09899902 .0309906 .03199768 .0309906V0L.14498902 .0029907227 .25698854 0V.0309906C.18998719 .0309906 .1789856 .0309906 .1789856 .076034549V.2602234C.1789856 .36431886 .25 .42037965 .31399537 .42037965 .3769989 .42037965 .3880005 .36631776 .3880005 .30926515V.076034549C.3880005 .0309906 .3769989 .0309906 .30999757 .0309906V0L.4229889 .0029907227 .5349884 0Z"/>
<path id="font_4_81" d="M.47099305 .21424866C.47099305 .34223939 .37098695 .4482422 .25 .4482422 .125 .4482422 .027999878 .3392334 .027999878 .21424866 .027999878 .085250858 .13198853-.0107421879 .24899292-.0107421879 .36999513-.0107421879 .47099305 .087249759 .47099305 .21424866M.3880005 .22224427C.3880005 .18624878 .3880005 .13224793 .3659973 .08824158 .34399415 .04324341 .2999878 .014251709 .25 .014251709 .20698548 .014251709 .16299439 .035247804 .13598633 .08125305 .11099243 .12524414 .11099243 .18624878 .11099243 .22224427 .11099243 .26124574 .11099243 .31523133 .1349945 .35923768 .1619873 .40522767 .20899964 .426239 .24899292 .426239 .29299928 .426239 .33599855 .40423585 .3619995 .36123658 .3880005 .3182373 .3880005 .26023866 .3880005 .22224427Z"/>
<path id="font_4_50" d="M.4149933 .11933899C.4149933 .12934876 .40699769 .13134766 .4019928 .13134766 .3929901 .13134766 .3909912 .12535095 .3889923 .11734009 .35398866 .014251709 .2639923 .014251709 .2539978 .014251709 .20399475 .014251709 .1639862 .044281007 .14099121 .08131409 .11099243 .12934876 .11099243 .19540406 .11099243 .23144531H.3899994C.4119873 .23144531 .4149933 .23144531 .4149933 .2524414 .4149933 .35131837 .36099244 .4482422 .23599243 .4482422 .11999512 .4482422 .027999878 .34532167 .027999878 .22042847 .027999878 .08631897 .1329956-.0107421879 .24798584-.0107421879 .36999513-.0107421879 .4149933 .10032654 .4149933 .11933899M.34899903 .2524414H.11199951C.117996219 .40126039 .20199585 .426239 .23599243 .426239 .33898927 .426239 .34899903 .2913971 .34899903 .2524414Z"/>
<path id="font_4_66" d="M.24699402 0V.0309906C.18099976 .0309906 .1769867 .035995485 .1769867 .075042728V.4423828L.036987306 .43066407V.3996582C.101989749 .3996582 .11099243 .3936615 .11099243 .3447113V.07595825C.11099243 .0309906 .099990848 .0309906 .032989503 .0309906V0L.14299011 .0029907227C.17799378 .0029907227 .21299744 .0009918213 .24699402 0M.19198609 .603775C.19198609 .6307678 .16899109 .6567688 .13899231 .6567688 .10499573 .6567688 .084991458 .6287689 .084991458 .603775 .084991458 .57676699 .10798645 .55078127 .13798523 .55078127 .17199707 .55078127 .19198609 .5787811 .19198609 .603775Z"/>
<path id="font_4_120" d="M.40098573 .18684387H.37599183C.36698915 .06895447 .34599305 .024993897 .22999573 .024993897H.11199951L.3899994 .40066529C.39898683 .4116516 .39898683 .4136505 .39898683 .41766358 .39898683 .43066407 .3909912 .43066407 .37298585 .43066407H.052993776L.041992189 .2697754H.066986087C.07299805 .37168885 .09199524 .4086609 .20199585 .4086609H.31599427L.036987306 .031982423C.027999878 .020996094 .027999878 .018997193 .027999878 .01399231 .027999878 0 .034988405 0 .053985597 0H.38398744L.40098573 .18684387Z"/>
<path id="font_4_85" d="M.33099366-.2400055C.33099366-.23701477 .33099366-.23500061 .31399537-.21800232 .18899536-.0920105 .15699768 .09700012 .15699768 .25 .15699768 .42399598 .19499207 .59799197 .31799317 .72299197 .33099366 .7350006 .33099366 .7369995 .33099366 .73999026 .33099366 .746994 .32699586 .75 .32099916 .75 .31098939 .75 .22099304 .6819916 .1619873 .5549927 .11099243 .44499208 .09899902 .33399964 .09899902 .25 .09899902 .17199707 .10998535 .050994874 .16499329-.06201172 .22499085-.18501282 .31098939-.25 .32099916-.25 .32699586-.25 .33099366-.24700928 .33099366-.2400055Z"/>
<path id="font_5_1" d="M.4850006 .41075135 .40098573 .6096344C.397995 .61763 .3959961 .6216278 .3959961 .6226196 .3959961 .62861636 .41299439 .6476135 .45498658 .6516113 .46499635 .65260317 .47499085 .6536102 .47499085 .6706085 .47499085 .6826172 .46299745 .6826172 .45999146 .6826172 .4189911 .6826172 .37599183 .6796112 .33399964 .6796112 .30899049 .6796112 .24699402 .6826172 .22200012 .6826172 .21598816 .6826172 .20399475 .6826172 .20399475 .6626129 .20399475 .6516113 .21398926 .6516113 .22698975 .6516113 .2869873 .6516113 .29299928 .6416168 .3019867 .6196289L.41999818 .34080506 .20899964 .11393738 .19599915 .10295105C.14698792 .049987794 .099990848 .033996583 .04899597 .0309906 .035995485 .02999878 .026992798 .02999878 .026992798 .010986328 .026992798 .009994507 .026992798 0 .039993287 0 .069992069 0 .102996829 .0029907227 .13398743 .0029907227 .17098999 .0029907227 .20999146 0 .24598694 0 .2519989 0 .2639923 0 .2639923 .019989014 .2639923 .02999878 .2539978 .0309906 .2519989 .0309906 .24299622 .03199768 .21199036 .033996583 .21199036 .061965944 .21199036 .07795715 .22698975 .093948367 .23899842 .10694885L.34098817 .21487427 .43099977 .31282044 .5319977 .07395935C.5359955 .06297302 .5369873 .061965944 .5369873 .05996704 .5369873 .051986696 .5179901 .034988405 .47898866 .0309906 .46798707 .02999878 .45899964 .0289917 .45899964 .011993408 .45899964 0 .46998597 0 .47399903 0 .5019989 0 .57199099 .0029907227 .59999087 .0029907227 .625 .0029907227 .6859894 0 .71099856 0 .71798709 0 .7299957 0 .7299957 .018997193 .7299957 .0309906 .7200012 .0309906 .71199038 .0309906 .644989 .03199768 .6429901 .034988405 .6259918 .07496643 .58699038 .16790772 .519989 .32380677 .49699403 .3837738 .5649872 .45373536 .66999819 .5726471 .70199587 .6006317 .73098757 .62461856 .7689972 .64860537 .82899478 .6516113 .84199526 .65260317 .8509979 .65260317 .8509979 .6716156 .8509979 .6726074 .8509979 .6826172 .83799746 .6826172 .80799868 .6826172 .7749939 .6796112 .74398806 .6796112 .70700076 .6796112 .6689911 .6826172 .6329956 .6826172 .6269989 .6826172 .6139984 .6826172 .6139984 .6626129 .6139984 .65560916 .61898806 .65260317 .6259918 .6516113 .6349945 .65060427 .66600039 .64860537 .66600039 .6206207 .66600039 .6066284 .6549988 .5936432 .6469879 .5846405L.4850006 .41075135Z"/>
<path id="font_4_86" d="M.2889862 .25C.2889862 .32798768 .27799989 .44898988 .22299195 .56199648 .16299439 .68499758 .07699585 .75 .066986087 .75 .06098938 .75 .056991579 .74598696 .056991579 .73999026 .056991579 .7369995 .056991579 .7350006 .07598877 .71699526 .17399597 .6179962 .23098755 .45899964 .23098755 .25 .23098755 .07899475 .19400025-.09700012 .069992069-.2230072 .056991579-.23500061 .056991579-.23701477 .056991579-.2400055 .056991579-.2460022 .06098938-.25 .066986087-.25 .07699585-.25 .16699219-.18200684 .22599793-.055007936 .2769928 .054992677 .2889862 .16600037 .2889862 .25Z"/>
<path id="font_4_49" d="M.6519928 .2579193H.6269989C.60198977 .10397339 .57899478 .0309906 .40699769 .0309906H.27398683C.22698975 .0309906 .22499085 .037994386 .22499085 .07098389V.33789063H.31498719C.4119873 .33789063 .4229889 .30589295 .4229889 .220932H.44799806V.48606874H.4229889C.4229889 .39994813 .4119873 .36888124 .31498719 .36888124H.22499085V.6087799C.22499085 .6416931 .22698975 .64868167 .27398683 .64868167H.40299989C.55599978 .64868167 .58299258 .59381106 .598999 .45507813H.6239929L.59599307 .6796875H.032989503V.64868167H.056991579C.13398743 .64868167 .13598633 .6377106 .13598633 .6017914V.07797241C.13598633 .041992189 .13398743 .0309906 .056991579 .0309906H.032989503V0H.6100006L.6519928 .2579193Z"/>
<path id="font_4_116" d="M.5159912 0V.0309906C.46199037 .03125 .44400025 .0332489 .42099 .0622406L.2869873 .23493958C.31698609 .27287293 .35499574 .3217926 .3789978 .3477478 .4099884 .38368226 .45098878 .39866639 .49798585 .3996582V.43066407C.47200013 .4286499 .44198609 .42765809 .41600038 .42765809 .38598634 .42765809 .33299256 .42965699 .31999208 .43066407V.3996582C.34098817 .3973999 .34899903 .3843994 .34899903 .3684082 .34899903 .35240174 .33898927 .33940126 .33399964 .33340455L.27198792 .2554016 .19400025 .35639955C.18499756 .3664093 .18499756 .3684082 .18499756 .3744049 .18499756 .3894043 .19999695 .39840699 .21998596 .39941407V.43066407L.11199951 .42765809C.09098816 .42765809 .04399109 .4286499 .016998291 .43066407V.3996582C.08699036 .3996582 .08799744 .39865113 .1349945 .3387146L.23399353 .20982361C.18699646 .14988709 .18699646 .14788819 .13999939 .09094238 .09199524 .032989503 .032989503 .0309906 .011993408 .0309906V0C.037994386 .0019989014 .068984989 .0029907227 .09498596 .0029907227L.18998719 0V.0309906C.16799927 .034240724 .16099549 .04724121 .16099549 .0622406 .16099549 .084243778 .18998719 .117248538 .25099183 .1892395L.32699586 .08924866C.33499146 .07824707 .34799195 .0622406 .34799195 .056243898 .34799195 .04724121 .33898927 .03224182 .31199647 .03125V0L.41999818 .0029907227C.44699098 .0029907227 .48599244 .0019989014 .5159912 0Z"/>
<path id="font_4_28" d="M.48298646 .08912659V.14511109H.45799256V.08912659C.45799256 .03112793 .43299867 .025131226 .42199708 .025131226 .3889923 .025131226 .3849945 .070129398 .3849945 .07511902V.27508546C.3849945 .31707765 .3849945 .3560791 .34899903 .39312745 .30999757 .43223573 .2599945 .4482422 .21199036 .4482422 .12998963 .4482422 .06098938 .40115357 .06098938 .335083 .06098938 .30508424 .08099365 .28808595 .10699463 .28808595 .1349945 .28808595 .15299988 .30807496 .15299988 .33407594 .15299988 .3460846 .147995 .37908937 .101989749 .38008119 .1289978 .41519166 .17799378 .426239 .20999146 .426239 .25898744 .426239 .31599427 .38710023 .31599427 .29808045V.26107789C.2649994 .25808717 .19499207 .25508119 .13198853 .22509766 .056991579 .19110108 .03199768 .13911438 .03199768 .09512329 .03199768 .014251709 .1289978-.0107421879 .19198609-.0107421879 .2579956-.0107421879 .3039856 .029251099 .32299806 .07624817 .32699586 .036132814 .35398866-.005859375 .40098573-.005859375 .42199708-.005859375 .48298646 .008132935 .48298646 .08912659M.31599427 .14013672C.31599427 .04525757 .24398804 .011245728 .19898987 .011245728 .1499939 .011245728 .10899353 .04624939 .10899353 .09625244 .10899353 .15124512 .15098572 .23425293 .31599427 .24024964V.14013672Z"/>
<path id="font_4_75" d="M.8129883 0V.0309906C.7609863 .0309906 .73599246 .0309906 .7350006 .061019899V.25221253C.7350006 .3383026 .7350006 .36932374 .70399478 .405365 .6899872 .42237855 .6569977 .4423828 .598999 .4423828 .5149994 .4423828 .47099305 .38233949 .45399476 .34429933 .43998719 .43138124 .3659973 .4423828 .32099916 .4423828 .24798584 .4423828 .20098877 .39935304 .17298889 .33729554V.4423828L.03199768 .43066407V.3996582C.101989749 .3996582 .10998535 .39266969 .10998535 .34370423V.07595825C.10998535 .0309906 .09899902 .0309906 .03199768 .0309906V0L.14498902 .0029907227 .25698854 0V.0309906C.18998719 .0309906 .1789856 .0309906 .1789856 .07595825V.25978089C.1789856 .36431886 .25 .42037965 .31399537 .42037965 .3769989 .42037965 .3880005 .36631776 .3880005 .30926515V.076034549C.3880005 .0309906 .3769989 .0309906 .30999757 .0309906V0L.4229889 .0029907227 .5349884 0V.0309906C.46798707 .0309906 .45700074 .0309906 .45700074 .076034549V.2602234C.45700074 .36431886 .5279999 .42037965 .59199526 .42037965 .6549988 .42037965 .66600039 .36631776 .66600039 .30926515V.076034549C.66600039 .0309906 .6549988 .0309906 .58799746 .0309906V0L.70098879 .0029907227 .8129883 0Z"/>
<path id="font_4_43" d="M.4149933 .119140628C.4149933 .12911988 .40499879 .12911988 .4019928 .12911988 .3929901 .12911988 .3909912 .12512207 .3889923 .119140628 .3600006 .026229859 .29499818 .014251709 .2579956 .014251709 .20498657 .014251709 .116989139 .0572052 .116989139 .21801758 .116989139 .38093568 .19898987 .42323304 .2519989 .42323304 .26098634 .42323304 .32398988 .42222596 .35899354 .38594056 .31799317 .38293458 .31199647 .3529358 .31199647 .3399353 .31199647 .31393434 .32998658 .2939453 .35798646 .2939453 .38398744 .2939453 .4039917 .3109436 .4039917 .34094239 .4039917 .40911866 .32798768 .4482422 .25099183 .4482422 .12599182 .4482422 .033996583 .3399353 .033996583 .21601868 .033996583 .08816528 .1329956-.0107421879 .24899292-.0107421879 .3829956-.0107421879 .4149933 .10914612 .4149933 .119140628Z"/>
<path id="font_4_96" d="M.3639984 .38137818C.3639984 .41337586 .33299256 .4423828 .2899933 .4423828 .21699524 .4423828 .18099976 .37538148 .16699219 .3323822V.4423828L.027999878 .43066407V.3996582C.09799194 .3996582 .10598755 .39266969 .10598755 .34370423V.07595825C.10598755 .0309906 .09498596 .0309906 .027999878 .0309906V0L.14199829 .0029907227C.18199158 .0029907227 .22898865 .0029907227 .2689972 0V.0309906H.24798584C.17399597 .0309906 .17199707 .04197693 .17199707 .07795715V.23181153C.17199707 .33137513 .21398926 .42037965 .2899933 .42037965 .29699708 .42037965 .29899598 .42037965 .30099488 .41937257 .2979889 .41838075 .27799989 .40637208 .27799989 .3803711 .27799989 .35237123 .29899598 .33737184 .32099916 .33737184 .33898927 .33737184 .3639984 .3493805 .3639984 .38137818Z"/>
<path id="font_4_87" d="M.69299319 .7299957C.69299319 .7409973 .6839905 .75 .6729889 .75 .6629944 .75 .6579895 .7429962 .6519928 .73599246 .60198977 .6680908 .5349884 .64112856 .46199037 .64112856 .3919983 .64112856 .32998658 .6660919 .2749939 .7180023 .2559967 .73498538 .23498535 .75 .20298767 .75 .1269989 .75 .055999757 .6660919 .055999757 .5491333 .055999757 .4281311 .12799073 .34713746 .20298767 .34713746 .27598573 .34713746 .33299256 .4361267 .33299256 .5481262 .33299256 .5621338 .33299256 .60913088 .31199647 .6611023 .3769989 .62413027 .4269867 .6191406 .46299745 .6191406 .5389862 .6191406 .58999636 .65011599 .59599307 .65411379L.5970001 .6531067 .147995-.016174317C.13899231-.029190064 .13899231-.036193849 .13899231-.036193849 .13899231-.047180177 .14898682-.05618286 .15899658-.05618286 .16899109-.05618286 .17098999-.05218506 .1789856-.04118347L.68499758 .7120209C.69099429 .7210083 .69299319 .723999 .69299319 .7299957M.776001 .1449585C.776001 .26005555 .71699526 .34713746 .6459961 .34713746 .56999209 .34713746 .49899293 .26306153 .49899293 .14596558 .49899293 .024856568 .57099917-.05618286 .6459961-.05618286 .71899417-.05618286 .776001 .03286743 .776001 .1449585M.30799867 .5491333C.30799867 .4411316 .2559967 .36914063 .20399475 .36914063 .18399048 .36914063 .117996219 .38212586 .117996219 .5481262 .117996219 .7150116 .18299866 .7279968 .20399475 .7279968 .25698854 .7279968 .30799867 .65411379 .30799867 .5491333M.7509918 .14596558C.7509918 .037872316 .69898989-.034179689 .6469879-.034179689 .6269989-.034179689 .5609894-.0211792 .5609894 .1449585 .5609894 .31219483 .6259918 .3251953 .6469879 .3251953 .69999697 .3251953 .7509918 .2511902 .7509918 .14619446V.14596558Z"/>
</defs>
<path transform="matrix(1.00005,0,0,-1.00006,41.06929,166.5352)" stroke-width=".19925" stroke-linecap="butt" stroke-miterlimit="10" stroke-linejoin="miter" fill="none" stroke="#bfbfbf" d="M24.28363 0V161.39636M48.56728 0V161.39636M72.8509 0V161.39636M97.13455 0V161.39636M121.4182 0V161.39636M145.70183 0V161.39636M169.98548 0V161.39636"/>
<path transform="matrix(1.00005,0,0,-1.00006,41.06929,166.5352)" stroke-width=".19925" stroke-linecap="butt" stroke-miterlimit="10" stroke-linejoin="miter" fill="none" stroke="#bfbfbf" d="M0 0H194.26912M0 40.34909H194.26912M0 80.69818H194.26912M0 121.04727H194.26912M0 161.39636H194.26912"/>
<path transform="matrix(1.00005,0,0,-1.00006,41.06929,166.5352)" stroke-width=".19925" stroke-linecap="butt" stroke-miterlimit="10" stroke-linejoin="miter" fill="none" stroke="#7f807f" d="M24.28363 0V4.25194M48.56728 0V4.25194M72.8509 0V4.25194M97.13455 0V4.25194M121.4182 0V4.25194M145.70183 0V4.25194M169.98548 0V4.25194M24.28363 161.39636V157.1444M48.56728 161.39636V157.1444M72.8509 161.39636V157.1444M97.13455 161.39636V157.1444M121.4182 161.39636V157.1444M145.70183 161.39636V157.1444M169.98548 161.39636V157.1444"/>
<path transform="matrix(1.00005,0,0,-1.00006,41.06929,166.5352)" stroke-width=".19925" stroke-linecap="butt" stroke-miterlimit="10" stroke-linejoin="miter" fill="none" stroke="#7f807f" d="M0 0H4.25188M0 40.34909H4.25188M0 80.69818H4.25188M0 121.04727H4.25188M0 161.39636H4.25188M194.26912 0H190.01721M194.26912 40.34909H190.01721M194.26912 80.69818H190.01721M194.26912 121.04727H190.01721M194.26912 161.39636H190.01721"/>
<path transform="matrix(1.00005,0,0,-1.00006,41.06929,166.5352)" stroke-width=".3985" stroke-linecap="butt" stroke-miterlimit="10" stroke-linejoin="miter" fill="none" stroke="#000000" d="M0 0V161.39636H194.26912V0H0Z"/>
<use data-text="6" xlink:href="#font_1_4" transform="matrix(9.963098,0,0,-9.963197,62.86338,176.4758)"/>
<use data-text="7" xlink:href="#font_1_5" transform="matrix(9.963098,0,0,-9.963197,87.14859,176.4758)"/>
<use data-text="8" xlink:href="#font_1_6" transform="matrix(9.963098,0,0,-9.963197,111.43281,176.4758)"/>
<use data-text="9" xlink:href="#font_1_7" transform="matrix(9.963098,0,0,-9.963197,135.71802,176.4758)"/>
<use data-text="1" xlink:href="#font_1_2" transform="matrix(9.963098,0,0,-9.963197,157.5121,176.4758)"/>
<use data-text="0" xlink:href="#font_1_1" transform="matrix(9.963098,0,0,-9.963197,162.49364,176.4758)"/>
<use data-text="1" xlink:href="#font_1_2" transform="matrix(9.963098,0,0,-9.963197,181.79633,176.4758)"/>
<use data-text="1" xlink:href="#font_1_2" transform="matrix(9.963098,0,0,-9.963197,186.77787,176.4758)"/>
<use data-text="1" xlink:href="#font_1_2" transform="matrix(9.963098,0,0,-9.963197,206.08153,176.4758)"/>
<use data-text="2" xlink:href="#font_1_3" transform="matrix(9.963098,0,0,-9.963197,211.06307,176.4758)"/>
<use data-text="6" xlink:href="#font_1_4" transform="matrix(9.963098,0,0,-9.963197,27.585618,169.74539)"/>
<use data-text="0" xlink:href="#font_1_1" transform="matrix(9.963098,0,0,-9.963197,32.567155,169.74539)"/>
<use data-text="7" xlink:href="#font_1_5" transform="matrix(9.963098,0,0,-9.963197,27.585618,129.39398)"/>
<use data-text="0" xlink:href="#font_1_1" transform="matrix(9.963098,0,0,-9.963197,32.567155,129.39398)"/>
<use data-text="8" xlink:href="#font_1_6" transform="matrix(9.963098,0,0,-9.963197,27.585618,89.04256)"/>
<use data-text="0" xlink:href="#font_1_1" transform="matrix(9.963098,0,0,-9.963197,32.567155,89.04256)"/>
<use data-text="9" xlink:href="#font_1_7" transform="matrix(9.963098,0,0,-9.963197,27.585618,48.69114)"/>
<use data-text="0" xlink:href="#font_1_1" transform="matrix(9.963098,0,0,-9.963197,32.567155,48.69114)"/>
<use data-text="1" xlink:href="#font_1_2" transform="matrix(9.963098,0,0,-9.963197,22.60437,8.339706)"/>
<use data-text="0" xlink:href="#font_1_1" transform="matrix(9.963098,0,0,-9.963197,27.585907,8.339706)"/>
<use data-text="0" xlink:href="#font_1_1" transform="matrix(9.963098,0,0,-9.963197,32.56746,8.339706)"/>
<g clip-path="url(#clip_2)">
<path transform="matrix(1.00005,0,0,-1.00006,41.06929,166.5352)" stroke-width=".79701" stroke-linecap="butt" stroke-miterlimit="10" stroke-linejoin="miter" fill="none" stroke="#ff0000" d="M0 76.66327H194.26912"/>
</g>
<path transform="matrix(1.00005,0,0,-1.00006,41.06929,166.5352)" d="M27.27246 100.87273C27.27246 102.52342 25.93434 103.86156 24.28363 103.86156 22.63292 103.86156 21.2948 102.52342 21.2948 100.87273 21.2948 99.22202 22.63292 97.8839 24.28363 97.8839 25.93434 97.8839 27.27246 99.22202 27.27246 100.87273ZM24.28363 100.87273" fill="#0000ff"/>
<path transform="matrix(1.00005,0,0,-1.00006,41.06929,166.5352)" stroke-width=".3985" stroke-linecap="butt" stroke-miterlimit="10" stroke-linejoin="miter" fill="none" stroke="#0000ff" d="M27.27246 100.87273C27.27246 102.52342 25.93434 103.86156 24.28363 103.86156 22.63292 103.86156 21.2948 102.52342 21.2948 100.87273 21.2948 99.22202 22.63292 97.8839 24.28363 97.8839 25.93434 97.8839 27.27246 99.22202 27.27246 100.87273ZM24.28363 100.87273"/>
<path transform="matrix(1.00005,0,0,-1.00006,41.06929,166.5352)" stroke-width=".3985" stroke-linecap="butt" stroke-miterlimit="10" stroke-linejoin="miter" fill="none" stroke="#0000ff" d=""/>
<use data-text="S" xlink:href="#font_3_97" transform="matrix(7.970498,0,0,-7.9705779,25.862534,61.968935)"/>
<use data-text="t" xlink:href="#font_3_105" transform="matrix(7.970498,0,0,-7.9705779,30.565125,61.968935)"/>
<use data-text="u" xlink:href="#font_3_109" transform="matrix(7.970498,0,0,-7.9705779,33.85695,61.968935)"/>
<use data-text="d" xlink:href="#font_3_47" transform="matrix(7.970498,0,0,-7.9705779,38.559556,61.968935)"/>
<use data-text="e" xlink:href="#font_3_50" transform="matrix(7.970498,0,0,-7.9705779,43.262147,61.968935)"/>
<use data-text="n" xlink:href="#font_3_77" transform="matrix(7.970498,0,0,-7.9705779,47.024217,61.968935)"/>
<use data-text="t" xlink:href="#font_3_105" transform="matrix(7.970498,0,0,-7.9705779,51.4877,61.968935)"/>
<use data-text="1" xlink:href="#font_3_82" transform="matrix(7.970498,0,0,-7.9705779,57.59311,61.968935)"/>
<path transform="matrix(1.00005,0,0,-1.00006,41.06929,166.5352)" d="M75.83974 8.06981C75.83974 9.72052 74.50162 11.05864 72.8509 11.05864 71.20021 11.05864 69.86208 9.72052 69.86208 8.06981 69.86208 6.4191 71.20021 5.08098 72.8509 5.08098 74.50162 5.08098 75.83974 6.4191 75.83974 8.06981ZM72.8509 8.06981" fill="#0000ff"/>
<path transform="matrix(1.00005,0,0,-1.00006,41.06929,166.5352)" stroke-width=".3985" stroke-linecap="butt" stroke-miterlimit="10" stroke-linejoin="miter" fill="none" stroke="#0000ff" d="M75.83974 8.06981C75.83974 9.72052 74.50162 11.05864 72.8509 11.05864 71.20021 11.05864 69.86208 9.72052 69.86208 8.06981 69.86208 6.4191 71.20021 5.08098 72.8509 5.08098 74.50162 5.08098 75.83974 6.4191 75.83974 8.06981ZM72.8509 8.06981"/>
<path transform="matrix(1.00005,0,0,-1.00006,41.06929,166.5352)" stroke-width=".3985" stroke-linecap="butt" stroke-miterlimit="10" stroke-linejoin="miter" fill="none" stroke="#0000ff" d=""/>
<use data-text="S" xlink:href="#font_3_97" transform="matrix(7.970498,0,0,-7.9705779,74.43295,154.7775)"/>
<use data-text="t" xlink:href="#font_3_105" transform="matrix(7.970498,0,0,-7.9705779,79.135547,154.7775)"/>
<use data-text="u" xlink:href="#font_3_109" transform="matrix(7.970498,0,0,-7.9705779,82.42737,154.7775)"/>
<use data-text="d" xlink:href="#font_3_47" transform="matrix(7.970498,0,0,-7.9705779,87.129978,154.7775)"/>
<use data-text="e" xlink:href="#font_3_50" transform="matrix(7.970498,0,0,-7.9705779,91.832569,154.7775)"/>
<use data-text="n" xlink:href="#font_3_77" transform="matrix(7.970498,0,0,-7.9705779,95.594638,154.7775)"/>
<use data-text="t" xlink:href="#font_3_105" transform="matrix(7.970498,0,0,-7.9705779,100.05812,154.7775)"/>
<use data-text="2" xlink:href="#font_3_107" transform="matrix(7.970498,0,0,-7.9705779,106.16353,154.7775)"/>
<path transform="matrix(1.00005,0,0,-1.00006,41.06929,166.5352)" d="M100.12338 137.1869C100.12338 138.83762 98.78526 140.17574 97.13455 140.17574 95.48384 140.17574 94.14572 138.83762 94.14572 137.1869 94.14572 135.5362 95.48384 134.19808 97.13455 134.19808 98.78526 134.19808 100.12338 135.5362 100.12338 137.1869ZM97.13455 137.1869" fill="#0000ff"/>
<path transform="matrix(1.00005,0,0,-1.00006,41.06929,166.5352)" stroke-width=".3985" stroke-linecap="butt" stroke-miterlimit="10" stroke-linejoin="miter" fill="none" stroke="#0000ff" d="M100.12338 137.1869C100.12338 138.83762 98.78526 140.17574 97.13455 140.17574 95.48384 140.17574 94.14572 138.83762 94.14572 137.1869 94.14572 135.5362 95.48384 134.19808 97.13455 134.19808 98.78526 134.19808 100.12338 135.5362 100.12338 137.1869ZM97.13455 137.1869"/>
<path transform="matrix(1.00005,0,0,-1.00006,41.06929,166.5352)" stroke-width=".3985" stroke-linecap="butt" stroke-miterlimit="10" stroke-linejoin="miter" fill="none" stroke="#0000ff" d=""/>
<use data-text="S" xlink:href="#font_3_97" transform="matrix(7.970498,0,0,-7.9705779,98.71717,25.652756)"/>
<use data-text="t" xlink:href="#font_3_105" transform="matrix(7.970498,0,0,-7.9705779,103.41976,25.652756)"/>
<use data-text="u" xlink:href="#font_3_109" transform="matrix(7.970498,0,0,-7.9705779,106.711589,25.652756)"/>
<use data-text="d" xlink:href="#font_3_47" transform="matrix(7.970498,0,0,-7.9705779,111.41419,25.652756)"/>
<use data-text="e" xlink:href="#font_3_50" transform="matrix(7.970498,0,0,-7.9705779,116.11678,25.652756)"/>
<use data-text="n" xlink:href="#font_3_77" transform="matrix(7.970498,0,0,-7.9705779,119.87885,25.652756)"/>
<use data-text="t" xlink:href="#font_3_105" transform="matrix(7.970498,0,0,-7.9705779,124.34234,25.652756)"/>
<use data-text="3" xlink:href="#font_3_106" transform="matrix(7.970498,0,0,-7.9705779,130.44776,25.652756)"/>
<path transform="matrix(1.00005,0,0,-1.00006,41.06929,166.5352)" d="M148.69066 52.45381C148.69066 54.10452 147.35254 55.44264 145.70183 55.44264 144.05113 55.44264 142.713 54.10452 142.713 52.45381 142.713 50.8031 144.05113 49.46498 145.70183 49.46498 147.35254 49.46498 148.69066 50.8031 148.69066 52.45381ZM145.70183 52.45381" fill="#0000ff"/>
<path transform="matrix(1.00005,0,0,-1.00006,41.06929,166.5352)" stroke-width=".3985" stroke-linecap="butt" stroke-miterlimit="10" stroke-linejoin="miter" fill="none" stroke="#0000ff" d="M148.69066 52.45381C148.69066 54.10452 147.35254 55.44264 145.70183 55.44264 144.05113 55.44264 142.713 54.10452 142.713 52.45381 142.713 50.8031 144.05113 49.46498 145.70183 49.46498 147.35254 49.46498 148.69066 50.8031 148.69066 52.45381ZM145.70183 52.45381"/>
<path transform="matrix(1.00005,0,0,-1.00006,41.06929,166.5352)" stroke-width=".3985" stroke-linecap="butt" stroke-miterlimit="10" stroke-linejoin="miter" fill="none" stroke="#0000ff" d=""/>
<use data-text="S" xlink:href="#font_3_97" transform="matrix(7.970498,0,0,-7.9705779,147.28659,110.39084)"/>
<use data-text="t" xlink:href="#font_3_105" transform="matrix(7.970498,0,0,-7.9705779,151.98918,110.39084)"/>
<use data-text="u" xlink:href="#font_3_109" transform="matrix(7.970498,0,0,-7.9705779,155.281,110.39084)"/>
<use data-text="d" xlink:href="#font_3_47" transform="matrix(7.970498,0,0,-7.9705779,159.98361,110.39084)"/>
<use data-text="e" xlink:href="#font_3_50" transform="matrix(7.970498,0,0,-7.9705779,164.6862,110.39084)"/>
<use data-text="n" xlink:href="#font_3_77" transform="matrix(7.970498,0,0,-7.9705779,168.44828,110.39084)"/>
<use data-text="t" xlink:href="#font_3_105" transform="matrix(7.970498,0,0,-7.9705779,172.91176,110.39084)"/>
<use data-text="4" xlink:href="#font_3_57" transform="matrix(7.970498,0,0,-7.9705779,179.01717,110.39084)"/>
<path transform="matrix(1.00005,0,0,-1.00006,41.06929,166.5352)" d="M172.9743 84.73308C172.9743 86.38379 171.63619 87.72191 169.98548 87.72191 168.33477 87.72191 166.99665 86.38379 166.99665 84.73308 166.99665 83.08238 168.33477 81.74425 169.98548 81.74425 171.63619 81.74425 172.9743 83.08238 172.9743 84.73308ZM169.98548 84.73308" fill="#0000ff"/>
<path transform="matrix(1.00005,0,0,-1.00006,41.06929,166.5352)" stroke-width=".3985" stroke-linecap="butt" stroke-miterlimit="10" stroke-linejoin="miter" fill="none" stroke="#0000ff" d="M172.9743 84.73308C172.9743 86.38379 171.63619 87.72191 169.98548 87.72191 168.33477 87.72191 166.99665 86.38379 166.99665 84.73308 166.99665 83.08238 168.33477 81.74425 169.98548 81.74425 171.63619 81.74425 172.9743 83.08238 172.9743 84.73308ZM169.98548 84.73308"/>
<path transform="matrix(1.00005,0,0,-1.00006,41.06929,166.5352)" stroke-width=".3985" stroke-linecap="butt" stroke-miterlimit="10" stroke-linejoin="miter" fill="none" stroke="#0000ff" d=""/>
<use data-text="S" xlink:href="#font_3_97" transform="matrix(7.970498,0,0,-7.9705779,171.57181,78.1099)"/>
<use data-text="t" xlink:href="#font_3_105" transform="matrix(7.970498,0,0,-7.9705779,176.2744,78.1099)"/>
<use data-text="u" xlink:href="#font_3_109" transform="matrix(7.970498,0,0,-7.9705779,179.56623,78.1099)"/>
<use data-text="d" xlink:href="#font_3_47" transform="matrix(7.970498,0,0,-7.9705779,184.26883,78.1099)"/>
<use data-text="e" xlink:href="#font_3_50" transform="matrix(7.970498,0,0,-7.9705779,188.97142,78.1099)"/>
<use data-text="n" xlink:href="#font_3_77" transform="matrix(7.970498,0,0,-7.9705779,192.73349,78.1099)"/>
<use data-text="t" xlink:href="#font_3_105" transform="matrix(7.970498,0,0,-7.9705779,197.19698,78.1099)"/>
<use data-text="5" xlink:href="#font_3_56" transform="matrix(7.970498,0,0,-7.9705779,203.30239,78.1099)"/>
<path transform="matrix(1.00005,0,0,-1.00006,41.06929,166.5352)" stroke-width=".3985" stroke-linecap="butt" stroke-miterlimit="10" stroke-linejoin="miter" fill="none" stroke="#0000ff" d=""/>
<use data-text="S" xlink:href="#font_4_97" transform="matrix(9.963098,0,0,-9.963197,107.536609,192.47275)"/>
<use data-text="h" xlink:href="#font_4_63" transform="matrix(9.963098,0,0,-9.963197,113.07608,192.47275)"/>
<use data-text="o" xlink:href="#font_4_81" transform="matrix(9.963098,0,0,-9.963197,118.615558,192.47275)"/>
<use data-text="e" xlink:href="#font_4_50" transform="matrix(9.963098,0,0,-9.963197,123.866107,192.47275)"/>
<use data-text="S" xlink:href="#font_4_97" transform="matrix(9.963098,0,0,-9.963197,131.60746,192.47275)"/>
<use data-text="i" xlink:href="#font_4_66" transform="matrix(9.963098,0,0,-9.963197,137.14693,192.47275)"/>
<use data-text="z" xlink:href="#font_4_120" transform="matrix(9.963098,0,0,-9.963197,139.91667,192.47275)"/>
<use data-text="e" xlink:href="#font_4_50" transform="matrix(9.963098,0,0,-9.963197,144.34029,192.47275)"/>
<use data-text="(" xlink:href="#font_4_85" transform="matrix(9.963098,0,0,-9.963197,152.08164,192.47275)"/>
<use data-text="X" xlink:href="#font_5_1" transform="matrix(9.963098,0,0,-9.963197,155.96703,192.47275)"/>
<use data-text=")" xlink:href="#font_4_86" transform="matrix(9.963098,0,0,-9.963197,165.00347,192.47275)"/>
<use data-text="E" xlink:href="#font_4_49" transform="matrix(0,-9.963197,-9.963098,-0,8.688675,121.4765)"/>
<use data-text="x" xlink:href="#font_4_116" transform="matrix(0,-9.963197,-9.963098,-0,8.688675,114.69156)"/>
<use data-text="a" xlink:href="#font_4_28" transform="matrix(0,-9.963197,-9.963098,-0,8.688675,109.431)"/>
<use data-text="m" xlink:href="#font_4_75" transform="matrix(0,-9.963197,-9.963098,-0,8.688675,104.4494)"/>
<use data-text="S" xlink:href="#font_4_97" transform="matrix(0,-9.963197,-9.963098,-0,8.688675,92.84227)"/>
<use data-text="c" xlink:href="#font_4_43" transform="matrix(0,-9.963197,-9.963098,-0,8.688675,87.30275)"/>
<use data-text="o" xlink:href="#font_4_81" transform="matrix(0,-9.963197,-9.963098,-0,8.688675,82.879077)"/>
<use data-text="r" xlink:href="#font_4_96" transform="matrix(0,-9.963197,-9.963098,-0,8.688675,77.89749)"/>
<use data-text="e" xlink:href="#font_4_50" transform="matrix(0,-9.963197,-9.963098,-0,8.688675,73.99191)"/>
<use data-text="(" xlink:href="#font_4_85" transform="matrix(0,-9.963197,-9.963098,-0,8.688675,66.2505)"/>
<use data-text="%" xlink:href="#font_4_87" transform="matrix(0,-9.963197,-9.963098,-0,8.688675,62.374818)"/>
<use data-text=")" xlink:href="#font_4_86" transform="matrix(0,-9.963197,-9.963098,-0,8.688675,54.07547)"/>
</svg>
