<svg xmlns="http://www.w3.org/2000/svg" xmlns:xlink="http://www.w3.org/1999/xlink" xmlns:inkscape="http://www.inkscape.org/namespaces/inkscape" version="1.1" width="241" height="196" viewBox="0 0 241 196">
<defs>
<path id="font_1_1" d="M.45999146 .31976319C.45999146 .39982606 .45498658 .47988893 .41999818 .5539398 .37399293 .65000918 .2919922 .6660156 .25 .6660156 .18998719 .6660156 .116989139 .64001467 .07598877 .54693606 .04399109 .47789 .038986207 .39982606 .038986207 .31976319 .038986207 .24472046 .042999269 .15464783 .083999637 .07859802 .1269989-.0024719239 .19999695-.022460938 .24899292-.022460938 .30299378-.022460938 .3789978-.0014648438 .4229889 .09359741 .45498658 .16265869 .45999146 .2407074 .45999146 .31976319M.24899292-.00047302247C.20999146-.00047302247 .15098572 .024551392 .1329956 .12062073 .12199402 .18066406 .12199402 .2727356 .12199402 .3317871 .12199402 .39582826 .12199402 .46188355 .12998963 .5159149 .14898682 .63500979 .22399903 .64401248 .24899292 .64401248 .28199769 .64401248 .34799195 .6259918 .36698915 .52693179 .3769989 .47088624 .3769989 .39482118 .3769989 .3317871 .3769989 .25672914 .3769989 .18867493 .3659973 .12461853 .35099793 .029556275 .2939911-.00047302247 .24899292-.00047302247Z"/>
<path id="font_1_2" d="M.2939911 .64004519C.2939911 .66400149 .2939911 .6660156 .2709961 .6660156 .20899964 .60227969 .12098694 .60227969 .08898926 .60227969V.57128909C.10899353 .57128909 .16799927 .57128909 .21998596 .5972748V.07902527C.21998596 .042999269 .21699524 .0309906 .1269989 .0309906H.09498596V0C.12998963 .0029907227 .21699524 .0029907227 .25698854 .0029907227 .29699708 .0029907227 .38398744 .0029907227 .4189911 0V.0309906H.3869934C.29699708 .0309906 .2939911 .041992189 .2939911 .07902527V.64004519Z"/>
<path id="font_1_3" d="M.1269989 .07699585 .23298645 .18003845C.3889923 .31811524 .44898988 .3721466 .44898988 .47216798 .44898988 .5860901 .35899354 .6660156 .23699951 .6660156 .12399292 .6660156 .049987794 .57411196 .049987794 .48516847 .049987794 .4291687 .099990848 .4291687 .102996829 .4291687 .11999512 .4291687 .15499878 .44117738 .15499878 .48217774 .15499878 .5081787 .13699341 .5341797 .101989749 .5341797 .09399414 .5341797 .09199524 .5341797 .08898926 .5331726 .11199951 .59806826 .1659851 .63500979 .22399903 .63500979 .31498719 .63500979 .35798646 .5541382 .35798646 .47216798 .35798646 .39215089 .30799867 .31311036 .25299073 .25108338L.06098938 .036987306C.049987794 .025985718 .049987794 .023986817 .049987794 0H.42099L.44898988 .17404175H.42399598C.4189911 .14402771 .4119873 .1000061 .4019928 .084991458 .394989 .07699585 .32899476 .07699585 .30699159 .07699585H.1269989Z"/>
<path id="font_1_4" d="M.2899933 .35191346C.37199403 .37893678 .42999269 .4490509 .42999269 .52809146 .42999269 .6100464 .34199525 .6660156 .24598694 .6660156 .14498902 .6660156 .068984989 .60606387 .068984989 .53009036 .068984989 .49710084 .09098816 .47808839 .11999512 .47808839 .15098572 .47808839 .17098999 .50009158 .17098999 .5290985 .17098999 .57910159 .12399292 .57910159 .10899353 .57910159 .13999939 .62802127 .20599365 .64100649 .24198914 .64100649 .2829895 .64100649 .33799745 .6190338 .33799745 .5290985 .33799745 .51708987 .33599855 .45906068 .30999757 .4149933 .27999879 .36691285 .24598694 .36390687 .22099304 .36291505 .21299744 .36190797 .18899536 .35990907 .18199158 .35990907 .17399597 .35890199 .16699219 .35791017 .16699219 .3479004 .16699219 .33691407 .17399597 .33691407 .19099427 .33691407H.23498535C.31698609 .33691407 .35398866 .2686615 .35398866 .17037964 .35398866 .034469606 .2849884 .0055389406 .24099732 .0055389406 .19799805 .0055389406 .12298584 .022491456 .08799744 .08137512 .12298584 .07637024 .1539917 .09837341 .1539917 .1363678 .1539917 .17237854 .1269989 .19238281 .09799194 .19238281 .07398987 .19238281 .041992189 .17837525 .041992189 .1343689 .041992189 .043441774 .1349945-.022460938 .24398804-.022460938 .3659973-.022460938 .45700074 .06838989 .45700074 .17037964 .45700074 .252594 .3939972 .33088685 .2899933 .35191346Z"/>
<path id="font_1_5" d="M.2939911 .16503906V.07800293C.2939911 .041992189 .2919922 .0309906 .21798706 .0309906H.19699097V0C.23799134 .0029907227 .2899933 .0029907227 .33198548 .0029907227 .37399293 .0029907227 .4269867 .0029907227 .46798707 0V.0309906H.44699098C.37298585 .0309906 .37098695 .041992189 .37098695 .07800293V.16503906H.47099305V.19602967H.37098695V.65075686C.37098695 .67074587 .37098695 .6767578 .35499574 .6767578 .34599305 .6767578 .34298707 .6767578 .33499146 .66474917L.027999878 .19602967V.16503906H.2939911M.2999878 .19602967H.055999757L.2999878 .5688019V.19602967Z"/>
<path id="font_1_6" d="M.44898988 .20022583C.44898988 .3193512 .36698915 .41944886 .25898744 .41944886 .21099854 .41944886 .16799927 .40345765 .13198853 .36842347V.5637665C.1519928 .5577698 .18499756 .55078127 .21699524 .55078127 .33999635 .55078127 .4099884 .6417694 .4099884 .6547699 .4099884 .6607666 .40699769 .6657715 .3999939 .6657715 .39898683 .6657715 .39698792 .6657715 .3919983 .66278079 .37199403 .6537781 .32299806 .6337738 .2559967 .6337738 .21598816 .6337738 .16999817 .6407776 .12298584 .6617737 .114990238 .66477969 .11299133 .66477969 .11099243 .66477969 .100997928 .66477969 .100997928 .6567688 .100997928 .6407776V.34439088C.100997928 .32637025 .100997928 .31835938 .114990238 .31835938 .12199402 .31835938 .12399292 .32136537 .12799073 .32736207 .13899231 .3433838 .17599488 .39746095 .25698854 .39746095 .30899049 .39746095 .33399964 .35139466 .34199525 .33337403 .35798646 .29632569 .3600006 .25727845 .3600006 .20722962 .3600006 .17222595 .3600006 .11222839 .33599855 .07035828 .31199647 .031463624 .2749939 .0055389406 .22898865 .0055389406 .1559906 .0055389406 .09899902 .058380128 .08198547 .11723328 .084991458 .1162262 .08799744 .115234378 .09899902 .115234378 .13198853 .115234378 .14898682 .14022827 .14898682 .16423035 .14898682 .18823242 .13198853 .21322632 .09899902 .21322632 .084991458 .21322632 .049987794 .20622254 .049987794 .16023255 .049987794 .07434082 .11898804-.022460938 .23098755-.022460938 .34700013-.022460938 .44898988 .073349 .44898988 .20022583Z"/>
<path id="font_1_7" d="M.13198853 .327713V.35173036C.13198853 .6047821 .2559967 .64100649 .30699159 .64100649 .33099366 .64100649 .37298585 .634964 .394989 .6007538 .37998963 .6007538 .33999635 .6007538 .33999635 .5557556 .33999635 .524765 .3639984 .5097656 .38598634 .5097656 .4019928 .5097656 .43199159 .51875308 .43199159 .5577545 .43199159 .6178589 .3880005 .6660156 .30499269 .6660156 .1769867 .6660156 .041992189 .5367584 .041992189 .31570436 .041992189 .048553468 .1579895-.022460938 .25099183-.022460938 .3619995-.022460938 .45700074 .07156372 .45700074 .2036438 .45700074 .33070375 .36799623 .4267578 .25698854 .4267578 .18899536 .4267578 .1519928 .37573243 .13198853 .327713M.25099183 .0055389406C.18798828 .0055389406 .1579895 .06556702 .1519928 .080566409 .13398743 .127594 .13398743 .2076416 .13398743 .22564698 .13398743 .30369569 .1659851 .40374757 .2559967 .40374757 .27198792 .40374757 .31799317 .40374757 .34899903 .34172059 .36698915 .30470277 .36698915 .2536621 .36698915 .20463562 .36698915 .15661621 .36698915 .10658264 .34999085 .0705719 .31999208 .010528564 .27398683 .0055389406 .25099183 .0055389406Z"/>
<path id="font_1_8" d="M.47599793 .609375C.4850006 .6213684 .4850006 .62338259 .4850006 .64437869H.24198914C.11999512 .64437869 .117996219 .65737918 .11399841 .67637637H.08898926L.055999757 .4702301H.08099365C.083999637 .48625184 .09298706 .5493469 .10598755 .56137087 .11299133 .5673828 .19099427 .5673828 .20399475 .5673828H.41099549C.3999939 .5513611 .32099916 .4421997 .29899598 .40914918 .20899964 .27394105 .17599488 .1347351 .17599488 .032577516 .17599488 .022567749 .17599488-.022460938 .22200012-.022460938 .2679901-.022460938 .2679901 .022567749 .2679901 .032577516V.08366394C.2679901 .13873291 .2709961 .19381714 .2789917 .24790955 .2829895 .27093507 .29699708 .35707093 .34098817 .41915895L.47599793 .609375Z"/>
<clipPath id="clip_2">
<path transform="matrix(1.00002,0,0,-1.00006,41.06752,166.5352)" d="M0 0H194.26912V161.39636H0Z"/>
</clipPath>
<path id="font_3_111" d="M.772995 .6496124V.6826172C.74398806 .6796112 .69299319 .6796112 .673996 .6796112 .6549988 .6796112 .60899356 .6796112 .56399539 .6826172V.6496124C.60798647 .6496124 .6319885 .6274414 .6319885 .60032656 .6319885 .5923157 .6309967 .58932498 .6259918 .57832339L.42799378 .09446716 .21899414 .60232546C.21499634 .6123352 .21299744 .6163635 .21299744 .62039187 .21299744 .6496124 .2659912 .6496124 .29100038 .6496124V.6826172L.15098572 .6796112C.102996829 .6796112 .07299805 .6796112 .021987915 .6826172V.6496124C.08198547 .6496124 .10398865 .6496124 .11999512 .6113281L.36999513 .00050354006C.37799073-.018493653 .38598634-.021484375 .39698792-.021484375 .4149933-.021484375 .41799928-.0134887699 .42399598 .00050354006L.6629944 .58232119C.6899872 .64860537 .7529907 .6496124 .772995 .6496124Z"/>
<path id="font_3_50" d="M.44099427 .12036133C.44099427 .12435913 .43798829 .13438416 .4249878 .13438416 .4139862 .13438416 .4119873 .12736511 .4099884 .12136841 .37399293 .024230957 .28799439 .021224976 .269989 .021224976 .22499085 .021224976 .1789856 .042251588 .14898682 .08831787 .11898804 .13438416 .11898804 .19847107 .11898804 .22851563H.41299439C.43499757 .22851563 .44099427 .22851563 .44099427 .25151063 .44099427 .34039308 .3919983 .44628907 .25099183 .44628907 .1269989 .44628907 .02999878 .3433838 .02999878 .21949768 .02999878 .09031677 .13798523-.009765625 .2639923-.009765625 .3909912-.009765625 .44099427 .097335819 .44099427 .12036133M.37298585 .25450135H.11999512C.1289978 .39431764 .21398926 .41827394 .25099183 .41827394 .36799623 .41827394 .37199403 .27748109 .37298585 .25450135Z"/>
<path id="font_3_63" d="M.56199648 0V.032989503C.49798585 .032989503 .48599244 .032989503 .48599244 .07814026V.30371095C.48599244 .38746644 .44799806 .44140626 .34298707 .44140626 .25498963 .44140626 .20899964 .3854828 .19099427 .3535614H.18998719V.69433596L.040985109 .6826172V.6496124C.10899353 .6496124 .116989139 .64263918 .116989139 .5938263V.07814026C.116989139 .032989503 .10499573 .032989503 .040985109 .032989503V0C.083999637 .0029907227 .12799073 .0029907227 .15499878 .0029907227 .18399048 .0029907227 .22599793 .0029907227 .2689972 0V.032989503C.20498657 .032989503 .19299317 .032989503 .19299317 .07814026V.2597046C.19299317 .36453248 .272995 .4133911 .33399964 .4133911 .394989 .4133911 .4099884 .37051393 .4099884 .30769349V.07814026C.4099884 .032989503 .397995 .032989503 .33399964 .032989503V0C.3769989 .0029907227 .42099 .0029907227 .44799806 .0029907227 .47698976 .0029907227 .5189972 .0029907227 .56199648 0Z"/>
<path id="font_3_66" d="M.2599945 .0001373291V.03314209C.19499207 .03314209 .19099427 .038146974 .19099427 .07714844V.44140626L.04499817 .43045045V.39746095C.10899353 .39746095 .117996219 .39144898 .117996219 .34239198V.07814026C.117996219 .03314209 .10598755 .03314209 .041992189 .03314209V0C.08099365 .0029907227 .13699341 .0029907227 .1519928 .0029907227 .16499329 .0029907227 .22499085 .0029907227 .2599945 0V.0001373291M.20298767 .6021881C.20298767 .6351929 .1769867 .6582031 .147995 .6582031 .11898804 .6582031 .09298706 .6351929 .09298706 .6021881 .09298706 .5731964 .115997318 .54719546 .147995 .54719546 .1789856 .54719546 .20298767 .5731964 .20298767 .6021881Z"/>
<path id="font_3_43" d="M.44099427 .12031555C.44099427 .13232422 .42799378 .13232422 .4249878 .13232422 .41799928 .13232422 .41299439 .13131714 .4099884 .12130737 .40299989 .10029602 .375 .021224976 .2749939 .021224976 .21299744 .021224976 .12399292 .0692749 .12399292 .21739197 .12399292 .3614807 .19799805 .4152832 .2709961 .4152832 .27999879 .4152832 .33299256 .4152832 .36799623 .39746095 .33999635 .3884735 .33599855 .36547853 .33599855 .35346986 .33599855 .32647706 .35499574 .30647279 .3829956 .30647279 .40899659 .30625917 .42999269 .32426454 .42999269 .35427857 .42999269 .41627503 .3619995 .44628907 .2679901 .44628907 .1289978 .44628907 .034988405 .3352661 .034988405 .21624756 .034988405 .0892334 .13899231-.009765625 .2649994-.009765625 .4059906-.009765625 .44099427 .10824585 .44099427 .12023926V.12031555Z"/>
<path id="font_3_72" d="M.2669983 0V.032989503C.20298767 .032989503 .19099427 .032989503 .19099427 .07801819V.69433596L.041992189 .6826172V.6496124C.10998535 .6496124 .117996219 .64260867 .117996219 .5936432V.07795715C.117996219 .032989503 .10598755 .032989503 .041992189 .032989503V0C.08099365 .0029907227 .13699341 .0029907227 .1539917 .0029907227 .17399597 .0029907227 .22799683 .0029907227 .2669983 0Z"/>
<path id="font_3_82" d="M.44699098 0V.032989503H.4119873C.31698609 .032989503 .31399537 .04499817 .31399537 .08203125V.6371765C.31399537 .664032 .31199647 .66503909 .2849884 .66503909 .24398804 .6252289 .19099427 .6013489 .09599304 .6013489V.5683594C.12298584 .5683594 .1769867 .5683594 .23498535 .5953522V.08203125C.23498535 .04499817 .23199463 .032989503 .13699341 .032989503H.101989749V0C.14299011 .0029907227 .22898865 .0029907227 .27398683 .0029907227 .31900025 .0029907227 .4059906 .0029907227 .44699098 0Z"/>
<path id="font_3_107" d="M.47698976 .17900086H.44599916C.44299317 .15899658 .43499757 .10899353 .4229889 .08999634 .4169922 .08198547 .34098817 .08198547 .32499696 .08198547H.14698792L.28199769 .20399475C.2979889 .2190094 .33999635 .2519989 .35598756 .26600648 .41799928 .3230133 .47698976 .37802125 .47698976 .46902467 .47698976 .58802798 .3769989 .66503909 .2519989 .66503909 .13198853 .6651764 .052993776 .574173 .052993776 .48516847 .052993776 .4361725 .09199524 .4291687 .10598755 .4291687 .1269989 .4291687 .1579895 .4441681 .1579895 .48217774 .1579895 .5341797 .10798645 .5341797 .09599304 .5341797 .125 .6070709 .19198609 .6320343 .24099732 .6320343 .33399964 .6320343 .38198854 .55314639 .38198854 .46917726 .38198854 .36517335 .30899049 .2891693 .19099427 .16816712L.06498718 .03817749C.052993776 .026992798 .052993776 .024993897 .052993776 0H.44799806L.47698976 .17900086Z"/>
<path id="font_3_106" d="M.48599244 .17131043C.48599244 .25431825 .41999818 .330307 .31799317 .35231019 .39698792 .38031007 .45599366 .44831849 .45599366 .5283203 .45599366 .6080475 .3659973 .66503909 .2619934 .66503909 .15499878 .66503909 .07398987 .6070404 .07398987 .53105166 .07398987 .49404908 .09899902 .4780426 .125 .4780426 .1559906 .4780426 .17599488 .5000458 .17599488 .52905276 .17599488 .56604006 .14399719 .5800476 .12199402 .5810547 .1639862 .6360321 .24099732 .6390381 .25898744 .6390381 .2849884 .63931277 .36099244 .63131716 .36099244 .5283203 .36099244 .458313 .33198548 .41630555 .31799317 .40031434 .28799439 .36930848 .2649994 .36730958 .20399475 .36331178 .18499756 .36231996 .1769867 .36131288 .1769867 .34831239 .1769867 .3343048 .18598938 .3343048 .20298767 .3343048H.25299073C.33198548 .3343048 .38198854 .27630616 .38198854 .17131043 .38198854 .045440675 .31098939 .008514404 .2579956 .008514404 .20298767 .008514404 .12799073 .0284729 .09298706 .08137512 .1289978 .08137512 .1539917 .10437012 .1539917 .13737488 .1539917 .16937256 .1309967 .19238281 .09899902 .19238281 .07199097 .19238281 .04399109 .17536927 .04399109 .13537598 .04399109 .04045105 .1459961-.021484375 .2599945-.021484375 .3929901-.021484375 .48599244 .070388797 .48599244 .17037964V.17131043Z"/>
<path id="font_3_57" d="M.5 .1640625V.197052H.3939972V.64682009C.3939972 .6668091 .3939972 .6748047 .37298585 .6748047 .3600006 .6748047 .35899354 .6737976 .34899903 .6598053L.02999878 .197052V.1640625H.31199647V.08100891C.31199647 .04399109 .30899049 .032989503 .23199463 .032989503H.20899964V0L.35299684 .0029907227 .49699403 0V.032989503H.47399903C.39698792 .032989503 .3939972 .04399109 .3939972 .08100891V.1640625H.5M.31900025 .197052H.06498718L.31900025 .56585696V.197052Z"/>
<path id="font_3_56" d="M.47698976 .19924927C.47698976 .31576539 .3929901 .4189453 .2749939 .4189453 .22499085 .4189453 .17799378 .40293885 .13999939 .36886598V.5618439C.15299988 .55784609 .19299317 .54785159 .23498535 .54785159 .3600006 .54785159 .43598939 .63586428 .43598939 .6509552 .43598939 .6620178 .42900086 .66503909 .42399598 .66503909 .42399598 .66503909 .41999818 .66503909 .41099549 .66000369 .37199403 .6449127 .32598878 .632843 .27198792 .632843 .21299744 .632843 .1639862 .64793398 .1329956 .66000369 .12298584 .66503909 .11999512 .66503909 .11999512 .66503909 .10699463 .66503909 .10699463 .6539612 .10699463 .63586428V.34277345C.10699463 .32476808 .10699463 .3127594 .12298584 .3127594 .1309967 .3127594 .13398743 .31677247 .13899231 .32476808 .15098572 .33976747 .18899536 .39093019 .27398683 .39093019 .32998658 .39093019 .35699464 .34477235 .3659973 .3257599 .3829956 .2896576 .3849945 .24345398 .3849945 .20426941 .3849945 .16725159 .38398744 .11325073 .35598756 .069366458 .33699037 .03942871 .29699708 .008514404 .24398804 .008514404 .1789856 .008514404 .114990238 .04940796 .09199524 .11425781 .09498596 .11387634 .101989749 .11387634 .101989749 .11387634 .12998963 .11387634 .1519928 .13188172 .1519928 .16288758 .1519928 .19989014 .12298584 .21289063 .102996829 .21289063 .084991458 .21289063 .052993776 .20288086 .052993776 .15988159 .052993776 .069732669 .1309967-.021484375 .24598694-.021484375 .37098695-.021743775 .47698976 .07525635 .47698976 .19924927Z"/>
<path id="font_4_74" d="M.8789978 0V.0309906H.8549957C.7779999 .0309906 .776001 .041992189 .776001 .07795715V.6046295C.776001 .64060977 .7779999 .6516113 .8549957 .6516113H.8789978V.6826172H.70999148C.6839905 .6826172 .6839905 .6816101 .6769867 .66360476L.45799256 .10095215 .24099732 .660614C.23199463 .6826172 .22898865 .6826172 .20599365 .6826172H.036987306V.6516113H.06098938C.13798523 .6516113 .13999939 .64060977 .13999939 .6046295V.10494995C.13999939 .07795715 .13999939 .0309906 .036987306 .0309906V0L.1539917 .0029907227 .2709961 0V.0309906C.16799927 .0309906 .16799927 .07795715 .16799927 .10494995V.6436157H.16899109L.4099884 .021987915C.4149933 .008987427 .41999818 0 .42999269 0 .44099427 0 .44400025 .0079956059 .44799806 .018997193L.69400027 .6516113H.69499209V.07795715C.69499209 .041992189 .69299319 .0309906 .6159973 .0309906H.59199526V0C.6289978 .0029907227 .69699099 .0029907227 .73599246 .0029907227 .7749939 .0029907227 .84199526 .0029907227 .8789978 0Z"/>
<path id="font_4_66" d="M.24699402 0V.0309906C.18099976 .0309906 .1769867 .035995485 .1769867 .075042728V.4423828L.036987306 .43066407V.3996582C.101989749 .3996582 .11099243 .3936615 .11099243 .3447113V.07595825C.11099243 .0309906 .099990848 .0309906 .032989503 .0309906V0L.14299011 .0029907227C.17799378 .0029907227 .21299744 .0009918213 .24699402 0M.19198609 .603775C.19198609 .6307678 .16899109 .6567688 .13899231 .6567688 .10499573 .6567688 .084991458 .6287689 .084991458 .603775 .084991458 .57676699 .10798645 .55078127 .13798523 .55078127 .17199707 .55078127 .19198609 .5787811 .19198609 .603775Z"/>
<path id="font_4_72" d="M.25498963 0V.0309906C.18798828 .0309906 .1769867 .0309906 .1769867 .07601929V.69433596L.032989503 .6826172V.6516113C.102996829 .6516113 .11099243 .64460757 .11099243 .5956421V.07595825C.11099243 .0309906 .099990848 .0309906 .032989503 .0309906V0L.14399719 .0029907227 .25498963 0Z"/>
<path id="font_4_50" d="M.4149933 .11933899C.4149933 .12934876 .40699769 .13134766 .4019928 .13134766 .3929901 .13134766 .3909912 .12535095 .3889923 .11734009 .35398866 .014251709 .2639923 .014251709 .2539978 .014251709 .20399475 .014251709 .1639862 .044281007 .14099121 .08131409 .11099243 .12934876 .11099243 .19540406 .11099243 .23144531H.3899994C.4119873 .23144531 .4149933 .23144531 .4149933 .2524414 .4149933 .35131837 .36099244 .4482422 .23599243 .4482422 .11999512 .4482422 .027999878 .34532167 .027999878 .22042847 .027999878 .08631897 .1329956-.0107421879 .24798584-.0107421879 .36999513-.0107421879 .4149933 .10032654 .4149933 .11933899M.34899903 .2524414H.11199951C.117996219 .40126039 .20199585 .426239 .23599243 .426239 .33898927 .426239 .34899903 .2913971 .34899903 .2524414Z"/>
<path id="font_4_28" d="M.48298646 .08912659V.14511109H.45799256V.08912659C.45799256 .03112793 .43299867 .025131226 .42199708 .025131226 .3889923 .025131226 .3849945 .070129398 .3849945 .07511902V.27508546C.3849945 .31707765 .3849945 .3560791 .34899903 .39312745 .30999757 .43223573 .2599945 .4482422 .21199036 .4482422 .12998963 .4482422 .06098938 .40115357 .06098938 .335083 .06098938 .30508424 .08099365 .28808595 .10699463 .28808595 .1349945 .28808595 .15299988 .30807496 .15299988 .33407594 .15299988 .3460846 .147995 .37908937 .101989749 .38008119 .1289978 .41519166 .17799378 .426239 .20999146 .426239 .25898744 .426239 .31599427 .38710023 .31599427 .29808045V.26107789C.2649994 .25808717 .19499207 .25508119 .13198853 .22509766 .056991579 .19110108 .03199768 .13911438 .03199768 .09512329 .03199768 .014251709 .1289978-.0107421879 .19198609-.0107421879 .2579956-.0107421879 .3039856 .029251099 .32299806 .07624817 .32699586 .036132814 .35398866-.005859375 .40098573-.005859375 .42199708-.005859375 .48298646 .008132935 .48298646 .08912659M.31599427 .14013672C.31599427 .04525757 .24398804 .011245728 .19898987 .011245728 .1499939 .011245728 .10899353 .04624939 .10899353 .09625244 .10899353 .15124512 .15098572 .23425293 .31599427 .24024964V.14013672Z"/>
<path id="font_4_59" d="M.4850006 .40411378C.4850006 .42111207 .47299195 .453125 .43399049 .453125 .4139862 .453125 .36999513 .44711305 .32798768 .40611268 .28599549 .43937684 .24398804 .4423828 .22200012 .4423828 .1289978 .4423828 .05999756 .37338258 .05999756 .29638673 .05999756 .25239564 .08198547 .21440125 .10699463 .19340515 .09399414 .17840576 .07598877 .14538574 .07598877 .11035156 .07598877 .07899475 .08898926 .04083252 .11999512 .020828248 .05999756 .003829956 .027999878-.039138795 .027999878-.07911682 .027999878-.15107727 .1269989-.20605469 .24899292-.20605469 .36698915-.20605469 .47099305-.15507508 .47099305-.07711792 .47099305-.042144777 .45700074 .008834839 .4059906 .036834718 .35299684 .064834598 .29499818 .064834598 .23399353 .064834598 .20899964 .064834598 .1659851 .064834598 .15899658 .065841678 .1269989 .069885257 .10598755 .101242069 .10598755 .13334656 .10598755 .13735962 .10598755 .16040039 .12298584 .18040467 .1619873 .15240479 .20298767 .14941406 .22200012 .14941406 .31498719 .14941406 .38398744 .21839905 .38398744 .2953949 .38398744 .3323822 .36799623 .36938478 .34298707 .39237977 .3789978 .42637635 .4149933 .43138124 .43299867 .43138124 .43299867 .43112184 .43998719 .43112184 .44299317 .43011476 .43199159 .42611695 .4269867 .41513063 .4269867 .40315248 .4269867 .38616944 .43998719 .37417604 .45599366 .37417604 .46598817 .37417604 .4850006 .3811798 .4850006 .4041443V.40411378M.30899049 .29626466C.30899049 .26930238 .30799867 .2373352 .29299928 .21235657 .2849884 .20037842 .2619934 .17240906 .22200012 .17240906 .1349945 .17240906 .1349945 .2722931 .1349945 .29527284 .1349945 .3222351 .13598633 .35420228 .15098572 .3791809 .15899658 .3913269 .18199158 .41937257 .22200012 .41937257 .30899049 .41937257 .30899049 .31922914 .30899049 .29618836V.29626466M.4189911-.07911682C.4189911-.13308716 .34799195-.18305969 .25-.18305969 .14898682-.18305969 .07998657-.13209534 .07998657-.07911682 .07998657-.03314209 .117996219 .003829956 .1619873 .0068359377H.22099304C.30699159 .0068359377 .4189911 .0068359377 .4189911-.07911682Z"/>
<path id="font_4_85" d="M.33099366-.2400055C.33099366-.23701477 .33099366-.23500061 .31399537-.21800232 .18899536-.0920105 .15699768 .09700012 .15699768 .25 .15699768 .42399598 .19499207 .59799197 .31799317 .72299197 .33099366 .7350006 .33099366 .7369995 .33099366 .73999026 .33099366 .746994 .32699586 .75 .32099916 .75 .31098939 .75 .22099304 .6819916 .1619873 .5549927 .11099243 .44499208 .09899902 .33399964 .09899902 .25 .09899902 .17199707 .10998535 .050994874 .16499329-.06201172 .22499085-.18501282 .31098939-.25 .32099916-.25 .32699586-.25 .33099366-.24700928 .33099366-.2400055Z"/>
<path id="font_4_105" d="M.33198548 .12385559V.18066406H.30699159V.12585449C.30699159 .052108766 .2769928 .014251709 .23999024 .014251709 .17298889 .014251709 .17298889 .10491943 .17298889 .12187195V.3996582H.31599427V.43066407H.17298889V.6142578H.147995C.14698792 .5324249 .116989139 .42565919 .018997193 .42166139V.3996582H.10398865V.12408447C.10398865 .0012512207 .19699097-.0107421879 .23298645-.0107421879 .3039856-.0107421879 .33198548 .060180665 .33198548 .12408447V.12385559Z"/>
<path id="font_4_63" d="M.5349884 0V.0309906C.48298646 .0309906 .45799256 .0309906 .45700074 .061019899V.25221253C.45700074 .3383026 .45700074 .36932374 .42599488 .405365 .4119873 .42237855 .3789978 .4423828 .32099916 .4423828 .23699951 .4423828 .19299317 .38233949 .1769867 .34629823H.17599488V.69433596L.03199768 .6826172V.6516113C.101989749 .6516113 .10998535 .64463809 .10998535 .59580996V.076034549C.10998535 .0309906 .09899902 .0309906 .03199768 .0309906V0L.14498902 .0029907227 .25698854 0V.0309906C.18998719 .0309906 .1789856 .0309906 .1789856 .076034549V.2602234C.1789856 .36431886 .25 .42037965 .31399537 .42037965 .3769989 .42037965 .3880005 .36631776 .3880005 .30926515V.076034549C.3880005 .0309906 .3769989 .0309906 .30999757 .0309906V0L.4229889 .0029907227 .5349884 0Z"/>
<path id="font_4_81" d="M.47099305 .21424866C.47099305 .34223939 .37098695 .4482422 .25 .4482422 .125 .4482422 .027999878 .3392334 .027999878 .21424866 .027999878 .085250858 .13198853-.0107421879 .24899292-.0107421879 .36999513-.0107421879 .47099305 .087249759 .47099305 .21424866M.3880005 .22224427C.3880005 .18624878 .3880005 .13224793 .3659973 .08824158 .34399415 .04324341 .2999878 .014251709 .25 .014251709 .20698548 .014251709 .16299439 .035247804 .13598633 .08125305 .11099243 .12524414 .11099243 .18624878 .11099243 .22224427 .11099243 .26124574 .11099243 .31523133 .1349945 .35923768 .1619873 .40522767 .20899964 .426239 .24899292 .426239 .29299928 .426239 .33599855 .40423585 .3619995 .36123658 .3880005 .3182373 .3880005 .26023866 .3880005 .22224427Z"/>
<path id="font_4_109" d="M.5349884 0V.0309906C.46499635 .0309906 .45700074 .037994386 .45700074 .08705139V.4423828L.30999757 .43066407V.3996582C.37998963 .3996582 .3880005 .39266969 .3880005 .34373475V.16601563C.3880005 .07910156 .33999635 .011245728 .2669983 .011245728 .18299866 .011245728 .1789856 .058135988 .1789856 .11009216V.4423828L.03199768 .43066407V.3996582C.10998535 .3996582 .10998535 .39666749 .10998535 .3078003V.15802002C.10998535 .080093387 .10998535-.0107421879 .2619934-.0107421879 .31799317-.0107421879 .3619995 .017242432 .3909912 .07910156V-.0107421879L.5349884 0Z"/>
<path id="font_4_98" d="M.3600006 .12823487C.3600006 .18122864 .32998658 .21122742 .31799317 .22323609 .2849884 .25523377 .24598694 .26322938 .20399475 .27124024 .147995 .28224183 .08099365 .29522706 .08099365 .35324098 .08099365 .38822938 .10699463 .42922975 .19299317 .42922975 .30299378 .42922975 .30799867 .3392334 .30999757 .30822755 .31098939 .2992401 .32199098 .2992401 .32199098 .2992401 .33499146 .2992401 .33499146 .30422975 .33499146 .32322694V.4242401C.33499146 .4412384 .33499146 .4482422 .32398988 .4482422 .31900025 .4482422 .31698609 .4482422 .3039856 .43623353 .30099488 .43223573 .29100038 .42323304 .2869873 .42022706 .24899292 .4482422 .20799256 .4482422 .19299317 .4482422 .070999149 .4482422 .032989503 .38124085 .032989503 .3252411 .032989503 .29023744 .04899597 .26223756 .07598877 .24023438 .10798645 .2142334 .13598633 .2082367 .20799256 .19422913 .22999573 .19021607 .31199647 .17422486 .31199647 .10221863 .31199647 .051223756 .2769928 .011245728 .19898987 .011245728 .114990238 .011245728 .07899475 .068222049 .05999756 .1532135 .056991579 .16621399 .055999757 .17021179 .04598999 .17021179 .032989503 .17021179 .032989503 .16322327 .032989503 .1452179V.013214111C.032989503-.003753662 .032989503-.0107421879 .04399109-.0107421879 .04899597-.0107421879 .049987794-.009750366 .068984989 .009246826 .070999149 .011245728 .070999149 .013214111 .08898926 .032226564 .1329956-.009750366 .17799378-.0107421879 .19898987-.0107421879 .31399537-.0107421879 .3600006 .05621338 .3600006 .1282196V.12823487Z"/>
<path id="font_4_77" d="M.5349884 0V.0309906C.48298646 .0309906 .45799256 .0309906 .45700074 .061019899V.25221253C.45700074 .3383026 .45700074 .36932374 .42599488 .405365 .4119873 .42237855 .3789978 .4423828 .32099916 .4423828 .24798584 .4423828 .20098877 .39935304 .17298889 .33729554V.4423828L.03199768 .43066407V.3996582C.101989749 .3996582 .10998535 .39266969 .10998535 .34370423V.07595825C.10998535 .0309906 .09899902 .0309906 .03199768 .0309906V0L.14498902 .0029907227 .25698854 0V.0309906C.18998719 .0309906 .1789856 .0309906 .1789856 .07595825V.25978089C.1789856 .36431886 .25 .42037965 .31399537 .42037965 .3769989 .42037965 .3880005 .36631776 .3880005 .30926515V.076034549C.3880005 .0309906 .3769989 .0309906 .30999757 .0309906V0L.4229889 .0029907227 .5349884 0Z"/>
<path id="font_4_47" d="M.5269928 0V.0309906C.45700074 .0309906 .44898988 .038009645 .44898988 .0871582V.69433596L.30499269 .6826172V.6516113C.375 .6516113 .3829956 .64463809 .3829956 .59580996V.38035584C.35398866 .41636659 .31098939 .4423828 .25698854 .4423828 .13899231 .4423828 .033996583 .3443451 .033996583 .21531677 .033996583 .088272098 .13198853-.0107421879 .24598694-.0107421879 .30999757-.0107421879 .35499574 .023254395 .37998963 .055267335V-.0107421879L.5269928 0M.37998963 .117996219C.37998963 .099990848 .37998963 .09799194 .36898805 .08099365 .33898927 .033218385 .2939911 .011245728 .25099183 .011245728 .20599365 .011245728 .16999817 .037216188 .1459961 .075164798 .11999512 .1161499 .116989139 .17320252 .116989139 .21421814 .116989139 .25125123 .11898804 .31129457 .147995 .35632325 .16899109 .38734437 .20698548 .42037965 .26098634 .42037965 .29599 .42037965 .33799745 .405365 .36898805 .3603363 .37998963 .34332276 .37998963 .34132386 .37998963 .32330323V.117996219Z"/>
<path id="font_4_55" d="M.35699464 .63479617C.35699464 .6717987 .31999208 .7050781 .2669983 .7050781 .19699097 .7050781 .11199951 .65179446 .11199951 .5457611V.43066407H.032989503V.3996582H.11199951V.07595825C.11199951 .0309906 .100997928 .0309906 .033996583 .0309906V0L.147995 .0029907227C.18798828 .0029907227 .23498535 .0029907227 .2749939 0V.0309906H.2539978C.17999268 .0309906 .17799378 .04197693 .17799378 .07795715V.3996582H.2919922V.43066407H.1749878V.5467529C.1749878 .63479617 .22299195 .68307498 .2669983 .68307498 .269989 .68307498 .2849884 .68307498 .2999878 .675827 .28799439 .6717987 .269989 .6587982 .269989 .6338043 .269989 .61079409 .28599549 .5907898 .31298829 .5907898 .34199525 .5907898 .35699464 .61079409 .35699464 .63479617Z"/>
<path id="font_4_75" d="M.8129883 0V.0309906C.7609863 .0309906 .73599246 .0309906 .7350006 .061019899V.25221253C.7350006 .3383026 .7350006 .36932374 .70399478 .405365 .6899872 .42237855 .6569977 .4423828 .598999 .4423828 .5149994 .4423828 .47099305 .38233949 .45399476 .34429933 .43998719 .43138124 .3659973 .4423828 .32099916 .4423828 .24798584 .4423828 .20098877 .39935304 .17298889 .33729554V.4423828L.03199768 .43066407V.3996582C.101989749 .3996582 .10998535 .39266969 .10998535 .34370423V.07595825C.10998535 .0309906 .09899902 .0309906 .03199768 .0309906V0L.14498902 .0029907227 .25698854 0V.0309906C.18998719 .0309906 .1789856 .0309906 .1789856 .07595825V.25978089C.1789856 .36431886 .25 .42037965 .31399537 .42037965 .3769989 .42037965 .3880005 .36631776 .3880005 .30926515V.076034549C.3880005 .0309906 .3769989 .0309906 .30999757 .0309906V0L.4229889 .0029907227 .5349884 0V.0309906C.46798707 .0309906 .45700074 .0309906 .45700074 .076034549V.2602234C.45700074 .36431886 .5279999 .42037965 .59199526 .42037965 .6549988 .42037965 .66600039 .36631776 .66600039 .30926515V.076034549C.66600039 .0309906 .6549988 .0309906 .58799746 .0309906V0L.70098879 .0029907227 .8129883 0Z"/>
<path id="font_4_86" d="M.2889862 .25C.2889862 .32798768 .27799989 .44898988 .22299195 .56199648 .16299439 .68499758 .07699585 .75 .066986087 .75 .06098938 .75 .056991579 .74598696 .056991579 .73999026 .056991579 .7369995 .056991579 .7350006 .07598877 .71699526 .17399597 .6179962 .23098755 .45899964 .23098755 .25 .23098755 .07899475 .19400025-.09700012 .069992069-.2230072 .056991579-.23500061 .056991579-.23701477 .056991579-.2400055 .056991579-.2460022 .06098938-.25 .066986087-.25 .07699585-.25 .16699219-.18200684 .22599793-.055007936 .2769928 .054992677 .2889862 .16600037 .2889862 .25Z"/>
<path id="font_4_95" d="M.7319946 .08753967C.7319946 .09353638 .7319946 .104537967 .71899417 .104537967 .70799258 .104537967 .70799258 .09555054 .70700076 .08854675 .70098879 .017532349 .66600039-.00047302247 .6409912-.00047302247 .59199526-.00047302247 .58399966 .05053711 .56999209 .14355469L.5569916 .22355652C.5389862 .28756715 .48999024 .3205719 .43499757 .3395691 .5319977 .36357118 .6100006 .4245758 .6100006 .502594 .6100006 .5986023 .49598695 .6826172 .34899903 .6826172H.034988405V.6516113H.05899048C.13598633 .6516113 .13798523 .64060977 .13798523 .604599V.077545169C.13798523 .04197693 .13598633 .0309906 .05899048 .0309906H.034988405V0C.070999149 .0029907227 .14199829 .0029907227 .18099976 .0029907227 .21998596 .0029907227 .29100038 .0029907227 .32699586 0V.0309906H.30299378C.22599793 .0309906 .22399903 .04197693 .22399903 .077926639V.3305359H.33898927C.35499574 .3305359 .39698792 .3305359 .43199159 .29658509 .46998597 .26063539 .46998597 .22969055 .46998597 .16279602 .46998597 .09788513 .46998597 .05795288 .5109863 .019989014 .5519867-.016464234 .6069946-.022460938 .6369934-.022460938 .71499636-.022460938 .7319946 .059524537 .7319946 .087524417V.08753967M.5069885 .5025635C.5069885 .43354798 .48298646 .35253907 .33499146 .35253907H.22399903V.6116028C.22399903 .6345978 .22399903 .64660647 .24598694 .6496124 .2559967 .6516113 .2849884 .6516113 .30499269 .6516113 .394989 .6516113 .5069885 .6476135 .5069885 .5025635Z"/>
<path id="font_4_111" d="M.7299957 .6516113V.6826172C.69898989 .680603 .6589966 .6796112 .6329956 .6796112L.5189972 .6826172V.6516113C.57099917 .6506195 .59199526 .6246033 .59199526 .6016083 .59199526 .5936127 .58898928 .5876007 .58699038 .581604L.4039917 .09954834 .21299744 .60461428C.20698548 .61860659 .20698548 .62260439 .20698548 .62260439 .20698548 .6516113 .2639923 .6516113 .2889862 .6516113V.6826172C.25299073 .6796112 .18399048 .6796112 .1459961 .6796112L.018997193 .6826172V.6516113C.083999637 .6516113 .102996829 .6516113 .116989139 .6136017L.34899903-.00047302247C.35598756-.019470215 .36099244-.022460938 .37399293-.022460938 .3909912-.022460938 .3929901-.017471314 .397995-.0034637452L.62098696 .58461C.6349945 .62161257 .6619873 .6506195 .7299957 .6516113Z"/>
<path id="font_4_96" d="M.3639984 .38137818C.3639984 .41337586 .33299256 .4423828 .2899933 .4423828 .21699524 .4423828 .18099976 .37538148 .16699219 .3323822V.4423828L.027999878 .43066407V.3996582C.09799194 .3996582 .10598755 .39266969 .10598755 .34370423V.07595825C.10598755 .0309906 .09498596 .0309906 .027999878 .0309906V0L.14199829 .0029907227C.18199158 .0029907227 .22898865 .0029907227 .2689972 0V.0309906H.24798584C.17399597 .0309906 .17199707 .04197693 .17199707 .07795715V.23181153C.17199707 .33137513 .21398926 .42037965 .2899933 .42037965 .29699708 .42037965 .29899598 .42037965 .30099488 .41937257 .2979889 .41838075 .27799989 .40637208 .27799989 .3803711 .27799989 .35237123 .29899598 .33737184 .32099916 .33737184 .33898927 .33737184 .3639984 .3493805 .3639984 .38137818Z"/>
<path id="font_4_71" d="M.58200076 .2578125H.5569916C.54599 .15588379 .5319977 .0309906 .35598756 .0309906H.27398683C.22698975 .03060913 .22499085 .037612916 .22499085 .07060242V.6036072C.22499085 .63760378 .22499085 .6516113 .31999208 .6516113H.35299684V.6826172C.31698609 .6796112 .22599793 .6796112 .18499756 .6796112 .1459961 .6796112 .067993167 .6796112 .032989503 .6826172V.6516113H.056991579C.13398743 .6518097 .13598633 .6408081 .13598633 .6048126V.07795715C.13598633 .04197693 .13398743 .0309906 .056991579 .0309906H.032989503V0H.55400088L.58200076 .2578125Z"/>
<path id="font_4_80" d="M.72099307 .3387909C.72099307 .5429535 .56999209 .7050781 .3880005 .7050781 .20899964 .7050781 .055999757 .5449524 .055999757 .3387909 .055999757 .13363648 .20999146-.022460938 .3880005-.022460938 .56999209-.022460938 .72099307 .13664246 .72099307 .3387909M.6179962 .35281373C.6179962 .08760071 .48098756 .0035247803 .3889923 .0035247803 .29299928 .0035247803 .15899658 .09159851 .15899658 .35281373 .15899658 .6120148 .30499269 .68006899 .3880005 .68006899 .47499085 .68006899 .6179962 .6090088 .6179962 .35281373Z"/>
<path id="font_4_35" d="M.5209961 .2163086C.5209961 .34335328 .4229889 .4423828 .30899049 .4423828 .23098755 .4423828 .18798828 .39537049 .17199707 .3773651V.69433596L.027999878 .68333438V.6523285C.09799194 .6523285 .10598755 .6453247 .10598755 .596344V.00024414063H.1309967L.16699219 .06227112C.18199158 .039260866 .22399903-.0107421879 .2979889-.0107421879 .4169922-.0107421879 .5209961 .08728027 .5209961 .2163086M.43798829 .21731568C.43798829 .18029785 .43598939 .120285037 .40699769 .07527161 .38598634 .044265748 .34799195 .011245728 .2939911 .011245728 .24899292 .011260986 .21299744 .03526306 .18899536 .072265628 .1749878 .09326172 .1749878 .09625244 .1749878 .11425781V.32034303C.1749878 .3393402 .1749878 .3403473 .18598938 .35635377 .22499085 .41236878 .27999879 .42037965 .3039856 .42037965 .34899903 .42037965 .3849945 .3943634 .40899659 .35635377 .43499757 .31533814 .43798829 .25831605 .43798829 .21730042V.21731568Z"/>
<path id="font_4_112" d="M.5079956 .3996582V.43066407C.4850006 .4286499 .45599366 .42765809 .43299867 .42765809L.34599305 .43066407V.3996582C.3829956 .39865113 .3939972 .37568666 .3939972 .35671998 .3939972 .34773255 .3919983 .34373475 .3880005 .3327484L.28599549 .078125 .17399597 .35671998C.16799927 .3697052 .16799927 .37368775 .16799927 .37368775 .16799927 .3996582 .20698548 .3996582 .22499085 .3996582V.43066407L.115997318 .42765809C.08898926 .42765809 .04899597 .4286499 .018997193 .43066407V.3996582C.08198547 .3996582 .085998538 .3936615 .09899902 .36271668L.24299622 .008224487C.24899292-.0057525637 .25099183-.0107421879 .2639923-.0107421879 .2769928-.0107421879 .2809906-.0017700195 .2849884 .008224487L.41600038 .3327484C.4249878 .3557129 .44198609 .39865113 .5079956 .3996582Z"/>
<path id="font_4_46" d="M.70700076 .33580018C.70700076 .52568057 .57199099 .6826172 .40098573 .6826172H.034988405V.6516113H.05899048C.13598633 .6516113 .13798523 .64060977 .13798523 .6046295V.07795715C.13798523 .041992189 .13598633 .0309906 .05899048 .0309906H.034988405V0H.40098573C.56900027 0 .70700076 .1479187 .70700076 .33580018M.6069946 .33580018C.6069946 .22486878 .58799746 .16490174 .5519867 .11593628 .5319977 .08895874 .47499085 .0309906 .37399293 .0309906H.272995C.22599793 .0309906 .22399903 .037994386 .22399903 .07096863V.6116333C.22399903 .64460757 .22599793 .6516113 .272995 .6516113H.37298585C.43499757 .6516113 .5039978 .6296234 .5549927 .55867007 .59799197 .49969483 .6069946 .41375733 .6069946 .33580018Z"/>
<path id="font_4_83" d="M.6239929 .4967041C.6239929 .59465029 .5249939 .6826172 .3880005 .6826172H.034988405V.6516113H.05899048C.13598633 .6516113 .13798523 .64060977 .13798523 .6046295V.07795715C.13798523 .041992189 .13598633 .0309906 .05899048 .0309906H.034988405V0C.069992069 .0029907227 .14399719 .0029907227 .18199158 .0029907227 .21998596 .0029907227 .29499818 .0029907227 .32998658 0V.0309906H.30599977C.22898865 .0309906 .22698975 .041992189 .22698975 .07795715V.3157959H.3959961C.5159912 .3157959 .6239929 .39675904 .6239929 .4967041M.5209961 .4967041C.5209961 .4497223 .5209961 .34179688 .3619995 .34179688H.22399903V.6116333C.22399903 .64460757 .22599793 .6516113 .272995 .6516113H.3619995C.5209961 .6516113 .5209961 .54566958 .5209961 .4967041Z"/>
</defs>
<path transform="matrix(1.00002,0,0,-1.00006,41.06752,166.5352)" stroke-width=".19925" stroke-linecap="butt" stroke-miterlimit="10" stroke-linejoin="miter" fill="none" stroke="#bfbfbf" d="M0 0V161.39636M27.75273 0V161.39636M55.50546 0V161.39636M83.2582 0V161.39636M111.01093 0V161.39636M138.76366 0V161.39636M166.51639 0V161.39636M194.26912 0V161.39636"/>
<path transform="matrix(1.00002,0,0,-1.00006,41.06752,166.5352)" stroke-width=".19925" stroke-linecap="butt" stroke-miterlimit="10" stroke-linejoin="miter" fill="none" stroke="#bfbfbf" d="M0 0H194.26912M0 20.17455H194.26912M0 40.34909H194.26912M0 60.52364H194.26912M0 80.69818H194.26912M0 100.87273H194.26912M0 121.04727H194.26912M0 141.22182H194.26912M0 161.39636H194.26912"/>
<path transform="matrix(1.00002,0,0,-1.00006,41.06752,166.5352)" stroke-width=".19925" stroke-linecap="butt" stroke-miterlimit="10" stroke-linejoin="miter" fill="none" stroke="#7f807f" d="M0 0V4.25194M27.75273 0V4.25194M55.50546 0V4.25194M83.2582 0V4.25194M111.01093 0V4.25194M138.76366 0V4.25194M166.51639 0V4.25194M194.26912 0V4.25194M0 161.39636V157.1444M27.75273 161.39636V157.1444M55.50546 161.39636V157.1444M83.2582 161.39636V157.1444M111.01093 161.39636V157.1444M138.76366 161.39636V157.1444M166.51639 161.39636V157.1444M194.26912 161.39636V157.1444"/>
<path transform="matrix(1.00002,0,0,-1.00006,41.06752,166.5352)" stroke-width=".19925" stroke-linecap="butt" stroke-miterlimit="10" stroke-linejoin="miter" fill="none" stroke="#7f807f" d="M0 0H4.25194M0 20.17455H4.25194M0 40.34909H4.25194M0 60.52364H4.25194M0 80.69818H4.25194M0 100.87273H4.25194M0 121.04727H4.25194M0 141.22182H4.25194M0 161.39636H4.25194M194.26912 0H190.01715M194.26912 20.17455H190.01715M194.26912 40.34909H190.01715M194.26912 60.52364H190.01715M194.26912 80.69818H190.01715M194.26912 100.87273H190.01715M194.26912 121.04727H190.01715M194.26912 141.22182H190.01715M194.26912 161.39636H190.01715"/>
<path transform="matrix(1.00002,0,0,-1.00006,41.06752,166.5352)" stroke-width=".3985" stroke-linecap="butt" stroke-miterlimit="10" stroke-linejoin="miter" fill="none" stroke="#000000" d="M0 0V161.39636H194.26912V0H0Z"/>
<use data-text="0" xlink:href="#font_1_1" transform="matrix(9.962799,0,0,-9.963197,38.576478,176.4758)"/>
<use data-text="1" xlink:href="#font_1_2" transform="matrix(9.962799,0,0,-9.963197,63.838975,176.4758)"/>
<use data-text="0" xlink:href="#font_1_1" transform="matrix(9.962799,0,0,-9.963197,68.82037,176.4758)"/>
<use data-text="2" xlink:href="#font_1_3" transform="matrix(9.962799,0,0,-9.963197,91.59253,176.4758)"/>
<use data-text="0" xlink:href="#font_1_1" transform="matrix(9.962799,0,0,-9.963197,96.57393,176.4758)"/>
<use data-text="3" xlink:href="#font_1_4" transform="matrix(9.962799,0,0,-9.963197,119.346088,176.4758)"/>
<use data-text="0" xlink:href="#font_1_1" transform="matrix(9.962799,0,0,-9.963197,124.327487,176.4758)"/>
<use data-text="4" xlink:href="#font_1_5" transform="matrix(9.962799,0,0,-9.963197,147.09964,176.4758)"/>
<use data-text="0" xlink:href="#font_1_1" transform="matrix(9.962799,0,0,-9.963197,152.08104,176.4758)"/>
<use data-text="5" xlink:href="#font_1_6" transform="matrix(9.962799,0,0,-9.963197,174.8522,176.4758)"/>
<use data-text="0" xlink:href="#font_1_1" transform="matrix(9.962799,0,0,-9.963197,179.8336,176.4758)"/>
<use data-text="6" xlink:href="#font_1_7" transform="matrix(9.962799,0,0,-9.963197,202.60576,176.4758)"/>
<use data-text="0" xlink:href="#font_1_1" transform="matrix(9.962799,0,0,-9.963197,207.58716,176.4758)"/>
<use data-text="7" xlink:href="#font_1_8" transform="matrix(9.962799,0,0,-9.963197,230.3593,176.4758)"/>
<use data-text="0" xlink:href="#font_1_1" transform="matrix(9.962799,0,0,-9.963197,235.3407,176.4758)"/>
<use data-text="0" xlink:href="#font_1_1" transform="matrix(9.962799,0,0,-9.963197,32.566347,169.74539)"/>
<use data-text="5" xlink:href="#font_1_6" transform="matrix(9.962799,0,0,-9.963197,32.566347,149.57019)"/>
<use data-text="1" xlink:href="#font_1_2" transform="matrix(9.962799,0,0,-9.963197,27.584244,129.39398)"/>
<use data-text="0" xlink:href="#font_1_1" transform="matrix(9.962799,0,0,-9.963197,32.565645,129.39398)"/>
<use data-text="1" xlink:href="#font_1_2" transform="matrix(9.962799,0,0,-9.963197,27.584244,109.218769)"/>
<use data-text="5" xlink:href="#font_1_6" transform="matrix(9.962799,0,0,-9.963197,32.565645,109.218769)"/>
<use data-text="2" xlink:href="#font_1_3" transform="matrix(9.962799,0,0,-9.963197,27.584244,89.04256)"/>
<use data-text="0" xlink:href="#font_1_1" transform="matrix(9.962799,0,0,-9.963197,32.565645,89.04256)"/>
<use data-text="2" xlink:href="#font_1_3" transform="matrix(9.962799,0,0,-9.963197,27.584244,68.86734)"/>
<use data-text="5" xlink:href="#font_1_6" transform="matrix(9.962799,0,0,-9.963197,32.565645,68.86734)"/>
<use data-text="3" xlink:href="#font_1_4" transform="matrix(9.962799,0,0,-9.963197,27.584244,48.69114)"/>
<use data-text="0" xlink:href="#font_1_1" transform="matrix(9.962799,0,0,-9.963197,32.565645,48.69114)"/>
<use data-text="3" xlink:href="#font_1_4" transform="matrix(9.962799,0,0,-9.963197,27.584244,28.514939)"/>
<use data-text="5" xlink:href="#font_1_6" transform="matrix(9.962799,0,0,-9.963197,32.565645,28.514939)"/>
<use data-text="4" xlink:href="#font_1_5" transform="matrix(9.962799,0,0,-9.963197,27.584244,8.339706)"/>
<use data-text="0" xlink:href="#font_1_1" transform="matrix(9.962799,0,0,-9.963197,32.565645,8.339706)"/>
<g clip-path="url(#clip_2)">
<path transform="matrix(1.00002,0,0,-1.00006,41.06752,166.5352)" stroke-width=".79701" stroke-linecap="butt" stroke-miterlimit="10" stroke-linejoin="miter" fill="none" stroke="#ff0000" d="M0 145.25672 194.26912 20.98152"/>
</g>
<path transform="matrix(1.00002,0,0,-1.00006,41.06752,166.5352)" d="M30.74156 141.22182C30.74156 142.87252 29.40343 144.21065 27.75273 144.21065 26.10202 144.21065 24.7639 142.87252 24.7639 141.22182 24.7639 139.5711 26.10202 138.23299 27.75273 138.23299 29.40343 138.23299 30.74156 139.5711 30.74156 141.22182ZM27.75273 141.22182" fill="#0000ff"/>
<path transform="matrix(1.00002,0,0,-1.00006,41.06752,166.5352)" stroke-width=".3985" stroke-linecap="butt" stroke-miterlimit="10" stroke-linejoin="miter" fill="none" stroke="#0000ff" d="M30.74156 141.22182C30.74156 142.87252 29.40343 144.21065 27.75273 144.21065 26.10202 144.21065 24.7639 142.87252 24.7639 141.22182 24.7639 139.5711 26.10202 138.23299 27.75273 138.23299 29.40343 138.23299 30.74156 139.5711 30.74156 141.22182ZM27.75273 141.22182"/>
<path transform="matrix(1.00002,0,0,-1.00006,41.06752,166.5352)" stroke-width=".3985" stroke-linecap="butt" stroke-miterlimit="10" stroke-linejoin="miter" fill="none" stroke="#0000ff" d=""/>
<use data-text="V" xlink:href="#font_3_111" transform="matrix(7.9702599,0,0,-7.9705779,31.92134,21.617524)"/>
<use data-text="e" xlink:href="#font_3_50" transform="matrix(7.9702599,0,0,-7.9705779,37.55632,21.617524)"/>
<use data-text="h" xlink:href="#font_3_63" transform="matrix(7.9702599,0,0,-7.9705779,41.318269,21.617524)"/>
<use data-text="i" xlink:href="#font_3_66" transform="matrix(7.9702599,0,0,-7.9705779,46.020738,21.617524)"/>
<use data-text="c" xlink:href="#font_3_43" transform="matrix(7.9702599,0,0,-7.9705779,48.371965,21.617524)"/>
<use data-text="l" xlink:href="#font_3_72" transform="matrix(7.9702599,0,0,-7.9705779,52.133928,21.617524)"/>
<use data-text="e" xlink:href="#font_3_50" transform="matrix(7.9702599,0,0,-7.9705779,54.485155,21.617524)"/>
<use data-text="1" xlink:href="#font_3_82" transform="matrix(7.9702599,0,0,-7.9705779,61.060609,21.617524)"/>
<path transform="matrix(1.00002,0,0,-1.00006,41.06752,166.5352)" d="M58.4943 117.01236C58.4943 118.66307 57.15616 120.00119 55.50546 120.00119 53.85475 120.00119 52.51663 118.66307 52.51663 117.01236 52.51663 115.36165 53.85475 114.02353 55.50546 114.02353 57.15616 114.02353 58.4943 115.36165 58.4943 117.01236ZM55.50546 117.01236" fill="#0000ff"/>
<path transform="matrix(1.00002,0,0,-1.00006,41.06752,166.5352)" stroke-width=".3985" stroke-linecap="butt" stroke-miterlimit="10" stroke-linejoin="miter" fill="none" stroke="#0000ff" d="M58.4943 117.01236C58.4943 118.66307 57.15616 120.00119 55.50546 120.00119 53.85475 120.00119 52.51663 118.66307 52.51663 117.01236 52.51663 115.36165 53.85475 114.02353 55.50546 114.02353 57.15616 114.02353 58.4943 115.36165 58.4943 117.01236ZM55.50546 117.01236"/>
<path transform="matrix(1.00002,0,0,-1.00006,41.06752,166.5352)" stroke-width=".3985" stroke-linecap="butt" stroke-miterlimit="10" stroke-linejoin="miter" fill="none" stroke="#0000ff" d=""/>
<use data-text="V" xlink:href="#font_3_111" transform="matrix(7.9702599,0,0,-7.9705779,59.67389,45.827966)"/>
<use data-text="e" xlink:href="#font_3_50" transform="matrix(7.9702599,0,0,-7.9705779,65.30887,45.827966)"/>
<use data-text="h" xlink:href="#font_3_63" transform="matrix(7.9702599,0,0,-7.9705779,69.070819,45.827966)"/>
<use data-text="i" xlink:href="#font_3_66" transform="matrix(7.9702599,0,0,-7.9705779,73.773288,45.827966)"/>
<use data-text="c" xlink:href="#font_3_43" transform="matrix(7.9702599,0,0,-7.9705779,76.12451,45.827966)"/>
<use data-text="l" xlink:href="#font_3_72" transform="matrix(7.9702599,0,0,-7.9705779,79.886478,45.827966)"/>
<use data-text="e" xlink:href="#font_3_50" transform="matrix(7.9702599,0,0,-7.9705779,82.2377,45.827966)"/>
<use data-text="2" xlink:href="#font_3_107" transform="matrix(7.9702599,0,0,-7.9705779,88.813159,45.827966)"/>
<path transform="matrix(1.00002,0,0,-1.00006,41.06752,166.5352)" d="M86.24702 104.90762C86.24702 106.55833 84.90889 107.89645 83.2582 107.89645 81.60748 107.89645 80.26936 106.55833 80.26936 104.90762 80.26936 103.25693 81.60748 101.9188 83.2582 101.9188 84.90889 101.9188 86.24702 103.25693 86.24702 104.90762ZM83.2582 104.90762" fill="#0000ff"/>
<path transform="matrix(1.00002,0,0,-1.00006,41.06752,166.5352)" stroke-width=".3985" stroke-linecap="butt" stroke-miterlimit="10" stroke-linejoin="miter" fill="none" stroke="#0000ff" d="M86.24702 104.90762C86.24702 106.55833 84.90889 107.89645 83.2582 107.89645 81.60748 107.89645 80.26936 106.55833 80.26936 104.90762 80.26936 103.25693 81.60748 101.9188 83.2582 101.9188 84.90889 101.9188 86.24702 103.25693 86.24702 104.90762ZM83.2582 104.90762"/>
<path transform="matrix(1.00002,0,0,-1.00006,41.06752,166.5352)" stroke-width=".3985" stroke-linecap="butt" stroke-miterlimit="10" stroke-linejoin="miter" fill="none" stroke="#0000ff" d=""/>
<use data-text="V" xlink:href="#font_3_111" transform="matrix(7.9702599,0,0,-7.9705779,87.427448,57.933694)"/>
<use data-text="e" xlink:href="#font_3_50" transform="matrix(7.9702599,0,0,-7.9705779,93.06242,57.933694)"/>
<use data-text="h" xlink:href="#font_3_63" transform="matrix(7.9702599,0,0,-7.9705779,96.82437,57.933694)"/>
<use data-text="i" xlink:href="#font_3_66" transform="matrix(7.9702599,0,0,-7.9705779,101.52684,57.933694)"/>
<use data-text="c" xlink:href="#font_3_43" transform="matrix(7.9702599,0,0,-7.9705779,103.87807,57.933694)"/>
<use data-text="l" xlink:href="#font_3_72" transform="matrix(7.9702599,0,0,-7.9705779,107.64003,57.933694)"/>
<use data-text="e" xlink:href="#font_3_50" transform="matrix(7.9702599,0,0,-7.9705779,109.99126,57.933694)"/>
<use data-text="3" xlink:href="#font_3_106" transform="matrix(7.9702599,0,0,-7.9705779,116.56671,57.933694)"/>
<path transform="matrix(1.00002,0,0,-1.00006,41.06752,166.5352)" d="M113.99976 80.69818C113.99976 82.34888 112.66162 83.68701 111.01093 83.68701 109.36021 83.68701 108.0221 82.34888 108.0221 80.69818 108.0221 79.04747 109.36021 77.70935 111.01093 77.70935 112.66162 77.70935 113.99976 79.04747 113.99976 80.69818ZM111.01093 80.69818" fill="#0000ff"/>
<path transform="matrix(1.00002,0,0,-1.00006,41.06752,166.5352)" stroke-width=".3985" stroke-linecap="butt" stroke-miterlimit="10" stroke-linejoin="miter" fill="none" stroke="#0000ff" d="M113.99976 80.69818C113.99976 82.34888 112.66162 83.68701 111.01093 83.68701 109.36021 83.68701 108.0221 82.34888 108.0221 80.69818 108.0221 79.04747 109.36021 77.70935 111.01093 77.70935 112.66162 77.70935 113.99976 79.04747 113.99976 80.69818ZM111.01093 80.69818"/>
<path transform="matrix(1.00002,0,0,-1.00006,41.06752,166.5352)" stroke-width=".3985" stroke-linecap="butt" stroke-miterlimit="10" stroke-linejoin="miter" fill="none" stroke="#0000ff" d=""/>
<use data-text="V" xlink:href="#font_3_111" transform="matrix(7.9702599,0,0,-7.9705779,115.18101,82.14514)"/>
<use data-text="e" xlink:href="#font_3_50" transform="matrix(7.9702599,0,0,-7.9705779,120.81599,82.14514)"/>
<use data-text="h" xlink:href="#font_3_63" transform="matrix(7.9702599,0,0,-7.9705779,124.577938,82.14514)"/>
<use data-text="i" xlink:href="#font_3_66" transform="matrix(7.9702599,0,0,-7.9705779,129.2804,82.14514)"/>
<use data-text="c" xlink:href="#font_3_43" transform="matrix(7.9702599,0,0,-7.9705779,131.63162,82.14514)"/>
<use data-text="l" xlink:href="#font_3_72" transform="matrix(7.9702599,0,0,-7.9705779,135.39359,82.14514)"/>
<use data-text="e" xlink:href="#font_3_50" transform="matrix(7.9702599,0,0,-7.9705779,137.74481,82.14514)"/>
<use data-text="4" xlink:href="#font_3_57" transform="matrix(7.9702599,0,0,-7.9705779,144.32028,82.14514)"/>
<path transform="matrix(1.00002,0,0,-1.00006,41.06752,166.5352)" d="M141.75249 56.48872C141.75249 58.13942 140.41436 59.47755 138.76366 59.47755 137.11295 59.47755 135.77483 58.13942 135.77483 56.48872 135.77483 54.83801 137.11295 53.4999 138.76366 53.4999 140.41436 53.4999 141.75249 54.83801 141.75249 56.48872ZM138.76366 56.48872" fill="#0000ff"/>
<path transform="matrix(1.00002,0,0,-1.00006,41.06752,166.5352)" stroke-width=".3985" stroke-linecap="butt" stroke-miterlimit="10" stroke-linejoin="miter" fill="none" stroke="#0000ff" d="M141.75249 56.48872C141.75249 58.13942 140.41436 59.47755 138.76366 59.47755 137.11295 59.47755 135.77483 58.13942 135.77483 56.48872 135.77483 54.83801 137.11295 53.4999 138.76366 53.4999 140.41436 53.4999 141.75249 54.83801 141.75249 56.48872ZM138.76366 56.48872"/>
<path transform="matrix(1.00002,0,0,-1.00006,41.06752,166.5352)" stroke-width=".3985" stroke-linecap="butt" stroke-miterlimit="10" stroke-linejoin="miter" fill="none" stroke="#0000ff" d=""/>
<use data-text="V" xlink:href="#font_3_111" transform="matrix(7.9702599,0,0,-7.9705779,142.93456,106.35559)"/>
<use data-text="e" xlink:href="#font_3_50" transform="matrix(7.9702599,0,0,-7.9705779,148.56954,106.35559)"/>
<use data-text="h" xlink:href="#font_3_63" transform="matrix(7.9702599,0,0,-7.9705779,152.33148,106.35559)"/>
<use data-text="i" xlink:href="#font_3_66" transform="matrix(7.9702599,0,0,-7.9705779,157.03395,106.35559)"/>
<use data-text="c" xlink:href="#font_3_43" transform="matrix(7.9702599,0,0,-7.9705779,159.38518,106.35559)"/>
<use data-text="l" xlink:href="#font_3_72" transform="matrix(7.9702599,0,0,-7.9705779,163.14714,106.35559)"/>
<use data-text="e" xlink:href="#font_3_50" transform="matrix(7.9702599,0,0,-7.9705779,165.49837,106.35559)"/>
<use data-text="5" xlink:href="#font_3_56" transform="matrix(7.9702599,0,0,-7.9705779,172.07382,106.35559)"/>
<path transform="matrix(1.00002,0,0,-1.00006,41.06752,166.5352)" stroke-width=".3985" stroke-linecap="butt" stroke-miterlimit="10" stroke-linejoin="miter" fill="none" stroke="#0000ff" d=""/>
<use data-text="M" xlink:href="#font_4_74" transform="matrix(9.962799,0,0,-9.963197,75.57721,192.47275)"/>
<use data-text="i" xlink:href="#font_4_66" transform="matrix(9.962799,0,0,-9.963197,84.713108,192.47275)"/>
<use data-text="l" xlink:href="#font_4_72" transform="matrix(9.962799,0,0,-9.963197,87.48277,192.47275)"/>
<use data-text="e" xlink:href="#font_4_50" transform="matrix(9.962799,0,0,-9.963197,90.252429,192.47275)"/>
<use data-text="a" xlink:href="#font_4_28" transform="matrix(9.962799,0,0,-9.963197,94.67592,192.47275)"/>
<use data-text="g" xlink:href="#font_4_59" transform="matrix(9.962799,0,0,-9.963197,99.65732,192.47275)"/>
<use data-text="e" xlink:href="#font_4_50" transform="matrix(9.962799,0,0,-9.963197,104.6387,192.47275)"/>
<use data-text="(" xlink:href="#font_4_85" transform="matrix(9.962799,0,0,-9.963197,112.36984,192.47275)"/>
<use data-text="t" xlink:href="#font_4_105" transform="matrix(9.962799,0,0,-9.963197,116.24539,192.47275)"/>
<use data-text="h" xlink:href="#font_4_63" transform="matrix(9.962799,0,0,-9.963197,120.120929,192.47275)"/>
<use data-text="o" xlink:href="#font_4_81" transform="matrix(9.962799,0,0,-9.963197,125.66023,192.47275)"/>
<use data-text="u" xlink:href="#font_4_109" transform="matrix(9.962799,0,0,-9.963197,130.64162,192.47275)"/>
<use data-text="s" xlink:href="#font_4_98" transform="matrix(9.962799,0,0,-9.963197,136.18094,192.47275)"/>
<use data-text="a" xlink:href="#font_4_28" transform="matrix(9.962799,0,0,-9.963197,140.10628,192.47275)"/>
<use data-text="n" xlink:href="#font_4_77" transform="matrix(9.962799,0,0,-9.963197,145.08766,192.47275)"/>
<use data-text="d" xlink:href="#font_4_47" transform="matrix(9.962799,0,0,-9.963197,150.62699,192.47275)"/>
<use data-text="s" xlink:href="#font_4_98" transform="matrix(9.962799,0,0,-9.963197,156.16629,192.47275)"/>
<use data-text="o" xlink:href="#font_4_81" transform="matrix(9.962799,0,0,-9.963197,163.40926,192.47275)"/>
<use data-text="f" xlink:href="#font_4_55" transform="matrix(9.962799,0,0,-9.963197,168.39064,192.47275)"/>
<use data-text="m" xlink:href="#font_4_75" transform="matrix(9.962799,0,0,-9.963197,174.75685,192.47275)"/>
<use data-text="i" xlink:href="#font_4_66" transform="matrix(9.962799,0,0,-9.963197,183.0559,192.47275)"/>
<use data-text="l" xlink:href="#font_4_72" transform="matrix(9.962799,0,0,-9.963197,185.82552,192.47275)"/>
<use data-text="e" xlink:href="#font_4_50" transform="matrix(9.962799,0,0,-9.963197,188.59517,192.47275)"/>
<use data-text="s" xlink:href="#font_4_98" transform="matrix(9.962799,0,0,-9.963197,193.01866,192.47275)"/>
<use data-text=")" xlink:href="#font_4_86" transform="matrix(9.962799,0,0,-9.963197,196.94402,192.47275)"/>
<use data-text="R" xlink:href="#font_4_95" transform="matrix(0,-9.963197,-9.962799,-0,8.687874,162.82898)"/>
<use data-text="e" xlink:href="#font_4_50" transform="matrix(0,-9.963197,-9.962799,-0,8.687874,155.49607)"/>
<use data-text="s" xlink:href="#font_4_98" transform="matrix(0,-9.963197,-9.962799,-0,8.687874,151.0724)"/>
<use data-text="a" xlink:href="#font_4_28" transform="matrix(0,-9.963197,-9.962799,-0,8.687874,147.1469)"/>
<use data-text="l" xlink:href="#font_4_72" transform="matrix(0,-9.963197,-9.962799,-0,8.687874,142.16532)"/>
<use data-text="e" xlink:href="#font_4_50" transform="matrix(0,-9.963197,-9.962799,-0,8.687874,139.39554)"/>
<use data-text="V" xlink:href="#font_4_111" transform="matrix(0,-9.963197,-9.962799,-0,8.687874,131.66408)"/>
<use data-text="a" xlink:href="#font_4_28" transform="matrix(0,-9.963197,-9.962799,-0,8.687874,125.00867)"/>
<use data-text="l" xlink:href="#font_4_72" transform="matrix(0,-9.963197,-9.962799,-0,8.687874,120.027088)"/>
<use data-text="u" xlink:href="#font_4_109" transform="matrix(0,-9.963197,-9.962799,-0,8.687874,117.25731)"/>
<use data-text="e" xlink:href="#font_4_50" transform="matrix(0,-9.963197,-9.962799,-0,8.687874,111.71777)"/>
<use data-text="(" xlink:href="#font_4_85" transform="matrix(0,-9.963197,-9.962799,-0,8.687874,103.98633)"/>
<use data-text="t" xlink:href="#font_4_105" transform="matrix(0,-9.963197,-9.962799,-0,8.687874,100.11063)"/>
<use data-text="h" xlink:href="#font_4_63" transform="matrix(0,-9.963197,-9.962799,-0,8.687874,96.23494)"/>
<use data-text="o" xlink:href="#font_4_81" transform="matrix(0,-9.963197,-9.962799,-0,8.687874,90.695407)"/>
<use data-text="u" xlink:href="#font_4_109" transform="matrix(0,-9.963197,-9.962799,-0,8.687874,85.71382)"/>
<use data-text="s" xlink:href="#font_4_98" transform="matrix(0,-9.963197,-9.962799,-0,8.687874,80.174289)"/>
<use data-text="a" xlink:href="#font_4_28" transform="matrix(0,-9.963197,-9.962799,-0,8.687874,76.248798)"/>
<use data-text="n" xlink:href="#font_4_77" transform="matrix(0,-9.963197,-9.962799,-0,8.687874,71.26721)"/>
<use data-text="d" xlink:href="#font_4_47" transform="matrix(0,-9.963197,-9.962799,-0,8.687874,65.72766)"/>
<use data-text="s" xlink:href="#font_4_98" transform="matrix(0,-9.963197,-9.962799,-0,8.687874,60.18811)"/>
<use data-text="o" xlink:href="#font_4_81" transform="matrix(0,-9.963197,-9.962799,-0,8.687874,52.944887)"/>
<use data-text="f" xlink:href="#font_4_55" transform="matrix(0,-9.963197,-9.962799,-0,8.687874,47.963289)"/>
<use data-text="d" xlink:href="#font_4_47" transform="matrix(0,-9.963197,-9.962799,-0,8.687874,41.5968)"/>
<use data-text="o" xlink:href="#font_4_81" transform="matrix(0,-9.963197,-9.962799,-0,8.687874,36.05725)"/>
<use data-text="l" xlink:href="#font_4_72" transform="matrix(0,-9.963197,-9.962799,-0,8.687874,31.075684)"/>
<use data-text="l" xlink:href="#font_4_72" transform="matrix(0,-9.963197,-9.962799,-0,8.687874,28.305909)"/>
<use data-text="a" xlink:href="#font_4_28" transform="matrix(0,-9.963197,-9.962799,-0,8.687874,25.536164)"/>
<use data-text="r" xlink:href="#font_4_96" transform="matrix(0,-9.963197,-9.962799,-0,8.687874,20.554566)"/>
<use data-text="s" xlink:href="#font_4_98" transform="matrix(0,-9.963197,-9.962799,-0,8.687874,16.648987)"/>
<use data-text=")" xlink:href="#font_4_86" transform="matrix(0,-9.963197,-9.962799,-0,8.687874,12.723511)"/>
<path transform="matrix(1.00002,0,0,-1.00006,41.06752,166.5352)" d="M64.58235 127.58307H188.24202V156.3554H64.58235Z" fill="#ffffff"/>
<path transform="matrix(1.00002,0,0,-1.00006,41.06752,166.5352)" stroke-width=".3985" stroke-linecap="butt" stroke-miterlimit="10" stroke-linejoin="miter" fill="none" stroke="#000000" d="M64.58235 127.58307H188.24202V156.3554H64.58235Z"/>
<path transform="matrix(1.00002,0,0,-1.00006,109.03788,18.30632)" stroke-width=".79701" stroke-linecap="butt" stroke-miterlimit="10" stroke-linejoin="miter" fill="none" stroke="#ff0000" d="M0 0H8.50412 17.00826"/>
<use data-text="R" xlink:href="#font_4_95" transform="matrix(9.962799,0,0,-9.963197,142.14153,20.96148)"/>
<use data-text="e" xlink:href="#font_4_50" transform="matrix(9.962799,0,0,-9.963197,149.47415,20.96148)"/>
<use data-text="g" xlink:href="#font_4_59" transform="matrix(9.962799,0,0,-9.963197,153.89763,20.96148)"/>
<use data-text="r" xlink:href="#font_4_96" transform="matrix(9.962799,0,0,-9.963197,158.87903,20.96148)"/>
<use data-text="e" xlink:href="#font_4_50" transform="matrix(9.962799,0,0,-9.963197,162.78446,20.96148)"/>
<use data-text="s" xlink:href="#font_4_98" transform="matrix(9.962799,0,0,-9.963197,167.20795,20.96148)"/>
<use data-text="s" xlink:href="#font_4_98" transform="matrix(9.962799,0,0,-9.963197,171.1333,20.96148)"/>
<use data-text="i" xlink:href="#font_4_66" transform="matrix(9.962799,0,0,-9.963197,175.05863,20.96148)"/>
<use data-text="o" xlink:href="#font_4_81" transform="matrix(9.962799,0,0,-9.963197,177.82828,20.96148)"/>
<use data-text="n" xlink:href="#font_4_77" transform="matrix(9.962799,0,0,-9.963197,182.80966,20.96148)"/>
<use data-text="L" xlink:href="#font_4_71" transform="matrix(9.962799,0,0,-9.963197,191.65665,20.96148)"/>
<use data-text="i" xlink:href="#font_4_66" transform="matrix(9.962799,0,0,-9.963197,197.88339,20.96148)"/>
<use data-text="n" xlink:href="#font_4_77" transform="matrix(9.962799,0,0,-9.963197,200.65305,20.96148)"/>
<use data-text="e" xlink:href="#font_4_50" transform="matrix(9.962799,0,0,-9.963197,206.19239,20.96148)"/>
<path transform="matrix(1.00002,0,0,-1.00006,109.03788,30.700058)" stroke-width=".3985" stroke-linecap="butt" stroke-miterlimit="10" stroke-linejoin="miter" fill="none" stroke="#0000ff" d=""/>
<path transform="matrix(1.00002,0,0,-1.00006,109.03788,30.700058)" d="M11.49295 0C11.49295 1.6507 10.15482 2.98883 8.50412 2.98883 6.85341 2.98883 5.51529 1.6507 5.51529 0 5.51529-1.6507 6.85341-2.98883 8.50412-2.98883 10.15482-2.98883 11.49295-1.6507 11.49295 0ZM8.50412 0" fill="#0000ff"/>
<path transform="matrix(1.00002,0,0,-1.00006,109.03788,30.700058)" stroke-width=".3985" stroke-linecap="butt" stroke-miterlimit="10" stroke-linejoin="miter" fill="none" stroke="#0000ff" d="M11.49295 0C11.49295 1.6507 10.15482 2.98883 8.50412 2.98883 6.85341 2.98883 5.51529 1.6507 5.51529 0 5.51529-1.6507 6.85341-2.98883 8.50412-2.98883 10.15482-2.98883 11.49295-1.6507 11.49295 0ZM8.50412 0"/>
<use data-text="O" xlink:href="#font_4_80" transform="matrix(9.962799,0,0,-9.963197,128.43726,33.465227)"/>
<use data-text="b" xlink:href="#font_4_35" transform="matrix(9.962799,0,0,-9.963197,136.18831,33.465227)"/>
<use data-text="s" xlink:href="#font_4_98" transform="matrix(9.962799,0,0,-9.963197,141.72762,33.465227)"/>
<use data-text="e" xlink:href="#font_4_50" transform="matrix(9.962799,0,0,-9.963197,145.65297,33.465227)"/>
<use data-text="r" xlink:href="#font_4_96" transform="matrix(9.962799,0,0,-9.963197,150.07646,33.465227)"/>
<use data-text="v" xlink:href="#font_4_112" transform="matrix(9.962799,0,0,-9.963197,153.98186,33.465227)"/>
<use data-text="e" xlink:href="#font_4_50" transform="matrix(9.962799,0,0,-9.963197,158.96327,33.465227)"/>
<use data-text="d" xlink:href="#font_4_47" transform="matrix(9.962799,0,0,-9.963197,163.38674,33.465227)"/>
<use data-text="D" xlink:href="#font_4_46" transform="matrix(9.962799,0,0,-9.963197,172.23372,33.465227)"/>
<use data-text="a" xlink:href="#font_4_28" transform="matrix(9.962799,0,0,-9.963197,179.84529,33.465227)"/>
<use data-text="t" xlink:href="#font_4_105" transform="matrix(9.962799,0,0,-9.963197,184.8267,33.465227)"/>
<use data-text="a" xlink:href="#font_4_28" transform="matrix(9.962799,0,0,-9.963197,188.70223,33.465227)"/>
<use data-text="P" xlink:href="#font_4_83" transform="matrix(9.962799,0,0,-9.963197,197.00124,33.465227)"/>
<use data-text="o" xlink:href="#font_4_81" transform="matrix(9.962799,0,0,-9.963197,203.51692,33.465227)"/>
<use data-text="i" xlink:href="#font_4_66" transform="matrix(9.962799,0,0,-9.963197,208.4983,33.465227)"/>
<use data-text="n" xlink:href="#font_4_77" transform="matrix(9.962799,0,0,-9.963197,211.26796,33.465227)"/>
<use data-text="t" xlink:href="#font_4_105" transform="matrix(9.962799,0,0,-9.963197,216.5283,33.465227)"/>
<use data-text="s" xlink:href="#font_4_98" transform="matrix(9.962799,0,0,-9.963197,220.40386,33.465227)"/>
</svg>
