<svg xmlns="http://www.w3.org/2000/svg" xmlns:xlink="http://www.w3.org/1999/xlink" xmlns:inkscape="http://www.inkscape.org/namespaces/inkscape" version="1.1" width="204" height="173" viewBox="0 0 204 173">
<defs>
<clipPath id="clip_1">
<path transform="matrix(1.00006,0,0,-1.00002,17.534974,171.40114)" d="M-16.43797 0H177.82825V161.39028H-16.43797Z"/>
</clipPath>
<path id="font_2_1" d="M.2869873 .68333438C.2869873 .6843262 .2869873 .69433596 .27398683 .69433596 .25099183 .69433596 .17799378 .6863251 .1519928 .6843262 .14399719 .68333438 .1329956 .6823273 .1329956 .6643219 .1329956 .6523285 .14199829 .6523285 .15699768 .6523285 .20498657 .6523285 .20698548 .6453247 .20698548 .6353302L.20399475 .6153412 .05899048 .039260866C.054992677 .025253296 .054992677 .023254395 .054992677 .01725769 .054992677-.0057525637 .07499695-.0107421879 .083999637-.0107421879 .09700012-.0107421879 .11199951-.0017547608 .117996219 .010253906 .12298584 .019256592 .16799927 .20431519 .17399597 .22932434 .20799256 .22631836 .2899933 .21031189 .2899933 .14428711 .2899933 .13729859 .2899933 .13328552 .2869873 .123291019 .2849884 .11128235 .2829895 .09927368 .2829895 .088272098 .2829895 .029251099 .32299806-.0107421879 .375-.0107421879 .40499879-.0107421879 .43199159 .0052490236 .45399476 .042266847 .47898866 .08627319 .48999024 .14129639 .48999024 .14329529 .48999024 .1532898 .48098756 .1532898 .47799684 .1532898 .46798707 .1532898 .46699525 .14929199 .46398927 .13528443 .44400025 .06227112 .42099 .011245728 .3769989 .011245728 .35798646 .011245728 .34498597 .022247315 .34498597 .058273317 .34498597 .07527161 .34899903 .09828186 .35299684 .11428833 .35699464 .13128662 .35699464 .13528443 .35699464 .14529419 .35699464 .21031189 .2939911 .23931885 .20899964 .2503357 .23999024 .26834107 .27198792 .30033876 .29499818 .32435609 .34298707 .37734986 .3889923 .42037965 .43798829 .42037965 .44400025 .42037965 .44499208 .42037965 .44699098 .41937257 .45899964 .41737367 .45999146 .41737367 .46798707 .4113617 .46998597 .4103546 .46998597 .40934754 .47200013 .40734864 .42399598 .4043579 .4149933 .36535646 .4149933 .35334779 .4149933 .33735658 .42599488 .31835938 .45298768 .31835938 .47898866 .31835938 .5079956 .3403473 .5079956 .37934876 .5079956 .40934754 .4850006 .4423828 .43998719 .4423828 .4119873 .4423828 .3659973 .43437196 .2939911 .35435487 .2599945 .3163452 .22099304 .27633668 .18299866 .26133729L.2869873 .68333438Z"/>
<path id="font_3_4" d="M.68699648 .32714845C.70199587 .32714845 .72099307 .32714845 .72099307 .34713746 .72099307 .36714173 .70199587 .36714173 .6879883 .36714173H.08898926C.07499695 .36714173 .055999757 .36714173 .055999757 .34713746 .055999757 .32714845 .07499695 .32714845 .08999634 .32714845H.68699648M.6879883 .13284302C.70199587 .13284302 .72099307 .13284302 .72099307 .15284729 .72099307 .17285156 .70199587 .17285156 .68699648 .17285156H.08999634C.07499695 .17285156 .055999757 .17285156 .055999757 .15284729 .055999757 .13284302 .07499695 .13284302 .08898926 .13284302H.6879883Z"/>
<path id="font_3_1" d="M.45999146 .31976319C.45999146 .39982606 .45498658 .47988893 .41999818 .5539398 .37399293 .65000918 .2919922 .6660156 .25 .6660156 .18998719 .6660156 .116989139 .64001467 .07598877 .54693606 .04399109 .47789 .038986207 .39982606 .038986207 .31976319 .038986207 .24472046 .042999269 .15464783 .083999637 .07859802 .1269989-.0024719239 .19999695-.022460938 .24899292-.022460938 .30299378-.022460938 .3789978-.0014648438 .4229889 .09359741 .45498658 .16265869 .45999146 .2407074 .45999146 .31976319M.24899292-.00047302247C.20999146-.00047302247 .15098572 .024551392 .1329956 .12062073 .12199402 .18066406 .12199402 .2727356 .12199402 .3317871 .12199402 .39582826 .12199402 .46188355 .12998963 .5159149 .14898682 .63500979 .22399903 .64401248 .24899292 .64401248 .28199769 .64401248 .34799195 .6259918 .36698915 .52693179 .3769989 .47088624 .3769989 .39482118 .3769989 .3317871 .3769989 .25672914 .3769989 .18867493 .3659973 .12461853 .35099793 .029556275 .2939911-.00047302247 .24899292-.00047302247Z"/>
<path id="font_3_2" d="M.2939911 .64004519C.2939911 .66400149 .2939911 .6660156 .2709961 .6660156 .20899964 .60227969 .12098694 .60227969 .08898926 .60227969V.57128909C.10899353 .57128909 .16799927 .57128909 .21998596 .5972748V.07902527C.21998596 .042999269 .21699524 .0309906 .1269989 .0309906H.09498596V0C.12998963 .0029907227 .21699524 .0029907227 .25698854 .0029907227 .29699708 .0029907227 .38398744 .0029907227 .4189911 0V.0309906H.3869934C.29699708 .0309906 .2939911 .041992189 .2939911 .07902527V.64004519Z"/>
<path id="font_3_3" d="M.1269989 .07699585 .23298645 .18003845C.3889923 .31811524 .44898988 .3721466 .44898988 .47216798 .44898988 .5860901 .35899354 .6660156 .23699951 .6660156 .12399292 .6660156 .049987794 .57411196 .049987794 .48516847 .049987794 .4291687 .099990848 .4291687 .102996829 .4291687 .11999512 .4291687 .15499878 .44117738 .15499878 .48217774 .15499878 .5081787 .13699341 .5341797 .101989749 .5341797 .09399414 .5341797 .09199524 .5341797 .08898926 .5331726 .11199951 .59806826 .1659851 .63500979 .22399903 .63500979 .31498719 .63500979 .35798646 .5541382 .35798646 .47216798 .35798646 .39215089 .30799867 .31311036 .25299073 .25108338L.06098938 .036987306C.049987794 .025985718 .049987794 .023986817 .049987794 0H.42099L.44898988 .17404175H.42399598C.4189911 .14402771 .4119873 .1000061 .4019928 .084991458 .394989 .07699585 .32899476 .07699585 .30699159 .07699585H.1269989Z"/>
<path id="font_4_1" d="M.6589966 .23046875C.6759949 .23046875 .69400027 .23046875 .69400027 .25045777 .69400027 .27046205 .6759949 .27046205 .6589966 .27046205H.117996219C.100997928 .27046205 .08299255 .27046205 .08299255 .25045777 .08299255 .23046875 .100997928 .23046875 .117996219 .23046875H.6589966Z"/>
<path id="font_2_2" d="M.33399964 .30233766C.33999635 .32835389 .36299134 .42037965 .43299867 .42037965 .43798829 .42037965 .46199037 .42037965 .48298646 .40734864 .45498658 .402359 .43499757 .37734986 .43499757 .35334779 .43499757 .33735658 .44599916 .31835938 .47299195 .31835938 .49499513 .31835938 .5269928 .3363495 .5269928 .37635804 .5269928 .42837525 .46798707 .4423828 .43399049 .4423828 .37599183 .4423828 .34098817 .38935853 .32899476 .36634828 .3039856 .43237306 .25 .4423828 .22099304 .4423828 .116989139 .4423828 .05999756 .3133545 .05999756 .28834535 .05999756 .27833558 .069992069 .27833558 .07199097 .27833558 .07998657 .27833558 .08299255 .28033448 .084991458 .28933717 .11898804 .39535523 .18499756 .42037965 .21899414 .42037965 .23799134 .42037965 .272995 .4113617 .272995 .35334779 .272995 .32235719 .2559967 .25532533 .21899414 .11528015 .20298767 .053268434 .16799927 .011245728 .12399292 .011245728 .117996219 .011245728 .09498596 .011245728 .07398987 .024276734 .09899902 .029266358 .12098694 .05027771 .12098694 .07827759 .12098694 .105270389 .09899902 .11328125 .083999637 .11328125 .053985597 .11328125 .0289917 .08728027 .0289917 .055267335 .0289917 .009246826 .07899475-.0107421879 .12298584-.0107421879 .18899536-.0107421879 .22499085 .059280397 .22799683 .0652771 .23999024 .028274537 .27598573-.0107421879 .33599855-.0107421879 .43899537-.0107421879 .49598695 .118270877 .49598695 .14328003 .49598695 .1532898 .4869995 .1532898 .48399354 .1532898 .47499085 .1532898 .47299195 .14929199 .47099305 .14228821 .43798829 .03527832 .36999513 .011245728 .33799745 .011245728 .29899598 .011245728 .2829895 .043273927 .2829895 .07727051 .2829895 .09927368 .2889862 .121276859 .2999878 .16529846L.33399964 .30233766Z"/>
<path id="font_2_3" d="M.48599244 .38136292C.48999024 .39537049 .48999024 .39736939 .48999024 .40437318 .48999024 .42237855 .47599793 .43138124 .46099855 .43138124 .45098878 .43138124 .43499757 .42536927 .42599488 .41036988 .42399598 .405365 .41600038 .37435914 .4119873 .35635377 .40499879 .33035279 .397995 .30334474 .3919983 .27633668L.34700013 .09628296C.34298707 .08126831 .2999878 .011245728 .23399353 .011245728 .18299866 .011245728 .17199707 .055267335 .17199707 .0922699 .17199707 .1382904 .18899536 .20030213 .22299195 .28833009 .23899842 .3293457 .24299622 .3403473 .24299622 .36035157 .24299622 .405365 .21099854 .4423828 .16099549 .4423828 .06599426 .4423828 .0289917 .29733277 .0289917 .28833009 .0289917 .27833558 .038986207 .27833558 .040985109 .27833558 .050994874 .27833558 .051986696 .28033448 .056991579 .29634095 .083999637 .3903656 .12399292 .42037965 .1579895 .42037965 .1659851 .42037965 .18299866 .42037965 .18299866 .3883667 .18299866 .36335755 .17298889 .3373413 .1659851 .31834413 .12599182 .21231079 .10798645 .1552887 .10798645 .10827637 .10798645 .019256592 .17098999-.0107421879 .22999573-.0107421879 .2689972-.0107421879 .30299378 .0062561037 .33099366 .03425598 .31799317-.017745972 .30599977-.06674194 .2659912-.11973572 .23999024-.15385437 .20199585-.18309021 .1559906-.18309021 .14199829-.18309021 .09700012-.18005371 .07998657-.14074707 .09599304-.14074707 .10899353-.14074707 .12298584-.1287384 .1329956-.11973572 .14299011-.10673523 .14299011-.08773804 .14299011-.056747438 .115997318-.052734376 .10598755-.052734376 .08299255-.052734376 .049987794-.068740848 .049987794-.11773682 .049987794-.16796875 .09399414-.20507813 .1559906-.20507813 .25898744-.20507813 .3619995-.11373901 .3899994-.00074768069L.48599244 .38136292Z"/>
</defs>
<path transform="matrix(1.00006,0,0,-1.00002,17.534974,171.40114)" stroke-width=".3985" stroke-linecap="butt" stroke-miterlimit="10" stroke-linejoin="miter" fill="none" stroke="#000000" d="M-16.43797 80.69513H175.83573"/>
<path transform="matrix(1.00006,0,0,-1.00002,193.38124,90.70439)" d="M1.99252 0-1.19551 1.59401 0 0-1.19551-1.59401"/>
<path transform="matrix(1.00006,0,0,-1.00002,17.534974,171.40114)" stroke-width=".3985" stroke-linecap="butt" stroke-miterlimit="10" stroke-linejoin="miter" fill="none" stroke="#000000" d="M80.69513 0V159.39775"/>
<path transform="matrix(0,-1.00002,-1.00006,-0,98.23494,12.000198)" d="M1.99252 0-1.19551 1.59401 0 0-1.19551-1.59401"/>
<g clip-path="url(#clip_1)">
<path transform="matrix(1.00006,0,0,-1.00002,17.534974,171.40114)" stroke-width=".79701" stroke-linecap="butt" stroke-dasharray="2.98883,2.98883" stroke-miterlimit="10" stroke-linejoin="miter" fill="none" stroke="#7f807f" d="M13.44919 13.44919 19.053 19.053 24.65681 24.65681 30.26064 30.26064 35.86446 35.86446 41.46826 41.46826 47.0721 47.0721 52.67592 52.67592 58.27972 58.27972 63.88356 63.88356 69.48737 69.48737 75.0912 75.0912 80.695 80.695 86.29883 86.29883 91.90265 91.90265 97.50647 97.50647 103.1103 103.1103 108.71411 108.71411 114.31793 114.31793 119.92175 119.92175 125.52557 125.52557 131.1294 131.1294 136.73322 136.73322 142.33702 142.33702 147.94086 147.94086"/>
<path transform="matrix(1.00006,0,0,-1.00002,17.534974,171.40114)" stroke-width=".79701" stroke-linecap="butt" stroke-dasharray="2.98883,2.98883" stroke-miterlimit="10" stroke-linejoin="miter" fill="none" stroke="#7f807f" d="M13.44919 147.94109 19.053 142.33725 24.65681 136.73345 30.26064 131.12961 35.86446 125.5258 41.46826 119.92198 47.0721 114.31816 52.67592 108.71434 58.27972 103.11053 63.88356 97.5067 69.48737 91.90288 75.0912 86.29906 80.695 80.69524 86.29883 75.09143 91.90265 69.4876 97.50647 63.88379 103.1103 58.27995 108.71411 52.67613 114.31793 47.07233 119.92175 41.46849 125.52557 35.86469 131.1294 30.26085 136.73322 24.65704 142.33702 19.05322 147.94086 13.4494"/>
<path transform="matrix(1.00006,0,0,-1.00002,17.534974,171.40114)" d="M139.41538 138.05637H118.80907V130.92745H139.41538ZM118.80907 130.92745" fill="#ffffff"/>
<use data-text="k" xlink:href="#font_2_1" transform="matrix(7.970558,0,0,-7.9702398,137.14853,39.674119)"/>
<use data-text="=" xlink:href="#font_3_4" transform="matrix(7.970558,0,0,-7.9702398,143.76253,39.674119)"/>
<use data-text="0" xlink:href="#font_3_1" transform="matrix(7.970558,0,0,-7.9702398,152.1635,39.674119)"/>
<path transform="matrix(1.00006,0,0,-1.00002,17.534974,171.40114)" stroke-width=".79701" stroke-linecap="butt" stroke-miterlimit="10" stroke-linejoin="miter" fill="none" stroke="#009bca" d="M26.89838 140.84082 29.0941 138.8852 31.28984 136.94733 33.48557 135.02902 35.68132 133.13256 37.87706 131.26026 40.07278 129.41498 42.26852 127.59991 44.46428 125.8187 46.66 124.07549 48.85574 122.37505 51.05148 120.72285 53.24722 119.12514 55.44296 117.58896 57.63869 116.12231 59.83443 114.73418 62.03018 113.43454 64.22592 112.23439 66.42165 111.14552 68.61739 110.18016 70.81314 109.35089 73.00888 108.66971 75.2046 108.14772 77.40034 107.79411 79.59607 107.61555 81.79182 107.61543 83.98756 107.79385 86.1833 108.14726 88.37903 108.66907 90.57478 109.35005 92.77052 110.17921 94.96625 111.1444 97.16199 112.2332 99.35774 113.4332 101.55347 114.73271 103.7492 116.12074 105.94495 117.58733 108.1407 119.12344 110.33643 120.72112 112.53217 122.37326 114.7279 124.07365 116.92365 125.8168 119.11938 127.59802 121.31511 129.41303 123.51085 131.25827 125.70659 133.13051 127.90233 135.02701 130.09807 136.9453 132.29381 138.8831 134.48954 140.83872"/>
<path transform="matrix(1.00006,0,0,-1.00002,17.534974,171.40114)" stroke-width=".79701" stroke-linecap="butt" stroke-miterlimit="10" stroke-linejoin="miter" fill="none" stroke="#009bca" d="M26.89838 20.54944 29.0941 22.50507 31.28984 24.44292 33.48557 26.36122 35.68132 28.2577 37.87706 30.12999 40.07278 31.97527 42.26852 33.79034 44.46428 35.57156 46.66 37.31477 48.85574 39.0152 51.05148 40.6674 53.24722 42.2651 55.44296 43.8013 57.63869 45.26794 59.83443 46.65608 62.03018 47.95572 64.22592 49.15587 66.42165 50.24474 68.61739 51.2101 70.81314 52.03935 73.00888 52.72055 75.2046 53.24254 77.40034 53.59613 79.59607 53.77469 81.79182 53.77481 83.98756 53.5964 86.1833 53.243 88.37903 52.72118 90.57478 52.04019 92.77052 51.21103 94.96625 50.24586 97.16199 49.15704 99.35774 47.95705 101.55347 46.65755 103.7492 45.2695 105.94495 43.80293 108.1407 42.26682 110.33643 40.66913 112.53217 39.017 114.7279 37.31659 116.92365 35.57344 119.11938 33.79222 121.31511 31.97723 123.51085 30.13199 125.70659 28.25974 127.90233 26.36325 130.09807 24.44496 132.29381 22.50714 134.48954 20.55153"/>
<use data-text="k" xlink:href="#font_2_1" transform="matrix(7.970558,0,0,-7.9702398,101.051387,61.193544)"/>
<use data-text="=" xlink:href="#font_3_4" transform="matrix(7.970558,0,0,-7.9702398,107.665378,61.193544)"/>
<use data-text="1" xlink:href="#font_3_2" transform="matrix(7.970558,0,0,-7.9702398,116.066349,61.193544)"/>
<path transform="matrix(1.00006,0,0,-1.00002,17.534974,171.40114)" stroke-width=".79701" stroke-linecap="butt" stroke-miterlimit="10" stroke-linejoin="miter" fill="none" stroke="#00a8e4" d="M40.34756 136.14675 41.99438 134.96024 43.64119 133.79837 45.28801 132.66269 46.93484 131.55496 48.58165 130.47711 50.22847 129.43103 51.8753 128.4189 53.52211 127.4429 55.16893 126.50528 56.81577 125.60847 58.46257 124.75504 60.1094 123.94745 61.75624 123.18832 63.40305 122.48042 65.04988 121.82622 66.6967 121.22845 68.34352 120.6896 69.99034 120.2121 71.63718 119.79814 73.28398 119.44978 74.93082 119.16885 76.57765 118.95679 78.22446 118.81476 79.87129 118.74352H81.51811L83.16493 118.81467 84.81175 118.95671 86.45859 119.16872 88.1054 119.44965 89.75223 119.79793 91.39906 120.21185 93.04587 120.68936 94.6927 121.22815 96.33952 121.8259 97.98634 122.48004 99.63316 123.18797 101.28 123.94702 102.92682 124.75458 104.57364 125.60803 106.22047 126.50479 107.8673 127.44238 109.5141 128.41837 111.16093 129.43054 112.80775 130.47655 114.45456 131.55443 116.1014 132.66207 117.74821 133.79775 119.39502 134.95964 121.04185 136.14612"/>
<path transform="matrix(1.00006,0,0,-1.00002,17.534974,171.40114)" stroke-width=".79701" stroke-linecap="butt" stroke-miterlimit="10" stroke-linejoin="miter" fill="none" stroke="#00a8e4" d="M40.34756 25.24352 41.99438 26.43001 43.64119 27.59189 45.28801 28.72757 46.93484 29.83528 48.58165 30.91315 50.22847 31.95921 51.8753 32.97134 53.52211 33.94734 55.16893 34.88498 56.81577 35.78177 58.46257 36.63522 60.1094 37.4428 61.75624 38.20192 63.40305 38.90984 65.04988 39.56404 66.6967 40.16179 68.34352 40.70064 69.99034 41.17815 71.63718 41.59212 73.28398 41.94048 74.93082 42.2214 76.57765 42.43347 78.22446 42.57549 79.87129 42.64674H81.51811L83.16493 42.57558 84.81175 42.43355 86.45859 42.22154 88.1054 41.94061 89.75223 41.59233 91.39906 41.17839 93.04587 40.70088 94.6927 40.1621 96.33952 39.56436 97.98634 38.91022 99.63316 38.20227 101.28 37.44322 102.92682 36.63568 104.57364 35.78223 106.22047 34.88547 107.8673 33.94786 109.5141 32.97188 111.16093 31.9597 112.80775 30.9137 114.45456 29.83582 116.1014 28.7282 117.74821 27.59251 119.39502 26.4306 121.04185 25.24414"/>
<use data-text="k" xlink:href="#font_2_1" transform="matrix(7.970558,0,0,-7.9702398,101.051387,50.433328)"/>
<use data-text="=" xlink:href="#font_3_4" transform="matrix(7.970558,0,0,-7.9702398,107.665378,50.433328)"/>
<use data-text="2" xlink:href="#font_3_3" transform="matrix(7.970558,0,0,-7.9702398,116.066349,50.433328)"/>
<path transform="matrix(1.00006,0,0,-1.00002,17.534974,171.40114)" stroke-width=".79701" stroke-linecap="butt" stroke-miterlimit="10" stroke-linejoin="miter" fill="none" stroke="#0000b3" d="M140.84082 26.89838 138.8852 29.0941 136.94733 31.28984 135.02902 33.48557 133.13256 35.68132 131.26026 37.87706 129.41498 40.07278 127.59991 42.26852 125.8187 44.46428 124.07549 46.66 122.37505 48.85574 120.72285 51.05148 119.12514 53.24722 117.58896 55.44296 116.12231 57.63869 114.73418 59.83443 113.43454 62.03018 112.23439 64.22592 111.14552 66.42165 110.18016 68.61739 109.35089 70.81314 108.66971 73.00888 108.14772 75.2046 107.79411 77.40034 107.61555 79.59607 107.61543 81.79182 107.79385 83.98756 108.14726 86.1833 108.66907 88.37903 109.35005 90.57478 110.17921 92.77052 111.1444 94.96625 112.2332 97.16199 113.4332 99.35774 114.73271 101.55347 116.12074 103.7492 117.58733 105.94495 119.12344 108.1407 120.72112 110.33643 122.37326 112.53217 124.07365 114.7279 125.8168 116.92365 127.59802 119.11938 129.41303 121.31511 131.25827 123.51085 133.13051 125.70659 135.02701 127.90233 136.9453 130.09807 138.8831 132.29381 140.83872 134.48954"/>
<path transform="matrix(1.00006,0,0,-1.00002,17.534974,171.40114)" stroke-width=".79701" stroke-linecap="butt" stroke-miterlimit="10" stroke-linejoin="miter" fill="none" stroke="#0000b3" d="M20.54944 26.89838 22.50507 29.0941 24.44292 31.28984 26.36122 33.48557 28.2577 35.68132 30.12999 37.87706 31.97527 40.07278 33.79034 42.26852 35.57156 44.46428 37.31477 46.66 39.0152 48.85574 40.6674 51.05148 42.2651 53.24722 43.8013 55.44296 45.26794 57.63869 46.65608 59.83443 47.95572 62.03018 49.15587 64.22592 50.24474 66.42165 51.2101 68.61739 52.03935 70.81314 52.72055 73.00888 53.24254 75.2046 53.59613 77.40034 53.77469 79.59607 53.77481 81.79182 53.5964 83.98756 53.243 86.1833 52.72118 88.37903 52.04019 90.57478 51.21103 92.77052 50.24586 94.96625 49.15704 97.16199 47.95705 99.35774 46.65755 101.55347 45.2695 103.7492 43.80293 105.94495 42.26682 108.1407 40.66913 110.33643 39.017 112.53217 37.31659 114.7279 35.57344 116.92365 33.79222 119.11938 31.97723 121.31511 30.13199 123.51085 28.25974 125.70659 26.36325 127.90233 24.44496 130.09807 22.50714 132.29381 20.55153 134.48954"/>
<use data-text="k" xlink:href="#font_2_1" transform="matrix(7.970558,0,0,-7.9702398,117.9084,87.22406)"/>
<use data-text="=" xlink:href="#font_3_4" transform="matrix(7.970558,0,0,-7.9702398,124.52239,87.22406)"/>
<use data-text="&#x2212;" xlink:href="#font_4_1" transform="matrix(7.970558,0,0,-7.9702398,132.9365,87.22406)"/>
<use data-text="1" xlink:href="#font_3_2" transform="matrix(7.970558,0,0,-7.9702398,139.13527,87.22406)"/>
<path transform="matrix(1.00006,0,0,-1.00002,17.534974,171.40114)" stroke-width=".79701" stroke-linecap="butt" stroke-miterlimit="10" stroke-linejoin="miter" fill="none" stroke="#0000e6" d="M136.14675 40.34756 134.96024 41.99438 133.79837 43.64119 132.66269 45.28801 131.55496 46.93484 130.47711 48.58165 129.43103 50.22847 128.4189 51.8753 127.4429 53.52211 126.50528 55.16893 125.60847 56.81577 124.75504 58.46257 123.94745 60.1094 123.18832 61.75624 122.48042 63.40305 121.82622 65.04988 121.22845 66.6967 120.6896 68.34352 120.2121 69.99034 119.79814 71.63718 119.44978 73.28398 119.16885 74.93082 118.95679 76.57765 118.81476 78.22446 118.74352 79.87129V81.51811L118.81467 83.16493 118.95671 84.81175 119.16872 86.45859 119.44965 88.1054 119.79793 89.75223 120.21185 91.39906 120.68936 93.04587 121.22815 94.6927 121.8259 96.33952 122.48004 97.98634 123.18797 99.63316 123.94702 101.28 124.75458 102.92682 125.60803 104.57364 126.50479 106.22047 127.44238 107.8673 128.41837 109.5141 129.43054 111.16093 130.47655 112.80775 131.55443 114.45456 132.66207 116.1014 133.79775 117.74821 134.95964 119.39502 136.14612 121.04185"/>
<path transform="matrix(1.00006,0,0,-1.00002,17.534974,171.40114)" stroke-width=".79701" stroke-linecap="butt" stroke-miterlimit="10" stroke-linejoin="miter" fill="none" stroke="#0000e6" d="M25.24352 40.34756 26.43001 41.99438 27.59189 43.64119 28.72757 45.28801 29.83528 46.93484 30.91315 48.58165 31.95921 50.22847 32.97134 51.8753 33.94734 53.52211 34.88498 55.16893 35.78177 56.81577 36.63522 58.46257 37.4428 60.1094 38.20192 61.75624 38.90984 63.40305 39.56404 65.04988 40.16179 66.6967 40.70064 68.34352 41.17815 69.99034 41.59212 71.63718 41.94048 73.28398 42.2214 74.93082 42.43347 76.57765 42.57549 78.22446 42.64674 79.87129V81.51811L42.57558 83.16493 42.43355 84.81175 42.22154 86.45859 41.94061 88.1054 41.59233 89.75223 41.17839 91.39906 40.70088 93.04587 40.1621 94.6927 39.56436 96.33952 38.91022 97.98634 38.20227 99.63316 37.44322 101.28 36.63568 102.92682 35.78223 104.57364 34.88547 106.22047 33.94786 107.8673 32.97188 109.5141 31.9597 111.16093 30.9137 112.80775 29.83582 114.45456 28.7282 116.1014 27.59251 117.74821 26.4306 119.39502 25.24414 121.04185"/>
<use data-text="k" xlink:href="#font_2_1" transform="matrix(7.970558,0,0,-7.9702398,128.66803,87.22406)"/>
<use data-text="=" xlink:href="#font_3_4" transform="matrix(7.970558,0,0,-7.9702398,135.28203,87.22406)"/>
<use data-text="&#x2212;" xlink:href="#font_4_1" transform="matrix(7.970558,0,0,-7.9702398,143.69614,87.22406)"/>
<use data-text="2" xlink:href="#font_3_3" transform="matrix(7.970558,0,0,-7.9702398,149.8949,87.22406)"/>
</g>
<use data-text="x" xlink:href="#font_2_2" transform="matrix(9.963197,0,0,-9.962799,197.56577,97.18565)"/>
<use data-text="y" xlink:href="#font_2_3" transform="matrix(9.963197,0,0,-9.962799,90.80037,5.87883)"/>
</svg>
