<svg xmlns="http://www.w3.org/2000/svg" xmlns:xlink="http://www.w3.org/1999/xlink" xmlns:inkscape="http://www.inkscape.org/namespaces/inkscape" version="1.1" width="304" height="101" viewBox="0 0 304 101">
<defs>
<path id="font_1_5" d="M.47698976 .3423462C.48199464 .36236573 .4909973 .39837647 .4909973 .40237428 .4909973 .41537477 .48199464 .43138124 .45999146 .43138124 .44699098 .43138124 .42900086 .42337037 .42099 .40437318 .4189911 .39837647 .37098695 .205307 .36499024 .17930603 .35899354 .1552887 .35598756 .13928223 .35499574 .11528015 .35899354 .090270999 .34399415 .06826782 .32899476 .04826355 .30699159 .021255494 .2849884 .014251709 .2639923 .014251709 .22799683 .014251709 .18199158 .029251099 .18199158 .104278568 .18199158 .15629578 .20799256 .22731018 .23899842 .30934144 .24398804 .32234193 .25099183 .33935548 .25099183 .35835267 .25099183 .40737916 .21398926 .4423828 .16499329 .4423828 .068984989 .4423828 .0289917 .30033876 .0289917 .28833009 .0289917 .2793274 .035995485 .27633668 .042999269 .27633668 .053985597 .27633668 .054992677 .28233338 .05899048 .29533387 .07998657 .36836244 .11999512 .41737367 .1619873 .41737367 .18199158 .41737367 .18598938 .40437318 .18598938 .3843689 .18598938 .36735536 .18199158 .34934999 .17298889 .3253479 .12399292 .1973114 .11399841 .16029358 .11399841 .11828613 .11399841 .004257202 .21099854-.0107421879 .26098634-.0107421879 .2999878-.0107421879 .33699037 .0052490236 .3659973 .057266237 .3959961-.0017547608 .45899964-.0107421879 .49598695-.0107421879 .5669861-.0107421879 .6100006 .041259767 .6419983 .107284549 .66999819 .16630554 .70899966 .3083496 .70899966 .3693695 .70899966 .43937684 .6719971 .44337464 .6629944 .44337464 .6380005 .44337464 .6119995 .41638185 .6119995 .39337159 .6119995 .3783722 .62098696 .37036134 .6279907 .36436463 .6549988 .33935548 .6639862 .30734254 .6639862 .28134156 .6639862 .2513275 .6389923 .15930176 .60899356 .10127258 .58699038 .058258058 .5529938 .014251709 .49899293 .014251709 .42399598 .014251709 .42399598 .08427429 .42399598 .10227966 .42399598 .12928772 .42900086 .15029907 .43798829 .18530274L.47698976 .3423462Z"/>
<path id="font_1_1" d="M.4039917 .40527345C.37098695 .39926148 .35398866 .3712616 .35398866 .3502655 .35398866 .3312683 .36799623 .31427003 .3929901 .31427003 .41999818 .31427003 .44799806 .337265 .44799806 .37426759 .44799806 .41334535 .4119873 .4423828 .36299134 .4423828 .28799439 .4423828 .24598694 .386261 .23199463 .3672638 .21998596 .42237855 .1749878 .4423828 .13699341 .4423828 .100997928 .4423828 .07798767 .42037965 .06098938 .38526917 .041992189 .34925843 .0289917 .29226686 .0289917 .28826905 .0289917 .27926637 .035995485 .27626039 .042999269 .27626039 .053985597 .27626039 .055999757 .28126527 .06098938 .30126954 .07998657 .38026429 .100997928 .41737367 .1349945 .41737367 .16499329 .41737367 .16499329 .38526917 .16499329 .37026979 .16499329 .34925843 .15699768 .31826783 .15098572 .29226686 .14399719 .26626588 .13398743 .2232666 .12998963 .21125794L.08999634 .04725647C.08299255 .023254395 .08299255 .021255494 .08299255 .018249512 .08299255 .0052490236 .09199524-.0107421879 .11399841-.0107421879 .1459961-.0107421879 .15299988 .01625061 .1599884 .04525757 .17199707 .088256839 .17199707 .09025574 .18199158 .1312561 .21899414 .28126527 .22499085 .30526734 .22698975 .31025697 .23298645 .32226563 .2789917 .41737367 .3619995 .41737367 .3849945 .41737367 .39898683 .40930177 .4039917 .40527345Z"/>
<path id="font_1_6" d="M.49198915 .40434266C.45498658 .39733888 .44400025 .3653412 .44400025 .3503418 .44400025 .33132936 .45799256 .31433106 .48298646 .31433106 .5109863 .31433106 .5379944 .33833314 .5379944 .3733368 .5379944 .41937257 .48799134 .4423828 .44099427 .4423828 .3809967 .4423828 .34599305 .38934327 .33399964 .3683319 .31498719 .41737367 .2709961 .4423828 .22299195 .4423828 .115997318 .4423828 .057998659 .31433106 .057998659 .28833009 .057998659 .2793274 .06498718 .2763214 .07199097 .2763214 .08099365 .2763214 .083999637 .2813263 .085998538 .287323 .116989139 .38633729 .18299866 .41737367 .22099304 .41737367 .25 .41737367 .27598573 .3983307 .27598573 .35133363 .27598573 .31533814 .23298645 .15530396 .21998596 .107284549 .21199036 .076293949 .18199158 .014251709 .1269989 .014251709 .10699463 .014251709 .085998538 .021270752 .07598877 .027282715 .102996829 .032287599 .12298584 .055282594 .12298584 .08128357 .12298584 .106292728 .10398865 .11729431 .084991458 .11729431 .055999757 .11729431 .02999878 .092285159 .02999878 .058288576 .02999878 .009246826 .083999637-.0107421879 .12599182-.0107421879 .18399048-.0107421879 .21798706 .03729248 .23298645 .06428528 .2579956-.0017547608 .31698609-.0107421879 .34399415-.0107421879 .45199586-.0107421879 .5089874 .11929321 .5089874 .14329529 .5089874 .14830017 .5059967 .15530396 .49598695 .15530396 .4850006 .15530396 .48399354 .1512909 .47898866 .1362915 .45700074 .06428528 .39898683 .014251709 .34700013 .014251709 .31799317 .014251709 .29100038 .032287599 .29100038 .08029175 .29100038 .10229492 .30499269 .15730286 .31399537 .1953125 .31799317 .21331787 .34498597 .32133485 .34700013 .32833863 .35899354 .3643341 .3889923 .41737367 .43998719 .41737367 .45799256 .41737367 .47698976 .41436769 .49198915 .40434266Z"/>
<path id="font_1_7" d="M.5019989 .38536073C.5029907 .3903656 .5049896 .39637757 .5049896 .40237428 .5049896 .41537477 .49598695 .43138124 .47399903 .43138124 .46099855 .43138124 .44299317 .42337037 .43499757 .40437318 .43399049 .40037538 .42399598 .35935975 .41799928 .33735658L.36799623 .13728333C.3600006 .10827637 .3600006 .106277469 .35798646 .09727478 .35699464 .09327698 .31498719 .014251709 .24299622 .014251709 .18099976 .014251709 .18099976 .07727051 .18099976 .09628296 .18099976 .14129639 .19400025 .19030762 .23699951 .30233766 .24499512 .3253479 .25099183 .33935548 .25099183 .35835267 .25099183 .40737916 .21398926 .4423828 .16499329 .4423828 .068984989 .4423828 .0289917 .30033876 .0289917 .28833009 .0289917 .2793274 .035995485 .27633668 .042999269 .27633668 .053985597 .27633668 .054992677 .28233338 .05899048 .29533387 .07998657 .3693695 .11999512 .41737367 .1619873 .41737367 .18598938 .41737367 .18598938 .39837647 .18598938 .3843689 .18598938 .36735536 .18199158 .34934999 .17298889 .3253479 .12599182 .2013092 .11299133 .15930176 .11299133 .11128235 .11299133 .00024414063 .20298767-.0107421879 .23999024-.0107421879 .2889862-.0107421879 .32398988 .01524353 .34199525 .0332489 .32899476-.017745972 .31799317-.0627594 .2789917-.11276245 .24899292-.15286255 .20899964-.18008423 .16499329-.18008423 .13699341-.18008423 .10398865-.16999817 .08999634-.14176941 .14299011-.14176941 .1499939-.09776306 .1499939-.087768558 .1499939-.06576538 .13398743-.051757814 .11199951-.051757814 .08799744-.051757814 .055999757-.07077026 .055999757-.116760257 .055999757-.16899109 .101989749-.20507813 .16499329-.20507813 .2669983-.20507813 .37599183-.117767337 .40499879-.00074768069L.5019989 .38536073Z"/>
<path id="font_1_8" d="M.13899231 .08526611C.1599884 .11027527 .21499634 .16029358 .2579956 .19630432 .33198548 .25933839 .35499574 .28134156 .36799623 .29534913 .44999696 .3743744 .47698976 .42536927 .47698976 .43138124 .47698976 .43237306 .47698976 .4423828 .46398927 .4423828 .45498658 .4423828 .45298768 .43937684 .44799806 .43138124 .43499757 .41137696 .4079895 .3683777 .37399293 .3683777 .35398866 .3683777 .34098817 .37937928 .31799317 .40538026 .2939911 .43138124 .2749939 .4423828 .24899292 .4423828 .17199707 .4423828 .125 .3503723 .125 .32536317 .125 .32235719 .1269989 .3143463 .13798523 .3143463 .147995 .3143463 .15098572 .32035829 .1519928 .32336427 .17098999 .3713684 .22999573 .3713684 .23799134 .3713684 .26098634 .3713684 .2849884 .36437989 .30699159 .35636903 .34700013 .34336854 .3639984 .34336854 .3789978 .34336854 .34799195 .3083496 .2919922 .2603302 .22898865 .20631409 .1789856 .16329956 .147995 .13328552 .12599182 .11126709 .08898926 .072250369 .04399109 .011245728 .04399109 .00024414063 .04399109-.0067443849 .04899597-.0107421879 .056991579-.0107421879 .06599426-.0107421879 .067993167-.0067443849 .07299805-.00074768069 .11199951 .059249879 .14898682 .06324768 .1599884 .06324768 .18499756 .06324768 .19898987 .04824829 .22099304 .022247315 .24398804-.002746582 .2659912-.0107421879 .28599549-.0107421879 .3889923-.0107421879 .44898988 .11727905 .44898988 .14428711 .44898988 .1532898 .44198609 .15629578 .43499757 .15629578 .4249878 .15629578 .4229889 .14929199 .42099 .14527893 .3939972 .071258548 .32299806 .060256959 .29699708 .060256959 .27799989 .060256959 .2579956 .06524658 .22799683 .07525635 .20799256 .08125305 .18399048 .088256839 .16299439 .088256839 .15299988 .088256839 .14299011 .086257938 .13899231 .08526611Z"/>
<path id="font_1_2" d="M.39698792 .37402345C.35398866 .37001039 .34999085 .3360138 .34999085 .32901 .34999085 .31201173 .36299134 .29901124 .38198854 .29901124 .4099884 .29901124 .42900086 .32202149 .42900086 .355011 .42900086 .40527345 .37998963 .4423828 .30599977 .4423828 .17199707 .4423828 .13398743 .3420105 .13398743 .2960205 .13398743 .25810243 .15299988 .23814392 .1659851 .22616577 .18598938 .2071991 .21299744 .20121765 .24899292 .19422913 .2939911 .1852417 .3039856 .18325806 .32199098 .17027283 .33799745 .15830994 .34700013 .14231873 .34700013 .12130737 .34700013 .0953064 .32299806 .014251709 .20199585 .014251709 .1789856 .014251709 .10899353 .01725769 .08699036 .063308719 .13699341 .063308719 .14698792 .10331726 .14698792 .11730957 .14698792 .14730835 .11999512 .15332031 .10899353 .15332031 .09098816 .15332031 .052993776 .13931275 .052993776 .08731079 .052993776 .025268555 .115997318-.0107421879 .20098877-.0107421879 .36898805-.0107421879 .4059906 .11231995 .4059906 .15530396 .4059906 .1932373 .3849945 .21717835 .37298585 .2291565 .34700013 .25610353 .31498719 .26208497 .27999879 .2690735 .2679901 .2720642 .24598694 .276062 .24299622 .27705384 .20999146 .28404237 .19198609 .3040161 .19198609 .32901 .19198609 .3400116 .19898987 .37200929 .22698975 .3941803 .25498963 .41636659 .29299928 .41737367 .30599977 .41737367 .34098817 .41737367 .38198854 .40628053 .39698792 .37402345Z"/>
<path id="font_1_4" d="M.48098756 .3693695C.48098756 .43937684 .44400025 .44337464 .43499757 .44337464 .4099884 .44337464 .38398744 .41638185 .38398744 .39337159 .38398744 .3783722 .3929901 .37036134 .3999939 .36436463 .4269867 .33935548 .43598939 .30734254 .43598939 .28134156 .43598939 .23731995 .37298585 .014251709 .25698854 .014251709 .18199158 .014251709 .18199158 .08427429 .18199158 .10227966 .18199158 .14529419 .19599915 .19630432 .23098755 .28733827 .24699402 .3293457 .25099183 .33935548 .25099183 .35835267 .25099183 .40737916 .21398926 .4423828 .16499329 .4423828 .068984989 .4423828 .0289917 .30033876 .0289917 .28833009 .0289917 .2793274 .035995485 .27633668 .042999269 .27633668 .053985597 .27633668 .054992677 .28233338 .05899048 .29533387 .07998657 .36836244 .11999512 .41737367 .1619873 .41737367 .18199158 .41737367 .18598938 .40437318 .18598938 .3843689 .18598938 .36735536 .18199158 .34934999 .17298889 .3253479 .13699341 .22932434 .11299133 .16529846 .11299133 .11528015 .11299133 .021255494 .18399048-.0107421879 .25299073-.0107421879 .42099-.0107421879 .48098756 .30534364 .48098756 .3693695Z"/>
<path id="font_1_3" d="M.21299744 .3996582H.30799867C.32598878 .3996582 .33799745 .3996582 .33799745 .41766358 .33799745 .43066407 .32798768 .43066407 .30999757 .43066407H.22099304L.2619934 .59646609C.2619934 .6124573 .24899292 .62545779 .23098755 .62545779 .19898987 .62545779 .19099427 .59646609 .18899536 .5864868L.14898682 .43066407H.054992677C.035995485 .43066407 .023986817 .43066407 .023986817 .4126587 .023986817 .3996582 .034988405 .3996582 .052993776 .3996582H.14199829L.07398987 .12808228C.06599426 .09811401 .06599426 .09613037 .06599426 .08215332 .06599426 .023239136 .11099243-.0107421879 .16299439-.0107421879 .2669983-.0107421879 .32598878 .1330719 .32598878 .14305115 .32598878 .14804077 .32299806 .1550293 .31298829 .1550293 .30299378 .1550293 .3019867 .15203858 .29499818 .1350708 .2639923 .06317139 .21398926 .014251709 .16499329 .014251709 .14498902 .014251709 .1329956 .027236939 .1329956 .060180665 .1329956 .08215332 .13598633 .09413147 .13999939 .10910034L.21299744 .3996582Z"/>
</defs>
<use data-text="w" xlink:href="#font_1_5" transform="matrix(8.966938,0,0,-8.966669,155.99242,5.4527428)"/>
<use data-text="r" xlink:href="#font_1_1" transform="matrix(8.966938,0,0,-8.966669,29.639832,47.97402)"/>
<path transform="matrix(1.00006,0,0,-1.00003,159.41562,3.522685)" stroke-width=".79701" stroke-linecap="butt" stroke-miterlimit="10" stroke-linejoin="miter" fill="none" stroke="#000000" d="M-5.61475-1.8712-123.16182-41.05638"/>
<use data-text="x" xlink:href="#font_1_6" transform="matrix(8.966938,0,0,-8.966669,.8871155,99.00056)"/>
<path transform="matrix(1.00006,0,0,-1.00003,159.41562,3.522685)" stroke-width=".79701" stroke-linecap="butt" stroke-miterlimit="10" stroke-linejoin="miter" fill="none" stroke="#000000" d="M-129.85063-46.64229-153.61852-89.4225"/>
<use data-text="y" xlink:href="#font_1_7" transform="matrix(8.966938,0,0,-8.966669,29.416825,98.128528)"/>
<path transform="matrix(1.00006,0,0,-1.00003,159.41562,3.522685)" stroke-width=".79701" stroke-linecap="butt" stroke-miterlimit="10" stroke-linejoin="miter" fill="none" stroke="#000000" d="M-127.56064-46.64229-127.56061-88.55075"/>
<use data-text="z" xlink:href="#font_1_8" transform="matrix(8.966938,0,0,-8.966669,57.858537,99.00056)"/>
<path transform="matrix(1.00006,0,0,-1.00003,159.41562,3.522685)" stroke-width="1.19553" stroke-linecap="butt" stroke-miterlimit="10" stroke-linejoin="miter" fill="none" stroke="#ff0000" d="M-125.27066-46.64229-101.50272-89.4225"/>
<use data-text="s" xlink:href="#font_1_2" transform="matrix(8.966938,0,0,-8.966669,114.74594,47.97402)"/>
<path transform="matrix(1.00006,0,0,-1.00003,159.41562,3.522685)" stroke-width=".79701" stroke-linecap="butt" stroke-miterlimit="10" stroke-linejoin="miter" fill="none" stroke="#000000" d="M-4.12125-4.12207-38.39963-38.39813"/>
<use data-text="x" xlink:href="#font_1_6" transform="matrix(8.966938,0,0,-8.966669,85.93222,99.00056)"/>
<path transform="matrix(1.00006,0,0,-1.00003,159.41562,3.522685)" stroke-width=".79701" stroke-linecap="butt" stroke-miterlimit="10" stroke-linejoin="miter" fill="none" stroke="#000000" d="M-44.81017-46.64229-68.57805-89.4225"/>
<use data-text="y" xlink:href="#font_1_7" transform="matrix(8.966938,0,0,-8.966669,114.46292,98.128528)"/>
<path transform="matrix(1.00006,0,0,-1.00003,159.41562,3.522685)" stroke-width=".79701" stroke-linecap="butt" stroke-miterlimit="10" stroke-linejoin="miter" fill="none" stroke="#000000" d="M-42.52019-46.64229-42.52016-88.55075"/>
<use data-text="z" xlink:href="#font_1_8" transform="matrix(8.966938,0,0,-8.966669,142.90464,99.00056)"/>
<path transform="matrix(1.00006,0,0,-1.00003,159.41562,3.522685)" stroke-width="1.19553" stroke-linecap="butt" stroke-miterlimit="10" stroke-linejoin="miter" fill="none" stroke="#ff0000" d="M-40.23021-46.64229-16.46227-89.4225"/>
<use data-text="v" xlink:href="#font_1_4" transform="matrix(8.966938,0,0,-8.966669,199.53903,47.97402)"/>
<path transform="matrix(1.00006,0,0,-1.00003,159.41562,3.522685)" stroke-width=".79701" stroke-linecap="butt" stroke-miterlimit="10" stroke-linejoin="miter" fill="none" stroke="#000000" d="M4.12125-4.12207 38.3997-38.39813"/>
<use data-text="x" xlink:href="#font_1_6" transform="matrix(8.966938,0,0,-8.966669,185.15216,99.00056)"/>
<path transform="matrix(1.00006,0,0,-1.00003,159.41562,3.522685)" stroke-width=".79701" stroke-linecap="butt" stroke-miterlimit="10" stroke-linejoin="miter" fill="none" stroke="#000000" d="M41.37527-46.64229 29.4913-89.4225"/>
<use data-text="y" xlink:href="#font_1_7" transform="matrix(8.966938,0,0,-8.966669,213.68288,98.128528)"/>
<path transform="matrix(1.00006,0,0,-1.00003,159.41562,3.522685)" stroke-width=".79701" stroke-linecap="butt" stroke-miterlimit="10" stroke-linejoin="miter" fill="none" stroke="#000000" d="M43.66493-46.64229 55.30724-88.55075"/>
<use data-text="t" xlink:href="#font_1_3" transform="matrix(8.966938,0,0,-8.966669,285.32017,48.802045)"/>
<path transform="matrix(1.00006,0,0,-1.00003,159.41562,3.522685)" stroke-width=".79701" stroke-linecap="butt" stroke-miterlimit="10" stroke-linejoin="miter" fill="none" stroke="#000000" d="M5.61475-1.8688 123.70502-41.23712"/>
<use data-text="y" xlink:href="#font_1_7" transform="matrix(8.966938,0,0,-8.966669,270.37928,98.128528)"/>
<path transform="matrix(1.00006,0,0,-1.00003,159.41562,3.522685)" stroke-width=".79701" stroke-linecap="butt" stroke-miterlimit="10" stroke-linejoin="miter" fill="none" stroke="#000000" d="M126.18633-47.46957 114.77379-88.55075"/>
<use data-text="z" xlink:href="#font_1_8" transform="matrix(8.966938,0,0,-8.966669,298.82099,99.00056)"/>
<path transform="matrix(1.00006,0,0,-1.00003,159.41562,3.522685)" stroke-width="1.19553" stroke-linecap="butt" stroke-miterlimit="10" stroke-linejoin="miter" fill="none" stroke="#ff0000" d="M128.9355-47.46957 140.58972-89.4225"/>
</svg>
