<svg xmlns="http://www.w3.org/2000/svg" xmlns:xlink="http://www.w3.org/1999/xlink" xmlns:inkscape="http://www.inkscape.org/namespaces/inkscape" version="1.1" width="157" height="157" viewBox="0 0 157 157">
<defs>
<path id="font_1_2" d="M.48599244 .38136292C.48999024 .39537049 .48999024 .39736939 .48999024 .40437318 .48999024 .42237855 .47599793 .43138124 .46099855 .43138124 .45098878 .43138124 .43499757 .42536927 .42599488 .41036988 .42399598 .405365 .41600038 .37435914 .4119873 .35635377 .40499879 .33035279 .397995 .30334474 .3919983 .27633668L.34700013 .09628296C.34298707 .08126831 .2999878 .011245728 .23399353 .011245728 .18299866 .011245728 .17199707 .055267335 .17199707 .0922699 .17199707 .1382904 .18899536 .20030213 .22299195 .28833009 .23899842 .3293457 .24299622 .3403473 .24299622 .36035157 .24299622 .405365 .21099854 .4423828 .16099549 .4423828 .06599426 .4423828 .0289917 .29733277 .0289917 .28833009 .0289917 .27833558 .038986207 .27833558 .040985109 .27833558 .050994874 .27833558 .051986696 .28033448 .056991579 .29634095 .083999637 .3903656 .12399292 .42037965 .1579895 .42037965 .1659851 .42037965 .18299866 .42037965 .18299866 .3883667 .18299866 .36335755 .17298889 .3373413 .1659851 .31834413 .12599182 .21231079 .10798645 .1552887 .10798645 .10827637 .10798645 .019256592 .17098999-.0107421879 .22999573-.0107421879 .2689972-.0107421879 .30299378 .0062561037 .33099366 .03425598 .31799317-.017745972 .30599977-.06674194 .2659912-.11973572 .23999024-.15385437 .20199585-.18309021 .1559906-.18309021 .14199829-.18309021 .09700012-.18005371 .07998657-.14074707 .09599304-.14074707 .10899353-.14074707 .12298584-.1287384 .1329956-.11973572 .14299011-.10673523 .14299011-.08773804 .14299011-.056747438 .115997318-.052734376 .10598755-.052734376 .08299255-.052734376 .049987794-.068740848 .049987794-.11773682 .049987794-.16796875 .09399414-.20507813 .1559906-.20507813 .25898744-.20507813 .3619995-.11373901 .3899994-.00074768069L.48599244 .38136292Z"/>
<path id="font_1_1" d="M.33399964 .30233766C.33999635 .32835389 .36299134 .42037965 .43299867 .42037965 .43798829 .42037965 .46199037 .42037965 .48298646 .40734864 .45498658 .402359 .43499757 .37734986 .43499757 .35334779 .43499757 .33735658 .44599916 .31835938 .47299195 .31835938 .49499513 .31835938 .5269928 .3363495 .5269928 .37635804 .5269928 .42837525 .46798707 .4423828 .43399049 .4423828 .37599183 .4423828 .34098817 .38935853 .32899476 .36634828 .3039856 .43237306 .25 .4423828 .22099304 .4423828 .116989139 .4423828 .05999756 .3133545 .05999756 .28834535 .05999756 .27833558 .069992069 .27833558 .07199097 .27833558 .07998657 .27833558 .08299255 .28033448 .084991458 .28933717 .11898804 .39535523 .18499756 .42037965 .21899414 .42037965 .23799134 .42037965 .272995 .4113617 .272995 .35334779 .272995 .32235719 .2559967 .25532533 .21899414 .11528015 .20298767 .053268434 .16799927 .011245728 .12399292 .011245728 .117996219 .011245728 .09498596 .011245728 .07398987 .024276734 .09899902 .029266358 .12098694 .05027771 .12098694 .07827759 .12098694 .105270389 .09899902 .11328125 .083999637 .11328125 .053985597 .11328125 .0289917 .08728027 .0289917 .055267335 .0289917 .009246826 .07899475-.0107421879 .12298584-.0107421879 .18899536-.0107421879 .22499085 .059280397 .22799683 .0652771 .23999024 .028274537 .27598573-.0107421879 .33599855-.0107421879 .43899537-.0107421879 .49598695 .118270877 .49598695 .14328003 .49598695 .1532898 .4869995 .1532898 .48399354 .1532898 .47499085 .1532898 .47299195 .14929199 .47099305 .14228821 .43798829 .03527832 .36999513 .011245728 .33799745 .011245728 .29899598 .011245728 .2829895 .043273927 .2829895 .07727051 .2829895 .09927368 .2889862 .121276859 .2999878 .16529846L.33399964 .30233766Z"/>
<path id="font_2_2" d="M.14498902 .087509158C.18099976 .12449646 .19198609 .13549805 .27999879 .20846558 .29100038 .21746826 .36099244 .2754364 .3880005 .30142213 .45098878 .36340333 .48999024 .418396 .48999024 .42939759 .48999024 .43840028 .48199464 .44140626 .47499085 .44140626 .46499635 .44140626 .46398927 .4393921 .45399476 .4243927 .4229889 .3784027 .40098573 .37039186 .3829956 .37039186 .3639984 .37039186 .35198976 .3784027 .33198548 .39839173 .30599977 .42340089 .28599549 .44140626 .2539978 .44140626 .17399597 .44140626 .12399292 .3514099 .12399292 .3244171 .12399292 .32341004 .12399292 .3124237 .13999939 .3124237 .1499939 .3124237 .1519928 .3164215 .1559906 .32740785 .16899109 .35639955 .21199036 .36639405 .24198914 .36639405 .2649994 .36639405 .2889862 .36039735 .31298829 .3534088 .35499574 .34240724 .3639984 .34240724 .3869934 .34240724 .3659973 .3204193 .33799745 .2924347 .26098634 .22946167 .21899414 .19447327 .1769867 .16049195 .1499939 .13449097 .07598877 .061523439 .04399109 .012237549 .04399109 .0022277833 .04399109-.0067749025 .050994874-.009765625 .05899048-.009765625 .068984989-.009765625 .070999149-.0067749025 .07598877 .00022888184 .09599304 .030334473 .1269989 .061523439 .16499329 .061523439 .18798828 .061523439 .19799805 .052459718 .21699524 .033355714 .24899292 .0022277833 .2669983-.009765625 .29599-.009765625 .3999939-.009765625 .46299745 .11450195 .46299745 .14549256 .46299745 .15449524 .45599366 .15849304 .44799806 .15849304 .43699647 .15849304 .43499757 .15249634 .43099977 .14248657 .4119873 .09251404 .35699464 .06552124 .30699159 .06552124 .28799439 .06552124 .2659912 .070510867 .23599243 .07852173 .19400025 .089523319 .18399048 .089523319 .16899109 .089523319 .15899658 .089523319 .15299988 .089523319 .14498902 .087509158Z"/>
<path id="font_3_1" d="M.73098757 .3330078C.74598696 .3330078 .7659912 .3330078 .7659912 .3560028 .7659912 .3789978 .74198916 .3789978 .72698977 .3789978H.09799194C.08299255 .3789978 .05899048 .3789978 .05899048 .3560028 .05899048 .3330078 .07899475 .3330078 .09399414 .3330078H.73098757M.72698977 .12098694C.74198916 .12098694 .7659912 .12098694 .7659912 .14398194 .7659912 .16699219 .74598696 .16699219 .73098757 .16699219H.09399414C.07899475 .16699219 .05899048 .16699219 .05899048 .14398194 .05899048 .12098694 .08299255 .12098694 .09799194 .12098694H.72698977Z"/>
<path id="font_2_1" d="M.40899659 .38304139C.36799623 .3780365 .35499574 .34703065 .35499574 .32702638 .35499574 .29803468 .3809967 .29003907 .3939972 .29003907 .39898683 .29003907 .44999696 .29403688 .44999696 .35502626 .44999696 .4163971 .38398744 .44140626 .32398988 .44140626 .18199158 .44140626 .04399109 .3030243 .04399109 .16311646 .04399109 .06819153 .10899353-.009765625 .21998596-.009765625 .37799073-.009765625 .46099855 .091171268 .46099855 .10417175 .46099855 .11315918 .45098878 .120147708 .44499208 .120147708 .43899537 .120147708 .43598939 .11715698 .43099977 .11116028 .35198976 .018234253 .23999024 .018234253 .22200012 .018234253 .16799927 .018234253 .125 .051208497 .125 .12715149 .125 .17111206 .14498902 .27703858 .19198609 .33903504 .23599243 .39518739 .28599549 .4133911 .32499696 .4133911 .33699037 .4133911 .3829956 .41238404 .40899659 .38304139Z"/>
<path id="font_4_1" d="M.45999146 .31976319C.45999146 .39982606 .45498658 .47988893 .41999818 .5539398 .37399293 .65000918 .2919922 .6660156 .25 .6660156 .18998719 .6660156 .116989139 .64001467 .07598877 .54693606 .04399109 .47789 .038986207 .39982606 .038986207 .31976319 .038986207 .24472046 .042999269 .15464783 .083999637 .07859802 .1269989-.0024719239 .19999695-.022460938 .24899292-.022460938 .30299378-.022460938 .3789978-.0014648438 .4229889 .09359741 .45498658 .16265869 .45999146 .2407074 .45999146 .31976319M.24899292-.00047302247C.20999146-.00047302247 .15098572 .024551392 .1329956 .12062073 .12199402 .18066406 .12199402 .2727356 .12199402 .3317871 .12199402 .39582826 .12199402 .46188355 .12998963 .5159149 .14898682 .63500979 .22399903 .64401248 .24899292 .64401248 .28199769 .64401248 .34799195 .6259918 .36698915 .52693179 .3769989 .47088624 .3769989 .39482118 .3769989 .3317871 .3769989 .25672914 .3769989 .18867493 .3659973 .12461853 .35099793 .029556275 .2939911-.00047302247 .24899292-.00047302247Z"/>
</defs>
<path transform="matrix(1,0,0,-1.00008,73.862,82.50256)" stroke-width=".3985" stroke-linecap="butt" stroke-miterlimit="10" stroke-linejoin="miter" fill="none" stroke="#e5e6e5" d="M-68.0326-68.0326H68.0326M-68.0326-45.35506H68.0326M-68.0326-22.67752H68.0326M-68.0326 0H68.0326M-68.0326 22.67752H68.0326M-68.0326 45.35506H68.0326M-68.0326 68.02461H68.0326M-68.0326-68.0326V68.0326M-45.35506-68.0326V68.0326M-22.67752-68.0326V68.0326M0-68.0326V68.0326M22.67752-68.0326V68.0326M45.35506-68.0326V68.0326M68.02461-68.0326V68.0326M68.0326 68.0326"/>
<path transform="matrix(1,0,0,-1.00008,73.862,82.50256)" stroke-width=".79701" stroke-linecap="butt" stroke-miterlimit="10" stroke-linejoin="miter" fill="none" stroke="#000000" d="M-72.56802 0H69.97775"/>
<path transform="matrix(1,0,0,-1.00008,143.83975,82.50256)" d="M2.59026 0-1.55415 2.0722 0 0-1.55415-2.0722"/>
<use data-text="y" xlink:href="#font_1_2" transform="matrix(9.9626,0,0,-9.963397,150.149,83.67866)"/>
<path transform="matrix(1,0,0,-1.00008,73.862,82.50256)" stroke-width=".79701" stroke-linecap="butt" stroke-miterlimit="10" stroke-linejoin="miter" fill="none" stroke="#000000" d="M0-72.56802V69.97775"/>
<path transform="matrix(0,-1.00008,-1,-0,73.862,12.519211)" d="M2.59026 0-1.55415 2.0722 0 0-1.55415-2.0722"/>
<use data-text="x" xlink:href="#font_1_1" transform="matrix(9.9626,0,0,-9.963397,71.015,6.2094576)"/>
<path transform="matrix(1,0,0,-1.00008,73.862,82.50256)" stroke-width=".79701" stroke-linecap="butt" stroke-miterlimit="10" stroke-linejoin="miter" fill="none" stroke="#bf0040" d="M18.14207 0C18.14207 5.00977 10.01971 9.07086 0 9.07086-10.01971 9.07086-18.14207 5.00977-18.14207 0-18.14207-5.00977-10.01971-9.07086 0-9.07086 10.01971-9.07086 18.14207-5.00977 18.14207 0ZM0 0"/>
<path transform="matrix(1,0,0,-1.00008,73.862,82.50256)" stroke-width=".79701" stroke-linecap="butt" stroke-miterlimit="10" stroke-linejoin="miter" fill="none" stroke="#cc3366" d="M36.2842 0C36.2842 10.01971 20.03946 18.14207 0 18.14207-20.03946 18.14207-36.2842 10.01971-36.2842 0-36.2842-10.01971-20.03946-18.14207 0-18.14207 20.03946-18.14207 36.2842-10.01971 36.2842 0ZM0 0"/>
<path transform="matrix(1,0,0,-1.00008,73.862,82.50256)" stroke-width=".79701" stroke-linecap="butt" stroke-miterlimit="10" stroke-linejoin="miter" fill="none" stroke="#d9668c" d="M54.42595 0C54.42595 15.0295 30.059 27.21297 0 27.21297-30.059 27.21297-54.42595 15.0295-54.42595 0-54.42595-15.0295-30.059-27.21297 0-27.21297 30.059-27.21297 54.42595-15.0295 54.42595 0ZM0 0"/>
<use data-text="z" xlink:href="#font_2_2" transform="matrix(7.9701,0,0,-7.9707376,113.666,66.07525)" fill="#bf0040"/>
<use data-text="=" xlink:href="#font_3_1" transform="matrix(7.9701,0,0,-7.9707376,120.29401,66.07525)" fill="#bf0040"/>
<use data-text="c" xlink:href="#font_2_1" transform="matrix(7.9701,0,0,-7.9707376,129.233,66.07525)" fill="#bf0040"/>
<path transform="matrix(1,0,0,-1.00008,73.862,82.50256)" d="M1.59404 0C1.59404 .88037 .88037 1.59404 0 1.59404-.88037 1.59404-1.59404 .88037-1.59404 0-1.59404-.88037-.88037-1.59404 0-1.59404 .88037-1.59404 1.59404-.88037 1.59404 0ZM0 0"/>
<path transform="matrix(1,0,0,-1.00008,73.862,82.50256)" stroke-width=".3985" stroke-linecap="butt" stroke-miterlimit="10" stroke-linejoin="miter" fill="none" stroke="#000000" d="M1.59404 0C1.59404 .88037 .88037 1.59404 0 1.59404-.88037 1.59404-1.59404 .88037-1.59404 0-1.59404-.88037-.88037-1.59404 0-1.59404 .88037-1.59404 1.59404-.88037 1.59404 0ZM0 0"/>
<use data-text="0" xlink:href="#font_4_1" transform="matrix(9.9626,0,0,-9.963397,65.361,92.44336)"/>
</svg>
