<svg xmlns="http://www.w3.org/2000/svg" xmlns:xlink="http://www.w3.org/1999/xlink" xmlns:inkscape="http://www.inkscape.org/namespaces/inkscape" version="1.1" width="202" height="129" viewBox="0 0 202 129">
<defs>
<path id="font_1_1" d="M.37399293 .6046295C.3829956 .64060977 .38598634 .6516113 .47999574 .6516113 .5099945 .6516113 .5179901 .6516113 .5179901 .6706085 .5179901 .6826172 .5069885 .6826172 .5019989 .6826172 .46899415 .6826172 .3869934 .6796112 .35398866 .6796112 .32398988 .6796112 .25099183 .6826172 .22099304 .6826172 .21398926 .6826172 .20199585 .6826172 .20199585 .6626129 .20199585 .6516113 .21099854 .6516113 .22999573 .6516113 .23199463 .6516113 .25099183 .6516113 .2679901 .6496124 .28599549 .6476135 .29499818 .64660647 .29499818 .6336212 .29499818 .6296234 .2939911 .62661746 .29100038 .614624L.15699768 .07795715C.14698792 .038986207 .14498902 .0309906 .06599426 .0309906 .04899597 .0309906 .038986207 .0309906 .038986207 .010986328 .038986207 0 .04798889 0 .06599426 0H.5289917C.5529938 0 .55400088 0 .55999758 .016998291L.6389923 .23286438C.6429901 .24386597 .6429901 .24586487 .6429901 .24685669 .6429901 .2508545 .6399994 .25785829 .6309967 .25785829 .621994 .25785829 .62098696 .2528534 .6139984 .23686219 .5799866 .14492798 .5359955 .0309906 .36299134 .0309906H.2689972C.25498963 .0309906 .25299073 .0309906 .24699402 .03199768 .23699951 .032989503 .23399353 .033996583 .23399353 .041992189 .23399353 .04498291 .23399353 .04698181 .23899842 .064971927L.37399293 .6046295Z"/>
<path id="font_2_1" d="M.33499146 .63612368C.33499146 .6630554 .33299256 .6640625 .30499269 .6640625 .24099732 .6014404 .1499939 .6004486 .10899353 .6004486V.5644531C.1329956 .5644531 .19898987 .5644531 .2539978 .592453V.08203125C.2539978 .04899597 .2539978 .035995485 .1539917 .035995485H.115997318V0C.13398743 .0009918213 .25698854 .0039978029 .2939911 .0039978029 .32499696 .0039978029 .45098878 .0009918213 .47299195 0V.035995485H.43499757C.33499146 .035995485 .33499146 .04899597 .33499146 .08203125V.63612368Z"/>
<path id="font_2_2" d="M.5049896 .18203736H.47099305C.46798707 .16001892 .45799256 .100997928 .44499208 .09098816 .43699647 .084991458 .3600006 .084991458 .34599305 .084991458H.1619873C.2669983 .17803955 .3019867 .20603943 .3619995 .25306703 .43598939 .312088 .5049896 .374115 .5049896 .46914674 .5049896 .5900879 .39898683 .6640625 .2709961 .6640625 .14698792 .6640625 .06298828 .57710269 .06298828 .4851532 .06298828 .43414308 .10598755 .42915345 .115997318 .42915345 .13999939 .42915345 .16899109 .44615174 .16899109 .48214723 .16899109 .5001526 .1619873 .53515627 .10998535 .53515627 .14099121 .6060791 .20899964 .62805178 .2559967 .62805178 .35598756 .62805178 .4079895 .5501404 .4079895 .46914674 .4079895 .38212586 .34599305 .3130951 .31399537 .27708436L.07299805 .038986207C.06298828 .02999878 .06298828 .027999878 .06298828 0H.47499085L.5049896 .18203736Z"/>
<path id="font_3_111" d="M.772995 .6496124V.6826172C.74398806 .6796112 .69299319 .6796112 .673996 .6796112 .6549988 .6796112 .60899356 .6796112 .56399539 .6826172V.6496124C.60798647 .6496124 .6319885 .6274414 .6319885 .60032656 .6319885 .5923157 .6309967 .58932498 .6259918 .57832339L.42799378 .09446716 .21899414 .60232546C.21499634 .6123352 .21299744 .6163635 .21299744 .62039187 .21299744 .6496124 .2659912 .6496124 .29100038 .6496124V.6826172L.15098572 .6796112C.102996829 .6796112 .07299805 .6796112 .021987915 .6826172V.6496124C.08198547 .6496124 .10398865 .6496124 .11999512 .6113281L.36999513 .00050354006C.37799073-.018493653 .38598634-.021484375 .39698792-.021484375 .4149933-.021484375 .41799928-.0134887699 .42399598 .00050354006L.6629944 .58232119C.6899872 .64860537 .7529907 .6496124 .772995 .6496124Z"/>
<path id="font_3_50" d="M.44099427 .12036133C.44099427 .12435913 .43798829 .13438416 .4249878 .13438416 .4139862 .13438416 .4119873 .12736511 .4099884 .12136841 .37399293 .024230957 .28799439 .021224976 .269989 .021224976 .22499085 .021224976 .1789856 .042251588 .14898682 .08831787 .11898804 .13438416 .11898804 .19847107 .11898804 .22851563H.41299439C.43499757 .22851563 .44099427 .22851563 .44099427 .25151063 .44099427 .34039308 .3919983 .44628907 .25099183 .44628907 .1269989 .44628907 .02999878 .3433838 .02999878 .21949768 .02999878 .09031677 .13798523-.009765625 .2639923-.009765625 .3909912-.009765625 .44099427 .097335819 .44099427 .12036133M.37298585 .25450135H.11999512C.1289978 .39431764 .21398926 .41827394 .25099183 .41827394 .36799623 .41827394 .37199403 .27748109 .37298585 .25450135Z"/>
<path id="font_3_96" d="M.38398744 .3784027C.38398744 .4133911 .35198976 .44140626 .30799867 .44140626 .24299622 .44140626 .19898987 .39239503 .17799378 .33639527H.1769867V.44140626L.034988405 .43045045V.39746095C.102996829 .39746095 .11099243 .3904419 .11099243 .3413849V.078048709C.11099243 .032989503 .09899902 .032989503 .034988405 .032989503V0C.07398987 .0029907227 .1289978 .0029907227 .15299988 .0029907227 .21199036 .0029907227 .21398926 .0029907227 .2789917 0V.032989503H.25898744C.18598938 .032989503 .18399048 .044006349 .18399048 .08004761V.22824097C.18399048 .30332948 .21499634 .41145326 .31098939 .41345216 .30499269 .40899659 .29499818 .40098573 .29499818 .37799073 .29499818 .34700013 .31900025 .33299256 .33898927 .33299256 .36299134 .33299256 .38398744 .34899903 .38398744 .37799073V.3784027Z"/>
<path id="font_3_105" d="M.35299684 .1250763V.1809845H.32199098V.12705994C.32199098 .058166505 .29100038 .021224976 .25299073 .021224976 .18598938 .021224976 .18598938 .10710144 .18598938 .12307739V.3976593H.33499146V.43066407H.18598938V.6142578H.15499878C.1539917 .52345278 .11299133 .4286499 .019989014 .42565919V.3976593H.10998535V.1250763C.10998535 .008224487 .19999695-.009765625 .24598694-.009765625 .31298829-.010009766 .35299684 .049987794 .35299684 .125V.1250763Z"/>
<path id="font_3_66" d="M.2599945 .0001373291V.03314209C.19499207 .03314209 .19099427 .038146974 .19099427 .07714844V.44140626L.04499817 .43045045V.39746095C.10899353 .39746095 .117996219 .39144898 .117996219 .34239198V.07814026C.117996219 .03314209 .10598755 .03314209 .041992189 .03314209V0C.08099365 .0029907227 .13699341 .0029907227 .1519928 .0029907227 .16499329 .0029907227 .22499085 .0029907227 .2599945 0V.0001373291M.20298767 .6021881C.20298767 .6351929 .1769867 .6582031 .147995 .6582031 .11898804 .6582031 .09298706 .6351929 .09298706 .6021881 .09298706 .5731964 .115997318 .54719546 .147995 .54719546 .1789856 .54719546 .20298767 .5731964 .20298767 .6021881Z"/>
<path id="font_3_43" d="M.44099427 .12031555C.44099427 .13232422 .42799378 .13232422 .4249878 .13232422 .41799928 .13232422 .41299439 .13131714 .4099884 .12130737 .40299989 .10029602 .375 .021224976 .2749939 .021224976 .21299744 .021224976 .12399292 .0692749 .12399292 .21739197 .12399292 .3614807 .19799805 .4152832 .2709961 .4152832 .27999879 .4152832 .33299256 .4152832 .36799623 .39746095 .33999635 .3884735 .33599855 .36547853 .33599855 .35346986 .33599855 .32647706 .35499574 .30647279 .3829956 .30647279 .40899659 .30625917 .42999269 .32426454 .42999269 .35427857 .42999269 .41627503 .3619995 .44628907 .2679901 .44628907 .1289978 .44628907 .034988405 .3352661 .034988405 .21624756 .034988405 .0892334 .13899231-.009765625 .2649994-.009765625 .4059906-.009765625 .44099427 .10824585 .44099427 .12023926V.12031555Z"/>
<path id="font_3_28" d="M.5139923 .09020996V.14530945H.48298646V.09020996C.48298646 .0491333 .46798707 .033111574 .44699098 .033111574 .4099884 .033111574 .4099884 .079193118 .4099884 .09020996V.29856874C.4099884 .39653016 .31498719 .44628907 .22399903 .44628907 .14099121 .44628907 .066986087 .4143219 .066986087 .34857179 .066986087 .318573 .08799744 .30056764 .11399841 .30056764 .14199829 .30056764 .16099549 .3205719 .16099549 .3475647 .16099549 .37156678 .1459961 .38856507 .12399292 .3935547 .16099549 .41827394 .21499634 .41827394 .22200012 .41827394 .27799989 .41827394 .33399964 .37957765 .33399964 .29756166V.26651C.27598573 .26350404 .20899964 .26049806 .13899231 .23144531 .050994874 .1933899 .033996583 .13528443 .033996583 .10223389 .033996583 .016220093 .1349945-.009765625 .20399475-.009765625 .2769928-.009765625 .32199098 .031219483 .34399415 .07122803 .34899903 .033111574 .375-.0048828127 .4189911-.0048828127 .42900086-.0048828127 .5139923-.00088500979 .5139923 .09010315V.09020996M.33399964 .14111328C.33399964 .04421997 .2519989 .018234253 .21199036 .018234253 .1599884 .018234253 .115997318 .053222658 .115997318 .10122681 .115997318 .16722107 .17799378 .23522949 .33399964 .24023438V.14111328Z"/>
<path id="font_3_72" d="M.2669983 0V.032989503C.20298767 .032989503 .19099427 .032989503 .19099427 .07801819V.69433596L.041992189 .6826172V.6496124C.10998535 .6496124 .117996219 .64260867 .117996219 .5936432V.07795715C.117996219 .032989503 .10598755 .032989503 .041992189 .032989503V0C.08099365 .0029907227 .13699341 .0029907227 .1539917 .0029907227 .17399597 .0029907227 .22799683 .0029907227 .2669983 0Z"/>
<path id="font_3_58" d="M.7819977 .24238587V.27539063C.73098757 .27238465 .7029877 .27238465 .6459961 .27238465 .6029968 .27238465 .5219879 .27238465 .48298646 .27539063V.24238587H.5179901C.61299136 .24272156 .6159973 .23069763 .6159973 .19366455V.12960816C.6159973 .10958862 .6159973 .06855774 .5629883 .039535524 .5130005 .011505127 .45700074 .011505127 .44499208 .011505127 .34298707 .011505127 .16299439 .07356262 .16299439 .34179688 .16299439 .61305239 .34599305 .6710968 .43798829 .6710968 .5379944 .6710968 .6499939 .5980377 .6749878 .43289186 .6759949 .42288209 .6769867 .41687013 .69099429 .41687013 .70799258 .41687013 .70799258 .4238739 .70799258 .4429016V.6781006C.70799258 .6940918 .70799258 .70410159 .69499209 .70410159 .6879883 .70410159 .68699648 .7030945 .6779938 .690094L.6269989 .6160431C.58399966 .6620941 .5179901 .70410159 .42799378 .70410159 .22799683 .70410159 .05899048 .542984 .05899048 .34179688 .05899048 .1426239 .22299195-.021484375 .43099977-.021484375 .5079956-.021484375 .59399417 .0015106201 .6339874 .060546876 .6519928 .03253174 .6859894-.00048828127 .69599917-.00048828127 .70799258 0 .70799258 .010986328 .70799258 .025985718V.19799805C.70799258 .23738098 .71199038 .24238587 .7819977 .24238587Z"/>
<path id="font_3_84" d="M.55400088 .21640015C.55400088 .34140016 .45298768 .44140626 .33198548 .44140626 .29299928 .44140626 .23498535 .43139649 .18399048 .37939454V.44140626L.034988405 .43045045V.39746095C.10598755 .39746095 .11099243 .39144898 .11099243 .34947206V-.1159668C.11099243-.16113281 .09899902-.16113281 .034988405-.16113281V-.19413758C.07798767-.19114685 .12199402-.19114685 .14898682-.19114685 .17799378-.19114685 .21998596-.19114685 .2630005-.19413758V-.16113281C.19898987-.16113281 .18699646-.16113281 .18699646-.1159668V.049545289C.23399353-.0017700195 .2849884-.009765625 .31698609-.009765625 .44400025-.009765625 .55400088 .088256839 .55400088 .2163086V.21640015M.46499635 .2163086C.46499635 .101257327 .3929901 .018234253 .31199647 .018234253 .2769928 .018234253 .23098755 .033233644 .19898987 .08325195 .18699646 .1002655 .18699646 .101257327 .18699646 .120269779V.33335877C.20999146 .37338258 .2599945 .4104004 .32299806 .4104004 .3999939 .4104004 .46499635 .32536317 .46499635 .2163086Z"/>
</defs>
<path transform="matrix(1,0,0,-1,20.119004,105.001)" stroke-width=".3985" stroke-linecap="butt" stroke-dasharray="2.98883,2.98883" stroke-miterlimit="10" stroke-linejoin="miter" fill="none" stroke="#d9d9d9" d="M36.85808 29.48654H147.43242"/>
<path transform="matrix(1,0,0,-1,20.119004,105.001)" stroke-width=".3985" stroke-linecap="butt" stroke-dasharray="2.98883,2.98883" stroke-miterlimit="10" stroke-linejoin="miter" fill="none" stroke="#d9d9d9" d="M36.85808 29.48654 0 0"/>
<path transform="matrix(1,0,0,-1,20.119004,105.001)" stroke-width=".3985" stroke-linecap="butt" stroke-dasharray="2.98883,2.98883" stroke-miterlimit="10" stroke-linejoin="miter" fill="none" stroke="#d9d9d9" d="M36.85808 29.48654V103.20277"/>
<path transform="matrix(1,0,0,-1,20.119004,105.001)" stroke-width=".3985" stroke-linecap="butt" stroke-miterlimit="10" stroke-linejoin="miter" fill="none" stroke="#d9d9d9" d="M0 0H110.57431V73.7162H0Z"/>
<path transform="matrix(1,0,0,-1,20.119004,105.001)" stroke-width=".3985" stroke-linecap="butt" stroke-miterlimit="10" stroke-linejoin="miter" fill="none" stroke="#d9d9d9" d="M110.57431 0 147.43242 29.48654V103.20277L110.57431 73.7162"/>
<path transform="matrix(1,0,0,-1,20.119004,105.001)" stroke-width=".3985" stroke-linecap="butt" stroke-miterlimit="10" stroke-linejoin="miter" fill="none" stroke="#d9d9d9" d="M36.85808 103.20277H147.43242"/>
<path transform="matrix(1,0,0,-1,20.119004,105.001)" stroke-width=".3985" stroke-linecap="butt" stroke-miterlimit="10" stroke-linejoin="miter" fill="none" stroke="#d9d9d9" d="M0 73.7162 36.85808 103.20277"/>
<path transform="matrix(1,0,0,-1,20.119004,105.001)" stroke-width="1.59404" stroke-linecap="butt" stroke-miterlimit="10" stroke-linejoin="miter" fill="none" stroke="#0000ff" d="M-18.42545 84.75725 162.04662 91.97603"/>
<path transform="matrix(.99915,-.03996,-.03996,-.99915,182.16562,13.024971)" d="M3.78581 0-2.27148 3.02866 0 0-2.27148-3.02866" fill="#0000ff"/>
<use data-text="L" xlink:href="#font_1_1" transform="matrix(9.9626,0,0,-9.9626,190.06601,15.529999)" fill="#0000ff"/>
<use data-text="1" xlink:href="#font_2_1" transform="matrix(6.9738,0,0,-6.9738,196.84601,17.024003)" fill="#0000ff"/>
<path transform="matrix(1,0,0,-1,20.119004,105.001)" stroke-width="1.59404" stroke-linecap="butt" stroke-miterlimit="10" stroke-linejoin="miter" fill="none" stroke="#ff0000" d="M18.42545 55.27638 125.8284-16.32556"/>
<path transform="matrix(.83202,.55467,.55467,-.83202,145.9474,121.32655)" d="M3.78581 0-2.27148 3.02866 0 0-2.27148-3.02866" fill="#ff0000"/>
<use data-text="L" xlink:href="#font_1_1" transform="matrix(9.9626,0,0,-9.9626,153.215,126.083)" fill="#ff0000"/>
<use data-text="2" xlink:href="#font_2_2" transform="matrix(6.9738,0,0,-6.9738,159.995,127.577)" fill="#ff0000"/>
<path transform="matrix(1,0,0,-1,20.119004,105.001)" stroke-width=".79701" stroke-linecap="butt" stroke-dasharray="2.98883,2.98883" stroke-miterlimit="10" stroke-linejoin="miter" fill="none" stroke="#999999" d="M73.70186 85.85175V21.01572"/>
<path transform="matrix(0,-1,-1,-0,93.82086,19.149247)" d="M2.59026 0-1.55415 2.0722 0 0-1.55415-2.0722" fill="#999999"/>
<path transform="matrix(0,1,1,0,93.82086,83.985279)" d="M2.59026 0-1.55415 2.0722 0 0-1.55415-2.0722" fill="#999999"/>
<use data-text="V" xlink:href="#font_3_111" transform="matrix(7.9701,0,0,-7.9701,97.341,53.6)" fill="#7f807f"/>
<use data-text="e" xlink:href="#font_3_50" transform="matrix(7.9701,0,0,-7.9701,102.97587,53.6)" fill="#7f807f"/>
<use data-text="r" xlink:href="#font_3_96" transform="matrix(7.9701,0,0,-7.9701,106.737758,53.6)" fill="#7f807f"/>
<use data-text="t" xlink:href="#font_3_105" transform="matrix(7.9701,0,0,-7.9701,110.03738,53.6)" fill="#7f807f"/>
<use data-text="i" xlink:href="#font_3_66" transform="matrix(7.9701,0,0,-7.9701,113.329029,53.6)" fill="#7f807f"/>
<use data-text="c" xlink:href="#font_3_43" transform="matrix(7.9701,0,0,-7.9701,115.68021,53.6)" fill="#7f807f"/>
<use data-text="a" xlink:href="#font_3_28" transform="matrix(7.9701,0,0,-7.9701,119.44209,53.6)" fill="#7f807f"/>
<use data-text="l" xlink:href="#font_3_72" transform="matrix(7.9701,0,0,-7.9701,123.67421,53.6)" fill="#7f807f"/>
<use data-text="G" xlink:href="#font_3_58" transform="matrix(7.9701,0,0,-7.9701,128.83884,53.6)" fill="#7f807f"/>
<use data-text="a" xlink:href="#font_3_28" transform="matrix(7.9701,0,0,-7.9701,135.4859,53.6)" fill="#7f807f"/>
<use data-text="p" xlink:href="#font_3_84" transform="matrix(7.9701,0,0,-7.9701,139.71802,53.6)" fill="#7f807f"/>
</svg>
