<svg xmlns="http://www.w3.org/2000/svg" xmlns:xlink="http://www.w3.org/1999/xlink" xmlns:inkscape="http://www.inkscape.org/namespaces/inkscape" version="1.1" width="157" height="151" viewBox="0 0 157 151">
<defs>
<clipPath id="clip_1">
<path transform="matrix(1,0,0,-1,-34.102998,81.839)" d="M193.8617-19.0268V71.22278L122.90343 116.2404 0 90.24957V0L70.95827-45.01761Z"/>
</clipPath>
<path id="font_2_1" d="M.20599365 .3996582H.2999878C.31999208 .3996582 .32998658 .3996582 .32998658 .41966249 .32998658 .43066407 .31999208 .43066407 .3019867 .43066407H.21398926C.25 .5724945 .25498963 .59246829 .25498963 .59846499 .25498963 .61546328 .24299622 .62545779 .22599793 .62545779 .22299195 .62545779 .19499207 .62446597 .18598938 .58947756L.14698792 .43066407H.052993776C.032989503 .43066407 .022994996 .43066407 .022994996 .4116516 .022994996 .3996582 .0309906 .3996582 .050994874 .3996582H.13899231C.066986087 .11608887 .06298828 .099121097 .06298828 .08114624 .06298828 .02722168 .100997928-.0107421879 .15499878-.0107421879 .25698854-.0107421879 .31399537 .13505554 .31399537 .14305115 .31399537 .1530304 .30599977 .1530304 .3019867 .1530304 .29299928 .1530304 .2919922 .15003968 .2869873 .13905335 .24398804 .035217287 .19099427 .011245728 .15699768 .011245728 .13598633 .011245728 .12599182 .024230957 .12599182 .057174684 .12599182 .08114624 .12799073 .088134769 .13198853 .10510254L.20599365 .3996582Z"/>
<path id="font_3_4" d="M.68699648 .32714845C.70199587 .32714845 .72099307 .32714845 .72099307 .34713746 .72099307 .36714173 .70199587 .36714173 .6879883 .36714173H.08898926C.07499695 .36714173 .055999757 .36714173 .055999757 .34713746 .055999757 .32714845 .07499695 .32714845 .08999634 .32714845H.68699648M.6879883 .13284302C.70199587 .13284302 .72099307 .13284302 .72099307 .15284729 .72099307 .17285156 .70199587 .17285156 .68699648 .17285156H.08999634C.07499695 .17285156 .055999757 .17285156 .055999757 .15284729 .055999757 .13284302 .07499695 .13284302 .08898926 .13284302H.6879883Z"/>
<path id="font_3_3" d="M.45999146 .31976319C.45999146 .39982606 .45498658 .47988893 .41999818 .5539398 .37399293 .65000918 .2919922 .6660156 .25 .6660156 .18998719 .6660156 .116989139 .64001467 .07598877 .54693606 .04399109 .47789 .038986207 .39982606 .038986207 .31976319 .038986207 .24472046 .042999269 .15464783 .083999637 .07859802 .1269989-.0024719239 .19999695-.022460938 .24899292-.022460938 .30299378-.022460938 .3789978-.0014648438 .4229889 .09359741 .45498658 .16265869 .45999146 .2407074 .45999146 .31976319M.24899292-.00047302247C.20999146-.00047302247 .15098572 .024551392 .1329956 .12062073 .12199402 .18066406 .12199402 .2727356 .12199402 .3317871 .12199402 .39582826 .12199402 .46188355 .12998963 .5159149 .14898682 .63500979 .22399903 .64401248 .24899292 .64401248 .28199769 .64401248 .34799195 .6259918 .36698915 .52693179 .3769989 .47088624 .3769989 .39482118 .3769989 .3317871 .3769989 .25672914 .3769989 .18867493 .3659973 .12461853 .35099793 .029556275 .2939911-.00047302247 .24899292-.00047302247Z"/>
<path id="font_4_1" d="M.20298767 .3371582V.4501953L.036987306 .44218446V.39518739C.09899902 .39518739 .10598755 .39518739 .10598755 .35617066V.04699707H.036987306V0C.07199097 .0009918213 .116989139 .0029907227 .16299439 .0029907227 .20098877 .0029907227 .2649994 .0029907227 .30099488 0V.04699707H.21398926V.22209168C.21398926 .2921753 .23899842 .41418458 .33898927 .41418458 .33799745 .41319276 .31999208 .39718629 .31999208 .36819459 .31999208 .3271942 .35198976 .30718995 .3809967 .30718995 .4099884 .30718995 .44198609 .32818605 .44198609 .36819459 .44198609 .42118836 .3880005 .4501953 .33599855 .4501953 .2659912 .4501953 .22599793 .40019227 .20298767 .3371582Z"/>
<path id="font_3_1" d="M.33099366-.2400055C.33099366-.23701477 .33099366-.23500061 .31399537-.21800232 .18899536-.0920105 .15699768 .09700012 .15699768 .25 .15699768 .42399598 .19499207 .59799197 .31799317 .72299197 .33099366 .73498538 .33099366 .7369995 .33099366 .73999026 .33099366 .746994 .32699586 .75 .32099916 .75 .31098939 .75 .22099304 .6819916 .1619873 .5549927 .11099243 .44499208 .09899902 .33399964 .09899902 .25 .09899902 .17199707 .10998535 .050994874 .16499329-.06201172 .22499085-.18501282 .31098939-.25 .32099916-.25 .32699586-.25 .33099366-.24700928 .33099366-.2400055Z"/>
<path id="font_3_2" d="M.2889862 .25C.2889862 .32798768 .27799989 .44898988 .22299195 .56199648 .16299439 .68499758 .07699585 .75 .066986087 .75 .06098938 .75 .056991579 .74598696 .056991579 .73999026 .056991579 .7369995 .056991579 .73498538 .07598877 .71699526 .17399597 .6179962 .23098755 .45899964 .23098755 .25 .23098755 .07899475 .19400025-.09700012 .069992069-.2230072 .056991579-.23500061 .056991579-.23701477 .056991579-.2400055 .056991579-.2460022 .06098938-.25 .066986087-.25 .07699585-.25 .16699219-.18200684 .22599793-.055007936 .2769928 .054992677 .2889862 .16600037 .2889862 .25Z"/>
<path id="font_2_2" d="M.33399964 .30233766C.33999635 .32835389 .36299134 .42037965 .43299867 .42037965 .43798829 .42037965 .46199037 .42037965 .48298646 .40734864 .45498658 .402359 .43499757 .37734986 .43499757 .35334779 .43499757 .33735658 .44599916 .31835938 .47299195 .31835938 .49499513 .31835938 .5269928 .3363495 .5269928 .37635804 .5269928 .42837525 .46798707 .4423828 .43399049 .4423828 .37599183 .4423828 .34098817 .38935853 .32899476 .36634828 .3039856 .43237306 .25 .4423828 .22099304 .4423828 .116989139 .4423828 .05999756 .3133545 .05999756 .28834535 .05999756 .27833558 .069992069 .27833558 .07199097 .27833558 .07998657 .27833558 .08299255 .28033448 .084991458 .28933717 .11898804 .39535523 .18499756 .42037965 .21899414 .42037965 .23799134 .42037965 .272995 .4113617 .272995 .35334779 .272995 .32235719 .2559967 .25532533 .21899414 .11528015 .20298767 .053268434 .16799927 .011245728 .12399292 .011245728 .117996219 .011245728 .09498596 .011245728 .07398987 .024276734 .09899902 .029266358 .12098694 .05027771 .12098694 .07827759 .12098694 .105270389 .09899902 .11328125 .083999637 .11328125 .053985597 .11328125 .0289917 .08728027 .0289917 .055267335 .0289917 .009246826 .07899475-.0107421879 .12298584-.0107421879 .18899536-.0107421879 .22499085 .059280397 .22799683 .0652771 .23999024 .028274537 .27598573-.0107421879 .33599855-.0107421879 .43899537-.0107421879 .49598695 .118270877 .49598695 .14328003 .49598695 .1532898 .4869995 .1532898 .48399354 .1532898 .47499085 .1532898 .47299195 .14929199 .47099305 .14228821 .43798829 .03527832 .36999513 .011245728 .33799745 .011245728 .29899598 .011245728 .2829895 .043273927 .2829895 .07727051 .2829895 .09927368 .2889862 .121276859 .2999878 .16529846L.33399964 .30233766Z"/>
<path id="font_2_3" d="M.48599244 .38136292C.48999024 .39537049 .48999024 .39736939 .48999024 .40437318 .48999024 .42237855 .47599793 .43138124 .46099855 .43138124 .45098878 .43138124 .43499757 .42536927 .42599488 .41036988 .42399598 .405365 .41600038 .37435914 .4119873 .35635377 .40499879 .33035279 .397995 .30334474 .3919983 .27633668L.34700013 .09628296C.34298707 .08126831 .2999878 .011245728 .23399353 .011245728 .18299866 .011245728 .17199707 .055267335 .17199707 .0922699 .17199707 .1382904 .18899536 .20030213 .22299195 .28833009 .23899842 .3293457 .24299622 .3403473 .24299622 .36035157 .24299622 .405365 .21099854 .4423828 .16099549 .4423828 .06599426 .4423828 .0289917 .29733277 .0289917 .28833009 .0289917 .27833558 .038986207 .27833558 .040985109 .27833558 .050994874 .27833558 .051986696 .28033448 .056991579 .29634095 .083999637 .3903656 .12399292 .42037965 .1579895 .42037965 .1659851 .42037965 .18299866 .42037965 .18299866 .3883667 .18299866 .36335755 .17298889 .3373413 .1659851 .31834413 .12599182 .21231079 .10798645 .1552887 .10798645 .10827637 .10798645 .019256592 .17098999-.0107421879 .22999573-.0107421879 .2689972-.0107421879 .30299378 .0062561037 .33099366 .03425598 .31799317-.017745972 .30599977-.06674194 .2659912-.11973572 .23999024-.15385437 .20199585-.18309021 .1559906-.18309021 .14199829-.18309021 .09700012-.18005371 .07998657-.14074707 .09599304-.14074707 .10899353-.14074707 .12298584-.1287384 .1329956-.11973572 .14299011-.10673523 .14299011-.08773804 .14299011-.056747438 .115997318-.052734376 .10598755-.052734376 .08299255-.052734376 .049987794-.068740848 .049987794-.11773682 .049987794-.16796875 .09399414-.20507813 .1559906-.20507813 .25898744-.20507813 .3619995-.11373901 .3899994-.00074768069L.48599244 .38136292Z"/>
<path id="font_2_4" d="M.1329956 .08345032C.18699646 .14138794 .21598816 .16636658 .2519989 .19732666 .2519989 .19833374 .31399537 .25128175 .34999085 .2872467 .44499208 .3803711 .46699525 .42837525 .46699525 .43237306 .46699525 .4423828 .45799256 .4423828 .45599366 .4423828 .44898988 .4423828 .44599916 .44036866 .44099427 .43138124 .41099549 .38337709 .3899994 .3671875 .3659973 .3671875 .34199525 .3671875 .32998658 .38237 .31498719 .3993683 .29599 .42237855 .2789917 .4423828 .24598694 .4423828 .17098999 .4423828 .125 .34918214 .125 .3282013 .125 .3231964 .12799073 .31721498 .13699341 .31721498 .1459961 .31721498 .147995 .3222046 .1499939 .3282013 .16899109 .37434388 .22698975 .37538148 .23498535 .37538148 .2559967 .37538148 .2749939 .36820985 .2979889 .36018373 .33799745 .34518434 .34899903 .34518434 .375 .34518434 .33898927 .30223084 .25498963 .2303009 .23599243 .21430969L.1459961 .13040161C.07798767 .06341553 .042999269 .0062561037 .042999269-.00074768069 .042999269-.0107421879 .052993776-.0107421879 .054992677-.0107421879 .06298828-.0107421879 .06498718-.008743286 .070999149 .002243042 .09399414 .037246705 .12399292 .064453128 .1559906 .064453128 .1789856 .064453128 .18899536 .055252077 .21398926 .026245118 .23098755 .0052490236 .24899292-.0107421879 .27799989-.0107421879 .3769989-.0107421879 .43499757 .1164093 .43499757 .14338684 .43499757 .14837647 .43099977 .15338135 .4229889 .15338135 .4139862 .15338135 .4119873 .14738465 .40899659 .14039612 .38598634 .07543945 .32199098 .056243898 .2889862 .056243898 .2689972 .056243898 .25099183 .06239319 .22999573 .06944275 .19599915 .08244324 .18099976 .08644104 .1599884 .08644104 .1579895 .08644104 .14199829 .08644104 .1329956 .08345032Z"/>
</defs>
<path transform="matrix(1,0,0,-1,-34.102998,81.839)" stroke-width=".3985" stroke-linecap="butt" stroke-miterlimit="10" stroke-linejoin="miter" fill="none" stroke="#000000" d="M61.4517 12.9954 130.72759-30.95483"/>
<path transform="matrix(.84436,.53569,.53569,-.84436,96.62459,112.793819)" d="M1.99252 0-1.19551 1.59401 0 0-1.19551-1.59401"/>
<path transform="matrix(1,0,0,-1,-34.102998,81.839)" stroke-width=".3985" stroke-linecap="butt" stroke-miterlimit="10" stroke-linejoin="miter" fill="none" stroke="#000000" d="M35.47913-22.5088 156.43318 3.06978"/>
<path transform="matrix(.97835,-.2069,-.2069,-.97835,122.330188,78.76923)" d="M1.99252 0-1.19551 1.59401 0 0-1.19551-1.59401"/>
<path transform="matrix(1,0,0,-1,-34.102998,81.839)" stroke-width=".3985" stroke-linecap="butt" stroke-miterlimit="10" stroke-linejoin="miter" fill="none" stroke="#000000" d="M96.93085-9.5134V78.74365"/>
<path transform="matrix(0,-1,-1,-0,62.82785,3.0953446)" d="M1.99252 0-1.19551 1.59401 0 0-1.19551-1.59401"/>
<g clip-path="url(#clip_1)">
<path transform="matrix(1,0,0,-1,-34.102998,81.839)" stroke-width=".3985" stroke-linecap="butt" stroke-dasharray="2.98883,2.98883" stroke-miterlimit="10" stroke-linejoin="miter" fill="none" stroke="#bfbfbf" d="M120.5836-24.51926 128.66724-21.08699 135.33397-17.08083 140.28188-12.62221 143.29238-7.85384 144.22992-2.93161 143.05319 1.98149 139.8145 6.72263 134.65847 11.13634 127.81314 15.08276 119.58849 18.4422 110.35 21.12202 100.51212 23.05867 90.5138 24.22308 80.8025 24.6201 71.81422 24.28845 63.94717 23.30058 57.5552 21.7567 52.92413 19.78389 50.26016 17.52719 49.68243 15.14427 51.2178 12.79823 54.79707 10.65157 60.26007 8.8578 67.36409 7.55296 75.78943 6.85286 85.15965 6.84557 95.05652 7.58849 105.0374 9.10567 114.65582 11.38615 123.4802 14.38522 131.11844 18.02525 137.2282 22.20073 141.5363 26.78215 143.85068 31.621 144.06597 36.55858 142.17464 41.4312 138.26024 46.07707 132.49614 50.34596 125.14331 54.10426 116.52917 57.24084 107.03809 59.67238 97.0951 61.3475 87.14519 62.24767 77.63214 62.3893 68.98286 61.82422 61.58328 60.63367 55.76353 58.92809 51.7848 56.84154 49.825 54.52347 49.9701 52.13454 52.21547 49.83882 56.46115 47.79646 62.51552 46.15498 70.10883 45.04465 78.90164 44.5723 88.50085 44.8165 98.47726 45.82297 108.3834 47.60345 117.77737 50.13617"/>
<path transform="matrix(1,0,0,-1,-34.102998,81.839)" stroke-width="1.59404" stroke-linecap="butt" stroke-miterlimit="10" stroke-linejoin="miter" fill="none" stroke="#0000ff" d="M120.5836-24.51926C120.5836-24.51926 123.63416-23.36781 124.74721-22.89594 125.86028-22.42406 127.5835-21.63115 128.60578-21.11821 129.62807-20.60529 131.19519-19.74937 132.1152-19.19905 133.03522-18.64874 134.42897-17.73553 135.23656-17.15189 136.04416-16.56824 137.24965-15.60484 137.93582-14.9925 138.622-14.38014 139.62487-13.37471 140.1821-12.7384 140.73935-12.1021 141.52985-11.06158 141.95212-10.40639 142.37438-9.75117 142.94287-8.6848 143.22554-8.0161 143.50821-7.3474 143.84941-6.26358 143.98943-5.58673 144.12943-4.90988 144.2392-3.81729 144.23467-3.13777 144.23014-2.45825 144.1054-1.36578 143.95668-.68922 143.80796-.01265 143.45394 1.07034 143.16269 1.73842 142.87146 2.40648 142.28847 3.4716 141.85753 4.1258 141.42658 4.77998 140.62206 5.81842 140.05669 6.45337 139.4913 7.0883 138.47629 8.09142 137.7826 8.70207 137.0889 9.31274 135.8717 10.27304 135.05692 10.85469 134.24214 11.43636 132.83683 12.3461 131.9102 12.89427 130.98358 13.44243 129.40653 14.29501 128.37845 14.80557 127.35037 15.31613 125.61891 16.10487 124.50049 16.57404 123.38206 17.0432 121.51387 17.76242 120.31757 18.187 119.12126 18.61157 117.1394 19.2568 115.8783 19.63411 114.61717 20.0114 112.54027 20.57866 111.22835 20.90639 109.91644 21.23413 107.77115 21.7198 106.42287 21.99632 105.07458 22.27286 102.88075 22.67526 101.51086 22.89948 100.14099 23.12369 97.92586 23.44107 96.54971 23.61238 95.17357 23.78369 92.9601 24.01578 91.59253 24.13423 90.22496 24.25269 88.03683 24.39993 86.69316 24.4662 85.34949 24.53249 83.21326 24.59666 81.90823 24.61194 80.60323 24.6272 78.53944 24.6102 77.28743 24.57628 76.03542 24.54237 74.06952 24.44824 72.88446 24.36742 71.6994 24.28658 69.85155 24.11868 68.7463 23.99365 67.64105 23.86864 65.93187 23.63202 64.91858 23.46625 63.90529 23.30049 62.3532 23.00166 61.44316 22.79886 60.53313 22.59604 59.15633 22.24019 58.35968 22.00449 57.56302 21.7688 56.37599 21.36412 55.70131 21.10014 55.02661 20.83615 54.04213 20.3894 53.49684 20.10188 52.95157 19.81438 52.18086 19.33376 51.77127 19.02785 51.36168 18.72194 50.8143 18.21608 50.54477 17.8971 50.27524 17.57811 49.95537 17.05536 49.82861 16.72879 49.70186 16.40222 49.61348 15.87206 49.63116 15.54337 49.64886 15.21466 49.79425 14.68501 49.95622 14.35977 50.11818 14.03452 50.49422 13.51535 50.7985 13.19911 51.10278 12.88286 51.70586 12.38222 52.1493 12.08038 52.59274 11.77855 53.41707 11.30579 53.9946 11.0236 54.57211 10.74142 55.60657 10.30406 56.31172 10.0466 57.01688 9.78914 58.25157 9.3959 59.07689 9.16794 59.9022 8.93997 61.32378 8.59764 62.26012 8.40347 63.19647 8.20932 64.78856 7.9246 65.82547 7.76848 66.86238 7.61235 68.60736 7.39267 69.73355 7.27818 70.85974 7.1637 72.73946 7.013 73.94232 6.9433 75.1452 6.8736 77.13675 6.79779 78.40303 6.77574 79.66931 6.7537 81.753 6.75673 83.06883 6.7844 84.38466 6.81206 86.5357 6.89627 87.88661 6.97525 89.23752 7.05424 91.4341 7.22235 92.80525 7.35371 94.17642 7.48509 96.39293 7.73792 97.76907 7.92221 99.14522 8.1065 101.35751 8.44481 102.72357 8.68199 104.08965 8.91917 106.27399 9.34242 107.61475 9.63167 108.95552 9.9209 111.08624 10.42656 112.38696 10.76666 113.68767 11.10675 115.74301 11.69374 116.9894 12.08286 118.2358 12.47198 120.1918 13.13545 121.37013 13.57123 122.54845 14.00699 124.38467 14.74393 125.48192 15.22362 126.57918 15.70332 128.27413 16.50847 129.27838 17.02861 130.28264 17.54875 131.8199 18.41571 132.71996 18.97244 133.62 19.52917 134.97959 20.45192 135.76534 21.04115 136.55109 21.6304 137.72002 22.60219 138.38309 23.21935 139.04615 23.8365 140.01129 24.84908 140.54433 25.48924 141.07735 26.12941 141.82788 27.17525 142.22483 27.83334 142.62177 28.49144 143.14876 29.56172 143.40526 30.23238 143.66176 30.90303 143.96022 31.9892 144.07355 32.66696 144.18688 33.34473 144.25327 34.4379 144.22212 35.11728 144.19097 35.79665 144.02413 36.88808 143.84896 37.56349 143.67378 38.23889 143.27669 39.31924 142.9595 39.98517 142.64232 40.6511 142.01894 41.71198 141.56287 42.363 141.1068 43.01405 140.26207 44.04663 139.67243 44.67743 139.08278 45.30824 138.02968 46.30386 137.3131 46.90953 136.5965 47.51518 135.3436 48.46687 134.50774 49.04268 133.67188 49.61848 132.23465 50.51799 131.28867 51.05954 130.3427 51.6011 128.73546 52.44266 127.68979 52.94585 126.64412 53.44905 124.88596 54.22513 123.7522 54.68633 122.61844 55.14752 120.72769 55.85379 119.51836 56.26988 118.30902 56.68597 116.30757 57.317 115.03616 57.68532 113.76474 58.05362 111.6744 58.60608 110.35477 58.92453 109.03514 59.24298 106.8786 59.71362 105.52518 59.98058 104.17177 60.24751 101.97253 60.6341 100.60028 60.84857 99.22803 61.06303 97.0107 61.3648 95.63492 61.52637 94.25914 61.68793 92.04878 61.90425 90.68456 62.01305 89.32033 62.12183 87.14026 62.2537 85.80249 62.3105 84.46474 62.36731 82.33925 62.41647 81.04282 62.42253 79.7464 62.4286 77.69923 62.39699 76.45871 62.35422 75.21819 62.31146 73.27316 62.20348 72.10194 62.1143 70.93073 62.02513 69.10648 61.84416 68.0173 61.71144 66.92815 61.5787 65.24715 61.3305 64.25198 61.15761 63.25684 60.98473 61.7349 60.67448 60.84488 60.46527 59.95486 60.25606 58.61221 59.89099 57.83733 59.64977 57.06245 59.40852 55.91139 58.99522 55.26006 58.72653 54.6087 58.45782 53.66351 58.00436 53.14284 57.7131 52.62218 57.42184 51.89151 56.936 51.50737 56.62733 51.12323 56.31865 50.61775 55.8091 50.3742 55.48828 50.13068 55.16745 49.85237 54.6425 49.75214 54.31506 49.65189 53.98763 49.60736 53.45683 49.65172 53.12834 49.69608 52.79984 49.88362 52.27144 50.07193 51.94745 50.26024 51.62346 50.67882 51.10727 51.00893 50.79323 51.33904 50.47919 51.9827 49.98265 52.45123 49.68404 52.91975 49.38542 53.78423 48.91887 54.38582 48.64095 54.9874 48.36302 56.05913 47.93329 56.78706 47.6809 57.51498 47.4285 58.78593 47.04393 59.63231 46.8218 60.47868 46.59967 61.93149 46.26733 62.88712 46.07988 63.84274 45.89243 65.46544 45.61943 66.51985 45.47072 67.57426 45.32202 69.3454 45.11446 70.48657 45.00803 71.62773 44.90161 73.52898 44.76463 74.74461 44.70357 75.96024 44.6425 77.97137 44.58089 79.24799 44.56783 80.52458 44.55478 82.62207 44.5724 83.94548 44.6094 85.26889 44.64641 87.43044 44.74596 88.78627 44.83455 90.1421 44.92314 92.34421 45.10695 93.7174 45.24806 95.0906 45.38916 97.30797 45.65756 98.6833 45.8516 100.05864 46.04561 102.26749 46.39972 103.62993 46.64653 104.99239 46.89336 107.16843 47.33185 108.50296 47.63057 109.8375 47.92929 111.95665 48.4503 113.24843 48.79953 114.54019 49.14874 117.81322 50.14757 117.81322 50.14757"/>
<path transform="matrix(1,0,0,-1,-34.102998,81.839)" d="M122.69705-24.51926C122.69705-23.35204 121.75082-22.40582 120.5836-22.40582 119.41638-22.40582 118.47017-23.35204 118.47017-24.51926 118.47017-25.6865 119.41638-26.6327 120.5836-26.6327 121.75082-26.6327 122.69705-25.6865 122.69705-24.51926ZM120.5836-24.51926" fill="#0000ff"/>
<use data-text="t" xlink:href="#font_2_1" transform="matrix(9.9626,0,0,-9.9626,90,109.56799)"/>
<use data-text="=" xlink:href="#font_3_4" transform="matrix(9.9626,0,0,-9.9626,96.365,109.56799)"/>
<use data-text="0" xlink:href="#font_3_3" transform="matrix(9.9626,0,0,-9.9626,106.865589,109.56799)"/>
<path transform="matrix(1,0,0,-1,-34.102998,81.839)" d="M119.92747 50.14784C119.92747 51.31506 118.98126 52.26128 117.81403 52.26128 116.6468 52.26128 115.70059 51.31506 115.70059 50.14784 115.70059 48.98062 116.6468 48.0344 117.81403 48.0344 118.98126 48.0344 119.92747 48.98062 119.92747 50.14784ZM117.81403 50.14784" fill="#0000ff"/>
<use data-text="r" xlink:href="#font_4_1" transform="matrix(9.9626,0,0,-9.9626,87.231,25.680996)"/>
<use data-text="(" xlink:href="#font_3_1" transform="matrix(9.9626,0,0,-9.9626,91.949008,25.680996)"/>
<use data-text="t" xlink:href="#font_2_1" transform="matrix(9.9626,0,0,-9.9626,95.823009,25.680996)"/>
<use data-text=")" xlink:href="#font_3_2" transform="matrix(9.9626,0,0,-9.9626,99.421009,25.680996)"/>
</g>
<use data-text="x" xlink:href="#font_2_2" transform="matrix(9.9626,0,0,-9.9626,150.554,149.332)"/>
<use data-text="y" xlink:href="#font_2_3" transform="matrix(9.9626,0,0,-9.9626,661.06399,-26.598)"/>
<use data-text="z" xlink:href="#font_2_4" transform="matrix(9.9626,0,0,-9.9626,661.06399,-26.598)"/>
</svg>
