<svg xmlns="http://www.w3.org/2000/svg" xmlns:xlink="http://www.w3.org/1999/xlink" xmlns:inkscape="http://www.inkscape.org/namespaces/inkscape" version="1.1" width="232" height="174" viewBox="0 0 232 174">
<defs>
<path id="font_1_2" d="M.33399964 .30233766C.33999635 .32835389 .36299134 .42037965 .43299867 .42037965 .43798829 .42037965 .46199037 .42037965 .48298646 .40734864 .45498658 .402359 .43499757 .37734986 .43499757 .35334779 .43499757 .33735658 .44599916 .31835938 .47299195 .31835938 .49499513 .31835938 .5269928 .3363495 .5269928 .37635804 .5269928 .42837525 .46798707 .4423828 .43399049 .4423828 .37599183 .4423828 .34098817 .38935853 .32899476 .36634828 .3039856 .43237306 .25 .4423828 .22099304 .4423828 .116989139 .4423828 .05999756 .3133545 .05999756 .28834535 .05999756 .27833558 .069992069 .27833558 .07199097 .27833558 .07998657 .27833558 .08299255 .28033448 .084991458 .28933717 .11898804 .39535523 .18499756 .42037965 .21899414 .42037965 .23799134 .42037965 .272995 .4113617 .272995 .35334779 .272995 .32235719 .2559967 .25532533 .21899414 .11528015 .20298767 .053268434 .16799927 .011245728 .12399292 .011245728 .117996219 .011245728 .09498596 .011245728 .07398987 .024276734 .09899902 .029266358 .12098694 .05027771 .12098694 .07827759 .12098694 .105270389 .09899902 .11328125 .083999637 .11328125 .053985597 .11328125 .0289917 .08728027 .0289917 .055267335 .0289917 .009246826 .07899475-.0107421879 .12298584-.0107421879 .18899536-.0107421879 .22499085 .059280397 .22799683 .0652771 .23999024 .028274537 .27598573-.0107421879 .33599855-.0107421879 .43899537-.0107421879 .49598695 .118270877 .49598695 .14328003 .49598695 .1532898 .4869995 .1532898 .48399354 .1532898 .47499085 .1532898 .47299195 .14929199 .47099305 .14228821 .43798829 .03527832 .36999513 .011245728 .33799745 .011245728 .29899598 .011245728 .2829895 .043273927 .2829895 .07727051 .2829895 .09927368 .2889862 .121276859 .2999878 .16529846L.33399964 .30233766Z"/>
<path id="font_1_3" d="M.48599244 .38136292C.48999024 .39537049 .48999024 .39736939 .48999024 .40437318 .48999024 .42237855 .47599793 .43138124 .46099855 .43138124 .45098878 .43138124 .43499757 .42536927 .42599488 .41036988 .42399598 .405365 .41600038 .37435914 .4119873 .35635377 .40499879 .33035279 .397995 .30334474 .3919983 .27633668L.34700013 .09628296C.34298707 .08126831 .2999878 .011245728 .23399353 .011245728 .18299866 .011245728 .17199707 .055267335 .17199707 .0922699 .17199707 .1382904 .18899536 .20030213 .22299195 .28833009 .23899842 .3293457 .24299622 .3403473 .24299622 .36035157 .24299622 .405365 .21099854 .4423828 .16099549 .4423828 .06599426 .4423828 .0289917 .29733277 .0289917 .28833009 .0289917 .27833558 .038986207 .27833558 .040985109 .27833558 .050994874 .27833558 .051986696 .28033448 .056991579 .29634095 .083999637 .3903656 .12399292 .42037965 .1579895 .42037965 .1659851 .42037965 .18299866 .42037965 .18299866 .3883667 .18299866 .36335755 .17298889 .3373413 .1659851 .31834413 .12599182 .21231079 .10798645 .1552887 .10798645 .10827637 .10798645 .019256592 .17098999-.0107421879 .22999573-.0107421879 .2689972-.0107421879 .30299378 .0062561037 .33099366 .03425598 .31799317-.017745972 .30599977-.06674194 .2659912-.11973572 .23999024-.15385437 .20199585-.18309021 .1559906-.18309021 .14199829-.18309021 .09700012-.18005371 .07998657-.14074707 .09599304-.14074707 .10899353-.14074707 .12298584-.1287384 .1329956-.11973572 .14299011-.10673523 .14299011-.08773804 .14299011-.056747438 .115997318-.052734376 .10598755-.052734376 .08299255-.052734376 .049987794-.068740848 .049987794-.11773682 .049987794-.16796875 .09399414-.20507813 .1559906-.20507813 .25898744-.20507813 .3619995-.11373901 .3899994-.00074768069L.48599244 .38136292Z"/>
<path id="font_2_1" d="M.46598817 .49519349C.46598817 .5981293 .43199159 .7050781 .33999635 .7050781 .19400025 .7050781 .040985109 .4202423 .040985109 .19825745 .040985109 .12625122 .06298828-.0107421879 .16699219-.0107421879 .31298829-.0107421879 .46598817 .27127076 .46598817 .49519349M.1499939 .36328126C.16999817 .44223023 .19099427 .5151825 .23199463 .58413699 .2559967 .62409976 .29299928 .68006899 .33898927 .68006899 .3929901 .68006899 .39698792 .59413149 .39698792 .55615237 .39698792 .4961853 .3809967 .426239 .3659973 .36328126H.1499939M.35699464 .3312683C.34098817 .26826478 .32199098 .19326782 .28199769 .12225342 .2559967 .07525635 .21598816 .014251709 .16799927 .014251709 .125 .014251709 .11099243 .06625366 .11099243 .13926697 .11099243 .20326233 .1269989 .26826478 .14199829 .3312683H.35699464Z"/>
<path id="font_3_4" d="M.70799258 .3310089C.7220001 .3310089 .7409973 .3310089 .7409973 .35202027 .7409973 .37402345 .71899417 .37402345 .70399478 .37402345H.09399414C.07899475 .37402345 .056991579 .37402345 .056991579 .35202027 .056991579 .3310089 .07699585 .3310089 .08999634 .3310089H.70799258M.70399478 .12695313C.71899417 .12695313 .7409973 .12695313 .7409973 .14894104 .7409973 .1699524 .7220001 .1699524 .70799258 .1699524H.08999634C.07699585 .1699524 .056991579 .1699524 .056991579 .14894104 .056991579 .12695313 .07899475 .12695313 .09399414 .12695313H.70399478Z"/>
<path id="font_4_1" d="M.35899354 .6349335C.35899354 .66503909 .35499574 .66503909 .32499696 .66503909 .25898744 .60058596 .15699768 .60058596 .12098694 .60058596V.5615845C.14698792 .5615845 .21299744 .5615845 .272995 .58958438V.08496094C.272995 .051986696 .272995 .038986207 .16999817 .038986207H.1269989V0C.18199158 .0039978029 .2599945 .0039978029 .31599427 .0039978029 .37199403 .0039978029 .44999696 .0039978029 .5049896 0V.038986207H.46199037C.35899354 .038986207 .35899354 .051986696 .35899354 .08496094V.6349335Z"/>
<path id="font_4_2" d="M.5379944 .18702698H.5009918C.49899293 .17301941 .4889984 .10699463 .47399903 .09599304 .46699525 .08999634 .38598634 .08999634 .37199403 .08999634H.18499756L.31298829 .19403076C.34700013 .22103882 .43598939 .28504945 .46699525 .31506349 .49699403 .3450775 .5379944 .39608766 .5379944 .46710206 .5379944 .5920563 .4249878 .66503909 .29100038 .66503909 .1619873 .66503909 .07199097 .58006289 .07199097 .48609925 .07199097 .43510438 .114990238 .42910768 .12599182 .42910768 .15098572 .42910768 .17999268 .44709779 .17999268 .48310853 .17999268 .50509646 .16699219 .5371094 .12298584 .5371094 .1459961 .5880585 .20698548 .6260376 .27598573 .6260376 .3809967 .6260376 .43699647 .5480957 .43699647 .46710206 .43699647 .39608766 .3899994 .32305909 .31999208 .25904847L.08299255 .041992189C.07299805 .03199768 .07199097 .0309906 .07199097 0H.5069885L.5379944 .18702698Z"/>
<path id="font_5_1" d="M.6749878 .22944641C.69299319 .22944641 .71199038 .22944641 .71199038 .25144959 .71199038 .27246095 .69200137 .27246095 .6749878 .27246095H.12298584C.10598755 .27246095 .085998538 .27246095 .085998538 .25144959 .085998538 .22944641 .10499573 .22944641 .12298584 .22944641H.6749878Z"/>
<path id="font_2_2" d="M.4039917 .40527345C.37098695 .39926148 .35398866 .3712616 .35398866 .3502655 .35398866 .3312683 .36799623 .31427003 .3929901 .31427003 .41999818 .31427003 .44799806 .337265 .44799806 .37426759 .44799806 .41334535 .4119873 .4423828 .36299134 .4423828 .28799439 .4423828 .24598694 .386261 .23199463 .3672638 .21998596 .42237855 .1749878 .4423828 .13699341 .4423828 .100997928 .4423828 .07798767 .42037965 .06098938 .38526917 .041992189 .34925843 .0289917 .29226686 .0289917 .28826905 .0289917 .27926637 .035995485 .27626039 .042999269 .27626039 .053985597 .27626039 .055999757 .28126527 .06098938 .30126954 .07998657 .38026429 .100997928 .41737367 .1349945 .41737367 .16499329 .41737367 .16499329 .38526917 .16499329 .37026979 .16499329 .34925843 .15699768 .31826783 .15098572 .29226686 .14399719 .26626588 .13398743 .2232666 .12998963 .21125794L.08999634 .04725647C.08299255 .023254395 .08299255 .021255494 .08299255 .018249512 .08299255 .0052490236 .09199524-.0107421879 .11399841-.0107421879 .1459961-.0107421879 .15299988 .01625061 .1599884 .04525757 .17199707 .088256839 .17199707 .09025574 .18199158 .1312561 .21899414 .28126527 .22499085 .30526734 .22698975 .31025697 .23298645 .32226563 .2789917 .41737367 .3619995 .41737367 .3849945 .41737367 .39898683 .40930177 .4039917 .40527345Z"/>
<path id="font_3_1" d="M.3039856 .6392822C.3039856 .6642761 .30299378 .666275 .27799989 .666275 .21598816 .60227969 .12399292 .60227969 .09298706 .60227969V.57128909C.11199951 .57128909 .17298889 .57128909 .22698975 .5972748V.08001709C.22698975 .042999269 .22399903 .0309906 .1309967 .0309906H.09899902V0C.1349945 .0029907227 .22399903 .0029907227 .2649994 .0029907227 .30599977 .0029907227 .3959961 .0029907227 .43199159 0V.0309906H.3999939C.30699159 .0309906 .3039856 .042999269 .3039856 .08001709V.6392822Z"/>
<path id="font_3_2" d="M.46199037 .17704773H.43399049C.43199159 .16404724 .42399598 .10501099 .41099549 .08900452 .40499879 .07998657 .33599855 .07998657 .31599427 .07998657H.13798523L.23699951 .17404175C.40098573 .3161316 .46199037 .36915589 .46199037 .4711914 .46199037 .5860901 .36698915 .6660156 .24398804 .6660156 .1289978 .6660156 .050994874 .575119 .050994874 .4841919 .050994874 .43418885 .09399414 .42919923 .102996829 .42919923 .125 .42919923 .15499878 .44519044 .15499878 .48120118 .15499878 .51119998 .13398743 .5332031 .102996829 .5332031 .09799194 .5332031 .09498596 .5332031 .09098816 .53219607 .114990238 .6030731 .1789856 .63500979 .23298645 .63500979 .33499146 .63500979 .36999513 .5401764 .36999513 .4711914 .36999513 .36915589 .29299928 .28611756 .24499512 .23408509L.06199646 .035995485C.050994874 .024993897 .050994874 .022994996 .050994874 0H.43399049L.46199037 .17704773Z"/>
<path id="font_3_3" d="M.30499269 .35195924C.397995 .38697816 .44198609 .46006776 .44198609 .5290985 .44198609 .60606387 .35699464 .6660156 .25299073 .6660156 .14898682 .6660156 .070999149 .60705569 .070999149 .5310974 .070999149 .49809266 .09298706 .47909547 .12199402 .47909547 .15098572 .47909547 .17199707 .50009158 .17199707 .5290985 .17199707 .5640869 .147995 .57910159 .11399841 .57910159 .13999939 .6210327 .20098877 .64100649 .25 .64100649 .33299256 .64100649 .34899903 .5750885 .34899903 .52809146 .34899903 .49809266 .34298707 .45005799 .31799317 .41201783 .2869873 .36695863 .2519989 .36495973 .22299195 .36296083 .19799805 .36094667 .19599915 .36094667 .18798828 .36094667 .1789856 .35995484 .17098999 .35894776 .17098999 .34794618 .17098999 .33496095 .1789856 .33496095 .19599915 .33496095H.24299622C.32998658 .33496095 .36799623 .2646637 .36799623 .16937256 .36799623 .04145813 .2999878 .0055389406 .24899292 .0055389406 .22999573 .0055389406 .1329956 .010528564 .08799744 .0843811 .12399292 .07939148 .1519928 .10437012 .1519928 .13838196 .1519928 .17137146 .1269989 .19238281 .09799194 .19238281 .07299805 .19238281 .042999269 .17736817 .042999269 .13537598 .042999269 .046447755 .13598633-.022460938 .2519989-.022460938 .3769989-.022460938 .46998597 .06741333 .46998597 .16937256 .46998597 .25663758 .40098573 .33093263 .30499269 .35195924Z"/>
<path id="font_6_1" d="M.33099366-.2400055C.33099366-.23701477 .33099366-.23500061 .31399537-.21800232 .18899536-.0920105 .15699768 .09700012 .15699768 .25 .15699768 .42399598 .19499207 .59799197 .31799317 .72299197 .33099366 .73498538 .33099366 .7369995 .33099366 .73999026 .33099366 .746994 .32699586 .75 .32099916 .75 .31098939 .75 .22099304 .6819916 .1619873 .5549927 .11099243 .44499208 .09899902 .33399964 .09899902 .25 .09899902 .17199707 .10998535 .050994874 .16499329-.06201172 .22499085-.18501282 .31098939-.25 .32099916-.25 .32699586-.25 .33099366-.24700928 .33099366-.2400055Z"/>
<path id="font_6_3" d="M.45999146 .31976319C.45999146 .39982606 .45498658 .47988893 .41999818 .5539398 .37399293 .65000918 .2919922 .6660156 .25 .6660156 .18998719 .6660156 .116989139 .64001467 .07598877 .54693606 .04399109 .47789 .038986207 .39982606 .038986207 .31976319 .038986207 .24472046 .042999269 .15464783 .083999637 .07859802 .1269989-.0024719239 .19999695-.022460938 .24899292-.022460938 .30299378-.022460938 .3789978-.0014648438 .4229889 .09359741 .45498658 .16265869 .45999146 .2407074 .45999146 .31976319M.24899292-.00047302247C.20999146-.00047302247 .15098572 .024551392 .1329956 .12062073 .12199402 .18066406 .12199402 .2727356 .12199402 .3317871 .12199402 .39582826 .12199402 .46188355 .12998963 .5159149 .14898682 .63500979 .22399903 .64401248 .24899292 .64401248 .28199769 .64401248 .34799195 .6259918 .36698915 .52693179 .3769989 .47088624 .3769989 .39482118 .3769989 .3317871 .3769989 .25672914 .3769989 .18867493 .3659973 .12461853 .35099793 .029556275 .2939911-.00047302247 .24899292-.00047302247Z"/>
<path id="font_1_1" d="M.20298767 .0009918213C.20298767 .066986087 .17799378 .10598755 .13899231 .10598755 .10598755 .10598755 .085998538 .08099365 .085998538 .052993776 .085998538 .025985718 .10598755 0 .13899231 0 .15098572 0 .1639862 .0039978029 .17399597 .0129852299 .1769867 .01499939 .17799378 .015991211 .1789856 .015991211 .17999268 .015991211 .18099976 .01499939 .18099976 .0009918213 .18099976-.07316589 .1459961-.13328552 .11299133-.16635132 .101989749-.17736817 .101989749-.17936707 .101989749-.18237305 .101989749-.18936157 .10699463-.19335938 .11199951-.19335938 .12298584-.19335938 .20298767-.116256717 .20298767 .0009918213Z"/>
<path id="font_6_2" d="M.2889862 .25C.2889862 .32798768 .27799989 .44898988 .22299195 .56199648 .16299439 .68499758 .07699585 .75 .066986087 .75 .06098938 .75 .056991579 .74598696 .056991579 .73999026 .056991579 .7369995 .056991579 .73498538 .07598877 .71699526 .17399597 .6179962 .23098755 .45899964 .23098755 .25 .23098755 .07899475 .19400025-.09700012 .069992069-.2230072 .056991579-.23500061 .056991579-.23701477 .056991579-.2400055 .056991579-.2460022 .06098938-.25 .066986087-.25 .07699585-.25 .16699219-.18200684 .22599793-.055007936 .2769928 .054992677 .2889862 .16600037 .2889862 .25Z"/>
</defs>
<path transform="matrix(1,0,0,-1.00005,111.08501,87.021549)" d="M24.87524-13.59033 25.21565-12.948 25.53876-12.29747 25.84628-11.63828 26.1361-10.97174 26.40816-10.29828 26.66422-9.61746 26.90169-8.93103 27.12228-8.2381 27.32385-7.54 27.50983-6.83669 27.67464-6.12947 27.82385-5.41797 27.95233-4.70255 28.06435-3.98453 28.15692-3.26347 28.23131-2.54027 28.28711-1.81535 28.32472-1.08955 28.34334-.36333V.36333L28.32472 1.08955 28.28711 1.81535 28.23131 2.54027 28.15692 3.26305 28.06435 3.98453 27.95233 4.7021 27.82343 5.41797 27.67464 6.12904 27.5094 6.83624 27.32385 7.53955 27.12228 8.2381 26.90211 8.93103 26.66422 9.6179 26.4086 10.29784 26.13567 10.97174 25.84587 11.63828 25.5392 12.29704 25.21565 12.948 24.8748 13.59033 74.62576 40.77101 75.64699 38.84406 76.6163 36.89244 77.53891 34.91487 78.40831 32.91525 79.2245 30.89488 79.99269 28.85243 80.7051 26.79312 81.36687 24.71434 81.97156 22.62 82.52953 20.51007 83.02393 18.38847 83.47159 16.2539 83.857 14.10764 84.19308 11.95361 84.47076 9.79048 84.69395 7.62086 84.86134 5.44608 84.97423 3.26868 85.03004 1.08998V-1.08998L84.97423-3.26868 84.86134-5.44608 84.69395-7.62086 84.47076-9.78918 84.19308-11.95361 83.857-14.10635 83.4703-16.2539 83.02393-18.38718 82.52823-20.50877 81.97156-22.6187 81.36687-24.71434 80.70639-26.79312 79.99269-28.85373 79.2258-30.89357 78.40701-32.91525 77.53761-34.91487 76.6176-36.89114 75.64699-38.84406 74.62447-40.77101Z" fill="#e6e6ff"/>
<path transform="matrix(1,0,0,-1.00005,111.08501,87.021549)" stroke-width=".79701" stroke-linecap="butt" stroke-miterlimit="10" stroke-linejoin="miter" fill="none" stroke="#000000" d="M-96.37897 0H97.38618"/>
<path transform="matrix(1,0,0,-1.00005,208.47119,87.021549)" d="M4.66248 0C3.28098 .25902 1.0361 1.0361-.51805 1.94269V-1.94269C1.0361-1.0361 3.28098-.25902 4.66248 0"/>
<use data-text="x" xlink:href="#font_1_2" transform="matrix(9.9626,0,0,-9.963098,210.28702,95.030948)"/>
<path transform="matrix(1,0,0,-1.00005,111.08501,87.021549)" stroke-width=".79701" stroke-linecap="butt" stroke-miterlimit="10" stroke-linejoin="miter" fill="none" stroke="#000000" d="M0-51.02432V46.36185"/>
<path transform="matrix(0,-1.00005,-1,-0,111.08501,40.65738)" d="M4.66248 0C3.28098 .25902 1.0361 1.0361-.51805 1.94269V-1.94269C1.0361-1.0361 3.28098-.25902 4.66248 0"/>
<use data-text="y" xlink:href="#font_1_3" transform="matrix(9.9626,0,0,-9.963098,102.12401,37.171056)"/>
<path transform="matrix(1,0,0,-1.00005,111.08501,87.021549)" stroke-width=".79701" stroke-linecap="butt" stroke-miterlimit="10" stroke-linejoin="miter" fill="none" stroke="#0000cc" d="M28.3468 0 28.25552 2.25177 27.9878 4.48973 27.54271 6.6987 26.92332 8.86615 26.13393 10.97737 25.1789 13.01895 24.06511 14.97835 22.79863 16.84259 21.38942 18.60172 19.84267 20.24147 18.17264 21.75406 16.38582 23.12909 14.49693 24.35793 12.5159 25.43279 10.45529 26.34674 8.32895 27.09416 6.14981 27.66988 3.93262 28.07213 1.68948 28.29489-.56316 28.34032-2.81279 28.2058-5.0451 27.89307-7.245 27.4043-9.39946 26.74164-11.49467 25.91075-13.5168 24.91461-15.45415 23.76276-17.29285 22.45909-19.02301 21.01442-20.63203 19.43651-22.11089 17.73578-23.45045 15.923-24.64081 14.00945-25.67674 12.00812-26.54916 9.92934-27.25507 7.7887-27.7871 5.59875-28.14438 3.37291-28.32301 1.12675V-1.12675L-28.14438-3.37334-27.7871-5.59875-27.25464-7.7887-26.54916-9.92934-25.67717-12.00812-24.64125-14.00989-23.4509-15.923-22.11133-17.73578-20.63162-19.43651-19.02258-21.01398-17.29285-22.45909-15.45415-23.76276-13.5168-24.91504-11.49467-25.91075-9.3999-26.74164-7.24542-27.40387-5.0451-27.89307-2.81279-28.2058-.56316-28.34032 1.68948-28.29489 3.93217-28.07213 6.14981-27.66988 8.32938-27.0946 10.45529-26.34631 12.5159-25.43236 14.49693-24.3575 16.38582-23.12909 18.17221-21.75406 19.84267-20.24147 21.38899-18.60172 22.79863-16.84259 24.06511-14.97835 25.17845-13.01895 26.1335-10.97737 26.92332-8.86658 27.54271-6.6987 27.9878-4.48973 28.25552-2.25177 28.34636 0"/>
<path transform="matrix(1,0,0,-1.00005,111.08501,87.021549)" stroke-width=".79701" stroke-linecap="butt" stroke-miterlimit="10" stroke-linejoin="miter" fill="none" stroke="#0000cc" d="M56.69362 0 56.51106 4.50357 55.97559 8.97946 55.08542 13.39742 53.84665 17.73232 52.26787 21.95476 50.35779 26.03792 48.13022 29.95671 45.59727 33.68518 42.77885 37.20345 39.68535 40.48296 36.34529 43.50812 32.77165 46.2582 28.99388 48.71587 25.03183 50.86559 20.9106 52.6935 16.6579 54.18834 12.29964 55.33975 7.86525 56.14429 3.37897 56.5898-1.12631 56.68063-5.62558 56.41159-10.09023 55.78615-14.49 54.8086-18.79895 53.4833-22.98938 51.8215-27.03362 49.82922-30.9083 47.52553-34.58572 44.9182-38.04604 42.02884-41.2641 38.87303-44.2218 35.47156-46.90094 31.84602-49.28163 28.01892-51.35349 24.01624-53.09834 19.85867-54.51015 15.57741-55.5742 11.19753-56.28876 6.74583-56.64603 2.25351V-2.25351L-56.28876-6.7467-55.5742-11.19753-54.5093-15.57741-53.09834-19.85867-51.35435-24.01624-49.2825-28.01979-46.90181-31.84602-44.22267-35.47156-41.26324-38.87303-38.04517-42.02797-34.58572-44.9182-30.9083-47.52553-27.03362-49.8301-22.98938-51.8215-18.79982-53.4833-14.49088-54.80774-10.09023-55.78615-5.62558-56.41159-1.12631-56.68063 3.37897-56.5898 7.86438-56.14429 12.29964-55.33975 16.65875-54.18921 20.9106-52.69263 25.03183-50.86472 28.99388-48.71501 32.77165-46.2582 36.34442-43.50812 39.68535-40.48296 42.778-37.20345 45.59727-33.68518 48.13022-29.95671 50.35692-26.03792 52.26701-21.95476 53.84665-17.73317 55.08542-13.39742 55.97559-8.97946 56.51106-4.50357 56.69275 0"/>
<path transform="matrix(1,0,0,-1.00005,111.08501,87.021549)" stroke-width=".79701" stroke-linecap="butt" stroke-miterlimit="10" stroke-linejoin="miter" fill="none" stroke="#0000cc" d="M85.04042 0 84.76662 6.75536 83.9634 13.46922 82.62816 20.09613 80.76997 26.59848 78.40182 32.93213 75.5367 39.05687 72.19533 44.93506 68.39592 50.52779 64.16829 55.80518 59.52802 60.72443 54.51793 65.26218 49.15749 69.3873 43.49081 73.07382 37.54774 76.29839 31.36592 79.04025 24.98685 81.28252 18.44946 83.00964 11.7979 84.21643 5.06847 84.8847-1.68948 85.02095-8.43837 84.6174-15.13536 83.67921-21.73502 82.21292-28.19843 80.22496-34.48407 77.73225-40.55042 74.74385-46.36244 71.2883-51.8786 67.37729-57.06905 63.04326-61.89616 58.30957-66.33272 53.20734-70.35143 47.76904-73.92245 42.0284-77.03024 36.02435-79.64754 29.78801-81.76523 23.36612-83.3613 16.7963-84.43314 10.11877-84.96906 3.38028V-3.38028L-84.43314-10.12007-83.3613-16.7963-81.76395-23.36612-79.64754-29.78801-77.03156-36.02435-73.92377-42.02971-70.35272-47.76904-66.33401-53.20734-61.89488-58.30957-57.06775-63.04196-51.8786-67.37729-46.36244-71.2883-40.55042-74.74515-34.48407-77.73225-28.19974-80.22496-21.73631-82.21162-15.13536-83.67921-8.43837-84.6174-1.68948-85.02095 5.06847-84.8847 11.79659-84.21643 18.44946-83.00964 24.98814-81.28381 31.36592-79.03896 37.54774-76.29709 43.49081-73.07253 49.15749-69.3873 54.51665-65.26218 59.52802-60.72443 64.16699-55.80518 68.39592-50.52779 72.19533-44.93506 75.53539-39.05687 78.40051-32.93213 80.76997-26.59978 82.62816-20.09613 83.9634-13.46922 84.76662-6.75536 85.03911 0"/>
<path transform="matrix(1,0,0,-1.00005,111.08501,87.021549)" stroke-width=".79701" stroke-linecap="butt" stroke-miterlimit="10" stroke-linejoin="miter" fill="none" stroke="#cc0000" d="M0 0 82.972 45.33086"/>
<path transform="matrix(.87752,-.47945396,-.47943,-.87756386,194.057,41.68842)" d="M4.66248 0C3.28098 .25902 1.0361 1.0361-.51805 1.94269V-1.94269C1.0361-1.0361 3.28098-.25902 4.66248 0" fill="#cc0000"/>
<use data-text="&#x03b8;" xlink:href="#font_2_1" transform="matrix(8.9664,0,0,-8.966848,201.867,32.690835)" fill="#cc0000"/>
<use data-text="=" xlink:href="#font_3_4" transform="matrix(8.9664,0,0,-8.966848,208.99701,32.690835)" fill="#cc0000"/>
<use data-text="1" xlink:href="#font_4_1" transform="matrix(5.9776,0,0,-5.9778988,219.919,29.017655)" fill="#cc0000"/>
<path transform="matrix(1,0,0,-1.00005,5.7819979,-38.338716)" stroke-width=".3786" stroke-linecap="butt" stroke-miterlimit="10" stroke-linejoin="miter" fill="none" stroke="#cc0000" d="M214.137-68.785H217.79"/>
<use data-text="2" xlink:href="#font_4_2" transform="matrix(5.9776,0,0,-5.9778988,219.91899,35.733987)" fill="#cc0000"/>
<path transform="matrix(1,0,0,-1.00005,111.08501,87.021549)" stroke-width=".79701" stroke-linecap="butt" stroke-miterlimit="10" stroke-linejoin="miter" fill="none" stroke="#cc0000" d="M0 0 82.972-45.33086"/>
<path transform="matrix(.87752,.47945396,.47943,-.87756386,194.057,132.35468)" d="M4.66248 0C3.28098 .25902 1.0361 1.0361-.51805 1.94269V-1.94269C1.0361-1.0361 3.28098-.25902 4.66248 0" fill="#cc0000"/>
<use data-text="&#x03b8;" xlink:href="#font_2_1" transform="matrix(8.9664,0,0,-8.966848,201.867,145.83548)" fill="#cc0000"/>
<use data-text="=" xlink:href="#font_3_4" transform="matrix(8.9664,0,0,-8.966848,208.99701,145.83548)" fill="#cc0000"/>
<use data-text="&#x2212;" xlink:href="#font_5_1" transform="matrix(8.9664,0,0,-8.966848,218.72402,145.83548)" fill="#cc0000"/>
<use data-text="1" xlink:href="#font_4_1" transform="matrix(5.9776,0,0,-5.9778988,227.08702,142.16231)" fill="#cc0000"/>
<path transform="matrix(1,0,0,-1.00005,5.7819979,74.80594)" stroke-width=".3786" stroke-linecap="butt" stroke-miterlimit="10" stroke-linejoin="miter" fill="none" stroke="#cc0000" d="M221.305-68.785H224.958"/>
<use data-text="2" xlink:href="#font_4_2" transform="matrix(5.9776,0,0,-5.9778988,227.08699,148.87863)" fill="#cc0000"/>
<use data-text="r" xlink:href="#font_2_2" transform="matrix(8.9664,0,0,-8.966848,57.90901,96.32001)" fill="#000099"/>
<use data-text="=" xlink:href="#font_3_4" transform="matrix(8.9664,0,0,-8.966848,64.88301,96.32001)" fill="#000099"/>
<use data-text="1" xlink:href="#font_3_1" transform="matrix(8.9664,0,0,-8.966848,74.602588,96.32001)" fill="#000099"/>
<use data-text="r" xlink:href="#font_2_2" transform="matrix(8.9664,0,0,-8.966848,29.561997,96.32001)" fill="#000099"/>
<use data-text="=" xlink:href="#font_3_4" transform="matrix(8.9664,0,0,-8.966848,36.535997,96.32001)" fill="#000099"/>
<use data-text="2" xlink:href="#font_3_2" transform="matrix(8.9664,0,0,-8.966848,46.25557,96.32001)" fill="#000099"/>
<use data-text="r" xlink:href="#font_2_2" transform="matrix(8.9664,0,0,-8.966848,1.2160034,96.32001)" fill="#000099"/>
<use data-text="=" xlink:href="#font_3_4" transform="matrix(8.9664,0,0,-8.966848,8.190002,96.32001)" fill="#000099"/>
<use data-text="3" xlink:href="#font_3_3" transform="matrix(8.9664,0,0,-8.966848,17.909577,96.32001)" fill="#000099"/>
<path transform="matrix(1,0,0,-1.00005,111.08501,87.021549)" d="M1.49442 0C1.49442 .82533 .82533 1.49442 0 1.49442-.82533 1.49442-1.49442 .82533-1.49442 0-1.49442-.82533-.82533-1.49442 0-1.49442 .82533-1.49442 1.49442-.82533 1.49442 0ZM0 0"/>
<use data-text="(" xlink:href="#font_6_1" transform="matrix(9.9626,0,0,-9.963098,114.605,98.0141)"/>
<use data-text="0" xlink:href="#font_6_3" transform="matrix(9.9626,0,0,-9.963098,118.4705,98.0141)"/>
<use data-text="," xlink:href="#font_1_1" transform="matrix(9.9626,0,0,-9.963098,123.461009,98.0141)"/>
<use data-text="0" xlink:href="#font_6_3" transform="matrix(9.9626,0,0,-9.963098,127.889,98.0141)"/>
<use data-text=")" xlink:href="#font_6_2" transform="matrix(9.9626,0,0,-9.963098,132.8703,98.0141)"/>
</svg>
