<svg xmlns="http://www.w3.org/2000/svg" xmlns:xlink="http://www.w3.org/1999/xlink" xmlns:inkscape="http://www.inkscape.org/namespaces/inkscape" version="1.1" width="309" height="286" viewBox="0 0 309 286">
<defs>
<path id="font_1_3" d="M.33399964 .30233766C.33999635 .32835389 .36299134 .42037965 .43299867 .42037965 .43798829 .42037965 .46199037 .42037965 .48298646 .40734864 .45498658 .402359 .43499757 .37734986 .43499757 .35334779 .43499757 .33735658 .44599916 .31835938 .47299195 .31835938 .49499513 .31835938 .5269928 .3363495 .5269928 .37635804 .5269928 .42837525 .46798707 .4423828 .43399049 .4423828 .37599183 .4423828 .34098817 .38935853 .32899476 .36634828 .3039856 .43237306 .25 .4423828 .22099304 .4423828 .116989139 .4423828 .05999756 .3133545 .05999756 .28834535 .05999756 .27833558 .069992069 .27833558 .07199097 .27833558 .07998657 .27833558 .08299255 .28033448 .084991458 .28933717 .11898804 .39535523 .18499756 .42037965 .21899414 .42037965 .23799134 .42037965 .272995 .4113617 .272995 .35334779 .272995 .32235719 .2559967 .25532533 .21899414 .11528015 .20298767 .053268434 .16799927 .011245728 .12399292 .011245728 .117996219 .011245728 .09498596 .011245728 .07398987 .024276734 .09899902 .029266358 .12098694 .05027771 .12098694 .07827759 .12098694 .105270389 .09899902 .11328125 .083999637 .11328125 .053985597 .11328125 .0289917 .08728027 .0289917 .055267335 .0289917 .009246826 .07899475-.0107421879 .12298584-.0107421879 .18899536-.0107421879 .22499085 .059280397 .22799683 .0652771 .23999024 .028274537 .27598573-.0107421879 .33599855-.0107421879 .43899537-.0107421879 .49598695 .118270877 .49598695 .14328003 .49598695 .1532898 .4869995 .1532898 .48399354 .1532898 .47499085 .1532898 .47299195 .14929199 .47099305 .14228821 .43798829 .03527832 .36999513 .011245728 .33799745 .011245728 .29899598 .011245728 .2829895 .043273927 .2829895 .07727051 .2829895 .09927368 .2889862 .121276859 .2999878 .16529846L.33399964 .30233766Z"/>
<path id="font_1_4" d="M.48599244 .38136292C.48999024 .39537049 .48999024 .39736939 .48999024 .40437318 .48999024 .42237855 .47599793 .43138124 .46099855 .43138124 .45098878 .43138124 .43499757 .42536927 .42599488 .41036988 .42399598 .405365 .41600038 .37435914 .4119873 .35635377 .40499879 .33035279 .397995 .30334474 .3919983 .27633668L.34700013 .09628296C.34298707 .08126831 .2999878 .011245728 .23399353 .011245728 .18299866 .011245728 .17199707 .055267335 .17199707 .0922699 .17199707 .1382904 .18899536 .20030213 .22299195 .28833009 .23899842 .3293457 .24299622 .3403473 .24299622 .36035157 .24299622 .405365 .21099854 .4423828 .16099549 .4423828 .06599426 .4423828 .0289917 .29733277 .0289917 .28833009 .0289917 .27833558 .038986207 .27833558 .040985109 .27833558 .050994874 .27833558 .051986696 .28033448 .056991579 .29634095 .083999637 .3903656 .12399292 .42037965 .1579895 .42037965 .1659851 .42037965 .18299866 .42037965 .18299866 .3883667 .18299866 .36335755 .17298889 .3373413 .1659851 .31834413 .12599182 .21231079 .10798645 .1552887 .10798645 .10827637 .10798645 .019256592 .17098999-.0107421879 .22999573-.0107421879 .2689972-.0107421879 .30299378 .0062561037 .33099366 .03425598 .31799317-.017745972 .30599977-.06674194 .2659912-.11973572 .23999024-.15385437 .20199585-.18309021 .1559906-.18309021 .14199829-.18309021 .09700012-.18005371 .07998657-.14074707 .09599304-.14074707 .10899353-.14074707 .12298584-.1287384 .1329956-.11973572 .14299011-.10673523 .14299011-.08773804 .14299011-.056747438 .115997318-.052734376 .10598755-.052734376 .08299255-.052734376 .049987794-.068740848 .049987794-.11773682 .049987794-.16796875 .09399414-.20507813 .1559906-.20507813 .25898744-.20507813 .3619995-.11373901 .3899994-.00074768069L.48599244 .38136292Z"/>
<path id="font_1_2" d="M.20599365 .3996582H.2999878C.31999208 .3996582 .32998658 .3996582 .32998658 .41966249 .32998658 .43066407 .31999208 .43066407 .3019867 .43066407H.21398926C.25 .5724945 .25498963 .59246829 .25498963 .59846499 .25498963 .61546328 .24299622 .62545779 .22599793 .62545779 .22299195 .62545779 .19499207 .62446597 .18598938 .58947756L.14698792 .43066407H.052993776C.032989503 .43066407 .022994996 .43066407 .022994996 .4116516 .022994996 .3996582 .0309906 .3996582 .050994874 .3996582H.13899231C.066986087 .11608887 .06298828 .099121097 .06298828 .08114624 .06298828 .02722168 .100997928-.0107421879 .15499878-.0107421879 .25698854-.0107421879 .31399537 .13505554 .31399537 .14305115 .31399537 .1530304 .30599977 .1530304 .3019867 .1530304 .29299928 .1530304 .2919922 .15003968 .2869873 .13905335 .24398804 .035217287 .19099427 .011245728 .15699768 .011245728 .13598633 .011245728 .12599182 .024230957 .12599182 .057174684 .12599182 .08114624 .12799073 .088134769 .13198853 .10510254L.20599365 .3996582Z"/>
<path id="font_2_3" d="M.68699648 .32714845C.70199587 .32714845 .72099307 .32714845 .72099307 .34713746 .72099307 .36714173 .70199587 .36714173 .6879883 .36714173H.08898926C.07499695 .36714173 .055999757 .36714173 .055999757 .34713746 .055999757 .32714845 .07499695 .32714845 .08999634 .32714845H.68699648M.6879883 .13284302C.70199587 .13284302 .72099307 .13284302 .72099307 .15284729 .72099307 .17285156 .70199587 .17285156 .68699648 .17285156H.08999634C.07499695 .17285156 .055999757 .17285156 .055999757 .15284729 .055999757 .13284302 .07499695 .13284302 .08898926 .13284302H.6879883Z"/>
<path id="font_2_1" d="M.45999146 .31976319C.45999146 .39982606 .45498658 .47988893 .41999818 .5539398 .37399293 .65000918 .2919922 .6660156 .25 .6660156 .18998719 .6660156 .116989139 .64001467 .07598877 .54693606 .04399109 .47789 .038986207 .39982606 .038986207 .31976319 .038986207 .24472046 .042999269 .15464783 .083999637 .07859802 .1269989-.0024719239 .19999695-.022460938 .24899292-.022460938 .30299378-.022460938 .3789978-.0014648438 .4229889 .09359741 .45498658 .16265869 .45999146 .2407074 .45999146 .31976319M.24899292-.00047302247C.20999146-.00047302247 .15098572 .024551392 .1329956 .12062073 .12199402 .18066406 .12199402 .2727356 .12199402 .3317871 .12199402 .39582826 .12199402 .46188355 .12998963 .5159149 .14898682 .63500979 .22399903 .64401248 .24899292 .64401248 .28199769 .64401248 .34799195 .6259918 .36698915 .52693179 .3769989 .47088624 .3769989 .39482118 .3769989 .3317871 .3769989 .25672914 .3769989 .18867493 .3659973 .12461853 .35099793 .029556275 .2939911-.00047302247 .24899292-.00047302247Z"/>
<path id="font_2_2" d="M.2899933 .35191346C.37199403 .37893678 .42999269 .4490509 .42999269 .52809146 .42999269 .6100464 .34199525 .6660156 .24598694 .6660156 .14498902 .6660156 .068984989 .60606387 .068984989 .53009036 .068984989 .49710084 .09098816 .47808839 .11999512 .47808839 .15098572 .47808839 .17098999 .50009158 .17098999 .5290985 .17098999 .57910159 .12399292 .57910159 .10899353 .57910159 .13999939 .62802127 .20599365 .64100649 .24198914 .64100649 .2829895 .64100649 .33799745 .6190338 .33799745 .5290985 .33799745 .51708987 .33599855 .45906068 .30999757 .4149933 .27999879 .36691285 .24598694 .36390687 .22099304 .36291505 .21299744 .36190797 .18899536 .35990907 .18199158 .35990907 .17399597 .35890199 .16699219 .35791017 .16699219 .3479004 .16699219 .33691407 .17399597 .33691407 .19099427 .33691407H.23498535C.31698609 .33691407 .35398866 .2686615 .35398866 .17037964 .35398866 .034469606 .2849884 .0055389406 .24099732 .0055389406 .19799805 .0055389406 .12298584 .022491456 .08799744 .08137512 .12298584 .07637024 .1539917 .09837341 .1539917 .1363678 .1539917 .17237854 .1269989 .19238281 .09799194 .19238281 .07398987 .19238281 .041992189 .17837525 .041992189 .1343689 .041992189 .043441774 .1349945-.022460938 .24398804-.022460938 .3659973-.022460938 .45700074 .06838989 .45700074 .17037964 .45700074 .252594 .3939972 .33088685 .2899933 .35191346Z"/>
<path id="font_1_1" d="M.2649994 .37265016H.37799073C.34498597 .22489929 .33599855 .18196106 .33599855 .11508179 .33599855 .100097659 .33599855 .073150638 .34399415 .03919983 .35398866-.0047454836 .36499024-.0107421879 .37998963-.0107421879 .3999939-.0107421879 .42099 .007247925 .42099 .02722168 .42099 .033218385 .42099 .035202028 .4149933 .049179079 .38598634 .12106323 .38598634 .18595886 .38598634 .21391297 .38598634 .26683045 .3929901 .32073976 .4039917 .37265016H.5179901C.5309906 .37265016 .5669861 .37265016 .5669861 .406662 .5669861 .43066407 .54599 .43066407 .5269928 .43066407H.19198609C.16999817 .43066407 .13198853 .43066407 .08799744 .38365174 .052993776 .34469605 .026992798 .29878236 .026992798 .29379273 .026992798 .29278565 .026992798 .28379823 .038986207 .28379823 .04699707 .28379823 .04899597 .28779603 .054992677 .29577638 .10398865 .37265016 .1619873 .37265016 .18199158 .37265016H.23899842C.20698548 .25186158 .15299988 .13105774 .11099243 .04020691 .102996829 .025222779 .102996829 .023223877 .102996829 .016235352 .102996829-.002746582 .11898804-.0107421879 .13198853-.0107421879 .1619873-.0107421879 .16999817 .017242432 .18199158 .05418396 .19599915 .100097659 .19599915 .10209656 .20899964 .15202332L.2649994 .37265016Z"/>
</defs>
<path transform="matrix(1.00005,0,0,-1.00005,165.54952,142.73738)" stroke-width=".79701" stroke-linecap="butt" stroke-miterlimit="10" stroke-linejoin="miter" fill="none" stroke="#000000" d="M-141.73404 0H141.02667"/>
<path transform="matrix(1.00005,0,0,-1.00005,306.58326,142.73738)" stroke-width=".6376" stroke-linecap="round" stroke-linejoin="round" fill="none" stroke="#000000" d="M-1.55415 2.0722C-1.42464 1.29512 0 .1295 .38852 0 0-.1295-1.42464-1.29512-1.55415-2.0722"/>
<use data-text="x" xlink:href="#font_1_3" transform="matrix(9.963098,0,0,-9.963098,299.2052,149.41872)"/>
<path transform="matrix(1.00005,0,0,-1.00005,165.54952,142.73738)" stroke-width=".79701" stroke-linecap="butt" stroke-miterlimit="10" stroke-linejoin="miter" fill="none" stroke="#000000" d="M0-141.73404V141.02667"/>
<path transform="matrix(0,-1.00005,-1.00005,-0,165.54952,1.703659)" stroke-width=".6376" stroke-linecap="round" stroke-linejoin="round" fill="none" stroke="#000000" d="M-1.55415 2.0722C-1.42464 1.29512 0 .1295 .38852 0 0-.1295-1.42464-1.29512-1.55415-2.0722"/>
<use data-text="y" xlink:href="#font_1_4" transform="matrix(9.963098,0,0,-9.963098,167.94065,7.677643)"/>
<path transform="matrix(1.00005,0,0,-1.00005,165.54952,142.73738)" stroke-width="1.59404" stroke-linecap="butt" stroke-miterlimit="10" stroke-linejoin="miter" fill="none" stroke="#0000ff" d="M0 0C0 0 .48468 .01399 .66998 .03157 .8553 .04913 1.1522 .09161 1.33566 .12671 1.51912 .16182 1.81187 .23209 1.99226 .28459 2.17264 .3371 2.45981 .43558 2.63588 .50519 2.81195 .5748 3.09084 .69994 3.26132 .78635 3.43181 .87276 3.701 1.02512 3.86472 1.12804 4.02843 1.23096 4.28549 1.40926 4.44128 1.52814 4.59708 1.64702 4.84085 1.85059 4.98758 1.9849 5.13431 2.1192 5.36224 2.34703 5.49884 2.49615 5.63542 2.6453 5.8467 2.89653 5.97205 3.05975 6.0974 3.22298 6.28935 3.49605 6.4024 3.67267 6.51547 3.84929 6.68707 4.14351 6.78693 4.33272 6.8868 4.52194 7.03639 4.83546 7.12215 5.03645 7.2079 5.23744 7.33434 5.56956 7.40503 5.7813 7.47572 5.99301 7.5769 6.34096 7.63168 6.56245 7.68648 6.78397 7.76173 7.14752 7.79994 7.37779 7.83817 7.60805 7.88628 7.98422 7.90721 8.2221 7.92815 8.45999 7.9479 8.84795 7.9509 9.09238 7.95389 9.3368 7.94426 9.73401 7.92885 9.98383 7.91342 10.23366 7.87405 10.63905 7.83972 10.89302 7.8054 11.14697 7.73526 11.55754 7.68143 11.81433 7.6276 12.07112 7.52525 12.4855 7.45174 12.74385 7.37822 13.00221 7.24493 13.41763 7.15157 13.6764 7.0582 13.93518 6.89232 14.35115 6.77872 14.60896 6.66512 14.86676 6.4666 15.27917 6.33278 15.53459 6.19894 15.79 5.96826 16.19815 5.81416 16.44984 5.66005 16.70152 5.39635 17.10188 5.22202 17.34866 5.04767 17.59543 4.75189 17.98808 4.55763 18.22842 4.36339 18.46877 4.03595 18.84848 3.82188 19.08096 3.60783 19.31345 3.24834 19.68054 3.01477 19.90408 2.7812 20.12762 2.39105 20.479 2.13846 20.69217 1.88586 20.90533 1.46548 21.23907 1.19423 21.44046 .92297 21.64186 .47252 21.95538 .18338 22.14377-.10576 22.33215-.58319 22.62405-.88972 22.7982-1.19626 22.97235-1.70259 23.24034-2.02599 23.399-2.3494 23.55766-2.88148 23.79979-3.22067 23.94183-3.55986 24.08388-4.1165 24.29854-4.4707 24.4228-4.82489 24.54709-5.40515 24.73228-5.7735 24.8376-6.14186 24.94293-6.74419 25.09653-7.12561 25.18192-7.50705 25.2673-8.12933 25.38873-8.5227 25.45313-8.91609 25.5175-9.55666 25.6035-9.9609 25.64603-10.36516 25.68857-11.0225 25.74005-11.4363 25.7598-11.85007 25.77953-12.52112 25.79211-12.94325 25.78835-13.36537 25.78458-14.04956 25.76042-14.47876 25.73253-14.90797 25.70464-15.60202 25.64018-16.03676 25.5872-16.47148 25.53423-17.17302 25.42928-17.61206 25.3506-18.05112 25.27193-18.75928 25.12479-19.20122 25.02014-19.64316 24.91548-20.35408 24.72731-20.79727 24.59627-21.24046 24.46521-21.9526 24.23349-22.39551 24.07549-22.8384 23.91748-23.5485 23.6424-23.98941 23.4574-24.43033 23.27238-25.13564 22.95412-25.57336 22.74197-26.0111 22.52983-26.7116 22.1681-27.14435 21.92836-27.5771 21.68861-28.26642 21.28114-28.69238 21.01398-29.11836 20.7468-29.79662 20.29672-30.2145 20.00272-30.63235 19.70871-31.29608 19.21603-31.70416 18.89497-32.11224 18.57391-32.75941 18.03658-33.15575 17.68861-33.55208 17.34067-34.17746 16.76135-34.56064 16.38712-34.94382 16.01288-35.54872 15.39136-35.91751 14.99132-36.2863 14.59128-36.86636 13.92924-37.21858 13.50381-37.5708 13.07838-38.12192 12.37523-38.45607 11.92506-38.79022 11.4749-39.31213 10.73315-39.62695 10.25935-39.94177 9.78555-40.43121 9.0069-40.72516 8.51016-41.0191 8.01344-41.47415 7.19818-41.74553 6.67924-42.01689 6.16031-42.43379 5.30989-42.68109 4.77-42.9284 4.23012-43.30554 3.34787-43.52802 2.78813-43.75047 2.2284-44.08878 1.31415-44.28453 .73573-44.48029 .15733-44.77151-.78484-44.93895-1.38065-45.10638-1.97646-45.35255-2.94652-45.4913-3.55847-45.63005-4.17043-45.83023-5.16464-45.93896-5.79123-46.04771-6.41783-46.19795-7.43486-46.27505-8.0746-46.35216-8.71434-46.45013-9.75082-46.49478-10.4021-46.53943-11.05336-46.58493-12.10733-46.59686-12.7685-46.6088-13.42966-46.603-14.49803-46.58086-15.16736-46.55873-15.83669-46.4948-16.91692-46.43726-17.5926-46.37973-18.26828-46.25865-19.35689-46.16606-20.03731-46.07347-20.71773-45.89815-21.81322-45.76985-22.49672-45.64154-23.1802-45.40651-24.27933-45.24129-24.96349-45.07608-25.64763-44.78102-26.74481-44.57909-27.42764-44.37714-28.11047-44.02435-29.20482-43.78581-29.88489-43.54726-30.56497-43.13585-31.6542-42.85974-32.32918-42.58362-33.00414-42.10925-34.08188-41.7957-34.74965-41.48215-35.4174-40.9502-36.48326-40.59973-37.14203-40.24927-37.8008-39.6573-38.84996-39.26968-39.49762-38.88206-40.14528-38.2305-41.17558-37.80597-41.80998-37.38144-42.44437-36.67062-43.45071-36.2099-44.06998-35.74918-44.68925-34.98186-45.67097-34.48538-46.27333-33.98889-46.87567-33.1634-47.8287-32.63152-48.41136-32.09961-48.99402-31.21825-49.91154-30.6518-50.47284-30.08533-51.03415-29.14886-51.91833-28.5488-52.4569-27.94873-52.99545-26.9595-53.84114-26.32684-54.35443-25.69418-54.86774-24.6535-55.67041-23.98897-56.15639-23.32445-56.64236-22.23244-57.39995-21.53735-57.85713-20.84227-58.31432-19.70349-59.02466-18.97931-59.45146-18.25514-59.87828-17.07007-60.53935-16.31792-60.93333-15.56577-61.32733-14.33693-61.9316-13.55832-62.29108-12.77971-62.65056-11.50969-63.20006-10.70616-63.52425-9.90265-63.84842-8.59369-64.34085-7.76706-64.62764-6.94044-64.91444-5.59637-65.34373-4.7484-65.59134-3.9004-65.83896-2.5225-66.20471-1.6553-66.4123-.7881-66.61989 .61661-66.92096 1.50175-67.0875 2.38689-67.25403 3.82306-67.48904 4.72415-67.6126 5.62526-67.73616 7.08188-67.89857 7.9963-67.97809 8.91074-68.05759 10.38873-68.1506 11.31474-68.1857 12.24077-68.2208 13.73514-68.24197 14.67038-68.23112 15.6056-68.22028 17.11325-68.16495 18.05542-68.1074 18.99757-68.04987 20.5139-67.92075 21.46078-67.81631 22.40768-67.7119 23.93079-67.50687 24.88-67.35481 25.82924-67.20274 27.35342-66.92096 28.30225-66.72028 29.25107-66.51959 30.77226-66.1578 31.71843-65.9084 32.66461-65.659 34.18033-65.22023 35.12164-64.92264 36.06294-64.62505 37.56903-64.10965 38.50279-63.76344 39.43654-63.41724 40.92795-62.82263 41.8515-62.42732 42.77504-62.03201 44.24823-61.35828 45.1591-60.9143 46.06999-60.47034 47.52086-59.71928 48.41656-59.22742 49.31226-58.73555 50.73692-57.90863 51.61473-57.36923 52.49254-56.82983 53.88606-55.92656 54.74329-55.33975 55.60051-54.75294 56.9582-53.77301 57.7931-53.13988 58.62802-52.50674 59.95076-51.45506 60.76076-50.77649 61.57077-50.09792 62.84935-48.97264 63.63107-48.24918 64.41281-47.52571 65.6434-46.32903 66.395-45.56224 67.1466-44.79546 68.32857-43.53125 69.04819-42.72263 69.7678-41.914 70.89723-40.58426 71.58156-39.73422 72.2659-38.88419 73.3333-37.48567 73.98042-36.59616 74.62753-35.70665 75.6372-34.24986 76.24562-33.32314 76.85403-32.39641 77.79855-30.87976 78.3655-29.9169 78.93243-28.95406 79.80885-27.38074 80.3318-26.3835 80.85475-25.38626 81.6571-23.75879 82.13463-22.72943 82.61215-21.70007 83.34244-20.02379 83.7735-18.96461 84.20457-17.90543 84.85986-16.18263 85.24155-15.09555 85.62321-14.00848 86.19438-12.24232 86.52446-11.12962 86.85452-10.0169 87.34204-8.2118 87.6205-7.07588 87.89896-5.93994 88.30656-4.09889 88.53143-2.94255 88.7563-1.78621 89.07231 .08391 89.24123 1.25824 89.41016 2.43259 89.6361 4.33145 89.74902 5.52133 89.86195 6.71123 89.99904 8.63115 90.05527 9.83417 90.1115 11.03719 90.157 12.9788 90.15431 14.19199 90.15161 15.40517 90.09789 17.35808 90.0358 18.57793 89.9737 19.79776 89.82805 21.75923 89.70663 22.98376 89.58524 24.20828 89.34277 26.17746 89.16077 27.40343 88.97876 28.6294 88.63805 30.59586 88.39476 31.81964 88.15146 33.04344 87.71123 35.00444 87.40726 36.22374 87.1033 37.44302 86.56845 39.39603 86.20393 40.60751 85.83942 41.81902 85.20647 43.7547 84.78003 44.95538 84.35358 46.15607 83.61781 48.07458 83.13033 49.2613 82.64284 50.44801 81.81346 52.33873 81.26651 53.50839 80.71956 54.67804 79.7954 56.54192 79.18817 57.69147 78.58096 58.84103 77.55708 60.66757 76.89009 61.79366 76.22311 62.91975 75.10583 64.70738 74.38095 65.8076 73.65605 66.90784 72.44751 68.65208 71.66548 69.72337 70.88344 70.79468 69.58334 72.49025 68.74454 73.52884 67.90575 74.56744 66.51378 76.20558 65.61989 77.20888 64.726 78.21217 63.24884 79.79404 62.3019 80.76001 61.35495 81.726 59.79391 83.24615 58.79488 84.171 57.79584 85.09587 56.15071 86.54517 55.10144 87.42586 54.05215 88.30655 52.32948 89.68365 51.23238 90.5185 50.13527 91.35335 48.33757 92.65654 47.1942 93.44289 46.05083 94.22925 44.1792 95.45168 42.99165 96.18605 41.80411 96.92044 39.86415 98.05557 38.63513 98.73587 37.40611 99.41617 35.40181 100.46469 34.13373 101.08931 32.86563 101.71393 30.80049 102.6715 29.49562 103.23772 28.19073 103.80396 26.06783 104.66446 24.72905 105.1703 23.39027 105.67615 21.21635 106.43991 19.84656 106.88358 18.47675 107.32726 16.25446 107.98854 14.85637 108.36806 13.45828 108.74757 11.19337 109.30556 9.77016 109.61896 8.34692 109.93234 6.04367 110.38066 4.59872 110.62677 3.15378 110.87286 .81967 111.2148-.64404 111.39279-2.10776 111.57079-4.47131 111.80202-5.95084 111.90967-7.43036 112.01733-9.81581 112.13264-11.30739 112.16876-12.79897 112.20488-15.20045 112.20552-16.70114 112.17006-18.20184 112.13458-20.61739 112.02074-22.12343 111.91315-23.62947 111.80554-26.04796 111.57617-27.55568 111.39453-29.0634 111.21288-31.48418 110.85938-32.9901 110.60384-34.49602 110.34831-36.90872 109.88116-38.40936 109.55278-39.90999 109.22438-42.3142 108.6398-43.80571 108.237-45.29723 107.8342-47.68103 107.1268-49.15923 106.64958-50.63742 106.17236-52.99725 105.34782-54.45955 104.79744-55.92184 104.24707-58.25584 103.30583-59.69846 102.68277-61.14105 102.05972-63.43854 101.0024-64.85689 100.30684-66.27525 99.6113-68.53049 98.437-69.92105 97.66966-71.31161 96.90233-73.51874 95.61348-74.87924 94.77641-76.23973 93.93935-78.40086 92.54318-79.72668 91.63663-81.05252 90.73007-83.14789 89.21765-84.43486 88.2425-85.72185 87.26733-87.75616 85.64888-89.00247 84.6083-90.24878 83.56773-92.2161 81.84793-93.41737 80.74272-94.61867 79.6375-96.50784 77.81104-97.66057 76.64268-98.81331 75.47433-100.62419 73.55013-101.72557 72.32207-102.82693 71.09401-104.55116 69.07776-105.59851 67.79167-106.64587 66.50557-108.28484 64.39552-109.27422 63.05278-110.2636 61.71004-111.8011 59.50974-112.72934 58.11406-113.65756 56.71837-115.09889 54.4394-115.96428 52.99368-116.82968 51.54796-118.16733 49.1873-118.96652 47.69423-119.76572 46.20114-120.9944 43.77011-121.7244 42.23256-122.45439 40.69502-123.5688 38.1921-124.22794 36.6126-124.88705 35.03308-125.88852 32.46571-126.47496 30.84859-127.06142 29.23146-127.94434 26.60889-128.45468 24.95743-128.96503 23.30598-129.72081 20.62874-130.15326 18.94601-130.58573 17.2633-131.21765 14.53946-131.57155 12.82948-131.92545 11.11952-132.43071 8.35515-132.70395 6.62172-132.97719 4.88828-133.54091 .33606-133.54091 .33606"/>
<path transform="matrix(1.00005,0,0,-1.00005,165.54952,142.73738)" stroke-width="1.59404" stroke-linecap="butt" stroke-miterlimit="10" stroke-linejoin="miter" fill="none" stroke="#ff0000" d="M-26.92937 26.92937-30.32925 30.32925"/>
<path transform="matrix(-.7071353,-.7071353,-.7071353,.7071353,135.21877,112.406627)" stroke-width="1.27522" stroke-linecap="round" stroke-linejoin="round" fill="none" stroke="#ff0000" d="M-2.27148 3.02866C-2.0822 1.8929 0 .18927 .56786 0 0-.18927-2.0822-1.8929-2.27148-3.02866"/>
<path transform="matrix(1.00005,0,0,-1.00005,165.54952,142.73738)" d="M1.49442 0C1.49442 .82533 .82533 1.49442 0 1.49442-.82533 1.49442-1.49442 .82533-1.49442 0-1.49442-.82533-.82533-1.49442 0-1.49442 .82533-1.49442 1.49442-.82533 1.49442 0ZM0 0"/>
<path transform="matrix(1.00005,0,0,-1.00005,165.54952,142.73738)" stroke-width=".3985" stroke-linecap="butt" stroke-miterlimit="10" stroke-linejoin="miter" fill="none" stroke="#000000" d="M1.49442 0C1.49442 .82533 .82533 1.49442 0 1.49442-.82533 1.49442-1.49442 .82533-1.49442 0-1.49442-.82533-.82533-1.49442 0-1.49442 .82533-1.49442 1.49442-.82533 1.49442 0ZM0 0"/>
<use data-text="t" xlink:href="#font_1_2" transform="matrix(9.963098,0,0,-9.963098,168.73767,152.34586)"/>
<use data-text="=" xlink:href="#font_2_3" transform="matrix(9.963098,0,0,-9.963098,175.10298,152.34586)"/>
<use data-text="0" xlink:href="#font_2_1" transform="matrix(9.963098,0,0,-9.963098,185.60411,152.34586)"/>
<path transform="matrix(1.00005,0,0,-1.00005,165.54952,142.73738)" d="M-132.0759 0C-132.0759 .82533-132.74497 1.49442-133.57032 1.49442-134.39565 1.49442-135.06473 .82533-135.06473 0-135.06473-.82533-134.39565-1.49442-133.57032-1.49442-132.74497-1.49442-132.0759-.82533-132.0759 0ZM-133.57032 0"/>
<path transform="matrix(1.00005,0,0,-1.00005,165.54952,142.73738)" stroke-width=".3985" stroke-linecap="butt" stroke-miterlimit="10" stroke-linejoin="miter" fill="none" stroke="#000000" d="M-132.0759 0C-132.0759 .82533-132.74497 1.49442-133.57032 1.49442-134.39565 1.49442-135.06473 .82533-135.06473 0-135.06473-.82533-134.39565-1.49442-133.57032-1.49442-132.74497-1.49442-132.0759-.82533-132.0759 0ZM-133.57032 0"/>
<use data-text="t" xlink:href="#font_1_2" transform="matrix(9.963098,0,0,-9.963098,.8832855,139.54923)"/>
<use data-text="=" xlink:href="#font_2_3" transform="matrix(9.963098,0,0,-9.963098,7.248596,139.54923)"/>
<use data-text="3" xlink:href="#font_2_2" transform="matrix(9.963098,0,0,-9.963098,17.749726,139.54923)"/>
<use data-text="&#x03c0;" xlink:href="#font_1_1" transform="matrix(9.963098,0,0,-9.963098,22.746399,139.54923)"/>
</svg>
