<svg xmlns="http://www.w3.org/2000/svg" xmlns:xlink="http://www.w3.org/1999/xlink" xmlns:inkscape="http://www.inkscape.org/namespaces/inkscape" version="1.1" width="154" height="145" viewBox="0 0 154 145">
<defs>
<clipPath id="clip_1">
<path transform="matrix(1.00006,0,0,-1,24.853226,81.78)" d="M-70.9537-45.01305V45.1681L0 90.18117 124.01166 63.9608V-26.22037L53.05794-71.23343Z"/>
</clipPath>
<path id="font_2_1" d="M.20298767 .3371582V.4501953L.036987306 .44218446V.39518739C.09899902 .39518739 .10598755 .39518739 .10598755 .35617066V.04699707H.036987306V0C.07199097 .0009918213 .116989139 .0029907227 .16299439 .0029907227 .20098877 .0029907227 .2649994 .0029907227 .30099488 0V.04699707H.21398926V.22209168C.21398926 .2921753 .23899842 .41418458 .33898927 .41418458 .33799745 .41319276 .31999208 .39718629 .31999208 .36819459 .31999208 .3271942 .35198976 .30718995 .3809967 .30718995 .4099884 .30718995 .44198609 .32818605 .44198609 .36819459 .44198609 .42118836 .3880005 .4501953 .33599855 .4501953 .2659912 .4501953 .22599793 .40019227 .20298767 .3371582Z"/>
<path id="font_3_1" d="M.33099366-.2400055C.33099366-.23701477 .33099366-.23500061 .31399537-.21800232 .18899536-.0920105 .15699768 .09700012 .15699768 .25 .15699768 .42399598 .19499207 .59799197 .31799317 .72299197 .33099366 .73498538 .33099366 .7369995 .33099366 .73999026 .33099366 .746994 .32699586 .75 .32099916 .75 .31098939 .75 .22099304 .6819916 .1619873 .5549927 .11099243 .44499208 .09899902 .33399964 .09899902 .25 .09899902 .17199707 .10998535 .050994874 .16499329-.06201172 .22499085-.18501282 .31098939-.25 .32099916-.25 .32699586-.25 .33099366-.24700928 .33099366-.2400055Z"/>
<path id="font_3_3" d="M.2939911 .64004519C.2939911 .66400149 .2939911 .6660156 .2709961 .6660156 .20899964 .60227969 .12098694 .60227969 .08898926 .60227969V.57128909C.10899353 .57128909 .16799927 .57128909 .21998596 .5972748V.07902527C.21998596 .042999269 .21699524 .0309906 .1269989 .0309906H.09498596V0C.12998963 .0029907227 .21699524 .0029907227 .25698854 .0029907227 .29699708 .0029907227 .38398744 .0029907227 .4189911 0V.0309906H.3869934C.29699708 .0309906 .2939911 .041992189 .2939911 .07902527V.64004519Z"/>
<path id="font_3_2" d="M.2889862 .25C.2889862 .32798768 .27799989 .44898988 .22299195 .56199648 .16299439 .68499758 .07699585 .75 .066986087 .75 .06098938 .75 .056991579 .74598696 .056991579 .73999026 .056991579 .7369995 .056991579 .73498538 .07598877 .71699526 .17399597 .6179962 .23098755 .45899964 .23098755 .25 .23098755 .07899475 .19400025-.09700012 .069992069-.2230072 .056991579-.23500061 .056991579-.23701477 .056991579-.2400055 .056991579-.2460022 .06098938-.25 .066986087-.25 .07699585-.25 .16699219-.18200684 .22599793-.055007936 .2769928 .054992677 .2889862 .16600037 .2889862 .25Z"/>
<path id="font_3_4" d="M.2899933 .35191346C.37199403 .37893678 .42999269 .4490509 .42999269 .52809146 .42999269 .6100464 .34199525 .6660156 .24598694 .6660156 .14498902 .6660156 .068984989 .60606387 .068984989 .53009036 .068984989 .49710084 .09098816 .47808839 .11999512 .47808839 .15098572 .47808839 .17098999 .50009158 .17098999 .5290985 .17098999 .57910159 .12399292 .57910159 .10899353 .57910159 .13999939 .62802127 .20599365 .64100649 .24198914 .64100649 .2829895 .64100649 .33799745 .6190338 .33799745 .5290985 .33799745 .51708987 .33599855 .45906068 .30999757 .4149933 .27999879 .36691285 .24598694 .36390687 .22099304 .36291505 .21299744 .36190797 .18899536 .35990907 .18199158 .35990907 .17399597 .35890199 .16699219 .35791017 .16699219 .3479004 .16699219 .33691407 .17399597 .33691407 .19099427 .33691407H.23498535C.31698609 .33691407 .35398866 .2686615 .35398866 .17037964 .35398866 .034469606 .2849884 .0055389406 .24099732 .0055389406 .19799805 .0055389406 .12298584 .022491456 .08799744 .08137512 .12298584 .07637024 .1539917 .09837341 .1539917 .1363678 .1539917 .17237854 .1269989 .19238281 .09799194 .19238281 .07398987 .19238281 .041992189 .17837525 .041992189 .1343689 .041992189 .043441774 .1349945-.022460938 .24398804-.022460938 .3659973-.022460938 .45700074 .06838989 .45700074 .17037964 .45700074 .252594 .3939972 .33088685 .2899933 .35191346Z"/>
<path id="font_4_1" d="M.33399964 .30233766C.33999635 .32835389 .36299134 .42037965 .43299867 .42037965 .43798829 .42037965 .46199037 .42037965 .48298646 .40734864 .45498658 .402359 .43499757 .37734986 .43499757 .35334779 .43499757 .33735658 .44599916 .31835938 .47299195 .31835938 .49499513 .31835938 .5269928 .3363495 .5269928 .37635804 .5269928 .42837525 .46798707 .4423828 .43399049 .4423828 .37599183 .4423828 .34098817 .38935853 .32899476 .36634828 .3039856 .43237306 .25 .4423828 .22099304 .4423828 .116989139 .4423828 .05999756 .3133545 .05999756 .28834535 .05999756 .27833558 .069992069 .27833558 .07199097 .27833558 .07998657 .27833558 .08299255 .28033448 .084991458 .28933717 .11898804 .39535523 .18499756 .42037965 .21899414 .42037965 .23799134 .42037965 .272995 .4113617 .272995 .35334779 .272995 .32235719 .2559967 .25532533 .21899414 .11528015 .20298767 .053268434 .16799927 .011245728 .12399292 .011245728 .117996219 .011245728 .09498596 .011245728 .07398987 .024276734 .09899902 .029266358 .12098694 .05027771 .12098694 .07827759 .12098694 .105270389 .09899902 .11328125 .083999637 .11328125 .053985597 .11328125 .0289917 .08728027 .0289917 .055267335 .0289917 .009246826 .07899475-.0107421879 .12298584-.0107421879 .18899536-.0107421879 .22499085 .059280397 .22799683 .0652771 .23999024 .028274537 .27598573-.0107421879 .33599855-.0107421879 .43899537-.0107421879 .49598695 .118270877 .49598695 .14328003 .49598695 .1532898 .4869995 .1532898 .48399354 .1532898 .47499085 .1532898 .47299195 .14929199 .47099305 .14228821 .43798829 .03527832 .36999513 .011245728 .33799745 .011245728 .29899598 .011245728 .2829895 .043273927 .2829895 .07727051 .2829895 .09927368 .2889862 .121276859 .2999878 .16529846L.33399964 .30233766Z"/>
<path id="font_4_2" d="M.48599244 .38136292C.48999024 .39537049 .48999024 .39736939 .48999024 .40437318 .48999024 .42237855 .47599793 .43138124 .46099855 .43138124 .45098878 .43138124 .43499757 .42536927 .42599488 .41036988 .42399598 .405365 .41600038 .37435914 .4119873 .35635377 .40499879 .33035279 .397995 .30334474 .3919983 .27633668L.34700013 .09628296C.34298707 .08126831 .2999878 .011245728 .23399353 .011245728 .18299866 .011245728 .17199707 .055267335 .17199707 .0922699 .17199707 .1382904 .18899536 .20030213 .22299195 .28833009 .23899842 .3293457 .24299622 .3403473 .24299622 .36035157 .24299622 .405365 .21099854 .4423828 .16099549 .4423828 .06599426 .4423828 .0289917 .29733277 .0289917 .28833009 .0289917 .27833558 .038986207 .27833558 .040985109 .27833558 .050994874 .27833558 .051986696 .28033448 .056991579 .29634095 .083999637 .3903656 .12399292 .42037965 .1579895 .42037965 .1659851 .42037965 .18299866 .42037965 .18299866 .3883667 .18299866 .36335755 .17298889 .3373413 .1659851 .31834413 .12599182 .21231079 .10798645 .1552887 .10798645 .10827637 .10798645 .019256592 .17098999-.0107421879 .22999573-.0107421879 .2689972-.0107421879 .30299378 .0062561037 .33099366 .03425598 .31799317-.017745972 .30599977-.06674194 .2659912-.11973572 .23999024-.15385437 .20199585-.18309021 .1559906-.18309021 .14199829-.18309021 .09700012-.18005371 .07998657-.14074707 .09599304-.14074707 .10899353-.14074707 .12298584-.1287384 .1329956-.11973572 .14299011-.10673523 .14299011-.08773804 .14299011-.056747438 .115997318-.052734376 .10598755-.052734376 .08299255-.052734376 .049987794-.068740848 .049987794-.11773682 .049987794-.16796875 .09399414-.20507813 .1559906-.20507813 .25898744-.20507813 .3619995-.11373901 .3899994-.00074768069L.48599244 .38136292Z"/>
<path id="font_4_3" d="M.1329956 .08345032C.18699646 .14138794 .21598816 .16636658 .2519989 .19732666 .2519989 .19833374 .31399537 .25128175 .34999085 .2872467 .44499208 .3803711 .46699525 .42837525 .46699525 .43237306 .46699525 .4423828 .45799256 .4423828 .45599366 .4423828 .44898988 .4423828 .44599916 .44036866 .44099427 .43138124 .41099549 .38337709 .3899994 .3671875 .3659973 .3671875 .34199525 .3671875 .32998658 .38237 .31498719 .3993683 .29599 .42237855 .2789917 .4423828 .24598694 .4423828 .17098999 .4423828 .125 .34918214 .125 .3282013 .125 .3231964 .12799073 .31721498 .13699341 .31721498 .1459961 .31721498 .147995 .3222046 .1499939 .3282013 .16899109 .37434388 .22698975 .37538148 .23498535 .37538148 .2559967 .37538148 .2749939 .36820985 .2979889 .36018373 .33799745 .34518434 .34899903 .34518434 .375 .34518434 .33898927 .30223084 .25498963 .2303009 .23599243 .21430969L.1459961 .13040161C.07798767 .06341553 .042999269 .0062561037 .042999269-.00074768069 .042999269-.0107421879 .052993776-.0107421879 .054992677-.0107421879 .06298828-.0107421879 .06498718-.008743286 .070999149 .002243042 .09399414 .037246705 .12399292 .064453128 .1559906 .064453128 .1789856 .064453128 .18899536 .055252077 .21398926 .026245118 .23098755 .0052490236 .24899292-.0107421879 .27799989-.0107421879 .3769989-.0107421879 .43499757 .1164093 .43499757 .14338684 .43499757 .14837647 .43099977 .15338135 .4229889 .15338135 .4139862 .15338135 .4119873 .14738465 .40899659 .14039612 .38598634 .07543945 .32199098 .056243898 .2889862 .056243898 .2689972 .056243898 .25099183 .06239319 .22999573 .06944275 .19599915 .08244324 .18099976 .08644104 .1599884 .08644104 .1579895 .08644104 .14199829 .08644104 .1329956 .08345032Z"/>
</defs>
<path transform="matrix(1.00006,0,0,-1,24.853226,81.78)" stroke-width=".3985" stroke-linecap="butt" stroke-miterlimit="10" stroke-linejoin="miter" fill="none" stroke="#000000" d="M56.36893-11.91835-12.90237-55.86407"/>
<path transform="matrix(-.8444106,.53568,.5357121,.84436,11.950082,137.64406)" d="M1.99252 0-1.19551 1.59401 0 0-1.19551-1.59401"/>
<path transform="matrix(1.00006,0,0,-1,24.853226,81.78)" stroke-width=".3985" stroke-linecap="butt" stroke-miterlimit="10" stroke-linejoin="miter" fill="none" stroke="#000000" d="M0 0 122.06227-25.80823"/>
<path transform="matrix(.97840866,.20685,.2068624,-.97835,146.92282,107.58821)" d="M1.99252 0-1.19551 1.59401 0 0-1.19551-1.59401"/>
<path transform="matrix(1.00006,0,0,-1,24.853226,81.78)" stroke-width=".3985" stroke-linecap="butt" stroke-miterlimit="10" stroke-linejoin="miter" fill="none" stroke="#000000" d="M56.36893-11.91835V76.2703"/>
<path transform="matrix(0,-1,-1.00006,-0,81.22554,5.509697)" d="M1.99252 0-1.19551 1.59401 0 0-1.19551-1.59401"/>
<g clip-path="url(#clip_1)">
<path transform="matrix(1.00006,0,0,-1,24.853226,81.78)" stroke-width=".79701" stroke-linecap="butt" stroke-miterlimit="10" stroke-linejoin="miter" fill="none" stroke="#0000ff" d="M-.55182-9.88583C-.55182-9.88583-1.21912-10.31071-1.44623-10.45674-1.67336-10.60275-2.00383-10.81705-2.18883-10.9383-2.37384-11.05952-2.63676-11.23409-2.77965-11.33054-2.92253-11.42697-3.11789-11.56178-3.21864-11.63342-3.31941-11.70508-3.44722-11.80013-3.50586-11.84698-3.5645-11.89386-3.62477-11.94916-3.64128-11.97124-3.65779-11.9933-3.65048-12.00887-3.6249-12.00616-3.59929-12.00346-3.52441-11.97922-3.4567-11.95172-3.38896-11.92424-3.24657-11.86026-3.13672-11.80798-3.02687-11.75569-2.81691-11.65196-2.66493-11.57489-2.51295-11.49782-2.23546-11.35432-2.04137-11.25247-1.84726-11.15062-1.5022-10.96736-1.26596-10.84071-1.02974-10.71407-.61716-10.49109-.33882-10.33966-.06047-10.18823 .4197-9.92548 .74016-9.74925 1.06064-9.57303 1.60835-9.27052 1.97093-9.0695 2.33351-8.86848 2.94878-8.52625 3.3535-8.30045 3.75822-8.07463 4.44107-7.6926 4.8879-7.44202 5.33473-7.19142 6.0851-6.76968 6.57405-6.4943 7.06302-6.2189 7.88095-5.75739 8.41203-5.45723 8.94312-5.15706 9.82854-4.65582 10.40175-4.33087 10.97496-4.0059 11.92798-3.46489 12.5433-3.11514 13.15865-2.76538 14.17923-2.1846 14.83669-1.81007 15.49414-1.43555 16.58226-.81502 17.28185-.4157 17.98143-.01636 19.13712 .6439 19.87881 1.06802 20.62051 1.49214 21.84375 2.19217 22.62758 2.64107 23.4114 3.08997 24.70218 3.82977 25.52812 4.30347 26.35408 4.77716 27.71242 5.55669 28.5805 6.05516 29.44858 6.55362 30.87447 7.37294 31.78465 7.89621 32.69484 8.41946 34.18828 9.27852 35.14061 9.82658 36.09294 10.37465 37.65395 11.27344 38.64838 11.84628 39.64282 12.41913 41.27132 13.35765 42.30786 13.95529 43.3444 14.55292 45.04051 15.53123 46.11919 16.15366 47.19788 16.7761 48.96153 17.79414 50.08235 18.44136 51.20316 19.08856 53.03436 20.14638 54.1973 20.81839 55.36023 21.49039 57.25899 22.58794 58.46405 23.28474 59.66911 23.98154 61.6354 25.11887 62.8826 25.84044 64.12978 26.56201 66.16362 27.73909 67.45293 28.48546 68.74225 29.23183 70.84363 30.44865 72.17508 31.21982 73.50653 31.991 77.0491 34.04356 77.0491 34.04356"/>
<path transform="matrix(1.00006,0,0,-1,24.853226,81.78)" stroke-width="1.59404" stroke-linecap="butt" stroke-miterlimit="10" stroke-linejoin="miter" fill="none" stroke="#ff0000" d="M56.36893-11.91835 .10153-10.77797"/>
<path transform="matrix(-.99981996,-.02025,-.020251215,.99976,24.954762,92.557979)" stroke-width="1.27522" stroke-linecap="round" stroke-linejoin="round" fill="none" stroke="#ff0000" d="M-2.27148 3.02866C-2.0822 1.8929 0 .18927 .56786 0 0-.18927-2.0822-1.8929-2.27148-3.02866"/>
<use data-text="r" xlink:href="#font_2_1" transform="matrix(9.963197,0,0,-9.9626,.78678897,103.525)" fill="#ff0000"/>
<use data-text="(" xlink:href="#font_3_1" transform="matrix(9.963197,0,0,-9.9626,5.5060579,103.525)" fill="#ff0000"/>
<use data-text="1" xlink:href="#font_3_3" transform="matrix(9.963197,0,0,-9.9626,9.37178,103.525)" fill="#ff0000"/>
<use data-text=")" xlink:href="#font_3_2" transform="matrix(9.963197,0,0,-9.9626,14.353378,103.525)" fill="#ff0000"/>
<path transform="matrix(1.00006,0,0,-1,24.853226,81.78)" stroke-width="1.59404" stroke-linecap="butt" stroke-miterlimit="10" stroke-linejoin="miter" fill="none" stroke="#404040" d="M56.36893-11.91835 65.164 26.14313"/>
<path transform="matrix(.2251435,-.9743,-.97435846,-.22513,90.02112,55.636888)" stroke-width="1.27522" stroke-linecap="round" stroke-linejoin="round" fill="none" stroke="#404040" d="M-2.27148 3.02866C-2.0822 1.8929 0 .18927 .56786 0 0-.18927-2.0822-1.8929-2.27148-3.02866"/>
<use data-text="r" xlink:href="#font_2_1" transform="matrix(9.963197,0,0,-9.9626,69.32289,46.459)" fill="#404040"/>
<use data-text="(" xlink:href="#font_3_1" transform="matrix(9.963197,0,0,-9.9626,74.04216,46.459)" fill="#404040"/>
<use data-text="3" xlink:href="#font_3_4" transform="matrix(9.963197,0,0,-9.9626,77.90788,46.459)" fill="#404040"/>
<use data-text=")" xlink:href="#font_3_2" transform="matrix(9.963197,0,0,-9.9626,82.88948,46.459)" fill="#404040"/>
<path transform="matrix(1.00006,0,0,-1,24.853226,81.78)" d="M1.00977-10.75357C1.00977-9.58635 .06355-8.64012-1.10365-8.64012-2.27087-8.64012-3.2171-9.58635-3.2171-10.75357-3.2171-11.92079-2.27087-12.867-1.10365-12.867 .06355-12.867 1.00977-11.92079 1.00977-10.75357ZM-1.10365-10.75357" fill="#ff0000"/>
<path transform="matrix(1.00006,0,0,-1,24.853226,81.78)" d="M67.54883 27.31764C67.54883 28.48486 66.60262 29.43108 65.4354 29.43108 64.26816 29.43108 63.32195 28.48486 63.32195 27.31764 63.32195 26.15042 64.26816 25.20421 65.4354 25.20421 66.60262 25.20421 67.54883 26.15042 67.54883 27.31764ZM65.4354 27.31764" fill="#404040"/>
</g>
<use data-text="x" xlink:href="#font_4_1" transform="matrix(9.963197,0,0,-9.9626,5.9290926,142.942)"/>
<use data-text="y" xlink:href="#font_4_2" transform="matrix(9.963197,0,0,-9.9626,147.68158,113.767)"/>
<use data-text="z" xlink:href="#font_4_3" transform="matrix(9.963197,0,0,-9.9626,73.96217,5.8339998)"/>
</svg>
