<svg xmlns="http://www.w3.org/2000/svg" xmlns:xlink="http://www.w3.org/1999/xlink" xmlns:inkscape="http://www.inkscape.org/namespaces/inkscape" version="1.1" width="283" height="185" viewBox="0 0 283 185">
<defs>
<path id="font_1_1" d="M.45999146 .31976319C.45999146 .39982606 .45498658 .47988893 .41999818 .5539398 .37399293 .65000918 .2919922 .6660156 .25 .6660156 .18998719 .6660156 .116989139 .64001467 .07598877 .54693606 .04399109 .47789 .038986207 .39982606 .038986207 .31976319 .038986207 .24472046 .042999269 .15464783 .083999637 .07859802 .1269989-.0024719239 .19999695-.022460938 .24899292-.022460938 .30299378-.022460938 .3789978-.0014648438 .4229889 .09359741 .45498658 .16265869 .45999146 .2407074 .45999146 .31976319M.24899292-.00047302247C.20999146-.00047302247 .15098572 .024551392 .1329956 .12062073 .12199402 .18066406 .12199402 .2727356 .12199402 .3317871 .12199402 .39582826 .12199402 .46188355 .12998963 .5159149 .14898682 .63500979 .22399903 .64401248 .24899292 .64401248 .28199769 .64401248 .34799195 .6259918 .36698915 .52693179 .3769989 .47088624 .3769989 .39482118 .3769989 .3317871 .3769989 .25672914 .3769989 .18867493 .3659973 .12461853 .35099793 .029556275 .2939911-.00047302247 .24899292-.00047302247Z"/>
<path id="font_1_2" d="M.2939911 .64004519C.2939911 .66400149 .2939911 .6660156 .2709961 .6660156 .20899964 .60227969 .12098694 .60227969 .08898926 .60227969V.57128909C.10899353 .57128909 .16799927 .57128909 .21998596 .5972748V.07902527C.21998596 .042999269 .21699524 .0309906 .1269989 .0309906H.09498596V0C.12998963 .0029907227 .21699524 .0029907227 .25698854 .0029907227 .29699708 .0029907227 .38398744 .0029907227 .4189911 0V.0309906H.3869934C.29699708 .0309906 .2939911 .041992189 .2939911 .07902527V.64004519Z"/>
<path id="font_1_3" d="M.1269989 .07699585 .23298645 .18003845C.3889923 .31811524 .44898988 .3721466 .44898988 .47216798 .44898988 .5860901 .35899354 .6660156 .23699951 .6660156 .12399292 .6660156 .049987794 .57411196 .049987794 .48516847 .049987794 .4291687 .099990848 .4291687 .102996829 .4291687 .11999512 .4291687 .15499878 .44117738 .15499878 .48217774 .15499878 .5081787 .13699341 .5341797 .101989749 .5341797 .09399414 .5341797 .09199524 .5341797 .08898926 .5331726 .11199951 .59806826 .1659851 .63500979 .22399903 .63500979 .31498719 .63500979 .35798646 .5541382 .35798646 .47216798 .35798646 .39215089 .30799867 .31311036 .25299073 .25108338L.06098938 .036987306C.049987794 .025985718 .049987794 .023986817 .049987794 0H.42099L.44898988 .17404175H.42399598C.4189911 .14402771 .4119873 .1000061 .4019928 .084991458 .394989 .07699585 .32899476 .07699585 .30699159 .07699585H.1269989Z"/>
<path id="font_1_4" d="M.2899933 .35191346C.37199403 .37893678 .42999269 .4490509 .42999269 .52809146 .42999269 .6100464 .34199525 .6660156 .24598694 .6660156 .14498902 .6660156 .068984989 .60606387 .068984989 .53009036 .068984989 .49710084 .09098816 .47808839 .11999512 .47808839 .15098572 .47808839 .17098999 .50009158 .17098999 .5290985 .17098999 .57910159 .12399292 .57910159 .10899353 .57910159 .13999939 .62802127 .20599365 .64100649 .24198914 .64100649 .2829895 .64100649 .33799745 .6190338 .33799745 .5290985 .33799745 .51708987 .33599855 .45906068 .30999757 .4149933 .27999879 .36691285 .24598694 .36390687 .22099304 .36291505 .21299744 .36190797 .18899536 .35990907 .18199158 .35990907 .17399597 .35890199 .16699219 .35791017 .16699219 .3479004 .16699219 .33691407 .17399597 .33691407 .19099427 .33691407H.23498535C.31698609 .33691407 .35398866 .2686615 .35398866 .17037964 .35398866 .034469606 .2849884 .0055389406 .24099732 .0055389406 .19799805 .0055389406 .12298584 .022491456 .08799744 .08137512 .12298584 .07637024 .1539917 .09837341 .1539917 .1363678 .1539917 .17237854 .1269989 .19238281 .09799194 .19238281 .07398987 .19238281 .041992189 .17837525 .041992189 .1343689 .041992189 .043441774 .1349945-.022460938 .24398804-.022460938 .3659973-.022460938 .45700074 .06838989 .45700074 .17037964 .45700074 .252594 .3939972 .33088685 .2899933 .35191346Z"/>
<path id="font_1_5" d="M.2939911 .16503906V.07800293C.2939911 .041992189 .2919922 .0309906 .21798706 .0309906H.19699097V0C.23799134 .0029907227 .2899933 .0029907227 .33198548 .0029907227 .37399293 .0029907227 .4269867 .0029907227 .46798707 0V.0309906H.44699098C.37298585 .0309906 .37098695 .041992189 .37098695 .07800293V.16503906H.47099305V.19602967H.37098695V.65075686C.37098695 .67074587 .37098695 .6767578 .35499574 .6767578 .34599305 .6767578 .34298707 .6767578 .33499146 .66474917L.027999878 .19602967V.16503906H.2939911M.2999878 .19602967H.055999757L.2999878 .5688019V.19602967Z"/>
<path id="font_1_6" d="M.44898988 .20022583C.44898988 .3193512 .36698915 .41944886 .25898744 .41944886 .21099854 .41944886 .16799927 .40345765 .13198853 .36842347V.5637665C.1519928 .5577698 .18499756 .55078127 .21699524 .55078127 .33999635 .55078127 .4099884 .6417694 .4099884 .6547699 .4099884 .6607666 .40699769 .6657715 .3999939 .6657715 .39898683 .6657715 .39698792 .6657715 .3919983 .66278079 .37199403 .6537781 .32299806 .6337738 .2559967 .6337738 .21598816 .6337738 .16999817 .6407776 .12298584 .6617737 .114990238 .66477969 .11299133 .66477969 .11099243 .66477969 .100997928 .66477969 .100997928 .6567688 .100997928 .6407776V.34439088C.100997928 .32637025 .100997928 .31835938 .114990238 .31835938 .12199402 .31835938 .12399292 .32136537 .12799073 .32736207 .13899231 .3433838 .17599488 .39746095 .25698854 .39746095 .30899049 .39746095 .33399964 .35139466 .34199525 .33337403 .35798646 .29632569 .3600006 .25727845 .3600006 .20722962 .3600006 .17222595 .3600006 .11222839 .33599855 .07035828 .31199647 .031463624 .2749939 .0055389406 .22898865 .0055389406 .1559906 .0055389406 .09899902 .058380128 .08198547 .11723328 .084991458 .1162262 .08799744 .115234378 .09899902 .115234378 .13198853 .115234378 .14898682 .14022827 .14898682 .16423035 .14898682 .18823242 .13198853 .21322632 .09899902 .21322632 .084991458 .21322632 .049987794 .20622254 .049987794 .16023255 .049987794 .07434082 .11898804-.022460938 .23098755-.022460938 .34700013-.022460938 .44898988 .073349 .44898988 .20022583Z"/>
<path id="font_1_7" d="M.13198853 .327713V.35173036C.13198853 .6047821 .2559967 .64100649 .30699159 .64100649 .33099366 .64100649 .37298585 .634964 .394989 .6007538 .37998963 .6007538 .33999635 .6007538 .33999635 .5557556 .33999635 .524765 .3639984 .5097656 .38598634 .5097656 .4019928 .5097656 .43199159 .51875308 .43199159 .5577545 .43199159 .6178589 .3880005 .6660156 .30499269 .6660156 .1769867 .6660156 .041992189 .5367584 .041992189 .31570436 .041992189 .048553468 .1579895-.022460938 .25099183-.022460938 .3619995-.022460938 .45700074 .07156372 .45700074 .2036438 .45700074 .33070375 .36799623 .4267578 .25698854 .4267578 .18899536 .4267578 .1519928 .37573243 .13198853 .327713M.25099183 .0055389406C.18798828 .0055389406 .1579895 .06556702 .1519928 .080566409 .13398743 .127594 .13398743 .2076416 .13398743 .22564698 .13398743 .30369569 .1659851 .40374757 .2559967 .40374757 .27198792 .40374757 .31799317 .40374757 .34899903 .34172059 .36698915 .30470277 .36698915 .2536621 .36698915 .20463562 .36698915 .15661621 .36698915 .10658264 .34999085 .0705719 .31999208 .010528564 .27398683 .0055389406 .25099183 .0055389406Z"/>
<path id="font_1_8" d="M.47599793 .609375C.4850006 .6213684 .4850006 .62338259 .4850006 .64437869H.24198914C.11999512 .64437869 .117996219 .65737918 .11399841 .67637637H.08898926L.055999757 .4702301H.08099365C.083999637 .48625184 .09298706 .5493469 .10598755 .56137087 .11299133 .5673828 .19099427 .5673828 .20399475 .5673828H.41099549C.3999939 .5513611 .32099916 .4421997 .29899598 .40914918 .20899964 .27394105 .17599488 .1347351 .17599488 .032577516 .17599488 .022567749 .17599488-.022460938 .22200012-.022460938 .2679901-.022460938 .2679901 .022567749 .2679901 .032577516V.08366394C.2679901 .13873291 .2709961 .19381714 .2789917 .24790955 .2829895 .27093507 .29699708 .35707093 .34098817 .41915895L.47599793 .609375Z"/>
<path id="font_1_9" d="M.16299439 .4569702C.116989139 .486969 .11299133 .52098086 .11299133 .5379791 .11299133 .598999 .17799378 .64100649 .24899292 .64100649 .32199098 .64100649 .38598634 .58898928 .38598634 .51698306 .38598634 .45996095 .34700013 .4119568 .2869873 .37695313L.16299439 .4569702M.30899049 .36193849C.3809967 .3989563 .42999269 .45095826 .42999269 .51698306 .42999269 .6090088 .34098817 .6660156 .25 .6660156 .1499939 .6660156 .068984989 .59199526 .068984989 .49897767 .068984989 .4809723 .070999149 .43595887 .11299133 .38894654 .12399292 .37695313 .16099549 .35194398 .18598938 .33494569 .12799073 .30592347 .041992189 .24984741 .041992189 .15072632 .041992189 .04458618 .14399719-.022460938 .24899292-.022460938 .3619995-.022460938 .45700074 .06060791 .45700074 .16773987 .45700074 .20379639 .44599916 .24885559 .4079895 .2909088 .3889923 .31193543 .37298585 .3219452 .30899049 .36193849M.20899964 .3199463 .33198548 .24183655C.3600006 .2228241 .40699769 .19277954 .40699769 .13169861 .40699769 .05760193 .33198548 .0055389406 .25 .0055389406 .1639862 .0055389406 .09199524 .067611698 .09199524 .15072632 .09199524 .20880127 .12399292 .27288819 .20899964 .3199463Z"/>
<path id="font_1_10" d="M.36698915 .31781007V.28579713C.36698915 .05178833 .2630005 .0055389406 .20498657 .0055389406 .18798828 .0055389406 .13398743 .007537842 .10699463 .041778566 .15098572 .041778566 .15899658 .07078552 .15899658 .08778381 .15899658 .118774417 .1349945 .13378906 .11299133 .13378906 .09700012 .13378906 .066986087 .12478638 .066986087 .08578491 .066986087 .018615723 .12098694-.022460938 .20599365-.022460938 .33499146-.022460938 .45700074 .11378479 .45700074 .32881166 .45700074 .5979767 .34199525 .6660156 .25299073 .6660156 .19799805 .6660156 .14898682 .64801028 .10598755 .60298159 .06498718 .5579529 .041992189 .5159302 .041992189 .44088746 .041992189 .31581117 .12998963 .21777344 .24198914 .21777344 .30299378 .21777344 .34399415 .25978089 .36698915 .31781007M.24299622 .24076844C.22698975 .24076844 .18099976 .24076844 .1499939 .3038025 .13198853 .3408203 .13198853 .39085389 .13198853 .43988038 .13198853 .49391175 .13198853 .54093936 .15299988 .5779724 .17999268 .6279907 .21798706 .64100649 .25299073 .64100649 .29899598 .64100649 .33198548 .60697939 .34899903 .5619507 .36099244 .52993777 .36499024 .4669037 .36499024 .42086793 .36499024 .3378296 .33099366 .24076844 .24299622 .24076844Z"/>
<clipPath id="clip_2">
<path transform="matrix(1.00008,0,0,-1.00008,41.071077,155.40216)" d="M0 0H238.63457V153.59319H0Z"/>
</clipPath>
<path id="font_3_27" d="M.7589874 0V.032989503H.74198916C.67900088 .032989503 .6689911 .04197693 .6569977 .07392883L.4229889 .69184878C.41799928 .7048645 .4149933 .7138672 .397995 .7138672 .37998963 .7138672 .3769989 .7058563 .37199403 .69184878L.14898682 .102890018C.13899231 .075927738 .117996219 .032989503 .035995485 .032989503V0C.067993167 .0029907227 .12098694 .0029907227 .13899231 .0029907227 .17098999 .0029907227 .20098877 .0029907227 .25 0V.032989503C.20599365 .033996583 .17999268 .053955079 .17999268 .08291626 .17999268 .089904788 .17999268 .09190369 .18499756 .103897098L.23199463 .22871399H.5039978L.55999758 .08091736C.5649872 .06893921 .5649872 .062942508 .5649872 .062942508 .5649872 .032989503 .5130005 .032989503 .4850006 .032989503V0L.6269989 .0029907227C.68299868 .0029907227 .70098879 .0029907227 .7589874 0M.4909973 .26171876H.24398804L.36799623 .5888214 .4909973 .26171876Z"/>
<path id="font_3_34" d="M.69200137 .18299866C.69200137 .2639923 .61499026 .34298707 .48999024 .35699464 .598999 .379776 .6619873 .44573976 .6619873 .51368716 .6619873 .6026306 .56199648 .6826172 .42799378 .6826172H.04798889V.6496124H.069992069C.14698792 .6496124 .14898682 .63861086 .14898682 .6016388V.080963138C.14898682 .04399109 .14698792 .032989503 .069992069 .032989503H.04798889V0H.45599366C.59399417-.00018310547 .69200137 .08781433 .69200137 .18281555V.18299866M.5649872 .5137024C.5649872 .445755 .5049896 .3688202 .3909912 .3688202H.23399353V.6086426C.23399353 .64260867 .23599243 .6496124 .28199769 .6496124H.42099C.519989 .6498108 .5649872 .57281497 .5649872 .5138092V.5137024M.59098818 .18389893C.59098818 .10295105 .5239868 .032989503 .42199708 .032989503H.28199769C.23599243 .032989503 .23399353 .039993287 .23399353 .07397461V.3408203H.43699647C.5339966 .34098817 .59098818 .2630005 .59098818 .18399048V.18389893Z"/>
<path id="font_3_42" d="M.70700076 .23370362C.70700076 .24371338 .70700076 .25273133 .69099429 .25273133 .6799927 .25273133 .6769867 .24772644 .6759949 .23771668 .66799929 .08357239 .5439911 .011505127 .43798829 .011505127 .35299684 .011505127 .16299439 .06355286 .16299439 .34179688 .16299439 .6110382 .34298707 .6710968 .43798829 .6710968 .5319977 .6710968 .647995 .6040344 .673996 .43188478 .6749878 .4238739 .6759949 .41687013 .6899872 .41687013 .70700076 .41687013 .70700076 .4238739 .70700076 .4429016V.6781006C.70700076 .6940918 .70700076 .70410159 .69400027 .70410159 .68699648 .70410159 .6859894 .7030945 .6769867 .690094L.6259918 .6160431C.58999636 .65509036 .5239868 .70410159 .42799378 .70410159 .22698975 .70410159 .05899048 .542984 .05899048 .34179688 .05899048 .13961792 .22599793-.021484375 .42900086-.021484375 .5970001-.021484375 .70700076 .11160278 .70700076 .23370362Z"/>
<path id="font_3_46" d="M.7509918 .33480836C.7509918 .52767947 .6049957 .6826172 .42599488 .6826172H.04598999V.6496124H.067993167C.14498902 .6496124 .14698792 .63861086 .14698792 .6016388V.080963138C.14698792 .04399109 .14498902 .032989503 .067993167 .032989503H.04598999V0H.42599488C.60598757 0 .7509918 .1499176 .7509918 .33480836M.6499939 .33580018C.6499939 .28483583 .6499939 .18688965 .58699038 .11294556 .5519867 .07197571 .48799134 .032989503 .39898683 .032989503H.28399659C.23799134 .032608034 .23599243 .039611818 .23599243 .0736084V.60861209C.23599243 .64260867 .23799134 .6496124 .28399659 .6496124H.39898683C.47698976 .6496124 .5419922 .61761477 .58599856 .5676117 .6499939 .49160768 .6499939 .38461305 .6499939 .3356018V.33580018Z"/>
<path id="font_3_49" d="M.69200137 .25993348H.6609955C.6349945 .10997009 .6139984 .032989503 .43399049 .032989503H.2849884C.23899842 .032989503 .23699951 .039993287 .23699951 .07397461V.33691407H.33399964C.43299867 .33691407 .44699098 .30691529 .44699098 .21994019H.47799684V.4868164H.44699098C.44699098 .39988709 .43299867 .36990357 .33399964 .36990357H.23699951V.6057129C.23699951 .63967898 .23899842 .64668276 .2849884 .64668276H.4269867C.59298709 .64668276 .6139984 .5867157 .6319885 .45277406H.6629944L.6339874 .6796875H.04399109V.64668276H.06599426C.14299011 .64668276 .14498902 .63568118 .14498902 .5987091V.080963138C.14498902 .04399109 .14299011 .032989503 .06599426 .032989503H.04399109V0H.647995L.69200137 .25993348Z"/>
<path id="font_3_54" d="M.647995 .45303346 .61898806 .6796875H.04399109V.64668276H.06599426C.14299011 .64668276 .14498902 .6356964 .14498902 .59877017V.08102417C.14498902 .044006349 .14299011 .032989503 .06599426 .032989503H.04399109V0L.19799805 .0029907227C.24499512 .0029907227 .31799317 .0029907227 .36299134 0V.032989503H.33099366C.23699951 .032989503 .23699951 .04699707 .23699951 .08203125V.32421876H.32998658C.42799378 .32421876 .43998719 .29318238 .43998719 .2071228H.47099305V.47399903H.43998719C.43998719 .38916017 .42799378 .35720826 .32998658 .35720826H.23699951V.60575869C.23699951 .6396942 .23899842 .64668276 .2849884 .64668276H.41799928C.58099368 .64668276 .59999087 .58380129 .61698916 .45303346H.647995Z"/>
<path id="font_3_58" d="M.7819977 .24238587V.27539063C.73098757 .27238465 .7029877 .27238465 .6459961 .27238465 .6029968 .27238465 .5219879 .27238465 .48298646 .27539063V.24238587H.5179901C.61299136 .24272156 .6159973 .23069763 .6159973 .19366455V.12960816C.6159973 .10958862 .6159973 .06855774 .5629883 .039535524 .5130005 .011505127 .45700074 .011505127 .44499208 .011505127 .34298707 .011505127 .16299439 .07356262 .16299439 .34179688 .16299439 .61305239 .34599305 .6710968 .43798829 .6710968 .5379944 .6710968 .6499939 .5980377 .6749878 .43289186 .6759949 .42288209 .6769867 .41687013 .69099429 .41687013 .70799258 .41687013 .70799258 .4238739 .70799258 .4429016V.6781006C.70799258 .6940918 .70799258 .70410159 .69499209 .70410159 .6879883 .70410159 .68699648 .7030945 .6779938 .690094L.6269989 .6160431C.58399966 .6620941 .5179901 .70410159 .42799378 .70410159 .22799683 .70410159 .05899048 .542984 .05899048 .34179688 .05899048 .1426239 .22299195-.021484375 .43099977-.021484375 .5079956-.021484375 .59399417 .0015106201 .6339874 .060546876 .6519928 .03253174 .6859894-.00048828127 .69599917-.00048828127 .70799258 0 .70799258 .010986328 .70799258 .025985718V.19799805C.70799258 .23738098 .71199038 .24238587 .7819977 .24238587Z"/>
<path id="font_3_62" d="M.7509918 0V.032989503H.72898867C.6519928 .032989503 .6499939 .04399109 .6499939 .08097839V.60165408C.6499939 .63861086 .6519928 .6496124 .72898867 .6496124H.7509918V.6826172L.60398867 .6796112 .45700074 .6826172V.6496124H.47898866C.55599978 .6496124 .55799868 .63861086 .55799868 .60165408V.3718567H.23699951V.60165408C.23699951 .63861086 .23899842 .6496124 .31599427 .6496124H.33799745V.6826172L.19099427 .6796112 .04399109 .6826172V.6496124H.06599426C.14299011 .6496124 .14498902 .63861086 .14498902 .60165408V.08097839C.14498902 .04399109 .14299011 .032989503 .06599426 .032989503H.04399109V0L.19099427 .0029907227 .33799745 0V.032989503H.31599427C.23899842 .032989503 .23699951 .04399109 .23699951 .08097839V.3388672H.55799868V.08097839C.55799868 .04399109 .55599978 .032989503 .47898866 .032989503H.45700074V0L.60398867 .0029907227 .7509918 0Z"/>
<path id="font_4_62" d="M.71598818 0V.0309906H.69200137C.61499026 .0309906 .61299136 .041992189 .61299136 .07797241V.6046448C.61299136 .640625 .61499026 .6516113 .69200137 .6516113H.71598818V.6826172C.68099978 .6796112 .6069946 .6796112 .56900027 .6796112 .5309906 .6796112 .45599366 .6796112 .42099 .6826172V.6516113H.44499208C.5219879 .6516113 .5239868 .640625 .5239868 .6046448V.37083436H.22499085V.6046448C.22499085 .640625 .22698975 .6516113 .3039856 .6516113H.32798768V.6826172C.29299928 .6796112 .21899414 .6796112 .18099976 .6796112 .14299011 .6796112 .067993167 .6796112 .032989503 .6826172V.6516113H.056991579C.13398743 .6516113 .13598633 .640625 .13598633 .6046448V.07797241C.13598633 .041992189 .13398743 .0309906 .056991579 .0309906H.032989503V0C.067993167 .0029907227 .14199829 .0029907227 .17999268 .0029907227 .21798706 .0029907227 .29299928 .0029907227 .32798768 0V.0309906H.3039856C.22698975 .0309906 .22499085 .041992189 .22499085 .07797241V.33984376H.5239868V.07797241C.5239868 .041992189 .5219879 .0309906 .44499208 .0309906H.42099V0C.45599366 .0029907227 .5299988 .0029907227 .56799319 .0029907227 .60598757 .0029907227 .68099978 .0029907227 .71598818 0Z"/>
<path id="font_4_81" d="M.47099305 .21424866C.47099305 .34223939 .37098695 .4482422 .25 .4482422 .125 .4482422 .027999878 .3392334 .027999878 .21424866 .027999878 .085250858 .13198853-.0107421879 .24899292-.0107421879 .36999513-.0107421879 .47099305 .087249759 .47099305 .21424866M.3880005 .22224427C.3880005 .18624878 .3880005 .13224793 .3659973 .08824158 .34399415 .04324341 .2999878 .014251709 .25 .014251709 .20698548 .014251709 .16299439 .035247804 .13598633 .08125305 .11099243 .12524414 .11099243 .18624878 .11099243 .22224427 .11099243 .26124574 .11099243 .31523133 .1349945 .35923768 .1619873 .40522767 .20899964 .426239 .24899292 .426239 .29299928 .426239 .33599855 .40423585 .3619995 .36123658 .3880005 .3182373 .3880005 .26023866 .3880005 .22224427Z"/>
<path id="font_4_109" d="M.5349884 0V.0309906C.46499635 .0309906 .45700074 .037994386 .45700074 .08705139V.4423828L.30999757 .43066407V.3996582C.37998963 .3996582 .3880005 .39266969 .3880005 .34373475V.16601563C.3880005 .07910156 .33999635 .011245728 .2669983 .011245728 .18299866 .011245728 .1789856 .058135988 .1789856 .11009216V.4423828L.03199768 .43066407V.3996582C.10998535 .3996582 .10998535 .39666749 .10998535 .3078003V.15802002C.10998535 .080093387 .10998535-.0107421879 .2619934-.0107421879 .31799317-.0107421879 .3619995 .017242432 .3909912 .07910156V-.0107421879L.5349884 0Z"/>
<path id="font_4_96" d="M.3639984 .38137818C.3639984 .41337586 .33299256 .4423828 .2899933 .4423828 .21699524 .4423828 .18099976 .37538148 .16699219 .3323822V.4423828L.027999878 .43066407V.3996582C.09799194 .3996582 .10598755 .39266969 .10598755 .34370423V.07595825C.10598755 .0309906 .09498596 .0309906 .027999878 .0309906V0L.14199829 .0029907227C.18199158 .0029907227 .22898865 .0029907227 .2689972 0V.0309906H.24798584C.17399597 .0309906 .17199707 .04197693 .17199707 .07795715V.23181153C.17199707 .33137513 .21398926 .42037965 .2899933 .42037965 .29699708 .42037965 .29899598 .42037965 .30099488 .41937257 .2979889 .41838075 .27799989 .40637208 .27799989 .3803711 .27799989 .35237123 .29899598 .33737184 .32099916 .33737184 .33898927 .33737184 .3639984 .3493805 .3639984 .38137818Z"/>
<path id="font_4_98" d="M.3600006 .12823487C.3600006 .18122864 .32998658 .21122742 .31799317 .22323609 .2849884 .25523377 .24598694 .26322938 .20399475 .27124024 .147995 .28224183 .08099365 .29522706 .08099365 .35324098 .08099365 .38822938 .10699463 .42922975 .19299317 .42922975 .30299378 .42922975 .30799867 .3392334 .30999757 .30822755 .31098939 .2992401 .32199098 .2992401 .32199098 .2992401 .33499146 .2992401 .33499146 .30422975 .33499146 .32322694V.4242401C.33499146 .4412384 .33499146 .4482422 .32398988 .4482422 .31900025 .4482422 .31698609 .4482422 .3039856 .43623353 .30099488 .43223573 .29100038 .42323304 .2869873 .42022706 .24899292 .4482422 .20799256 .4482422 .19299317 .4482422 .070999149 .4482422 .032989503 .38124085 .032989503 .3252411 .032989503 .29023744 .04899597 .26223756 .07598877 .24023438 .10798645 .2142334 .13598633 .2082367 .20799256 .19422913 .22999573 .19021607 .31199647 .17422486 .31199647 .10221863 .31199647 .051223756 .2769928 .011245728 .19898987 .011245728 .114990238 .011245728 .07899475 .068222049 .05999756 .1532135 .056991579 .16621399 .055999757 .17021179 .04598999 .17021179 .032989503 .17021179 .032989503 .16322327 .032989503 .1452179V.013214111C.032989503-.003753662 .032989503-.0107421879 .04399109-.0107421879 .04899597-.0107421879 .049987794-.009750366 .068984989 .009246826 .070999149 .011245728 .070999149 .013214111 .08898926 .032226564 .1329956-.009750366 .17799378-.0107421879 .19898987-.0107421879 .31399537-.0107421879 .3600006 .05621338 .3600006 .1282196V.12823487Z"/>
<path id="font_4_97" d="M.49899293 .18579102C.49899293 .2858429 .43299867 .36791993 .34899903 .38793946L.22099304 .4189453C.15899658 .43388368 .11999512 .48773194 .11999512 .5458069 .11999512 .61595156 .17399597 .677063 .2519989 .677063 .4189911 .677063 .44099427 .5127411 .44699098 .46777345 .44799806 .461792 .44799806 .45581056 .45899964 .45581056 .47200013 .45581056 .47200013 .46080018 .47200013 .47973634V.68107607C.47200013 .69807437 .47200013 .7050781 .46099855 .7050781 .45399476 .7050781 .45298768 .70407107 .44599916 .69207766L.41099549 .63497927C.3809967 .66404727 .33999635 .7050781 .25099183 .7050781 .13999939 .7050781 .055999757 .61694338 .055999757 .5107422 .055999757 .42790223 .10899353 .35490418 .18699646 .32788087 .19799805 .32388307 .24899292 .3118744 .31900025 .29486085 .34599305 .28785707 .37599183 .280838 .4039917 .24382019 .4249878 .2177887 .43499757 .18478394 .43499757 .1517334 .43499757 .0806427 .3849945 .008529663 .30099488 .008529663 .27198792 .008529663 .19599915 .013534546 .14299011 .06260681 .084991458 .11668396 .08198547 .18078614 .08099365 .21679688 .07998657 .22679138 .07199097 .22679138 .068984989 .22679138 .055999757 .22679138 .055999757 .2197876 .055999757 .20178223V.0015258789C.055999757-.015472412 .055999757-.022460938 .066986087-.022460938 .07398987-.022460938 .07499695-.020462037 .08198547-.009475708 .08198547-.009475708 .084991458-.0054626467 .117996219 .047592164 .14898682 .013534546 .21299744-.022460938 .3019867-.022460938 .4189911-.022460938 .49899293 .07562256 .49899293 .18579102Z"/>
<path id="font_4_105" d="M.33198548 .12385559V.18066406H.30699159V.12585449C.30699159 .052108766 .2769928 .014251709 .23999024 .014251709 .17298889 .014251709 .17298889 .10491943 .17298889 .12187195V.3996582H.31599427V.43066407H.17298889V.6142578H.147995C.14698792 .5324249 .116989139 .42565919 .018997193 .42166139V.3996582H.10398865V.12408447C.10398865 .0012512207 .19699097-.0107421879 .23298645-.0107421879 .3039856-.0107421879 .33198548 .060180665 .33198548 .12408447V.12385559Z"/>
<path id="font_4_47" d="M.5269928 0V.0309906C.45700074 .0309906 .44898988 .038009645 .44898988 .0871582V.69433596L.30499269 .6826172V.6516113C.375 .6516113 .3829956 .64463809 .3829956 .59580996V.38035584C.35398866 .41636659 .31098939 .4423828 .25698854 .4423828 .13899231 .4423828 .033996583 .3443451 .033996583 .21531677 .033996583 .088272098 .13198853-.0107421879 .24598694-.0107421879 .30999757-.0107421879 .35499574 .023254395 .37998963 .055267335V-.0107421879L.5269928 0M.37998963 .117996219C.37998963 .099990848 .37998963 .09799194 .36898805 .08099365 .33898927 .033218385 .2939911 .011245728 .25099183 .011245728 .20599365 .011245728 .16999817 .037216188 .1459961 .075164798 .11999512 .1161499 .116989139 .17320252 .116989139 .21421814 .116989139 .25125123 .11898804 .31129457 .147995 .35632325 .16899109 .38734437 .20698548 .42037965 .26098634 .42037965 .29599 .42037965 .33799745 .405365 .36898805 .3603363 .37998963 .34332276 .37998963 .34132386 .37998963 .32330323V.117996219Z"/>
<path id="font_4_66" d="M.24699402 0V.0309906C.18099976 .0309906 .1769867 .035995485 .1769867 .075042728V.4423828L.036987306 .43066407V.3996582C.101989749 .3996582 .11099243 .3936615 .11099243 .3447113V.07595825C.11099243 .0309906 .099990848 .0309906 .032989503 .0309906V0L.14299011 .0029907227C.17799378 .0029907227 .21299744 .0009918213 .24699402 0M.19198609 .603775C.19198609 .6307678 .16899109 .6567688 .13899231 .6567688 .10499573 .6567688 .084991458 .6287689 .084991458 .603775 .084991458 .57676699 .10798645 .55078127 .13798523 .55078127 .17199707 .55078127 .19198609 .5787811 .19198609 .603775Z"/>
<path id="font_4_50" d="M.4149933 .11933899C.4149933 .12934876 .40699769 .13134766 .4019928 .13134766 .3929901 .13134766 .3909912 .12535095 .3889923 .11734009 .35398866 .014251709 .2639923 .014251709 .2539978 .014251709 .20399475 .014251709 .1639862 .044281007 .14099121 .08131409 .11099243 .12934876 .11099243 .19540406 .11099243 .23144531H.3899994C.4119873 .23144531 .4149933 .23144531 .4149933 .2524414 .4149933 .35131837 .36099244 .4482422 .23599243 .4482422 .11999512 .4482422 .027999878 .34532167 .027999878 .22042847 .027999878 .08631897 .1329956-.0107421879 .24798584-.0107421879 .36999513-.0107421879 .4149933 .10032654 .4149933 .11933899M.34899903 .2524414H.11199951C.117996219 .40126039 .20199585 .426239 .23599243 .426239 .33898927 .426239 .34899903 .2913971 .34899903 .2524414Z"/>
<path id="font_4_85" d="M.33099366-.2400055C.33099366-.23701477 .33099366-.23500061 .31399537-.21800232 .18899536-.0920105 .15699768 .09700012 .15699768 .25 .15699768 .42399598 .19499207 .59799197 .31799317 .72299197 .33099366 .7350006 .33099366 .7369995 .33099366 .73999026 .33099366 .746994 .32699586 .75 .32099916 .75 .31098939 .75 .22099304 .6819916 .1619873 .5549927 .11099243 .44499208 .09899902 .33399964 .09899902 .25 .09899902 .17199707 .10998535 .050994874 .16499329-.06201172 .22499085-.18501282 .31098939-.25 .32099916-.25 .32699586-.25 .33099366-.24700928 .33099366-.2400055Z"/>
<path id="font_5_1" d="M.33399964 .30233766C.33999635 .32835389 .36299134 .42037965 .43299867 .42037965 .43798829 .42037965 .46199037 .42037965 .48298646 .40734864 .45498658 .402359 .43499757 .37734986 .43499757 .35334779 .43499757 .33735658 .44599916 .31835938 .47299195 .31835938 .49499513 .31835938 .5269928 .3363495 .5269928 .37635804 .5269928 .42837525 .46798707 .4423828 .43399049 .4423828 .37599183 .4423828 .34098817 .38935853 .32899476 .36634828 .3039856 .43237306 .25 .4423828 .22099304 .4423828 .116989139 .4423828 .05999756 .3133545 .05999756 .28834535 .05999756 .27833558 .069992069 .27833558 .07199097 .27833558 .07998657 .27833558 .08299255 .28033448 .084991458 .28933717 .11898804 .39535523 .18499756 .42037965 .21899414 .42037965 .23799134 .42037965 .272995 .4113617 .272995 .35334779 .272995 .32235719 .2559967 .25532533 .21899414 .11528015 .20298767 .053268434 .16799927 .011245728 .12399292 .011245728 .117996219 .011245728 .09498596 .011245728 .07398987 .024276734 .09899902 .029266358 .12098694 .05027771 .12098694 .07827759 .12098694 .105270389 .09899902 .11328125 .083999637 .11328125 .053985597 .11328125 .0289917 .08728027 .0289917 .055267335 .0289917 .009246826 .07899475-.0107421879 .12298584-.0107421879 .18899536-.0107421879 .22499085 .059280397 .22799683 .0652771 .23999024 .028274537 .27598573-.0107421879 .33599855-.0107421879 .43899537-.0107421879 .49598695 .118270877 .49598695 .14328003 .49598695 .1532898 .4869995 .1532898 .48399354 .1532898 .47499085 .1532898 .47299195 .14929199 .47099305 .14228821 .43798829 .03527832 .36999513 .011245728 .33799745 .011245728 .29899598 .011245728 .2829895 .043273927 .2829895 .07727051 .2829895 .09927368 .2889862 .121276859 .2999878 .16529846L.33399964 .30233766Z"/>
<path id="font_4_86" d="M.2889862 .25C.2889862 .32798768 .27799989 .44898988 .22299195 .56199648 .16299439 .68499758 .07699585 .75 .066986087 .75 .06098938 .75 .056991579 .74598696 .056991579 .73999026 .056991579 .7369995 .056991579 .7350006 .07598877 .71699526 .17399597 .6179962 .23098755 .45899964 .23098755 .25 .23098755 .07899475 .19400025-.09700012 .069992069-.2230072 .056991579-.23500061 .056991579-.23701477 .056991579-.2400055 .056991579-.2460022 .06098938-.25 .066986087-.25 .07699585-.25 .16699219-.18200684 .22599793-.055007936 .2769928 .054992677 .2889862 .16600037 .2889862 .25Z"/>
<path id="font_4_104" d="M.68499758 .45214845 .66600039 .6767578H.054992677L.035995485 .45214845H.06098938C.07499695 .6128235 .08999634 .64575198 .24099732 .64575198 .25898744 .64575198 .2849884 .64575198 .29499818 .64375308 .31599427 .6397705 .31599427 .6287842 .31599427 .60583499V.07901001C.31599427 .04499817 .31599427 .0309906 .21099854 .0309906H.17098999V0C.21199036 .0029907227 .31399537 .0029907227 .3600006 .0029907227 .4059906 .0029907227 .5089874 .0029907227 .5499878 0V.0309906H.5099945C.40499879 .0309906 .40499879 .04499817 .40499879 .07901001V.60583499C.40499879 .62579348 .40499879 .6397705 .4229889 .64375308 .43399049 .64575198 .46099855 .64575198 .47999574 .64575198 .6309967 .64575198 .6459961 .6128235 .6599884 .45214845H.68499758Z"/>
<path id="font_4_43" d="M.4149933 .119140628C.4149933 .12911988 .40499879 .12911988 .4019928 .12911988 .3929901 .12911988 .3909912 .12512207 .3889923 .119140628 .3600006 .026229859 .29499818 .014251709 .2579956 .014251709 .20498657 .014251709 .116989139 .0572052 .116989139 .21801758 .116989139 .38093568 .19898987 .42323304 .2519989 .42323304 .26098634 .42323304 .32398988 .42222596 .35899354 .38594056 .31799317 .38293458 .31199647 .3529358 .31199647 .3399353 .31199647 .31393434 .32998658 .2939453 .35798646 .2939453 .38398744 .2939453 .4039917 .3109436 .4039917 .34094239 .4039917 .40911866 .32798768 .4482422 .25099183 .4482422 .12599182 .4482422 .033996583 .3399353 .033996583 .21601868 .033996583 .08816528 .1329956-.0107421879 .24899292-.0107421879 .3829956-.0107421879 .4149933 .10914612 .4149933 .119140628Z"/>
<path id="font_5_2" d="M.48599244 .38136292C.48999024 .39537049 .48999024 .39736939 .48999024 .40437318 .48999024 .42237855 .47599793 .43138124 .46099855 .43138124 .45098878 .43138124 .43499757 .42536927 .42599488 .41036988 .42399598 .405365 .41600038 .37435914 .4119873 .35635377 .40499879 .33035279 .397995 .30334474 .3919983 .27633668L.34700013 .09628296C.34298707 .08126831 .2999878 .011245728 .23399353 .011245728 .18299866 .011245728 .17199707 .055267335 .17199707 .0922699 .17199707 .1382904 .18899536 .20030213 .22299195 .28833009 .23899842 .3293457 .24299622 .3403473 .24299622 .36035157 .24299622 .405365 .21099854 .4423828 .16099549 .4423828 .06599426 .4423828 .0289917 .29733277 .0289917 .28833009 .0289917 .27833558 .038986207 .27833558 .040985109 .27833558 .050994874 .27833558 .051986696 .28033448 .056991579 .29634095 .083999637 .3903656 .12399292 .42037965 .1579895 .42037965 .1659851 .42037965 .18299866 .42037965 .18299866 .3883667 .18299866 .36335755 .17298889 .3373413 .1659851 .31834413 .12599182 .21231079 .10798645 .1552887 .10798645 .10827637 .10798645 .019256592 .17098999-.0107421879 .22999573-.0107421879 .2689972-.0107421879 .30299378 .0062561037 .33099366 .03425598 .31799317-.017745972 .30599977-.06674194 .2659912-.11973572 .23999024-.15385437 .20199585-.18309021 .1559906-.18309021 .14199829-.18309021 .09700012-.18005371 .07998657-.14074707 .09599304-.14074707 .10899353-.14074707 .12298584-.1287384 .1329956-.11973572 .14299011-.10673523 .14299011-.08773804 .14299011-.056747438 .115997318-.052734376 .10598755-.052734376 .08299255-.052734376 .049987794-.068740848 .049987794-.11773682 .049987794-.16796875 .09399414-.20507813 .1559906-.20507813 .25898744-.20507813 .3619995-.11373901 .3899994-.00074768069L.48599244 .38136292Z"/>
</defs>
<path transform="matrix(1.00008,0,0,-1.00008,41.071077,155.40216)" stroke-width=".3985" stroke-linecap="butt" stroke-dasharray="2.98883,2.98883" stroke-miterlimit="10" stroke-linejoin="miter" fill="none" stroke="#e5e6e5" d="M0 0V153.59319M29.82932 0V153.59319M59.65863 0V153.59319M89.48796 0V153.59319M119.31728 0V153.59319M149.1466 0V153.59319M178.97592 0V153.59319M208.80525 0V153.59319M238.63457 0V153.59319"/>
<path transform="matrix(1.00008,0,0,-1.00008,41.071077,155.40216)" stroke-width=".3985" stroke-linecap="butt" stroke-dasharray="2.98883,2.98883" stroke-miterlimit="10" stroke-linejoin="miter" fill="none" stroke="#e5e6e5" d="M0 0H238.63457M0 27.92603H238.63457M0 55.85207H238.63457M0 83.77809H238.63457M0 111.70413H238.63457M0 139.63016H238.63457"/>
<path transform="matrix(1.00008,0,0,-1.00008,41.071077,155.40216)" stroke-width=".19925" stroke-linecap="butt" stroke-miterlimit="10" stroke-linejoin="miter" fill="none" stroke="#7f807f" d="M0-2.126V2.126M29.82932-2.126V2.126M59.65863-2.126V2.126M89.48796-2.126V2.126M119.31728-2.126V2.126M149.1466-2.126V2.126M178.97592-2.126V2.126M208.80525-2.126V2.126M238.63457-2.126V2.126"/>
<path transform="matrix(1.00008,0,0,-1.00008,41.071077,155.40216)" stroke-width=".19925" stroke-linecap="butt" stroke-miterlimit="10" stroke-linejoin="miter" fill="none" stroke="#7f807f" d="M-2.12595 0H2.12595M-2.12595 27.92603H2.12595M-2.12595 55.85207H2.12595M-2.12595 83.77809H2.12595M-2.12595 111.70413H2.12595M-2.12595 139.63016H2.12595"/>
<path transform="matrix(1.00008,0,0,-1.00008,41.071077,155.40216)" stroke-width=".3985" stroke-linecap="butt" stroke-miterlimit="10" stroke-linejoin="miter" fill="none" stroke="#000000" d="M0 0H236.64205"/>
<path transform="matrix(1.00008,0,0,-1.00008,277.73207,155.40216)" d="M1.99252 0-1.19551 1.59401 0 0-1.19551-1.59401"/>
<path transform="matrix(1.00008,0,0,-1.00008,41.071077,155.40216)" stroke-width=".3985" stroke-linecap="butt" stroke-miterlimit="10" stroke-linejoin="miter" fill="none" stroke="#000000" d="M0 0V151.60066"/>
<path transform="matrix(0,-1.00008,-1.00008,-0,41.071077,3.7893677)" d="M1.99252 0-1.19551 1.59401 0 0-1.19551-1.59401"/>
<use data-text="0" xlink:href="#font_1_1" transform="matrix(9.963397,0,0,-9.963397,38.57988,167.46912)"/>
<use data-text="1" xlink:href="#font_1_2" transform="matrix(9.963397,0,0,-9.963397,68.41226,167.46912)"/>
<use data-text="2" xlink:href="#font_1_3" transform="matrix(9.963397,0,0,-9.963397,98.24365,167.46912)"/>
<use data-text="3" xlink:href="#font_1_4" transform="matrix(9.963397,0,0,-9.963397,128.07505,167.46912)"/>
<use data-text="4" xlink:href="#font_1_5" transform="matrix(9.963397,0,0,-9.963397,157.90743,167.46912)"/>
<use data-text="5" xlink:href="#font_1_6" transform="matrix(9.963397,0,0,-9.963397,187.73882,167.46912)"/>
<use data-text="6" xlink:href="#font_1_7" transform="matrix(9.963397,0,0,-9.963397,217.57019,167.46912)"/>
<use data-text="7" xlink:href="#font_1_8" transform="matrix(9.963397,0,0,-9.963397,247.40259,167.46912)"/>
<use data-text="8" xlink:href="#font_1_9" transform="matrix(9.963397,0,0,-9.963397,277.23396,167.46912)"/>
<use data-text="5" xlink:href="#font_1_6" transform="matrix(9.963397,0,0,-9.963397,25.46083,158.61243)"/>
<use data-text="0" xlink:href="#font_1_1" transform="matrix(9.963397,0,0,-9.963397,30.44252,158.61243)"/>
<use data-text="6" xlink:href="#font_1_7" transform="matrix(9.963397,0,0,-9.963397,25.46083,130.68419)"/>
<use data-text="0" xlink:href="#font_1_1" transform="matrix(9.963397,0,0,-9.963397,30.44252,130.68419)"/>
<use data-text="7" xlink:href="#font_1_8" transform="matrix(9.963397,0,0,-9.963397,25.46083,102.75595)"/>
<use data-text="0" xlink:href="#font_1_1" transform="matrix(9.963397,0,0,-9.963397,30.44252,102.75595)"/>
<use data-text="8" xlink:href="#font_1_9" transform="matrix(9.963397,0,0,-9.963397,25.46083,74.82771)"/>
<use data-text="0" xlink:href="#font_1_1" transform="matrix(9.963397,0,0,-9.963397,30.44252,74.82771)"/>
<use data-text="9" xlink:href="#font_1_10" transform="matrix(9.963397,0,0,-9.963397,25.46083,46.899484)"/>
<use data-text="0" xlink:href="#font_1_1" transform="matrix(9.963397,0,0,-9.963397,30.44252,46.899484)"/>
<use data-text="1" xlink:href="#font_1_2" transform="matrix(9.963397,0,0,-9.963397,20.479432,18.971253)"/>
<use data-text="0" xlink:href="#font_1_1" transform="matrix(9.963397,0,0,-9.963397,25.46112,18.971253)"/>
<use data-text="0" xlink:href="#font_1_1" transform="matrix(9.963397,0,0,-9.963397,30.44281,18.971253)"/>
<g clip-path="url(#clip_2)">
</g>
<path transform="matrix(1.00008,0,0,-1.00008,41.071077,155.40216)" d="M47.7328 41.88904C47.7328 43.53975 46.39468 44.87787 44.74397 44.87787 43.09326 44.87787 41.75514 43.53975 41.75514 41.88904 41.75514 40.23834 43.09326 38.9002 44.74397 38.9002 46.39468 38.9002 47.7328 40.23834 47.7328 41.88904ZM44.74397 41.88904" fill="#0000b3"/>
<path transform="matrix(1.00008,0,0,-1.00008,41.071077,155.40216)" stroke-width=".3985" stroke-linecap="butt" stroke-miterlimit="10" stroke-linejoin="miter" fill="none" stroke="#0000b3" d="M47.7328 41.88904C47.7328 43.53975 46.39468 44.87787 44.74397 44.87787 43.09326 44.87787 41.75514 43.53975 41.75514 41.88904 41.75514 40.23834 43.09326 38.9002 44.74397 38.9002 46.39468 38.9002 47.7328 40.23834 47.7328 41.88904ZM44.74397 41.88904"/>
<path transform="matrix(1.00008,0,0,-1.00008,41.071077,155.40216)" stroke-width=".3985" stroke-linecap="butt" stroke-miterlimit="10" stroke-linejoin="miter" fill="none" stroke="#0000b3" d=""/>
<use data-text="A" xlink:href="#font_3_27" transform="matrix(7.9707376,0,0,-7.9707376,82.6464,107.00029)"/>
<path transform="matrix(1.00008,0,0,-1.00008,41.071077,155.40216)" d="M62.64746 61.43727C62.64746 63.08798 61.30934 64.4261 59.65863 64.4261 58.00793 64.4261 56.6698 63.08798 56.6698 61.43727 56.6698 59.78656 58.00793 58.44844 59.65863 58.44844 61.30934 58.44844 62.64746 59.78656 62.64746 61.43727ZM59.65863 61.43727" fill="#0000b3"/>
<path transform="matrix(1.00008,0,0,-1.00008,41.071077,155.40216)" stroke-width=".3985" stroke-linecap="butt" stroke-miterlimit="10" stroke-linejoin="miter" fill="none" stroke="#0000b3" d="M62.64746 61.43727C62.64746 63.08798 61.30934 64.4261 59.65863 64.4261 58.00793 64.4261 56.6698 63.08798 56.6698 61.43727 56.6698 59.78656 58.00793 58.44844 59.65863 58.44844 61.30934 58.44844 62.64746 59.78656 62.64746 61.43727ZM59.65863 61.43727"/>
<path transform="matrix(1.00008,0,0,-1.00008,41.071077,155.40216)" stroke-width=".3985" stroke-linecap="butt" stroke-miterlimit="10" stroke-linejoin="miter" fill="none" stroke="#0000b3" d=""/>
<use data-text="B" xlink:href="#font_3_34" transform="matrix(7.9707376,0,0,-7.9707376,97.73761,87.45073)"/>
<path transform="matrix(1.00008,0,0,-1.00008,41.071077,155.40216)" d="M107.39145 83.77809C107.39145 85.4288 106.05333 86.76692 104.40262 86.76692 102.7519 86.76692 101.41379 85.4288 101.41379 83.77809 101.41379 82.1274 102.7519 80.78926 104.40262 80.78926 106.05333 80.78926 107.39145 82.1274 107.39145 83.77809ZM104.40262 83.77809" fill="#0000b3"/>
<path transform="matrix(1.00008,0,0,-1.00008,41.071077,155.40216)" stroke-width=".3985" stroke-linecap="butt" stroke-miterlimit="10" stroke-linejoin="miter" fill="none" stroke="#0000b3" d="M107.39145 83.77809C107.39145 85.4288 106.05333 86.76692 104.40262 86.76692 102.7519 86.76692 101.41379 85.4288 101.41379 83.77809 101.41379 82.1274 102.7519 80.78926 104.40262 80.78926 106.05333 80.78926 107.39145 82.1274 107.39145 83.77809ZM104.40262 83.77809"/>
<path transform="matrix(1.00008,0,0,-1.00008,41.071077,155.40216)" stroke-width=".3985" stroke-linecap="butt" stroke-miterlimit="10" stroke-linejoin="miter" fill="none" stroke="#0000b3" d=""/>
<use data-text="C" xlink:href="#font_3_42" transform="matrix(7.9707376,0,0,-7.9707376,142.42519,64.940929)"/>
<path transform="matrix(1.00008,0,0,-1.00008,41.071077,155.40216)" d="M122.3061 78.19289C122.3061 79.8436 120.96799 81.18172 119.31728 81.18172 117.66658 81.18172 116.32845 79.8436 116.32845 78.19289 116.32845 76.54218 117.66658 75.20406 119.31728 75.20406 120.96799 75.20406 122.3061 76.54218 122.3061 78.19289ZM119.31728 78.19289" fill="#0000b3"/>
<path transform="matrix(1.00008,0,0,-1.00008,41.071077,155.40216)" stroke-width=".3985" stroke-linecap="butt" stroke-miterlimit="10" stroke-linejoin="miter" fill="none" stroke="#0000b3" d="M122.3061 78.19289C122.3061 79.8436 120.96799 81.18172 119.31728 81.18172 117.66658 81.18172 116.32845 79.8436 116.32845 78.19289 116.32845 76.54218 117.66658 75.20406 119.31728 75.20406 120.96799 75.20406 122.3061 76.54218 122.3061 78.19289ZM119.31728 78.19289"/>
<path transform="matrix(1.00008,0,0,-1.00008,41.071077,155.40216)" stroke-width=".3985" stroke-linecap="butt" stroke-miterlimit="10" stroke-linejoin="miter" fill="none" stroke="#0000b3" d=""/>
<use data-text="D" xlink:href="#font_3_46" transform="matrix(7.9707376,0,0,-7.9707376,157.16536,70.69338)"/>
<path transform="matrix(1.00008,0,0,-1.00008,41.071077,155.40216)" d="M167.0501 106.11893C167.0501 107.76962 165.71198 109.10776 164.06127 109.10776 162.41056 109.10776 161.07244 107.76962 161.07244 106.11893 161.07244 104.46822 162.41056 103.1301 164.06127 103.1301 165.71198 103.1301 167.0501 104.46822 167.0501 106.11893ZM164.06127 106.11893" fill="#0000b3"/>
<path transform="matrix(1.00008,0,0,-1.00008,41.071077,155.40216)" stroke-width=".3985" stroke-linecap="butt" stroke-miterlimit="10" stroke-linejoin="miter" fill="none" stroke="#0000b3" d="M167.0501 106.11893C167.0501 107.76962 165.71198 109.10776 164.06127 109.10776 162.41056 109.10776 161.07244 107.76962 161.07244 106.11893 161.07244 104.46822 162.41056 103.1301 164.06127 103.1301 165.71198 103.1301 167.0501 104.46822 167.0501 106.11893ZM164.06127 106.11893"/>
<path transform="matrix(1.00008,0,0,-1.00008,41.071077,155.40216)" stroke-width=".3985" stroke-linecap="butt" stroke-miterlimit="10" stroke-linejoin="miter" fill="none" stroke="#0000b3" d=""/>
<use data-text="E" xlink:href="#font_3_49" transform="matrix(7.9707376,0,0,-7.9707376,202.26396,42.765153)"/>
<path transform="matrix(1.00008,0,0,-1.00008,41.071077,155.40216)" d="M181.96475 125.66714C181.96475 127.31786 180.62664 128.65598 178.97592 128.65598 177.32521 128.65598 175.98709 127.31786 175.98709 125.66714 175.98709 124.01643 177.32521 122.67831 178.97592 122.67831 180.62664 122.67831 181.96475 124.01643 181.96475 125.66714ZM178.97592 125.66714" fill="#0000b3"/>
<path transform="matrix(1.00008,0,0,-1.00008,41.071077,155.40216)" stroke-width=".3985" stroke-linecap="butt" stroke-miterlimit="10" stroke-linejoin="miter" fill="none" stroke="#0000b3" d="M181.96475 125.66714C181.96475 127.31786 180.62664 128.65598 178.97592 128.65598 177.32521 128.65598 175.98709 127.31786 175.98709 125.66714 175.98709 124.01643 177.32521 122.67831 178.97592 122.67831 180.62664 122.67831 181.96475 124.01643 181.96475 125.66714ZM178.97592 125.66714"/>
<path transform="matrix(1.00008,0,0,-1.00008,41.071077,155.40216)" stroke-width=".3985" stroke-linecap="butt" stroke-miterlimit="10" stroke-linejoin="miter" fill="none" stroke="#0000b3" d=""/>
<use data-text="F" xlink:href="#font_3_54" transform="matrix(7.9707376,0,0,-7.9707376,217.29918,23.215592)"/>
<path transform="matrix(1.00008,0,0,-1.00008,41.071077,155.40216)" d="M196.87941 111.70413C196.87941 113.35484 195.54129 114.69296 193.89058 114.69296 192.23989 114.69296 190.90175 113.35484 190.90175 111.70413 190.90175 110.05342 192.23989 108.7153 193.89058 108.7153 195.54129 108.7153 196.87941 110.05342 196.87941 111.70413ZM193.89058 111.70413" fill="#0000b3"/>
<path transform="matrix(1.00008,0,0,-1.00008,41.071077,155.40216)" stroke-width=".3985" stroke-linecap="butt" stroke-miterlimit="10" stroke-linejoin="miter" fill="none" stroke="#0000b3" d="M196.87941 111.70413C196.87941 113.35484 195.54129 114.69296 193.89058 114.69296 192.23989 114.69296 190.90175 113.35484 190.90175 111.70413 190.90175 110.05342 192.23989 108.7153 193.89058 108.7153 195.54129 108.7153 196.87941 110.05342 196.87941 111.70413ZM193.89058 111.70413"/>
<path transform="matrix(1.00008,0,0,-1.00008,41.071077,155.40216)" stroke-width=".3985" stroke-linecap="butt" stroke-miterlimit="10" stroke-linejoin="miter" fill="none" stroke="#0000b3" d=""/>
<use data-text="G" xlink:href="#font_3_58" transform="matrix(7.9707376,0,0,-7.9707376,231.65332,37.012697)"/>
<path transform="matrix(1.00008,0,0,-1.00008,41.071077,155.40216)" d="M211.79409 134.04496C211.79409 135.69567 210.45595 137.03379 208.80525 137.03379 207.15454 137.03379 205.81642 135.69567 205.81642 134.04496 205.81642 132.39426 207.15454 131.05612 208.80525 131.05612 210.45595 131.05612 211.79409 132.39426 211.79409 134.04496ZM208.80525 134.04496" fill="#0000b3"/>
<path transform="matrix(1.00008,0,0,-1.00008,41.071077,155.40216)" stroke-width=".3985" stroke-linecap="butt" stroke-miterlimit="10" stroke-linejoin="miter" fill="none" stroke="#0000b3" d="M211.79409 134.04496C211.79409 135.69567 210.45595 137.03379 208.80525 137.03379 207.15454 137.03379 205.81642 135.69567 205.81642 134.04496 205.81642 132.39426 207.15454 131.05612 208.80525 131.05612 210.45595 131.05612 211.79409 132.39426 211.79409 134.04496ZM208.80525 134.04496"/>
<path transform="matrix(1.00008,0,0,-1.00008,41.071077,155.40216)" stroke-width=".3985" stroke-linecap="butt" stroke-miterlimit="10" stroke-linejoin="miter" fill="none" stroke="#0000b3" d=""/>
<use data-text="H" xlink:href="#font_3_62" transform="matrix(7.9707376,0,0,-7.9707376,246.72052,14.836914)"/>
<path transform="matrix(1.00008,0,0,-1.00008,41.071077,155.40216)" stroke-width=".3985" stroke-linecap="butt" stroke-miterlimit="10" stroke-linejoin="miter" fill="none" stroke="#0000b3" d=""/>
<use data-text="H" xlink:href="#font_4_62" transform="matrix(9.963397,0,0,-9.963397,120.82945,181.34024)"/>
<use data-text="o" xlink:href="#font_4_81" transform="matrix(9.963397,0,0,-9.963397,128.302,181.34024)"/>
<use data-text="u" xlink:href="#font_4_109" transform="matrix(9.963397,0,0,-9.963397,133.28369,181.34024)"/>
<use data-text="r" xlink:href="#font_4_96" transform="matrix(9.963397,0,0,-9.963397,138.82335,181.34024)"/>
<use data-text="s" xlink:href="#font_4_98" transform="matrix(9.963397,0,0,-9.963397,142.72899,181.34024)"/>
<use data-text="S" xlink:href="#font_4_97" transform="matrix(9.963397,0,0,-9.963397,149.96242,181.34024)"/>
<use data-text="t" xlink:href="#font_4_105" transform="matrix(9.963397,0,0,-9.963397,155.50206,181.34024)"/>
<use data-text="u" xlink:href="#font_4_109" transform="matrix(9.963397,0,0,-9.963397,159.37783,181.34024)"/>
<use data-text="d" xlink:href="#font_4_47" transform="matrix(9.963397,0,0,-9.963397,164.91747,181.34024)"/>
<use data-text="i" xlink:href="#font_4_66" transform="matrix(9.963397,0,0,-9.963397,170.4571,181.34024)"/>
<use data-text="e" xlink:href="#font_4_50" transform="matrix(9.963397,0,0,-9.963397,173.22695,181.34024)"/>
<use data-text="d" xlink:href="#font_4_47" transform="matrix(9.963397,0,0,-9.963397,177.6507,181.34024)"/>
<use data-text="(" xlink:href="#font_4_85" transform="matrix(9.963397,0,0,-9.963397,186.50815,181.34024)"/>
<use data-text="x" xlink:href="#font_5_1" transform="matrix(9.963397,0,0,-9.963397,190.39403,181.34024)"/>
<use data-text=")" xlink:href="#font_4_86" transform="matrix(9.963397,0,0,-9.963397,196.08849,181.34024)"/>
<use data-text="T" xlink:href="#font_4_104" transform="matrix(0,-9.963397,-9.963397,-0,8.689491,109.34747)"/>
<use data-text="e" xlink:href="#font_4_50" transform="matrix(0,-9.963397,-9.963397,-0,8.689491,102.98085)"/>
<use data-text="s" xlink:href="#font_4_98" transform="matrix(0,-9.963397,-9.963397,-0,8.689491,98.5571)"/>
<use data-text="t" xlink:href="#font_4_105" transform="matrix(0,-9.963397,-9.963397,-0,8.689491,94.63153)"/>
<use data-text="S" xlink:href="#font_4_97" transform="matrix(0,-9.963397,-9.963397,-0,8.689491,87.44791)"/>
<use data-text="c" xlink:href="#font_4_43" transform="matrix(0,-9.963397,-9.963397,-0,8.689491,81.908267)"/>
<use data-text="o" xlink:href="#font_4_81" transform="matrix(0,-9.963397,-9.963397,-0,8.689491,77.48451)"/>
<use data-text="r" xlink:href="#font_4_96" transform="matrix(0,-9.963397,-9.963397,-0,8.689491,72.50282)"/>
<use data-text="e" xlink:href="#font_4_50" transform="matrix(0,-9.963397,-9.963397,-0,8.689491,68.59717)"/>
<use data-text="(" xlink:href="#font_4_85" transform="matrix(0,-9.963397,-9.963397,-0,8.689491,60.855607)"/>
<use data-text="y" xlink:href="#font_5_2" transform="matrix(0,-9.963397,-9.963397,-0,8.689491,56.970277)"/>
<use data-text=")" xlink:href="#font_4_86" transform="matrix(0,-9.963397,-9.963397,-0,8.689491,51.72786)"/>
</svg>
