<svg xmlns="http://www.w3.org/2000/svg" xmlns:xlink="http://www.w3.org/1999/xlink" xmlns:inkscape="http://www.inkscape.org/namespaces/inkscape" version="1.1" width="173" height="173" viewBox="0 0 173 173">
<defs>
<path id="font_1_1" d="M.33399964 .30233766C.33999635 .32835389 .36299134 .42037965 .43299867 .42037965 .43798829 .42037965 .46199037 .42037965 .48298646 .40734864 .45498658 .402359 .43499757 .37734986 .43499757 .35334779 .43499757 .33735658 .44599916 .31835938 .47299195 .31835938 .49499513 .31835938 .5269928 .3363495 .5269928 .37635804 .5269928 .42837525 .46798707 .4423828 .43399049 .4423828 .37599183 .4423828 .34098817 .38935853 .32899476 .36634828 .3039856 .43237306 .25 .4423828 .22099304 .4423828 .116989139 .4423828 .05999756 .3133545 .05999756 .28834535 .05999756 .27833558 .069992069 .27833558 .07199097 .27833558 .07998657 .27833558 .08299255 .28033448 .084991458 .28933717 .11898804 .39535523 .18499756 .42037965 .21899414 .42037965 .23799134 .42037965 .272995 .4113617 .272995 .35334779 .272995 .32235719 .2559967 .25532533 .21899414 .11528015 .20298767 .053268434 .16799927 .011245728 .12399292 .011245728 .117996219 .011245728 .09498596 .011245728 .07398987 .024276734 .09899902 .029266358 .12098694 .05027771 .12098694 .07827759 .12098694 .105270389 .09899902 .11328125 .083999637 .11328125 .053985597 .11328125 .0289917 .08728027 .0289917 .055267335 .0289917 .009246826 .07899475-.0107421879 .12298584-.0107421879 .18899536-.0107421879 .22499085 .059280397 .22799683 .0652771 .23999024 .028274537 .27598573-.0107421879 .33599855-.0107421879 .43899537-.0107421879 .49598695 .118270877 .49598695 .14328003 .49598695 .1532898 .4869995 .1532898 .48399354 .1532898 .47499085 .1532898 .47299195 .14929199 .47099305 .14228821 .43798829 .03527832 .36999513 .011245728 .33799745 .011245728 .29899598 .011245728 .2829895 .043273927 .2829895 .07727051 .2829895 .09927368 .2889862 .121276859 .2999878 .16529846L.33399964 .30233766Z"/>
<path id="font_1_2" d="M.48599244 .38136292C.48999024 .39537049 .48999024 .39736939 .48999024 .40437318 .48999024 .42237855 .47599793 .43138124 .46099855 .43138124 .45098878 .43138124 .43499757 .42536927 .42599488 .41036988 .42399598 .405365 .41600038 .37435914 .4119873 .35635377 .40499879 .33035279 .397995 .30334474 .3919983 .27633668L.34700013 .09628296C.34298707 .08126831 .2999878 .011245728 .23399353 .011245728 .18299866 .011245728 .17199707 .055267335 .17199707 .0922699 .17199707 .1382904 .18899536 .20030213 .22299195 .28833009 .23899842 .3293457 .24299622 .3403473 .24299622 .36035157 .24299622 .405365 .21099854 .4423828 .16099549 .4423828 .06599426 .4423828 .0289917 .29733277 .0289917 .28833009 .0289917 .27833558 .038986207 .27833558 .040985109 .27833558 .050994874 .27833558 .051986696 .28033448 .056991579 .29634095 .083999637 .3903656 .12399292 .42037965 .1579895 .42037965 .1659851 .42037965 .18299866 .42037965 .18299866 .3883667 .18299866 .36335755 .17298889 .3373413 .1659851 .31834413 .12599182 .21231079 .10798645 .1552887 .10798645 .10827637 .10798645 .019256592 .17098999-.0107421879 .22999573-.0107421879 .2689972-.0107421879 .30299378 .0062561037 .33099366 .03425598 .31799317-.017745972 .30599977-.06674194 .2659912-.11973572 .23999024-.15385437 .20199585-.18309021 .1559906-.18309021 .14199829-.18309021 .09700012-.18005371 .07998657-.14074707 .09599304-.14074707 .10899353-.14074707 .12298584-.1287384 .1329956-.11973572 .14299011-.10673523 .14299011-.08773804 .14299011-.056747438 .115997318-.052734376 .10598755-.052734376 .08299255-.052734376 .049987794-.068740848 .049987794-.11773682 .049987794-.16796875 .09399414-.20507813 .1559906-.20507813 .25898744-.20507813 .3619995-.11373901 .3899994-.00074768069L.48599244 .38136292Z"/>
<path id="font_2_3" d="M.2939911 .64004519C.2939911 .66400149 .2939911 .6660156 .2709961 .6660156 .20899964 .60227969 .12098694 .60227969 .08898926 .60227969V.57128909C.10899353 .57128909 .16799927 .57128909 .21998596 .5972748V.07902527C.21998596 .042999269 .21699524 .0309906 .1269989 .0309906H.09498596V0C.12998963 .0029907227 .21699524 .0029907227 .25698854 .0029907227 .29699708 .0029907227 .38398744 .0029907227 .4189911 0V.0309906H.3869934C.29699708 .0309906 .2939911 .041992189 .2939911 .07902527V.64004519Z"/>
<path id="font_2_4" d="M.1269989 .07699585 .23298645 .18003845C.3889923 .31811524 .44898988 .3721466 .44898988 .47216798 .44898988 .5860901 .35899354 .6660156 .23699951 .6660156 .12399292 .6660156 .049987794 .57411196 .049987794 .48516847 .049987794 .4291687 .099990848 .4291687 .102996829 .4291687 .11999512 .4291687 .15499878 .44117738 .15499878 .48217774 .15499878 .5081787 .13699341 .5341797 .101989749 .5341797 .09399414 .5341797 .09199524 .5341797 .08898926 .5331726 .11199951 .59806826 .1659851 .63500979 .22399903 .63500979 .31498719 .63500979 .35798646 .5541382 .35798646 .47216798 .35798646 .39215089 .30799867 .31311036 .25299073 .25108338L.06098938 .036987306C.049987794 .025985718 .049987794 .023986817 .049987794 0H.42099L.44898988 .17404175H.42399598C.4189911 .14402771 .4119873 .1000061 .4019928 .084991458 .394989 .07699585 .32899476 .07699585 .30699159 .07699585H.1269989Z"/>
<path id="font_3_1" d="M.20298767 .3371582V.4501953L.036987306 .44218446V.39518739C.09899902 .39518739 .10598755 .39518739 .10598755 .35617066V.04699707H.036987306V0C.07199097 .0009918213 .116989139 .0029907227 .16299439 .0029907227 .20098877 .0029907227 .2649994 .0029907227 .30099488 0V.04699707H.21398926V.22209168C.21398926 .2921753 .23899842 .41418458 .33898927 .41418458 .33799745 .41319276 .31999208 .39718629 .31999208 .36819459 .31999208 .3271942 .35198976 .30718995 .3809967 .30718995 .4099884 .30718995 .44198609 .32818605 .44198609 .36819459 .44198609 .42118836 .3880005 .4501953 .33599855 .4501953 .2659912 .4501953 .22599793 .40019227 .20298767 .3371582Z"/>
<path id="font_2_1" d="M.33099366-.2400055C.33099366-.23701477 .33099366-.23500061 .31399537-.21800232 .18899536-.0920105 .15699768 .09700012 .15699768 .25 .15699768 .42399598 .19499207 .59799197 .31799317 .72299197 .33099366 .73498538 .33099366 .7369995 .33099366 .73999026 .33099366 .746994 .32699586 .75 .32099916 .75 .31098939 .75 .22099304 .6819916 .1619873 .5549927 .11099243 .44499208 .09899902 .33399964 .09899902 .25 .09899902 .17199707 .10998535 .050994874 .16499329-.06201172 .22499085-.18501282 .31098939-.25 .32099916-.25 .32699586-.25 .33099366-.24700928 .33099366-.2400055Z"/>
<path id="font_2_2" d="M.2889862 .25C.2889862 .32798768 .27799989 .44898988 .22299195 .56199648 .16299439 .68499758 .07699585 .75 .066986087 .75 .06098938 .75 .056991579 .74598696 .056991579 .73999026 .056991579 .7369995 .056991579 .73498538 .07598877 .71699526 .17399597 .6179962 .23098755 .45899964 .23098755 .25 .23098755 .07899475 .19400025-.09700012 .069992069-.2230072 .056991579-.23500061 .056991579-.23701477 .056991579-.2400055 .056991579-.2460022 .06098938-.25 .066986087-.25 .07699585-.25 .16699219-.18200684 .22599793-.055007936 .2769928 .054992677 .2889862 .16600037 .2889862 .25Z"/>
<path id="font_4_1" d="M.2899933 .4720459C.2979889 .4890442 .29899598 .49705506 .29899598 .5040436 .29899598 .53504946 .2709961 .5590515 .23999024 .5590515 .20199585 .5590515 .18998719 .52804568 .18499756 .51205447L.052993776 .07901001C.051986696 .07701111 .04798889 .06401062 .04798889 .06300354 .04798889 .05101013 .07899475 .041015626 .08699036 .041015626 .09399414 .041015626 .09498596 .043014528 .101989749 .058013917L.2899933 .4720459Z"/>
</defs>
<path transform="matrix(1.00002,0,0,-1,29.642235,142.731)" stroke-width=".79701" stroke-linecap="butt" stroke-miterlimit="10" stroke-linejoin="miter" fill="none" stroke="#000000" d="M-28.34679 0H141.02666"/>
<path transform="matrix(1.00002,0,0,-1,170.67173,142.731)" stroke-width=".6376" stroke-linecap="round" stroke-linejoin="round" fill="none" stroke="#000000" d="M-1.55415 2.0722C-1.42464 1.29512 0 .1295 .38852 0 0-.1295-1.42464-1.29512-1.55415-2.0722"/>
<use data-text="x" xlink:href="#font_1_1" transform="matrix(9.962799,0,0,-9.9626,163.29392,149.412)"/>
<path transform="matrix(1.00002,0,0,-1,29.642235,142.731)" stroke-width=".79701" stroke-linecap="butt" stroke-miterlimit="10" stroke-linejoin="miter" fill="none" stroke="#000000" d="M0-28.34679V141.02666"/>
<path transform="matrix(0,-1,-1.00002,-0,29.642235,1.7043457)" stroke-width=".6376" stroke-linecap="round" stroke-linejoin="round" fill="none" stroke="#000000" d="M-1.55415 2.0722C-1.42464 1.29512 0 .1295 .38852 0 0-.1295-1.42464-1.29512-1.55415-2.0722"/>
<use data-text="y" xlink:href="#font_1_2" transform="matrix(9.962799,0,0,-9.9626,32.03328,7.678009)"/>
<path transform="matrix(1.00002,0,0,-1,29.642235,142.731)" stroke-width=".3985" stroke-linecap="butt" stroke-miterlimit="10" stroke-linejoin="miter" fill="none" stroke="#000000" d="M56.69362 2.83482V-2.83482"/>
<use data-text="1" xlink:href="#font_2_3" transform="matrix(9.962799,0,0,-9.9626,83.84632,155.506)"/>
<path transform="matrix(1.00002,0,0,-1,29.642235,142.731)" stroke-width=".3985" stroke-linecap="butt" stroke-miterlimit="10" stroke-linejoin="miter" fill="none" stroke="#000000" d="M113.38724 2.83482V-2.83482"/>
<use data-text="2" xlink:href="#font_2_4" transform="matrix(9.962799,0,0,-9.9626,140.54146,155.506)"/>
<path transform="matrix(1.00002,0,0,-1,29.642235,142.731)" stroke-width=".3985" stroke-linecap="butt" stroke-miterlimit="10" stroke-linejoin="miter" fill="none" stroke="#000000" d="M2.83482 56.69362H-2.83482"/>
<use data-text="1" xlink:href="#font_2_3" transform="matrix(9.962799,0,0,-9.9626,18.306008,89.248)"/>
<path transform="matrix(1.00002,0,0,-1,29.642235,142.731)" stroke-width=".3985" stroke-linecap="butt" stroke-miterlimit="10" stroke-linejoin="miter" fill="none" stroke="#000000" d="M2.83482 113.38724H-2.83482"/>
<use data-text="2" xlink:href="#font_2_4" transform="matrix(9.962799,0,0,-9.9626,18.306008,32.554)"/>
<path transform="matrix(1.00002,0,0,-1,29.642235,142.731)" stroke-width=".79701" stroke-linecap="butt" stroke-miterlimit="10" stroke-linejoin="miter" fill="none" stroke="#7f807f" d="M0 113.38724C0 113.38724 1.57504 113.3506 2.17996 113.30417 2.78487 113.25774 3.75504 113.14555 4.35995 113.05243 4.96487 112.95929 5.93503 112.77246 6.53995 112.63287 7.14487 112.4933 8.11502 112.23239 8.71994 112.04636 9.32486 111.86032 10.29501 111.5246 10.89993 111.292 11.50485 111.05942 12.475 110.64899 13.07993 110.36983 13.68484 110.09065 14.655 109.60547 15.25992 109.27985 15.86484 108.95421 16.83499 108.39496 17.43991 108.02287 18.04483 107.6508 19.015 107.01672 19.6199 106.59808 20.22482 106.17946 21.19499 105.4707 21.7999 105.0055 22.40482 104.54028 23.37498 103.75687 23.9799 103.24509 24.58481 102.73329 25.55495 101.87517 26.15987 101.3168 26.76477 100.75844 27.73494 99.82552 28.33986 99.22072 28.94478 98.61592 29.91493 97.60895 30.51985 96.95769 31.12477 96.30644 32.09492 95.22467 32.69984 94.52684 33.30476 93.82901 34.27492 92.67244 34.87984 91.92815 35.48476 91.18385 36.45491 89.95332 37.05983 89.16249 37.66475 88.37164 38.6349 87.06558 39.23982 86.22816 39.84474 85.39075 40.8149 84.01074 41.41982 83.12688 42.02473 82.243 42.9949 80.78821 43.59981 79.85774 44.20473 78.92729 45.1749 77.3978 45.7798 76.42079 46.38472 75.44379 47.35489 73.83946 47.95981 72.81601 48.56471 71.79256 49.53488 70.11432 50.1398 69.04428 50.74472 67.97424 51.71484 66.22047 52.31976 65.10387 52.92468 63.98724 53.89484 62.15952 54.49976 60.99648 55.10468 59.83344 56.07483 57.93079 56.67975 56.72128 57.28467 55.51178 58.25482 53.53519 58.85974 52.27911 59.46466 51.02303 60.43481 48.97092 61.03973 47.66826 61.64465 46.3656 62.6148 44.23955 63.21973 42.89046 63.82465 41.54138 64.7948 39.34047 65.39972 37.9448 66.00464 36.54913 66.97481 34.27357 67.57971 32.83134 68.18463 31.3891 69.1548 29.03876 69.75972 27.55005 70.36462 26.06136 71.3348 23.63695 71.93971 22.10182 72.54462 20.56668 73.51479 18.06743 74.1197 16.48572 74.72462 14.904 75.69475 12.33011 76.29967 10.70181 76.90459 9.07353 77.87474 6.42496 78.47966 4.75012 79.08458 3.07529 80.05473 .35188 80.65965-1.36938 81.26457-3.09068 82.23473-5.88802 82.83965-7.65588 83.44456-9.42377 85.01964-14.11111 85.01964-14.11111"/>
<path transform="matrix(1.00002,0,0,-1,29.642235,142.731)" stroke-width="1.59404" stroke-linecap="butt" stroke-miterlimit="10" stroke-linejoin="miter" fill="none" stroke="#0000ff" d="M0 0 55.8412 55.8412"/>
<path transform="matrix(.70711418,-.7071,-.70711418,-.7071,85.48454,86.88982)" stroke-width="1.27522" stroke-linecap="round" stroke-linejoin="round" fill="none" stroke="#0000ff" d="M-2.27148 3.02866C-2.0822 1.8929 0 .18927 .56786 0 0-.18927-2.0822-1.8929-2.27148-3.02866"/>
<use data-text="r" xlink:href="#font_3_1" transform="matrix(9.962799,0,0,-9.9626,37.020387,108.37401)" fill="#0000ff"/>
<use data-text="(" xlink:href="#font_2_1" transform="matrix(9.962799,0,0,-9.9626,41.73848,108.37401)" fill="#0000ff"/>
<use data-text="1" xlink:href="#font_2_3" transform="matrix(9.962799,0,0,-9.9626,45.60405,108.37401)" fill="#0000ff"/>
<use data-text=")" xlink:href="#font_2_2" transform="matrix(9.962799,0,0,-9.9626,50.58545,108.37401)" fill="#0000ff"/>
<path transform="matrix(1.00002,0,0,-1,29.642235,142.731)" stroke-width="1.59404" stroke-linecap="butt" stroke-miterlimit="10" stroke-linejoin="miter" fill="none" stroke="#ff0000" d="M56.69362 56.69362 84.50134 1.07814"/>
<path transform="matrix(.44717894,.89436,.89437797,-.44717,114.14527,141.65287)" stroke-width="1.27522" stroke-linecap="round" stroke-linejoin="round" fill="none" stroke="#ff0000" d="M-2.27148 3.02866C-2.0822 1.8929 0 .18927 .56786 0 0-.18927-2.0822-1.8929-2.27148-3.02866"/>
<use data-text="r" xlink:href="#font_3_1" transform="matrix(9.962799,0,0,-9.9626,104.03072,108.37401)" fill="#ff0000"/>
<use data-text="&#x2032;" xlink:href="#font_4_1" transform="matrix(6.97394,0,0,-6.9738,108.74882,104.75801)" fill="#ff0000"/>
<use data-text="(" xlink:href="#font_2_1" transform="matrix(9.962799,0,0,-9.9626,111.54388,108.37401)" fill="#ff0000"/>
<use data-text="1" xlink:href="#font_2_3" transform="matrix(9.962799,0,0,-9.9626,115.40944,108.37401)" fill="#ff0000"/>
<use data-text=")" xlink:href="#font_2_2" transform="matrix(9.962799,0,0,-9.9626,120.39084,108.37401)" fill="#ff0000"/>
<path transform="matrix(1.00002,0,0,-1,29.642235,142.731)" d="M58.68617 56.69362C58.68617 57.79408 57.79408 58.68617 56.69362 58.68617 55.59314 58.68617 54.70107 57.79408 54.70107 56.69362 54.70107 55.59314 55.59314 54.70107 56.69362 54.70107 57.79408 54.70107 58.68617 55.59314 58.68617 56.69362ZM56.69362 56.69362"/>
<path transform="matrix(1.00002,0,0,-1,29.642235,142.731)" stroke-width=".3985" stroke-linecap="butt" stroke-miterlimit="10" stroke-linejoin="miter" fill="none" stroke="#000000" d="M58.68617 56.69362C58.68617 57.79408 57.79408 58.68617 56.69362 58.68617 55.59314 58.68617 54.70107 57.79408 54.70107 56.69362 54.70107 55.59314 55.59314 54.70107 56.69362 54.70107 57.79408 54.70107 58.68617 55.59314 58.68617 56.69362ZM56.69362 56.69362"/>
</svg>
