<svg xmlns="http://www.w3.org/2000/svg" xmlns:xlink="http://www.w3.org/1999/xlink" xmlns:inkscape="http://www.inkscape.org/namespaces/inkscape" version="1.1" width="212" height="168" viewBox="0 0 212 168">
<defs>
<path id="font_1_4" d="M.49198915 .40434266C.45498658 .39733888 .44400025 .3653412 .44400025 .3503418 .44400025 .33132936 .45799256 .31433106 .48298646 .31433106 .5109863 .31433106 .5379944 .33833314 .5379944 .3733368 .5379944 .41937257 .48799134 .4423828 .44099427 .4423828 .3809967 .4423828 .34599305 .38934327 .33399964 .3683319 .31498719 .41737367 .2709961 .4423828 .22299195 .4423828 .115997318 .4423828 .057998659 .31433106 .057998659 .28833009 .057998659 .2793274 .06498718 .2763214 .07199097 .2763214 .08099365 .2763214 .083999637 .2813263 .085998538 .287323 .116989139 .38633729 .18299866 .41737367 .22099304 .41737367 .25 .41737367 .27598573 .3983307 .27598573 .35133363 .27598573 .31533814 .23298645 .15530396 .21998596 .107284549 .21199036 .076293949 .18199158 .014251709 .1269989 .014251709 .10699463 .014251709 .085998538 .021270752 .07598877 .027282715 .102996829 .032287599 .12298584 .055282594 .12298584 .08128357 .12298584 .106292728 .10398865 .11729431 .084991458 .11729431 .055999757 .11729431 .02999878 .092285159 .02999878 .058288576 .02999878 .009246826 .083999637-.0107421879 .12599182-.0107421879 .18399048-.0107421879 .21798706 .03729248 .23298645 .06428528 .2579956-.0017547608 .31698609-.0107421879 .34399415-.0107421879 .45199586-.0107421879 .5089874 .11929321 .5089874 .14329529 .5089874 .14830017 .5059967 .15530396 .49598695 .15530396 .4850006 .15530396 .48399354 .1512909 .47898866 .1362915 .45700074 .06428528 .39898683 .014251709 .34700013 .014251709 .31799317 .014251709 .29100038 .032287599 .29100038 .08029175 .29100038 .10229492 .30499269 .15730286 .31399537 .1953125 .31799317 .21331787 .34498597 .32133485 .34700013 .32833863 .35899354 .3643341 .3889923 .41737367 .43998719 .41737367 .45799256 .41737367 .47698976 .41436769 .49198915 .40434266Z"/>
<path id="font_1_5" d="M.5019989 .38536073C.5029907 .3903656 .5049896 .39637757 .5049896 .40237428 .5049896 .41537477 .49598695 .43138124 .47399903 .43138124 .46099855 .43138124 .44299317 .42337037 .43499757 .40437318 .43399049 .40037538 .42399598 .35935975 .41799928 .33735658L.36799623 .13728333C.3600006 .10827637 .3600006 .106277469 .35798646 .09727478 .35699464 .09327698 .31498719 .014251709 .24299622 .014251709 .18099976 .014251709 .18099976 .07727051 .18099976 .09628296 .18099976 .14129639 .19400025 .19030762 .23699951 .30233766 .24499512 .3253479 .25099183 .33935548 .25099183 .35835267 .25099183 .40737916 .21398926 .4423828 .16499329 .4423828 .068984989 .4423828 .0289917 .30033876 .0289917 .28833009 .0289917 .2793274 .035995485 .27633668 .042999269 .27633668 .053985597 .27633668 .054992677 .28233338 .05899048 .29533387 .07998657 .3693695 .11999512 .41737367 .1619873 .41737367 .18598938 .41737367 .18598938 .39837647 .18598938 .3843689 .18598938 .36735536 .18199158 .34934999 .17298889 .3253479 .12599182 .2013092 .11299133 .15930176 .11299133 .11128235 .11299133 .00024414063 .20298767-.0107421879 .23999024-.0107421879 .2889862-.0107421879 .32398988 .01524353 .34199525 .0332489 .32899476-.017745972 .31799317-.0627594 .2789917-.11276245 .24899292-.15286255 .20899964-.18008423 .16499329-.18008423 .13699341-.18008423 .10398865-.16999817 .08999634-.14176941 .14299011-.14176941 .1499939-.09776306 .1499939-.087768558 .1499939-.06576538 .13398743-.051757814 .11199951-.051757814 .08799744-.051757814 .055999757-.07077026 .055999757-.116760257 .055999757-.16899109 .101989749-.20507813 .16499329-.20507813 .2669983-.20507813 .37599183-.117767337 .40499879-.00074768069L.5019989 .38536073Z"/>
<path id="font_1_6" d="M.5419922 .59375C.5399933 .5917511 .49598695 .55300906 .49598695 .53712466 .49598695 .5251312 .5059967 .51512148 .5179901 .51512148 .5279999 .51512148 .5329895 .52212527 .5369873 .5271301 .5479889 .5410919 .57099917 .5689087 .6159973 .5917511 .6279907 .5967407 .6380005 .6017456 .6380005 .6157379 .6380005 .6267395 .6279907 .6327362 .6230011 .63674929 .60798647 .64575198 .59098818 .6607666 .5799866 .691803 .57598879 .70381167 .57199099 .7158203 .5569916 .7158203 .5479889 .7158203 .5359955 .7088165 .5359955 .69381716 .5359955 .6757965 .55599978 .642746 .55999758 .63674929H.21998596C.20298767 .63674929 .18299866 .63674929 .18299866 .6157379 .18299866 .59375 .20199585 .59375 .21998596 .59375H.5419922Z"/>
<path id="font_1_2" d="M.38198854 .3803711C.36299134 .41638185 .33198548 .4423828 .2869873 .4423828 .17098999 .4423828 .041992189 .30433656 .041992189 .1512909 .041992189 .041259767 .11199951-.0107421879 .1789856-.0107421879 .24398804-.0107421879 .29699708 .043258668 .31298829 .06227112 .32398988 .007247925 .37399293-.0107421879 .4059906-.0107421879 .43499757-.0107421879 .45999146 .002243042 .48199464 .044265748 .5 .07727051 .5139923 .13928223 .5139923 .14329529 .5139923 .14828491 .5109863 .1552887 .5009918 .1552887 .4889984 .1552887 .48799134 .15029907 .48399354 .13128662 .46199037 .044265748 .43998719 .014251709 .40899659 .014251709 .38398744 .014251709 .37799073 .038253786 .37799073 .060272218 .37799073 .07926941 .3829956 .09927368 .3919983 .1342926L.4169922 .23731995C.42399598 .2623291 .44198609 .33735658 .44599916 .35235597 .44999696 .36636354 .45599366 .3903656 .45599366 .39337159 .45599366 .40937806 .44299317 .42237855 .4249878 .42237855 .4119873 .42237855 .3869934 .41438294 .38198854 .3803711M.31698609 .122283939C.31199647 .103271488 .31199647 .10227966 .29599 .08326721 .2599945 .040252687 .21899414 .014251709 .18199158 .014251709 .1329956 .014251709 .115997318 .06526184 .115997318 .10827637 .115997318 .15730286 .14498902 .27233888 .16899109 .32034303 .20098877 .3803711 .24699402 .41737367 .2869873 .41737367 .35398866 .41737367 .36898805 .33735658 .36898805 .33035279 .36898805 .3253479 .36698915 .3193512 .3659973 .31533814L.31698609 .122283939Z"/>
<path id="font_2_3" d="M.70799258 .3310089C.7220001 .3310089 .7409973 .3310089 .7409973 .35202027 .7409973 .37402345 .71899417 .37402345 .70399478 .37402345H.09399414C.07899475 .37402345 .056991579 .37402345 .056991579 .35202027 .056991579 .3310089 .07699585 .3310089 .08999634 .3310089H.70799258M.70399478 .12695313C.71899417 .12695313 .7409973 .12695313 .7409973 .14894104 .7409973 .1699524 .7220001 .1699524 .70799258 .1699524H.08999634C.07699585 .1699524 .056991579 .1699524 .056991579 .14894104 .056991579 .12695313 .07899475 .12695313 .09399414 .12695313H.70399478Z"/>
<path id="font_3_2" d="M.33599855 .70999148C.34199525 .72398379 .34199525 .72598269 .34199525 .72798159 .34199525 .7409973 .33198548 .75 .32099916 .75 .30699159 .75 .30299378 .74198916 .3019867 .73999026L.11898804 .26898194C.11299133 .25497438 .11299133 .25297547 .11299133 .25097657 .11299133 .24797058 .11299133 .24597168 .11898804 .23197937L.29599-.22402954C.30099488-.23603821 .30599977-.24902344 .32099916-.24902344 .33198548-.24902344 .34199525-.24003601 .34199525-.22703552 .34199525-.22503662 .34199525-.22303772 .33599855-.20903015L.1579895 .24996948 .33599855 .70999148Z"/>
<path id="font_3_1" d="M.6749878 .22944641C.69299319 .22944641 .71199038 .22944641 .71199038 .25144959 .71199038 .27246095 .69200137 .27246095 .6749878 .27246095H.12298584C.10598755 .27246095 .085998538 .27246095 .085998538 .25144959 .085998538 .22944641 .10499573 .22944641 .12298584 .22944641H.6749878Z"/>
<path id="font_2_2" d="M.0289917 .19602967V.16503906H.3019867V.07901001C.3019867 .041992189 .29899598 .0309906 .22399903 .0309906H.20199585V0C.2649994 .0029907227 .33499146 .0029907227 .34199525 .0029907227 .34700013 .0029907227 .4189911 .0029907227 .48199464 0V.0309906H.45999146C.3849945 .0309906 .38198854 .041992189 .38198854 .07901001V.16503906H.48399354V.19602967H.38198854V.64974978C.38198854 .669754 .38198854 .6767578 .36299134 .6767578 .35099793 .6767578 .34999085 .67575076 .34098817 .66174319L.0289917 .19602967M.06098938 .19602967 .30799867 .56581118V.19602967H.06098938Z"/>
<path id="font_1_1" d="M.18199158 .015991211C.18199158-.017044068 .18199158-.09921265 .10798645-.17036438 .101989749-.17636109 .101989749-.17736817 .101989749-.18136597 .101989749-.18836975 .10899353-.19335938 .114990238-.19335938 .12599182-.19335938 .20698548-.115249637 .20698548 .0019989014 .20698548 .06399536 .18499756 .10798645 .14199829 .10798645 .10798645 .10798645 .08799744 .08198547 .08799744 .053985597 .08799744 .025985718 .10798645 0 .14199829 0 .15699768 0 .17199707 .004989624 .18199158 .015991211Z"/>
<path id="font_2_1" d="M.30499269 .35195924C.397995 .38697816 .44198609 .46006776 .44198609 .5290985 .44198609 .60606387 .35699464 .6660156 .25299073 .6660156 .14898682 .6660156 .070999149 .60705569 .070999149 .5310974 .070999149 .49809266 .09298706 .47909547 .12199402 .47909547 .15098572 .47909547 .17199707 .50009158 .17199707 .5290985 .17199707 .5640869 .147995 .57910159 .11399841 .57910159 .13999939 .6210327 .20098877 .64100649 .25 .64100649 .33299256 .64100649 .34899903 .5750885 .34899903 .52809146 .34899903 .49809266 .34298707 .45005799 .31799317 .41201783 .2869873 .36695863 .2519989 .36495973 .22299195 .36296083 .19799805 .36094667 .19599915 .36094667 .18798828 .36094667 .1789856 .35995484 .17098999 .35894776 .17098999 .34794618 .17098999 .33496095 .1789856 .33496095 .19599915 .33496095H.24299622C.32998658 .33496095 .36799623 .2646637 .36799623 .16937256 .36799623 .04145813 .2999878 .0055389406 .24899292 .0055389406 .22999573 .0055389406 .1329956 .010528564 .08799744 .0843811 .12399292 .07939148 .1519928 .10437012 .1519928 .13838196 .1519928 .17137146 .1269989 .19238281 .09799194 .19238281 .07299805 .19238281 .042999269 .17736817 .042999269 .13537598 .042999269 .046447755 .13598633-.022460938 .2519989-.022460938 .3769989-.022460938 .46998597 .06741333 .46998597 .16937256 .46998597 .25663758 .40098573 .33093263 .30499269 .35195924Z"/>
<path id="font_3_3" d="M.27999879 .23197937C.28599549 .24597168 .28599549 .24797058 .28599549 .24996948 .28599549 .25297547 .28599549 .25497438 .27999879 .26898194L.102996829 .72598269C.09599304 .74398806 .08999634 .75 .07798767 .75 .066986087 .75 .056991579 .7409973 .056991579 .72798159 .056991579 .72598269 .056991579 .72398379 .06298828 .70999148L.24099732 .25097657 .06298828-.20903015C.056991579-.22303772 .056991579-.22503662 .056991579-.22703552 .056991579-.24003601 .066986087-.24902344 .07798767-.24902344 .08999634-.24902344 .09599304-.24302674 .102996829-.22503662L.27999879 .23197937Z"/>
<path id="font_1_3" d="M.23899842 .6603241C.24299622 .67433169 .24299622 .67633059 .24299622 .68032839 .24299622 .68933108 .23699951 .69433596 .22799683 .69433596 .21398926 .69433596 .12599182 .6863251 .10598755 .6843262 .09599304 .68333438 .084991458 .6823273 .084991458 .665329 .084991458 .6523285 .09599304 .6523285 .11199951 .6523285 .15899658 .6523285 .15899658 .6453247 .15899658 .6363373 .15899658 .6303406 .15899658 .6283264 .1519928 .6013336L.09899902 .3903656C.084991458 .3343506 .07199097 .28334046 .06098938 .23631287 .053985597 .21131897 .04699707 .18130493 .04699707 .14929199 .04699707 .06326294 .09498596-.0107421879 .18099976-.0107421879 .2979889-.0107421879 .42599488 .13027954 .42599488 .28033448 .42599488 .38237 .36299134 .4423828 .28799439 .4423828 .23699951 .4423828 .19299317 .40737916 .16999817 .38536073L.23899842 .6603241M.1559906 .32835389C.18399048 .36836244 .23498535 .41737367 .28599549 .41737367 .33299256 .41737367 .35198976 .37036134 .35198976 .323349 .35198976 .27833558 .32398988 .15429688 .29299928 .10127258 .2559967 .037261964 .21199036 .014251709 .18099976 .014251709 .1309967 .014251709 .11099243 .06427002 .11099243 .11528015 .11099243 .15029907 .117996219 .17730713 .14099121 .2683258L.1559906 .32835389Z"/>
</defs>
<path transform="matrix(1.00003,0,0,-1.00002,106.84677,102.37081)" stroke-width=".3985" stroke-linecap="butt" stroke-miterlimit="10" stroke-linejoin="miter" fill="none" stroke="#d9d9d9" d="M-70.867-56.69362H70.867M-70.867-42.5202H70.867M-70.867-28.3468H70.867M-70.867-14.17339H70.867M-70.867 0H70.867M-70.867 14.17339H70.867M-70.867 28.3468H70.867M-70.867 42.5202H70.867M-70.867 56.69362H70.867M-70.867 70.867H70.867M-70.867 85.03543H70.867M-70.867-56.69362V85.04042M-56.69362-56.69362V85.04042M-42.5202-56.69362V85.04042M-28.3468-56.69362V85.04042M-14.17339-56.69362V85.04042M0-56.69362V85.04042M14.17339-56.69362V85.04042M28.3468-56.69362V85.04042M42.5202-56.69362V85.04042M56.69362-56.69362V85.04042M70.86205-56.69362V85.04042M70.867 85.04042"/>
<path transform="matrix(1.00003,0,0,-1.00002,106.84677,102.37081)" stroke-width=".79701" stroke-linecap="butt" stroke-miterlimit="10" stroke-linejoin="miter" fill="none" stroke="#000000" d="M-77.95372 0H75.36345"/>
<path transform="matrix(1.00003,0,0,-1.00002,182.2125,102.37081)" d="M2.59026 0-1.55415 2.0722 0 0-1.55415-2.0722"/>
<use data-text="x" xlink:href="#font_1_4" transform="matrix(8.966669,0,0,-8.966579,188.52222,104.30085)"/>
<path transform="matrix(1.00003,0,0,-1.00002,106.84677,102.37081)" stroke-width=".79701" stroke-linecap="butt" stroke-miterlimit="10" stroke-linejoin="miter" fill="none" stroke="#000000" d="M0-63.7803V89.53685"/>
<path transform="matrix(0,-1.00002,-1.00003,-0,106.84677,12.832169)" d="M2.59026 0-1.55415 2.0722 0 0-1.55415-2.0722"/>
<use data-text="y" xlink:href="#font_1_5" transform="matrix(8.966669,0,0,-8.966579,104.416698,4.778862)"/>
<path transform="matrix(1.00003,0,0,-1.00002,106.84677,102.37081)" stroke-width="1.59404" stroke-linecap="butt" stroke-miterlimit="10" stroke-linejoin="miter" fill="none" stroke="#0000ff" d="M0 0-53.66505 40.24875"/>
<path transform="matrix(-.799994,-.60000208,-.600008,.799986,53.180109,62.121259)" d="M3.78581 0-2.27148 3.02866 0 0-2.27148-3.02866" fill="#0000ff"/>
<use data-text="&#x20d7;" xlink:href="#font_1_6" transform="matrix(8.966669,0,0,-8.966579,.6635742,53.49083)" fill="#0000ff"/>
<use data-text="a" xlink:href="#font_1_2" transform="matrix(8.966669,0,0,-8.966579,1.2105408,53.49083)" fill="#0000ff"/>
<use data-text="=" xlink:href="#font_2_3" transform="matrix(8.966669,0,0,-8.966579,8.658798,53.49083)" fill="#0000ff"/>
<use data-text="&#x27e8;" xlink:href="#font_3_2" transform="matrix(8.966669,0,0,-8.966579,18.386094,53.49083)" fill="#0000ff"/>
<use data-text="&#x2212;" xlink:href="#font_3_1" transform="matrix(8.966669,0,0,-8.966579,21.963807,53.49083)" fill="#0000ff"/>
<use data-text="4" xlink:href="#font_2_2" transform="matrix(8.966669,0,0,-8.966579,29.137436,53.49083)" fill="#0000ff"/>
<use data-text="," xlink:href="#font_1_1" transform="matrix(8.966669,0,0,-8.966579,33.745576,53.49083)" fill="#0000ff"/>
<use data-text="3" xlink:href="#font_2_1" transform="matrix(8.966669,0,0,-8.966579,37.84169,53.49083)" fill="#0000ff"/>
<use data-text="&#x27e9;" xlink:href="#font_3_3" transform="matrix(8.966669,0,0,-8.966579,42.448823,53.49083)" fill="#0000ff"/>
<path transform="matrix(1.00003,0,0,-1.00002,106.84677,102.37081)" stroke-width="1.59404" stroke-linecap="butt" stroke-miterlimit="10" stroke-linejoin="miter" fill="none" stroke="#ff0000" d="M0 0 53.66505-40.24875"/>
<path transform="matrix(.799994,.60000208,.600008,-.799986,160.51343,142.62036)" d="M3.78581 0-2.27148 3.02866 0 0-2.27148-3.02866" fill="#ff0000"/>
<use data-text="&#x20d7;" xlink:href="#font_1_6" transform="matrix(8.966669,0,0,-8.966579,166.64057,155.42588)" fill="#ff0000"/>
<use data-text="b" xlink:href="#font_1_3" transform="matrix(8.966669,0,0,-8.966579,167.6596,157.7919)" fill="#ff0000"/>
<use data-text="=" xlink:href="#font_2_3" transform="matrix(8.966669,0,0,-8.966579,174.1688,157.7919)" fill="#ff0000"/>
<use data-text="&#x27e8;" xlink:href="#font_3_2" transform="matrix(8.966669,0,0,-8.966579,183.89609,157.7919)" fill="#ff0000"/>
<use data-text="4" xlink:href="#font_2_2" transform="matrix(8.966669,0,0,-8.966579,187.4802,157.7919)" fill="#ff0000"/>
<use data-text="," xlink:href="#font_1_1" transform="matrix(8.966669,0,0,-8.966579,192.08835,157.7919)" fill="#ff0000"/>
<use data-text="&#x2212;" xlink:href="#font_3_1" transform="matrix(8.966669,0,0,-8.966579,196.18347,157.7919)" fill="#ff0000"/>
<use data-text="3" xlink:href="#font_2_1" transform="matrix(8.966669,0,0,-8.966579,203.35169,157.7919)" fill="#ff0000"/>
<use data-text="&#x27e9;" xlink:href="#font_3_3" transform="matrix(8.966669,0,0,-8.966579,207.95981,157.7919)" fill="#ff0000"/>
</svg>
