<svg xmlns="http://www.w3.org/2000/svg" xmlns:xlink="http://www.w3.org/1999/xlink" xmlns:inkscape="http://www.inkscape.org/namespaces/inkscape" version="1.1" width="169" height="168" viewBox="0 0 169 168">
<defs>
<path id="font_1_82" d="M.43199159 0V.0309906H.3999939C.30699159 .0309906 .3039856 .042999269 .3039856 .08001709V.63912966C.3039856 .6640167 .30299378 .6660156 .27799989 .6660156 .21598816 .60227969 .12399292 .60227969 .09298706 .60227969V.57128909C.11199951 .57128909 .17298889 .57128909 .22698975 .5972748V.08001709C.22698975 .042999269 .22399903 .0309906 .1309967 .0309906H.09899902V0C.1349945 .0029907227 .22399903 .0029907227 .2649994 .0029907227 .30599977 .0029907227 .3959961 .0029907227 .43199159 0Z"/>
<path id="font_1_121" d="M.47299195 .31976319C.47299195 .38682557 .46998597 .47288514 .43499757 .5479431 .3909912 .64201357 .31498719 .6660156 .25698854 .6660156 .19699097 .6660156 .12098694 .64201357 .07699585 .5459442 .04499817 .47688294 .039993287 .39582826 .039993287 .31976319 .039993287 .25471498 .041992189 .15765381 .084991458 .07858276 .13198853-.0064697267 .20999146-.022460938 .2559967-.022460938 .32099916-.022460938 .394989 .0055389406 .43699647 .097595218 .46699525 .1646576 .47299195 .23971558 .47299195 .31976319M.3869934 .33177186C.3869934 .2697296 .3869934 .18566895 .3769989 .12661743 .35598756 .012542725 .28199769 .002532959 .25698854 .002532959 .22698975 .002532959 .15499878 .016540528 .13598633 .12962342 .12599182 .18867493 .12599182 .2747345 .12599182 .33177186 .12599182 .39982606 .12599182 .47888185 .13798523 .53393557 .1579895 .6230011 .22200012 .64100649 .2559967 .64100649 .2939911 .64100649 .35699464 .62098696 .37599183 .5279236 .3869934 .47288514 .3869934 .39482118 .3869934 .33177186Z"/>
<path id="font_1_101" d="M.46998597 .20277405C.46998597 .32977296 .37799073 .42578126 .2649994 .42578126 .20498657 .42578126 .1619873 .3907776 .13398743 .33078004 .13398743 .43276979 .14498902 .4897766 .17199707 .54177859 .19198609 .58277896 .24099732 .64100649 .31498719 .64100649 .33499146 .64100649 .3809967 .63697817 .4039917 .6007843 .36698915 .6007843 .35099793 .5817871 .35099793 .55477908 .35099793 .5287781 .36898805 .50878909 .39698792 .50878909 .4249878 .50878909 .44400025 .5267792 .44400025 .55677798 .44400025 .61299136 .4039917 .6660156 .31298829 .6660156 .18399048 .6660156 .042999269 .5389252 .042999269 .31576539 .042999269 .044555665 .16499329-.022460938 .25898744-.022460938 .36999513-.022460938 .46998597 .07052612 .46998597 .2025299V.20277405M.3789978 .20353699C.3789978 .15553284 .3789978 .106536868 .3600006 .0695343 .32899476 .012527466 .2849884 .0055389406 .2579956 .0055389406 .20098877 .0055389406 .16799927 .05253601 .1559906 .08152771 .13699341 .12652588 .13598633 .20953369 .13598633 .2255249 .13598633 .2927704 .16699219 .4007721 .2630005 .4007721 .2789917 .4007721 .32798768 .4007721 .3600006 .33877564 .3789978 .300766 .3789978 .25177003 .3789978 .20376587V.20353699Z"/>
<path id="font_1_88" d="M.19599915 .053985597C.19599915 .08299255 .17199707 .10798645 .14199829 .10798645 .11199951 .10798645 .08799744 .08299255 .08799744 .053985597 .08799744 .023986817 .11199951 0 .14199829 0 .17199707 0 .19599915 .023986817 .19599915 .053985597Z"/>
<path id="font_1_83" d="M.6409912 .49668885C.6409912 .5956421 .5379944 .6826172 .39898683 .6826172H.039993287V.6516113H.06298828C.13999939 .6516113 .14199829 .64060977 .14199829 .6036377V.0789032C.14199829 .041915895 .13999939 .030929566 .06298828 .030929566H.039993287V0C.084991458 .0029296876 .14099121 .0029296876 .18699646 .0029296876 .23298645 .0029907227 .2889862 .0029907227 .33399964 0V.0309906H.31098939C.23399353 .0309906 .23199463 .041992189 .23199463 .07896423V.31378175H.39898683C.5389862 .31378175 .6409912 .40075685 .6409912 .4967041V.49668885M.5389862 .4967041C.5389862 .4517212 .5389862 .34179688 .37298585 .34179688H.22898865V.6106262C.22898865 .64460757 .23098755 .6516113 .27799989 .6516113H.37399293C.5389862 .6516113 .5389862 .54167178 .5389862 .4967041Z"/>
<path id="font_1_50" d="M.4269867 .11936951C.4269867 .12637329 .42199708 .13237 .41299439 .13237 .40299989 .13237 .3999939 .12536621 .39898683 .12136841 .36499024 .019256592 .27598573 .01725769 .26098634 .01725769 .21299744 .01725769 .17199707 .044281007 .14898682 .078323367 .115997318 .12736511 .114990238 .18743897 .114990238 .22949219H.3999939C.42199708 .22949219 .4269867 .22949219 .4269867 .25048829 .4269867 .35333253 .37098695 .4482422 .24299622 .4482422 .12298584 .4482422 .0289917 .3443451 .0289917 .22047425 .0289917 .08932495 .13398743-.0107421879 .2559967-.0107421879 .37799073-.0107421879 .4269867 .096343997 .4269867 .11936951M.35899354 .253479H.115997318C.125 .40725709 .21499634 .42323304 .24299622 .42323304 .2979889 .42323304 .35798646 .38130189 .35899354 .253479Z"/>
<path id="font_1_96" d="M.37298585 .3798828C.37298585 .41236878 .34298707 .4423828 .2979889 .4423828 .23799134 .4423828 .19599915 .40037538 .17298889 .33787538H.17199707V.4423828L.02999878 .43066407V.3996582C.09799194 .3996582 .10699463 .3927307 .10699463 .34387208V.07698059C.10699463 .0309906 .09599304 .0309906 .02999878 .0309906V0C.08299255 .0019989014 .09599304 .0029907227 .14698792 .0029907227L.27398683 0V.0309906H.2539978C.18099976 .0309906 .17799378 .041992189 .17799378 .07897949V.22891236C.17799378 .26989747 .18899536 .4166565 .30299378 .4166565V.4156494C.30099488 .4146576 .2849884 .40264894 .2849884 .37887574 .2849884 .35186769 .30599977 .33486939 .32899476 .33486939 .34999085 .33486939 .37298585 .34986878 .37298585 .3798828Z"/>
<path id="font_1_43" d="M.4269867 .11936951C.4269867 .13139344 .41600038 .13139344 .41299439 .13139344 .4019928 .13139344 .4019928 .12937927 .3959961 .11236572 .37298585 .043289186 .31698609 .01725769 .2659912 .01725769 .20199585 .01725769 .11999512 .06932068 .11999512 .21749878 .11999512 .3735962 .19999695 .42022706 .2599945 .42022706 .272995 .42022706 .32699586 .41825868 .3639984 .39356996 .34298707 .3895874 .32299806 .3755951 .32299806 .34658814 .32299806 .32058717 .34298707 .30059815 .36898805 .30059815 .394989 .30059815 .41600038 .31759645 .41600038 .34858705 .41600038 .4103546 .34599305 .4482422 .2579956 .4482422 .12998963 .4482422 .033996583 .3415985 .033996583 .2164917 .033996583 .08734131 .13798523-.0107421879 .2559967-.0107421879 .394989-.0107421879 .4269867 .11036682 .4269867 .11936951Z"/>
<path id="font_1_77" d="M.5469971 0V.0309906C.49598695 .03125 .47099305 .03125 .46998597 .0622406V.25431825C.46998597 .3373413 .46998597 .36636354 .44198609 .4013672 .4189911 .42938233 .3809967 .4423828 .33099366 .4423828 .23799134 .4423828 .19499207 .37335206 .18099976 .34535218H.17999268V.4423828L.034988405 .43066407V.3996582C.102996829 .3996582 .11199951 .39266969 .11199951 .34370423V.07695007C.11199951 .0309906 .100997928 .0309906 .034988405 .0309906V0C.08198547 .0019989014 .100997928 .0029907227 .14898682 .0029907227 .19699097 .0029907227 .20999146 .0019989014 .2630005 0V.0309906C.19699097 .0309906 .18598938 .0309906 .18598938 .07695007V.25878907C.18598938 .36532594 .26098634 .41737367 .32398988 .41737367 .3829956 .41737367 .3959961 .3683319 .3959961 .30825807V.077041629C.3959961 .0309906 .3849945 .0309906 .31900025 .0309906V0C.3659973 .0019989014 .3849945 .0029907227 .43299867 .0029907227 .48098756 .0029907227 .49398805 .0019989014 .5469971 0Z"/>
<path id="font_1_105" d="M.34199525 .12408447V.18099976H.31399537V.1270752C.31399537 .05319214 .2829895 .01725769 .24699402 .01725769 .17999268 .01725769 .17999268 .1051178 .17999268 .12309265V.3996582H.32499696V.43066407H.17999268V.6142578H.1519928C.15098572 .5304413 .115997318 .42765809 .018997193 .4246521V.3996582H.10598755V.12408447C.10598755 .012252808 .18699646-.0107421879 .23999024-.0107421879 .30699159-.011001587 .34199525 .052993776 .34199525 .12399292V.12408447Z"/>
<path id="font_1_107" d="M.46199037 .17704773H.43399049C.43199159 .16404724 .42399598 .10501099 .41099549 .08900452 .40499879 .07998657 .33599855 .07998657 .31599427 .07998657H.13798523L.23699951 .17404175C.40098573 .3161316 .46199037 .36915589 .46199037 .4711914 .46199037 .5860901 .36698915 .6660156 .24398804 .6660156 .1289978 .6660156 .050994874 .575119 .050994874 .4841919 .050994874 .43418885 .09399414 .42919923 .102996829 .42919923 .125 .42919923 .15499878 .44519044 .15499878 .48120118 .15499878 .51119998 .13398743 .5332031 .102996829 .5332031 .09799194 .5332031 .09498596 .5332031 .09098816 .53219607 .114990238 .6030731 .1789856 .63500979 .23298645 .63500979 .33499146 .63500979 .36999513 .5401764 .36999513 .4711914 .36999513 .36915589 .29299928 .28611756 .24499512 .23408509L.06199646 .035995485C.050994874 .024993897 .050994874 .022994996 .050994874 0H.43399049L.46199037 .17704773Z"/>
<path id="font_1_57" d="M.48399354 .16503906V.19602967H.38198854V.649765C.38198854 .669754 .38198854 .6767578 .36299134 .6767578 .35099793 .6767578 .34999085 .67575076 .34098817 .6617584L.0289917 .19602967V.16503906H.3019867V.07901001C.3019867 .041992189 .29899598 .0309906 .22399903 .0309906H.20199585V0C.2649994 .0029907227 .33499146 .0029907227 .34199525 .0029907227 .34700013 .0029907227 .4189911 .0029907227 .48199464 0V.0309906H.45999146C.3849945 .0309906 .38198854 .041992189 .38198854 .07901001V.16503906H.48399354M.30799867 .19602967H.06098938L.30799867 .56581118V.19602967Z"/>
<path id="font_1_106" d="M.46998597 .17008972C.46998597 .25709535 .40098573 .33110047 .30499269 .35209657 .397995 .38710023 .44198609 .46009828 .44198609 .5290985 .44198609 .60606387 .35699464 .6660156 .25299073 .6660156 .14898682 .6660156 .070999149 .60705569 .070999149 .5310974 .070999149 .49809266 .09298706 .47909547 .12199402 .47909547 .15098572 .47909547 .17199707 .50009158 .17199707 .5290985 .17199707 .5640869 .147995 .57910159 .11399841 .57910159 .13999939 .6210327 .20098877 .64100649 .25 .64100649 .33299256 .64100649 .34899903 .5750885 .34899903 .52809146 .34899903 .49809266 .34298707 .45005799 .31799317 .41201783 .2869873 .36695863 .2519989 .36495973 .22299195 .36296083 .19799805 .36094667 .19599915 .36094667 .18798828 .36094667 .1789856 .35995484 .17098999 .35894776 .17098999 .34794618 .17098999 .33496095 .1789856 .33496095 .19599915 .33496095H.24299622C.32998658 .33496095 .36799623 .2646637 .36799623 .16937256 .36799623 .04145813 .2999878 .0055389406 .24899292 .0055389406 .22999573 .0055389406 .1329956 .010528564 .08799744 .0843811 .12399292 .07939148 .1519928 .10437012 .1519928 .13838196 .1519928 .17137146 .1269989 .19238281 .09799194 .19238281 .07299805 .19238281 .042999269 .17736817 .042999269 .13537598 .042999269 .046447755 .13598633-.022460938 .2519989-.022460938 .3769989-.022460938 .46998597 .06741333 .46998597 .16937256V.17008972Z"/>
<path id="font_1_56" d="M.46199037 .19992066C.46199037 .3209076 .37599183 .41992188 .2669983 .41992188 .21899414 .41992188 .16999817 .4039154 .1349945 .36791993V.5647888C.16499329 .55578616 .19599915 .55078127 .22698975 .55078127 .34999085 .55078127 .42199708 .63983157 .42199708 .6529236 .42199708 .6619873 .41600038 .6660156 .41099549 .6660156 .41099549 .6660156 .40699769 .6660156 .397995 .6609802 .35099793 .6418457 .30499269 .63378909 .2630005 .63378909 .21998596 .63378909 .1749878 .6418457 .1289978 .6609802 .11898804 .6660156 .115997318 .6660156 .115997318 .6660156 .10398865 .6660156 .10398865 .6559448 .10398865 .63882449V.34490968C.10398865 .32699586 .10398865 .31599427 .117996219 .31599427 .12599182 .31562806 .1289978 .3196411 .1349945 .32867433 .16499329 .37083436 .21299744 .39491273 .2649994 .39491273 .37199403 .39491273 .37199403 .24035645 .37199403 .20422364 .37199403 .17321778 .37199403 .11122131 .34399415 .06636047 .31698609 .024475098 .2749939 .0055389406 .23599243 .0055389406 .1769867 .0055389406 .10998535 .042419435 .085998538 .11621094 .085998538 .116882327 .09298706 .11488342 .099990848 .11488342 .11999512 .11488342 .14898682 .12788391 .14898682 .1638794 .14898682 .19488526 .1269989 .21289063 .099990848 .21289063 .07899475 .21289063 .050994874 .20088196 .050994874 .16088867 .050994874 .069732669 .1269989-.022460938 .23799134-.022460938 .35899354-.02279663 .46199037 .07521057 .46199037 .19921875V.19992066Z"/>
</defs>
<path transform="matrix(1.00008,0,0,-1,77.382999,78.674)" d="M0 0H73.70186C73.70186 12.40996 70.55972 24.63101 64.58246 35.50478Z" fill="#ccccff"/>
<path transform="matrix(1.00008,0,0,-1,77.382999,78.674)" stroke-width=".3985" stroke-linecap="butt" stroke-miterlimit="10" stroke-linejoin="miter" fill="none" stroke="#000000" d="M0 0H73.70186C73.70186 12.40996 70.55972 24.63101 64.58246 35.50478Z"/>
<use data-text="1" xlink:href="#font_1_82" transform="matrix(8.967117,0,0,-8.9664,158.43949,59.570005)"/>
<use data-text="0" xlink:href="#font_1_121" transform="matrix(8.967117,0,0,-8.9664,163.04859,59.570005)"/>
<path transform="matrix(1.00008,0,0,-1,77.382999,78.674)" d="M0 0 64.58246 35.50478C52.43115 57.60768 29.79965 71.96884 4.62659 73.55229Z" fill="#ccffcc"/>
<path transform="matrix(1.00008,0,0,-1,77.382999,78.674)" stroke-width=".3985" stroke-linecap="butt" stroke-miterlimit="10" stroke-linejoin="miter" fill="none" stroke="#000000" d="M0 0 64.58246 35.50478C52.43115 57.60768 29.79965 71.96884 4.62659 73.55229Z"/>
<use data-text="1" xlink:href="#font_1_82" transform="matrix(8.967117,0,0,-8.9664,80.11621,38.08)"/>
<use data-text="6" xlink:href="#font_1_101" transform="matrix(8.967117,0,0,-8.9664,84.72531,38.08)"/>
<use data-text="." xlink:href="#font_1_88" transform="matrix(8.967117,0,0,-8.9664,89.33443,38.08)"/>
<use data-text="0" xlink:href="#font_1_121" transform="matrix(8.967117,0,0,-8.9664,91.89902,38.08)"/>
<use data-text="P" xlink:href="#font_1_83" transform="matrix(8.967117,0,0,-8.9664,99.58383,38.08)"/>
<use data-text="e" xlink:href="#font_1_50" transform="matrix(8.967117,0,0,-8.9664,105.600788,38.08)"/>
<use data-text="r" xlink:href="#font_1_96" transform="matrix(8.967117,0,0,-8.9664,109.698749,38.08)"/>
<use data-text="c" xlink:href="#font_1_43" transform="matrix(8.967117,0,0,-8.9664,113.30353,38.08)"/>
<use data-text="e" xlink:href="#font_1_50" transform="matrix(8.967117,0,0,-8.9664,117.401508,38.08)"/>
<use data-text="n" xlink:href="#font_1_77" transform="matrix(8.967117,0,0,-8.9664,121.499469,38.08)"/>
<use data-text="t" xlink:href="#font_1_105" transform="matrix(8.967117,0,0,-8.9664,126.35965,38.08)"/>
<use data-text="2" xlink:href="#font_1_107" transform="matrix(8.967117,0,0,-8.9664,120.16441,6.8910067)"/>
<use data-text="0" xlink:href="#font_1_121" transform="matrix(8.967117,0,0,-8.9664,124.77351,6.8910067)"/>
<path transform="matrix(1.00008,0,0,-1,77.382999,78.674)" d="M0 0 4.62659 73.55229C-34.19463 75.99379-68.24417 47.82927-73.11818 9.23633Z" fill="#ffe6cc"/>
<path transform="matrix(1.00008,0,0,-1,77.382999,78.674)" stroke-width=".3985" stroke-linecap="butt" stroke-miterlimit="10" stroke-linejoin="miter" fill="none" stroke="#000000" d="M0 0 4.62659 73.55229C-34.19463 75.99379-68.24417 47.82927-73.11818 9.23633Z"/>
<use data-text="2" xlink:href="#font_1_107" transform="matrix(8.967117,0,0,-8.9664,19.58638,41.888006)"/>
<use data-text="4" xlink:href="#font_1_57" transform="matrix(8.967117,0,0,-8.9664,24.19548,41.888006)"/>
<use data-text="." xlink:href="#font_1_88" transform="matrix(8.967117,0,0,-8.9664,28.804596,41.888006)"/>
<use data-text="0" xlink:href="#font_1_121" transform="matrix(8.967117,0,0,-8.9664,31.369187,41.888006)"/>
<use data-text="P" xlink:href="#font_1_83" transform="matrix(8.967117,0,0,-8.9664,39.054,41.888006)"/>
<use data-text="e" xlink:href="#font_1_50" transform="matrix(8.967117,0,0,-8.9664,45.070955,41.888006)"/>
<use data-text="r" xlink:href="#font_1_96" transform="matrix(8.967117,0,0,-8.9664,49.168916,41.888006)"/>
<use data-text="c" xlink:href="#font_1_43" transform="matrix(8.967117,0,0,-8.9664,52.773698,41.888006)"/>
<use data-text="e" xlink:href="#font_1_50" transform="matrix(8.967117,0,0,-8.9664,56.871675,41.888006)"/>
<use data-text="n" xlink:href="#font_1_77" transform="matrix(8.967117,0,0,-8.9664,60.969636,41.888006)"/>
<use data-text="t" xlink:href="#font_1_105" transform="matrix(8.967117,0,0,-8.9664,65.82982,41.888006)"/>
<use data-text="3" xlink:href="#font_1_106" transform="matrix(8.967117,0,0,-8.9664,16.399125,13.419006)"/>
<use data-text="0" xlink:href="#font_1_121" transform="matrix(8.967117,0,0,-8.9664,21.008225,13.419006)"/>
<path transform="matrix(1.00008,0,0,-1,77.382999,78.674)" d="M0 0-73.1182 9.23631C-77.9922-29.3566-52.01955-65.10542-13.80899-72.39395Z" fill="#f2ccd9"/>
<path transform="matrix(1.00008,0,0,-1,77.382999,78.674)" stroke-width=".3985" stroke-linecap="butt" stroke-miterlimit="10" stroke-linejoin="miter" fill="none" stroke="#000000" d="M0 0-73.1182 9.23631C-77.9922-29.3566-52.01955-65.10542-13.80899-72.39395Z"/>
<use data-text="2" xlink:href="#font_1_107" transform="matrix(8.967117,0,0,-8.9664,10.730667,111.962009)"/>
<use data-text="4" xlink:href="#font_1_57" transform="matrix(8.967117,0,0,-8.9664,15.339767,111.962009)"/>
<use data-text="." xlink:href="#font_1_88" transform="matrix(8.967117,0,0,-8.9664,19.948884,111.962009)"/>
<use data-text="0" xlink:href="#font_1_121" transform="matrix(8.967117,0,0,-8.9664,22.513474,111.962009)"/>
<use data-text="P" xlink:href="#font_1_83" transform="matrix(8.967117,0,0,-8.9664,30.198288,111.962009)"/>
<use data-text="e" xlink:href="#font_1_50" transform="matrix(8.967117,0,0,-8.9664,36.21524,111.962009)"/>
<use data-text="r" xlink:href="#font_1_96" transform="matrix(8.967117,0,0,-8.9664,40.3132,111.962009)"/>
<use data-text="c" xlink:href="#font_1_43" transform="matrix(8.967117,0,0,-8.9664,43.917985,111.962009)"/>
<use data-text="e" xlink:href="#font_1_50" transform="matrix(8.967117,0,0,-8.9664,48.01596,111.962009)"/>
<use data-text="n" xlink:href="#font_1_77" transform="matrix(8.967117,0,0,-8.9664,52.113924,111.962009)"/>
<use data-text="t" xlink:href="#font_1_105" transform="matrix(8.967117,0,0,-8.9664,56.974107,111.962009)"/>
<use data-text="4" xlink:href="#font_1_57" transform="matrix(8.967117,0,0,-8.9664,1.2169037,133.595)"/>
<use data-text="0" xlink:href="#font_1_121" transform="matrix(8.967117,0,0,-8.9664,5.826004,133.595)"/>
<path transform="matrix(1.00008,0,0,-1,77.382999,78.674)" d="M0 0-13.80896-72.39392C10.96712-77.11949 36.45845-68.8368 53.72446-50.44958Z" fill="#c7eafb"/>
<path transform="matrix(1.00008,0,0,-1,77.382999,78.674)" stroke-width=".3985" stroke-linecap="butt" stroke-miterlimit="10" stroke-linejoin="miter" fill="none" stroke="#000000" d="M0 0-13.80896-72.39392C10.96712-77.11949 36.45845-68.8368 53.72446-50.44958Z"/>
<use data-text="1" xlink:href="#font_1_82" transform="matrix(8.967117,0,0,-8.9664,68.415279,130.70401)"/>
<use data-text="6" xlink:href="#font_1_101" transform="matrix(8.967117,0,0,-8.9664,73.024379,130.70401)"/>
<use data-text="." xlink:href="#font_1_88" transform="matrix(8.967117,0,0,-8.9664,77.63349,130.70401)"/>
<use data-text="0" xlink:href="#font_1_121" transform="matrix(8.967117,0,0,-8.9664,80.19808,130.70401)"/>
<use data-text="P" xlink:href="#font_1_83" transform="matrix(8.967117,0,0,-8.9664,87.8829,130.70401)"/>
<use data-text="e" xlink:href="#font_1_50" transform="matrix(8.967117,0,0,-8.9664,93.89985,130.70401)"/>
<use data-text="r" xlink:href="#font_1_96" transform="matrix(8.967117,0,0,-8.9664,97.99781,130.70401)"/>
<use data-text="c" xlink:href="#font_1_43" transform="matrix(8.967117,0,0,-8.9664,101.60259,130.70401)"/>
<use data-text="e" xlink:href="#font_1_50" transform="matrix(8.967117,0,0,-8.9664,105.70057,130.70401)"/>
<use data-text="n" xlink:href="#font_1_77" transform="matrix(8.967117,0,0,-8.9664,109.79853,130.70401)"/>
<use data-text="t" xlink:href="#font_1_105" transform="matrix(8.967117,0,0,-8.9664,114.658718,130.70401)"/>
<use data-text="5" xlink:href="#font_1_56" transform="matrix(8.967117,0,0,-8.9664,100.10581,165.675)"/>
<use data-text="0" xlink:href="#font_1_121" transform="matrix(8.967117,0,0,-8.9664,104.71491,165.675)"/>
<path transform="matrix(1.00008,0,0,-1,77.382999,78.674)" d="M0 0 53.72443-50.4496C66.55275-36.78906 73.70184-18.74146 73.70184 0Z" fill="#fffcd5"/>
<path transform="matrix(1.00008,0,0,-1,77.382999,78.674)" stroke-width=".3985" stroke-linecap="butt" stroke-miterlimit="10" stroke-linejoin="miter" fill="none" stroke="#000000" d="M0 0 53.72443-50.4496C66.55275-36.78906 73.70184-18.74146 73.70184 0Z"/>
<use data-text="6" xlink:href="#font_1_101" transform="matrix(8.967117,0,0,-8.9664,155.0062,114.117008)"/>
<use data-text="0" xlink:href="#font_1_121" transform="matrix(8.967117,0,0,-8.9664,159.6153,114.117008)"/>
</svg>
