<svg xmlns="http://www.w3.org/2000/svg" xmlns:xlink="http://www.w3.org/1999/xlink" xmlns:inkscape="http://www.inkscape.org/namespaces/inkscape" version="1.1" width="281" height="155" viewBox="0 0 281 155">
<defs>
<path id="font_1_1" d="M.1269989 .07699585 .23298645 .18003845C.3889923 .31811524 .44898988 .3721466 .44898988 .47216798 .44898988 .5860901 .35899354 .6660156 .23699951 .6660156 .12399292 .6660156 .049987794 .57411196 .049987794 .48516847 .049987794 .4291687 .099990848 .4291687 .102996829 .4291687 .11999512 .4291687 .15499878 .44117738 .15499878 .48217774 .15499878 .5081787 .13699341 .5341797 .101989749 .5341797 .09399414 .5341797 .09199524 .5341797 .08898926 .5331726 .11199951 .59806826 .1659851 .63500979 .22399903 .63500979 .31498719 .63500979 .35798646 .5541382 .35798646 .47216798 .35798646 .39215089 .30799867 .31311036 .25299073 .25108338L.06098938 .036987306C.049987794 .025985718 .049987794 .023986817 .049987794 0H.42099L.44898988 .17404175H.42399598C.4189911 .14402771 .4119873 .1000061 .4019928 .084991458 .394989 .07699585 .32899476 .07699585 .30699159 .07699585H.1269989Z"/>
<path id="font_1_2" d="M.2939911 .16503906V.07800293C.2939911 .041992189 .2919922 .0309906 .21798706 .0309906H.19699097V0C.23799134 .0029907227 .2899933 .0029907227 .33198548 .0029907227 .37399293 .0029907227 .4269867 .0029907227 .46798707 0V.0309906H.44699098C.37298585 .0309906 .37098695 .041992189 .37098695 .07800293V.16503906H.47099305V.19602967H.37098695V.65075686C.37098695 .67074587 .37098695 .6767578 .35499574 .6767578 .34599305 .6767578 .34298707 .6767578 .33499146 .66474917L.027999878 .19602967V.16503906H.2939911M.2999878 .19602967H.055999757L.2999878 .5688019V.19602967Z"/>
<path id="font_1_3" d="M.13198853 .327713V.35173036C.13198853 .6047821 .2559967 .64100649 .30699159 .64100649 .33099366 .64100649 .37298585 .634964 .394989 .6007538 .37998963 .6007538 .33999635 .6007538 .33999635 .5557556 .33999635 .524765 .3639984 .5097656 .38598634 .5097656 .4019928 .5097656 .43199159 .51875308 .43199159 .5577545 .43199159 .6178589 .3880005 .6660156 .30499269 .6660156 .1769867 .6660156 .041992189 .5367584 .041992189 .31570436 .041992189 .048553468 .1579895-.022460938 .25099183-.022460938 .3619995-.022460938 .45700074 .07156372 .45700074 .2036438 .45700074 .33070375 .36799623 .4267578 .25698854 .4267578 .18899536 .4267578 .1519928 .37573243 .13198853 .327713M.25099183 .0055389406C.18798828 .0055389406 .1579895 .06556702 .1519928 .080566409 .13398743 .127594 .13398743 .2076416 .13398743 .22564698 .13398743 .30369569 .1659851 .40374757 .2559967 .40374757 .27198792 .40374757 .31799317 .40374757 .34899903 .34172059 .36698915 .30470277 .36698915 .2536621 .36698915 .20463562 .36698915 .15661621 .36698915 .10658264 .34999085 .0705719 .31999208 .010528564 .27398683 .0055389406 .25099183 .0055389406Z"/>
<path id="font_1_4" d="M.16299439 .4569702C.116989139 .486969 .11299133 .52098086 .11299133 .5379791 .11299133 .598999 .17799378 .64100649 .24899292 .64100649 .32199098 .64100649 .38598634 .58898928 .38598634 .51698306 .38598634 .45996095 .34700013 .4119568 .2869873 .37695313L.16299439 .4569702M.30899049 .36193849C.3809967 .3989563 .42999269 .45095826 .42999269 .51698306 .42999269 .6090088 .34098817 .6660156 .25 .6660156 .1499939 .6660156 .068984989 .59199526 .068984989 .49897767 .068984989 .4809723 .070999149 .43595887 .11299133 .38894654 .12399292 .37695313 .16099549 .35194398 .18598938 .33494569 .12799073 .30592347 .041992189 .24984741 .041992189 .15072632 .041992189 .04458618 .14399719-.022460938 .24899292-.022460938 .3619995-.022460938 .45700074 .06060791 .45700074 .16773987 .45700074 .20379639 .44599916 .24885559 .4079895 .2909088 .3889923 .31193543 .37298585 .3219452 .30899049 .36193849M.20899964 .3199463 .33198548 .24183655C.3600006 .2228241 .40699769 .19277954 .40699769 .13169861 .40699769 .05760193 .33198548 .0055389406 .25 .0055389406 .1639862 .0055389406 .09199524 .067611698 .09199524 .15072632 .09199524 .20880127 .12399292 .27288819 .20899964 .3199463Z"/>
<clipPath id="clip_2">
<path transform="matrix(1.00003,0,0,-1.00002,40.565774,127.04622)" d="M0 0H238.63457V125.24757H0Z"/>
</clipPath>
<path id="font_3_97" d="M.49899293 .18579102C.49899293 .2858429 .43299867 .36791993 .34899903 .38793946L.22099304 .4189453C.15899658 .43388368 .11999512 .48773194 .11999512 .5458069 .11999512 .61595156 .17399597 .677063 .2519989 .677063 .4189911 .677063 .44099427 .5127411 .44699098 .46777345 .44799806 .461792 .44799806 .45581056 .45899964 .45581056 .47200013 .45581056 .47200013 .46080018 .47200013 .47973634V.68107607C.47200013 .69807437 .47200013 .7050781 .46099855 .7050781 .45399476 .7050781 .45298768 .70407107 .44599916 .69207766L.41099549 .63497927C.3809967 .66404727 .33999635 .7050781 .25099183 .7050781 .13999939 .7050781 .055999757 .61694338 .055999757 .5107422 .055999757 .42790223 .10899353 .35490418 .18699646 .32788087 .19799805 .32388307 .24899292 .3118744 .31900025 .29486085 .34599305 .28785707 .37599183 .280838 .4039917 .24382019 .4249878 .2177887 .43499757 .18478394 .43499757 .1517334 .43499757 .0806427 .3849945 .008529663 .30099488 .008529663 .27198792 .008529663 .19599915 .013534546 .14299011 .06260681 .084991458 .11668396 .08198547 .18078614 .08099365 .21679688 .07998657 .22679138 .07199097 .22679138 .068984989 .22679138 .055999757 .22679138 .055999757 .2197876 .055999757 .20178223V.0015258789C.055999757-.015472412 .055999757-.022460938 .066986087-.022460938 .07398987-.022460938 .07499695-.020462037 .08198547-.009475708 .08198547-.009475708 .084991458-.0054626467 .117996219 .047592164 .14898682 .013534546 .21299744-.022460938 .3019867-.022460938 .4189911-.022460938 .49899293 .07562256 .49899293 .18579102Z"/>
<path id="font_3_105" d="M.33198548 .12385559V.18066406H.30699159V.12585449C.30699159 .052108766 .2769928 .014251709 .23999024 .014251709 .17298889 .014251709 .17298889 .10491943 .17298889 .12187195V.3996582H.31599427V.43066407H.17298889V.6142578H.147995C.14698792 .5324249 .116989139 .42565919 .018997193 .42166139V.3996582H.10398865V.12408447C.10398865 .0012512207 .19699097-.0107421879 .23298645-.0107421879 .3039856-.0107421879 .33198548 .060180665 .33198548 .12408447V.12385559Z"/>
<path id="font_3_96" d="M.3639984 .38137818C.3639984 .41337586 .33299256 .4423828 .2899933 .4423828 .21699524 .4423828 .18099976 .37538148 .16699219 .3323822V.4423828L.027999878 .43066407V.3996582C.09799194 .3996582 .10598755 .39266969 .10598755 .34370423V.07595825C.10598755 .0309906 .09498596 .0309906 .027999878 .0309906V0L.14199829 .0029907227C.18199158 .0029907227 .22898865 .0029907227 .2689972 0V.0309906H.24798584C.17399597 .0309906 .17199707 .04197693 .17199707 .07795715V.23181153C.17199707 .33137513 .21398926 .42037965 .2899933 .42037965 .29699708 .42037965 .29899598 .42037965 .30099488 .41937257 .2979889 .41838075 .27799989 .40637208 .27799989 .3803711 .27799989 .35237123 .29899598 .33737184 .32099916 .33737184 .33898927 .33737184 .3639984 .3493805 .3639984 .38137818Z"/>
<path id="font_3_50" d="M.4149933 .11933899C.4149933 .12934876 .40699769 .13134766 .4019928 .13134766 .3929901 .13134766 .3909912 .12535095 .3889923 .11734009 .35398866 .014251709 .2639923 .014251709 .2539978 .014251709 .20399475 .014251709 .1639862 .044281007 .14099121 .08131409 .11099243 .12934876 .11099243 .19540406 .11099243 .23144531H.3899994C.4119873 .23144531 .4149933 .23144531 .4149933 .2524414 .4149933 .35131837 .36099244 .4482422 .23599243 .4482422 .11999512 .4482422 .027999878 .34532167 .027999878 .22042847 .027999878 .08631897 .1329956-.0107421879 .24798584-.0107421879 .36999513-.0107421879 .4149933 .10032654 .4149933 .11933899M.34899903 .2524414H.11199951C.117996219 .40126039 .20199585 .426239 .23599243 .426239 .33898927 .426239 .34899903 .2913971 .34899903 .2524414Z"/>
<path id="font_3_98" d="M.3600006 .12823487C.3600006 .18122864 .32998658 .21122742 .31799317 .22323609 .2849884 .25523377 .24598694 .26322938 .20399475 .27124024 .147995 .28224183 .08099365 .29522706 .08099365 .35324098 .08099365 .38822938 .10699463 .42922975 .19299317 .42922975 .30299378 .42922975 .30799867 .3392334 .30999757 .30822755 .31098939 .2992401 .32199098 .2992401 .32199098 .2992401 .33499146 .2992401 .33499146 .30422975 .33499146 .32322694V.4242401C.33499146 .4412384 .33499146 .4482422 .32398988 .4482422 .31900025 .4482422 .31698609 .4482422 .3039856 .43623353 .30099488 .43223573 .29100038 .42323304 .2869873 .42022706 .24899292 .4482422 .20799256 .4482422 .19299317 .4482422 .070999149 .4482422 .032989503 .38124085 .032989503 .3252411 .032989503 .29023744 .04899597 .26223756 .07598877 .24023438 .10798645 .2142334 .13598633 .2082367 .20799256 .19422913 .22999573 .19021607 .31199647 .17422486 .31199647 .10221863 .31199647 .051223756 .2769928 .011245728 .19898987 .011245728 .114990238 .011245728 .07899475 .068222049 .05999756 .1532135 .056991579 .16621399 .055999757 .17021179 .04598999 .17021179 .032989503 .17021179 .032989503 .16322327 .032989503 .1452179V.013214111C.032989503-.003753662 .032989503-.0107421879 .04399109-.0107421879 .04899597-.0107421879 .049987794-.009750366 .068984989 .009246826 .070999149 .011245728 .070999149 .013214111 .08898926 .032226564 .1329956-.009750366 .17799378-.0107421879 .19898987-.0107421879 .31399537-.0107421879 .3600006 .05621338 .3600006 .1282196V.12823487Z"/>
<path id="font_3_71" d="M.58200076 .2578125H.5569916C.54599 .15588379 .5319977 .0309906 .35598756 .0309906H.27398683C.22698975 .03060913 .22499085 .037612916 .22499085 .07060242V.6036072C.22499085 .63760378 .22499085 .6516113 .31999208 .6516113H.35299684V.6826172C.31698609 .6796112 .22599793 .6796112 .18499756 .6796112 .1459961 .6796112 .067993167 .6796112 .032989503 .6826172V.6516113H.056991579C.13398743 .6518097 .13598633 .6408081 .13598633 .6048126V.07795715C.13598633 .04197693 .13398743 .0309906 .056991579 .0309906H.032989503V0H.55400088L.58200076 .2578125Z"/>
<path id="font_3_112" d="M.5079956 .3996582V.43066407C.4850006 .4286499 .45599366 .42765809 .43299867 .42765809L.34599305 .43066407V.3996582C.3829956 .39865113 .3939972 .37568666 .3939972 .35671998 .3939972 .34773255 .3919983 .34373475 .3880005 .3327484L.28599549 .078125 .17399597 .35671998C.16799927 .3697052 .16799927 .37368775 .16799927 .37368775 .16799927 .3996582 .20698548 .3996582 .22499085 .3996582V.43066407L.115997318 .42765809C.08898926 .42765809 .04899597 .4286499 .018997193 .43066407V.3996582C.08198547 .3996582 .085998538 .3936615 .09899902 .36271668L.24299622 .008224487C.24899292-.0057525637 .25099183-.0107421879 .2639923-.0107421879 .2769928-.0107421879 .2809906-.0017700195 .2849884 .008224487L.41600038 .3327484C.4249878 .3557129 .44198609 .39865113 .5079956 .3996582Z"/>
<path id="font_3_72" d="M.25498963 0V.0309906C.18798828 .0309906 .1769867 .0309906 .1769867 .07601929V.69433596L.032989503 .6826172V.6516113C.102996829 .6516113 .11099243 .64460757 .11099243 .5956421V.07595825C.11099243 .0309906 .099990848 .0309906 .032989503 .0309906V0L.14399719 .0029907227 .25498963 0Z"/>
<path id="font_3_65" d="M.33299256 0V.0309906H.30699159C.22799683 .0309906 .22499085 .041992189 .22499085 .07795715V.6046295C.22499085 .64060977 .22799683 .6516113 .30699159 .6516113H.33299256V.6826172C.2979889 .6796112 .21899414 .6796112 .18099976 .6796112 .14199829 .6796112 .06298828 .6796112 .027999878 .6826172V.6516113H.053985597C.1329956 .6516113 .13598633 .64060977 .13598633 .6046295V.07795715C.13598633 .041992189 .1329956 .0309906 .053985597 .0309906H.027999878V0C.06298828 .0029907227 .14199829 .0029907227 .17999268 .0029907227 .21899414 .0029907227 .2979889 .0029907227 .33299256 0Z"/>
<path id="font_3_77" d="M.5349884 0V.0309906C.48298646 .0309906 .45799256 .0309906 .45700074 .061019899V.25221253C.45700074 .3383026 .45700074 .36932374 .42599488 .405365 .4119873 .42237855 .3789978 .4423828 .32099916 .4423828 .24798584 .4423828 .20098877 .39935304 .17298889 .33729554V.4423828L.03199768 .43066407V.3996582C.101989749 .3996582 .10998535 .39266969 .10998535 .34370423V.07595825C.10998535 .0309906 .09899902 .0309906 .03199768 .0309906V0L.14498902 .0029907227 .25698854 0V.0309906C.18998719 .0309906 .1789856 .0309906 .1789856 .07595825V.25978089C.1789856 .36431886 .25 .42037965 .31399537 .42037965 .3769989 .42037965 .3880005 .36631776 .3880005 .30926515V.076034549C.3880005 .0309906 .3769989 .0309906 .30999757 .0309906V0L.4229889 .0029907227 .5349884 0Z"/>
<path id="font_3_47" d="M.5269928 0V.0309906C.45700074 .0309906 .44898988 .038009645 .44898988 .0871582V.69433596L.30499269 .6826172V.6516113C.375 .6516113 .3829956 .64463809 .3829956 .59580996V.38035584C.35398866 .41636659 .31098939 .4423828 .25698854 .4423828 .13899231 .4423828 .033996583 .3443451 .033996583 .21531677 .033996583 .088272098 .13198853-.0107421879 .24598694-.0107421879 .30999757-.0107421879 .35499574 .023254395 .37998963 .055267335V-.0107421879L.5269928 0M.37998963 .117996219C.37998963 .099990848 .37998963 .09799194 .36898805 .08099365 .33898927 .033218385 .2939911 .011245728 .25099183 .011245728 .20599365 .011245728 .16999817 .037216188 .1459961 .075164798 .11999512 .1161499 .116989139 .17320252 .116989139 .21421814 .116989139 .25125123 .11898804 .31129457 .147995 .35632325 .16899109 .38734437 .20698548 .42037965 .26098634 .42037965 .29599 .42037965 .33799745 .405365 .36898805 .3603363 .37998963 .34332276 .37998963 .34132386 .37998963 .32330323V.117996219Z"/>
<path id="font_3_116" d="M.5159912 0V.0309906C.46199037 .03125 .44400025 .0332489 .42099 .0622406L.2869873 .23493958C.31698609 .27287293 .35499574 .3217926 .3789978 .3477478 .4099884 .38368226 .45098878 .39866639 .49798585 .3996582V.43066407C.47200013 .4286499 .44198609 .42765809 .41600038 .42765809 .38598634 .42765809 .33299256 .42965699 .31999208 .43066407V.3996582C.34098817 .3973999 .34899903 .3843994 .34899903 .3684082 .34899903 .35240174 .33898927 .33940126 .33399964 .33340455L.27198792 .2554016 .19400025 .35639955C.18499756 .3664093 .18499756 .3684082 .18499756 .3744049 .18499756 .3894043 .19999695 .39840699 .21998596 .39941407V.43066407L.11199951 .42765809C.09098816 .42765809 .04399109 .4286499 .016998291 .43066407V.3996582C.08699036 .3996582 .08799744 .39865113 .1349945 .3387146L.23399353 .20982361C.18699646 .14988709 .18699646 .14788819 .13999939 .09094238 .09199524 .032989503 .032989503 .0309906 .011993408 .0309906V0C.037994386 .0019989014 .068984989 .0029907227 .09498596 .0029907227L.18998719 0V.0309906C.16799927 .034240724 .16099549 .04724121 .16099549 .0622406 .16099549 .084243778 .18998719 .117248538 .25099183 .1892395L.32699586 .08924866C.33499146 .07824707 .34799195 .0622406 .34799195 .056243898 .34799195 .04724121 .33898927 .03224182 .31199647 .03125V0L.41999818 .0029907227C.44699098 .0029907227 .48599244 .0019989014 .5159912 0Z"/>
<path id="font_3_54" d="M.6100006 .45477296 .58200076 .6796875H.032989503V.64868167H.056991579C.13398743 .64868167 .13598633 .63768008 .13598633 .6016998V.07797241C.13598633 .041992189 .13398743 .0309906 .056991579 .0309906H.032989503V0C.067993167 .0029907227 .1459961 .0029907227 .18499756 .0029907227 .22599793 .0029907227 .31698609 .0029907227 .35299684 0V.0309906H.31999208C.22499085 .031188965 .22499085 .044189454 .22499085 .079193118V.3251953H.31098939C.40699769 .3251953 .4169922 .29318238 .4169922 .20819092H.44198609V.4731903H.4169922C.4169922 .38919068 .40699769 .3561859 .31098939 .3561859H.22499085V.6091919C.22499085 .64167788 .22698975 .64868167 .27398683 .64868167H.3939972C.5439911 .64868167 .56900027 .5926819 .58499148 .4546814L.6100006 .45477296Z"/>
<path id="font_3_91" d="M.5269928-.1940918V-.16308594C.45999146-.16308594 .44898988-.16308594 .44898988-.117996219V.4423828H.4269867L.3889923 .35136415C.37599183 .379364 .33499146 .4423828 .25498963 .4423828 .13899231 .4423828 .033996583 .34535218 .033996583 .21531677 .033996583 .090270999 .1309967-.0107421879 .24699402-.0107421879 .31698609-.0107421879 .35798646 .03225708 .37998963 .061264039V-.117996219C.37998963-.16308594 .36898805-.16308594 .3019867-.16308594V-.1940918L.4139862-.19110108 .5269928-.1940918M.3829956 .1362915C.3829956 .104278568 .36499024 .07626343 .34298707 .052261354 .32998658 .038253786 .2979889 .011245728 .25099183 .011245728 .17799378 .011245728 .116989139 .10028076 .116989139 .21531677 .116989139 .3343506 .18699646 .41737367 .26098634 .41737367 .34098817 .41737367 .3829956 .33035279 .3829956 .2773285V.1362915Z"/>
<path id="font_3_109" d="M.5349884 0V.0309906C.46499635 .0309906 .45700074 .037994386 .45700074 .08705139V.4423828L.30999757 .43066407V.3996582C.37998963 .3996582 .3880005 .39266969 .3880005 .34373475V.16601563C.3880005 .07910156 .33999635 .011245728 .2669983 .011245728 .18299866 .011245728 .1789856 .058135988 .1789856 .11009216V.4423828L.03199768 .43066407V.3996582C.10998535 .3996582 .10998535 .39666749 .10998535 .3078003V.15802002C.10998535 .080093387 .10998535-.0107421879 .2619934-.0107421879 .31799317-.0107421879 .3619995 .017242432 .3909912 .07910156V-.0107421879L.5349884 0Z"/>
<path id="font_3_43" d="M.4149933 .119140628C.4149933 .12911988 .40499879 .12911988 .4019928 .12911988 .3929901 .12911988 .3909912 .12512207 .3889923 .119140628 .3600006 .026229859 .29499818 .014251709 .2579956 .014251709 .20498657 .014251709 .116989139 .0572052 .116989139 .21801758 .116989139 .38093568 .19898987 .42323304 .2519989 .42323304 .26098634 .42323304 .32398988 .42222596 .35899354 .38594056 .31799317 .38293458 .31199647 .3529358 .31199647 .3399353 .31199647 .31393434 .32998658 .2939453 .35798646 .2939453 .38398744 .2939453 .4039917 .3109436 .4039917 .34094239 .4039917 .40911866 .32798768 .4482422 .25099183 .4482422 .12599182 .4482422 .033996583 .3399353 .033996583 .21601868 .033996583 .08816528 .1329956-.0107421879 .24899292-.0107421879 .3829956-.0107421879 .4149933 .10914612 .4149933 .119140628Z"/>
<path id="font_3_118" d="M.5079956 .3996582V.43066407C.4850006 .4286499 .45599366 .42765809 .43299867 .42765809L.34599305 .43066407V.3996582C.3769989 .39866639 .3929901 .3816681 .3929901 .35668946 .3929901 .34669496 .3919983 .34469605 .3869934 .33270265L.28599549 .08685303 .1749878 .35568238C.17098999 .36567689 .16899109 .36967469 .16899109 .3736725 .16899109 .3996582 .20599365 .3996582 .22499085 .3996582V.43066407L.115997318 .42765809C.08898926 .42765809 .04899597 .4286499 .018997193 .43066407V.3996582C.066986087 .3996582 .085998538 .3996582 .099990848 .36468507L.25-.000091552738 .22499085-.059066774C.20298767-.11407471 .1749878-.18309021 .11099243-.18309021 .10598755-.18309021 .08299255-.18309021 .06399536-.16503906 .09498596-.16104126 .102996829-.13905335 .102996829-.123046878 .102996829-.0970459 .083999637-.08103943 .06098938-.08103943 .040985109-.08103943 .018997193-.09403992 .018997193-.124053958 .018997193-.16905213 .06098938-.20507813 .11099243-.20507813 .17399597-.20507813 .21499634-.14804077 .23899842-.091049198L.4149933 .33569337C.44099427 .39865113 .49198915 .3996582 .5079956 .3996582Z"/>
<path id="font_3_95" d="M.7319946 .08753967C.7319946 .09353638 .7319946 .104537967 .71899417 .104537967 .70799258 .104537967 .70799258 .09555054 .70700076 .08854675 .70098879 .017532349 .66600039-.00047302247 .6409912-.00047302247 .59199526-.00047302247 .58399966 .05053711 .56999209 .14355469L.5569916 .22355652C.5389862 .28756715 .48999024 .3205719 .43499757 .3395691 .5319977 .36357118 .6100006 .4245758 .6100006 .502594 .6100006 .5986023 .49598695 .6826172 .34899903 .6826172H.034988405V.6516113H.05899048C.13598633 .6516113 .13798523 .64060977 .13798523 .604599V.077545169C.13798523 .04197693 .13598633 .0309906 .05899048 .0309906H.034988405V0C.070999149 .0029907227 .14199829 .0029907227 .18099976 .0029907227 .21998596 .0029907227 .29100038 .0029907227 .32699586 0V.0309906H.30299378C.22599793 .0309906 .22399903 .04197693 .22399903 .077926639V.3305359H.33898927C.35499574 .3305359 .39698792 .3305359 .43199159 .29658509 .46998597 .26063539 .46998597 .22969055 .46998597 .16279602 .46998597 .09788513 .46998597 .05795288 .5109863 .019989014 .5519867-.016464234 .6069946-.022460938 .6369934-.022460938 .71499636-.022460938 .7319946 .059524537 .7319946 .087524417V.08753967M.5069885 .5025635C.5069885 .43354798 .48298646 .35253907 .33499146 .35253907H.22399903V.6116028C.22399903 .6345978 .22399903 .64660647 .24598694 .6496124 .2559967 .6516113 .2849884 .6516113 .30499269 .6516113 .394989 .6516113 .5069885 .6476135 .5069885 .5025635Z"/>
<path id="font_3_59" d="M.4850006 .40411378C.4850006 .42111207 .47299195 .453125 .43399049 .453125 .4139862 .453125 .36999513 .44711305 .32798768 .40611268 .28599549 .43937684 .24398804 .4423828 .22200012 .4423828 .1289978 .4423828 .05999756 .37338258 .05999756 .29638673 .05999756 .25239564 .08198547 .21440125 .10699463 .19340515 .09399414 .17840576 .07598877 .14538574 .07598877 .11035156 .07598877 .07899475 .08898926 .04083252 .11999512 .020828248 .05999756 .003829956 .027999878-.039138795 .027999878-.07911682 .027999878-.15107727 .1269989-.20605469 .24899292-.20605469 .36698915-.20605469 .47099305-.15507508 .47099305-.07711792 .47099305-.042144777 .45700074 .008834839 .4059906 .036834718 .35299684 .064834598 .29499818 .064834598 .23399353 .064834598 .20899964 .064834598 .1659851 .064834598 .15899658 .065841678 .1269989 .069885257 .10598755 .101242069 .10598755 .13334656 .10598755 .13735962 .10598755 .16040039 .12298584 .18040467 .1619873 .15240479 .20298767 .14941406 .22200012 .14941406 .31498719 .14941406 .38398744 .21839905 .38398744 .2953949 .38398744 .3323822 .36799623 .36938478 .34298707 .39237977 .3789978 .42637635 .4149933 .43138124 .43299867 .43138124 .43299867 .43112184 .43998719 .43112184 .44299317 .43011476 .43199159 .42611695 .4269867 .41513063 .4269867 .40315248 .4269867 .38616944 .43998719 .37417604 .45599366 .37417604 .46598817 .37417604 .4850006 .3811798 .4850006 .4041443V.40411378M.30899049 .29626466C.30899049 .26930238 .30799867 .2373352 .29299928 .21235657 .2849884 .20037842 .2619934 .17240906 .22200012 .17240906 .1349945 .17240906 .1349945 .2722931 .1349945 .29527284 .1349945 .3222351 .13598633 .35420228 .15098572 .3791809 .15899658 .3913269 .18199158 .41937257 .22200012 .41937257 .30899049 .41937257 .30899049 .31922914 .30899049 .29618836V.29626466M.4189911-.07911682C.4189911-.13308716 .34799195-.18305969 .25-.18305969 .14898682-.18305969 .07998657-.13209534 .07998657-.07911682 .07998657-.03314209 .117996219 .003829956 .1619873 .0068359377H.22099304C.30699159 .0068359377 .4189911 .0068359377 .4189911-.07911682Z"/>
<path id="font_3_66" d="M.24699402 0V.0309906C.18099976 .0309906 .1769867 .035995485 .1769867 .075042728V.4423828L.036987306 .43066407V.3996582C.101989749 .3996582 .11099243 .3936615 .11099243 .3447113V.07595825C.11099243 .0309906 .099990848 .0309906 .032989503 .0309906V0L.14299011 .0029907227C.17799378 .0029907227 .21299744 .0009918213 .24699402 0M.19198609 .603775C.19198609 .6307678 .16899109 .6567688 .13899231 .6567688 .10499573 .6567688 .084991458 .6287689 .084991458 .603775 .084991458 .57676699 .10798645 .55078127 .13798523 .55078127 .17199707 .55078127 .19198609 .5787811 .19198609 .603775Z"/>
<path id="font_3_81" d="M.47099305 .21424866C.47099305 .34223939 .37098695 .4482422 .25 .4482422 .125 .4482422 .027999878 .3392334 .027999878 .21424866 .027999878 .085250858 .13198853-.0107421879 .24899292-.0107421879 .36999513-.0107421879 .47099305 .087249759 .47099305 .21424866M.3880005 .22224427C.3880005 .18624878 .3880005 .13224793 .3659973 .08824158 .34399415 .04324341 .2999878 .014251709 .25 .014251709 .20698548 .014251709 .16299439 .035247804 .13598633 .08125305 .11099243 .12524414 .11099243 .18624878 .11099243 .22224427 .11099243 .26124574 .11099243 .31523133 .1349945 .35923768 .1619873 .40522767 .20899964 .426239 .24899292 .426239 .29299928 .426239 .33599855 .40423585 .3619995 .36123658 .3880005 .3182373 .3880005 .26023866 .3880005 .22224427Z"/>
<path id="font_3_104" d="M.68499758 .45214845 .66600039 .6767578H.054992677L.035995485 .45214845H.06098938C.07499695 .6128235 .08999634 .64575198 .24099732 .64575198 .25898744 .64575198 .2849884 .64575198 .29499818 .64375308 .31599427 .6397705 .31599427 .6287842 .31599427 .60583499V.07901001C.31599427 .04499817 .31599427 .0309906 .21099854 .0309906H.17098999V0C.21199036 .0029907227 .31399537 .0029907227 .3600006 .0029907227 .4059906 .0029907227 .5089874 .0029907227 .5499878 0V.0309906H.5099945C.40499879 .0309906 .40499879 .04499817 .40499879 .07901001V.60583499C.40499879 .62579348 .40499879 .6397705 .4229889 .64375308 .43399049 .64575198 .46099855 .64575198 .47999574 .64575198 .6309967 .64575198 .6459961 .6128235 .6599884 .45214845H.68499758Z"/>
<path id="font_3_46" d="M.70700076 .33580018C.70700076 .52568057 .57199099 .6826172 .40098573 .6826172H.034988405V.6516113H.05899048C.13598633 .6516113 .13798523 .64060977 .13798523 .6046295V.07795715C.13798523 .041992189 .13598633 .0309906 .05899048 .0309906H.034988405V0H.40098573C.56900027 0 .70700076 .1479187 .70700076 .33580018M.6069946 .33580018C.6069946 .22486878 .58799746 .16490174 .5519867 .11593628 .5319977 .08895874 .47499085 .0309906 .37399293 .0309906H.272995C.22599793 .0309906 .22399903 .037994386 .22399903 .07096863V.6116333C.22399903 .64460757 .22599793 .6516113 .272995 .6516113H.37298585C.43499757 .6516113 .5039978 .6296234 .5549927 .55867007 .59799197 .49969483 .6069946 .41375733 .6069946 .33580018Z"/>
<path id="font_3_28" d="M.48298646 .08912659V.14511109H.45799256V.08912659C.45799256 .03112793 .43299867 .025131226 .42199708 .025131226 .3889923 .025131226 .3849945 .070129398 .3849945 .07511902V.27508546C.3849945 .31707765 .3849945 .3560791 .34899903 .39312745 .30999757 .43223573 .2599945 .4482422 .21199036 .4482422 .12998963 .4482422 .06098938 .40115357 .06098938 .335083 .06098938 .30508424 .08099365 .28808595 .10699463 .28808595 .1349945 .28808595 .15299988 .30807496 .15299988 .33407594 .15299988 .3460846 .147995 .37908937 .101989749 .38008119 .1289978 .41519166 .17799378 .426239 .20999146 .426239 .25898744 .426239 .31599427 .38710023 .31599427 .29808045V.26107789C.2649994 .25808717 .19499207 .25508119 .13198853 .22509766 .056991579 .19110108 .03199768 .13911438 .03199768 .09512329 .03199768 .014251709 .1289978-.0107421879 .19198609-.0107421879 .2579956-.0107421879 .3039856 .029251099 .32299806 .07624817 .32699586 .036132814 .35398866-.005859375 .40098573-.005859375 .42199708-.005859375 .48298646 .008132935 .48298646 .08912659M.31599427 .14013672C.31599427 .04525757 .24398804 .011245728 .19898987 .011245728 .1499939 .011245728 .10899353 .04624939 .10899353 .09625244 .10899353 .15124512 .15098572 .23425293 .31599427 .24024964V.14013672Z"/>
<path id="font_3_84" d="M.5209961 .21636963C.5209961 .34336854 .42399598 .4423828 .31199647 .4423828 .23399353 .4423828 .19198609 .39837647 .17199707 .3763733V.4423828L.027999878 .43066407V.3996582C.09899902 .3996582 .10598755 .3936615 .10598755 .34973146V-.117996219C.10598755-.16308594 .09498596-.16308594 .027999878-.16308594V-.1940918L.13999939-.19110108 .25299073-.1940918V-.16308594C.18598938-.16308594 .1749878-.16308594 .1749878-.117996219V.050186159 .059173585C.17999268 .04319763 .22200012-.0107421879 .2979889-.0107421879 .4169922-.0107421879 .5209961 .087127689 .5209961 .21594239V.21636963M.43798829 .21594239C.43798829 .09512329 .36799623 .011245728 .2939911 .011245728 .2539978 .011245728 .21598816 .031219483 .18899536 .07215881 .1749878 .09312439 .1749878 .09411621 .1749878 .114089969V.33674623C.20399475 .38838197 .25299073 .41737367 .3039856 .41737367 .3769989 .41737367 .43798829 .32937623 .43798829 .21636963V.21594239Z"/>
</defs>
<path transform="matrix(1.00003,0,0,-1.00002,40.565774,127.04622)" stroke-width=".19925" stroke-linecap="butt" stroke-miterlimit="10" stroke-linejoin="miter" fill="none" stroke="#bfbfbf" d="M47.72691 0V125.24757M95.45383 0V125.24757M143.18074 0V125.24757M190.90766 0V125.24757"/>
<path transform="matrix(1.00003,0,0,-1.00002,40.565774,127.04622)" stroke-width=".19925" stroke-linecap="butt" stroke-miterlimit="10" stroke-linejoin="miter" fill="none" stroke="#bfbfbf" d="M0 25.04951H238.63457M0 50.09903H238.63457M0 75.14854H238.63457M0 100.19806H238.63457"/>
<path transform="matrix(1.00003,0,0,-1.00002,40.565774,127.04622)" stroke-width=".19925" stroke-linecap="butt" stroke-miterlimit="10" stroke-linejoin="miter" fill="none" stroke="#7f807f" d="M47.72691 0V4.25253M95.45383 0V4.25253M143.18074 0V4.25253M190.90766 0V4.25253M47.72691 125.24757V120.99501M95.45383 125.24757V120.99501M143.18074 125.24757V120.99501M190.90766 125.24757V120.99501"/>
<path transform="matrix(1.00003,0,0,-1.00002,40.565774,127.04622)" stroke-width=".19925" stroke-linecap="butt" stroke-miterlimit="10" stroke-linejoin="miter" fill="none" stroke="#7f807f" d="M0 25.04951H4.25186M0 50.09903H4.25186M0 75.14854H4.25186M0 100.19806H4.25186M238.63457 25.04951H234.38268M238.63457 50.09903H234.38268M238.63457 75.14854H234.38268M238.63457 100.19806H234.38268"/>
<path transform="matrix(1.00003,0,0,-1.00002,40.565774,127.04622)" stroke-width=".3985" stroke-linecap="butt" stroke-miterlimit="10" stroke-linejoin="miter" fill="none" stroke="#000000" d="M0 0V125.24757H238.63457V0H0Z"/>
<use data-text="2" xlink:href="#font_1_1" transform="matrix(9.962899,0,0,-9.962799,85.80313,136.98642)"/>
<use data-text="4" xlink:href="#font_1_2" transform="matrix(9.962899,0,0,-9.962799,133.53156,136.98642)"/>
<use data-text="6" xlink:href="#font_1_3" transform="matrix(9.962899,0,0,-9.962799,181.26001,136.98642)"/>
<use data-text="8" xlink:href="#font_1_4" transform="matrix(9.962899,0,0,-9.962799,228.98844,136.98642)"/>
<use data-text="2" xlink:href="#font_1_1" transform="matrix(9.962899,0,0,-9.962799,32.064516,105.20678)"/>
<use data-text="4" xlink:href="#font_1_2" transform="matrix(9.962899,0,0,-9.962799,32.064516,80.15628)"/>
<use data-text="6" xlink:href="#font_1_3" transform="matrix(9.962899,0,0,-9.962799,32.064516,55.106775)"/>
<use data-text="8" xlink:href="#font_1_4" transform="matrix(9.962899,0,0,-9.962799,32.064516,30.056275)"/>
<g clip-path="url(#clip_2)">
<path transform="matrix(1.00003,0,0,-1.00002,40.565774,127.04622)" stroke-width=".79701" stroke-linecap="butt" stroke-miterlimit="10" stroke-linejoin="miter" fill="none" stroke="#ff0000" d="M0 43.83664 238.63457 71.39111"/>
</g>
<path transform="matrix(1.00003,0,0,-1.00002,40.565774,127.04622)" d="M30.6287 26.30199C30.6287 27.40245 29.73662 28.29454 28.63614 28.29454 27.53568 28.29454 26.64359 27.40245 26.64359 26.30199 26.64359 25.2015 27.53568 24.30943 28.63614 24.30943 29.73662 24.30943 30.6287 25.2015 30.6287 26.30199ZM28.63614 26.30199" fill="#4d4dff"/>
<path transform="matrix(1.00003,0,0,-1.00002,40.565774,127.04622)" stroke-width=".3985" stroke-linecap="butt" stroke-miterlimit="10" stroke-linejoin="miter" fill="none" stroke="#4d4dff" d="M30.6287 26.30199C30.6287 27.40245 29.73662 28.29454 28.63614 28.29454 27.53568 28.29454 26.64359 27.40245 26.64359 26.30199 26.64359 25.2015 27.53568 24.30943 28.63614 24.30943 29.73662 24.30943 30.6287 25.2015 30.6287 26.30199ZM28.63614 26.30199"/>
<path transform="matrix(1.00003,0,0,-1.00002,40.565774,127.04622)" d="M44.94678 56.3614C44.94678 57.46187 44.05469 58.35396 42.95422 58.35396 41.85374 58.35396 40.96167 57.46187 40.96167 56.3614 40.96167 55.26093 41.85374 54.36885 42.95422 54.36885 44.05469 54.36885 44.94678 55.26093 44.94678 56.3614ZM42.95422 56.3614" fill="#4d4dff"/>
<path transform="matrix(1.00003,0,0,-1.00002,40.565774,127.04622)" stroke-width=".3985" stroke-linecap="butt" stroke-miterlimit="10" stroke-linejoin="miter" fill="none" stroke="#4d4dff" d="M44.94678 56.3614C44.94678 57.46187 44.05469 58.35396 42.95422 58.35396 41.85374 58.35396 40.96167 57.46187 40.96167 56.3614 40.96167 55.26093 41.85374 54.36885 42.95422 54.36885 44.05469 54.36885 44.94678 55.26093 44.94678 56.3614ZM42.95422 56.3614"/>
<path transform="matrix(1.00003,0,0,-1.00002,40.565774,127.04622)" d="M52.1058 18.78712C52.1058 19.8876 51.21373 20.77968 50.11325 20.77968 49.01279 20.77968 48.1207 19.8876 48.1207 18.78712 48.1207 17.68666 49.01279 16.79457 50.11325 16.79457 51.21373 16.79457 52.1058 17.68666 52.1058 18.78712ZM50.11325 18.78712" fill="#4d4dff"/>
<path transform="matrix(1.00003,0,0,-1.00002,40.565774,127.04622)" stroke-width=".3985" stroke-linecap="butt" stroke-miterlimit="10" stroke-linejoin="miter" fill="none" stroke="#4d4dff" d="M52.1058 18.78712C52.1058 19.8876 51.21373 20.77968 50.11325 20.77968 49.01279 20.77968 48.1207 19.8876 48.1207 18.78712 48.1207 17.68666 49.01279 16.79457 50.11325 16.79457 51.21373 16.79457 52.1058 17.68666 52.1058 18.78712ZM50.11325 18.78712"/>
<path transform="matrix(1.00003,0,0,-1.00002,40.565774,127.04622)" d="M61.65118 65.12874C61.65118 66.2292 60.75911 67.12129 59.65863 67.12129 58.55817 67.12129 57.66608 66.2292 57.66608 65.12874 57.66608 64.02826 58.55817 63.13618 59.65863 63.13618 60.75911 63.13618 61.65118 64.02826 61.65118 65.12874ZM59.65863 65.12874" fill="#4d4dff"/>
<path transform="matrix(1.00003,0,0,-1.00002,40.565774,127.04622)" stroke-width=".3985" stroke-linecap="butt" stroke-miterlimit="10" stroke-linejoin="miter" fill="none" stroke="#4d4dff" d="M61.65118 65.12874C61.65118 66.2292 60.75911 67.12129 59.65863 67.12129 58.55817 67.12129 57.66608 66.2292 57.66608 65.12874 57.66608 64.02826 58.55817 63.13618 59.65863 63.13618 60.75911 63.13618 61.65118 64.02826 61.65118 65.12874ZM59.65863 65.12874"/>
<path transform="matrix(1.00003,0,0,-1.00002,40.565774,127.04622)" d="M75.96927 40.07922C75.96927 41.17969 75.07718 42.07178 73.97672 42.07178 72.87624 42.07178 71.98416 41.17969 71.98416 40.07922 71.98416 38.97874 72.87624 38.08667 73.97672 38.08667 75.07718 38.08667 75.96927 38.97874 75.96927 40.07922ZM73.97672 40.07922" fill="#4d4dff"/>
<path transform="matrix(1.00003,0,0,-1.00002,40.565774,127.04622)" stroke-width=".3985" stroke-linecap="butt" stroke-miterlimit="10" stroke-linejoin="miter" fill="none" stroke="#4d4dff" d="M75.96927 40.07922C75.96927 41.17969 75.07718 42.07178 73.97672 42.07178 72.87624 42.07178 71.98416 41.17969 71.98416 40.07922 71.98416 38.97874 72.87624 38.08667 73.97672 38.08667 75.07718 38.08667 75.96927 38.97874 75.96927 40.07922ZM73.97672 40.07922"/>
<path transform="matrix(1.00003,0,0,-1.00002,40.565774,127.04622)" d="M92.67369 76.40102C92.67369 77.50148 91.7816 78.39357 90.68114 78.39357 89.58066 78.39357 88.68858 77.50148 88.68858 76.40102 88.68858 75.30055 89.58066 74.40846 90.68114 74.40846 91.7816 74.40846 92.67369 75.30055 92.67369 76.40102ZM90.68114 76.40102" fill="#4d4dff"/>
<path transform="matrix(1.00003,0,0,-1.00002,40.565774,127.04622)" stroke-width=".3985" stroke-linecap="butt" stroke-miterlimit="10" stroke-linejoin="miter" fill="none" stroke="#4d4dff" d="M92.67369 76.40102C92.67369 77.50148 91.7816 78.39357 90.68114 78.39357 89.58066 78.39357 88.68858 77.50148 88.68858 76.40102 88.68858 75.30055 89.58066 74.40846 90.68114 74.40846 91.7816 74.40846 92.67369 75.30055 92.67369 76.40102ZM90.68114 76.40102"/>
<path transform="matrix(1.00003,0,0,-1.00002,40.565774,127.04622)" d="M102.21907 35.06932C102.21907 36.16978 101.32698 37.06187 100.22652 37.06187 99.12604 37.06187 98.23396 36.16978 98.23396 35.06932 98.23396 33.96884 99.12604 33.07677 100.22652 33.07677 101.32698 33.07677 102.21907 33.96884 102.21907 35.06932ZM100.22652 35.06932" fill="#4d4dff"/>
<path transform="matrix(1.00003,0,0,-1.00002,40.565774,127.04622)" stroke-width=".3985" stroke-linecap="butt" stroke-miterlimit="10" stroke-linejoin="miter" fill="none" stroke="#4d4dff" d="M102.21907 35.06932C102.21907 36.16978 101.32698 37.06187 100.22652 37.06187 99.12604 37.06187 98.23396 36.16978 98.23396 35.06932 98.23396 33.96884 99.12604 33.07677 100.22652 33.07677 101.32698 33.07677 102.21907 33.96884 102.21907 35.06932ZM100.22652 35.06932"/>
<path transform="matrix(1.00003,0,0,-1.00002,40.565774,127.04622)" d="M109.37811 61.3713C109.37811 62.47177 108.48602 63.36386 107.38556 63.36386 106.28508 63.36386 105.393 62.47177 105.393 61.3713 105.393 60.27083 106.28508 59.37875 107.38556 59.37875 108.48602 59.37875 109.37811 60.27083 109.37811 61.3713ZM107.38556 61.3713" fill="#4d4dff"/>
<path transform="matrix(1.00003,0,0,-1.00002,40.565774,127.04622)" stroke-width=".3985" stroke-linecap="butt" stroke-miterlimit="10" stroke-linejoin="miter" fill="none" stroke="#4d4dff" d="M109.37811 61.3713C109.37811 62.47177 108.48602 63.36386 107.38556 63.36386 106.28508 63.36386 105.393 62.47177 105.393 61.3713 105.393 60.27083 106.28508 59.37875 107.38556 59.37875 108.48602 59.37875 109.37811 60.27083 109.37811 61.3713ZM107.38556 61.3713"/>
<path transform="matrix(1.00003,0,0,-1.00002,40.565774,127.04622)" d="M123.69618 90.17825C123.69618 91.27872 122.8041 92.1708 121.70363 92.1708 120.60315 92.1708 119.71107 91.27872 119.71107 90.17825 119.71107 89.07777 120.60315 88.1857 121.70363 88.1857 122.8041 88.1857 123.69618 89.07777 123.69618 90.17825ZM121.70363 90.17825" fill="#4d4dff"/>
<path transform="matrix(1.00003,0,0,-1.00002,40.565774,127.04622)" stroke-width=".3985" stroke-linecap="butt" stroke-miterlimit="10" stroke-linejoin="miter" fill="none" stroke="#4d4dff" d="M123.69618 90.17825C123.69618 91.27872 122.8041 92.1708 121.70363 92.1708 120.60315 92.1708 119.71107 91.27872 119.71107 90.17825 119.71107 89.07777 120.60315 88.1857 121.70363 88.1857 122.8041 88.1857 123.69618 89.07777 123.69618 90.17825ZM121.70363 90.17825"/>
<path transform="matrix(1.00003,0,0,-1.00002,40.565774,127.04622)" d="M135.62792 47.59407C135.62792 48.69455 134.73583 49.58662 133.63536 49.58662 132.53488 49.58662 131.6428 48.69455 131.6428 47.59407 131.6428 46.4936 132.53488 45.60152 133.63536 45.60152 134.73583 45.60152 135.62792 46.4936 135.62792 47.59407ZM133.63536 47.59407" fill="#4d4dff"/>
<path transform="matrix(1.00003,0,0,-1.00002,40.565774,127.04622)" stroke-width=".3985" stroke-linecap="butt" stroke-miterlimit="10" stroke-linejoin="miter" fill="none" stroke="#4d4dff" d="M135.62792 47.59407C135.62792 48.69455 134.73583 49.58662 133.63536 49.58662 132.53488 49.58662 131.6428 48.69455 131.6428 47.59407 131.6428 46.4936 132.53488 45.60152 133.63536 45.60152 134.73583 45.60152 135.62792 46.4936 135.62792 47.59407ZM133.63536 47.59407"/>
<path transform="matrix(1.00003,0,0,-1.00002,40.565774,127.04622)" d="M149.94599 68.88615C149.94599 69.98663 149.0539 70.87871 147.95343 70.87871 146.85295 70.87871 145.96088 69.98663 145.96088 68.88615 145.96088 67.78569 146.85295 66.8936 147.95343 66.8936 149.0539 66.8936 149.94599 67.78569 149.94599 68.88615ZM147.95343 68.88615" fill="#4d4dff"/>
<path transform="matrix(1.00003,0,0,-1.00002,40.565774,127.04622)" stroke-width=".3985" stroke-linecap="butt" stroke-miterlimit="10" stroke-linejoin="miter" fill="none" stroke="#4d4dff" d="M149.94599 68.88615C149.94599 69.98663 149.0539 70.87871 147.95343 70.87871 146.85295 70.87871 145.96088 69.98663 145.96088 68.88615 145.96088 67.78569 146.85295 66.8936 147.95343 66.8936 149.0539 66.8936 149.94599 67.78569 149.94599 68.88615ZM147.95343 68.88615"/>
<path transform="matrix(1.00003,0,0,-1.00002,40.565774,127.04622)" d="M161.87772 101.45053C161.87772 102.55101 160.98563 103.44308 159.88516 103.44308 158.78469 103.44308 157.89261 102.55101 157.89261 101.45053 157.89261 100.35007 158.78469 99.45798 159.88516 99.45798 160.98563 99.45798 161.87772 100.35007 161.87772 101.45053ZM159.88516 101.45053" fill="#4d4dff"/>
<path transform="matrix(1.00003,0,0,-1.00002,40.565774,127.04622)" stroke-width=".3985" stroke-linecap="butt" stroke-miterlimit="10" stroke-linejoin="miter" fill="none" stroke="#4d4dff" d="M161.87772 101.45053C161.87772 102.55101 160.98563 103.44308 159.88516 103.44308 158.78469 103.44308 157.89261 102.55101 157.89261 101.45053 157.89261 100.35007 158.78469 99.45798 159.88516 99.45798 160.98563 99.45798 161.87772 100.35007 161.87772 101.45053ZM159.88516 101.45053"/>
<path transform="matrix(1.00003,0,0,-1.00002,40.565774,127.04622)" d="M171.4231 52.60397C171.4231 53.70445 170.531 54.59653 169.43054 54.59653 168.33007 54.59653 167.43799 53.70445 167.43799 52.60397 167.43799 51.50351 168.33007 50.61142 169.43054 50.61142 170.531 50.61142 171.4231 51.50351 171.4231 52.60397ZM169.43054 52.60397" fill="#4d4dff"/>
<path transform="matrix(1.00003,0,0,-1.00002,40.565774,127.04622)" stroke-width=".3985" stroke-linecap="butt" stroke-miterlimit="10" stroke-linejoin="miter" fill="none" stroke="#4d4dff" d="M171.4231 52.60397C171.4231 53.70445 170.531 54.59653 169.43054 54.59653 168.33007 54.59653 167.43799 53.70445 167.43799 52.60397 167.43799 51.50351 168.33007 50.61142 169.43054 50.61142 170.531 50.61142 171.4231 51.50351 171.4231 52.60397ZM169.43054 52.60397"/>
<path transform="matrix(1.00003,0,0,-1.00002,40.565774,127.04622)" d="M188.12752 85.16835C188.12752 86.26881 187.23543 87.1609 186.13497 87.1609 185.03449 87.1609 184.14241 86.26881 184.14241 85.16835 184.14241 84.06787 185.03449 83.1758 186.13497 83.1758 187.23543 83.1758 188.12752 84.06787 188.12752 85.16835ZM186.13497 85.16835" fill="#4d4dff"/>
<path transform="matrix(1.00003,0,0,-1.00002,40.565774,127.04622)" stroke-width=".3985" stroke-linecap="butt" stroke-miterlimit="10" stroke-linejoin="miter" fill="none" stroke="#4d4dff" d="M188.12752 85.16835C188.12752 86.26881 187.23543 87.1609 186.13497 87.1609 185.03449 87.1609 184.14241 86.26881 184.14241 85.16835 184.14241 84.06787 185.03449 83.1758 186.13497 83.1758 187.23543 83.1758 188.12752 84.06787 188.12752 85.16835ZM186.13497 85.16835"/>
<path transform="matrix(1.00003,0,0,-1.00002,40.565774,127.04622)" d="M200.05925 63.87625C200.05925 64.97673 199.16716 65.8688 198.0667 65.8688 196.96622 65.8688 196.07415 64.97673 196.07415 63.87625 196.07415 62.77579 196.96622 61.8837 198.0667 61.8837 199.16716 61.8837 200.05925 62.77579 200.05925 63.87625ZM198.0667 63.87625" fill="#4d4dff"/>
<path transform="matrix(1.00003,0,0,-1.00002,40.565774,127.04622)" stroke-width=".3985" stroke-linecap="butt" stroke-miterlimit="10" stroke-linejoin="miter" fill="none" stroke="#4d4dff" d="M200.05925 63.87625C200.05925 64.97673 199.16716 65.8688 198.0667 65.8688 196.96622 65.8688 196.07415 64.97673 196.07415 63.87625 196.07415 62.77579 196.96622 61.8837 198.0667 61.8837 199.16716 61.8837 200.05925 62.77579 200.05925 63.87625ZM198.0667 63.87625"/>
<path transform="matrix(1.00003,0,0,-1.00002,40.565774,127.04622)" d="M214.37732 106.46043C214.37732 107.56091 213.48523 108.45299 212.38477 108.45299 211.28429 108.45299 210.39221 107.56091 210.39221 106.46043 210.39221 105.35997 211.28429 104.46788 212.38477 104.46788 213.48523 104.46788 214.37732 105.35997 214.37732 106.46043ZM212.38477 106.46043" fill="#4d4dff"/>
<path transform="matrix(1.00003,0,0,-1.00002,40.565774,127.04622)" stroke-width=".3985" stroke-linecap="butt" stroke-miterlimit="10" stroke-linejoin="miter" fill="none" stroke="#4d4dff" d="M214.37732 106.46043C214.37732 107.56091 213.48523 108.45299 212.38477 108.45299 211.28429 108.45299 210.39221 107.56091 210.39221 106.46043 210.39221 105.35997 211.28429 104.46788 212.38477 104.46788 213.48523 104.46788 214.37732 105.35997 214.37732 106.46043ZM212.38477 106.46043"/>
<path transform="matrix(1.00003,0,0,-1.00002,40.565774,127.04622)" d="M221.53636 77.65349C221.53636 78.75397 220.64427 79.64604 219.54381 79.64604 218.44333 79.64604 217.55126 78.75397 217.55126 77.65349 217.55126 76.55302 218.44333 75.66093 219.54381 75.66093 220.64427 75.66093 221.53636 76.55302 221.53636 77.65349ZM219.54381 77.65349" fill="#4d4dff"/>
<path transform="matrix(1.00003,0,0,-1.00002,40.565774,127.04622)" stroke-width=".3985" stroke-linecap="butt" stroke-miterlimit="10" stroke-linejoin="miter" fill="none" stroke="#4d4dff" d="M221.53636 77.65349C221.53636 78.75397 220.64427 79.64604 219.54381 79.64604 218.44333 79.64604 217.55126 78.75397 217.55126 77.65349 217.55126 76.55302 218.44333 75.66093 219.54381 75.66093 220.64427 75.66093 221.53636 76.55302 221.53636 77.65349ZM219.54381 77.65349"/>
<path transform="matrix(1.00003,0,0,-1.00002,40.565774,127.04622)" d="M228.69539 98.94559C228.69539 100.04605 227.80332 100.93814 226.70284 100.93814 225.60237 100.93814 224.71028 100.04605 224.71028 98.94559 224.71028 97.84511 225.60237 96.95303 226.70284 96.95303 227.80332 96.95303 228.69539 97.84511 228.69539 98.94559ZM226.70284 98.94559" fill="#4d4dff"/>
<path transform="matrix(1.00003,0,0,-1.00002,40.565774,127.04622)" stroke-width=".3985" stroke-linecap="butt" stroke-miterlimit="10" stroke-linejoin="miter" fill="none" stroke="#4d4dff" d="M228.69539 98.94559C228.69539 100.04605 227.80332 100.93814 226.70284 100.93814 225.60237 100.93814 224.71028 100.04605 224.71028 98.94559 224.71028 97.84511 225.60237 96.95303 226.70284 96.95303 227.80332 96.95303 228.69539 97.84511 228.69539 98.94559ZM226.70284 98.94559"/>
<path transform="matrix(1.00003,0,0,-1.00002,40.565774,127.04622)" d="M71.19658 30.05942C71.19658 31.15988 70.30449 32.05197 69.20403 32.05197 68.10355 32.05197 67.21147 31.15988 67.21147 30.05942 67.21147 28.95894 68.10355 28.06686 69.20403 28.06686 70.30449 28.06686 71.19658 28.95894 71.19658 30.05942ZM69.20403 30.05942" fill="#4d4dff"/>
<path transform="matrix(1.00003,0,0,-1.00002,40.565774,127.04622)" stroke-width=".3985" stroke-linecap="butt" stroke-miterlimit="10" stroke-linejoin="miter" fill="none" stroke="#4d4dff" d="M71.19658 30.05942C71.19658 31.15988 70.30449 32.05197 69.20403 32.05197 68.10355 32.05197 67.21147 31.15988 67.21147 30.05942 67.21147 28.95894 68.10355 28.06686 69.20403 28.06686 70.30449 28.06686 71.19658 28.95894 71.19658 30.05942ZM69.20403 30.05942"/>
<path transform="matrix(1.00003,0,0,-1.00002,40.565774,127.04622)" d="M176.19579 93.93568C176.19579 95.03615 175.30371 95.92824 174.20323 95.92824 173.10277 95.92824 172.21068 95.03615 172.21068 93.93568 172.21068 92.8352 173.10277 91.94313 174.20323 91.94313 175.30371 91.94313 176.19579 92.8352 176.19579 93.93568ZM174.20323 93.93568" fill="#4d4dff"/>
<path transform="matrix(1.00003,0,0,-1.00002,40.565774,127.04622)" stroke-width=".3985" stroke-linecap="butt" stroke-miterlimit="10" stroke-linejoin="miter" fill="none" stroke="#4d4dff" d="M176.19579 93.93568C176.19579 95.03615 175.30371 95.92824 174.20323 95.92824 173.10277 95.92824 172.21068 95.03615 172.21068 93.93568 172.21068 92.8352 173.10277 91.94313 174.20323 91.94313 175.30371 91.94313 176.19579 92.8352 176.19579 93.93568ZM174.20323 93.93568"/>
<path transform="matrix(1.00003,0,0,-1.00002,40.565774,127.04622)" stroke-width=".3985" stroke-linecap="butt" stroke-miterlimit="10" stroke-linejoin="miter" fill="none" stroke="#4d4dff" d=""/>
<use data-text="S" xlink:href="#font_3_97" transform="matrix(9.962899,0,0,-9.962799,120.17916,152.53473)"/>
<use data-text="t" xlink:href="#font_3_105" transform="matrix(9.962899,0,0,-9.962799,125.71853,152.53473)"/>
<use data-text="r" xlink:href="#font_3_96" transform="matrix(9.962899,0,0,-9.962799,129.59412,152.53473)"/>
<use data-text="e" xlink:href="#font_3_50" transform="matrix(9.962899,0,0,-9.962799,133.49954,152.53473)"/>
<use data-text="s" xlink:href="#font_3_98" transform="matrix(9.962899,0,0,-9.962799,137.9231,152.53473)"/>
<use data-text="s" xlink:href="#font_3_98" transform="matrix(9.962899,0,0,-9.962799,141.84848,152.53473)"/>
<use data-text="L" xlink:href="#font_3_71" transform="matrix(9.962899,0,0,-9.962799,149.08155,152.53473)"/>
<use data-text="e" xlink:href="#font_3_50" transform="matrix(9.962899,0,0,-9.962799,155.30835,152.53473)"/>
<use data-text="v" xlink:href="#font_3_112" transform="matrix(9.962899,0,0,-9.962799,159.73188,152.53473)"/>
<use data-text="e" xlink:href="#font_3_50" transform="matrix(9.962899,0,0,-9.962799,164.7233,152.53473)"/>
<use data-text="l" xlink:href="#font_3_72" transform="matrix(9.962899,0,0,-9.962799,169.14682,152.53473)"/>
<use data-text="I" xlink:href="#font_3_65" transform="matrix(9.962899,0,0,-9.962799,175.22422,152.53473)"/>
<use data-text="n" xlink:href="#font_3_77" transform="matrix(9.962899,0,0,-9.962799,178.8208,152.53473)"/>
<use data-text="d" xlink:href="#font_3_47" transform="matrix(9.962899,0,0,-9.962799,184.36017,152.53473)"/>
<use data-text="e" xlink:href="#font_3_50" transform="matrix(9.962899,0,0,-9.962799,189.89954,152.53473)"/>
<use data-text="x" xlink:href="#font_3_116" transform="matrix(9.962899,0,0,-9.962799,194.32306,152.53473)"/>
<use data-text="I" xlink:href="#font_3_65" transform="matrix(0,-9.962799,-9.962899,-0,8.129799,115.62099)"/>
<use data-text="l" xlink:href="#font_3_72" transform="matrix(0,-9.962799,-9.962899,-0,8.129799,112.024417)"/>
<use data-text="l" xlink:href="#font_3_72" transform="matrix(0,-9.962799,-9.962899,-0,8.129799,109.25476)"/>
<use data-text="n" xlink:href="#font_3_77" transform="matrix(0,-9.962799,-9.962899,-0,8.129799,106.48509)"/>
<use data-text="e" xlink:href="#font_3_50" transform="matrix(0,-9.962799,-9.962899,-0,8.129799,100.945789)"/>
<use data-text="s" xlink:href="#font_3_98" transform="matrix(0,-9.962799,-9.962899,-0,8.129799,96.52229)"/>
<use data-text="s" xlink:href="#font_3_98" transform="matrix(0,-9.962799,-9.962899,-0,8.129799,92.596958)"/>
<use data-text="F" xlink:href="#font_3_54" transform="matrix(0,-9.962799,-9.962899,-0,8.129799,85.36395)"/>
<use data-text="r" xlink:href="#font_3_96" transform="matrix(0,-9.962799,-9.962899,-0,8.129799,79.6752)"/>
<use data-text="e" xlink:href="#font_3_50" transform="matrix(0,-9.962799,-9.962899,-0,8.129799,75.76979)"/>
<use data-text="q" xlink:href="#font_3_91" transform="matrix(0,-9.962799,-9.962899,-0,8.129799,71.3463)"/>
<use data-text="u" xlink:href="#font_3_109" transform="matrix(0,-9.962799,-9.962899,-0,8.129799,66.08594)"/>
<use data-text="e" xlink:href="#font_3_50" transform="matrix(0,-9.962799,-9.962899,-0,8.129799,60.54663)"/>
<use data-text="n" xlink:href="#font_3_77" transform="matrix(0,-9.962799,-9.962899,-0,8.129799,56.12314)"/>
<use data-text="c" xlink:href="#font_3_43" transform="matrix(0,-9.962799,-9.962899,-0,8.129799,50.58383)"/>
<use data-text="y" xlink:href="#font_3_118" transform="matrix(0,-9.962799,-9.962899,-0,8.129799,46.16034)"/>
<use data-text="I" xlink:href="#font_3_65" transform="matrix(0,-9.962799,-9.962899,-0,8.129799,37.59233)"/>
<use data-text="n" xlink:href="#font_3_77" transform="matrix(0,-9.962799,-9.962899,-0,8.129799,33.995759)"/>
<use data-text="d" xlink:href="#font_3_47" transform="matrix(0,-9.962799,-9.962899,-0,8.129799,28.456452)"/>
<use data-text="e" xlink:href="#font_3_50" transform="matrix(0,-9.962799,-9.962899,-0,8.129799,22.917145)"/>
<use data-text="x" xlink:href="#font_3_116" transform="matrix(0,-9.962799,-9.962899,-0,8.129799,18.493653)"/>
<path transform="matrix(1.00003,0,0,-1.00002,40.565774,127.04622)" d="M7.35797 92.4091H132.70134V121.29103H7.35797Z" fill="#ffffff"/>
<path transform="matrix(1.00003,0,0,-1.00002,40.565774,127.04622)" stroke-width=".3985" stroke-linecap="butt" stroke-miterlimit="10" stroke-linejoin="miter" fill="none" stroke="#000000" d="M7.35797 92.4091H132.70134V121.29103H7.35797Z"/>
<path transform="matrix(1.00003,0,0,-1.00002,51.311098,13.942963)" stroke-width=".79701" stroke-linecap="butt" stroke-miterlimit="10" stroke-linejoin="miter" fill="none" stroke="#ff0000" d="M0 0H8.50412 17.00826"/>
<use data-text="R" xlink:href="#font_3_95" transform="matrix(9.962899,0,0,-9.962799,70.70969,16.653016)"/>
<use data-text="e" xlink:href="#font_3_50" transform="matrix(9.962899,0,0,-9.962799,78.04239,16.653016)"/>
<use data-text="g" xlink:href="#font_3_59" transform="matrix(9.962899,0,0,-9.962799,82.46591,16.653016)"/>
<use data-text="r" xlink:href="#font_3_96" transform="matrix(9.962899,0,0,-9.962799,87.44736,16.653016)"/>
<use data-text="e" xlink:href="#font_3_50" transform="matrix(9.962899,0,0,-9.962799,91.3528,16.653016)"/>
<use data-text="s" xlink:href="#font_3_98" transform="matrix(9.962899,0,0,-9.962799,95.77635,16.653016)"/>
<use data-text="s" xlink:href="#font_3_98" transform="matrix(9.962899,0,0,-9.962799,99.70174,16.653016)"/>
<use data-text="i" xlink:href="#font_3_66" transform="matrix(9.962899,0,0,-9.962799,103.62712,16.653016)"/>
<use data-text="o" xlink:href="#font_3_81" transform="matrix(9.962899,0,0,-9.962799,106.396778,16.653016)"/>
<use data-text="n" xlink:href="#font_3_77" transform="matrix(9.962899,0,0,-9.962799,111.37822,16.653016)"/>
<use data-text="T" xlink:href="#font_3_104" transform="matrix(9.962899,0,0,-9.962799,120.235248,16.653016)"/>
<use data-text="r" xlink:href="#font_3_96" transform="matrix(9.962899,0,0,-9.962799,126.611499,16.653016)"/>
<use data-text="e" xlink:href="#font_3_50" transform="matrix(9.962899,0,0,-9.962799,130.51696,16.653016)"/>
<use data-text="n" xlink:href="#font_3_77" transform="matrix(9.962899,0,0,-9.962799,134.94048,16.653016)"/>
<use data-text="d" xlink:href="#font_3_47" transform="matrix(9.962899,0,0,-9.962799,140.47988,16.653016)"/>
<use data-text="L" xlink:href="#font_3_71" transform="matrix(9.962899,0,0,-9.962799,149.32695,16.653016)"/>
<use data-text="i" xlink:href="#font_3_66" transform="matrix(9.962899,0,0,-9.962799,155.55376,16.653016)"/>
<use data-text="n" xlink:href="#font_3_77" transform="matrix(9.962899,0,0,-9.962799,158.32341,16.653016)"/>
<use data-text="e" xlink:href="#font_3_50" transform="matrix(9.962899,0,0,-9.962799,163.86281,16.653016)"/>
<path transform="matrix(1.00003,0,0,-1.00002,51.311098,26.391205)" stroke-width=".3985" stroke-linecap="butt" stroke-miterlimit="10" stroke-linejoin="miter" fill="none" stroke="#4d4dff" d=""/>
<path transform="matrix(1.00003,0,0,-1.00002,51.311098,26.391205)" d="M10.49667 0C10.49667 1.10046 9.60458 1.99255 8.50412 1.99255 7.40364 1.99255 6.51157 1.10046 6.51157 0 6.51157-1.10046 7.40364-1.99255 8.50412-1.99255 9.60458-1.99255 10.49667-1.10046 10.49667 0ZM8.50412 0" fill="#4d4dff"/>
<path transform="matrix(1.00003,0,0,-1.00002,51.311098,26.391205)" stroke-width=".3985" stroke-linecap="butt" stroke-miterlimit="10" stroke-linejoin="miter" fill="none" stroke="#4d4dff" d="M10.49667 0C10.49667 1.10046 9.60458 1.99255 8.50412 1.99255 7.40364 1.99255 6.51157 1.10046 6.51157 0 6.51157-1.10046 7.40364-1.99255 8.50412-1.99255 9.60458-1.99255 10.49667-1.10046 10.49667 0ZM8.50412 0"/>
<use data-text="L" xlink:href="#font_3_71" transform="matrix(9.962899,0,0,-9.962799,78.0829,29.156262)"/>
<use data-text="o" xlink:href="#font_3_81" transform="matrix(9.962899,0,0,-9.962799,84.30971,29.156262)"/>
<use data-text="o" xlink:href="#font_3_81" transform="matrix(9.962899,0,0,-9.962799,89.570117,29.156262)"/>
<use data-text="s" xlink:href="#font_3_98" transform="matrix(9.962899,0,0,-9.962799,94.55156,29.156262)"/>
<use data-text="e" xlink:href="#font_3_50" transform="matrix(9.962899,0,0,-9.962799,98.47693,29.156262)"/>
<use data-text="D" xlink:href="#font_3_46" transform="matrix(9.962899,0,0,-9.962799,106.21811,29.156262)"/>
<use data-text="a" xlink:href="#font_3_28" transform="matrix(9.962899,0,0,-9.962799,113.82974,29.156262)"/>
<use data-text="t" xlink:href="#font_3_105" transform="matrix(9.962899,0,0,-9.962799,118.81119,29.156262)"/>
<use data-text="a" xlink:href="#font_3_28" transform="matrix(9.962899,0,0,-9.962799,122.68677,29.156262)"/>
<use data-text="S" xlink:href="#font_3_97" transform="matrix(9.962899,0,0,-9.962799,130.98584,29.156262)"/>
<use data-text="p" xlink:href="#font_3_84" transform="matrix(9.962899,0,0,-9.962799,136.52524,29.156262)"/>
<use data-text="r" xlink:href="#font_3_96" transform="matrix(9.962899,0,0,-9.962799,142.0646,29.156262)"/>
<use data-text="e" xlink:href="#font_3_50" transform="matrix(9.962899,0,0,-9.962799,145.97006,29.156262)"/>
<use data-text="a" xlink:href="#font_3_28" transform="matrix(9.962899,0,0,-9.962799,150.39359,29.156262)"/>
<use data-text="d" xlink:href="#font_3_47" transform="matrix(9.962899,0,0,-9.962799,155.37503,29.156262)"/>
</svg>
