<svg xmlns="http://www.w3.org/2000/svg" xmlns:xlink="http://www.w3.org/1999/xlink" xmlns:inkscape="http://www.inkscape.org/namespaces/inkscape" version="1.1" width="174" height="201" viewBox="0 0 174 201">
<defs>
<path id="font_1_1" d="M.33399964 .30233766C.33999635 .32835389 .36299134 .42037965 .43299867 .42037965 .43798829 .42037965 .46199037 .42037965 .48298646 .40734864 .45498658 .402359 .43499757 .37734986 .43499757 .35334779 .43499757 .33735658 .44599916 .31835938 .47299195 .31835938 .49499513 .31835938 .5269928 .3363495 .5269928 .37635804 .5269928 .42837525 .46798707 .4423828 .43399049 .4423828 .37599183 .4423828 .34098817 .38935853 .32899476 .36634828 .3039856 .43237306 .25 .4423828 .22099304 .4423828 .116989139 .4423828 .05999756 .3133545 .05999756 .28834535 .05999756 .27833558 .069992069 .27833558 .07199097 .27833558 .07998657 .27833558 .08299255 .28033448 .084991458 .28933717 .11898804 .39535523 .18499756 .42037965 .21899414 .42037965 .23799134 .42037965 .272995 .4113617 .272995 .35334779 .272995 .32235719 .2559967 .25532533 .21899414 .11528015 .20298767 .053268434 .16799927 .011245728 .12399292 .011245728 .117996219 .011245728 .09498596 .011245728 .07398987 .024276734 .09899902 .029266358 .12098694 .05027771 .12098694 .07827759 .12098694 .105270389 .09899902 .11328125 .083999637 .11328125 .053985597 .11328125 .0289917 .08728027 .0289917 .055267335 .0289917 .009246826 .07899475-.0107421879 .12298584-.0107421879 .18899536-.0107421879 .22499085 .059280397 .22799683 .0652771 .23999024 .028274537 .27598573-.0107421879 .33599855-.0107421879 .43899537-.0107421879 .49598695 .118270877 .49598695 .14328003 .49598695 .1532898 .4869995 .1532898 .48399354 .1532898 .47499085 .1532898 .47299195 .14929199 .47099305 .14228821 .43798829 .03527832 .36999513 .011245728 .33799745 .011245728 .29899598 .011245728 .2829895 .043273927 .2829895 .07727051 .2829895 .09927368 .2889862 .121276859 .2999878 .16529846L.33399964 .30233766Z"/>
<path id="font_1_2" d="M.48599244 .38136292C.48999024 .39537049 .48999024 .39736939 .48999024 .40437318 .48999024 .42237855 .47599793 .43138124 .46099855 .43138124 .45098878 .43138124 .43499757 .42536927 .42599488 .41036988 .42399598 .405365 .41600038 .37435914 .4119873 .35635377 .40499879 .33035279 .397995 .30334474 .3919983 .27633668L.34700013 .09628296C.34298707 .08126831 .2999878 .011245728 .23399353 .011245728 .18299866 .011245728 .17199707 .055267335 .17199707 .0922699 .17199707 .1382904 .18899536 .20030213 .22299195 .28833009 .23899842 .3293457 .24299622 .3403473 .24299622 .36035157 .24299622 .405365 .21099854 .4423828 .16099549 .4423828 .06599426 .4423828 .0289917 .29733277 .0289917 .28833009 .0289917 .27833558 .038986207 .27833558 .040985109 .27833558 .050994874 .27833558 .051986696 .28033448 .056991579 .29634095 .083999637 .3903656 .12399292 .42037965 .1579895 .42037965 .1659851 .42037965 .18299866 .42037965 .18299866 .3883667 .18299866 .36335755 .17298889 .3373413 .1659851 .31834413 .12599182 .21231079 .10798645 .1552887 .10798645 .10827637 .10798645 .019256592 .17098999-.0107421879 .22999573-.0107421879 .2689972-.0107421879 .30299378 .0062561037 .33099366 .03425598 .31799317-.017745972 .30599977-.06674194 .2659912-.11973572 .23999024-.15385437 .20199585-.18309021 .1559906-.18309021 .14199829-.18309021 .09700012-.18005371 .07998657-.14074707 .09599304-.14074707 .10899353-.14074707 .12298584-.1287384 .1329956-.11973572 .14299011-.10673523 .14299011-.08773804 .14299011-.056747438 .115997318-.052734376 .10598755-.052734376 .08299255-.052734376 .049987794-.068740848 .049987794-.11773682 .049987794-.16796875 .09399414-.20507813 .1559906-.20507813 .25898744-.20507813 .3619995-.11373901 .3899994-.00074768069L.48599244 .38136292Z"/>
<path id="font_1_3" d="M.1329956 .08345032C.18699646 .14138794 .21598816 .16636658 .2519989 .19732666 .2519989 .19833374 .31399537 .25128175 .34999085 .2872467 .44499208 .3803711 .46699525 .42837525 .46699525 .43237306 .46699525 .4423828 .45799256 .4423828 .45599366 .4423828 .44898988 .4423828 .44599916 .44036866 .44099427 .43138124 .41099549 .38337709 .3899994 .3671875 .3659973 .3671875 .34199525 .3671875 .32998658 .38237 .31498719 .3993683 .29599 .42237855 .2789917 .4423828 .24598694 .4423828 .17098999 .4423828 .125 .34918214 .125 .3282013 .125 .3231964 .12799073 .31721498 .13699341 .31721498 .1459961 .31721498 .147995 .3222046 .1499939 .3282013 .16899109 .37434388 .22698975 .37538148 .23498535 .37538148 .2559967 .37538148 .2749939 .36820985 .2979889 .36018373 .33799745 .34518434 .34899903 .34518434 .375 .34518434 .33898927 .30223084 .25498963 .2303009 .23599243 .21430969L.1459961 .13040161C.07798767 .06341553 .042999269 .0062561037 .042999269-.00074768069 .042999269-.0107421879 .052993776-.0107421879 .054992677-.0107421879 .06298828-.0107421879 .06498718-.008743286 .070999149 .002243042 .09399414 .037246705 .12399292 .064453128 .1559906 .064453128 .1789856 .064453128 .18899536 .055252077 .21398926 .026245118 .23098755 .0052490236 .24899292-.0107421879 .27799989-.0107421879 .3769989-.0107421879 .43499757 .1164093 .43499757 .14338684 .43499757 .14837647 .43099977 .15338135 .4229889 .15338135 .4139862 .15338135 .4119873 .14738465 .40899659 .14039612 .38598634 .07543945 .32199098 .056243898 .2889862 .056243898 .2689972 .056243898 .25099183 .06239319 .22999573 .06944275 .19599915 .08244324 .18099976 .08644104 .1599884 .08644104 .1579895 .08644104 .14199829 .08644104 .1329956 .08345032Z"/>
<path id="font_2_4" d="M.68699648 .32714845C.70199587 .32714845 .72099307 .32714845 .72099307 .34713746 .72099307 .36714173 .70199587 .36714173 .6879883 .36714173H.08898926C.07499695 .36714173 .055999757 .36714173 .055999757 .34713746 .055999757 .32714845 .07499695 .32714845 .08999634 .32714845H.68699648M.6879883 .13284302C.70199587 .13284302 .72099307 .13284302 .72099307 .15284729 .72099307 .17285156 .70199587 .17285156 .68699648 .17285156H.08999634C.07499695 .17285156 .055999757 .17285156 .055999757 .15284729 .055999757 .13284302 .07499695 .13284302 .08898926 .13284302H.6879883Z"/>
<path id="font_2_1" d="M.40899659 .23046875H.6879883C.70199587 .23046875 .72099307 .23046875 .72099307 .25045777 .72099307 .27046205 .70199587 .27046205 .6879883 .27046205H.40899659V.5500183C.40899659 .56399539 .40899659 .5830078 .3889923 .5830078 .36898805 .5830078 .36898805 .56399539 .36898805 .5500183V.27046205H.08898926C.07499695 .27046205 .055999757 .27046205 .055999757 .25045777 .055999757 .23046875 .07499695 .23046875 .08898926 .23046875H.36898805V-.05000305C.36898805-.06401062 .36898805-.08300781 .3889923-.08300781 .40899659-.08300781 .40899659-.06401062 .40899659-.05000305V.23046875Z"/>
<path id="font_2_2" d="M.2899933 .35191346C.37199403 .37893678 .42999269 .4490509 .42999269 .52809146 .42999269 .6100464 .34199525 .6660156 .24598694 .6660156 .14498902 .6660156 .068984989 .60606387 .068984989 .53009036 .068984989 .49710084 .09098816 .47808839 .11999512 .47808839 .15098572 .47808839 .17098999 .50009158 .17098999 .5290985 .17098999 .57910159 .12399292 .57910159 .10899353 .57910159 .13999939 .62802127 .20599365 .64100649 .24198914 .64100649 .2829895 .64100649 .33799745 .6190338 .33799745 .5290985 .33799745 .51708987 .33599855 .45906068 .30999757 .4149933 .27999879 .36691285 .24598694 .36390687 .22099304 .36291505 .21299744 .36190797 .18899536 .35990907 .18199158 .35990907 .17399597 .35890199 .16699219 .35791017 .16699219 .3479004 .16699219 .33691407 .17399597 .33691407 .19099427 .33691407H.23498535C.31698609 .33691407 .35398866 .2686615 .35398866 .17037964 .35398866 .034469606 .2849884 .0055389406 .24099732 .0055389406 .19799805 .0055389406 .12298584 .022491456 .08799744 .08137512 .12298584 .07637024 .1539917 .09837341 .1539917 .1363678 .1539917 .17237854 .1269989 .19238281 .09799194 .19238281 .07398987 .19238281 .041992189 .17837525 .041992189 .1343689 .041992189 .043441774 .1349945-.022460938 .24398804-.022460938 .3659973-.022460938 .45700074 .06838989 .45700074 .17037964 .45700074 .252594 .3939972 .33088685 .2899933 .35191346Z"/>
<path id="font_3_1" d="M.5049896 .18203736H.47099305C.46798707 .16001892 .45799256 .100997928 .44499208 .09098816 .43699647 .084991458 .3600006 .084991458 .34599305 .084991458H.1619873C.2669983 .17803955 .3019867 .20603943 .3619995 .25306703 .43598939 .312088 .5049896 .374115 .5049896 .46914674 .5049896 .5900879 .39898683 .6640625 .2709961 .6640625 .14698792 .6640625 .06298828 .57710269 .06298828 .4851532 .06298828 .43414308 .10598755 .42915345 .115997318 .42915345 .13999939 .42915345 .16899109 .44615174 .16899109 .48214723 .16899109 .5001526 .1619873 .53515627 .10998535 .53515627 .14099121 .6060791 .20899964 .62805178 .2559967 .62805178 .35598756 .62805178 .4079895 .5501404 .4079895 .46914674 .4079895 .38212586 .34599305 .3130951 .31399537 .27708436L.07299805 .038986207C.06298828 .02999878 .06298828 .027999878 .06298828 0H.47499085L.5049896 .18203736Z"/>
<path id="font_2_3" d="M.2939911 .16503906V.07800293C.2939911 .041992189 .2919922 .0309906 .21798706 .0309906H.19699097V0C.23799134 .0029907227 .2899933 .0029907227 .33198548 .0029907227 .37399293 .0029907227 .4269867 .0029907227 .46798707 0V.0309906H.44699098C.37298585 .0309906 .37098695 .041992189 .37098695 .07800293V.16503906H.47099305V.19602967H.37098695V.65075686C.37098695 .67074587 .37098695 .6767578 .35499574 .6767578 .34599305 .6767578 .34298707 .6767578 .33499146 .66474917L.027999878 .19602967V.16503906H.2939911M.2999878 .19602967H.055999757L.2999878 .5688019V.19602967Z"/>
<path id="font_4_97" d="M.5130005 .18504334C.5130005 .24205017 .49198915 .28604127 .46798707 .31604005 .4249878 .37104798 .37998963 .38204957 .31498719 .39704896L.22698975 .41804505C.14698792 .43804933 .12098694 .5020447 .12098694 .546051 .12098694 .6130676 .1749878 .677063 .25898744 .677063 .3880005 .677063 .43998719 .5810547 .45399476 .4800415 .45700074 .4610443 .45799256 .4560547 .46998597 .4560547 .48399354 .4560547 .48399354 .4630432 .48399354 .48405458V.677063C.48399354 .69706729 .48399354 .7050781 .47200013 .7050781 .46499635 .7050781 .46398927 .70407107 .45700074 .69207766 .44400025 .67407229 .45399476 .68707278 .42099 .6350708 .4039917 .6550751 .35198976 .7050781 .2579956 .7050781 .14099121 .7047119 .056991579 .6137085 .056991579 .51171877 .056991579 .4336853 .10398865 .38565064 .10899353 .38064576 .1539917 .33662416 .17199707 .33161927 .29100038 .30360414 .37199403 .28459168 .3809967 .28259278 .4139862 .24856568 .4139862 .24856568 .44898988 .21055603 .44898988 .1515503 .44898988 .08354187 .3999939 .008529663 .30899049 .008529663 .23199463 .008529663 .09298706 .040542604 .084991458 .20555115 .083999637 .22055054 .083999637 .2265625 .070999149 .2265625 .056991579 .2265625 .056991579 .21855164 .056991579 .19854737V.0055389406C.056991579-.014465332 .056991579-.022460938 .068984989-.022460938 .07598877-.022460938 .07699585-.021469117 .083999637-.009475708 .09700012 .008529663 .08699036-.004470825 .11999512 .047531129 .18199158-.012466431 .26098634-.022460938 .30999757-.022460938 .43199159-.022460938 .5130005 .07752991 .5130005 .18452454V.18504334Z"/>
<path id="font_4_81" d="M.48399354 .21324158C.48399354 .34423829 .37998963 .4482422 .25698854 .4482422 .12998963 .4482422 .0289917 .3412323 .0289917 .21324158 .0289917 .08824158 .1329956-.0107421879 .2559967-.0107421879 .3829956-.0107421879 .48399354 .09024048 .48399354 .21324158M.397995 .22224427C.397995 .1852417 .397995 .12724304 .37298585 .08325195 .34498597 .037246705 .29899598 .01725769 .25698854 .01725769 .20698548 .01725769 .16499329 .042251588 .14199829 .08125305 .115997318 .12324524 .114990238 .17623902 .114990238 .22224427 .114990238 .25924684 .114990238 .3162384 .13999939 .35723878 .16999817 .40823365 .21998596 .42323304 .2559967 .42323304 .31298829 .42323304 .35398866 .39123536 .37399293 .35723878 .39698792 .31523133 .397995 .26423646 .397995 .22224427Z"/>
<path id="font_4_72" d="M.26098634 0V.0309906C.19499207 .0309906 .18399048 .0309906 .18399048 .07701111V.69433596L.035995485 .6826172V.6516113C.10398865 .6516113 .11299133 .64460757 .11299133 .5956421V.07696533C.11299133 .0309906 .101989749 .0309906 .035995485 .0309906V0C.08299255 .0019989014 .101989749 .0029907227 .147995 .0029907227 .19499207 .0029907227 .21199036 .0019989014 .26098634 0Z"/>
<path id="font_4_66" d="M.25299073 0V.0309906C.18798828 .0309906 .18399048 .035995485 .18399048 .075042728V.4423828L.039993287 .43066407V.3996582C.10398865 .3996582 .11299133 .3936615 .11299133 .3447113V.07695007C.11299133 .0309906 .101989749 .0309906 .035995485 .0309906V0C.08099365 .0019989014 .101989749 .0029907227 .1459961 .0029907227 .1619873 .0029907227 .20399475 .0029907227 .25299073 0M.19699097 .6028137C.19699097 .63282778 .17298889 .6568146 .14299011 .6568146 .11299133 .6568146 .08898926 .63282778 .08898926 .6028137 .08898926 .57281497 .11299133 .5488281 .14299011 .5488281 .17298889 .5488281 .19699097 .57281497 .19699097 .6028137Z"/>
<path id="font_4_47" d="M.5399933 0V.0309906C.47200013 .0309906 .46299745 .037994386 .46299745 .087020877V.69433596L.31498719 .6826172V.6516113C.3829956 .6516113 .3919983 .64463809 .3919983 .59580996V.38339234C.3869934 .38938905 .34199525 .4423828 .2639923 .4423828 .14099121 .4423828 .033996583 .3443756 .033996583 .21525574 .033996583 .09013367 .13398743-.0107421879 .25299073-.0107421879 .32598878-.0107421879 .37098695 .03224182 .3889923 .053115846V-.0107421879L.5399933 0M.3889923 .12011719C.3889923 .10211182 .3889923 .099121097 .37399293 .078125 .34298707 .033218385 .29699708 .014251709 .25698854 .014251709 .21398926 .014251709 .17399597 .038208009 .147995 .0801239 .12199402 .12312317 .11999512 .18218994 .11999512 .21421814 .11999512 .26127626 .12599182 .3143463 .1519928 .35438539 .17399597 .38638307 .21499634 .41737367 .2679901 .41737367 .30999757 .41737367 .34999085 .39637757 .3769989 .35839845 .3889923 .3423767 .3889923 .34136964 .3889923 .32235719V.12011719Z"/>
<path id="font_5_1" d="M.4119873-.04144287C.4099884-.05241394 .4099884-.06639099 .4099884-.07836914 .4099884-.12634278 .41799928-.19433594 .49699403-.19433594 .6159973-.19433594 .6669922-.015472412 .6669922-.00047302247 .6669922 .0055389406 .6619873 .011520386 .6539917 .011520386 .6459961 .011520386 .6439972 .0045318605 .6409912-.0024719239 .6179962-.070388797 .55999758-.095336917 .522995-.095336917 .47698976-.095336917 .46199037-.06639099 .45199586 .0045318605 .66999819 .09844971 .7579956 .29560853 .7579956 .43276979 .7579956 .59095767 .6519928 .7050781 .49499513 .7050781 .2709961 .7050781 .049987794 .474823 .049987794 .24655152 .049987794 .082458499 .16299439-.022460938 .31399537-.022460938 .35499574-.022460938 .3959961-.013473511 .41299439-.008468628L.4119873-.04144287M.2539978 .01751709C.20799256 .035507204 .14099121 .08746338 .14099121 .21650696 .14099121 .26957704 .1579895 .43077088 .2659912 .55992129 .31799317 .6210022 .4019928 .677063 .48799134 .677063 .58699038 .677063 .6669922 .6039734 .6669922 .46380616 .6669922 .36369325 .6179962 .13743592 .44599916 .041503908 .43699647 .095458988 .41799928 .1484375 .35398866 .1484375 .2979889 .1484375 .24899292 .097457889 .24899292 .04649353 .24899292 .038497926 .25099183 .024520874 .2539978 .01751709M.4149933 .025512696C.40098573 .019515992 .3619995 .0055389406 .32099916 .0055389406 .30799867 .0055389406 .27398683 .0055389406 .27398683 .04649353 .27398683 .083465579 .31098939 .123428348 .35499574 .123428348 .4139862 .123428348 .4149933 .06947327 .4149933 .025512696Z"/>
</defs>
<path transform="matrix(1.00002,0,0,-1.00002,78.66228,157.1379)" d="M51.02414 0C51.02414 9.39339 28.1802 17.00804 0 17.00804-28.1802 17.00804-51.02414 9.39339-51.02414 0-51.02414-9.39339-28.1802-17.00804 0-17.00804 28.1802-17.00804 51.02414-9.39339 51.02414 0ZM0 0" fill="#e5e6e5" fill-opacity=".5"/>
<path transform="matrix(1.00002,0,0,-1.00002,78.66228,157.1379)" d="M-51.02414 0V68.0322H0V0Z" fill="#d9d9ff" fill-opacity=".5"/>
<path transform="matrix(1.00002,0,0,-1.00002,78.66228,157.1379)" d="M51.02414 0V68.0322H0V0Z" fill="#ccccff" fill-opacity=".6"/>
<path transform="matrix(1.00002,0,0,-1.00002,78.66228,157.1379)" d="M51.02414 68.0322C51.02414 77.42558 28.1802 85.04024 0 85.04024-28.1802 85.04024-51.02414 77.42558-51.02414 68.0322-51.02414 58.6388-28.1802 51.02414 0 51.02414 28.1802 51.02414 51.02414 58.6388 51.02414 68.0322ZM0 68.0322" fill="#bfbfff" fill-opacity=".7"/>
<path transform="matrix(1.00002,0,0,-1.00002,78.66228,157.1379)" stroke-width=".79701" stroke-linecap="round" stroke-linejoin="round" fill="none" stroke="#000000" d="M0 0-63.86224-31.93115"/>
<path transform="matrix(-.89437797,.44717894,.44717894,.89437797,14.798759,189.06969)" d="M4.66248 0C3.28098 .25902 1.0361 1.0361-.51805 1.94269V-1.94269C1.0361-1.0361 3.28098-.25902 4.66248 0"/>
<use data-text="x" xlink:href="#font_1_1" transform="matrix(9.962799,0,0,-9.962799,1.2157288,199.16374)"/>
<path transform="matrix(1.00002,0,0,-1.00002,78.66228,157.1379)" stroke-width=".79701" stroke-linecap="round" stroke-linejoin="round" fill="none" stroke="#000000" d="M0 0H80.37776"/>
<path transform="matrix(1.00002,0,0,-1.00002,159.04166,157.1379)" d="M4.66248 0C3.28098 .25902 1.0361 1.0361-.51805 1.94269V-1.94269C1.0361-1.0361 3.28098-.25902 4.66248 0"/>
<use data-text="y" xlink:href="#font_1_2" transform="matrix(9.962799,0,0,-9.962799,167.42307,165.14705)"/>
<path transform="matrix(1.00002,0,0,-1.00002,78.66228,157.1379)" stroke-width=".79701" stroke-linecap="round" stroke-linejoin="round" fill="none" stroke="#000000" d="M0-10.20491V148.40996"/>
<path transform="matrix(0,-1.00002,-1.00002,-0,78.66228,8.72496)" d="M4.66248 0C3.28098 .25902 1.0361 1.0361-.51805 1.94269V-1.94269C1.0361-1.0361 3.28098-.25902 4.66248 0"/>
<use data-text="z" xlink:href="#font_1_3" transform="matrix(9.962799,0,0,-9.962799,69.8721,6.2068789)"/>
<path transform="matrix(1.00002,0,0,-1.00002,78.66228,157.1379)" stroke-width=".3985" stroke-linecap="round" stroke-dasharray="2.98883,2.98883" stroke-linejoin="round" fill="none" stroke="#7f807f" d="M51.02414 0C51.02414 9.39339 28.1802 17.00804 0 17.00804-28.1802 17.00804-51.02414 9.39339-51.02414 0-51.02414-9.39339-28.1802-17.00804 0-17.00804 28.1802-17.00804 51.02414-9.39339 51.02414 0ZM0 0"/>
<path transform="matrix(1.00002,0,0,-1.00002,78.66228,157.1379)" stroke-width=".79701" stroke-linecap="round" stroke-linejoin="round" fill="none" stroke="#0000cc" d="M-51.02414 0V68.0322"/>
<path transform="matrix(1.00002,0,0,-1.00002,78.66228,157.1379)" stroke-width=".79701" stroke-linecap="round" stroke-linejoin="round" fill="none" stroke="#0000cc" d="M51.02414 0V68.0322"/>
<path transform="matrix(1.00002,0,0,-1.00002,78.66228,157.1379)" stroke-width=".79701" stroke-linecap="round" stroke-linejoin="round" fill="none" stroke="#0000cc" d="M51.02414 68.0322C51.02414 77.42558 28.1802 85.04024 0 85.04024-28.1802 85.04024-51.02414 77.42558-51.02414 68.0322-51.02414 58.6388-28.1802 51.02414 0 51.02414 28.1802 51.02414 51.02414 58.6388 51.02414 68.0322ZM0 68.0322"/>
<path transform="matrix(1.00002,0,0,-1.00002,78.66228,157.1379)" stroke-width=".3985" stroke-linecap="round" stroke-dasharray="2.98883,2.98883" stroke-linejoin="round" fill="none" stroke="#7f807f" d="M0 68.0322H51.02414"/>
<use data-text="z" xlink:href="#font_1_3" transform="matrix(9.962799,0,0,-9.962799,119.6011,74.337238)" fill="#000099"/>
<use data-text="=" xlink:href="#font_2_4" transform="matrix(9.962799,0,0,-9.962799,127.440258,74.337238)" fill="#000099"/>
<use data-text="y" xlink:href="#font_1_2" transform="matrix(9.962799,0,0,-9.962799,137.95648,74.337238)" fill="#000099"/>
<use data-text="+" xlink:href="#font_2_1" transform="matrix(9.962799,0,0,-9.962799,145.41263,74.337238)" fill="#000099"/>
<use data-text="3" xlink:href="#font_2_2" transform="matrix(9.962799,0,0,-9.962799,155.36545,74.337238)" fill="#000099"/>
<use data-text="x" xlink:href="#font_1_1" transform="matrix(9.962799,0,0,-9.962799,80.717319,178.97232)" fill="#000099"/>
<use data-text="2" xlink:href="#font_3_1" transform="matrix(6.97394,0,0,-6.97394,86.41142,175.35626)" fill="#000099"/>
<use data-text="+" xlink:href="#font_2_1" transform="matrix(9.962799,0,0,-9.962799,93.095569,178.97232)" fill="#000099"/>
<use data-text="y" xlink:href="#font_1_2" transform="matrix(9.962799,0,0,-9.962799,103.05777,178.97232)" fill="#000099"/>
<use data-text="2" xlink:href="#font_3_1" transform="matrix(6.97394,0,0,-6.97394,108.29988,175.35626)" fill="#000099"/>
<use data-text="=" xlink:href="#font_2_4" transform="matrix(9.962799,0,0,-9.962799,115.53703,178.97232)" fill="#000099"/>
<use data-text="4" xlink:href="#font_2_3" transform="matrix(9.962799,0,0,-9.962799,126.03781,178.97232)" fill="#000099"/>
<use data-text="S" xlink:href="#font_4_97" transform="matrix(8.966579,0,0,-8.966579,63.500978,118.607128)"/>
<use data-text="o" xlink:href="#font_4_81" transform="matrix(8.966579,0,0,-8.966579,68.620899,118.607128)"/>
<use data-text="l" xlink:href="#font_4_72" transform="matrix(8.966579,0,0,-8.966579,73.22972,118.607128)"/>
<use data-text="i" xlink:href="#font_4_66" transform="matrix(8.966579,0,0,-8.966579,75.79416,118.607128)"/>
<use data-text="d" xlink:href="#font_4_47" transform="matrix(8.966579,0,0,-8.966579,78.3586,118.607128)"/>
<use data-text="Q" xlink:href="#font_5_1" transform="matrix(8.966579,0,0,-8.966579,86.55443,118.607128)"/>
</svg>
