<svg xmlns="http://www.w3.org/2000/svg" xmlns:xlink="http://www.w3.org/1999/xlink" xmlns:inkscape="http://www.inkscape.org/namespaces/inkscape" version="1.1" width="129" height="119" viewBox="0 0 129 119">
<defs>
<path id="font_1_2" d="M.34999085 .056259157C.36099244 .015258789 .3959961-.0107421879 .43899537-.0107421879 .47399903-.0107421879 .49699403 .012252808 .5130005 .044265748 .5299988 .08027649 .54299929 .14129639 .54299929 .14329529 .54299929 .1532898 .5339966 .1532898 .5309906 .1532898 .5209961 .1532898 .519989 .14929199 .5169983 .13528443 .5029907 .07926941 .48399354 .011245728 .44198609 .011245728 .42099 .011245728 .41099549 .024261475 .41099549 .057266237 .41099549 .07926941 .4229889 .12628174 .43099977 .16130066L.45899964 .2693329C.46199037 .28433229 .47200013 .32234193 .47599793 .3373413 .48098756 .36035157 .4909973 .3983612 .4909973 .40437318 .4909973 .42237855 .47698976 .43138124 .46199037 .43138124 .45700074 .43138124 .43099977 .43037416 .4229889 .3963623 .4039917 .323349 .3600006 .14828491 .34799195 .09527588 .34700013 .091278079 .30699159 .011245728 .23399353 .011245728 .18199158 .011245728 .17199707 .056259157 .17199707 .09327698 .17199707 .14929199 .19999695 .22831726 .22599793 .29733277 .23799134 .3273468 .24299622 .34135438 .24299622 .36035157 .24299622 .405365 .21099854 .4423828 .16099549 .4423828 .06599426 .4423828 .0289917 .29733277 .0289917 .28833009 .0289917 .27833558 .038986207 .27833558 .040985109 .27833558 .050994874 .27833558 .051986696 .28033448 .056991579 .29634095 .08198547 .38336183 .11999512 .42037965 .1579895 .42037965 .16699219 .42037965 .18299866 .41937257 .18299866 .38735963 .18299866 .36335755 .17199707 .3343506 .1659851 .31933595 .1289978 .2203064 .10798645 .15829468 .10798645 .10928345 .10798645 .014251709 .1769867-.0107421879 .23098755-.0107421879 .29699708-.0107421879 .33299256 .03425598 .34999085 .056259157Z"/>
<path id="font_1_3" d="M.46798707 .37236024C.46798707 .42637635 .44198609 .4423828 .42399598 .4423828 .39898683 .4423828 .375 .41636659 .375 .3943634 .375 .38136292 .37998963 .3753662 .3909912 .36434938 .4119873 .3443451 .4249878 .31834413 .4249878 .28233338 .4249878 .24032593 .3639984 .011245728 .24699402 .011245728 .19599915 .011245728 .17298889 .04626465 .17298889 .09828186 .17298889 .15429688 .19999695 .22731018 .23098755 .31033326 .23799134 .3273468 .24299622 .34135438 .24299622 .36035157 .24299622 .405365 .21099854 .4423828 .16099549 .4423828 .066986087 .4423828 .0289917 .29733277 .0289917 .28833009 .0289917 .27833558 .038986207 .27833558 .040985109 .27833558 .050994874 .27833558 .051986696 .28033448 .056991579 .29634095 .085998538 .39736939 .1289978 .42037965 .1579895 .42037965 .1659851 .42037965 .18299866 .42037965 .18299866 .3883667 .18299866 .36335755 .17298889 .3363495 .1659851 .31834413 .12199402 .20230103 .10899353 .15629578 .10899353 .11328125 .10899353 .0052490236 .19699097-.0107421879 .24299622-.0107421879 .41099549-.0107421879 .46798707 .32034303 .46798707 .37236024Z"/>
<path id="font_2_95" d="M.7519989 .088897708C.7519989 .09489441 .7519989 .10687256 .73799136 .10687256 .72499087 .10687256 .72499087 .09788513 .723999 .08988953 .71899417 .026992798 .6879883 .0029907227 .6569977 .0029907227 .625 .0029907227 .6139984 .022994996 .60598757 .039978029 .5970001 .061935426 .58799746 .12983704 .58200076 .17475891 .57398989 .23666382 .5649872 .3035431 .45399476 .33850099 .548996 .36550904 .6269989 .42453004 .6269989 .5025635 .6269989 .601593 .5059967 .6826172 .35899354 .6826172H.039993287V.6516113H.06298828C.13999939 .6516113 .14199829 .64060977 .14199829 .6035919V.07891846C.14199829 .04197693 .13999939 .0309906 .06298828 .0309906H.039993287V0C.08699036 .0029907227 .13699341 .0029907227 .18499756 .0029907227 .23298645 .0029907227 .2829895 .0029907227 .33099366 0V.0309906H.30799867C.23098755 .0309906 .22898865 .04197693 .22898865 .07891846V.32850648H.34899903C.42099 .32850648 .45298768 .29057313 .45700074 .28657533 .4869995 .24963379 .4869995 .23466492 .4869995 .16377259 .4869995 .09687805 .4869995 .052963258 .5349884 .01499939 .58200076-.022003174 .6419983-.022003174 .6529999-.022003174 .7369995-.022003174 .7519989 .064941409 .7519989 .088897708M.5249939 .5025635C.5249939 .41653443 .48098756 .35351563 .34498597 .35351563H.22898865V.6105957C.22898865 .63661196 .23098755 .6456146 .25 .6496124 .25898744 .6516113 .29100038 .6516113 .31199647 .6516113 .397995 .6516113 .5249939 .6516113 .5249939 .5025635Z"/>
<path id="font_2_50" d="M.4269867 .11936951C.4269867 .12637329 .42199708 .13237 .41299439 .13237 .40299989 .13237 .3999939 .12536621 .39898683 .12136841 .36499024 .019256592 .27598573 .01725769 .26098634 .01725769 .21299744 .01725769 .17199707 .044281007 .14898682 .078323367 .115997318 .12736511 .114990238 .18743897 .114990238 .22949219H.3999939C.42199708 .22949219 .4269867 .22949219 .4269867 .25048829 .4269867 .35333253 .37098695 .4482422 .24299622 .4482422 .12298584 .4482422 .0289917 .3443451 .0289917 .22047425 .0289917 .08932495 .13398743-.0107421879 .2559967-.0107421879 .37799073-.0107421879 .4269867 .096343997 .4269867 .11936951M.35899354 .253479H.115997318C.125 .40725709 .21499634 .42323304 .24299622 .42323304 .2979889 .42323304 .35798646 .38130189 .35899354 .253479Z"/>
<path id="font_2_59" d="M.49899293 .40338136C.49899293 .42237855 .4850006 .45336915 .44499208 .45336915 .41600038 .45336915 .37098695 .4423828 .33599855 .40637208 .30899049 .42837525 .269989 .4423828 .22799683 .4423828 .1329956 .4423828 .06098938 .3743744 .06098938 .29537965 .06098938 .2443695 .09098816 .20837403 .10699463 .19337464 .10499573 .19137573 .07699585 .15637207 .07699585 .11038208 .07699585 .07637024 .09298706 .040374757 .11999512 .022369385 .068984989 .005874634 .0289917-.03111267 .0289917-.07809448 .0289917-.14907837 .12799073-.20605469 .2559967-.20605469 .3789978-.20605469 .48399354-.15307617 .48399354-.07609558 .48399354-.035110475 .46499635 .008880615 .42799378 .03288269 .37199403 .067871097 .31399537 .067871097 .21899414 .067871097 .19898987 .067871097 .16699219 .067871097 .15899658 .069885257 .12998963 .075927738 .11099243 .1031189 .11099243 .13534546 .11099243 .15142823 .115997318 .16642761 .125 .1794281 .1499939 .16343689 .18099976 .1484375 .22698975 .1484375 .32199098 .1484375 .3939972 .21643067 .3939972 .29542542 .3939972 .34443666 .3659973 .37843324 .35299684 .39242555 .3929901 .42843629 .43998719 .42843629 .45199586 .42843629 .44699098 .4254303 .43899537 .42042542 .43899537 .4024353 .43899537 .39143373 .44599916 .37243653 .46899415 .37243653 .48298646 .37243653 .49899293 .38243104 .49899293 .40342713V.40338136M.31698609 .29542542C.31698609 .27243043 .31698609 .1754303 .22698975 .1754303 .13798523 .17520142 .13798523 .27326966 .13798523 .2952881 .13798523 .3223114 .13999939 .35632325 .15699768 .38034059 .17199707 .4003601 .19898987 .41537477 .22698975 .41537477 .31698609 .41537477 .31698609 .31829835 .31698609 .2952881V.29542542M.42799378-.07698059C.42799378-.1340332 .35099793-.17906189 .25698854-.17906189 .15899658-.17912293 .084991458-.13212586 .084991458-.07711792 .084991458-.06112671 .09498596 .0048828127 .18099976 .0048828127H.272995C.30499269 .0048828127 .42799378 .0038757325 .42799378-.07711792V-.07698059Z"/>
<path id="font_2_66" d="M.25299073 0V.0309906C.18798828 .0309906 .18399048 .035995485 .18399048 .075042728V.4423828L.039993287 .43066407V.3996582C.10398865 .3996582 .11299133 .3936615 .11299133 .3447113V.07695007C.11299133 .0309906 .101989749 .0309906 .035995485 .0309906V0C.08099365 .0019989014 .101989749 .0029907227 .1459961 .0029907227 .1619873 .0029907227 .20399475 .0029907227 .25299073 0M.19699097 .6028137C.19699097 .63282778 .17298889 .6568146 .14299011 .6568146 .11299133 .6568146 .08898926 .63282778 .08898926 .6028137 .08898926 .57281497 .11299133 .5488281 .14299011 .5488281 .17298889 .5488281 .19699097 .57281497 .19699097 .6028137Z"/>
<path id="font_2_81" d="M.48399354 .21324158C.48399354 .34423829 .37998963 .4482422 .25698854 .4482422 .12998963 .4482422 .0289917 .3412323 .0289917 .21324158 .0289917 .08824158 .1329956-.0107421879 .2559967-.0107421879 .3829956-.0107421879 .48399354 .09024048 .48399354 .21324158M.397995 .22224427C.397995 .1852417 .397995 .12724304 .37298585 .08325195 .34498597 .037246705 .29899598 .01725769 .25698854 .01725769 .20698548 .01725769 .16499329 .042251588 .14199829 .08125305 .115997318 .12324524 .114990238 .17623902 .114990238 .22224427 .114990238 .25924684 .114990238 .3162384 .13999939 .35723878 .16999817 .40823365 .21998596 .42323304 .2559967 .42323304 .31298829 .42323304 .35398866 .39123536 .37399293 .35723878 .39698792 .31523133 .397995 .26423646 .397995 .22224427Z"/>
<path id="font_2_77" d="M.5469971 0V.0309906C.49598695 .03125 .47099305 .03125 .46998597 .0622406V.25431825C.46998597 .3373413 .46998597 .36636354 .44198609 .4013672 .4189911 .42938233 .3809967 .4423828 .33099366 .4423828 .23799134 .4423828 .19499207 .37335206 .18099976 .34535218H.17999268V.4423828L.034988405 .43066407V.3996582C.102996829 .3996582 .11199951 .39266969 .11199951 .34370423V.07695007C.11199951 .0309906 .100997928 .0309906 .034988405 .0309906V0C.08198547 .0019989014 .100997928 .0029907227 .14898682 .0029907227 .19699097 .0029907227 .20999146 .0019989014 .2630005 0V.0309906C.19699097 .0309906 .18598938 .0309906 .18598938 .07695007V.25878907C.18598938 .36532594 .26098634 .41737367 .32398988 .41737367 .3829956 .41737367 .3959961 .3683319 .3959961 .30825807V.077041629C.3959961 .0309906 .3849945 .0309906 .31900025 .0309906V0C.3659973 .0019989014 .3849945 .0029907227 .43299867 .0029907227 .48098756 .0029907227 .49398805 .0019989014 .5469971 0Z"/>
<path id="font_3_1" d="M.6539917 .67807009C.6569977 .68907168 .6569977 .69107058 .6569977 .69407656 .6569977 .69506838 .6559906 .7050781 .644989 .7050781 .6399994 .7050781 .6389923 .70407107 .6269989 .6900635 .61299136 .6750641 .625 .6880646 .57899478 .6340332 .5419922 .6900635 .48399354 .7050781 .43099977 .7050781 .3019867 .7050781 .17999268 .58999636 .17999268 .46990968 .17999268 .42886354 .19299317 .39483644 .21899414 .3668213 .24798584 .336792 .272995 .3307953 .34498597 .31178285L.42900086 .29075624C.46099855 .27975465 .49398805 .24871826 .49398805 .19168091 .49398805 .1026001 .40899659 .008529663 .30899049 .008529663 .25 .008529663 .1309967 .026550293 .1309967 .15464783 .1309967 .16365052 .1309967 .17866516 .13699341 .20869446 .13899231 .21269226 .13899231 .21469116 .13899231 .21569824 .13899231 .21969605 .13699341 .22669983 .125 .22669983 .11299133 .22669983 .11199951 .2217102 .10798645 .20469666L.054992677-.011474609C.054992677-.017471314 .05999756-.022460938 .066986087-.022460938 .07199097-.022460938 .07299805-.021469117 .085998538-.007461548 .09199524-.00047302247 .12098694 .03555298 .1329956 .048568727 .18499756-.018463135 .2769928-.022460938 .30699159-.022460938 .44499208-.022460938 .5649872 .10661316 .5649872 .23271179 .5649872 .35681153 .46699525 .38183595 .43598939 .38883973L.34498597 .41285707C.31199647 .42086793 .25099183 .4368744 .25099183 .51293948 .25099183 .5890045 .33099366 .677063 .43099977 .677063 .47099305 .677063 .5099945 .6660614 .5379944 .63804629 .57598879 .6010132 .57699587 .54696658 .57699587 .5209503 .57699587 .48791505 .57299807 .47691346 .57299807 .4689026 .57299807 .46089173 .57699587 .45588685 .58699038 .45588685 .59799197 .45588685 .59799197 .457901 .6029968 .47691346L.6539917 .67807009Z"/>
<path id="font_4_1" d="M.33099366-.2400055C.33099366-.23701477 .33099366-.23500061 .31399537-.21800232 .18899536-.0920105 .15699768 .09700012 .15699768 .25 .15699768 .42399598 .19499207 .59799197 .31799317 .72299197 .33099366 .73498538 .33099366 .7369995 .33099366 .73999026 .33099366 .746994 .32699586 .75 .32099916 .75 .31098939 .75 .22099304 .6819916 .1619873 .5549927 .11099243 .44499208 .09899902 .33399964 .09899902 .25 .09899902 .17199707 .10998535 .050994874 .16499329-.06201172 .22499085-.18501282 .31098939-.25 .32099916-.25 .32699586-.25 .33099366-.24700928 .33099366-.2400055Z"/>
<path id="font_4_3" d="M.45999146 .31976319C.45999146 .39982606 .45498658 .47988893 .41999818 .5539398 .37399293 .65000918 .2919922 .6660156 .25 .6660156 .18998719 .6660156 .116989139 .64001467 .07598877 .54693606 .04399109 .47789 .038986207 .39982606 .038986207 .31976319 .038986207 .24472046 .042999269 .15464783 .083999637 .07859802 .1269989-.0024719239 .19999695-.022460938 .24899292-.022460938 .30299378-.022460938 .3789978-.0014648438 .4229889 .09359741 .45498658 .16265869 .45999146 .2407074 .45999146 .31976319M.24899292-.00047302247C.20999146-.00047302247 .15098572 .024551392 .1329956 .12062073 .12199402 .18066406 .12199402 .2727356 .12199402 .3317871 .12199402 .39582826 .12199402 .46188355 .12998963 .5159149 .14898682 .63500979 .22399903 .64401248 .24899292 .64401248 .28199769 .64401248 .34799195 .6259918 .36698915 .52693179 .3769989 .47088624 .3769989 .39482118 .3769989 .3317871 .3769989 .25672914 .3769989 .18867493 .3659973 .12461853 .35099793 .029556275 .2939911-.00047302247 .24899292-.00047302247Z"/>
<path id="font_1_1" d="M.20298767 .0009918213C.20298767 .066986087 .17799378 .10598755 .13899231 .10598755 .10598755 .10598755 .085998538 .08099365 .085998538 .052993776 .085998538 .025985718 .10598755 0 .13899231 0 .15098572 0 .1639862 .0039978029 .17399597 .0129852299 .1769867 .01499939 .17799378 .015991211 .1789856 .015991211 .17999268 .015991211 .18099976 .01499939 .18099976 .0009918213 .18099976-.07316589 .1459961-.13328552 .11299133-.16635132 .101989749-.17736817 .101989749-.17936707 .101989749-.18237305 .101989749-.18936157 .10699463-.19335938 .11199951-.19335938 .12298584-.19335938 .20298767-.116256717 .20298767 .0009918213Z"/>
<path id="font_4_2" d="M.2889862 .25C.2889862 .32798768 .27799989 .44898988 .22299195 .56199648 .16299439 .68499758 .07699585 .75 .066986087 .75 .06098938 .75 .056991579 .74598696 .056991579 .73999026 .056991579 .7369995 .056991579 .73498538 .07598877 .71699526 .17399597 .6179962 .23098755 .45899964 .23098755 .25 .23098755 .07899475 .19400025-.09700012 .069992069-.2230072 .056991579-.23500061 .056991579-.23701477 .056991579-.2400055 .056991579-.2460022 .06098938-.25 .066986087-.25 .07699585-.25 .16699219-.18200684 .22599793-.055007936 .2769928 .054992677 .2889862 .16600037 .2889862 .25Z"/>
<path id="font_4_4" d="M.2939911 .64004519C.2939911 .66400149 .2939911 .6660156 .2709961 .6660156 .20899964 .60227969 .12098694 .60227969 .08898926 .60227969V.57128909C.10899353 .57128909 .16799927 .57128909 .21998596 .5972748V.07902527C.21998596 .042999269 .21699524 .0309906 .1269989 .0309906H.09498596V0C.12998963 .0029907227 .21699524 .0029907227 .25698854 .0029907227 .29699708 .0029907227 .38398744 .0029907227 .4189911 0V.0309906H.3869934C.29699708 .0309906 .2939911 .041992189 .2939911 .07902527V.64004519Z"/>
</defs>
<path transform="matrix(1.00006,0,0,-1.00005,25.877709,103.28251)" d="M0 0V70.86703H70.86703V0ZM70.86703 70.86703" fill="#d9d9ff"/>
<path transform="matrix(1.00006,0,0,-1.00005,25.877709,103.28251)" stroke-width=".79701" stroke-linecap="butt" stroke-miterlimit="10" stroke-linejoin="miter" fill="none" stroke="#000000" d="M-14.17317 0H94.55095"/>
<path transform="matrix(1.00006,0,0,-1.00005,120.434329,103.28251)" d="M4.66248 0C3.28098 .25902 1.0361 1.0361-.51805 1.94269V-1.94269C1.0361-1.0361 3.28098-.25902 4.66248 0"/>
<use data-text="u" xlink:href="#font_1_2" transform="matrix(9.963197,0,0,-9.963098,122.24548,111.29191)"/>
<path transform="matrix(1.00006,0,0,-1.00005,25.877709,103.28251)" stroke-width=".79701" stroke-linecap="butt" stroke-miterlimit="10" stroke-linejoin="miter" fill="none" stroke="#000000" d="M0-14.17317V94.55095"/>
<path transform="matrix(0,-1.00005,-1.00006,-0,25.877709,8.726837)" d="M4.66248 0C3.28098 .25902 1.0361 1.0361-.51805 1.94269V-1.94269C1.0361-1.0361 3.28098-.25902 4.66248 0"/>
<use data-text="v" xlink:href="#font_1_3" transform="matrix(9.963197,0,0,-9.963098,16.971177,6.208664)"/>
<path transform="matrix(1.00006,0,0,-1.00005,25.877709,103.28251)" stroke-width=".79701" stroke-linecap="butt" stroke-miterlimit="10" stroke-linejoin="miter" fill="none" stroke="#0000cc" d="M0 0V70.86703H70.86703V0ZM70.86703 70.86703"/>
<use data-text="R" xlink:href="#font_2_95" transform="matrix(8.966938,0,0,-8.966848,42.81572,69.98685)"/>
<use data-text="e" xlink:href="#font_2_50" transform="matrix(8.966938,0,0,-8.966848,49.594736,69.98685)"/>
<use data-text="g" xlink:href="#font_2_59" transform="matrix(8.966938,0,0,-8.966848,53.69262,69.98685)"/>
<use data-text="i" xlink:href="#font_2_66" transform="matrix(8.966938,0,0,-8.966848,58.30162,69.98685)"/>
<use data-text="o" xlink:href="#font_2_81" transform="matrix(8.966938,0,0,-8.966848,60.866167,69.98685)"/>
<use data-text="n" xlink:href="#font_2_77" transform="matrix(8.966938,0,0,-8.966848,65.475177,69.98685)"/>
<use data-text="S" xlink:href="#font_3_1" transform="matrix(8.966938,0,0,-8.966848,73.67058,69.98685)"/>
<path transform="matrix(1.00006,0,0,-1.00005,25.877709,103.28251)" d="M1.49442 0C1.49442 .82533 .82533 1.49442 0 1.49442-.82533 1.49442-1.49442 .82533-1.49442 0-1.49442-.82533-.82533-1.49442 0-1.49442 .82533-1.49442 1.49442-.82533 1.49442 0ZM0 0"/>
<use data-text="(" xlink:href="#font_4_1" transform="matrix(9.963197,0,0,-9.963098,.21717072,114.275058)"/>
<use data-text="0" xlink:href="#font_4_3" transform="matrix(9.963197,0,0,-9.963098,4.0828936,114.275058)"/>
<use data-text="," xlink:href="#font_1_1" transform="matrix(9.963197,0,0,-9.963098,9.073708,114.275058)"/>
<use data-text="0" xlink:href="#font_4_3" transform="matrix(9.963197,0,0,-9.963098,13.501976,114.275058)"/>
<use data-text=")" xlink:href="#font_4_2" transform="matrix(9.963197,0,0,-9.963098,18.483559,114.275058)"/>
<path transform="matrix(1.00006,0,0,-1.00005,25.877709,103.28251)" d="M72.36145 0C72.36145 .82533 71.69238 1.49442 70.86703 1.49442 70.04169 1.49442 69.37262 .82533 69.37262 0 69.37262-.82533 70.04169-1.49442 70.86703-1.49442 71.69238-1.49442 72.36145-.82533 72.36145 0ZM70.86703 0"/>
<use data-text="1" xlink:href="#font_4_4" transform="matrix(9.963197,0,0,-9.963098,94.257808,113.22301)"/>
<path transform="matrix(1.00006,0,0,-1.00005,25.877709,103.28251)" d="M1.49442 70.86703C1.49442 71.69238 .82533 72.36145 0 72.36145-.82533 72.36145-1.49442 71.69238-1.49442 70.86703-1.49442 70.04169-.82533 69.37262 0 69.37262 .82533 69.37262 1.49442 70.04169 1.49442 70.86703ZM0 70.86703"/>
<use data-text="1" xlink:href="#font_4_4" transform="matrix(9.963197,0,0,-9.963098,17.376198,35.62213)"/>
<path transform="matrix(1.00006,0,0,-1.00005,25.877709,103.28251)" d="M72.36145 70.86703C72.36145 71.69238 71.69238 72.36145 70.86703 72.36145 70.04169 72.36145 69.37262 71.69238 69.37262 70.86703 69.37262 70.04169 70.04169 69.37262 70.86703 69.37262 71.69238 69.37262 72.36145 70.04169 72.36145 70.86703ZM70.86703 70.86703"/>
<use data-text="(" xlink:href="#font_4_1" transform="matrix(9.963197,0,0,-9.963098,100.26917,26.400673)"/>
<use data-text="1" xlink:href="#font_4_4" transform="matrix(9.963197,0,0,-9.963098,104.134899,26.400673)"/>
<use data-text="," xlink:href="#font_1_1" transform="matrix(9.963197,0,0,-9.963098,109.12571,26.400673)"/>
<use data-text="1" xlink:href="#font_4_4" transform="matrix(9.963197,0,0,-9.963098,113.55398,26.400673)"/>
<use data-text=")" xlink:href="#font_4_2" transform="matrix(9.963197,0,0,-9.963098,118.53556,26.400673)"/>
</svg>
