<svg xmlns="http://www.w3.org/2000/svg" xmlns:xlink="http://www.w3.org/1999/xlink" xmlns:inkscape="http://www.inkscape.org/namespaces/inkscape" version="1.1" width="230" height="180" viewBox="0 0 230 180">
<defs>
<path id="font_1_5" d="M.33399964 .30233766C.33999635 .32835389 .36299134 .42037965 .43299867 .42037965 .43798829 .42037965 .46199037 .42037965 .48298646 .40734864 .45498658 .402359 .43499757 .37734986 .43499757 .35334779 .43499757 .33735658 .44599916 .31835938 .47299195 .31835938 .49499513 .31835938 .5269928 .3363495 .5269928 .37635804 .5269928 .42837525 .46798707 .4423828 .43399049 .4423828 .37599183 .4423828 .34098817 .38935853 .32899476 .36634828 .3039856 .43237306 .25 .4423828 .22099304 .4423828 .116989139 .4423828 .05999756 .3133545 .05999756 .28834535 .05999756 .27833558 .069992069 .27833558 .07199097 .27833558 .07998657 .27833558 .08299255 .28033448 .084991458 .28933717 .11898804 .39535523 .18499756 .42037965 .21899414 .42037965 .23799134 .42037965 .272995 .4113617 .272995 .35334779 .272995 .32235719 .2559967 .25532533 .21899414 .11528015 .20298767 .053268434 .16799927 .011245728 .12399292 .011245728 .117996219 .011245728 .09498596 .011245728 .07398987 .024276734 .09899902 .029266358 .12098694 .05027771 .12098694 .07827759 .12098694 .105270389 .09899902 .11328125 .083999637 .11328125 .053985597 .11328125 .0289917 .08728027 .0289917 .055267335 .0289917 .009246826 .07899475-.0107421879 .12298584-.0107421879 .18899536-.0107421879 .22499085 .059280397 .22799683 .0652771 .23999024 .028274537 .27598573-.0107421879 .33599855-.0107421879 .43899537-.0107421879 .49598695 .118270877 .49598695 .14328003 .49598695 .1532898 .4869995 .1532898 .48399354 .1532898 .47499085 .1532898 .47299195 .14929199 .47099305 .14228821 .43798829 .03527832 .36999513 .011245728 .33799745 .011245728 .29899598 .011245728 .2829895 .043273927 .2829895 .07727051 .2829895 .09927368 .2889862 .121276859 .2999878 .16529846L.33399964 .30233766Z"/>
<path id="font_1_6" d="M.48599244 .38136292C.48999024 .39537049 .48999024 .39736939 .48999024 .40437318 .48999024 .42237855 .47599793 .43138124 .46099855 .43138124 .45098878 .43138124 .43499757 .42536927 .42599488 .41036988 .42399598 .405365 .41600038 .37435914 .4119873 .35635377 .40499879 .33035279 .397995 .30334474 .3919983 .27633668L.34700013 .09628296C.34298707 .08126831 .2999878 .011245728 .23399353 .011245728 .18299866 .011245728 .17199707 .055267335 .17199707 .0922699 .17199707 .1382904 .18899536 .20030213 .22299195 .28833009 .23899842 .3293457 .24299622 .3403473 .24299622 .36035157 .24299622 .405365 .21099854 .4423828 .16099549 .4423828 .06599426 .4423828 .0289917 .29733277 .0289917 .28833009 .0289917 .27833558 .038986207 .27833558 .040985109 .27833558 .050994874 .27833558 .051986696 .28033448 .056991579 .29634095 .083999637 .3903656 .12399292 .42037965 .1579895 .42037965 .1659851 .42037965 .18299866 .42037965 .18299866 .3883667 .18299866 .36335755 .17298889 .3373413 .1659851 .31834413 .12599182 .21231079 .10798645 .1552887 .10798645 .10827637 .10798645 .019256592 .17098999-.0107421879 .22999573-.0107421879 .2689972-.0107421879 .30299378 .0062561037 .33099366 .03425598 .31799317-.017745972 .30599977-.06674194 .2659912-.11973572 .23999024-.15385437 .20199585-.18309021 .1559906-.18309021 .14199829-.18309021 .09700012-.18005371 .07998657-.14074707 .09599304-.14074707 .10899353-.14074707 .12298584-.1287384 .1329956-.11973572 .14299011-.10673523 .14299011-.08773804 .14299011-.056747438 .115997318-.052734376 .10598755-.052734376 .08299255-.052734376 .049987794-.068740848 .049987794-.11773682 .049987794-.16796875 .09399414-.20507813 .1559906-.20507813 .25898744-.20507813 .3619995-.11373901 .3899994-.00074768069L.48599244 .38136292Z"/>
<path id="font_1_3" d="M.5159912 .68333438C.5159912 .6843262 .5159912 .69433596 .5029907 .69433596 .48799134 .69433596 .3929901 .68533328 .37599183 .68333438 .36799623 .6823273 .3619995 .6773224 .3619995 .6643219 .3619995 .6523285 .37098695 .6523285 .38598634 .6523285 .43399049 .6523285 .43598939 .6453247 .43598939 .6353302L.43299867 .6153412 .37298585 .37835694C.35499574 .41537477 .32598878 .4423828 .2809906 .4423828 .1639862 .4423828 .039993287 .29533387 .039993287 .14929199 .039993287 .055267335 .09498596-.0107421879 .17298889-.0107421879 .19299317-.0107421879 .24299622-.0067443849 .30299378 .06427002 .31098939 .022247315 .34599305-.0107421879 .3939972-.0107421879 .42900086-.0107421879 .45199586 .012252808 .46798707 .044265748 .4850006 .08027649 .49798585 .14129639 .49798585 .14329529 .49798585 .1532898 .4889984 .1532898 .48599244 .1532898 .47599793 .1532898 .47499085 .14929199 .47200013 .13528443 .45498658 .07026672 .43699647 .011245728 .3959961 .011245728 .36898805 .011245728 .3659973 .037261964 .3659973 .057266237 .3659973 .08126831 .36799623 .088272098 .37199403 .105285648L.5159912 .68333438M.30799867 .119277957C.30299378 .10127258 .30299378 .09927368 .28799439 .08227539 .24398804 .027252198 .20298767 .011245728 .1749878 .011245728 .125 .011245728 .11099243 .06626892 .11099243 .105285648 .11099243 .1552887 .14299011 .27833558 .1659851 .32434083 .19699097 .38336183 .24198914 .42037965 .28199769 .42037965 .34700013 .42037965 .36099244 .3383484 .36099244 .33235169 .36099244 .32633973 .35899354 .32034303 .35798646 .31533814L.30799867 .119277957Z"/>
<path id="font_1_4" d="M.08799744 .059265138C.084991458 .044265748 .07899475 .021255494 .07899475 .01625061 .07899475-.0017547608 .09298706-.0107421879 .10798645-.0107421879 .11999512-.0107421879 .13798523-.002746582 .14498902 .01725769 .14698792 .021255494 .18099976 .15730286 .18499756 .17530823 .19299317 .20831299 .21099854 .27833558 .21699524 .30534364 .22099304 .31835938 .24899292 .36535646 .272995 .38734437 .2809906 .39434815 .30999757 .42037965 .35299684 .42037965 .3789978 .42037965 .3939972 .4083557 .394989 .4083557 .36499024 .40335084 .34298707 .37934876 .34298707 .35334779 .34298707 .33735658 .35398866 .31835938 .3809967 .31835938 .4079895 .31835938 .43598939 .34135438 .43598939 .37734986 .43598939 .41235353 .4039917 .4423828 .35299684 .4423828 .28799439 .4423828 .24398804 .39335633 .22499085 .36535646 .21699524 .4103546 .18099976 .4423828 .13398743 .4423828 .08799744 .4423828 .068984989 .40335084 .05999756 .38534547 .041992189 .35134889 .0289917 .29133607 .0289917 .28834535 .0289917 .27833558 .038986207 .27833558 .040985109 .27833558 .050994874 .27833558 .051986696 .27934266 .057998659 .30134584 .07499695 .37234498 .09498596 .42037965 .1309967 .42037965 .147995 .42037965 .1619873 .41235353 .1619873 .37435914 .1619873 .35334779 .15899658 .3423462 .1459961 .29034425L.08799744 .059265138Z"/>
<path id="font_2_2" d="M.68699648 .32714845C.70199587 .32714845 .72099307 .32714845 .72099307 .34713746 .72099307 .36714173 .70199587 .36714173 .6879883 .36714173H.08898926C.07499695 .36714173 .055999757 .36714173 .055999757 .34713746 .055999757 .32714845 .07499695 .32714845 .08999634 .32714845H.68699648M.6879883 .13284302C.70199587 .13284302 .72099307 .13284302 .72099307 .15284729 .72099307 .17285156 .70199587 .17285156 .68699648 .17285156H.08999634C.07499695 .17285156 .055999757 .17285156 .055999757 .15284729 .055999757 .13284302 .07499695 .13284302 .08898926 .13284302H.6879883Z"/>
<path id="font_1_2" d="M.37298585 .37835694C.35499574 .41537477 .32598878 .4423828 .2809906 .4423828 .1639862 .4423828 .039993287 .29533387 .039993287 .14929199 .039993287 .055267335 .09498596-.0107421879 .17298889-.0107421879 .19299317-.0107421879 .24299622-.0067443849 .30299378 .06427002 .31098939 .022247315 .34599305-.0107421879 .3939972-.0107421879 .42900086-.0107421879 .45199586 .012252808 .46798707 .044265748 .4850006 .08027649 .49798585 .14129639 .49798585 .14329529 .49798585 .1532898 .4889984 .1532898 .48599244 .1532898 .47599793 .1532898 .47499085 .14929199 .47200013 .13528443 .45498658 .07026672 .43699647 .011245728 .3959961 .011245728 .36898805 .011245728 .3659973 .037261964 .3659973 .057266237 .3659973 .07926941 .36799623 .08728027 .3789978 .13128662 .3899994 .17329407 .3919983 .18330384 .40098573 .22131348L.43699647 .36135865C.44400025 .38935853 .44400025 .39135743 .44400025 .39537049 .44400025 .41236878 .43199159 .42237855 .4149933 .42237855 .3909912 .42237855 .37599183 .4003601 .37298585 .37835694M.30799867 .119277957C.30299378 .10127258 .30299378 .09927368 .28799439 .08227539 .24398804 .027252198 .20298767 .011245728 .1749878 .011245728 .125 .011245728 .11099243 .06626892 .11099243 .105285648 .11099243 .1552887 .14299011 .27833558 .1659851 .32434083 .19699097 .38336183 .24198914 .42037965 .28199769 .42037965 .34700013 .42037965 .36099244 .3383484 .36099244 .33235169 .36099244 .32633973 .35899354 .32034303 .35798646 .31533814L.30799867 .119277957Z"/>
<path id="font_2_1" d="M.1269989 .07699585 .23298645 .18003845C.3889923 .31811524 .44898988 .3721466 .44898988 .47216798 .44898988 .5860901 .35899354 .6660156 .23699951 .6660156 .12399292 .6660156 .049987794 .57411196 .049987794 .48516847 .049987794 .4291687 .099990848 .4291687 .102996829 .4291687 .11999512 .4291687 .15499878 .44117738 .15499878 .48217774 .15499878 .5081787 .13699341 .5341797 .101989749 .5341797 .09399414 .5341797 .09199524 .5341797 .08898926 .5331726 .11199951 .59806826 .1659851 .63500979 .22399903 .63500979 .31498719 .63500979 .35798646 .5541382 .35798646 .47216798 .35798646 .39215089 .30799867 .31311036 .25299073 .25108338L.06098938 .036987306C.049987794 .025985718 .049987794 .023986817 .049987794 0H.42099L.44898988 .17404175H.42399598C.4189911 .14402771 .4119873 .1000061 .4019928 .084991458 .394989 .07699585 .32899476 .07699585 .30699159 .07699585H.1269989Z"/>
<path id="font_2_5" d="M.20799256 .19424439C.22999573 .19024658 .31199647 .17424011 .31199647 .102249149 .31199647 .051254274 .2769928 .011245728 .19898987 .011245728 .114990238 .011245728 .07899475 .06825256 .05999756 .15324402 .056991579 .1662445 .055999757 .17024231 .04598999 .17024231 .032989503 .17024231 .032989503 .16323853 .032989503 .14524842V.013244629C.032989503-.003753662 .032989503-.0107421879 .04399109-.0107421879 .04899597-.0107421879 .049987794-.009750366 .068984989 .009246826 .070999149 .011245728 .070999149 .013244629 .08898926 .03224182 .1329956-.009750366 .17799378-.0107421879 .19898987-.0107421879 .31399537-.0107421879 .3600006 .056243898 .3600006 .12825012 .3600006 .1812439 .32998658 .21124268 .31799317 .22323609 .2849884 .25523377 .24598694 .26324464 .20399475 .27124024 .147995 .28224183 .08099365 .2952423 .08099365 .35324098 .08099365 .38822938 .10699463 .42922975 .19299317 .42922975 .30299378 .42922975 .30799867 .3392334 .30999757 .3082428 .31098939 .2992401 .31999208 .2992401 .32199098 .2992401 .33499146 .2992401 .33499146 .304245 .33499146 .3232422V.4242401C.33499146 .4412384 .33499146 .4482422 .32398988 .4482422 .31900025 .4482422 .31698609 .4482422 .3039856 .43623353 .30099488 .43223573 .29100038 .42323304 .2869873 .42022706 .24899292 .4482422 .20799256 .4482422 .19299317 .4482422 .070999149 .4482422 .032989503 .38124085 .032989503 .3252411 .032989503 .29023744 .04899597 .26223756 .07598877 .24023438 .10798645 .21424866 .13598633 .2082367 .20799256 .19424439Z"/>
<path id="font_2_3" d="M.1769867 .4423828 .036987306 .43138124V.40037538C.101989749 .40037538 .11099243 .3943634 .11099243 .34532167V.076034549C.11099243 .0309906 .099990848 .0309906 .032989503 .0309906V0C.06498718 .0009918213 .11898804 .0029907227 .14299011 .0029907227 .17799378 .0029907227 .21299744 .0009918213 .24699402 0V.0309906C.18099976 .0309906 .1769867 .035995485 .1769867 .075042728V.4423828M.18099976 .6159363C.18099976 .64793398 .1559906 .6689453 .12799073 .6689453 .09700012 .6689453 .07499695 .64193728 .07499695 .6159363 .07499695 .5889435 .09700012 .5629425 .12799073 .5629425 .1559906 .5629425 .18099976 .5839386 .18099976 .6159363Z"/>
<path id="font_2_4" d="M.10998535 .34429933V.076034549C.10998535 .0309906 .09899902 .0309906 .03199768 .0309906V0C.066986087 .0009918213 .117996219 .0029907227 .14498902 .0029907227 .17098999 .0029907227 .22299195 .0009918213 .25698854 0V.0309906C.18998719 .0309906 .1789856 .0309906 .1789856 .076034549V.2602234C.1789856 .36431886 .25 .42037965 .31399537 .42037965 .3769989 .42037965 .3880005 .36631776 .3880005 .30926515V.076034549C.3880005 .0309906 .3769989 .0309906 .30999757 .0309906V0C.34498597 .0009918213 .3959961 .0029907227 .4229889 .0029907227 .44898988 .0029907227 .5009918 .0009918213 .5349884 0V.0309906C.48298646 .0309906 .45799256 .0309906 .45700074 .061019899V.25221253C.45700074 .3383026 .45700074 .36932374 .42599488 .405365 .4119873 .42237855 .3789978 .4423828 .32099916 .4423828 .24798584 .4423828 .20098877 .39935304 .17298889 .33729554V.4423828L.03199768 .43138124V.40037538C.101989749 .4003601 .10998535 .39335633 .10998535 .34429933Z"/>
<path id="font_1_1" d="M.45498658 .5001831C.45498658 .56614688 .43699647 .7050781 .33499146 .7050781 .19599915 .7050781 .041992189 .42323304 .041992189 .19425965 .041992189 .100250247 .070999149-.0107421879 .1619873-.0107421879 .30299378-.0107421879 .45498658 .27627564 .45498658 .5001831M.147995 .36328126C.16499329 .42723084 .18499756 .5071869 .22499085 .57814028 .2519989 .6271057 .2889862 .68307498 .33399964 .68307498 .3829956 .68307498 .3889923 .6191101 .3889923 .56214907 .3889923 .5131836 .3809967 .46220399 .35699464 .36328126H.147995M.34799195 .3312683C.33699037 .28527833 .31599427 .2002716 .27799989 .12826538 .24299622 .060256959 .20498657 .011245728 .1619873 .011245728 .1289978 .011245728 .10798645 .040252687 .10798645 .133255 .10798645 .17526245 .11399841 .23326111 .13999939 .3312683H.34799195Z"/>
<path id="font_3_1" d="M.46598817 .49519349C.46598817 .5981293 .43199159 .7050781 .33999635 .7050781 .19400025 .7050781 .040985109 .4202423 .040985109 .19825745 .040985109 .12625122 .06298828-.0107421879 .16699219-.0107421879 .31298829-.0107421879 .46598817 .27127076 .46598817 .49519349M.1499939 .36328126C.16999817 .44223023 .19099427 .5151825 .23199463 .58413699 .2559967 .62409976 .29299928 .68006899 .33898927 .68006899 .3929901 .68006899 .39698792 .59413149 .39698792 .55615237 .39698792 .4961853 .3809967 .426239 .3659973 .36328126H.1499939M.35699464 .3312683C.34098817 .26826478 .32199098 .19326782 .28199769 .12225342 .2559967 .07525635 .21598816 .014251709 .16799927 .014251709 .125 .014251709 .11099243 .06625366 .11099243 .13926697 .11099243 .20326233 .1269989 .26826478 .14199829 .3312683H.35699464Z"/>
<path id="font_4_1" d="M.70799258 .3310089C.7220001 .3310089 .7409973 .3310089 .7409973 .35202027 .7409973 .37402345 .71899417 .37402345 .70399478 .37402345H.09399414C.07899475 .37402345 .056991579 .37402345 .056991579 .35202027 .056991579 .3310089 .07699585 .3310089 .08999634 .3310089H.70799258M.70399478 .12695313C.71899417 .12695313 .7409973 .12695313 .7409973 .14894104 .7409973 .1699524 .7220001 .1699524 .70799258 .1699524H.08999634C.07699585 .1699524 .056991579 .1699524 .056991579 .14894104 .056991579 .12695313 .07899475 .12695313 .09399414 .12695313H.70399478Z"/>
<path id="font_5_1" d="M.33999635 .35964967H.46299745C.44198609 .2718048 .42900086 .20690918 .42900086 .14201355 .42900086 .09109497 .44299317-.009765625 .48999024-.009765625 .5159912-.009765625 .5389862 .014221191 .5389862 .03617859 .5389862 .045166017 .5339966 .05316162 .5319977 .058151246 .49499513 .1240387 .4889984 .1879425 .4889984 .23886109 .4889984 .25482179 .4889984 .29875184 .5019989 .35964967H.6339874C.6459961 .35964967 .68899539 .35964967 .68899539 .40065003 .68899539 .43066407 .6609955 .43066407 .6439972 .43066407H.24598694C.22599793 .43066407 .18099976 .43066407 .1269989 .380661 .09599304 .3516693 .05999756 .30374146 .05999756 .2937622 .05999756 .27978517 .07398987 .27978517 .07798767 .27978517 .08898926 .27978517 .09098816 .28178407 .09799194 .29077149 .114990238 .31472779 .1539917 .35964967 .23599243 .35964967H.30099488C.2669983 .2358551 .19898987 .10107422 .18598938 .07511902 .1769867 .059143068 .1639862 .034194948 .1639862 .02420044 .1639862 .0032196046 .17999268-.009765625 .19999695-.009765625 .23498535-.009765625 .24699402 .02520752 .2579956 .057144166 .27799989 .12004089 .27799989 .122039798 .2919922 .1759491L.33999635 .35964967Z"/>
<path id="font_6_2" d="M.16299439 .33073426C.1639862 .38076783 .1659851 .46383668 .20098877 .52589419 .24499512 .60191348 .31098939 .6320343 .37098695 .6320343 .3939972 .6320343 .43998719 .62802127 .46398927 .5998993 .4269867 .5939026 .42099 .5679016 .42099 .55189517 .42099 .52589419 .43899537 .50390627 .46899415 .50390627 .49899293 .50390627 .5179901 .52290347 .5179901 .55389407 .5179901 .6149597 .47200013 .66503909 .36999513 .66503909 .21499634 .66503909 .06298828 .52989199 .06298828 .31672669 .06298828 .07354736 .17599488-.021484375 .30799867-.021484375 .34700013-.021484375 .4149933-.015487671 .47599793 .043533327 .5079956 .075546268 .5469971 .11558533 .5469971 .2036438 .5469971 .2376709 .54299929 .30171205 .48199464 .3587494 .44699098 .3907776 .40299989 .42578126 .31799317 .42578126 .24798584 .42578126 .19699097 .3897705 .16299439 .33073426M.30699159 .014511108C.1659851 .014511108 .1659851 .18663025 .1659851 .22566223 .1659851 .3117218 .22299195 .3937683 .31298829 .3937683 .36499024 .3937683 .394989 .37275697 .4189911 .34074403 .44699098 .30171205 .44699098 .25668336 .44699098 .2036438 .44699098 .13459778 .44499208 .10057068 .41099549 .060546876 .3869934 .030517579 .35499574 .014511108 .30699159 .014511108Z"/>
<path id="font_6_1" d="M.16999817 .5549774C.20298767 .54599 .23799134 .5419922 .27198792 .5419922 .2939911 .5419922 .34999085 .5419922 .41299439 .5769806 .42999269 .58699038 .49198915 .6279907 .49198915 .6490326 .49198915 .6620331 .48199464 .66503909 .47799684 .66503909 .47499085 .66503909 .47399903 .66503909 .46299745 .661026 .4269867 .6470337 .37599183 .63298037 .31098939 .63298037 .2619934 .63298037 .20799256 .64201357 .16299439 .6590271 .15299988 .6630249 .14898682 .66503909 .14498902 .66503909 .1309967 .66503909 .1309967 .6540375 .1309967 .6380005V.33787538C.1309967 .32086183 .1309967 .30885316 .14898682 .30885316 .1579895 .30885316 .16099549 .31285096 .16799927 .32086183 .19299317 .35289 .23699951 .38693238 .31498719 .38693238 .43798829 .38693238 .43798829 .23677063 .43798829 .20472718 .43798829 .16567993 .43499757 .10961914 .4019928 .068573 .37098695 .030532837 .32499696 .014511108 .28199769 .014511108 .21299744 .014511108 .14399719 .05255127 .11999512 .11061096 .16899109 .11161804 .1749878 .15066529 .1749878 .16267395 .1749878 .18971253 .1539917 .21372986 .12298584 .21372986 .11399841 .21372986 .07199097 .20872498 .07199097 .15867615 .07199097 .0665741 .15899658-.021484375 .2849884-.021484375 .42199708-.021484375 .5379944 .07557678 .5379944 .20072937 .5379944 .31484986 .44599916 .4189453 .31698609 .4189453 .2519989 .4189453 .20199585 .39793397 .16999817 .37091065V.5549774Z"/>
<path id="font_3_2" d="M.3809967 .6125946C.3869934 .63760378 .3899994 .6476135 .4079895 .65060427 .4169922 .6516113 .44999696 .6516113 .47099305 .6516113 .5499878 .6516113 .6599884 .6516113 .6599884 .5505829 .6599884 .51356509 .644989 .4385376 .58799746 .39552308 .56399539 .3795166 .5139923 .35351563 .43299867 .35351563H.31599427L.3809967 .6125946M.5359955 .33850099C.6719971 .3735199 .7559967 .44953919 .7559967 .53157046 .7559967 .61860659 .6609955 .6826172 .5279999 .6826172H.23799134C.21998596 .6826172 .20799256 .6826172 .20799256 .6646118 .20799256 .6516113 .21699524 .6516113 .23799134 .6516113 .24198914 .6516113 .2599945 .6516113 .27598573 .6496124 .29299928 .6476135 .2999878 .6456146 .2999878 .6345978 .2999878 .62960818 .29899598 .6255951 .29599 .6145935L.16099549 .075531009C.1519928 .039535524 .1499939 .030532837 .07499695 .030532837 .055999757 .030532837 .04499817 .030532837 .04499817 .012527466 .04499817 .0015258789 .052993776-.00047302247 .05999756-.00047302247 .07598877-.00047302247 .10598755 .0005340576 .12298584 .0015258789 .14399719 .002532959 .1459961 .002532959 .18499756 .002532959 .21699524 .002532959 .21899414 .002532959 .24899292 .0015258789 .2689972 .0005340576 .2939911-.00047302247 .31298829-.00047302247 .31999208-.00047302247 .33299256-.00047302247 .33299256 .017532349 .33299256 .030532837 .32299806 .030532837 .3019867 .030532837 .2979889 .030532837 .27999879 .030532837 .2639923 .03253174 .24198914 .03552246 .24099732 .039535524 .24099732 .04852295 .24099732 .05152893 .24099732 .053527833 .24598694 .0715332L.30999757 .32850648H.43299867C.522995 .32850648 .54599 .27650453 .54599 .23851013 .54599 .2315216 .54599 .22451782 .5399933 .20251465 .5159912 .11051941 .5159912 .10151672 .5159912 .08653259 .5159912-.0034637452 .6009979-.022460938 .6519928-.022460938 .7389984-.022460938 .7749939 .07852173 .7749939 .0945282 .7749939 .10151672 .7689972 .10652161 .7619934 .10652161 .7509918 .10652161 .75 .10151672 .74598696 .089523319 .72898867 .037521364 .69200137 .002532959 .6549988 .002532959 .61698916 .002532959 .61499026 .03253174 .61499026 .061523439 .61499026 .08653259 .621994 .14451599 .6230011 .15151978 .625 .16752625 .6299896 .20751953 .6299896 .22251892 .6299896 .2795105 .59399417 .31851197 .5359955 .33850099Z"/>
</defs>
<path transform="matrix(1,0,0,-1,113.547,127.49)" d="M44.18849 25.51216 45.88501 28.70975 47.35028 32.01945 48.57808 35.42493 49.5622 38.91058 50.29637 42.45695 50.77753 46.04695 51.00177 49.66107 50.96829 53.28142 50.67867 56.88931 50.13522 60.47151 49.33875 64.00467 48.29156 67.47163 47.00304 70.8553 45.47704 74.13931 43.72292 77.30731 41.74925 80.34218 39.56224 83.23067 37.17747 85.95567 34.60587 88.50626 31.8614 90.86844 28.95189 93.02664 25.89989 94.97772 22.71555 96.70149 19.4183 98.19867 16.02295 99.46152 12.54741 100.47833 9.00726 101.24054 5.42117 101.75285 1.81015 102.01445H-1.80861L-5.42117 101.75285-9.0057 101.24054-12.54587 100.47522-16.02217 99.4584-19.41908 98.2018-22.71555 96.70149-25.89835 94.97772-28.95189 93.02664-31.85829 90.86844-34.6043 88.50626-37.1767 85.958-39.56224 83.23067-41.74846 80.34529-43.72292 77.30731-45.47704 74.13931-47.00304 70.8553-48.29156 67.47397-49.33797 64.00699-50.13522 60.47385-50.67711 56.88931-50.96829 53.28142-51.00099 49.66107-50.77599 46.04695-50.29637 42.4593-49.5622 38.91212-48.57886 35.42647-47.35028 32.01945-45.88501 28.70975-44.18617 25.51062-44.18849 25.51216-43.25421 27.06386-42.2662 28.5813-41.22527 30.06291-40.13216 31.50716-38.98843 32.9117-37.79567 34.27496-36.5554 35.59465-35.26843 36.86917-33.93785 38.09697-32.56445 39.27806-31.1498 40.40933-29.69542 41.4892-28.20447 42.51692-26.67769 43.4909-25.11743 44.4104-23.52603 45.27382-21.90349 46.08043-20.25449 46.82864-18.57977 47.51845-16.88249 48.1483-15.16185 48.71666-13.42331 49.22508-11.66763 49.66963-9.89793 50.05269-8.11502 50.37346-6.32275 50.6304-4.52191 50.82193-2.71486 50.95038-.90547 51.01578H.90468L2.71486 50.95038 4.52113 50.82193 6.32198 50.62961 8.11502 50.3727 9.89793 50.05347 11.66763 49.66963 13.42253 49.22508 15.16185 48.71666 16.88094 48.1483 18.579 47.51845 20.25371 46.8294 21.90349 46.08043 23.52525 45.2746 25.11743 44.4104 26.67769 43.4909 28.20447 42.51692 29.69464 41.48997 31.14902 40.41011 32.56367 39.27884 33.93707 38.09697 35.26843 36.86917 36.55463 35.59465 37.79489 34.27496 38.98766 32.91248 40.13138 31.50793 41.22449 30.06369 42.2662 28.5813 43.25421 27.06386 44.18771 25.51138Z" fill="#d9d9ff"/>
<path transform="matrix(1,0,0,-1,113.547,127.49)" stroke-width=".79701" stroke-linecap="butt" stroke-miterlimit="10" stroke-linejoin="miter" fill="none" stroke="#000000" d="M-112.25342 0H107.59094"/>
<path transform="matrix(1,0,0,-1,221.13794,127.49)" d="M4.66248 0C3.28098 .25902 1.0361 1.0361-.51805 1.94269V-1.94269C1.0361-1.0361 3.28098-.25902 4.66248 0"/>
<use data-text="x" xlink:href="#font_1_5" transform="matrix(9.9626,0,0,-9.9626,222.953,135.499)"/>
<path transform="matrix(1,0,0,-1,113.547,127.49)" stroke-width=".79701" stroke-linecap="butt" stroke-miterlimit="10" stroke-linejoin="miter" fill="none" stroke="#000000" d="M0-15.30745V117.79567"/>
<path transform="matrix(0,-1,-1,-0,113.547,9.694328)" d="M4.66248 0C3.28098 .25902 1.0361 1.0361-.51805 1.94269V-1.94269C1.0361-1.0361 3.28098-.25902 4.66248 0"/>
<use data-text="y" xlink:href="#font_1_6" transform="matrix(9.9626,0,0,-9.9626,104.586,6.208)"/>
<path transform="matrix(1,0,0,-1,113.547,127.49)" stroke-width=".79701" stroke-linecap="butt" stroke-miterlimit="10" stroke-linejoin="miter" fill="none" stroke="#0000cc" d="M0 0 5.42117 .28883 10.78319 1.15227 16.02295 2.58093 21.08131 4.55852 25.90067 7.06317 30.42572 10.06456 34.60587 13.53076 38.3936 17.42126 41.74768 21.6925 44.62917 26.29774 47.00304 31.18016 48.84824 36.29068 50.13522 41.5655 50.85695 46.94931 50.99944 52.37595 50.56966 57.79245 49.5622 63.12955 47.99571 68.3304 45.88501 73.33427 43.25266 78.08434 40.12903 82.52606 36.55228 86.61435 32.56288 90.2993 28.20135 93.5327 23.52214 96.29274 18.57822 98.53502 13.42331 100.24086 8.11424 101.38614 2.71252 101.96461H-2.71408L-8.11424 101.38614-13.42175 100.24086-18.57666 98.53502-23.52214 96.29587-28.20212 93.53581-32.56288 90.2993-36.55228 86.61435-40.12903 82.52606-43.25266 78.08434-45.88345 73.33427-47.99493 68.32729-49.5614 63.12721-50.56966 57.79245-51.00099 52.37827-50.85617 46.94931-50.13445 41.5655-48.84592 36.29068-47.00304 31.18016-44.62917 26.29774-41.74768 21.6925-38.3936 17.42126-34.60587 13.53076-30.42572 10.06456-25.89911 7.0624-21.08055 4.55852-16.02373 2.58173-10.78319 1.15227-5.42117 .28883 0 0"/>
<path transform="matrix(1,0,0,-1,113.547,127.49)" stroke-width=".79701" stroke-linecap="butt" stroke-miterlimit="10" stroke-linejoin="miter" fill="none" stroke="#0000cc" d="M44.18849 25.51216 42.75436 27.84633 41.19724 30.10028 39.52174 32.26782 37.73259 34.34271 35.83444 36.31949 33.83351 38.1904 31.7345 39.95074 29.54439 41.59665 27.2694 43.12341 24.91577 44.52484 22.48975 45.7978 19.9991 46.9392 17.45085 47.94666 14.85199 48.81322 12.20952 49.54039 9.53279 50.12355 6.8296 50.56265 4.10538 50.85617 1.36871 51.00333H-1.36949L-4.1046 50.85617-6.82883 50.56265-9.53358 50.12355-12.20952 49.54039-14.85199 48.81322-17.45007 47.94666-19.99834 46.93996-22.48898 45.7978-24.91577 44.52484-27.26862 43.12263-29.54439 41.59743-31.7345 39.95074-33.83351 38.18962-35.83444 36.31873-37.73183 34.34348-39.52174 32.2686-41.19801 30.10028-42.7536 27.84633-44.18771 25.51138"/>
<path transform="matrix(1,0,0,-1,113.547,127.49)" stroke-width=".3985" stroke-linecap="butt" stroke-dasharray="2.98883,2.98883" stroke-miterlimit="10" stroke-linejoin="miter" fill="none" stroke="#7f807f" d="M51.02435 0 50.73393 5.42271 49.86974 10.78473 48.44028 16.0245 46.46191 21.08209 43.95728 25.90224 40.95667 30.42805 37.48969 34.60898 33.59918 38.39827 29.32716 41.75237 24.72346 44.63306 19.83795 47.0077 14.72897 48.84903 9.45338 50.13834 4.07036 50.85852-1.35782 51.00333-6.77121 50.57043-12.10753 49.5653-17.30836 47.99725-22.31224 45.88501-27.06306 43.25421-31.50716 40.13138-35.59387 36.5554-39.27728 32.56445-42.51692 28.20447-45.27382 23.52525-47.51845 18.57977-49.22429 13.42331-50.3727 8.1158-50.95038 2.71486V-2.71486L-50.3727-8.11502-49.22429-13.42331-47.51845-18.579-45.2746-23.52448-42.51692-28.20447-39.27806-32.56445-35.59465-36.55463-31.50793-40.13138-27.06386-43.25421-22.31302-45.88501-17.30914-47.99725-12.1083-49.56453-6.77199-50.57043-1.35782-51.00333 4.07036-50.85928 9.45338-50.13911 14.72818-48.84981 19.83795-47.0077 24.72346-44.63383 29.32637-41.75237 33.59839-38.39827 37.4889-34.60898 40.9551-30.42805 43.95728-25.90224 46.46191-21.08289 48.44028-16.0245 49.86974-10.7855 50.73393-5.4235 51.02356 0"/>
<path transform="matrix(1,0,0,-1,113.547,127.49)" stroke-width=".79701" stroke-linecap="butt" stroke-dasharray=".79701,1.99255" stroke-miterlimit="10" stroke-linejoin="miter" fill="none" stroke="#7f807f" d="M0 0 88.37392 51.02435"/>
<path transform="matrix(1,0,0,-1,113.547,127.49)" stroke-width=".79701" stroke-linecap="butt" stroke-dasharray=".79701,1.99255" stroke-miterlimit="10" stroke-linejoin="miter" fill="none" stroke="#7f807f" d="M0 0-88.37392 51.02435"/>
<path transform="matrix(1,0,0,-1,113.547,127.49)" stroke-width=".79701" stroke-linecap="butt" stroke-miterlimit="10" stroke-linejoin="miter" fill="none" stroke="#ff0000" d="M17.45007 47.96301 31.21425 85.77878"/>
<path transform="matrix(.34203,-.93967,-.93967,-.34203,144.76123,41.711236)" d="M4.66248 0C3.28098 .25902 1.0361 1.0361-.51805 1.94269V-1.94269C1.0361-1.0361 3.28098-.25902 4.66248 0" fill="#ff0000"/>
<use data-text="d" xlink:href="#font_1_3" transform="matrix(9.9626,0,0,-9.9626,142.396,61.888)" fill="#ff0000"/>
<use data-text="r" xlink:href="#font_1_4" transform="matrix(9.9626,0,0,-9.9626,147.57656,61.888)" fill="#ff0000"/>
<use data-text="r" xlink:href="#font_1_4" transform="matrix(9.9626,0,0,-9.9626,153.14099,93.561)" fill="#000099"/>
<use data-text="=" xlink:href="#font_2_2" transform="matrix(9.9626,0,0,-9.9626,160.68,93.561)" fill="#000099"/>
<use data-text="a" xlink:href="#font_1_2" transform="matrix(9.9626,0,0,-9.9626,171.19602,93.561)" fill="#000099"/>
<use data-text="r" xlink:href="#font_1_4" transform="matrix(9.9626,0,0,-9.9626,89.142,21.920998)" fill="#000099"/>
<use data-text="=" xlink:href="#font_2_2" transform="matrix(9.9626,0,0,-9.9626,96.681,21.920998)" fill="#000099"/>
<use data-text="2" xlink:href="#font_2_1" transform="matrix(9.9626,0,0,-9.9626,107.18158,21.920998)" fill="#000099"/>
<use data-text="a" xlink:href="#font_1_2" transform="matrix(9.9626,0,0,-9.9626,112.17799,21.920998)" fill="#000099"/>
<use data-text="s" xlink:href="#font_2_5" transform="matrix(9.9626,0,0,-9.9626,119.104999,21.920998)" fill="#000099"/>
<use data-text="i" xlink:href="#font_2_3" transform="matrix(9.9626,0,0,-9.9626,123.03026,21.920998)" fill="#000099"/>
<use data-text="n" xlink:href="#font_2_4" transform="matrix(9.9626,0,0,-9.9626,125.7899,21.920998)" fill="#000099"/>
<use data-text="&#x03b8;" xlink:href="#font_1_1" transform="matrix(9.9626,0,0,-9.9626,132.997,21.920998)" fill="#000099"/>
<use data-text="&#x03b8;" xlink:href="#font_3_1" transform="matrix(8.9664,0,0,-8.9664,188.501,83.171)"/>
<use data-text="=" xlink:href="#font_4_1" transform="matrix(8.9664,0,0,-8.9664,195.63101,83.171)"/>
<use data-text="&#x03c0;" xlink:href="#font_5_1" transform="matrix(5.9776,0,0,-5.9776,206.55301,79.498)"/>
<path transform="matrix(1,0,0,-1,-7.0459978,-31.319)" stroke-width=".3786" stroke-linecap="butt" stroke-miterlimit="10" stroke-linejoin="miter" fill="none" stroke="#000000" d="M213.599-112.249H218.158"/>
<use data-text="6" xlink:href="#font_6_2" transform="matrix(5.9776,0,0,-5.9776,207.00601,86.214)"/>
<use data-text="&#x03b8;" xlink:href="#font_3_1" transform="matrix(8.9664,0,0,-8.9664,11.134003,83.81)"/>
<use data-text="=" xlink:href="#font_4_1" transform="matrix(8.9664,0,0,-8.9664,18.264008,83.81)"/>
<use data-text="5" xlink:href="#font_6_1" transform="matrix(5.9776,0,0,-5.9776,29.186005,80.137)"/>
<use data-text="&#x03c0;" xlink:href="#font_5_1" transform="matrix(5.9776,0,0,-5.9776,32.839006,80.137)"/>
<path transform="matrix(1,0,0,-1,-184.413,-30.68)" stroke-width=".3786" stroke-linecap="butt" stroke-miterlimit="10" stroke-linejoin="miter" fill="none" stroke="#000000" d="M213.599-112.249H221.811"/>
<use data-text="6" xlink:href="#font_6_2" transform="matrix(5.9776,0,0,-5.9776,31.466004,86.853)"/>
<use data-text="R" xlink:href="#font_3_2" transform="matrix(8.9664,0,0,-8.9664,110.029,59.119997)"/>
</svg>
