<svg xmlns="http://www.w3.org/2000/svg" xmlns:xlink="http://www.w3.org/1999/xlink" xmlns:inkscape="http://www.inkscape.org/namespaces/inkscape" version="1.1" width="281" height="155" viewBox="0 0 281 155">
<defs>
<path id="font_1_1" d="M.45999146 .31976319C.45999146 .39982606 .45498658 .47988893 .41999818 .5539398 .37399293 .65000918 .2919922 .6660156 .25 .6660156 .18998719 .6660156 .116989139 .64001467 .07598877 .54693606 .04399109 .47789 .038986207 .39982606 .038986207 .31976319 .038986207 .24472046 .042999269 .15464783 .083999637 .07859802 .1269989-.0024719239 .19999695-.022460938 .24899292-.022460938 .30299378-.022460938 .3789978-.0014648438 .4229889 .09359741 .45498658 .16265869 .45999146 .2407074 .45999146 .31976319M.24899292-.00047302247C.20999146-.00047302247 .15098572 .024551392 .1329956 .12062073 .12199402 .18066406 .12199402 .2727356 .12199402 .3317871 .12199402 .39582826 .12199402 .46188355 .12998963 .5159149 .14898682 .63500979 .22399903 .64401248 .24899292 .64401248 .28199769 .64401248 .34799195 .6259918 .36698915 .52693179 .3769989 .47088624 .3769989 .39482118 .3769989 .3317871 .3769989 .25672914 .3769989 .18867493 .3659973 .12461853 .35099793 .029556275 .2939911-.00047302247 .24899292-.00047302247Z"/>
<path id="font_1_2" d="M.2939911 .64004519C.2939911 .66400149 .2939911 .6660156 .2709961 .6660156 .20899964 .60227969 .12098694 .60227969 .08898926 .60227969V.57128909C.10899353 .57128909 .16799927 .57128909 .21998596 .5972748V.07902527C.21998596 .042999269 .21699524 .0309906 .1269989 .0309906H.09498596V0C.12998963 .0029907227 .21699524 .0029907227 .25698854 .0029907227 .29699708 .0029907227 .38398744 .0029907227 .4189911 0V.0309906H.3869934C.29699708 .0309906 .2939911 .041992189 .2939911 .07902527V.64004519Z"/>
<path id="font_1_3" d="M.1269989 .07699585 .23298645 .18003845C.3889923 .31811524 .44898988 .3721466 .44898988 .47216798 .44898988 .5860901 .35899354 .6660156 .23699951 .6660156 .12399292 .6660156 .049987794 .57411196 .049987794 .48516847 .049987794 .4291687 .099990848 .4291687 .102996829 .4291687 .11999512 .4291687 .15499878 .44117738 .15499878 .48217774 .15499878 .5081787 .13699341 .5341797 .101989749 .5341797 .09399414 .5341797 .09199524 .5341797 .08898926 .5331726 .11199951 .59806826 .1659851 .63500979 .22399903 .63500979 .31498719 .63500979 .35798646 .5541382 .35798646 .47216798 .35798646 .39215089 .30799867 .31311036 .25299073 .25108338L.06098938 .036987306C.049987794 .025985718 .049987794 .023986817 .049987794 0H.42099L.44898988 .17404175H.42399598C.4189911 .14402771 .4119873 .1000061 .4019928 .084991458 .394989 .07699585 .32899476 .07699585 .30699159 .07699585H.1269989Z"/>
<path id="font_1_4" d="M.2899933 .35191346C.37199403 .37893678 .42999269 .4490509 .42999269 .52809146 .42999269 .6100464 .34199525 .6660156 .24598694 .6660156 .14498902 .6660156 .068984989 .60606387 .068984989 .53009036 .068984989 .49710084 .09098816 .47808839 .11999512 .47808839 .15098572 .47808839 .17098999 .50009158 .17098999 .5290985 .17098999 .57910159 .12399292 .57910159 .10899353 .57910159 .13999939 .62802127 .20599365 .64100649 .24198914 .64100649 .2829895 .64100649 .33799745 .6190338 .33799745 .5290985 .33799745 .51708987 .33599855 .45906068 .30999757 .4149933 .27999879 .36691285 .24598694 .36390687 .22099304 .36291505 .21299744 .36190797 .18899536 .35990907 .18199158 .35990907 .17399597 .35890199 .16699219 .35791017 .16699219 .3479004 .16699219 .33691407 .17399597 .33691407 .19099427 .33691407H.23498535C.31698609 .33691407 .35398866 .2686615 .35398866 .17037964 .35398866 .034469606 .2849884 .0055389406 .24099732 .0055389406 .19799805 .0055389406 .12298584 .022491456 .08799744 .08137512 .12298584 .07637024 .1539917 .09837341 .1539917 .1363678 .1539917 .17237854 .1269989 .19238281 .09799194 .19238281 .07398987 .19238281 .041992189 .17837525 .041992189 .1343689 .041992189 .043441774 .1349945-.022460938 .24398804-.022460938 .3659973-.022460938 .45700074 .06838989 .45700074 .17037964 .45700074 .252594 .3939972 .33088685 .2899933 .35191346Z"/>
<path id="font_1_5" d="M.2939911 .16503906V.07800293C.2939911 .041992189 .2919922 .0309906 .21798706 .0309906H.19699097V0C.23799134 .0029907227 .2899933 .0029907227 .33198548 .0029907227 .37399293 .0029907227 .4269867 .0029907227 .46798707 0V.0309906H.44699098C.37298585 .0309906 .37098695 .041992189 .37098695 .07800293V.16503906H.47099305V.19602967H.37098695V.65075686C.37098695 .67074587 .37098695 .6767578 .35499574 .6767578 .34599305 .6767578 .34298707 .6767578 .33499146 .66474917L.027999878 .19602967V.16503906H.2939911M.2999878 .19602967H.055999757L.2999878 .5688019V.19602967Z"/>
<path id="font_1_6" d="M.44898988 .20022583C.44898988 .3193512 .36698915 .41944886 .25898744 .41944886 .21099854 .41944886 .16799927 .40345765 .13198853 .36842347V.5637665C.1519928 .5577698 .18499756 .55078127 .21699524 .55078127 .33999635 .55078127 .4099884 .6417694 .4099884 .6547699 .4099884 .6607666 .40699769 .6657715 .3999939 .6657715 .39898683 .6657715 .39698792 .6657715 .3919983 .66278079 .37199403 .6537781 .32299806 .6337738 .2559967 .6337738 .21598816 .6337738 .16999817 .6407776 .12298584 .6617737 .114990238 .66477969 .11299133 .66477969 .11099243 .66477969 .100997928 .66477969 .100997928 .6567688 .100997928 .6407776V.34439088C.100997928 .32637025 .100997928 .31835938 .114990238 .31835938 .12199402 .31835938 .12399292 .32136537 .12799073 .32736207 .13899231 .3433838 .17599488 .39746095 .25698854 .39746095 .30899049 .39746095 .33399964 .35139466 .34199525 .33337403 .35798646 .29632569 .3600006 .25727845 .3600006 .20722962 .3600006 .17222595 .3600006 .11222839 .33599855 .07035828 .31199647 .031463624 .2749939 .0055389406 .22898865 .0055389406 .1559906 .0055389406 .09899902 .058380128 .08198547 .11723328 .084991458 .1162262 .08799744 .115234378 .09899902 .115234378 .13198853 .115234378 .14898682 .14022827 .14898682 .16423035 .14898682 .18823242 .13198853 .21322632 .09899902 .21322632 .084991458 .21322632 .049987794 .20622254 .049987794 .16023255 .049987794 .07434082 .11898804-.022460938 .23098755-.022460938 .34700013-.022460938 .44898988 .073349 .44898988 .20022583Z"/>
<path id="font_1_7" d="M.13198853 .327713V.35173036C.13198853 .6047821 .2559967 .64100649 .30699159 .64100649 .33099366 .64100649 .37298585 .634964 .394989 .6007538 .37998963 .6007538 .33999635 .6007538 .33999635 .5557556 .33999635 .524765 .3639984 .5097656 .38598634 .5097656 .4019928 .5097656 .43199159 .51875308 .43199159 .5577545 .43199159 .6178589 .3880005 .6660156 .30499269 .6660156 .1769867 .6660156 .041992189 .5367584 .041992189 .31570436 .041992189 .048553468 .1579895-.022460938 .25099183-.022460938 .3619995-.022460938 .45700074 .07156372 .45700074 .2036438 .45700074 .33070375 .36799623 .4267578 .25698854 .4267578 .18899536 .4267578 .1519928 .37573243 .13198853 .327713M.25099183 .0055389406C.18798828 .0055389406 .1579895 .06556702 .1519928 .080566409 .13398743 .127594 .13398743 .2076416 .13398743 .22564698 .13398743 .30369569 .1659851 .40374757 .2559967 .40374757 .27198792 .40374757 .31799317 .40374757 .34899903 .34172059 .36698915 .30470277 .36698915 .2536621 .36698915 .20463562 .36698915 .15661621 .36698915 .10658264 .34999085 .0705719 .31999208 .010528564 .27398683 .0055389406 .25099183 .0055389406Z"/>
<path id="font_1_8" d="M.47599793 .609375C.4850006 .6213684 .4850006 .62338259 .4850006 .64437869H.24198914C.11999512 .64437869 .117996219 .65737918 .11399841 .67637637H.08898926L.055999757 .4702301H.08099365C.083999637 .48625184 .09298706 .5493469 .10598755 .56137087 .11299133 .5673828 .19099427 .5673828 .20399475 .5673828H.41099549C.3999939 .5513611 .32099916 .4421997 .29899598 .40914918 .20899964 .27394105 .17599488 .1347351 .17599488 .032577516 .17599488 .022567749 .17599488-.022460938 .22200012-.022460938 .2679901-.022460938 .2679901 .022567749 .2679901 .032577516V.08366394C.2679901 .13873291 .2709961 .19381714 .2789917 .24790955 .2829895 .27093507 .29699708 .35707093 .34098817 .41915895L.47599793 .609375Z"/>
<path id="font_1_9" d="M.16299439 .4569702C.116989139 .486969 .11299133 .52098086 .11299133 .5379791 .11299133 .598999 .17799378 .64100649 .24899292 .64100649 .32199098 .64100649 .38598634 .58898928 .38598634 .51698306 .38598634 .45996095 .34700013 .4119568 .2869873 .37695313L.16299439 .4569702M.30899049 .36193849C.3809967 .3989563 .42999269 .45095826 .42999269 .51698306 .42999269 .6090088 .34098817 .6660156 .25 .6660156 .1499939 .6660156 .068984989 .59199526 .068984989 .49897767 .068984989 .4809723 .070999149 .43595887 .11299133 .38894654 .12399292 .37695313 .16099549 .35194398 .18598938 .33494569 .12799073 .30592347 .041992189 .24984741 .041992189 .15072632 .041992189 .04458618 .14399719-.022460938 .24899292-.022460938 .3619995-.022460938 .45700074 .06060791 .45700074 .16773987 .45700074 .20379639 .44599916 .24885559 .4079895 .2909088 .3889923 .31193543 .37298585 .3219452 .30899049 .36193849M.20899964 .3199463 .33198548 .24183655C.3600006 .2228241 .40699769 .19277954 .40699769 .13169861 .40699769 .05760193 .33198548 .0055389406 .25 .0055389406 .1639862 .0055389406 .09199524 .067611698 .09199524 .15072632 .09199524 .20880127 .12399292 .27288819 .20899964 .3199463Z"/>
<clipPath id="clip_2">
<path transform="matrix(1.00008,0,0,-1,39.20295,130.37201)" d="M0 0H238.63457V125.24301H0Z"/>
</clipPath>
<path id="font_3_82" d="M.44699098 0V.032989503H.4119873C.31698609 .032989503 .31399537 .04499817 .31399537 .08203125V.6371765C.31399537 .664032 .31199647 .66503909 .2849884 .66503909 .24398804 .6252289 .19099427 .6013489 .09599304 .6013489V.5683594C.12298584 .5683594 .1769867 .5683594 .23498535 .5953522V.08203125C.23498535 .04499817 .23199463 .032989503 .13699341 .032989503H.101989749V0C.14299011 .0029907227 .22898865 .0029907227 .27398683 .0029907227 .31900025 .0029907227 .4059906 .0029907227 .44699098 0Z"/>
<path id="font_3_107" d="M.47698976 .17900086H.44599916C.44299317 .15899658 .43499757 .10899353 .4229889 .08999634 .4169922 .08198547 .34098817 .08198547 .32499696 .08198547H.14698792L.28199769 .20399475C.2979889 .2190094 .33999635 .2519989 .35598756 .26600648 .41799928 .3230133 .47698976 .37802125 .47698976 .46902467 .47698976 .58802798 .3769989 .66503909 .2519989 .66503909 .13198853 .6651764 .052993776 .574173 .052993776 .48516847 .052993776 .4361725 .09199524 .4291687 .10598755 .4291687 .1269989 .4291687 .1579895 .4441681 .1579895 .48217774 .1579895 .5341797 .10798645 .5341797 .09599304 .5341797 .125 .6070709 .19198609 .6320343 .24099732 .6320343 .33399964 .6320343 .38198854 .55314639 .38198854 .46917726 .38198854 .36517335 .30899049 .2891693 .19099427 .16816712L.06498718 .03817749C.052993776 .026992798 .052993776 .024993897 .052993776 0H.44799806L.47698976 .17900086Z"/>
<path id="font_3_106" d="M.48599244 .17131043C.48599244 .25431825 .41999818 .330307 .31799317 .35231019 .39698792 .38031007 .45599366 .44831849 .45599366 .5283203 .45599366 .6080475 .3659973 .66503909 .2619934 .66503909 .15499878 .66503909 .07398987 .6070404 .07398987 .53105166 .07398987 .49404908 .09899902 .4780426 .125 .4780426 .1559906 .4780426 .17599488 .5000458 .17599488 .52905276 .17599488 .56604006 .14399719 .5800476 .12199402 .5810547 .1639862 .6360321 .24099732 .6390381 .25898744 .6390381 .2849884 .63931277 .36099244 .63131716 .36099244 .5283203 .36099244 .458313 .33198548 .41630555 .31799317 .40031434 .28799439 .36930848 .2649994 .36730958 .20399475 .36331178 .18499756 .36231996 .1769867 .36131288 .1769867 .34831239 .1769867 .3343048 .18598938 .3343048 .20298767 .3343048H.25299073C.33198548 .3343048 .38198854 .27630616 .38198854 .17131043 .38198854 .045440675 .31098939 .008514404 .2579956 .008514404 .20298767 .008514404 .12799073 .0284729 .09298706 .08137512 .1289978 .08137512 .1539917 .10437012 .1539917 .13737488 .1539917 .16937256 .1309967 .19238281 .09899902 .19238281 .07199097 .19238281 .04399109 .17536927 .04399109 .13537598 .04399109 .04045105 .1459961-.021484375 .2599945-.021484375 .3929901-.021484375 .48599244 .070388797 .48599244 .17037964V.17131043Z"/>
<path id="font_3_57" d="M.5 .1640625V.197052H.3939972V.64682009C.3939972 .6668091 .3939972 .6748047 .37298585 .6748047 .3600006 .6748047 .35899354 .6737976 .34899903 .6598053L.02999878 .197052V.1640625H.31199647V.08100891C.31199647 .04399109 .30899049 .032989503 .23199463 .032989503H.20899964V0L.35299684 .0029907227 .49699403 0V.032989503H.47399903C.39698792 .032989503 .3939972 .04399109 .3939972 .08100891V.1640625H.5M.31900025 .197052H.06498718L.31900025 .56585696V.197052Z"/>
<path id="font_3_56" d="M.47698976 .19924927C.47698976 .31576539 .3929901 .4189453 .2749939 .4189453 .22499085 .4189453 .17799378 .40293885 .13999939 .36886598V.5618439C.15299988 .55784609 .19299317 .54785159 .23498535 .54785159 .3600006 .54785159 .43598939 .63586428 .43598939 .6509552 .43598939 .6620178 .42900086 .66503909 .42399598 .66503909 .42399598 .66503909 .41999818 .66503909 .41099549 .66000369 .37199403 .6449127 .32598878 .632843 .27198792 .632843 .21299744 .632843 .1639862 .64793398 .1329956 .66000369 .12298584 .66503909 .11999512 .66503909 .11999512 .66503909 .10699463 .66503909 .10699463 .6539612 .10699463 .63586428V.34277345C.10699463 .32476808 .10699463 .3127594 .12298584 .3127594 .1309967 .3127594 .13398743 .31677247 .13899231 .32476808 .15098572 .33976747 .18899536 .39093019 .27398683 .39093019 .32998658 .39093019 .35699464 .34477235 .3659973 .3257599 .3829956 .2896576 .3849945 .24345398 .3849945 .20426941 .3849945 .16725159 .38398744 .11325073 .35598756 .069366458 .33699037 .03942871 .29699708 .008514404 .24398804 .008514404 .1789856 .008514404 .114990238 .04940796 .09199524 .11425781 .09498596 .11387634 .101989749 .11387634 .101989749 .11387634 .12998963 .11387634 .1519928 .13188172 .1519928 .16288758 .1519928 .19989014 .12298584 .21289063 .102996829 .21289063 .084991458 .21289063 .052993776 .20288086 .052993776 .15988159 .052993776 .069732669 .1309967-.021484375 .24598694-.021484375 .37098695-.021743775 .47698976 .07525635 .47698976 .19924927Z"/>
<path id="font_3_101" d="M.48599244 .20263672C.48599244 .33372499 .3869934 .42578126 .27598573 .42578126 .20399475 .42578126 .16099549 .37976075 .13798523 .33073426 .13798523 .41377259 .14498902 .4868164 .18099976 .54782107 .21099854 .5978241 .2619934 .6390381 .32499696 .6390381 .34498597 .6390381 .3909912 .63601687 .4139862 .60084536 .36898805 .5988312 .36499024 .5648346 .36499024 .553833 .36499024 .5238342 .3880005 .50683596 .4119873 .50683596 .42999269 .50683596 .45899964 .51782229 .45899964 .5558319 .45899964 .615921 .4139862 .66503909 .32398988 .66503909 .18499756 .66503909 .04399109 .53282168 .04399109 .31672669 .04399109 .045532228 .16999817-.021484375 .2669983-.021484375 .31498719-.021224976 .36698915-.008224487 .4119873 .03477478 .45199586 .073776248 .48599244 .11578369 .48599244 .20277405V.20263672M.3919983 .20378113C.3919983 .152771 .3919983 .10877991 .37199403 .072784427 .34599305 .026779175 .31098939 .0087890629 .2669983 .0087890629 .21398926 .0087890629 .18099976 .045776369 .1659851 .073776248 .14299011 .118774417 .14099121 .18678284 .14099121 .22477722 .14099121 .32377626 .19499207 .3977661 .27198792 .3977661 .32199098 .3977661 .35198976 .37176515 .37098695 .33677674 .3919983 .29977418 .3919983 .254776 .3919983 .20378113Z"/>
<path id="font_3_100" d="M.5149994 .6435547H.26098634C.23599243 .6435547 .20498657 .64456179 .17999268 .6465759 .12799073 .65060427 .1269989 .65966799 .12399292 .67578127H.09298706L.05899048 .46455384H.08999634C.09199524 .47955323 .102996829 .54855349 .116989139 .5565491 .12799073 .56155398 .20298767 .56155398 .21798706 .56155398H.42999269L.32699586 .42355348C.21299744 .27153016 .18899536 .11351013 .18899536 .03451538 .18899536 .024505616 .18899536-.021484375 .23599243-.021484375 .2829895-.021484375 .2829895 .023513794 .2829895 .035507204V.08351135C.2829895 .2275238 .30699159 .34553529 .35598756 .41053773L.5059967 .608551C.5149994 .6195526 .5149994 .6215515 .5149994 .6435547Z"/>
<path id="font_4_1" d="M.33399964 .30233766C.33999635 .32835389 .36299134 .42037965 .43299867 .42037965 .43798829 .42037965 .46199037 .42037965 .48298646 .40734864 .45498658 .402359 .43499757 .37734986 .43499757 .35334779 .43499757 .33735658 .44599916 .31835938 .47299195 .31835938 .49499513 .31835938 .5269928 .3363495 .5269928 .37635804 .5269928 .42837525 .46798707 .4423828 .43399049 .4423828 .37599183 .4423828 .34098817 .38935853 .32899476 .36634828 .3039856 .43237306 .25 .4423828 .22099304 .4423828 .116989139 .4423828 .05999756 .3133545 .05999756 .28834535 .05999756 .27833558 .069992069 .27833558 .07199097 .27833558 .07998657 .27833558 .08299255 .28033448 .084991458 .28933717 .11898804 .39535523 .18499756 .42037965 .21899414 .42037965 .23799134 .42037965 .272995 .4113617 .272995 .35334779 .272995 .32235719 .2559967 .25532533 .21899414 .11528015 .20298767 .053268434 .16799927 .011245728 .12399292 .011245728 .117996219 .011245728 .09498596 .011245728 .07398987 .024276734 .09899902 .029266358 .12098694 .05027771 .12098694 .07827759 .12098694 .105270389 .09899902 .11328125 .083999637 .11328125 .053985597 .11328125 .0289917 .08728027 .0289917 .055267335 .0289917 .009246826 .07899475-.0107421879 .12298584-.0107421879 .18899536-.0107421879 .22499085 .059280397 .22799683 .0652771 .23999024 .028274537 .27598573-.0107421879 .33599855-.0107421879 .43899537-.0107421879 .49598695 .118270877 .49598695 .14328003 .49598695 .1532898 .4869995 .1532898 .48399354 .1532898 .47499085 .1532898 .47299195 .14929199 .47099305 .14228821 .43798829 .03527832 .36999513 .011245728 .33799745 .011245728 .29899598 .011245728 .2829895 .043273927 .2829895 .07727051 .2829895 .09927368 .2889862 .121276859 .2999878 .16529846L.33399964 .30233766Z"/>
<path id="font_4_2" d="M.48599244 .38136292C.48999024 .39537049 .48999024 .39736939 .48999024 .40437318 .48999024 .42237855 .47599793 .43138124 .46099855 .43138124 .45098878 .43138124 .43499757 .42536927 .42599488 .41036988 .42399598 .405365 .41600038 .37435914 .4119873 .35635377 .40499879 .33035279 .397995 .30334474 .3919983 .27633668L.34700013 .09628296C.34298707 .08126831 .2999878 .011245728 .23399353 .011245728 .18299866 .011245728 .17199707 .055267335 .17199707 .0922699 .17199707 .1382904 .18899536 .20030213 .22299195 .28833009 .23899842 .3293457 .24299622 .3403473 .24299622 .36035157 .24299622 .405365 .21099854 .4423828 .16099549 .4423828 .06599426 .4423828 .0289917 .29733277 .0289917 .28833009 .0289917 .27833558 .038986207 .27833558 .040985109 .27833558 .050994874 .27833558 .051986696 .28033448 .056991579 .29634095 .083999637 .3903656 .12399292 .42037965 .1579895 .42037965 .1659851 .42037965 .18299866 .42037965 .18299866 .3883667 .18299866 .36335755 .17298889 .3373413 .1659851 .31834413 .12599182 .21231079 .10798645 .1552887 .10798645 .10827637 .10798645 .019256592 .17098999-.0107421879 .22999573-.0107421879 .2689972-.0107421879 .30299378 .0062561037 .33099366 .03425598 .31799317-.017745972 .30599977-.06674194 .2659912-.11973572 .23999024-.15385437 .20199585-.18309021 .1559906-.18309021 .14199829-.18309021 .09700012-.18005371 .07998657-.14074707 .09599304-.14074707 .10899353-.14074707 .12298584-.1287384 .1329956-.11973572 .14299011-.10673523 .14299011-.08773804 .14299011-.056747438 .115997318-.052734376 .10598755-.052734376 .08299255-.052734376 .049987794-.068740848 .049987794-.11773682 .049987794-.16796875 .09399414-.20507813 .1559906-.20507813 .25898744-.20507813 .3619995-.11373901 .3899994-.00074768069L.48599244 .38136292Z"/>
</defs>
<path transform="matrix(1.00008,0,0,-1,39.20295,130.37201)" stroke-width=".3985" stroke-linecap="butt" stroke-dasharray="2.98883,2.98883" stroke-miterlimit="10" stroke-linejoin="miter" fill="none" stroke="#e5e6e5" d="M0 0V125.24301M29.82932 0V125.24301M59.65863 0V125.24301M89.48796 0V125.24301M119.31728 0V125.24301M149.1466 0V125.24301M178.97592 0V125.24301M208.80525 0V125.24301M238.63457 0V125.24301"/>
<path transform="matrix(1.00008,0,0,-1,39.20295,130.37201)" stroke-width=".3985" stroke-linecap="butt" stroke-dasharray="2.98883,2.98883" stroke-miterlimit="10" stroke-linejoin="miter" fill="none" stroke="#e5e6e5" d="M0 0H238.63457M0 20.87383H238.63457M0 41.74767H238.63457M0 62.6215H238.63457M0 83.49535H238.63457M0 104.36917H238.63457M0 125.24301H238.63457"/>
<path transform="matrix(1.00008,0,0,-1,39.20295,130.37201)" stroke-width=".19925" stroke-linecap="butt" stroke-miterlimit="10" stroke-linejoin="miter" fill="none" stroke="#7f807f" d="M0-2.12596V2.12596M29.82932-2.12596V2.12596M59.65863-2.12596V2.12596M89.48796-2.12596V2.12596M119.31728-2.12596V2.12596M149.1466-2.12596V2.12596M178.97592-2.12596V2.12596M208.80525-2.12596V2.12596M238.63457-2.12596V2.12596"/>
<path transform="matrix(1.00008,0,0,-1,39.20295,130.37201)" stroke-width=".19925" stroke-linecap="butt" stroke-miterlimit="10" stroke-linejoin="miter" fill="none" stroke="#7f807f" d="M-2.12595 0H2.12595M-2.12595 20.87383H2.12595M-2.12595 41.74767H2.12595M-2.12595 62.6215H2.12595M-2.12595 83.49535H2.12595M-2.12595 104.36917H2.12595M-2.12595 125.24301H2.12595"/>
<path transform="matrix(1.00008,0,0,-1,39.20295,130.37201)" stroke-width=".3985" stroke-linecap="butt" stroke-miterlimit="10" stroke-linejoin="miter" fill="none" stroke="#000000" d="M0 0H236.64205"/>
<path transform="matrix(1.00008,0,0,-1,275.86393,130.37201)" d="M1.99252 0-1.19551 1.59401 0 0-1.19551-1.59401"/>
<path transform="matrix(1.00008,0,0,-1,39.20295,130.37201)" stroke-width=".3985" stroke-linecap="butt" stroke-miterlimit="10" stroke-linejoin="miter" fill="none" stroke="#000000" d="M0 0V123.25049"/>
<path transform="matrix(0,-1,-1.00008,-0,39.20295,7.121521)" d="M1.99252 0-1.19551 1.59401 0 0-1.19551-1.59401"/>
<use data-text="0" xlink:href="#font_1_1" transform="matrix(9.963397,0,0,-9.9626,36.711748,142.43802)"/>
<use data-text="1" xlink:href="#font_1_2" transform="matrix(9.963397,0,0,-9.9626,66.544139,142.43802)"/>
<use data-text="2" xlink:href="#font_1_3" transform="matrix(9.963397,0,0,-9.9626,96.37552,142.43802)"/>
<use data-text="3" xlink:href="#font_1_4" transform="matrix(9.963397,0,0,-9.9626,126.20691,142.43802)"/>
<use data-text="4" xlink:href="#font_1_5" transform="matrix(9.963397,0,0,-9.9626,156.0393,142.43802)"/>
<use data-text="5" xlink:href="#font_1_6" transform="matrix(9.963397,0,0,-9.9626,185.8707,142.43802)"/>
<use data-text="6" xlink:href="#font_1_7" transform="matrix(9.963397,0,0,-9.9626,215.70206,142.43802)"/>
<use data-text="7" xlink:href="#font_1_8" transform="matrix(9.963397,0,0,-9.9626,245.53446,142.43802)"/>
<use data-text="8" xlink:href="#font_1_9" transform="matrix(9.963397,0,0,-9.9626,275.36585,142.43802)"/>
<use data-text="0" xlink:href="#font_1_1" transform="matrix(9.963397,0,0,-9.9626,28.575104,133.582)"/>
<use data-text="1" xlink:href="#font_1_2" transform="matrix(9.963397,0,0,-9.9626,23.592698,112.70801)"/>
<use data-text="0" xlink:href="#font_1_1" transform="matrix(9.963397,0,0,-9.9626,28.574387,112.70801)"/>
<use data-text="2" xlink:href="#font_1_3" transform="matrix(9.963397,0,0,-9.9626,23.592698,91.83501)"/>
<use data-text="0" xlink:href="#font_1_1" transform="matrix(9.963397,0,0,-9.9626,28.574387,91.83501)"/>
<use data-text="3" xlink:href="#font_1_4" transform="matrix(9.963397,0,0,-9.9626,23.592698,70.96101)"/>
<use data-text="0" xlink:href="#font_1_1" transform="matrix(9.963397,0,0,-9.9626,28.574387,70.96101)"/>
<use data-text="4" xlink:href="#font_1_5" transform="matrix(9.963397,0,0,-9.9626,23.592698,50.087007)"/>
<use data-text="0" xlink:href="#font_1_1" transform="matrix(9.963397,0,0,-9.9626,28.574387,50.087007)"/>
<use data-text="5" xlink:href="#font_1_6" transform="matrix(9.963397,0,0,-9.9626,23.592698,29.213013)"/>
<use data-text="0" xlink:href="#font_1_1" transform="matrix(9.963397,0,0,-9.9626,28.574387,29.213013)"/>
<use data-text="6" xlink:href="#font_1_7" transform="matrix(9.963397,0,0,-9.9626,23.592698,8.339012)"/>
<use data-text="0" xlink:href="#font_1_1" transform="matrix(9.963397,0,0,-9.9626,28.574387,8.339012)"/>
<g clip-path="url(#clip_2)">
</g>
<path transform="matrix(1.00008,0,0,-1,39.20295,130.37201)" d="M32.81815 25.0486C32.81815 26.69931 31.48003 28.03743 29.82932 28.03743 28.1786 28.03743 26.84048 26.69931 26.84048 25.0486 26.84048 23.39789 28.1786 22.05977 29.82932 22.05977 31.48003 22.05977 32.81815 23.39789 32.81815 25.0486ZM29.82932 25.0486" fill="#0000b3"/>
<path transform="matrix(1.00008,0,0,-1,39.20295,130.37201)" stroke-width=".3985" stroke-linecap="butt" stroke-miterlimit="10" stroke-linejoin="miter" fill="none" stroke="#0000b3" d="M32.81815 25.0486C32.81815 26.69931 31.48003 28.03743 29.82932 28.03743 28.1786 28.03743 26.84048 26.69931 26.84048 25.0486 26.84048 23.39789 28.1786 22.05977 29.82932 22.05977 31.48003 22.05977 32.81815 23.39789 32.81815 25.0486ZM29.82932 25.0486"/>
<path transform="matrix(1.00008,0,0,-1,39.20295,130.37201)" stroke-width=".3985" stroke-linecap="butt" stroke-miterlimit="10" stroke-linejoin="miter" fill="none" stroke="#0000b3" d=""/>
<use data-text="1" xlink:href="#font_3_82" transform="matrix(7.9707376,0,0,-7.9701,66.91817,98.81501)"/>
<path transform="matrix(1.00008,0,0,-1,39.20295,130.37201)" d="M62.64746 37.57289C62.64746 39.2236 61.30934 40.56172 59.65863 40.56172 58.00793 40.56172 56.6698 39.2236 56.6698 37.57289 56.6698 35.9222 58.00793 34.58406 59.65863 34.58406 61.30934 34.58406 62.64746 35.9222 62.64746 37.57289ZM59.65863 37.57289" fill="#0000b3"/>
<path transform="matrix(1.00008,0,0,-1,39.20295,130.37201)" stroke-width=".3985" stroke-linecap="butt" stroke-miterlimit="10" stroke-linejoin="miter" fill="none" stroke="#0000b3" d="M62.64746 37.57289C62.64746 39.2236 61.30934 40.56172 59.65863 40.56172 58.00793 40.56172 56.6698 39.2236 56.6698 37.57289 56.6698 35.9222 58.00793 34.58406 59.65863 34.58406 61.30934 34.58406 62.64746 35.9222 62.64746 37.57289ZM59.65863 37.57289"/>
<path transform="matrix(1.00008,0,0,-1,39.20295,130.37201)" stroke-width=".3985" stroke-linecap="butt" stroke-miterlimit="10" stroke-linejoin="miter" fill="none" stroke="#0000b3" d=""/>
<use data-text="2" xlink:href="#font_3_107" transform="matrix(7.9707376,0,0,-7.9701,96.75055,86.29001)"/>
<path transform="matrix(1.00008,0,0,-1,39.20295,130.37201)" d="M92.47679 45.92244C92.47679 47.57314 91.13867 48.91127 89.48796 48.91127 87.83725 48.91127 86.49913 47.57314 86.49913 45.92244 86.49913 44.27173 87.83725 42.93361 89.48796 42.93361 91.13867 42.93361 92.47679 44.27173 92.47679 45.92244ZM89.48796 45.92244" fill="#0000b3"/>
<path transform="matrix(1.00008,0,0,-1,39.20295,130.37201)" stroke-width=".3985" stroke-linecap="butt" stroke-miterlimit="10" stroke-linejoin="miter" fill="none" stroke="#0000b3" d="M92.47679 45.92244C92.47679 47.57314 91.13867 48.91127 89.48796 48.91127 87.83725 48.91127 86.49913 47.57314 86.49913 45.92244 86.49913 44.27173 87.83725 42.93361 89.48796 42.93361 91.13867 42.93361 92.47679 44.27173 92.47679 45.92244ZM89.48796 45.92244"/>
<path transform="matrix(1.00008,0,0,-1,39.20295,130.37201)" stroke-width=".3985" stroke-linecap="butt" stroke-miterlimit="10" stroke-linejoin="miter" fill="none" stroke="#0000b3" d=""/>
<use data-text="3" xlink:href="#font_3_106" transform="matrix(7.9707376,0,0,-7.9701,126.58194,77.77401)"/>
<path transform="matrix(1.00008,0,0,-1,39.20295,130.37201)" d="M122.3061 73.05843C122.3061 74.70912 120.96799 76.04726 119.31728 76.04726 117.66658 76.04726 116.32845 74.70912 116.32845 73.05843 116.32845 71.40771 117.66658 70.0696 119.31728 70.0696 120.96799 70.0696 122.3061 71.40771 122.3061 73.05843ZM119.31728 73.05843" fill="#0000b3"/>
<path transform="matrix(1.00008,0,0,-1,39.20295,130.37201)" stroke-width=".3985" stroke-linecap="butt" stroke-miterlimit="10" stroke-linejoin="miter" fill="none" stroke="#0000b3" d="M122.3061 73.05843C122.3061 74.70912 120.96799 76.04726 119.31728 76.04726 117.66658 76.04726 116.32845 74.70912 116.32845 73.05843 116.32845 71.40771 117.66658 70.0696 119.31728 70.0696 120.96799 70.0696 122.3061 71.40771 122.3061 73.05843ZM119.31728 73.05843"/>
<path transform="matrix(1.00008,0,0,-1,39.20295,130.37201)" stroke-width=".3985" stroke-linecap="butt" stroke-miterlimit="10" stroke-linejoin="miter" fill="none" stroke="#0000b3" d=""/>
<use data-text="4" xlink:href="#font_3_57" transform="matrix(7.9707376,0,0,-7.9701,156.41333,50.805009)"/>
<path transform="matrix(1.00008,0,0,-1,39.20295,130.37201)" d="M152.13544 64.7089C152.13544 66.35959 150.7973 67.69772 149.1466 67.69772 147.4959 67.69772 146.15778 66.35959 146.15778 64.7089 146.15778 63.05818 147.4959 61.72006 149.1466 61.72006 150.7973 61.72006 152.13544 63.05818 152.13544 64.7089ZM149.1466 64.7089" fill="#0000b3"/>
<path transform="matrix(1.00008,0,0,-1,39.20295,130.37201)" stroke-width=".3985" stroke-linecap="butt" stroke-miterlimit="10" stroke-linejoin="miter" fill="none" stroke="#0000b3" d="M152.13544 64.7089C152.13544 66.35959 150.7973 67.69772 149.1466 67.69772 147.4959 67.69772 146.15778 66.35959 146.15778 64.7089 146.15778 63.05818 147.4959 61.72006 149.1466 61.72006 150.7973 61.72006 152.13544 63.05818 152.13544 64.7089ZM149.1466 64.7089"/>
<path transform="matrix(1.00008,0,0,-1,39.20295,130.37201)" stroke-width=".3985" stroke-linecap="butt" stroke-miterlimit="10" stroke-linejoin="miter" fill="none" stroke="#0000b3" d=""/>
<use data-text="5" xlink:href="#font_3_56" transform="matrix(7.9707376,0,0,-7.9701,186.24573,58.987009)"/>
<path transform="matrix(1.00008,0,0,-1,39.20295,130.37201)" d="M181.96475 100.19441C181.96475 101.84511 180.62664 103.18324 178.97592 103.18324 177.32521 103.18324 175.98709 101.84511 175.98709 100.19441 175.98709 98.5437 177.32521 97.20558 178.97592 97.20558 180.62664 97.20558 181.96475 98.5437 181.96475 100.19441ZM178.97592 100.19441" fill="#0000b3"/>
<path transform="matrix(1.00008,0,0,-1,39.20295,130.37201)" stroke-width=".3985" stroke-linecap="butt" stroke-miterlimit="10" stroke-linejoin="miter" fill="none" stroke="#0000b3" d="M181.96475 100.19441C181.96475 101.84511 180.62664 103.18324 178.97592 103.18324 177.32521 103.18324 175.98709 101.84511 175.98709 100.19441 175.98709 98.5437 177.32521 97.20558 178.97592 97.20558 180.62664 97.20558 181.96475 98.5437 181.96475 100.19441ZM178.97592 100.19441"/>
<path transform="matrix(1.00008,0,0,-1,39.20295,130.37201)" stroke-width=".3985" stroke-linecap="butt" stroke-miterlimit="10" stroke-linejoin="miter" fill="none" stroke="#0000b3" d=""/>
<use data-text="6" xlink:href="#font_3_101" transform="matrix(7.9707376,0,0,-7.9701,216.07709,23.502007)"/>
<path transform="matrix(1.00008,0,0,-1,39.20295,130.37201)" d="M211.79409 108.54395C211.79409 110.19466 210.45595 111.53278 208.80525 111.53278 207.15454 111.53278 205.81642 110.19466 205.81642 108.54395 205.81642 106.89323 207.15454 105.55511 208.80525 105.55511 210.45595 105.55511 211.79409 106.89323 211.79409 108.54395ZM208.80525 108.54395" fill="#0000b3"/>
<path transform="matrix(1.00008,0,0,-1,39.20295,130.37201)" stroke-width=".3985" stroke-linecap="butt" stroke-miterlimit="10" stroke-linejoin="miter" fill="none" stroke="#0000b3" d="M211.79409 108.54395C211.79409 110.19466 210.45595 111.53278 208.80525 111.53278 207.15454 111.53278 205.81642 110.19466 205.81642 108.54395 205.81642 106.89323 207.15454 105.55511 208.80525 105.55511 210.45595 105.55511 211.79409 106.89323 211.79409 108.54395ZM208.80525 108.54395"/>
<path transform="matrix(1.00008,0,0,-1,39.20295,130.37201)" stroke-width=".3985" stroke-linecap="butt" stroke-miterlimit="10" stroke-linejoin="miter" fill="none" stroke="#0000b3" d=""/>
<use data-text="7" xlink:href="#font_3_100" transform="matrix(7.9707376,0,0,-7.9701,245.90848,15.152008)"/>
<path transform="matrix(1.00008,0,0,-1,39.20295,130.37201)" stroke-width=".3985" stroke-linecap="butt" stroke-miterlimit="10" stroke-linejoin="miter" fill="none" stroke="#0000b3" d=""/>
<use data-text="x" xlink:href="#font_4_1" transform="matrix(9.963397,0,0,-9.9626,155.68227,153.125)"/>
<use data-text="y" xlink:href="#font_4_2" transform="matrix(0,-9.9626,-9.963397,-0,5.506241,70.371997)"/>
</svg>
