<svg xmlns="http://www.w3.org/2000/svg" xmlns:xlink="http://www.w3.org/1999/xlink" xmlns:inkscape="http://www.inkscape.org/namespaces/inkscape" version="1.1" width="215" height="227" viewBox="0 0 215 227">
<defs>
<path id="font_1_3" d="M.33399964 .30233766C.33999635 .32835389 .36299134 .42037965 .43299867 .42037965 .43798829 .42037965 .46199037 .42037965 .48298646 .40734864 .45498658 .402359 .43499757 .37734986 .43499757 .35334779 .43499757 .33735658 .44599916 .31835938 .47299195 .31835938 .49499513 .31835938 .5269928 .3363495 .5269928 .37635804 .5269928 .42837525 .46798707 .4423828 .43399049 .4423828 .37599183 .4423828 .34098817 .38935853 .32899476 .36634828 .3039856 .43237306 .25 .4423828 .22099304 .4423828 .116989139 .4423828 .05999756 .3133545 .05999756 .28834535 .05999756 .27833558 .069992069 .27833558 .07199097 .27833558 .07998657 .27833558 .08299255 .28033448 .084991458 .28933717 .11898804 .39535523 .18499756 .42037965 .21899414 .42037965 .23799134 .42037965 .272995 .4113617 .272995 .35334779 .272995 .32235719 .2559967 .25532533 .21899414 .11528015 .20298767 .053268434 .16799927 .011245728 .12399292 .011245728 .117996219 .011245728 .09498596 .011245728 .07398987 .024276734 .09899902 .029266358 .12098694 .05027771 .12098694 .07827759 .12098694 .105270389 .09899902 .11328125 .083999637 .11328125 .053985597 .11328125 .0289917 .08728027 .0289917 .055267335 .0289917 .009246826 .07899475-.0107421879 .12298584-.0107421879 .18899536-.0107421879 .22499085 .059280397 .22799683 .0652771 .23999024 .028274537 .27598573-.0107421879 .33599855-.0107421879 .43899537-.0107421879 .49598695 .118270877 .49598695 .14328003 .49598695 .1532898 .4869995 .1532898 .48399354 .1532898 .47499085 .1532898 .47299195 .14929199 .47099305 .14228821 .43798829 .03527832 .36999513 .011245728 .33799745 .011245728 .29899598 .011245728 .2829895 .043273927 .2829895 .07727051 .2829895 .09927368 .2889862 .121276859 .2999878 .16529846L.33399964 .30233766Z"/>
<path id="font_1_4" d="M.48599244 .38136292C.48999024 .39537049 .48999024 .39736939 .48999024 .40437318 .48999024 .42237855 .47599793 .43138124 .46099855 .43138124 .45098878 .43138124 .43499757 .42536927 .42599488 .41036988 .42399598 .405365 .41600038 .37435914 .4119873 .35635377 .40499879 .33035279 .397995 .30334474 .3919983 .27633668L.34700013 .09628296C.34298707 .08126831 .2999878 .011245728 .23399353 .011245728 .18299866 .011245728 .17199707 .055267335 .17199707 .0922699 .17199707 .1382904 .18899536 .20030213 .22299195 .28833009 .23899842 .3293457 .24299622 .3403473 .24299622 .36035157 .24299622 .405365 .21099854 .4423828 .16099549 .4423828 .06599426 .4423828 .0289917 .29733277 .0289917 .28833009 .0289917 .27833558 .038986207 .27833558 .040985109 .27833558 .050994874 .27833558 .051986696 .28033448 .056991579 .29634095 .083999637 .3903656 .12399292 .42037965 .1579895 .42037965 .1659851 .42037965 .18299866 .42037965 .18299866 .3883667 .18299866 .36335755 .17298889 .3373413 .1659851 .31834413 .12599182 .21231079 .10798645 .1552887 .10798645 .10827637 .10798645 .019256592 .17098999-.0107421879 .22999573-.0107421879 .2689972-.0107421879 .30299378 .0062561037 .33099366 .03425598 .31799317-.017745972 .30599977-.06674194 .2659912-.11973572 .23999024-.15385437 .20199585-.18309021 .1559906-.18309021 .14199829-.18309021 .09700012-.18005371 .07998657-.14074707 .09599304-.14074707 .10899353-.14074707 .12298584-.1287384 .1329956-.11973572 .14299011-.10673523 .14299011-.08773804 .14299011-.056747438 .115997318-.052734376 .10598755-.052734376 .08299255-.052734376 .049987794-.068740848 .049987794-.11773682 .049987794-.16796875 .09399414-.20507813 .1559906-.20507813 .25898744-.20507813 .3619995-.11373901 .3899994-.00074768069L.48599244 .38136292Z"/>
<path id="font_2_2" d="M.20298767 .3371582V.4501953L.036987306 .44218446V.39518739C.09899902 .39518739 .10598755 .39518739 .10598755 .35617066V.04699707H.036987306V0C.07199097 .0009918213 .116989139 .0029907227 .16299439 .0029907227 .20098877 .0029907227 .2649994 .0029907227 .30099488 0V.04699707H.21398926V.22209168C.21398926 .2921753 .23899842 .41418458 .33898927 .41418458 .33799745 .41319276 .31999208 .39718629 .31999208 .36819459 .31999208 .3271942 .35198976 .30718995 .3809967 .30718995 .4099884 .30718995 .44198609 .32818605 .44198609 .36819459 .44198609 .42118836 .3880005 .4501953 .33599855 .4501953 .2659912 .4501953 .22599793 .40019227 .20298767 .3371582Z"/>
<path id="font_3_1" d="M.33099366-.2400055C.33099366-.23701477 .33099366-.23500061 .31399537-.21800232 .18899536-.0920105 .15699768 .09700012 .15699768 .25 .15699768 .42399598 .19499207 .59799197 .31799317 .72299197 .33099366 .73498538 .33099366 .7369995 .33099366 .73999026 .33099366 .746994 .32699586 .75 .32099916 .75 .31098939 .75 .22099304 .6819916 .1619873 .5549927 .11099243 .44499208 .09899902 .33399964 .09899902 .25 .09899902 .17199707 .10998535 .050994874 .16499329-.06201172 .22499085-.18501282 .31098939-.25 .32099916-.25 .32699586-.25 .33099366-.24700928 .33099366-.2400055Z"/>
<path id="font_1_2" d="M.20599365 .3996582H.2999878C.31999208 .3996582 .32998658 .3996582 .32998658 .41966249 .32998658 .43066407 .31999208 .43066407 .3019867 .43066407H.21398926C.25 .5724945 .25498963 .59246829 .25498963 .59846499 .25498963 .61546328 .24299622 .62545779 .22599793 .62545779 .22299195 .62545779 .19499207 .62446597 .18598938 .58947756L.14698792 .43066407H.052993776C.032989503 .43066407 .022994996 .43066407 .022994996 .4116516 .022994996 .3996582 .0309906 .3996582 .050994874 .3996582H.13899231C.066986087 .11608887 .06298828 .099121097 .06298828 .08114624 .06298828 .02722168 .100997928-.0107421879 .15499878-.0107421879 .25698854-.0107421879 .31399537 .13505554 .31399537 .14305115 .31399537 .1530304 .30599977 .1530304 .3019867 .1530304 .29299928 .1530304 .2919922 .15003968 .2869873 .13905335 .24398804 .035217287 .19099427 .011245728 .15699768 .011245728 .13598633 .011245728 .12599182 .024230957 .12599182 .057174684 .12599182 .08114624 .12799073 .088134769 .13198853 .10510254L.20599365 .3996582Z"/>
<path id="font_3_2" d="M.2889862 .25C.2889862 .32798768 .27799989 .44898988 .22299195 .56199648 .16299439 .68499758 .07699585 .75 .066986087 .75 .06098938 .75 .056991579 .74598696 .056991579 .73999026 .056991579 .7369995 .056991579 .73498538 .07598877 .71699526 .17399597 .6179962 .23098755 .45899964 .23098755 .25 .23098755 .07899475 .19400025-.09700012 .069992069-.2230072 .056991579-.23500061 .056991579-.23701477 .056991579-.2400055 .056991579-.2460022 .06098938-.25 .066986087-.25 .07699585-.25 .16699219-.18200684 .22599793-.055007936 .2769928 .054992677 .2889862 .16600037 .2889862 .25Z"/>
<path id="font_2_1" d="M.6439972 .6795349H.038986207V.63253787H.14698792V.04699707H.038986207V0C.07699585 .0029907227 .17799378 .0029907227 .22200012 .0029907227 .2709961 .0029907227 .37998963 .0029907227 .42399598 0V.04699707H.2889862V.31640626H.33898927C.43499757 .31640626 .44400025 .27349855 .44400025 .19966126H.4909973V.4804535H.44400025C.44400025 .40641786 .43598939 .36340333 .33898927 .36340333H.2889862V.63253787H.42900086C.58999636 .63253787 .61299136 .5554962 .6279907 .4384308H.6749878L.6439972 .6795349Z"/>
<path id="font_2_3" d="M.5059967 .37631227C.5119934 .39031983 .5159912 .3973236 .5799866 .3973236V.44433595C.5549927 .44232179 .526001 .44132997 .5009918 .44132997 .47599793 .44132997 .43099977 .44332887 .4099884 .44433595V.3973236C.42900086 .3973236 .45799256 .3943329 .45799256 .38632203 .45799256 .3853302 .45700074 .38331605 .45298768 .37431336L.33699037 .12416077 .20999146 .3973236H.2639923V.44433595C.23098755 .44232179 .14099121 .44132997 .13999939 .44132997 .11199951 .44132997 .066986087 .44332887 .025985718 .44433595V.3973236H.08999634L.2649994 .021087647C.2769928-.00390625 .2899933-.00390625 .30299378-.00390625 .31999208-.00390625 .32998658-.00091552737 .33999635 .020080567L.5059967 .37631227Z"/>
<path id="font_1_1" d="M.30299378 .3157959H.47299195C.61499026 .3157959 .7539978 .41973878 .7539978 .53167727 .7539978 .6086273 .6879883 .6826172 .5569916 .6826172H.23298645C.21398926 .6826172 .20298767 .6826172 .20298767 .66360476 .20298767 .6516113 .21199036 .6516113 .23199463 .6516113 .24499512 .6516113 .2630005 .65060427 .2749939 .6496124 .29100038 .6476135 .29699708 .64460757 .29699708 .6336212 .29699708 .6296234 .29599 .62661746 .29299928 .614624L.15899658 .07795715C.14898682 .038986207 .14698792 .0309906 .067993167 .0309906 .050994874 .0309906 .039993287 .0309906 .039993287 .011993408 .039993287 0 .051986696 0 .054992677 0 .08299255 0 .1539917 .0029907227 .18199158 .0029907227 .20298767 .0029907227 .22499085 .0019989014 .24598694 .0019989014 .2679901 .0019989014 .2899933 0 .31098939 0 .31799317 0 .33099366 0 .33099366 .019989014 .33099366 .0309906 .32199098 .0309906 .30299378 .0309906 .2659912 .0309906 .23799134 .0309906 .23799134 .048980714 .23799134 .054977418 .23999024 .05996704 .24099732 .065963748L.30299378 .3157959M.375 .6136322C.38398744 .64860537 .38598634 .6516113 .42900086 .6516113H.5249939C.60798647 .6516113 .6609955 .62461856 .6609955 .55566409 .6609955 .5166931 .6409912 .43074037 .60198977 .39476014 .5519867 .34977723 .49198915 .34179688 .44799806 .34179688H.30699159L.375 .6136322Z"/>
</defs>
<path transform="matrix(1.00003,0,0,-1.00002,107.59769,119.367137)" stroke-width=".79701" stroke-linecap="butt" stroke-miterlimit="10" stroke-linejoin="miter" fill="none" stroke="#7f807f" d="M-106.3005 0H105.59314"/>
<path transform="matrix(1.00003,0,0,-1.00002,213.194,119.367137)" stroke-width=".6376" stroke-linecap="round" stroke-linejoin="round" fill="none" stroke="#7f807f" d="M-1.55415 2.0722C-1.42464 1.29512 0 .1295 .38852 0 0-.1295-1.42464-1.29512-1.55415-2.0722"/>
<use data-text="x" xlink:href="#font_1_3" transform="matrix(9.962899,0,0,-9.962799,205.81565,126.04826)" fill="#7f807f"/>
<path transform="matrix(1.00003,0,0,-1.00002,107.59769,119.367137)" stroke-width=".79701" stroke-linecap="butt" stroke-miterlimit="10" stroke-linejoin="miter" fill="none" stroke="#7f807f" d="M0-106.3005V105.59314"/>
<path transform="matrix(0,-1.00002,-1.00003,-0,107.59769,13.771881)" stroke-width=".6376" stroke-linecap="round" stroke-linejoin="round" fill="none" stroke="#7f807f" d="M-1.55415 2.0722C-1.42464 1.29512 0 .1295 .38852 0 0-.1295-1.42464-1.29512-1.55415-2.0722"/>
<use data-text="y" xlink:href="#font_1_4" transform="matrix(9.962899,0,0,-9.962799,109.98876,19.745133)" fill="#7f807f"/>
<path transform="matrix(1.00003,0,0,-1.00002,107.59769,119.367137)" stroke-width=".79701" stroke-linecap="butt" stroke-dasharray="2.98883,2.98883" stroke-miterlimit="10" stroke-linejoin="miter" fill="none" stroke="#b2b3b2" d="M85.04044 0C85.04044 46.96713 46.96713 85.04044 0 85.04044-46.96713 85.04044-85.04044 46.96713-85.04044 0-85.04044-46.96713-46.96713-85.04044 0-85.04044 46.96713-85.04044 85.04044-46.96713 85.04044 0ZM0 0"/>
<path transform="matrix(1.00003,0,0,-1.00002,107.59769,119.367137)" stroke-width="1.59404" stroke-linecap="butt" stroke-miterlimit="10" stroke-linejoin="miter" fill="none" stroke="#0000ff" d="M0 0 53.86392 64.21725"/>
<path transform="matrix(.6426593,-.7661553,-.766163,-.64265289,161.4632,55.148599)" stroke-width="1.27522" stroke-linecap="round" stroke-linejoin="round" fill="none" stroke="#0000ff" d="M-2.27148 3.02866C-2.0822 1.8929 0 .18927 .56786 0 0-.18927-2.0822-1.8929-2.27148-3.02866"/>
<use data-text="r" xlink:href="#font_2_2" transform="matrix(9.962899,0,0,-9.962799,117.058979,82.5124)" fill="#0000ff"/>
<use data-text="(" xlink:href="#font_3_1" transform="matrix(9.962899,0,0,-9.962799,121.77812,82.5124)" fill="#0000ff"/>
<use data-text="t" xlink:href="#font_1_2" transform="matrix(9.962899,0,0,-9.962799,125.65222,82.5124)" fill="#0000ff"/>
<use data-text=")" xlink:href="#font_3_2" transform="matrix(9.962899,0,0,-9.962799,129.25034,82.5124)" fill="#0000ff"/>
<path transform="matrix(1.00003,0,0,-1.00002,107.59769,119.367137)" stroke-width="1.59404" stroke-linecap="butt" stroke-miterlimit="10" stroke-linejoin="miter" fill="none" stroke="#ff0000" d="M54.63861 65.14084 17.14473 20.4403"/>
<path transform="matrix(-.6426593,.7661553,.766163,.64265289,124.74294,98.92642)" stroke-width="1.27522" stroke-linecap="round" stroke-linejoin="round" fill="none" stroke="#ff0000" d="M-2.27148 3.02866C-2.0822 1.8929 0 .18927 .56786 0 0-.18927-2.0822-1.8929-2.27148-3.02866"/>
<use data-text="F" xlink:href="#font_2_1" transform="matrix(9.962899,0,0,-9.962799,146.62287,88.051509)" fill="#ff0000"/>
<use data-text="(" xlink:href="#font_3_1" transform="matrix(9.962899,0,0,-9.962799,153.83206,88.051509)" fill="#ff0000"/>
<use data-text="t" xlink:href="#font_1_2" transform="matrix(9.962899,0,0,-9.962799,157.70719,88.051509)" fill="#ff0000"/>
<use data-text=")" xlink:href="#font_3_2" transform="matrix(9.962899,0,0,-9.962799,161.30429,88.051509)" fill="#ff0000"/>
<path transform="matrix(1.00003,0,0,-1.00002,107.59769,119.367137)" stroke-width="1.59404" stroke-linecap="butt" stroke-miterlimit="10" stroke-linejoin="miter" fill="none" stroke="#1ab31a" d="M54.63861 65.14084 9.98032 102.59203"/>
<path transform="matrix(-.766223,-.64256289,-.6425693,.7662153,117.578319,16.773049)" stroke-width="1.27522" stroke-linecap="round" stroke-linejoin="round" fill="none" stroke="#1ab31a" d="M-2.27148 3.02866C-2.0822 1.8929 0 .18927 .56786 0 0-.18927-2.0822-1.8929-2.27148-3.02866"/>
<use data-text="v" xlink:href="#font_2_3" transform="matrix(9.962899,0,0,-9.962799,120.77208,9.389931)" fill="#1ab31a"/>
<use data-text="(" xlink:href="#font_3_1" transform="matrix(9.962899,0,0,-9.962799,126.97826,9.389931)" fill="#1ab31a"/>
<use data-text="t" xlink:href="#font_1_2" transform="matrix(9.962899,0,0,-9.962799,130.85338,9.389931)" fill="#1ab31a"/>
<use data-text=")" xlink:href="#font_3_2" transform="matrix(9.962899,0,0,-9.962799,134.45049,9.389931)" fill="#1ab31a"/>
<path transform="matrix(1.00003,0,0,-1.00002,107.59769,119.367137)" stroke-width=".79701" stroke-linecap="butt" stroke-miterlimit="10" stroke-linejoin="miter" fill="none" stroke="#7f807f" d="M54.63861 65.14084 50.13136 59.78365 44.7735 64.29027 49.28076 69.64812Z"/>
<path transform="matrix(1.00003,0,0,-1.00002,107.59769,119.367137)" d="M56.88023 65.14084C56.88023 66.37886 55.87663 67.38246 54.63861 67.38246 53.40059 67.38246 52.39699 66.37886 52.39699 65.14084 52.39699 63.90282 53.40059 62.89922 54.63861 62.89922 55.87663 62.89922 56.88023 63.90282 56.88023 65.14084ZM54.63861 65.14084"/>
<path transform="matrix(1.00003,0,0,-1.00002,107.59769,119.367137)" stroke-width=".3985" stroke-linecap="butt" stroke-miterlimit="10" stroke-linejoin="miter" fill="none" stroke="#000000" d="M56.88023 65.14084C56.88023 66.37886 55.87663 67.38246 54.63861 67.38246 53.40059 67.38246 52.39699 66.37886 52.39699 65.14084 52.39699 63.90282 53.40059 62.89922 54.63861 62.89922 55.87663 62.89922 56.88023 63.90282 56.88023 65.14084ZM54.63861 65.14084"/>
<use data-text="P" xlink:href="#font_1_1" transform="matrix(9.962899,0,0,-9.962799,167.75049,50.704759)"/>
</svg>
