<svg xmlns="http://www.w3.org/2000/svg" xmlns:xlink="http://www.w3.org/1999/xlink" xmlns:inkscape="http://www.inkscape.org/namespaces/inkscape" version="1.1" width="198" height="112" viewBox="0 0 198 112">
<defs>
<path id="font_1_4" d="M.5369873 .5947571C.522995 .5818329 .48999024 .55400088 .48999024 .5361023 .48999024 .5261078 .5 .516098 .5099945 .516098 .5189972 .516098 .5239868 .5231018 .5289917 .5290985 .54100039 .5440674 .56399539 .5718994 .60798647 .59376528 .61499026 .59776309 .625 .6027527 .625 .61476138 .625 .62475588 .6179962 .62976077 .61099246 .6347656 .58898928 .6497803 .5779877 .66781619 .56999209 .69184878 .56799319 .7008667 .56399539 .7138672 .5499878 .7138672 .5359955 .7138672 .5299988 .7008667 .5299988 .69285586 .5299988 .68785098 .5379944 .65579226 .55400088 .6347656H.21699524C.19999695 .6347656 .18199158 .6347656 .18199158 .61476138 .18199158 .5947571 .19999695 .5947571 .21699524 .5947571H.5369873Z"/>
<path id="font_1_2" d="M.37298585 .37835694C.35499574 .41537477 .32598878 .4423828 .2809906 .4423828 .1639862 .4423828 .039993287 .29533387 .039993287 .14929199 .039993287 .055267335 .09498596-.0107421879 .17298889-.0107421879 .19299317-.0107421879 .24299622-.0067443849 .30299378 .06427002 .31098939 .022247315 .34599305-.0107421879 .3939972-.0107421879 .42900086-.0107421879 .45199586 .012252808 .46798707 .044265748 .4850006 .08027649 .49798585 .14129639 .49798585 .14329529 .49798585 .1532898 .4889984 .1532898 .48599244 .1532898 .47599793 .1532898 .47499085 .14929199 .47200013 .13528443 .45498658 .07026672 .43699647 .011245728 .3959961 .011245728 .36898805 .011245728 .3659973 .037261964 .3659973 .057266237 .3659973 .07926941 .36799623 .08728027 .3789978 .13128662 .3899994 .17329407 .3919983 .18330384 .40098573 .22131348L.43699647 .36135865C.44400025 .38935853 .44400025 .39135743 .44400025 .39537049 .44400025 .41236878 .43199159 .42237855 .4149933 .42237855 .3909912 .42237855 .37599183 .4003601 .37298585 .37835694M.30799867 .119277957C.30299378 .10127258 .30299378 .09927368 .28799439 .08227539 .24398804 .027252198 .20298767 .011245728 .1749878 .011245728 .125 .011245728 .11099243 .06626892 .11099243 .105285648 .11099243 .1552887 .14299011 .27833558 .1659851 .32434083 .19699097 .38336183 .24198914 .42037965 .28199769 .42037965 .34700013 .42037965 .36099244 .3383484 .36099244 .33235169 .36099244 .32633973 .35899354 .32034303 .35798646 .31533814L.30799867 .119277957Z"/>
<path id="font_1_3" d="M.23899842 .68333438C.23899842 .6843262 .23899842 .69433596 .22599793 .69433596 .20298767 .69433596 .12998963 .6863251 .10398865 .6843262 .09599304 .68333438 .084991458 .6823273 .084991458 .6643219 .084991458 .6523285 .09399414 .6523285 .10899353 .6523285 .15699768 .6523285 .15899658 .6453247 .15899658 .6353302 .15899658 .6283264 .1499939 .5943451 .14498902 .573349L.06298828 .24731446C.050994874 .1973114 .04699707 .18130493 .04699707 .14628601 .04699707 .05126953 .099990848-.0107421879 .17399597-.0107421879 .2919922-.0107421879 .4149933 .1382904 .4149933 .28233338 .4149933 .37335206 .3619995 .4423828 .28199769 .4423828 .23599243 .4423828 .19499207 .41337586 .16499329 .38235475L.23899842 .68333438M.14498902 .30534364C.15098572 .3273468 .15098572 .3293457 .1599884 .3403473 .20899964 .405365 .2539978 .42037965 .27999879 .42037965 .31599427 .42037965 .34298707 .3903656 .34298707 .32633973 .34298707 .26733399 .30999757 .15229798 .2919922 .11428833 .25898744 .04725647 .21299744 .011245728 .17399597 .011245728 .13999939 .011245728 .10699463 .038253786 .10699463 .11227417 .10699463 .13128662 .10699463 .15029907 .12298584 .21331787L.14498902 .30534364Z"/>
<path id="font_1_1" d="M.45498658 .5001831C.45498658 .56614688 .43699647 .7050781 .33499146 .7050781 .19599915 .7050781 .041992189 .42323304 .041992189 .19425965 .041992189 .100250247 .070999149-.0107421879 .1619873-.0107421879 .30299378-.0107421879 .45498658 .27627564 .45498658 .5001831M.147995 .36328126C.16499329 .42723084 .18499756 .5071869 .22499085 .57814028 .2519989 .6271057 .2889862 .68307498 .33399964 .68307498 .3829956 .68307498 .3889923 .6191101 .3889923 .56214907 .3889923 .5131836 .3809967 .46220399 .35699464 .36328126H.147995M.34799195 .3312683C.33699037 .28527833 .31599427 .2002716 .27799989 .12826538 .24299622 .060256959 .20498657 .011245728 .1619873 .011245728 .1289978 .011245728 .10798645 .040252687 .10798645 .133255 .10798645 .17526245 .11399841 .23326111 .13999939 .3312683H.34799195Z"/>
<path id="font_2_8" d="M.17199707 .37635804V.4423828L.027999878 .43138124V.40037538C.09899902 .40037538 .10598755 .3943634 .10598755 .35035707V-.11816406C.10598755-.16334534 .09498596-.16334534 .027999878-.16334534V-.19433594C.06199646-.19334412 .11399841-.19134522 .13999939-.19134522 .16699219-.19134522 .21798706-.19334412 .25299073-.19433594V-.16334534C.18598938-.16334534 .1749878-.16334534 .1749878-.11816406V.05026245 .059265138C.17999268 .043258668 .22200012-.0107421879 .2979889-.0107421879 .4169922-.0107421879 .5209961 .08728027 .5209961 .2163086 .5209961 .34335328 .42399598 .4423828 .31199647 .4423828 .23399353 .4423828 .19198609 .39837647 .17199707 .37635804M.1749878 .11428833V.33735658C.20399475 .3883667 .25299073 .41737367 .3039856 .41737367 .3769989 .41737367 .43798829 .3293457 .43798829 .2163086 .43798829 .09527588 .36799623 .011245728 .2939911 .011245728 .2539978 .011245728 .21598816 .03125 .18899536 .072265628 .1749878 .09327698 .1749878 .0942688 .1749878 .11428833Z"/>
<path id="font_2_9" d="M.16699219 .3323059V.4423828L.027999878 .43138124V.40037538C.09799194 .40037538 .10598755 .39337159 .10598755 .34431459V.076034549C.10598755 .0309906 .09498596 .0309906 .027999878 .0309906V0C.066986087 .0009918213 .11399841 .0029907227 .14199829 .0029907227 .18199158 .0029907227 .22898865 .0029907227 .2689972 0V.0309906H.24798584C.17399597 .0309906 .17199707 .042007448 .17199707 .07803345V.232193C.17199707 .33128358 .21398926 .42037965 .2899933 .42037965 .29699708 .42037965 .29899598 .42037965 .30099488 .41937257 .2979889 .41838075 .27799989 .4063568 .27799989 .38034059 .27799989 .35231019 .29899598 .33729554 .32099916 .33729554 .33898927 .33729554 .3639984 .3493042 .3639984 .3813324 .3639984 .41337586 .33299256 .4423828 .2899933 .4423828 .21699524 .4423828 .18099976 .37535096 .16699219 .3323059Z"/>
<path id="font_2_7" d="M.47099305 .21424866C.47099305 .34223939 .37098695 .4482422 .25 .4482422 .125 .4482422 .027999878 .3392334 .027999878 .21424866 .027999878 .085250858 .13198853-.0107421879 .24899292-.0107421879 .36999513-.0107421879 .47099305 .087249759 .47099305 .21424866M.25 .014251709C.20698548 .014251709 .16299439 .035247804 .13598633 .08125305 .11099243 .12524414 .11099243 .18624878 .11099243 .22224427 .11099243 .26124574 .11099243 .31523133 .1349945 .35923768 .1619873 .40522767 .20899964 .426239 .24899292 .426239 .29299928 .426239 .33599855 .40423585 .3619995 .36123658 .3880005 .3182373 .3880005 .26023866 .3880005 .22224427 .3880005 .18624878 .3880005 .13224793 .3659973 .08824158 .34399415 .04324341 .2999878 .014251709 .25 .014251709Z"/>
<path id="font_2_5" d="M.20999146 .4423828 .057998659 .43138124V.40037538C.1349945 .40037538 .14399719 .39337159 .14399719 .34432984V-.051971437C.14399719-.09700012 .1349945-.18309021 .070999149-.18309021 .06599426-.18309021 .042999269-.18309021 .016998291-.17001343 .03199768-.16600037 .051986696-.1519928 .051986696-.125 .051986696-.09899902 .033996583-.07899475 .005996704-.07899475-.022003174-.07899475-.040008546-.09899902-.040008546-.125-.040008546-.17704773 .015991211-.20507813 .07299805-.20507813 .147995-.20507813 .20999146-.14100647 .20999146-.049972536V.4423828M.20999146 .6159363C.20999146 .64494326 .18598938 .6689453 .15699768 .6689453 .12799073 .6689453 .10398865 .64494326 .10398865 .6159363 .10398865 .5869446 .12799073 .5629425 .15699768 .5629425 .18598938 .5629425 .20999146 .5869446 .20999146 .6159363Z"/>
<path id="font_3_2" d="M.57899478 .5908203C.57099917 .5838623 .5359955 .55307009 .5359955 .5371704 .5359955 .52319338 .5479889 .5121918 .5609894 .5121918 .57199099 .5121918 .5779877 .51919558 .58399966 .52719119 .60899356 .55604556 .6399994 .5769043 .66600039 .5888214 .6799927 .5948181 .69099429 .59980776 .69099429 .6158142 .69099429 .6288147 .68099978 .6348114 .6719971 .6398163 .6389923 .6599426 .6299896 .6851196 .625 .69821169 .6230011 .7042084 .61698916 .71920779 .59999087 .71920779 .59298709 .71920779 .57598879 .71321108 .57598879 .69418337 .57598879 .6800842 .59098818 .65190127 .59999087 .6398163H.24099732C.22499085 .6398163 .20098877 .6398163 .20098877 .6158142 .20098877 .5908203 .22399903 .5908203 .24099732 .5908203H.57899478Z"/>
<path id="font_3_1" d="M.42199708 .38238526C.40098573 .41540528 .36698915 .44140626 .31900025 .44140626 .19099427 .44140626 .06098938 .300354 .06098938 .15628052 .06098938 .059249879 .12599182-.009765625 .21199036-.009765625 .2659912-.009765625 .31399537 .021224976 .35398866 .0602417 .37298585 .00022888184 .43099977-.009765625 .45700074-.009765625 .49299623-.009765625 .5179901 .01222229 .5359955 .04324341 .55799868 .08226013 .57099917 .13928223 .57099917 .14328003 .57099917 .15628052 .55799868 .15628052 .5549927 .15628052 .54100039 .15628052 .5399933 .15228272 .5329895 .12527466 .5209961 .07725525 .5019989 .018234253 .45999146 .018234253 .43399049 .018234253 .4269867 .040237428 .4269867 .06724548 .4269867 .08425903 .43499757 .120269779 .44198609 .14628601 .44898988 .17329407 .45899964 .21430969 .46398927 .23632813L.48399354 .3123474C.48999024 .33836366 .5019989 .38539125 .5019989 .39038087 .5019989 .4123993 .48399354 .4223938 .46798707 .4223938 .45098878 .4223938 .42799378 .4104004 .42199708 .38238526M.35798646 .12527466C.35099793 .09725952 .32899476 .07725525 .30699159 .058242799 .2979889 .050247194 .2579956 .018234253 .21499634 .018234253 .17799378 .018234253 .14199829 .04423523 .14199829 .11526489 .14199829 .16828919 .17098999 .27833558 .19400025 .31835938 .23999024 .39839173 .29100038 .4133911 .31900025 .4133911 .3889923 .4133911 .4079895 .33737184 .4079895 .32635499 .4079895 .32235719 .4059906 .3153534 .40499879 .3123474L.35798646 .12527466Z"/>
<path id="font_4_71" d="M.58200076 .2578125H.5569916C.54599 .15588379 .5319977 .0309906 .35598756 .0309906H.27398683C.22698975 .03060913 .22499085 .037612916 .22499085 .07060242V.6036072C.22499085 .63760378 .22499085 .6516113 .31999208 .6516113H.35299684V.6826172C.31698609 .6796112 .22599793 .6796112 .18499756 .6796112 .1459961 .6796112 .067993167 .6796112 .032989503 .6826172V.6516113H.056991579C.13398743 .6518097 .13598633 .6408081 .13598633 .6048126V.07795715C.13598633 .04197693 .13398743 .0309906 .056991579 .0309906H.032989503V0H.55400088L.58200076 .2578125Z"/>
<path id="font_4_50" d="M.4149933 .11933899C.4149933 .12934876 .40699769 .13134766 .4019928 .13134766 .3929901 .13134766 .3909912 .12535095 .3889923 .11734009 .35398866 .014251709 .2639923 .014251709 .2539978 .014251709 .20399475 .014251709 .1639862 .044281007 .14099121 .08131409 .11099243 .12934876 .11099243 .19540406 .11099243 .23144531H.3899994C.4119873 .23144531 .4149933 .23144531 .4149933 .2524414 .4149933 .35131837 .36099244 .4482422 .23599243 .4482422 .11999512 .4482422 .027999878 .34532167 .027999878 .22042847 .027999878 .08631897 .1329956-.0107421879 .24798584-.0107421879 .36999513-.0107421879 .4149933 .10032654 .4149933 .11933899M.34899903 .2524414H.11199951C.117996219 .40126039 .20199585 .426239 .23599243 .426239 .33898927 .426239 .34899903 .2913971 .34899903 .2524414Z"/>
<path id="font_4_77" d="M.5349884 0V.0309906C.48298646 .0309906 .45799256 .0309906 .45700074 .061019899V.25221253C.45700074 .3383026 .45700074 .36932374 .42599488 .405365 .4119873 .42237855 .3789978 .4423828 .32099916 .4423828 .24798584 .4423828 .20098877 .39935304 .17298889 .33729554V.4423828L.03199768 .43066407V.3996582C.101989749 .3996582 .10998535 .39266969 .10998535 .34370423V.07595825C.10998535 .0309906 .09899902 .0309906 .03199768 .0309906V0L.14498902 .0029907227 .25698854 0V.0309906C.18998719 .0309906 .1789856 .0309906 .1789856 .07595825V.25978089C.1789856 .36431886 .25 .42037965 .31399537 .42037965 .3769989 .42037965 .3880005 .36631776 .3880005 .30926515V.076034549C.3880005 .0309906 .3769989 .0309906 .30999757 .0309906V0L.4229889 .0029907227 .5349884 0Z"/>
<path id="font_4_59" d="M.4850006 .40411378C.4850006 .42111207 .47299195 .453125 .43399049 .453125 .4139862 .453125 .36999513 .44711305 .32798768 .40611268 .28599549 .43937684 .24398804 .4423828 .22200012 .4423828 .1289978 .4423828 .05999756 .37338258 .05999756 .29638673 .05999756 .25239564 .08198547 .21440125 .10699463 .19340515 .09399414 .17840576 .07598877 .14538574 .07598877 .11035156 .07598877 .07899475 .08898926 .04083252 .11999512 .020828248 .05999756 .003829956 .027999878-.039138795 .027999878-.07911682 .027999878-.15107727 .1269989-.20605469 .24899292-.20605469 .36698915-.20605469 .47099305-.15507508 .47099305-.07711792 .47099305-.042144777 .45700074 .008834839 .4059906 .036834718 .35299684 .064834598 .29499818 .064834598 .23399353 .064834598 .20899964 .064834598 .1659851 .064834598 .15899658 .065841678 .1269989 .069885257 .10598755 .101242069 .10598755 .13334656 .10598755 .13735962 .10598755 .16040039 .12298584 .18040467 .1619873 .15240479 .20298767 .14941406 .22200012 .14941406 .31498719 .14941406 .38398744 .21839905 .38398744 .2953949 .38398744 .3323822 .36799623 .36938478 .34298707 .39237977 .3789978 .42637635 .4149933 .43138124 .43299867 .43138124 .43299867 .43112184 .43998719 .43112184 .44299317 .43011476 .43199159 .42611695 .4269867 .41513063 .4269867 .40315248 .4269867 .38616944 .43998719 .37417604 .45599366 .37417604 .46598817 .37417604 .4850006 .3811798 .4850006 .4041443V.40411378M.30899049 .29626466C.30899049 .26930238 .30799867 .2373352 .29299928 .21235657 .2849884 .20037842 .2619934 .17240906 .22200012 .17240906 .1349945 .17240906 .1349945 .2722931 .1349945 .29527284 .1349945 .3222351 .13598633 .35420228 .15098572 .3791809 .15899658 .3913269 .18199158 .41937257 .22200012 .41937257 .30899049 .41937257 .30899049 .31922914 .30899049 .29618836V.29626466M.4189911-.07911682C.4189911-.13308716 .34799195-.18305969 .25-.18305969 .14898682-.18305969 .07998657-.13209534 .07998657-.07911682 .07998657-.03314209 .117996219 .003829956 .1619873 .0068359377H.22099304C.30699159 .0068359377 .4189911 .0068359377 .4189911-.07911682Z"/>
<path id="font_4_105" d="M.33198548 .12385559V.18066406H.30699159V.12585449C.30699159 .052108766 .2769928 .014251709 .23999024 .014251709 .17298889 .014251709 .17298889 .10491943 .17298889 .12187195V.3996582H.31599427V.43066407H.17298889V.6142578H.147995C.14698792 .5324249 .116989139 .42565919 .018997193 .42166139V.3996582H.10398865V.12408447C.10398865 .0012512207 .19699097-.0107421879 .23298645-.0107421879 .3039856-.0107421879 .33198548 .060180665 .33198548 .12408447V.12385559Z"/>
<path id="font_4_63" d="M.5349884 0V.0309906C.48298646 .0309906 .45799256 .0309906 .45700074 .061019899V.25221253C.45700074 .3383026 .45700074 .36932374 .42599488 .405365 .4119873 .42237855 .3789978 .4423828 .32099916 .4423828 .23699951 .4423828 .19299317 .38233949 .1769867 .34629823H.17599488V.69433596L.03199768 .6826172V.6516113C.101989749 .6516113 .10998535 .64463809 .10998535 .59580996V.076034549C.10998535 .0309906 .09899902 .0309906 .03199768 .0309906V0L.14498902 .0029907227 .25698854 0V.0309906C.18998719 .0309906 .1789856 .0309906 .1789856 .076034549V.2602234C.1789856 .36431886 .25 .42037965 .31399537 .42037965 .3769989 .42037965 .3880005 .36631776 .3880005 .30926515V.076034549C.3880005 .0309906 .3769989 .0309906 .30999757 .0309906V0L.4229889 .0029907227 .5349884 0Z"/>
<path id="font_2_3" d="M.68699648 .32714845C.70199587 .32714845 .72099307 .32714845 .72099307 .34713746 .72099307 .36714173 .70199587 .36714173 .6879883 .36714173H.08898926C.07499695 .36714173 .055999757 .36714173 .055999757 .34713746 .055999757 .32714845 .07499695 .32714845 .08999634 .32714845H.68699648M.6879883 .13284302C.70199587 .13284302 .72099307 .13284302 .72099307 .15284729 .72099307 .17285156 .70199587 .17285156 .68699648 .17285156H.08999634C.07499695 .17285156 .055999757 .17285156 .055999757 .15284729 .055999757 .13284302 .07499695 .13284302 .08898926 .13284302H.6879883Z"/>
<path id="font_2_4" d="M.116989139 .21801758C.116989139 .38093568 .19898987 .42323304 .2519989 .42323304 .26098634 .42323304 .32398988 .42222596 .35899354 .38594056 .31799317 .38293458 .31199647 .3529358 .31199647 .3399353 .31199647 .31393434 .32998658 .2939453 .35798646 .2939453 .38398744 .2939453 .4039917 .3109436 .4039917 .34094239 .4039917 .40911866 .32798768 .4482422 .25099183 .4482422 .12599182 .4482422 .033996583 .3399353 .033996583 .21601868 .033996583 .08816528 .1329956-.0107421879 .24899292-.0107421879 .3829956-.0107421879 .4149933 .10914612 .4149933 .119140628 .4149933 .12911988 .40499879 .12911988 .4019928 .12911988 .3929901 .12911988 .3909912 .12512207 .3889923 .119140628 .3600006 .026229859 .29499818 .014251709 .2579956 .014251709 .20498657 .014251709 .116989139 .0572052 .116989139 .21801758Z"/>
<path id="font_2_6" d="M.10998535 .34429933V.076034549C.10998535 .0309906 .09899902 .0309906 .03199768 .0309906V0C.066986087 .0009918213 .117996219 .0029907227 .14498902 .0029907227 .17098999 .0029907227 .22299195 .0009918213 .25698854 0V.0309906C.18998719 .0309906 .1789856 .0309906 .1789856 .076034549V.2602234C.1789856 .36431886 .25 .42037965 .31399537 .42037965 .3769989 .42037965 .3880005 .36631776 .3880005 .30926515V.076034549C.3880005 .0309906 .3769989 .0309906 .30999757 .0309906V0C.34498597 .0009918213 .3959961 .0029907227 .4229889 .0029907227 .44898988 .0029907227 .5009918 .0009918213 .5349884 0V.0309906C.46798707 .0309906 .45700074 .0309906 .45700074 .076034549V.2602234C.45700074 .36431886 .5279999 .42037965 .59199526 .42037965 .6549988 .42037965 .66600039 .36631776 .66600039 .30926515V.076034549C.66600039 .0309906 .6549988 .0309906 .58799746 .0309906V0C.6230011 .0009918213 .673996 .0029907227 .70098879 .0029907227 .72698977 .0029907227 .7789917 .0009918213 .8129883 0V.0309906C.7609863 .0309906 .73599246 .0309906 .7350006 .061019899V.25221253C.7350006 .3383026 .7350006 .36932374 .70399478 .405365 .6899872 .42237855 .6569977 .4423828 .598999 .4423828 .5149994 .4423828 .47099305 .38233949 .45399476 .34429933 .43998719 .43138124 .3659973 .4423828 .32099916 .4423828 .24798584 .4423828 .20098877 .39935304 .17298889 .33729554V.4423828L.03199768 .43138124V.40037538C.101989749 .4003601 .10998535 .39335633 .10998535 .34429933Z"/>
<path id="font_5_1" d="M.17199707 .71598818C.17199707 .7319946 .17199707 .75 .1519928 .75 .13198853 .75 .13198853 .7279968 .13198853 .71299746V-.2130127C.13198853-.2290039 .13198853-.25 .1519928-.25 .17199707-.25 .17199707-.23200989 .17199707-.21600342V.71598818M.36698915 .71299746C.36698915 .72898867 .36698915 .75 .34700013 .75 .32699586 .75 .32699586 .7319946 .32699586 .71598818V-.21600342C.32699586-.23200989 .32699586-.25 .34700013-.25 .36698915-.25 .36698915-.22801209 .36698915-.2130127V.71299746Z"/>
<path id="font_2_10" d="M.20799256 .19424439C.22999573 .19024658 .31199647 .17424011 .31199647 .102249149 .31199647 .051254274 .2769928 .011245728 .19898987 .011245728 .114990238 .011245728 .07899475 .06825256 .05999756 .15324402 .056991579 .1662445 .055999757 .17024231 .04598999 .17024231 .032989503 .17024231 .032989503 .16323853 .032989503 .14524842V.013244629C.032989503-.003753662 .032989503-.0107421879 .04399109-.0107421879 .04899597-.0107421879 .049987794-.009750366 .068984989 .009246826 .070999149 .011245728 .070999149 .013244629 .08898926 .03224182 .1329956-.009750366 .17799378-.0107421879 .19898987-.0107421879 .31399537-.0107421879 .3600006 .056243898 .3600006 .12825012 .3600006 .1812439 .32998658 .21124268 .31799317 .22323609 .2849884 .25523377 .24598694 .26324464 .20399475 .27124024 .147995 .28224183 .08099365 .2952423 .08099365 .35324098 .08099365 .38822938 .10699463 .42922975 .19299317 .42922975 .30299378 .42922975 .30799867 .3392334 .30999757 .3082428 .31098939 .2992401 .31999208 .2992401 .32199098 .2992401 .33499146 .2992401 .33499146 .304245 .33499146 .3232422V.4242401C.33499146 .4412384 .33499146 .4482422 .32398988 .4482422 .31900025 .4482422 .31698609 .4482422 .3039856 .43623353 .30099488 .43223573 .29100038 .42323304 .2869873 .42022706 .24899292 .4482422 .20799256 .4482422 .19299317 .4482422 .070999149 .4482422 .032989503 .38124085 .032989503 .3252411 .032989503 .29023744 .04899597 .26223756 .07598877 .24023438 .10798645 .21424866 .13598633 .2082367 .20799256 .19424439Z"/>
<path id="font_2_1" d="M.33099366-.2400055C.33099366-.23701477 .33099366-.23500061 .31399537-.21800232 .18899536-.0920105 .15699768 .09700012 .15699768 .25 .15699768 .42399598 .19499207 .59799197 .31799317 .72299197 .33099366 .73498538 .33099366 .7369995 .33099366 .73999026 .33099366 .746994 .32699586 .75 .32099916 .75 .31098939 .75 .22099304 .6819916 .1619873 .5549927 .11099243 .44499208 .09899902 .33399964 .09899902 .25 .09899902 .17199707 .10998535 .050994874 .16499329-.06201172 .22499085-.18501282 .31098939-.25 .32099916-.25 .32699586-.25 .33099366-.24700928 .33099366-.2400055Z"/>
<path id="font_2_2" d="M.2889862 .25C.2889862 .32798768 .27799989 .44898988 .22299195 .56199648 .16299439 .68499758 .07699585 .75 .066986087 .75 .06098938 .75 .056991579 .74598696 .056991579 .73999026 .056991579 .7369995 .056991579 .73498538 .07598877 .71699526 .17399597 .6179962 .23098755 .45899964 .23098755 .25 .23098755 .07899475 .19400025-.09700012 .069992069-.2230072 .056991579-.23500061 .056991579-.23701477 .056991579-.2400055 .056991579-.2460022 .06098938-.25 .066986087-.25 .07699585-.25 .16699219-.18200684 .22599793-.055007936 .2769928 .054992677 .2889862 .16600037 .2889862 .25Z"/>
</defs>
<path transform="matrix(1.00005,0,0,-1.00002,16.74208,82.83042)" stroke-width="1.59404" stroke-linecap="butt" stroke-miterlimit="10" stroke-linejoin="miter" fill="none" stroke="#0000ff" d="M0 0H166.32735"/>
<path transform="matrix(1.00005,0,0,-1.00002,183.07773,82.83042)" d="M3.78581 0-2.27148 3.02866 0 0-2.27148-3.02866" fill="#0000ff"/>
<use data-text="&#x20d7;" xlink:href="#font_1_4" transform="matrix(9.963098,0,0,-9.962799,190.35776,86.389499)" fill="#0000ff"/>
<use data-text="a" xlink:href="#font_1_2" transform="matrix(9.963098,0,0,-9.962799,190.98543,86.389499)" fill="#0000ff"/>
<path transform="matrix(1.00005,0,0,-1.00002,16.74208,82.83042)" stroke-width="1.59404" stroke-linecap="butt" stroke-miterlimit="10" stroke-linejoin="miter" fill="none" stroke="#ff0000" d="M0 0 98.91803 65.94537"/>
<path transform="matrix(.8320615,-.55468109,-.5546977,-.8320367,115.665058,16.883744)" d="M3.78581 0-2.27148 3.02866 0 0-2.27148-3.02866" fill="#ff0000"/>
<use data-text="&#x20d7;" xlink:href="#font_1_4" transform="matrix(9.963098,0,0,-9.962799,121.81333,8.036926)" fill="#ff0000"/>
<use data-text="b" xlink:href="#font_1_3" transform="matrix(9.963098,0,0,-9.962799,122.93239,10.6659779)" fill="#ff0000"/>
<path transform="matrix(1.00005,0,0,-1.00002,16.74208,82.83042)" stroke-width=".79701" stroke-linecap="butt" stroke-dasharray="2.98883,2.98883" stroke-miterlimit="10" stroke-linejoin="miter" fill="none" stroke="#7f807f" d="M102.0679 68.04524V0"/>
<path transform="matrix(1.00005,0,0,-1.00002,16.74208,82.83042)" stroke-width=".79701" stroke-linecap="butt" stroke-miterlimit="10" stroke-linejoin="miter" fill="none" stroke="#7f807f" d="M102.04825 6.80309H95.24512V0"/>
<path transform="matrix(1.00005,0,0,-1.00002,16.74208,82.83042)" stroke-width="1.59404" stroke-linecap="butt" stroke-miterlimit="10" stroke-linejoin="miter" fill="none" stroke="#bf0040" d="M0 0H98.28207"/>
<path transform="matrix(1.00005,0,0,-1.00002,115.02905,82.83042)" d="M3.78581 0-2.27148 3.02866 0 0-2.27148-3.02866" fill="#bf0040"/>
<path transform="matrix(1.00005,0,0,-1.00002,16.74208,82.83042)" stroke-width=".79701" stroke-linecap="butt" stroke-miterlimit="10" stroke-linejoin="miter" fill="none" stroke="#000000" d="M20.40984 0C20.40984 4.02832 19.21548 7.96916 16.98131 11.32076"/>
<use data-text="&#x03b8;" xlink:href="#font_1_1" transform="matrix(9.963098,0,0,-9.962799,43.54242,77.33931)"/>
<use data-text="p" xlink:href="#font_2_8" transform="matrix(9.963098,0,0,-9.962799,53.381914,74.88226)" fill="#bf0040"/>
<use data-text="r" xlink:href="#font_2_9" transform="matrix(9.963098,0,0,-9.962799,58.91143,74.88226)" fill="#bf0040"/>
<use data-text="o" xlink:href="#font_2_7" transform="matrix(9.963098,0,0,-9.962799,62.807008,74.88226)" fill="#bf0040"/>
<use data-text="j" xlink:href="#font_2_5" transform="matrix(9.963098,0,0,-9.962799,68.336528,74.88226)" fill="#bf0040"/>
<use data-text="&#x20d7;" xlink:href="#font_3_2" transform="matrix(6.9741489,0,0,-6.97394,70.98179,77.31731)" fill="#bf0040"/>
<use data-text="a" xlink:href="#font_3_1" transform="matrix(6.9741489,0,0,-6.97394,71.40024,77.31731)" fill="#bf0040"/>
<use data-text="&#x20d7;" xlink:href="#font_1_4" transform="matrix(9.963098,0,0,-9.962799,76.75908,72.253208)" fill="#bf0040"/>
<use data-text="b" xlink:href="#font_1_3" transform="matrix(9.963098,0,0,-9.962799,77.878139,74.882259)" fill="#bf0040"/>
<use data-text="L" xlink:href="#font_4_71" transform="matrix(9.963098,0,0,-9.962799,1.217308,108.052928)" fill="#bf0040"/>
<use data-text="e" xlink:href="#font_4_50" transform="matrix(9.963098,0,0,-9.962799,7.4442446,108.052928)" fill="#bf0040"/>
<use data-text="n" xlink:href="#font_4_77" transform="matrix(9.963098,0,0,-9.962799,11.867859,108.052928)" fill="#bf0040"/>
<use data-text="g" xlink:href="#font_4_59" transform="matrix(9.963098,0,0,-9.962799,17.407341,108.052928)" fill="#bf0040"/>
<use data-text="t" xlink:href="#font_4_105" transform="matrix(9.963098,0,0,-9.962799,22.388894,108.052928)" fill="#bf0040"/>
<use data-text="h" xlink:href="#font_4_63" transform="matrix(9.963098,0,0,-9.962799,26.264534,108.052928)" fill="#bf0040"/>
<use data-text="=" xlink:href="#font_2_3" transform="matrix(9.963098,0,0,-9.962799,34.570978,108.052928)" fill="#bf0040"/>
<use data-text="c" xlink:href="#font_2_4" transform="matrix(9.963098,0,0,-9.962799,45.07209,108.052928)" fill="#bf0040"/>
<use data-text="o" xlink:href="#font_2_7" transform="matrix(9.963098,0,0,-9.962799,49.495706,108.052928)" fill="#bf0040"/>
<use data-text="m" xlink:href="#font_2_6" transform="matrix(9.963098,0,0,-9.962799,54.47724,108.052928)" fill="#bf0040"/>
<use data-text="p" xlink:href="#font_2_8" transform="matrix(9.963098,0,0,-9.962799,62.776514,108.052928)" fill="#bf0040"/>
<use data-text="&#x20d7;" xlink:href="#font_3_2" transform="matrix(6.9741489,0,0,-6.97394,67.91863,110.48797)" fill="#bf0040"/>
<use data-text="a" xlink:href="#font_3_1" transform="matrix(6.9741489,0,0,-6.97394,68.33709,110.48797)" fill="#bf0040"/>
<use data-text="&#x20d7;" xlink:href="#font_1_4" transform="matrix(9.963098,0,0,-9.962799,73.695919,105.42387)" fill="#bf0040"/>
<use data-text="b" xlink:href="#font_1_3" transform="matrix(9.963098,0,0,-9.962799,74.81597,108.05292)" fill="#bf0040"/>
<use data-text="=" xlink:href="#font_2_3" transform="matrix(9.963098,0,0,-9.962799,81.85833,108.05292)" fill="#bf0040"/>
<use data-text="&#x2225;" xlink:href="#font_5_1" transform="matrix(9.963098,0,0,-9.962799,92.37585,108.05292)" fill="#bf0040"/>
<use data-text="&#x20d7;" xlink:href="#font_1_4" transform="matrix(9.963098,0,0,-9.962799,96.238048,105.42387)" fill="#bf0040"/>
<use data-text="b" xlink:href="#font_1_3" transform="matrix(9.963098,0,0,-9.962799,97.35711,108.05292)" fill="#bf0040"/>
<use data-text="&#x2225;" xlink:href="#font_5_1" transform="matrix(9.963098,0,0,-9.962799,101.63332,108.05292)" fill="#bf0040"/>
<use data-text="c" xlink:href="#font_2_4" transform="matrix(9.963098,0,0,-9.962799,108.27465,108.05292)" fill="#bf0040"/>
<use data-text="o" xlink:href="#font_2_7" transform="matrix(9.963098,0,0,-9.962799,112.69828,108.05292)" fill="#bf0040"/>
<use data-text="s" xlink:href="#font_2_10" transform="matrix(9.963098,0,0,-9.962799,117.67982,108.05292)" fill="#bf0040"/>
<use data-text="(" xlink:href="#font_2_1" transform="matrix(9.963098,0,0,-9.962799,121.60528,108.05292)" fill="#bf0040"/>
<use data-text="&#x03b8;" xlink:href="#font_1_1" transform="matrix(9.963098,0,0,-9.962799,125.489528,108.05292)" fill="#bf0040"/>
<use data-text=")" xlink:href="#font_2_2" transform="matrix(9.963098,0,0,-9.962799,130.44278,108.05292)" fill="#bf0040"/>
</svg>
