<svg xmlns="http://www.w3.org/2000/svg" xmlns:xlink="http://www.w3.org/1999/xlink" xmlns:inkscape="http://www.inkscape.org/namespaces/inkscape" version="1.1" width="184" height="112" viewBox="0 0 184 112">
<defs>
<clipPath id="clip_1">
<path transform="matrix(1.00002,0,0,-1.00003,1.095665,87.50348)" d="M0 0H181.93727V96.9012H0Z"/>
</clipPath>
<path id="font_2_2" d="M.1329956 .08345032C.18699646 .14138794 .21598816 .16636658 .2519989 .19732666 .2519989 .19833374 .31399537 .25128175 .34999085 .2872467 .44499208 .3803711 .46699525 .42837525 .46699525 .43237306 .46699525 .4423828 .45799256 .4423828 .45599366 .4423828 .44898988 .4423828 .44599916 .44036866 .44099427 .43138124 .41099549 .38337709 .3899994 .3671875 .3659973 .3671875 .34199525 .3671875 .32998658 .38237 .31498719 .3993683 .29599 .42237855 .2789917 .4423828 .24598694 .4423828 .17098999 .4423828 .125 .34918214 .125 .3282013 .125 .3231964 .12799073 .31721498 .13699341 .31721498 .1459961 .31721498 .147995 .3222046 .1499939 .3282013 .16899109 .37434388 .22698975 .37538148 .23498535 .37538148 .2559967 .37538148 .2749939 .36820985 .2979889 .36018373 .33799745 .34518434 .34899903 .34518434 .375 .34518434 .33898927 .30223084 .25498963 .2303009 .23599243 .21430969L.1459961 .13040161C.07798767 .06341553 .042999269 .0062561037 .042999269-.00074768069 .042999269-.0107421879 .052993776-.0107421879 .054992677-.0107421879 .06298828-.0107421879 .06498718-.008743286 .070999149 .002243042 .09399414 .037246705 .12399292 .064453128 .1559906 .064453128 .1789856 .064453128 .18899536 .055252077 .21398926 .026245118 .23098755 .0052490236 .24899292-.0107421879 .27799989-.0107421879 .3769989-.0107421879 .43499757 .1164093 .43499757 .14338684 .43499757 .14837647 .43099977 .15338135 .4229889 .15338135 .4139862 .15338135 .4119873 .14738465 .40899659 .14039612 .38598634 .07543945 .32199098 .056243898 .2889862 .056243898 .2689972 .056243898 .25099183 .06239319 .22999573 .06944275 .19599915 .08244324 .18099976 .08644104 .1599884 .08644104 .1579895 .08644104 .14199829 .08644104 .1329956 .08345032Z"/>
<path id="font_3_3" d="M.68699648 .32714845C.70199587 .32714845 .72099307 .32714845 .72099307 .34713746 .72099307 .36714173 .70199587 .36714173 .6879883 .36714173H.08898926C.07499695 .36714173 .055999757 .36714173 .055999757 .34713746 .055999757 .32714845 .07499695 .32714845 .08999634 .32714845H.68699648M.6879883 .13284302C.70199587 .13284302 .72099307 .13284302 .72099307 .15284729 .72099307 .17285156 .70199587 .17285156 .68699648 .17285156H.08999634C.07499695 .17285156 .055999757 .17285156 .055999757 .15284729 .055999757 .13284302 .07499695 .13284302 .08898926 .13284302H.6879883Z"/>
<path id="font_4_1" d="M.6589966 .23046875C.6759949 .23046875 .69400027 .23046875 .69400027 .25045777 .69400027 .27046205 .6759949 .27046205 .6589966 .27046205H.117996219C.100997928 .27046205 .08299255 .27046205 .08299255 .25045777 .08299255 .23046875 .100997928 .23046875 .117996219 .23046875H.6589966Z"/>
<path id="font_3_2" d="M.1269989 .07699585 .23298645 .18003845C.3889923 .31811524 .44898988 .3721466 .44898988 .47216798 .44898988 .5860901 .35899354 .6660156 .23699951 .6660156 .12399292 .6660156 .049987794 .57411196 .049987794 .48516847 .049987794 .4291687 .099990848 .4291687 .102996829 .4291687 .11999512 .4291687 .15499878 .44117738 .15499878 .48217774 .15499878 .5081787 .13699341 .5341797 .101989749 .5341797 .09399414 .5341797 .09199524 .5341797 .08898926 .5331726 .11199951 .59806826 .1659851 .63500979 .22399903 .63500979 .31498719 .63500979 .35798646 .5541382 .35798646 .47216798 .35798646 .39215089 .30799867 .31311036 .25299073 .25108338L.06098938 .036987306C.049987794 .025985718 .049987794 .023986817 .049987794 0H.42099L.44898988 .17404175H.42399598C.4189911 .14402771 .4119873 .1000061 .4019928 .084991458 .394989 .07699585 .32899476 .07699585 .30699159 .07699585H.1269989Z"/>
<path id="font_2_1" d="M.19198609 .052993776C.19198609 .08198547 .16799927 .10598755 .13899231 .10598755 .10998535 .10598755 .085998538 .08198547 .085998538 .052993776 .085998538 .023986817 .10998535 0 .13899231 0 .16799927 0 .19198609 .023986817 .19198609 .052993776Z"/>
<path id="font_3_1" d="M.45999146 .31976319C.45999146 .39982606 .45498658 .47988893 .41999818 .5539398 .37399293 .65000918 .2919922 .6660156 .25 .6660156 .18998719 .6660156 .116989139 .64001467 .07598877 .54693606 .04399109 .47789 .038986207 .39982606 .038986207 .31976319 .038986207 .24472046 .042999269 .15464783 .083999637 .07859802 .1269989-.0024719239 .19999695-.022460938 .24899292-.022460938 .30299378-.022460938 .3789978-.0014648438 .4229889 .09359741 .45498658 .16265869 .45999146 .2407074 .45999146 .31976319M.24899292-.00047302247C.20999146-.00047302247 .15098572 .024551392 .1329956 .12062073 .12199402 .18066406 .12199402 .2727356 .12199402 .3317871 .12199402 .39582826 .12199402 .46188355 .12998963 .5159149 .14898682 .63500979 .22399903 .64401248 .24899292 .64401248 .28199769 .64401248 .34799195 .6259918 .36698915 .52693179 .3769989 .47088624 .3769989 .39482118 .3769989 .3317871 .3769989 .25672914 .3769989 .18867493 .3659973 .12461853 .35099793 .029556275 .2939911-.00047302247 .24899292-.00047302247Z"/>
</defs>
<path transform="matrix(1.00002,0,0,-1.00003,1.095665,87.50348)" stroke-width=".3985" stroke-linecap="butt" stroke-miterlimit="10" stroke-linejoin="miter" fill="none" stroke="#000000" d="M0 0H179.94475"/>
<path transform="matrix(1.00002,0,0,-1.00003,181.044,87.50348)" d="M1.99252 0-1.19551 1.59401 0 0-1.19551-1.59401"/>
<g clip-path="url(#clip_1)">
<path transform="matrix(1.00002,0,0,-1.00003,1.095665,87.50348)" d="M0 .0288 7.5807 .10341 15.1614 .33214 22.74213 .95433 30.32283 2.45398 37.90353 5.64662 45.48425 11.62625 53.06496 21.42262 60.64569 35.32637 68.2264 52.1167 75.8071 68.80481 83.38782 81.28159 90.96852 85.91043 98.54924 81.28159 106.12996 68.80481 113.71066 52.1167 121.29138 35.32637 128.87209 21.42262 136.4528 11.62625 144.03351 5.64674 151.61421 2.45404 159.19495 .95435 166.77565 .33214 174.35637 .10341 181.93708 .0288V0H0Z" fill="#e6e6ff"/>
<path transform="matrix(1.00002,0,0,-1.00003,1.095665,87.50348)" stroke-width=".79701" stroke-linecap="butt" stroke-miterlimit="10" stroke-linejoin="miter" fill="none" stroke="#0000ff" d="M0 .0288 1.8377 .03967 3.67543 .05428 5.51315 .07378 7.35088 .09964 9.1886 .13368 11.02632 .17819 12.86404 .23595 14.70177 .31042 16.53949 .40569 18.37721 .52682 20.21495 .67958 22.05267 .87097 23.89038 1.10901 25.7281 1.40288 27.56583 1.76314 29.40355 2.20145 31.24127 2.7308 33.079 3.36542 34.91672 4.1205 36.75444 5.01227 38.59218 6.0572 40.4299 7.27237 42.26762 8.67006 44.10535 10.27573 45.94305 12.0979 47.78078 14.15202 49.6185 16.44669 51.45622 18.98964 53.29395 21.78343 55.13167 24.82468 56.9694 28.10815 58.80713 31.61331 60.64485 35.32637 62.48257 39.20952 64.3203 43.24902 66.15802 47.38991 67.99574 51.58319 69.83345 55.79367 71.67117 59.944 73.5089 63.9921 75.34663 67.86752 77.18436 71.51184 79.02208 74.85376 80.8598 77.8443 82.69753 80.43106 84.53525 82.55305 86.37297 84.19481 88.21071 85.29446 90.04843 85.85287H91.88614L93.72386 85.30392 95.56158 84.19481 97.3993 82.5625 99.23703 80.43106 101.07475 77.8443 102.91249 74.86235 104.75021 71.51184 106.58794 67.87611 108.42566 64.00156 110.26338 59.95345 112.1011 55.80313 113.93883 51.59265 115.77654 47.39937 117.61426 43.25674 119.45198 39.21811 121.28972 35.32637 123.12744 31.61331 124.96516 28.10815 126.80289 24.83327 128.64061 21.79118 130.47834 18.99908 132.31606 16.45528 134.15378 14.1606 135.9915 12.10735 137.82921 10.27573 139.66695 8.6778 141.50467 7.2744 143.34239 6.0589 145.18012 5.01366 147.01784 4.12169 148.85556 3.36644 150.69329 2.73164 152.531 2.20215 154.36873 1.7637 156.20645 1.40338 158.04419 1.10939 159.88191 .87126 161.71962 .67982 163.55735 .52704 165.39507 .40588 167.23279 .31052 169.07051 .23605 170.90824 .17825 172.74596 .13374 174.58368 .09967 176.42142 .0738 178.25914 .0543 180.09687 .0397 181.93459 .02881"/>
<path transform="matrix(1.00002,0,0,-1.00003,1.095665,87.50348)" stroke-width=".79701" stroke-linecap="butt" stroke-dasharray="2.98883,2.98883" stroke-miterlimit="10" stroke-linejoin="miter" fill="none" stroke="#ff0000" d="M45.48431 0V11.62625"/>
<use data-text="z" xlink:href="#font_2_2" transform="matrix(9.962799,0,0,-9.962899,27.163186,71.527)" fill="#ff0000"/>
<use data-text="=" xlink:href="#font_3_3" transform="matrix(9.962799,0,0,-9.962899,35.002336,71.527)" fill="#ff0000"/>
<use data-text="&#x2212;" xlink:href="#font_4_1" transform="matrix(9.962799,0,0,-9.962899,45.518548,71.527)" fill="#ff0000"/>
<use data-text="2" xlink:href="#font_3_2" transform="matrix(9.962799,0,0,-9.962899,53.2677,71.527)" fill="#ff0000"/>
<use data-text="." xlink:href="#font_2_1" transform="matrix(9.962799,0,0,-9.962899,58.248804,71.527)" fill="#ff0000"/>
<use data-text="0" xlink:href="#font_3_1" transform="matrix(9.962799,0,0,-9.962899,61.01586,71.527)" fill="#ff0000"/>
<path transform="matrix(1.00002,0,0,-1.00003,1.095665,87.50348)" stroke-width=".3985" stroke-linecap="butt" stroke-dasharray="2.98883,2.98883" stroke-miterlimit="10" stroke-linejoin="miter" fill="none" stroke="#7f807f" d="M90.96863 0V85.91043"/>
<use data-text="0" xlink:href="#font_3_1" transform="matrix(9.962799,0,0,-9.962899,89.57543,97.44378)" fill="#7f807f"/>
</g>
<use data-text="z" xlink:href="#font_2_2" transform="matrix(9.962799,0,0,-9.962899,89.53043,110.257167)"/>
</svg>
