<svg xmlns="http://www.w3.org/2000/svg" xmlns:xlink="http://www.w3.org/1999/xlink" xmlns:inkscape="http://www.inkscape.org/namespaces/inkscape" version="1.1" width="255" height="103" viewBox="0 0 255 103">
<defs>
<path id="font_1_5" d="M.33399964 .30233766C.33999635 .32835389 .36299134 .42037965 .43299867 .42037965 .43798829 .42037965 .46199037 .42037965 .48298646 .40734864 .45498658 .402359 .43499757 .37734986 .43499757 .35334779 .43499757 .33735658 .44599916 .31835938 .47299195 .31835938 .49499513 .31835938 .5269928 .3363495 .5269928 .37635804 .5269928 .42837525 .46798707 .4423828 .43399049 .4423828 .37599183 .4423828 .34098817 .38935853 .32899476 .36634828 .3039856 .43237306 .25 .4423828 .22099304 .4423828 .116989139 .4423828 .05999756 .3133545 .05999756 .28834535 .05999756 .27833558 .069992069 .27833558 .07199097 .27833558 .07998657 .27833558 .08299255 .28033448 .084991458 .28933717 .11898804 .39535523 .18499756 .42037965 .21899414 .42037965 .23799134 .42037965 .272995 .4113617 .272995 .35334779 .272995 .32235719 .2559967 .25532533 .21899414 .11528015 .20298767 .053268434 .16799927 .011245728 .12399292 .011245728 .117996219 .011245728 .09498596 .011245728 .07398987 .024276734 .09899902 .029266358 .12098694 .05027771 .12098694 .07827759 .12098694 .105270389 .09899902 .11328125 .083999637 .11328125 .053985597 .11328125 .0289917 .08728027 .0289917 .055267335 .0289917 .009246826 .07899475-.0107421879 .12298584-.0107421879 .18899536-.0107421879 .22499085 .059280397 .22799683 .0652771 .23999024 .028274537 .27598573-.0107421879 .33599855-.0107421879 .43899537-.0107421879 .49598695 .118270877 .49598695 .14328003 .49598695 .1532898 .4869995 .1532898 .48399354 .1532898 .47499085 .1532898 .47299195 .14929199 .47099305 .14228821 .43798829 .03527832 .36999513 .011245728 .33799745 .011245728 .29899598 .011245728 .2829895 .043273927 .2829895 .07727051 .2829895 .09927368 .2889862 .121276859 .2999878 .16529846L.33399964 .30233766Z"/>
<path id="font_1_6" d="M.48599244 .38136292C.48999024 .39537049 .48999024 .39736939 .48999024 .40437318 .48999024 .42237855 .47599793 .43138124 .46099855 .43138124 .45098878 .43138124 .43499757 .42536927 .42599488 .41036988 .42399598 .405365 .41600038 .37435914 .4119873 .35635377 .40499879 .33035279 .397995 .30334474 .3919983 .27633668L.34700013 .09628296C.34298707 .08126831 .2999878 .011245728 .23399353 .011245728 .18299866 .011245728 .17199707 .055267335 .17199707 .0922699 .17199707 .1382904 .18899536 .20030213 .22299195 .28833009 .23899842 .3293457 .24299622 .3403473 .24299622 .36035157 .24299622 .405365 .21099854 .4423828 .16099549 .4423828 .06599426 .4423828 .0289917 .29733277 .0289917 .28833009 .0289917 .27833558 .038986207 .27833558 .040985109 .27833558 .050994874 .27833558 .051986696 .28033448 .056991579 .29634095 .083999637 .3903656 .12399292 .42037965 .1579895 .42037965 .1659851 .42037965 .18299866 .42037965 .18299866 .3883667 .18299866 .36335755 .17298889 .3373413 .1659851 .31834413 .12599182 .21231079 .10798645 .1552887 .10798645 .10827637 .10798645 .019256592 .17098999-.0107421879 .22999573-.0107421879 .2689972-.0107421879 .30299378 .0062561037 .33099366 .03425598 .31799317-.017745972 .30599977-.06674194 .2659912-.11973572 .23999024-.15385437 .20199585-.18309021 .1559906-.18309021 .14199829-.18309021 .09700012-.18005371 .07998657-.14074707 .09599304-.14074707 .10899353-.14074707 .12298584-.1287384 .1329956-.11973572 .14299011-.10673523 .14299011-.08773804 .14299011-.056747438 .115997318-.052734376 .10598755-.052734376 .08299255-.052734376 .049987794-.068740848 .049987794-.11773682 .049987794-.16796875 .09399414-.20507813 .1559906-.20507813 .25898744-.20507813 .3619995-.11373901 .3899994-.00074768069L.48599244 .38136292Z"/>
<path id="font_1_3" d="M.5159912 .68333438C.5159912 .6843262 .5159912 .69433596 .5029907 .69433596 .48799134 .69433596 .3929901 .68533328 .37599183 .68333438 .36799623 .6823273 .3619995 .6773224 .3619995 .6643219 .3619995 .6523285 .37098695 .6523285 .38598634 .6523285 .43399049 .6523285 .43598939 .6453247 .43598939 .6353302L.43299867 .6153412 .37298585 .37835694C.35499574 .41537477 .32598878 .4423828 .2809906 .4423828 .1639862 .4423828 .039993287 .29533387 .039993287 .14929199 .039993287 .055267335 .09498596-.0107421879 .17298889-.0107421879 .19299317-.0107421879 .24299622-.0067443849 .30299378 .06427002 .31098939 .022247315 .34599305-.0107421879 .3939972-.0107421879 .42900086-.0107421879 .45199586 .012252808 .46798707 .044265748 .4850006 .08027649 .49798585 .14129639 .49798585 .14329529 .49798585 .1532898 .4889984 .1532898 .48599244 .1532898 .47599793 .1532898 .47499085 .14929199 .47200013 .13528443 .45498658 .07026672 .43699647 .011245728 .3959961 .011245728 .36898805 .011245728 .3659973 .037261964 .3659973 .057266237 .3659973 .08126831 .36799623 .088272098 .37199403 .105285648L.5159912 .68333438M.30799867 .119277957C.30299378 .10127258 .30299378 .09927368 .28799439 .08227539 .24398804 .027252198 .20298767 .011245728 .1749878 .011245728 .125 .011245728 .11099243 .06626892 .11099243 .105285648 .11099243 .1552887 .14299011 .27833558 .1659851 .32434083 .19699097 .38336183 .24198914 .42037965 .28199769 .42037965 .34700013 .42037965 .36099244 .3383484 .36099244 .33235169 .36099244 .32633973 .35899354 .32034303 .35798646 .31533814L.30799867 .119277957Z"/>
<path id="font_1_4" d="M.08799744 .059265138C.084991458 .044265748 .07899475 .021255494 .07899475 .01625061 .07899475-.0017547608 .09298706-.0107421879 .10798645-.0107421879 .11999512-.0107421879 .13798523-.002746582 .14498902 .01725769 .14698792 .021255494 .18099976 .15730286 .18499756 .17530823 .19299317 .20831299 .21099854 .27833558 .21699524 .30534364 .22099304 .31835938 .24899292 .36535646 .272995 .38734437 .2809906 .39434815 .30999757 .42037965 .35299684 .42037965 .3789978 .42037965 .3939972 .4083557 .394989 .4083557 .36499024 .40335084 .34298707 .37934876 .34298707 .35334779 .34298707 .33735658 .35398866 .31835938 .3809967 .31835938 .4079895 .31835938 .43598939 .34135438 .43598939 .37734986 .43598939 .41235353 .4039917 .4423828 .35299684 .4423828 .28799439 .4423828 .24398804 .39335633 .22499085 .36535646 .21699524 .4103546 .18099976 .4423828 .13398743 .4423828 .08799744 .4423828 .068984989 .40335084 .05999756 .38534547 .041992189 .35134889 .0289917 .29133607 .0289917 .28834535 .0289917 .27833558 .038986207 .27833558 .040985109 .27833558 .050994874 .27833558 .051986696 .27934266 .057998659 .30134584 .07499695 .37234498 .09498596 .42037965 .1309967 .42037965 .147995 .42037965 .1619873 .41235353 .1619873 .37435914 .1619873 .35334779 .15899658 .3423462 .1459961 .29034425L.08799744 .059265138Z"/>
<path id="font_2_2" d="M.68699648 .32714845C.70199587 .32714845 .72099307 .32714845 .72099307 .34713746 .72099307 .36714173 .70199587 .36714173 .6879883 .36714173H.08898926C.07499695 .36714173 .055999757 .36714173 .055999757 .34713746 .055999757 .32714845 .07499695 .32714845 .08999634 .32714845H.68699648M.6879883 .13284302C.70199587 .13284302 .72099307 .13284302 .72099307 .15284729 .72099307 .17285156 .70199587 .17285156 .68699648 .17285156H.08999634C.07499695 .17285156 .055999757 .17285156 .055999757 .15284729 .055999757 .13284302 .07499695 .13284302 .08898926 .13284302H.6879883Z"/>
<path id="font_1_2" d="M.37298585 .37835694C.35499574 .41537477 .32598878 .4423828 .2809906 .4423828 .1639862 .4423828 .039993287 .29533387 .039993287 .14929199 .039993287 .055267335 .09498596-.0107421879 .17298889-.0107421879 .19299317-.0107421879 .24299622-.0067443849 .30299378 .06427002 .31098939 .022247315 .34599305-.0107421879 .3939972-.0107421879 .42900086-.0107421879 .45199586 .012252808 .46798707 .044265748 .4850006 .08027649 .49798585 .14129639 .49798585 .14329529 .49798585 .1532898 .4889984 .1532898 .48599244 .1532898 .47599793 .1532898 .47499085 .14929199 .47200013 .13528443 .45498658 .07026672 .43699647 .011245728 .3959961 .011245728 .36898805 .011245728 .3659973 .037261964 .3659973 .057266237 .3659973 .07926941 .36799623 .08728027 .3789978 .13128662 .3899994 .17329407 .3919983 .18330384 .40098573 .22131348L.43699647 .36135865C.44400025 .38935853 .44400025 .39135743 .44400025 .39537049 .44400025 .41236878 .43199159 .42237855 .4149933 .42237855 .3909912 .42237855 .37599183 .4003601 .37298585 .37835694M.30799867 .119277957C.30299378 .10127258 .30299378 .09927368 .28799439 .08227539 .24398804 .027252198 .20298767 .011245728 .1749878 .011245728 .125 .011245728 .11099243 .06626892 .11099243 .105285648 .11099243 .1552887 .14299011 .27833558 .1659851 .32434083 .19699097 .38336183 .24198914 .42037965 .28199769 .42037965 .34700013 .42037965 .36099244 .3383484 .36099244 .33235169 .36099244 .32633973 .35899354 .32034303 .35798646 .31533814L.30799867 .119277957Z"/>
<path id="font_2_1" d="M.1269989 .07699585 .23298645 .18003845C.3889923 .31811524 .44898988 .3721466 .44898988 .47216798 .44898988 .5860901 .35899354 .6660156 .23699951 .6660156 .12399292 .6660156 .049987794 .57411196 .049987794 .48516847 .049987794 .4291687 .099990848 .4291687 .102996829 .4291687 .11999512 .4291687 .15499878 .44117738 .15499878 .48217774 .15499878 .5081787 .13699341 .5341797 .101989749 .5341797 .09399414 .5341797 .09199524 .5341797 .08898926 .5331726 .11199951 .59806826 .1659851 .63500979 .22399903 .63500979 .31498719 .63500979 .35798646 .5541382 .35798646 .47216798 .35798646 .39215089 .30799867 .31311036 .25299073 .25108338L.06098938 .036987306C.049987794 .025985718 .049987794 .023986817 .049987794 0H.42099L.44898988 .17404175H.42399598C.4189911 .14402771 .4119873 .1000061 .4019928 .084991458 .394989 .07699585 .32899476 .07699585 .30699159 .07699585H.1269989Z"/>
<path id="font_2_5" d="M.20799256 .19424439C.22999573 .19024658 .31199647 .17424011 .31199647 .102249149 .31199647 .051254274 .2769928 .011245728 .19898987 .011245728 .114990238 .011245728 .07899475 .06825256 .05999756 .15324402 .056991579 .1662445 .055999757 .17024231 .04598999 .17024231 .032989503 .17024231 .032989503 .16323853 .032989503 .14524842V.013244629C.032989503-.003753662 .032989503-.0107421879 .04399109-.0107421879 .04899597-.0107421879 .049987794-.009750366 .068984989 .009246826 .070999149 .011245728 .070999149 .013244629 .08898926 .03224182 .1329956-.009750366 .17799378-.0107421879 .19898987-.0107421879 .31399537-.0107421879 .3600006 .056243898 .3600006 .12825012 .3600006 .1812439 .32998658 .21124268 .31799317 .22323609 .2849884 .25523377 .24598694 .26324464 .20399475 .27124024 .147995 .28224183 .08099365 .2952423 .08099365 .35324098 .08099365 .38822938 .10699463 .42922975 .19299317 .42922975 .30299378 .42922975 .30799867 .3392334 .30999757 .3082428 .31098939 .2992401 .31999208 .2992401 .32199098 .2992401 .33499146 .2992401 .33499146 .304245 .33499146 .3232422V.4242401C.33499146 .4412384 .33499146 .4482422 .32398988 .4482422 .31900025 .4482422 .31698609 .4482422 .3039856 .43623353 .30099488 .43223573 .29100038 .42323304 .2869873 .42022706 .24899292 .4482422 .20799256 .4482422 .19299317 .4482422 .070999149 .4482422 .032989503 .38124085 .032989503 .3252411 .032989503 .29023744 .04899597 .26223756 .07598877 .24023438 .10798645 .21424866 .13598633 .2082367 .20799256 .19424439Z"/>
<path id="font_2_3" d="M.1769867 .4423828 .036987306 .43138124V.40037538C.101989749 .40037538 .11099243 .3943634 .11099243 .34532167V.076034549C.11099243 .0309906 .099990848 .0309906 .032989503 .0309906V0C.06498718 .0009918213 .11898804 .0029907227 .14299011 .0029907227 .17799378 .0029907227 .21299744 .0009918213 .24699402 0V.0309906C.18099976 .0309906 .1769867 .035995485 .1769867 .075042728V.4423828M.18099976 .6159363C.18099976 .64793398 .1559906 .6689453 .12799073 .6689453 .09700012 .6689453 .07499695 .64193728 .07499695 .6159363 .07499695 .5889435 .09700012 .5629425 .12799073 .5629425 .1559906 .5629425 .18099976 .5839386 .18099976 .6159363Z"/>
<path id="font_2_4" d="M.10998535 .34429933V.076034549C.10998535 .0309906 .09899902 .0309906 .03199768 .0309906V0C.066986087 .0009918213 .117996219 .0029907227 .14498902 .0029907227 .17098999 .0029907227 .22299195 .0009918213 .25698854 0V.0309906C.18998719 .0309906 .1789856 .0309906 .1789856 .076034549V.2602234C.1789856 .36431886 .25 .42037965 .31399537 .42037965 .3769989 .42037965 .3880005 .36631776 .3880005 .30926515V.076034549C.3880005 .0309906 .3769989 .0309906 .30999757 .0309906V0C.34498597 .0009918213 .3959961 .0029907227 .4229889 .0029907227 .44898988 .0029907227 .5009918 .0009918213 .5349884 0V.0309906C.48298646 .0309906 .45799256 .0309906 .45700074 .061019899V.25221253C.45700074 .3383026 .45700074 .36932374 .42599488 .405365 .4119873 .42237855 .3789978 .4423828 .32099916 .4423828 .24798584 .4423828 .20098877 .39935304 .17298889 .33729554V.4423828L.03199768 .43138124V.40037538C.101989749 .4003601 .10998535 .39335633 .10998535 .34429933Z"/>
<path id="font_1_1" d="M.45498658 .5001831C.45498658 .56614688 .43699647 .7050781 .33499146 .7050781 .19599915 .7050781 .041992189 .42323304 .041992189 .19425965 .041992189 .100250247 .070999149-.0107421879 .1619873-.0107421879 .30299378-.0107421879 .45498658 .27627564 .45498658 .5001831M.147995 .36328126C.16499329 .42723084 .18499756 .5071869 .22499085 .57814028 .2519989 .6271057 .2889862 .68307498 .33399964 .68307498 .3829956 .68307498 .3889923 .6191101 .3889923 .56214907 .3889923 .5131836 .3809967 .46220399 .35699464 .36328126H.147995M.34799195 .3312683C.33699037 .28527833 .31599427 .2002716 .27799989 .12826538 .24299622 .060256959 .20498657 .011245728 .1619873 .011245728 .1289978 .011245728 .10798645 .040252687 .10798645 .133255 .10798645 .17526245 .11399841 .23326111 .13999939 .3312683H.34799195Z"/>
<path id="font_3_1" d="M.46598817 .49519349C.46598817 .5981293 .43199159 .7050781 .33999635 .7050781 .19400025 .7050781 .040985109 .4202423 .040985109 .19825745 .040985109 .12625122 .06298828-.0107421879 .16699219-.0107421879 .31298829-.0107421879 .46598817 .27127076 .46598817 .49519349M.1499939 .36328126C.16999817 .44223023 .19099427 .5151825 .23199463 .58413699 .2559967 .62409976 .29299928 .68006899 .33898927 .68006899 .3929901 .68006899 .39698792 .59413149 .39698792 .55615237 .39698792 .4961853 .3809967 .426239 .3659973 .36328126H.1499939M.35699464 .3312683C.34098817 .26826478 .32199098 .19326782 .28199769 .12225342 .2559967 .07525635 .21598816 .014251709 .16799927 .014251709 .125 .014251709 .11099243 .06625366 .11099243 .13926697 .11099243 .20326233 .1269989 .26826478 .14199829 .3312683H.35699464Z"/>
<path id="font_4_1" d="M.70799258 .3310089C.7220001 .3310089 .7409973 .3310089 .7409973 .35202027 .7409973 .37402345 .71899417 .37402345 .70399478 .37402345H.09399414C.07899475 .37402345 .056991579 .37402345 .056991579 .35202027 .056991579 .3310089 .07699585 .3310089 .08999634 .3310089H.70799258M.70399478 .12695313C.71899417 .12695313 .7409973 .12695313 .7409973 .14894104 .7409973 .1699524 .7220001 .1699524 .70799258 .1699524H.08999634C.07699585 .1699524 .056991579 .1699524 .056991579 .14894104 .056991579 .12695313 .07899475 .12695313 .09399414 .12695313H.70399478Z"/>
<path id="font_5_1" d="M.33999635 .35964967H.46299745C.44198609 .2718048 .42900086 .20690918 .42900086 .14201355 .42900086 .09109497 .44299317-.009765625 .48999024-.009765625 .5159912-.009765625 .5389862 .014221191 .5389862 .03617859 .5389862 .045166017 .5339966 .05316162 .5319977 .058151246 .49499513 .1240387 .4889984 .1879425 .4889984 .23886109 .4889984 .25482179 .4889984 .29875184 .5019989 .35964967H.6339874C.6459961 .35964967 .68899539 .35964967 .68899539 .40065003 .68899539 .43066407 .6609955 .43066407 .6439972 .43066407H.24598694C.22599793 .43066407 .18099976 .43066407 .1269989 .380661 .09599304 .3516693 .05999756 .30374146 .05999756 .2937622 .05999756 .27978517 .07398987 .27978517 .07798767 .27978517 .08898926 .27978517 .09098816 .28178407 .09799194 .29077149 .114990238 .31472779 .1539917 .35964967 .23599243 .35964967H.30099488C.2669983 .2358551 .19898987 .10107422 .18598938 .07511902 .1769867 .059143068 .1639862 .034194948 .1639862 .02420044 .1639862 .0032196046 .17999268-.009765625 .19999695-.009765625 .23498535-.009765625 .24699402 .02520752 .2579956 .057144166 .27799989 .12004089 .27799989 .122039798 .2919922 .1759491L.33999635 .35964967Z"/>
<path id="font_6_2" d="M.16299439 .33073426C.1639862 .38076783 .1659851 .46383668 .20098877 .52589419 .24499512 .60191348 .31098939 .6320343 .37098695 .6320343 .3939972 .6320343 .43998719 .62802127 .46398927 .5998993 .4269867 .5939026 .42099 .5679016 .42099 .55189517 .42099 .52589419 .43899537 .50390627 .46899415 .50390627 .49899293 .50390627 .5179901 .52290347 .5179901 .55389407 .5179901 .6149597 .47200013 .66503909 .36999513 .66503909 .21499634 .66503909 .06298828 .52989199 .06298828 .31672669 .06298828 .07354736 .17599488-.021484375 .30799867-.021484375 .34700013-.021484375 .4149933-.015487671 .47599793 .043533327 .5079956 .075546268 .5469971 .11558533 .5469971 .2036438 .5469971 .2376709 .54299929 .30171205 .48199464 .3587494 .44699098 .3907776 .40299989 .42578126 .31799317 .42578126 .24798584 .42578126 .19699097 .3897705 .16299439 .33073426M.30699159 .014511108C.1659851 .014511108 .1659851 .18663025 .1659851 .22566223 .1659851 .3117218 .22299195 .3937683 .31298829 .3937683 .36499024 .3937683 .394989 .37275697 .4189911 .34074403 .44699098 .30171205 .44699098 .25668336 .44699098 .2036438 .44699098 .13459778 .44499208 .10057068 .41099549 .060546876 .3869934 .030517579 .35499574 .014511108 .30699159 .014511108Z"/>
<path id="font_6_1" d="M.16999817 .5549774C.20298767 .54599 .23799134 .5419922 .27198792 .5419922 .2939911 .5419922 .34999085 .5419922 .41299439 .5769806 .42999269 .58699038 .49198915 .6279907 .49198915 .6490326 .49198915 .6620331 .48199464 .66503909 .47799684 .66503909 .47499085 .66503909 .47399903 .66503909 .46299745 .661026 .4269867 .6470337 .37599183 .63298037 .31098939 .63298037 .2619934 .63298037 .20799256 .64201357 .16299439 .6590271 .15299988 .6630249 .14898682 .66503909 .14498902 .66503909 .1309967 .66503909 .1309967 .6540375 .1309967 .6380005V.33787538C.1309967 .32086183 .1309967 .30885316 .14898682 .30885316 .1579895 .30885316 .16099549 .31285096 .16799927 .32086183 .19299317 .35289 .23699951 .38693238 .31498719 .38693238 .43798829 .38693238 .43798829 .23677063 .43798829 .20472718 .43798829 .16567993 .43499757 .10961914 .4019928 .068573 .37098695 .030532837 .32499696 .014511108 .28199769 .014511108 .21299744 .014511108 .14399719 .05255127 .11999512 .11061096 .16899109 .11161804 .1749878 .15066529 .1749878 .16267395 .1749878 .18971253 .1539917 .21372986 .12298584 .21372986 .11399841 .21372986 .07199097 .20872498 .07199097 .15867615 .07199097 .0665741 .15899658-.021484375 .2849884-.021484375 .42199708-.021484375 .5379944 .07557678 .5379944 .20072937 .5379944 .31484986 .44599916 .4189453 .31698609 .4189453 .2519989 .4189453 .20199585 .39793397 .16999817 .37091065V.5549774Z"/>
<path id="font_3_2" d="M.3809967 .6125946C.3869934 .63760378 .3899994 .6476135 .4079895 .65060427 .4169922 .6516113 .44999696 .6516113 .47099305 .6516113 .5499878 .6516113 .6599884 .6516113 .6599884 .5505829 .6599884 .51356509 .644989 .4385376 .58799746 .39552308 .56399539 .3795166 .5139923 .35351563 .43299867 .35351563H.31599427L.3809967 .6125946M.5359955 .33850099C.6719971 .3735199 .7559967 .44953919 .7559967 .53157046 .7559967 .61860659 .6609955 .6826172 .5279999 .6826172H.23799134C.21998596 .6826172 .20799256 .6826172 .20799256 .6646118 .20799256 .6516113 .21699524 .6516113 .23799134 .6516113 .24198914 .6516113 .2599945 .6516113 .27598573 .6496124 .29299928 .6476135 .2999878 .6456146 .2999878 .6345978 .2999878 .62960818 .29899598 .6255951 .29599 .6145935L.16099549 .075531009C.1519928 .039535524 .1499939 .030532837 .07499695 .030532837 .055999757 .030532837 .04499817 .030532837 .04499817 .012527466 .04499817 .0015258789 .052993776-.00047302247 .05999756-.00047302247 .07598877-.00047302247 .10598755 .0005340576 .12298584 .0015258789 .14399719 .002532959 .1459961 .002532959 .18499756 .002532959 .21699524 .002532959 .21899414 .002532959 .24899292 .0015258789 .2689972 .0005340576 .2939911-.00047302247 .31298829-.00047302247 .31999208-.00047302247 .33299256-.00047302247 .33299256 .017532349 .33299256 .030532837 .32299806 .030532837 .3019867 .030532837 .2979889 .030532837 .27999879 .030532837 .2639923 .03253174 .24198914 .03552246 .24099732 .039535524 .24099732 .04852295 .24099732 .05152893 .24099732 .053527833 .24598694 .0715332L.30999757 .32850648H.43299867C.522995 .32850648 .54599 .27650453 .54599 .23851013 .54599 .2315216 .54599 .22451782 .5399933 .20251465 .5159912 .11051941 .5159912 .10151672 .5159912 .08653259 .5159912-.0034637452 .6009979-.022460938 .6519928-.022460938 .7389984-.022460938 .7749939 .07852173 .7749939 .0945282 .7749939 .10151672 .7689972 .10652161 .7619934 .10652161 .7509918 .10652161 .75 .10151672 .74598696 .089523319 .72898867 .037521364 .69200137 .002532959 .6549988 .002532959 .61698916 .002532959 .61499026 .03253174 .61499026 .061523439 .61499026 .08653259 .621994 .14451599 .6230011 .15151978 .625 .16752625 .6299896 .20751953 .6299896 .22251892 .6299896 .2795105 .59399417 .31851197 .5359955 .33850099Z"/>
</defs>
<path transform="matrix(1.00008,0,0,-1.00002,126.02963,73.0662)" d="M49.09825 14.17339 50.98325 15.94981 52.61131 17.78854 53.97554 19.68047 55.069 21.61693 55.88478 23.58716 56.41939 25.58157 56.66853 27.58943 56.63133 29.60072 56.30952 31.6051 55.7057 33.59521 54.82072 35.55807 53.6572 37.48416 52.22551 39.36397 50.52995 41.18842 48.58093 42.94841 46.38797 44.63445 43.95798 46.23917 41.30824 47.75304 38.45088 49.17003 35.40149 50.48236 32.16872 51.68135 28.77762 52.7653 25.23944 53.72293 21.57585 54.5547 17.80325 55.25629 13.94156 55.82117 10.00804 56.24464 6.02351 56.52924 2.01129 56.67458H-2.00955L-6.02351 56.52924-10.00632 56.24464-13.93982 55.81946-17.80238 55.25455-21.57672 54.55643-25.23944 53.72293-28.77588 52.7653-32.16872 51.68135-35.39804 50.48236-38.44916 49.17003-41.30737 47.75435-43.95798 46.23917-46.3871 44.63618-48.58093 42.94841-50.52995 41.18842-52.22551 39.36397-53.6572 37.48546-54.81985 35.55937-55.7057 33.5965-56.3078 31.6051-56.63133 29.60072-56.66766 27.58943-56.41766 25.58157-55.88478 23.58844-55.069 21.6178-53.97641 19.68132-52.61131 17.78854-50.98325 15.94981-49.09564 14.17252-49.09825 14.17339-48.06017 15.03543-46.96239 15.87846-45.80577 16.70157-44.59122 17.50394-43.3204 18.28423-41.9951 19.04161-40.61705 19.77475-39.18707 20.48282-37.70865 21.16493-36.18266 21.82109-34.61082 22.44957-32.99486 23.0495-31.33823 23.62045-29.64183 24.16156-27.9082 24.67238-26.14 25.15207-24.33717 25.60019-22.50494 26.01585-20.64415 26.39908-18.75829 26.749-16.84648 27.06476-14.91476 27.3472-12.964 27.59418-10.9977 27.80698-9.01668 27.9852-7.02527 28.12793-5.02435 28.23434-3.01651 28.3057-1.00607 28.34204H1.0052L3.01651 28.3057 5.02348 28.23434 7.0244 28.1275 9.01668 27.98477 10.9977 27.80742 12.964 27.59418 14.9139 27.3472 16.84648 27.06476 18.75658 26.749 20.64331 26.39908 22.50407 26.01628 24.33717 25.60019 26.13913 25.1525 27.9082 24.67238 29.64183 24.16156 31.33823 23.62045 32.99399 23.04993 34.60995 22.45 36.1818 21.82152 37.70778 21.16493 39.18707 20.48282 40.61618 19.77475 41.99425 19.04161 43.31953 18.28465 44.59035 17.50436 45.8049 16.70201 46.96239 15.87846 48.06017 15.03543 49.09738 14.17296Z" fill="#d9d9ff"/>
<path transform="matrix(1.00008,0,0,-1.00002,126.02963,73.0662)" stroke-width=".79701" stroke-linecap="butt" stroke-miterlimit="10" stroke-linejoin="miter" fill="none" stroke="#000000" d="M-124.72581 0H120.06334"/>
<path transform="matrix(1.00008,0,0,-1.00002,246.10257,73.0662)" d="M4.66248 0C3.28098 .25902 1.0361 1.0361-.51805 1.94269V-1.94269C1.0361-1.0361 3.28098-.25902 4.66248 0"/>
<use data-text="x" xlink:href="#font_1_5" transform="matrix(9.963397,0,0,-9.962799,247.91838,81.07536)"/>
<path transform="matrix(1.00008,0,0,-1.00002,126.02963,73.0662)" stroke-width=".79701" stroke-linecap="butt" stroke-miterlimit="10" stroke-linejoin="miter" fill="none" stroke="#000000" d="M0-8.50412V63.36969"/>
<path transform="matrix(0,-1.00002,-1.00008,-0,126.02963,9.69524)" d="M4.66248 0C3.28098 .25902 1.0361 1.0361-.51805 1.94269V-1.94269C1.0361-1.0361 3.28098-.25902 4.66248 0"/>
<use data-text="y" xlink:href="#font_1_6" transform="matrix(9.963397,0,0,-9.962799,117.06792,6.2088625)"/>
<path transform="matrix(1.00008,0,0,-1.00002,126.02963,73.0662)" stroke-width=".79701" stroke-linecap="butt" stroke-miterlimit="10" stroke-linejoin="miter" fill="none" stroke="#0000cc" d="M0 0 6.02351 .16045 11.9813 .64015 17.80325 1.43384 23.42366 2.53249 28.77847 3.92397 33.8063 5.5914 38.45088 7.51706 42.6595 9.67845 46.38623 12.05136 49.58789 14.60982 52.22551 17.32227 54.27574 20.16145 55.7057 23.09189 56.50763 26.08289 56.66594 29.09767 56.18842 32.10684 55.069 35.0719 53.32848 37.96124 50.98325 40.74118 48.05843 43.38008 44.58774 45.84772 40.61359 48.11897 36.18092 50.16617 31.33478 51.9625 26.13568 53.49585 20.64244 54.74156 14.91476 55.68925 9.01581 56.32552 3.0139 56.6469H-3.01564L-9.01581 56.32552-14.91302 55.68925-20.6407 54.74156-26.13568 53.49757-31.33565 51.96423-36.18092 50.16617-40.61359 48.11897-44.58774 45.84772-48.05843 43.38008-50.98152 40.74118-53.3276 37.95952-55.06815 35.07059-56.18842 32.10684-56.66766 29.09898-56.50676 26.08289-55.70485 23.09189-54.27313 20.16145-52.22551 17.32227-49.58789 14.60982-46.38623 12.05136-42.6595 9.67845-38.45088 7.51706-33.8063 5.5914-28.77675 3.92354-23.42279 2.53249-17.80412 1.43428-11.9813 .64015-6.02351 .16045 0 0"/>
<path transform="matrix(1.00008,0,0,-1.00002,126.02963,73.0662)" stroke-width=".79701" stroke-linecap="butt" stroke-miterlimit="10" stroke-linejoin="miter" fill="none" stroke="#0000cc" d="M49.09825 14.17339 47.50478 15.47014 45.77463 16.72234 43.913 17.92651 41.92505 19.07924 39.81598 20.17746 37.59274 21.21683 35.2605 22.19481 32.82704 23.10919 30.29929 23.9574 27.68414 24.73596 24.98857 25.44316 22.22119 26.07727 19.3898 26.63698 16.50218 27.1184 13.56612 27.52238 10.59196 27.84636 7.58844 28.0903 4.56152 28.25337 1.52078 28.33511H-1.52165L-4.56067 28.25337-7.58757 28.0903-10.59283 27.84636-13.56612 27.52238-16.50218 27.1184-19.38895 26.63698-22.22032 26.0777-24.98772 25.44316-27.68414 24.73596-30.29842 23.95697-32.82704 23.10963-35.2605 22.19481-37.59274 21.2164-39.81598 20.17702-41.92418 19.07967-43.913 17.92696-45.7755 16.72234-47.5039 15.47014-49.09738 14.17296"/>
<path transform="matrix(1.00008,0,0,-1.00002,126.02963,73.0662)" stroke-width=".3985" stroke-linecap="butt" stroke-dasharray="2.98883,2.98883" stroke-miterlimit="10" stroke-linejoin="miter" fill="none" stroke="#7f807f" d="M56.69363 0 56.37096 3.01262 55.41072 5.9915 53.82243 8.90248 51.62427 11.71225 48.84132 14.39009 45.50731 16.90443 41.65514 19.22717 37.33234 21.33232 32.58568 23.19571 27.47049 24.7961 22.04213 26.11534 16.3655 27.13829 10.50374 27.85457 4.5226 28.25467-1.50868 28.33511-7.52356 28.09464-13.45279 27.53622-19.23149 26.66508-24.79134 25.49161-30.07004 24.03006-35.00789 22.29515-39.54868 20.30852-43.64134 18.09132-47.24094 15.66911-50.30415 13.06956-52.79819 10.32207-54.69356 7.45737-55.96956 4.50876-56.61143 1.50824V-1.50824L-55.96956-4.50832-54.69356-7.45737-52.79819-10.32164-50.30502-13.06912-47.24094-15.66911-43.64221-18.09132-39.54953-20.30807-35.00874-22.29515-30.0709-24.03006-24.7922-25.49161-19.23236-26.66508-13.45366-27.5358-7.52443-28.09464-1.50868-28.33511 4.5226-28.2551 10.50374-27.855 16.36464-27.13872 22.04213-26.11534 27.47049-24.79652 32.58481-23.19571 37.3315-21.33232 41.65427-19.22717 45.5056-16.90443 48.84132-14.39009 51.62427-11.71268 53.82243-8.90248 55.41072-5.99193 56.37096-3.01305 56.69276 0"/>
<path transform="matrix(1.00008,0,0,-1.00002,126.02963,73.0662)" stroke-width=".79701" stroke-linecap="butt" stroke-dasharray=".79701,1.99255" stroke-miterlimit="10" stroke-linejoin="miter" fill="none" stroke="#7f807f" d="M0 0 98.19305 28.3468"/>
<path transform="matrix(1.00008,0,0,-1.00002,126.02963,73.0662)" stroke-width=".79701" stroke-linecap="butt" stroke-dasharray=".79701,1.99255" stroke-miterlimit="10" stroke-linejoin="miter" fill="none" stroke="#7f807f" d="M0 0-98.19305 28.3468"/>
<path transform="matrix(1.00008,0,0,-1.00002,126.02963,73.0662)" stroke-width=".79701" stroke-linecap="butt" stroke-miterlimit="10" stroke-linejoin="miter" fill="none" stroke="#ff0000" d="M19.38895 26.64606 33.71034 46.31934"/>
<path transform="matrix(.5885671,-.8084762,-.80852469,-.5885318,159.74268,26.745934)" d="M4.66248 0C3.28098 .25902 1.0361 1.0361-.51805 1.94269V-1.94269C1.0361-1.0361 3.28098-.25902 4.66248 0" fill="#ff0000"/>
<use data-text="d" xlink:href="#font_1_3" transform="matrix(9.963397,0,0,-9.962799,157.67316,38.1575)" fill="#ff0000"/>
<use data-text="r" xlink:href="#font_1_4" transform="matrix(9.963397,0,0,-9.962799,162.85416,38.1575)" fill="#ff0000"/>
<use data-text="r" xlink:href="#font_1_4" transform="matrix(9.963397,0,0,-9.962799,169.63512,55.16984)" fill="#000099"/>
<use data-text="=" xlink:href="#font_2_2" transform="matrix(9.963397,0,0,-9.962799,177.17473,55.16984)" fill="#000099"/>
<use data-text="a" xlink:href="#font_1_2" transform="matrix(9.963397,0,0,-9.962799,187.69158,55.16984)" fill="#000099"/>
<use data-text="r" xlink:href="#font_1_4" transform="matrix(9.963397,0,0,-9.962799,101.62268,12.851994)" fill="#000099"/>
<use data-text="=" xlink:href="#font_2_2" transform="matrix(9.963397,0,0,-9.962799,109.16229,12.851994)" fill="#000099"/>
<use data-text="2" xlink:href="#font_2_1" transform="matrix(9.963397,0,0,-9.962799,119.66371,12.851994)" fill="#000099"/>
<use data-text="a" xlink:href="#font_1_2" transform="matrix(9.963397,0,0,-9.962799,124.66153,12.851994)" fill="#000099"/>
<use data-text="s" xlink:href="#font_2_5" transform="matrix(9.963397,0,0,-9.962799,131.58809,12.851994)" fill="#000099"/>
<use data-text="i" xlink:href="#font_2_3" transform="matrix(9.963397,0,0,-9.962799,135.51366,12.851994)" fill="#000099"/>
<use data-text="n" xlink:href="#font_2_4" transform="matrix(9.963397,0,0,-9.962799,138.27353,12.851994)" fill="#000099"/>
<use data-text="&#x03b8;" xlink:href="#font_1_1" transform="matrix(9.963397,0,0,-9.962799,145.48119,12.851994)" fill="#000099"/>
<use data-text="&#x03b8;" xlink:href="#font_3_1" transform="matrix(8.967117,0,0,-8.966579,208.0762,51.990777)"/>
<use data-text="=" xlink:href="#font_4_1" transform="matrix(8.967117,0,0,-8.966579,215.20679,51.990777)"/>
<use data-text="&#x03c0;" xlink:href="#font_5_1" transform="matrix(5.9780786,0,0,-5.97772,226.13065,48.316705)"/>
<path transform="matrix(1.00008,0,0,-1.00002,.04056549,-8.077425)" stroke-width=".3786" stroke-linecap="butt" stroke-miterlimit="10" stroke-linejoin="miter" fill="none" stroke="#000000" d="M226.072-57.825H230.63"/>
<use data-text="6" xlink:href="#font_6_2" transform="matrix(5.9780786,0,0,-5.97772,226.58368,55.032838)"/>
<use data-text="&#x03b8;" xlink:href="#font_3_1" transform="matrix(8.967117,0,0,-8.966579,16.520874,52.62979)"/>
<use data-text="=" xlink:href="#font_4_1" transform="matrix(8.967117,0,0,-8.966579,23.651459,52.62979)"/>
<use data-text="5" xlink:href="#font_6_1" transform="matrix(5.9780786,0,0,-5.97772,34.575334,48.95572)"/>
<use data-text="&#x03c0;" xlink:href="#font_5_1" transform="matrix(5.9780786,0,0,-5.97772,38.228624,48.95572)"/>
<path transform="matrix(1.00008,0,0,-1.00002,-191.51476,-7.4384138)" stroke-width=".3786" stroke-linecap="butt" stroke-miterlimit="10" stroke-linejoin="miter" fill="none" stroke="#000000" d="M226.072-57.825H234.283"/>
<use data-text="6" xlink:href="#font_6_2" transform="matrix(5.9780786,0,0,-5.97772,36.854509,55.671854)"/>
<use data-text="R" xlink:href="#font_3_2" transform="matrix(8.967117,0,0,-8.966579,122.51135,36.443468)"/>
</svg>
