<svg xmlns="http://www.w3.org/2000/svg" xmlns:xlink="http://www.w3.org/1999/xlink" xmlns:inkscape="http://www.inkscape.org/namespaces/inkscape" version="1.1" width="127" height="146" viewBox="0 0 127 146">
<defs>
<path id="font_1_1" d="M.33399964 .30233766C.33999635 .32835389 .36299134 .42037965 .43299867 .42037965 .43798829 .42037965 .46199037 .42037965 .48298646 .40734864 .45498658 .402359 .43499757 .37734986 .43499757 .35334779 .43499757 .33735658 .44599916 .31835938 .47299195 .31835938 .49499513 .31835938 .5269928 .3363495 .5269928 .37635804 .5269928 .42837525 .46798707 .4423828 .43399049 .4423828 .37599183 .4423828 .34098817 .38935853 .32899476 .36634828 .3039856 .43237306 .25 .4423828 .22099304 .4423828 .116989139 .4423828 .05999756 .3133545 .05999756 .28834535 .05999756 .27833558 .069992069 .27833558 .07199097 .27833558 .07998657 .27833558 .08299255 .28033448 .084991458 .28933717 .11898804 .39535523 .18499756 .42037965 .21899414 .42037965 .23799134 .42037965 .272995 .4113617 .272995 .35334779 .272995 .32235719 .2559967 .25532533 .21899414 .11528015 .20298767 .053268434 .16799927 .011245728 .12399292 .011245728 .117996219 .011245728 .09498596 .011245728 .07398987 .024276734 .09899902 .029266358 .12098694 .05027771 .12098694 .07827759 .12098694 .105270389 .09899902 .11328125 .083999637 .11328125 .053985597 .11328125 .0289917 .08728027 .0289917 .055267335 .0289917 .009246826 .07899475-.0107421879 .12298584-.0107421879 .18899536-.0107421879 .22499085 .059280397 .22799683 .0652771 .23999024 .028274537 .27598573-.0107421879 .33599855-.0107421879 .43899537-.0107421879 .49598695 .118270877 .49598695 .14328003 .49598695 .1532898 .4869995 .1532898 .48399354 .1532898 .47499085 .1532898 .47299195 .14929199 .47099305 .14228821 .43798829 .03527832 .36999513 .011245728 .33799745 .011245728 .29899598 .011245728 .2829895 .043273927 .2829895 .07727051 .2829895 .09927368 .2889862 .121276859 .2999878 .16529846L.33399964 .30233766Z"/>
<path id="font_1_2" d="M.48599244 .38136292C.48999024 .39537049 .48999024 .39736939 .48999024 .40437318 .48999024 .42237855 .47599793 .43138124 .46099855 .43138124 .45098878 .43138124 .43499757 .42536927 .42599488 .41036988 .42399598 .405365 .41600038 .37435914 .4119873 .35635377 .40499879 .33035279 .397995 .30334474 .3919983 .27633668L.34700013 .09628296C.34298707 .08126831 .2999878 .011245728 .23399353 .011245728 .18299866 .011245728 .17199707 .055267335 .17199707 .0922699 .17199707 .1382904 .18899536 .20030213 .22299195 .28833009 .23899842 .3293457 .24299622 .3403473 .24299622 .36035157 .24299622 .405365 .21099854 .4423828 .16099549 .4423828 .06599426 .4423828 .0289917 .29733277 .0289917 .28833009 .0289917 .27833558 .038986207 .27833558 .040985109 .27833558 .050994874 .27833558 .051986696 .28033448 .056991579 .29634095 .083999637 .3903656 .12399292 .42037965 .1579895 .42037965 .1659851 .42037965 .18299866 .42037965 .18299866 .3883667 .18299866 .36335755 .17298889 .3373413 .1659851 .31834413 .12599182 .21231079 .10798645 .1552887 .10798645 .10827637 .10798645 .019256592 .17098999-.0107421879 .22999573-.0107421879 .2689972-.0107421879 .30299378 .0062561037 .33099366 .03425598 .31799317-.017745972 .30599977-.06674194 .2659912-.11973572 .23999024-.15385437 .20199585-.18309021 .1559906-.18309021 .14199829-.18309021 .09700012-.18005371 .07998657-.14074707 .09599304-.14074707 .10899353-.14074707 .12298584-.1287384 .1329956-.11973572 .14299011-.10673523 .14299011-.08773804 .14299011-.056747438 .115997318-.052734376 .10598755-.052734376 .08299255-.052734376 .049987794-.068740848 .049987794-.11773682 .049987794-.16796875 .09399414-.20507813 .1559906-.20507813 .25898744-.20507813 .3619995-.11373901 .3899994-.00074768069L.48599244 .38136292Z"/>
<path id="font_1_3" d="M.1329956 .08345032C.18699646 .14138794 .21598816 .16636658 .2519989 .19732666 .2519989 .19833374 .31399537 .25128175 .34999085 .2872467 .44499208 .3803711 .46699525 .42837525 .46699525 .43237306 .46699525 .4423828 .45799256 .4423828 .45599366 .4423828 .44898988 .4423828 .44599916 .44036866 .44099427 .43138124 .41099549 .38337709 .3899994 .3671875 .3659973 .3671875 .34199525 .3671875 .32998658 .38237 .31498719 .3993683 .29599 .42237855 .2789917 .4423828 .24598694 .4423828 .17098999 .4423828 .125 .34918214 .125 .3282013 .125 .3231964 .12799073 .31721498 .13699341 .31721498 .1459961 .31721498 .147995 .3222046 .1499939 .3282013 .16899109 .37434388 .22698975 .37538148 .23498535 .37538148 .2559967 .37538148 .2749939 .36820985 .2979889 .36018373 .33799745 .34518434 .34899903 .34518434 .375 .34518434 .33898927 .30223084 .25498963 .2303009 .23599243 .21430969L.1459961 .13040161C.07798767 .06341553 .042999269 .0062561037 .042999269-.00074768069 .042999269-.0107421879 .052993776-.0107421879 .054992677-.0107421879 .06298828-.0107421879 .06498718-.008743286 .070999149 .002243042 .09399414 .037246705 .12399292 .064453128 .1559906 .064453128 .1789856 .064453128 .18899536 .055252077 .21398926 .026245118 .23098755 .0052490236 .24899292-.0107421879 .27799989-.0107421879 .3769989-.0107421879 .43499757 .1164093 .43499757 .14338684 .43499757 .14837647 .43099977 .15338135 .4229889 .15338135 .4139862 .15338135 .4119873 .14738465 .40899659 .14039612 .38598634 .07543945 .32199098 .056243898 .2889862 .056243898 .2689972 .056243898 .25099183 .06239319 .22999573 .06944275 .19599915 .08244324 .18099976 .08644104 .1599884 .08644104 .1579895 .08644104 .14199829 .08644104 .1329956 .08345032Z"/>
<path id="font_2_2" d="M.14498902 .087509158C.18099976 .12449646 .19198609 .13549805 .27999879 .20846558 .29100038 .21746826 .36099244 .2754364 .3880005 .30142213 .45098878 .36340333 .48999024 .418396 .48999024 .42939759 .48999024 .43840028 .48199464 .44140626 .47499085 .44140626 .46499635 .44140626 .46398927 .4393921 .45399476 .4243927 .4229889 .3784027 .40098573 .37039186 .3829956 .37039186 .3639984 .37039186 .35198976 .3784027 .33198548 .39839173 .30599977 .42340089 .28599549 .44140626 .2539978 .44140626 .17399597 .44140626 .12399292 .3514099 .12399292 .3244171 .12399292 .32341004 .12399292 .3124237 .13999939 .3124237 .1499939 .3124237 .1519928 .3164215 .1559906 .32740785 .16899109 .35639955 .21199036 .36639405 .24198914 .36639405 .2649994 .36639405 .2889862 .36039735 .31298829 .3534088 .35499574 .34240724 .3639984 .34240724 .3869934 .34240724 .3659973 .3204193 .33799745 .2924347 .26098634 .22946167 .21899414 .19447327 .1769867 .16049195 .1499939 .13449097 .07598877 .061523439 .04399109 .012237549 .04399109 .0022277833 .04399109-.0067749025 .050994874-.009765625 .05899048-.009765625 .068984989-.009765625 .070999149-.0067749025 .07598877 .00022888184 .09599304 .030334473 .1269989 .061523439 .16499329 .061523439 .18798828 .061523439 .19799805 .052459718 .21699524 .033355714 .24899292 .0022277833 .2669983-.009765625 .29599-.009765625 .3999939-.009765625 .46299745 .11450195 .46299745 .14549256 .46299745 .15449524 .45599366 .15849304 .44799806 .15849304 .43699647 .15849304 .43499757 .15249634 .43099977 .14248657 .4119873 .09251404 .35699464 .06552124 .30699159 .06552124 .28799439 .06552124 .2659912 .070510867 .23599243 .07852173 .19400025 .089523319 .18399048 .089523319 .16899109 .089523319 .15899658 .089523319 .15299988 .089523319 .14498902 .087509158Z"/>
<path id="font_3_3" d="M.73098757 .3330078C.74598696 .3330078 .7659912 .3330078 .7659912 .3560028 .7659912 .3789978 .74198916 .3789978 .72698977 .3789978H.09799194C.08299255 .3789978 .05899048 .3789978 .05899048 .3560028 .05899048 .3330078 .07899475 .3330078 .09399414 .3330078H.73098757M.72698977 .12098694C.74198916 .12098694 .7659912 .12098694 .7659912 .14398194 .7659912 .16699219 .74598696 .16699219 .73098757 .16699219H.09399414C.07899475 .16699219 .05899048 .16699219 .05899048 .14398194 .05899048 .12098694 .08299255 .12098694 .09799194 .12098694H.72698977Z"/>
<path id="font_3_1" d="M.25299073 .33370973C.33198548 .33370973 .38198854 .27557374 .38198854 .17037964 .38198854 .045440675 .31098939 .008514404 .2579956 .008514404 .20298767 .008514404 .12799073 .0284729 .09298706 .08137512 .1289978 .08137512 .1539917 .10437012 .1539917 .13737488 .1539917 .16937256 .1309967 .19238281 .09899902 .19238281 .07199097 .19238281 .04399109 .17536927 .04399109 .13537598 .04399109 .04045105 .1459961-.021484375 .2599945-.021484375 .3929901-.021484375 .48599244 .070388797 .48599244 .17037964 .48599244 .25352479 .41999818 .32969667 .31799317 .3517456 .39698792 .37982179 .45599366 .4479828 .45599366 .52804568 .45599366 .6080475 .3659973 .66503909 .2619934 .66503909 .15499878 .66503909 .07398987 .6070404 .07398987 .53105166 .07398987 .49404908 .09899902 .4780426 .125 .4780426 .1559906 .4780426 .17599488 .5000458 .17599488 .52905276 .17599488 .56604006 .14399719 .5800476 .12199402 .5810547 .1639862 .6360321 .24099732 .6390381 .25898744 .6390381 .2849884 .6390381 .36099244 .6310272 .36099244 .52804568 .36099244 .45799256 .33198548 .41589356 .31799317 .39985658 .28799439 .36878968 .2649994 .36679078 .20399475 .3627777 .18499756 .36177064 .1769867 .36076356 .1769867 .3477478 .1769867 .33370973 .18598938 .33370973 .20298767 .33370973H.25299073Z"/>
<path id="font_4_1" d="M.69898989 .22743225C.71499636 .22743225 .7369995 .22743225 .7369995 .25042726 .7369995 .2734375 .71499636 .2734375 .69898989 .2734375H.12599182C.10998535 .2734375 .08799744 .2734375 .08799744 .25042726 .08799744 .22743225 .10998535 .22743225 .12599182 .22743225H.69898989Z"/>
<path id="font_2_1" d="M.19299317 .1382904C.20399475 .18132019 .21499634 .22433472 .22499085 .26835633 .22599793 .27035523 .23298645 .29937745 .23399353 .30438233 .23699951 .313385 .2619934 .35438539 .28799439 .37937928 .31999208 .40838624 .35398866 .4133911 .37199403 .4133911 .3829956 .4133911 .40098573 .4123993 .4149933 .40039063 .37199403 .39138795 .3659973 .35438539 .3659973 .3453827 .3659973 .32337953 .3829956 .30838014 .40499879 .30838014 .43199159 .30838014 .46199037 .3303833 .46199037 .3703766 .46199037 .40638734 .43099977 .44140626 .37399293 .44140626 .30599977 .44140626 .2599945 .39637757 .23899842 .36938478 .21899414 .44140626 .15098572 .44140626 .14099121 .44140626 .10499573 .44140626 .07998657 .418396 .06399536 .38739015 .040985109 .3423767 .02999878 .29136659 .02999878 .28837586 .02999878 .27937318 .036987306 .2753601 .04499817 .2753601 .057998659 .2753601 .05899048 .27937318 .06599426 .30537416 .07798767 .35438539 .09599304 .4133911 .13798523 .4133911 .1639862 .4133911 .16999817 .38838197 .16999817 .36637879 .16999817 .34838868 .16499329 .32937623 .15699768 .29637147 .15499878 .28837586 .13999939 .2293396 .13598633 .21533203L.09899902 .06526184C.09498596 .050247194 .08898926 .025238038 .08898926 .021224976 .08898926-.0017700195 .10798645-.009765625 .12098694-.009765625 .1559906-.009765625 .16299439 .018234253 .17098999 .052246095L.19299317 .1382904Z"/>
<path id="font_3_2" d="M.13999939 .5618439C.15299988 .55784609 .19299317 .54785159 .23498535 .54785159 .3600006 .54785159 .43598939 .6358948 .43598939 .6510315 .43598939 .6620331 .42900086 .66503909 .42399598 .66503909 .42199708 .66503909 .41999818 .66503909 .41099549 .6600342 .37199403 .6450348 .32598878 .632843 .27198792 .632843 .21299744 .632843 .1639862 .6480255 .1329956 .6600342 .12298584 .66503909 .12098694 .66503909 .11999512 .66503909 .10699463 .66503909 .10699463 .6540375 .10699463 .6358948V.34292604C.10699463 .32492066 .10699463 .312912 .12298584 .312912 .1309967 .312912 .13398743 .3169098 .13899231 .32492066 .15098572 .33992005 .18899536 .39093019 .27398683 .39093019 .32998658 .39093019 .35699464 .34492494 .3659973 .32591249 .3829956 .28990174 .3849945 .24389649 .3849945 .20487976 .3849945 .1678772 .38398744 .11387634 .35598756 .069732669 .33699037 .039611818 .29699708 .008514404 .24398804 .008514404 .1789856 .008514404 .114990238 .0496521 .09199524 .11488342 .09498596 .11387634 .100997928 .11387634 .101989749 .11387634 .12998963 .11387634 .1519928 .13188172 .1519928 .16288758 .1519928 .19989014 .12298584 .21289063 .102996829 .21289063 .084991458 .21289063 .052993776 .20288086 .052993776 .15988159 .052993776 .069732669 .1309967-.021484375 .24598694-.021484375 .37098695-.021484375 .47698976 .07574463 .47698976 .19989014 .47698976 .31591798 .3929901 .4189453 .2749939 .4189453 .22499085 .4189453 .17799378 .40293885 .13999939 .368927V.5618439Z"/>
</defs>
<path transform="matrix(1.00008,0,0,-1,46.06749,80.795)" stroke-width=".3985" stroke-linecap="butt" stroke-dasharray="2.98883,2.98883" stroke-miterlimit="10" stroke-linejoin="miter" fill="none" stroke="#ff9999" d="M42.52022-42.5202C42.52022-35.47517 23.48355-29.76422 0-29.76422-23.48355-29.76422-42.52022-35.47517-42.52022-42.5202-42.52022-49.56522-23.48355-55.27618 0-55.27618 23.48355-55.27618 42.52022-49.56522 42.52022-42.5202ZM0-42.5202"/>
<path transform="matrix(1.00008,0,0,-1,46.06749,80.795)" d="M-42.5202-42.5202V42.5202H42.5202V-42.5202ZM42.5202 42.5202" fill="#ffe6e6" fill-opacity=".6"/>
<path transform="matrix(1.00008,0,0,-1,46.06749,80.795)" d="M42.52022 42.5202C42.52022 49.56522 23.48355 55.27618 0 55.27618-23.48355 55.27618-42.52022 49.56522-42.52022 42.5202-42.52022 35.47517-23.48355 29.76422 0 29.76422 23.48355 29.76422 42.52022 35.47517 42.52022 42.5202ZM0 42.5202" fill="#ffe6e6" fill-opacity=".6"/>
<path transform="matrix(1.00008,0,0,-1,46.06749,80.795)" d="M42.52022-42.5202C42.52022-35.47517 23.48355-29.76422 0-29.76422-23.48355-29.76422-42.52022-35.47517-42.52022-42.5202-42.52022-49.56522-23.48355-55.27618 0-55.27618 23.48355-55.27618 42.52022-49.56522 42.52022-42.5202ZM0-42.5202" fill="#fff2f2" fill-opacity=".4"/>
<path transform="matrix(1.00008,0,0,-1,46.06749,80.795)" stroke-width=".79701" stroke-linecap="butt" stroke-miterlimit="10" stroke-linejoin="miter" fill="none" stroke="#000000" d="M0 0-33.6019-33.6019"/>
<path transform="matrix(-.70715656,.7071,.70715656,.7071,12.462902,114.3969)" d="M2.59026 0-1.55415 2.0722 0 0-1.55415-2.0722"/>
<use data-text="x" xlink:href="#font_1_1" transform="matrix(9.963397,0,0,-9.9626,1.2169037,118.373)"/>
<path transform="matrix(1.00008,0,0,-1,46.06749,80.795)" stroke-width=".79701" stroke-linecap="butt" stroke-miterlimit="10" stroke-linejoin="miter" fill="none" stroke="#000000" d="M0 0H68.27675"/>
<path transform="matrix(1.00008,0,0,-1,114.3497,80.795)" d="M2.59026 0-1.55415 2.0722 0 0-1.55415-2.0722"/>
<use data-text="y" xlink:href="#font_1_2" transform="matrix(9.963397,0,0,-9.9626,120.659458,81.971)"/>
<path transform="matrix(1.00008,0,0,-1,46.06749,80.795)" stroke-width=".79701" stroke-linecap="butt" stroke-miterlimit="10" stroke-linejoin="miter" fill="none" stroke="#000000" d="M0-63.7803V68.27675"/>
<path transform="matrix(0,-1,-1.00008,-0,46.06749,12.5182499)" d="M2.59026 0-1.55415 2.0722 0 0-1.55415-2.0722"/>
<use data-text="z" xlink:href="#font_1_3" transform="matrix(9.963397,0,0,-9.9626,43.53129,6.2089998)"/>
<path transform="matrix(1.00008,0,0,-1,46.06749,80.795)" stroke-width=".79701" stroke-linecap="butt" stroke-miterlimit="10" stroke-linejoin="miter" fill="none" stroke="#ff0000" d="M-42.5202-42.5202V42.5202"/>
<path transform="matrix(1.00008,0,0,-1,46.06749,80.795)" stroke-width=".79701" stroke-linecap="butt" stroke-miterlimit="10" stroke-linejoin="miter" fill="none" stroke="#ff0000" d="M42.5202-42.5202V42.5202"/>
<path transform="matrix(1.00008,0,0,-1,46.06749,80.795)" stroke-width=".79701" stroke-linecap="butt" stroke-miterlimit="10" stroke-linejoin="miter" fill="none" stroke="#ff0000" d="M42.52022 42.5202C42.52022 49.56522 23.48355 55.27618 0 55.27618-23.48355 55.27618-42.52022 49.56522-42.52022 42.5202-42.52022 35.47517-23.48355 29.76422 0 29.76422 23.48355 29.76422 42.52022 35.47517 42.52022 42.5202ZM0 42.5202"/>
<path transform="matrix(1.00008,0,0,-1,46.06749,80.795)" stroke-width=".79701" stroke-linecap="butt" stroke-miterlimit="10" stroke-linejoin="miter" fill="none" stroke="#ff0000" d="M-42.5202-42.5202C-42.5202-49.56522-23.48355-55.27618 0-55.27618 23.48358-55.27618 42.52023-49.56522 42.52023-42.5202"/>
<path transform="matrix(1.00008,0,0,-1,46.06749,80.795)" stroke-width=".3985" stroke-linecap="butt" stroke-miterlimit="10" stroke-linejoin="miter" fill="none" stroke="#000000" d="M0 42.5202H1.4174"/>
<use data-text="z" xlink:href="#font_2_2" transform="matrix(7.9707376,0,0,-7.9701,37.58381,46.931)"/>
<use data-text="=" xlink:href="#font_3_3" transform="matrix(7.9707376,0,0,-7.9701,44.21235,46.931)"/>
<use data-text="3" xlink:href="#font_3_1" transform="matrix(7.9707376,0,0,-7.9701,53.147546,46.931)"/>
<path transform="matrix(1.00008,0,0,-1,46.06749,80.795)" stroke-width=".3985" stroke-linecap="butt" stroke-miterlimit="10" stroke-linejoin="miter" fill="none" stroke="#000000" d="M0-42.5202H1.4174"/>
<use data-text="z" xlink:href="#font_2_2" transform="matrix(7.9707376,0,0,-7.9701,51.004884,125.468)"/>
<use data-text="=" xlink:href="#font_3_3" transform="matrix(7.9707376,0,0,-7.9701,57.633424,125.468)"/>
<use data-text="&#x2212;" xlink:href="#font_4_1" transform="matrix(7.9707376,0,0,-7.9701,66.573139,125.468)"/>
<use data-text="3" xlink:href="#font_3_1" transform="matrix(7.9707376,0,0,-7.9701,73.15965,125.468)"/>
<path transform="matrix(1.00008,0,0,-1,46.06749,80.795)" stroke-width=".3985" stroke-linecap="butt" stroke-miterlimit="10" stroke-linejoin="miter" fill="none" stroke="#000000" d="M0 42.5202 33.47974 35.82423"/>
<path transform="matrix(.98062846,.1961,.19611569,-.98055,79.54991,44.970769)" d="M1.99252 0-1.19551 1.59401 0 0-1.19551-1.59401"/>
<use data-text="r" xlink:href="#font_2_1" transform="matrix(7.9707376,0,0,-7.9701,53.994127,38.297998)"/>
<use data-text="=" xlink:href="#font_3_3" transform="matrix(7.9707376,0,0,-7.9701,60.40364,38.297998)"/>
<use data-text="5" xlink:href="#font_3_2" transform="matrix(7.9707376,0,0,-7.9701,69.33882,38.297998)"/>
</svg>
