<svg xmlns="http://www.w3.org/2000/svg" xmlns:xlink="http://www.w3.org/1999/xlink" xmlns:inkscape="http://www.inkscape.org/namespaces/inkscape" version="1.1" width="118" height="117" viewBox="0 0 118 117">
<defs>
<path id="font_1_54" d="M.6269989 .4550171 .598999 .6796875H.037994386V.64868167H.06098938C.13798523 .64868167 .13999939 .6376953 .13999939 .60076907V.07902527C.13999939 .041992189 .13798523 .0309906 .06098938 .0309906H.037994386V0C.08299255 .0029907227 .14498902 .0029907227 .19099427 .0029907227 .23098755 .0029907227 .32199098 .0029907227 .35699464 0V.0309906H.32499696C.23399353 .0309906 .22999573 .042999269 .22999573 .08001709V.3251953H.31999208C.4169922 .3251953 .42799378 .29318238 .42799378 .20819092H.45599366V.47299195H.42799378C.42799378 .38813783 .4169922 .3561859 .31999208 .3561859H.22999573V.60775759C.22999573 .6416931 .23199463 .64868167 .2789917 .64868167H.40499879C.55799868 .64868167 .58299258 .59277346 .598999 .4550171H.6269989Z"/>
<path id="font_1_81" d="M.48399354 .21324158C.48399354 .34423829 .37998963 .4482422 .25698854 .4482422 .12998963 .4482422 .0289917 .3412323 .0289917 .21324158 .0289917 .08824158 .1329956-.0107421879 .2559967-.0107421879 .3829956-.0107421879 .48399354 .09024048 .48399354 .21324158M.397995 .22224427C.397995 .1852417 .397995 .12724304 .37298585 .08325195 .34498597 .037246705 .29899598 .01725769 .25698854 .01725769 .20698548 .01725769 .16499329 .042251588 .14199829 .08125305 .115997318 .12324524 .114990238 .17623902 .114990238 .22224427 .114990238 .25924684 .114990238 .3162384 .13999939 .35723878 .16999817 .40823365 .21998596 .42323304 .2559967 .42323304 .31298829 .42323304 .35398866 .39123536 .37399293 .35723878 .39698792 .31523133 .397995 .26423646 .397995 .22224427Z"/>
<path id="font_1_47" d="M.5399933 0V.0309906C.47200013 .0309906 .46299745 .037994386 .46299745 .087020877V.69433596L.31498719 .6826172V.6516113C.3829956 .6516113 .3919983 .64463809 .3919983 .59580996V.38339234C.3869934 .38938905 .34199525 .4423828 .2639923 .4423828 .14099121 .4423828 .033996583 .3443756 .033996583 .21525574 .033996583 .09013367 .13398743-.0107421879 .25299073-.0107421879 .32598878-.0107421879 .37098695 .03224182 .3889923 .053115846V-.0107421879L.5399933 0M.3889923 .12011719C.3889923 .10211182 .3889923 .099121097 .37399293 .078125 .34298707 .033218385 .29699708 .014251709 .25698854 .014251709 .21398926 .014251709 .17399597 .038208009 .147995 .0801239 .12199402 .12312317 .11999512 .18218994 .11999512 .21421814 .11999512 .26127626 .12599182 .3143463 .1519928 .35438539 .17399597 .38638307 .21499634 .41737367 .2679901 .41737367 .30999757 .41737367 .34999085 .39637757 .3769989 .35839845 .3889923 .3423767 .3889923 .34136964 .3889923 .32235719V.12011719Z"/>
<path id="font_1_85" d="M.34098817-.23803711C.34098817-.23303223 .33799745-.23002625 .33198548-.22303772 .20298767-.105026248 .1639862 .07498169 .1639862 .24998474 .1639862 .40498353 .19400025 .59298709 .33499146 .72698977 .33898927 .73098757 .34098817 .7339783 .34098817 .73898318 .34098817 .74598696 .33599855 .75 .32899476 .75 .31698609 .75 .22698975 .6779785 .17298889 .568985 .125 .47297669 .100997928 .36997987 .100997928 .25097657 .100997928 .17897034 .10998535 .064971927 .16499329-.053024293 .22399903-.17602539 .31698609-.24902344 .32899476-.24902344 .33599855-.24902344 .34098817-.24502564 .34098817-.23803711Z"/>
<path id="font_1_107" d="M.46199037 .17704773H.43399049C.43199159 .16404724 .42399598 .10501099 .41099549 .08900452 .40499879 .07998657 .33599855 .07998657 .31599427 .07998657H.13798523L.23699951 .17404175C.40098573 .3161316 .46199037 .36915589 .46199037 .4711914 .46199037 .5860901 .36698915 .6660156 .24398804 .6660156 .1289978 .6660156 .050994874 .575119 .050994874 .4841919 .050994874 .43418885 .09399414 .42919923 .102996829 .42919923 .125 .42919923 .15499878 .44519044 .15499878 .48120118 .15499878 .51119998 .13398743 .5332031 .102996829 .5332031 .09799194 .5332031 .09498596 .5332031 .09098816 .53219607 .114990238 .6030731 .1789856 .63500979 .23298645 .63500979 .33499146 .63500979 .36999513 .5401764 .36999513 .4711914 .36999513 .36915589 .29299928 .28611756 .24499512 .23408509L.06199646 .035995485C.050994874 .024993897 .050994874 .022994996 .050994874 0H.43399049L.46199037 .17704773Z"/>
<path id="font_1_56" d="M.46199037 .19992066C.46199037 .3209076 .37599183 .41992188 .2669983 .41992188 .21899414 .41992188 .16999817 .4039154 .1349945 .36791993V.5647888C.16499329 .55578616 .19599915 .55078127 .22698975 .55078127 .34999085 .55078127 .42199708 .63983157 .42199708 .6529236 .42199708 .6619873 .41600038 .6660156 .41099549 .6660156 .41099549 .6660156 .40699769 .6660156 .397995 .6609802 .35099793 .6418457 .30499269 .63378909 .2630005 .63378909 .21998596 .63378909 .1749878 .6418457 .1289978 .6609802 .11898804 .6660156 .115997318 .6660156 .115997318 .6660156 .10398865 .6660156 .10398865 .6559448 .10398865 .63882449V.34490968C.10398865 .32699586 .10398865 .31599427 .117996219 .31599427 .12599182 .31562806 .1289978 .3196411 .1349945 .32867433 .16499329 .37083436 .21299744 .39491273 .2649994 .39491273 .37199403 .39491273 .37199403 .24035645 .37199403 .20422364 .37199403 .17321778 .37199403 .11122131 .34399415 .06636047 .31698609 .024475098 .2749939 .0055389406 .23599243 .0055389406 .1769867 .0055389406 .10998535 .042419435 .085998538 .11621094 .085998538 .116882327 .09298706 .11488342 .099990848 .11488342 .11999512 .11488342 .14898682 .12788391 .14898682 .1638794 .14898682 .19488526 .1269989 .21289063 .099990848 .21289063 .07899475 .21289063 .050994874 .20088196 .050994874 .16088867 .050994874 .069732669 .1269989-.022460938 .23799134-.022460938 .35899354-.02279663 .46199037 .07521057 .46199037 .19921875V.19992066Z"/>
<path id="font_1_87" d="M.71199038 .7282562C.71199038 .7422638 .69999697 .7502594 .69099429 .7502594 .6799927 .7502594 .6749878 .7442627 .6689911 .73526 .6049957 .6512604 .5209961 .6402588 .47499085 .6402588 .37799073 .6402588 .31399537 .68826296 .2789917 .72125247 .2519989 .7452545 .22599793 .7502594 .20799256 .7502594 .1309967 .7502594 .056991579 .6672516 .056991579 .5492554 .056991579 .42726136 .1329956 .34725953 .20799256 .34725953 .28199769 .34725953 .34199525 .43525697 .34199525 .54826357 .34199525 .56326296 .34199525 .6082611 .32199098 .6572571 .38398744 .6222534 .43998719 .6152649 .47499085 .6152649 .5189972 .6152649 .5649872 .6252594 .6069946 .6482544L.60798647 .6472626 .1519928-.013748169C.15098572-.01574707 .14299011-.026748658 .14299011-.033737184 .14299011-.04673767 .15299988-.055740358 .16499329-.055740358 .17599488-.055740358 .18099976-.04774475 .18699646-.039749147L.70399478 .7102661C.70899966 .71725466 .71199038 .72125247 .71199038 .7282562M.7979889 .14526367C.7979889 .2622528 .7369995 .34725953 .6639862 .34725953 .58699038 .34725953 .5130005 .2642517 .5130005 .1462555 .5130005 .024261475 .58898928-.055740358 .6639862-.055740358 .73799136-.055740358 .7979889 .03225708 .7979889 .14526367M.31399537 .5492554C.31399537 .44325257 .26098634 .37225343 .20999146 .37225343 .18899536 .37225343 .12298584 .3852539 .12298584 .54826357 .12298584 .71325686 .18899536 .7252655 .20999146 .7252655 .2630005 .7252655 .31399537 .6512604 .31399537 .5492554M.769989 .1462555C.769989 .040252687 .71699526-.03074646 .66600039-.03074646 .644989-.03074646 .57899478-.017745972 .57899478 .14526367 .57899478 .31025697 .644989 .32226563 .66600039 .32226563 .71899417 .32226563 .769989 .2482605 .769989 .1462555Z"/>
<path id="font_1_86" d="M.2979889 .25097657C.2979889 .3329773 .28599549 .4429779 .23399353 .5539856 .1749878 .6769867 .08198547 .75 .069992069 .75 .05999756 .75 .057998659 .74198916 .057998659 .73898318 .057998659 .7339783 .05999756 .73098757 .066986087 .72398379 .125 .6719818 .23498535 .5359802 .23498535 .25097657 .23498535 .10797119 .20899964-.091033939 .06399536-.22602844 .06199646-.22903443 .057998659-.23303223 .057998659-.23803711 .057998659-.24102783 .05999756-.24902344 .069992069-.24902344 .08198547-.24902344 .17199707-.17703247 .22599793-.06802368 .27398683 .02796936 .2979889 .13098145 .2979889 .25097657Z"/>
<path id="font_1_108" d="M.7319946 .6516113V.6826172C.6779938 .680603 .6629944 .6796112 .61499026 .6796112 .56599429 .6796112 .5529938 .680603 .49699403 .6826172V.6516113C.598999 .6516113 .598999 .6036072 .598999 .5765991V.22955323C.598999 .09353638 .5009918 .008529663 .40098573 .008529663 .34298707 .008529663 .22999573 .043533327 .22999573 .22355652V.6036072C.22999573 .64060977 .23199463 .6516113 .30899049 .6516113H.33198548V.6826172C.2869873 .6796112 .23098755 .6796112 .18499756 .6796112 .13899231 .6796112 .08299255 .6796112 .037994386 .6826172V.6516113H.06098938C.13798523 .6516113 .13999939 .64060977 .13999939 .6036072V.22955323C.13999939 .08354187 .26098634-.022460938 .39898683-.022460938 .54599-.022460938 .6299896 .11454773 .6299896 .21455384V.5746002C.6299896 .604599 .6299896 .6516113 .7319946 .6516113Z"/>
<path id="font_1_105" d="M.34199525 .12408447V.18099976H.31399537V.1270752C.31399537 .05319214 .2829895 .01725769 .24699402 .01725769 .17999268 .01725769 .17999268 .1051178 .17999268 .12309265V.3996582H.32499696V.43066407H.17999268V.6142578H.1519928C.15098572 .5304413 .115997318 .42765809 .018997193 .4246521V.3996582H.10598755V.12408447C.10598755 .012252808 .18699646-.0107421879 .23999024-.0107421879 .30699159-.011001587 .34199525 .052993776 .34199525 .12399292V.12408447Z"/>
<path id="font_1_66" d="M.25299073 0V.0309906C.18798828 .0309906 .18399048 .035995485 .18399048 .075042728V.4423828L.039993287 .43066407V.3996582C.10398865 .3996582 .11299133 .3936615 .11299133 .3447113V.07695007C.11299133 .0309906 .101989749 .0309906 .035995485 .0309906V0C.08099365 .0019989014 .101989749 .0029907227 .1459961 .0029907227 .1619873 .0029907227 .20399475 .0029907227 .25299073 0M.19699097 .6028137C.19699097 .63282778 .17298889 .6568146 .14299011 .6568146 .11299133 .6568146 .08898926 .63282778 .08898926 .6028137 .08898926 .57281497 .11299133 .5488281 .14299011 .5488281 .17298889 .5488281 .19699097 .57281497 .19699097 .6028137Z"/>
<path id="font_1_72" d="M.26098634 0V.0309906C.19499207 .0309906 .18399048 .0309906 .18399048 .07701111V.69433596L.035995485 .6826172V.6516113C.10398865 .6516113 .11299133 .64460757 .11299133 .5956421V.07696533C.11299133 .0309906 .101989749 .0309906 .035995485 .0309906V0C.08299255 .0019989014 .101989749 .0029907227 .147995 .0029907227 .19499207 .0029907227 .21199036 .0019989014 .26098634 0Z"/>
<path id="font_1_50" d="M.4269867 .11936951C.4269867 .12637329 .42199708 .13237 .41299439 .13237 .40299989 .13237 .3999939 .12536621 .39898683 .12136841 .36499024 .019256592 .27598573 .01725769 .26098634 .01725769 .21299744 .01725769 .17199707 .044281007 .14898682 .078323367 .115997318 .12736511 .114990238 .18743897 .114990238 .22949219H.3999939C.42199708 .22949219 .4269867 .22949219 .4269867 .25048829 .4269867 .35333253 .37098695 .4482422 .24299622 .4482422 .12298584 .4482422 .0289917 .3443451 .0289917 .22047425 .0289917 .08932495 .13398743-.0107421879 .2559967-.0107421879 .37799073-.0107421879 .4269867 .096343997 .4269867 .11936951M.35899354 .253479H.115997318C.125 .40725709 .21499634 .42323304 .24299622 .42323304 .2979889 .42323304 .35798646 .38130189 .35899354 .253479Z"/>
<path id="font_1_98" d="M.36999513 .12831116C.36999513 .17330933 .34999085 .20030213 .32798768 .22329712 .2939911 .25628663 .2579956 .26327516 .18399048 .2772827 .1579895 .28227235 .084991458 .29527284 .084991458 .35224916 .084991458 .38424684 .10798645 .426239 .19898987 .426239 .30699159 .426239 .31399537 .34326173 .31599427 .31826783 .31698609 .3062744 .31698609 .3002777 .32998658 .3002777 .34399415 .3002777 .34399415 .30726625 .34399415 .32626344V.4222412C.34399415 .4392395 .34399415 .4482422 .33198548 .4482422 .32699586 .4482422 .32499696 .4482422 .31199647 .43623353 .30999757 .43423463 .30099488 .42523194 .29499818 .4202423 .2639923 .44223023 .23298645 .4482422 .19898987 .4482422 .066986087 .4482422 .033996583 .37524415 .033996583 .32426454 .033996583 .29226686 .04798889 .26628114 .070999149 .24429322 .10499573 .21330261 .14299011 .20629883 .19400025 .19729615 .24499512 .18730164 .2619934 .18431092 .28399659 .16731262 .2939911 .15931702 .31900025 .14031983 .31900025 .10229492 .31900025 .014251709 .21798706 .014251709 .20399475 .014251709 .101989749 .014251709 .07598877 .0993042 .06399536 .15332031 .06098938 .16331482 .05999756 .16931153 .04798889 .16931153 .033996583 .16931153 .033996583 .16131592 .033996583 .14331055V.01524353C.033996583-.0017547608 .033996583-.0107421879 .04598999-.0107421879 .051986696-.0107421879 .052993776-.009750366 .070999149 .009246826 .07499695 .01524353 .085998538 .028259278 .09098816 .03326416 .1329956-.007751465 .1789856-.0107421879 .20399475-.0107421879 .32699586-.0107421879 .36999513 .061279298 .36999513 .12831116Z"/>
<path id="font_1_95" d="M.7519989 .088897708C.7519989 .09489441 .7519989 .10687256 .73799136 .10687256 .72499087 .10687256 .72499087 .09788513 .723999 .08988953 .71899417 .026992798 .6879883 .0029907227 .6569977 .0029907227 .625 .0029907227 .6139984 .022994996 .60598757 .039978029 .5970001 .061935426 .58799746 .12983704 .58200076 .17475891 .57398989 .23666382 .5649872 .3035431 .45399476 .33850099 .548996 .36550904 .6269989 .42453004 .6269989 .5025635 .6269989 .601593 .5059967 .6826172 .35899354 .6826172H.039993287V.6516113H.06298828C.13999939 .6516113 .14199829 .64060977 .14199829 .6035919V.07891846C.14199829 .04197693 .13999939 .0309906 .06298828 .0309906H.039993287V0C.08699036 .0029907227 .13699341 .0029907227 .18499756 .0029907227 .23298645 .0029907227 .2829895 .0029907227 .33099366 0V.0309906H.30799867C.23098755 .0309906 .22898865 .04197693 .22898865 .07891846V.32850648H.34899903C.42099 .32850648 .45298768 .29057313 .45700074 .28657533 .4869995 .24963379 .4869995 .23466492 .4869995 .16377259 .4869995 .09687805 .4869995 .052963258 .5349884 .01499939 .58200076-.022003174 .6419983-.022003174 .6529999-.022003174 .7369995-.022003174 .7519989 .064941409 .7519989 .088897708M.5249939 .5025635C.5249939 .41653443 .48098756 .35351563 .34498597 .35351563H.22898865V.6105957C.22898865 .63661196 .23098755 .6456146 .25 .6496124 .25898744 .6516113 .29100038 .6516113 .31199647 .6516113 .397995 .6516113 .5249939 .6516113 .5249939 .5025635Z"/>
<path id="font_1_77" d="M.5469971 0V.0309906C.49598695 .03125 .47099305 .03125 .46998597 .0622406V.25431825C.46998597 .3373413 .46998597 .36636354 .44198609 .4013672 .4189911 .42938233 .3809967 .4423828 .33099366 .4423828 .23799134 .4423828 .19499207 .37335206 .18099976 .34535218H.17999268V.4423828L.034988405 .43066407V.3996582C.102996829 .3996582 .11199951 .39266969 .11199951 .34370423V.07695007C.11199951 .0309906 .100997928 .0309906 .034988405 .0309906V0C.08198547 .0019989014 .100997928 .0029907227 .14898682 .0029907227 .19699097 .0029907227 .20999146 .0019989014 .2630005 0V.0309906C.19699097 .0309906 .18598938 .0309906 .18598938 .07695007V.25878907C.18598938 .36532594 .26098634 .41737367 .32398988 .41737367 .3829956 .41737367 .3959961 .3683319 .3959961 .30825807V.077041629C.3959961 .0309906 .3849945 .0309906 .31900025 .0309906V0C.3659973 .0019989014 .3849945 .0029907227 .43299867 .0029907227 .48098756 .0029907227 .49398805 .0019989014 .5469971 0Z"/>
<path id="font_1_121" d="M.47299195 .31976319C.47299195 .38682557 .46998597 .47288514 .43499757 .5479431 .3909912 .64201357 .31498719 .6660156 .25698854 .6660156 .19699097 .6660156 .12098694 .64201357 .07699585 .5459442 .04499817 .47688294 .039993287 .39582826 .039993287 .31976319 .039993287 .25471498 .041992189 .15765381 .084991458 .07858276 .13198853-.0064697267 .20999146-.022460938 .2559967-.022460938 .32099916-.022460938 .394989 .0055389406 .43699647 .097595218 .46699525 .1646576 .47299195 .23971558 .47299195 .31976319M.3869934 .33177186C.3869934 .2697296 .3869934 .18566895 .3769989 .12661743 .35598756 .012542725 .28199769 .002532959 .25698854 .002532959 .22698975 .002532959 .15499878 .016540528 .13598633 .12962342 .12599182 .18867493 .12599182 .2747345 .12599182 .33177186 .12599182 .39982606 .12599182 .47888185 .13798523 .53393557 .1579895 .6230011 .22200012 .64100649 .2559967 .64100649 .2939911 .64100649 .35699464 .62098696 .37599183 .5279236 .3869934 .47288514 .3869934 .39482118 .3869934 .33177186Z"/>
</defs>
<path transform="matrix(1.00002,0,0,-1,58.988817,58.691)" d="M56.69363 0C56.69363 31.31142 31.31142 56.69363 0 56.69363-31.31142 56.69363-56.69363 31.31142-56.69363 0-56.69363-31.31142-31.31142-56.69363 0-56.69363 31.31142-56.69363 56.69363-31.31142 56.69363 0ZM0 0" fill="#f2f2f2"/>
<path transform="matrix(1.00002,0,0,-1,58.988817,58.691)" stroke-width=".79701" stroke-linecap="butt" stroke-miterlimit="10" stroke-linejoin="miter" fill="none" stroke="#000000" d="M56.69363 0C56.69363 31.31142 31.31142 56.69363 0 56.69363-31.31142 56.69363-56.69363 31.31142-56.69363 0-56.69363-31.31142-31.31142-56.69363 0-56.69363 31.31142-56.69363 56.69363-31.31142 56.69363 0ZM0 0"/>
<path transform="matrix(1.00002,0,0,-1,58.988817,58.691)" d="M0 0H-56.69363C-56.69363-31.31142-31.31142-56.69363 0-56.69363 31.31142-56.69363 56.69363-31.31142 56.69363 0Z" fill="#b3b3ff"/>
<path transform="matrix(1.00002,0,0,-1,58.988817,58.691)" stroke-width=".79701" stroke-linecap="butt" stroke-miterlimit="10" stroke-linejoin="miter" fill="none" stroke="#000000" d="M0 0H-56.69363C-56.69363-31.31142-31.31142-56.69363 0-56.69363 31.31142-56.69363 56.69363-31.31142 56.69363 0Z"/>
<path transform="matrix(1.00002,0,0,-1,58.988817,58.691)" d="M0 0H56.69363C56.69363 31.31142 31.31142 56.69363 0 56.69363Z" fill="#b3ffb3"/>
<path transform="matrix(1.00002,0,0,-1,58.988817,58.691)" stroke-width=".79701" stroke-linecap="butt" stroke-miterlimit="10" stroke-linejoin="miter" fill="none" stroke="#000000" d="M0 0H56.69363C56.69363 31.31142 31.31142 56.69363 0 56.69363Z"/>
<path transform="matrix(1.00002,0,0,-1,58.988817,58.691)" d="M0 0V56.69363C-31.31142 56.69363-56.69363 31.31142-56.69363 0Z" fill="#ffd9b3"/>
<path transform="matrix(1.00002,0,0,-1,58.988817,58.691)" stroke-width=".79701" stroke-linecap="butt" stroke-miterlimit="10" stroke-linejoin="miter" fill="none" stroke="#000000" d="M0 0V56.69363C-31.31142 56.69363-56.69363 31.31142-56.69363 0Z"/>
<use data-text="F" xlink:href="#font_1_54" transform="matrix(8.966579,0,0,-8.9664,65.432949,30.871003)"/>
<use data-text="o" xlink:href="#font_1_81" transform="matrix(8.966579,0,0,-8.9664,70.687358,30.871003)"/>
<use data-text="o" xlink:href="#font_1_81" transform="matrix(8.966579,0,0,-8.9664,75.54723,30.871003)"/>
<use data-text="d" xlink:href="#font_1_47" transform="matrix(8.966579,0,0,-8.9664,80.416088,30.871003)"/>
<use data-text="(" xlink:href="#font_1_85" transform="matrix(8.966579,0,0,-8.9664,88.611537,30.871003)"/>
<use data-text="2" xlink:href="#font_1_107" transform="matrix(8.966579,0,0,-8.9664,92.19817,30.871003)"/>
<use data-text="5" xlink:href="#font_1_56" transform="matrix(8.966579,0,0,-8.9664,96.807,30.871003)"/>
<use data-text="%" xlink:href="#font_1_87" transform="matrix(8.966579,0,0,-8.9664,101.415828,30.871003)"/>
<use data-text=")" xlink:href="#font_1_86" transform="matrix(8.966579,0,0,-8.9664,109.09121,30.871003)"/>
<use data-text="U" xlink:href="#font_1_108" transform="matrix(8.966579,0,0,-8.9664,9.335815,40.893)"/>
<use data-text="t" xlink:href="#font_1_105" transform="matrix(8.966579,0,0,-8.9664,16.249054,40.893)"/>
<use data-text="i" xlink:href="#font_1_66" transform="matrix(8.966579,0,0,-8.9664,19.835694,40.893)"/>
<use data-text="l" xlink:href="#font_1_72" transform="matrix(8.966579,0,0,-8.9664,22.400132,40.893)"/>
<use data-text="i" xlink:href="#font_1_66" transform="matrix(8.966579,0,0,-8.9664,24.96457,40.893)"/>
<use data-text="t" xlink:href="#font_1_105" transform="matrix(8.966579,0,0,-8.9664,27.529023,40.893)"/>
<use data-text="i" xlink:href="#font_1_66" transform="matrix(8.966579,0,0,-8.9664,31.115647,40.893)"/>
<use data-text="e" xlink:href="#font_1_50" transform="matrix(8.966579,0,0,-8.9664,33.6801,40.893)"/>
<use data-text="s" xlink:href="#font_1_98" transform="matrix(8.966579,0,0,-8.9664,37.777818,40.893)"/>
<use data-text="(" xlink:href="#font_1_85" transform="matrix(8.966579,0,0,-8.9664,44.484819,40.893)"/>
<use data-text="2" xlink:href="#font_1_107" transform="matrix(8.966579,0,0,-8.9664,48.071458,40.893)"/>
<use data-text="5" xlink:href="#font_1_56" transform="matrix(8.966579,0,0,-8.9664,52.680284,40.893)"/>
<use data-text="%" xlink:href="#font_1_87" transform="matrix(8.966579,0,0,-8.9664,57.28911,40.893)"/>
<use data-text=")" xlink:href="#font_1_86" transform="matrix(8.966579,0,0,-8.9664,64.96449,40.893)"/>
<use data-text="R" xlink:href="#font_1_95" transform="matrix(8.966579,0,0,-8.9664,35.756349,89.284008)"/>
<use data-text="e" xlink:href="#font_1_50" transform="matrix(8.966579,0,0,-8.9664,42.53508,89.284008)"/>
<use data-text="n" xlink:href="#font_1_77" transform="matrix(8.966579,0,0,-8.9664,46.632799,89.284008)"/>
<use data-text="t" xlink:href="#font_1_105" transform="matrix(8.966579,0,0,-8.9664,51.501649,89.284008)"/>
<use data-text="(" xlink:href="#font_1_85" transform="matrix(8.966579,0,0,-8.9664,58.15486,89.284008)"/>
<use data-text="5" xlink:href="#font_1_56" transform="matrix(8.966579,0,0,-8.9664,61.7415,89.284008)"/>
<use data-text="0" xlink:href="#font_1_121" transform="matrix(8.966579,0,0,-8.9664,66.35033,89.284008)"/>
<use data-text="%" xlink:href="#font_1_87" transform="matrix(8.966579,0,0,-8.9664,70.95915,89.284008)"/>
<use data-text=")" xlink:href="#font_1_86" transform="matrix(8.966579,0,0,-8.9664,78.63454,89.284008)"/>
</svg>
