<svg xmlns="http://www.w3.org/2000/svg" xmlns:xlink="http://www.w3.org/1999/xlink" xmlns:inkscape="http://www.inkscape.org/namespaces/inkscape" version="1.1" width="236" height="283" viewBox="0 0 236 283">
<defs>
<path id="font_1_2" d="M.33399964 .30233766C.33999635 .32835389 .36299134 .42037965 .43299867 .42037965 .43798829 .42037965 .46199037 .42037965 .48298646 .40734864 .45498658 .402359 .43499757 .37734986 .43499757 .35334779 .43499757 .33735658 .44599916 .31835938 .47299195 .31835938 .49499513 .31835938 .5269928 .3363495 .5269928 .37635804 .5269928 .42837525 .46798707 .4423828 .43399049 .4423828 .37599183 .4423828 .34098817 .38935853 .32899476 .36634828 .3039856 .43237306 .25 .4423828 .22099304 .4423828 .116989139 .4423828 .05999756 .3133545 .05999756 .28834535 .05999756 .27833558 .069992069 .27833558 .07199097 .27833558 .07998657 .27833558 .08299255 .28033448 .084991458 .28933717 .11898804 .39535523 .18499756 .42037965 .21899414 .42037965 .23799134 .42037965 .272995 .4113617 .272995 .35334779 .272995 .32235719 .2559967 .25532533 .21899414 .11528015 .20298767 .053268434 .16799927 .011245728 .12399292 .011245728 .117996219 .011245728 .09498596 .011245728 .07398987 .024276734 .09899902 .029266358 .12098694 .05027771 .12098694 .07827759 .12098694 .105270389 .09899902 .11328125 .083999637 .11328125 .053985597 .11328125 .0289917 .08728027 .0289917 .055267335 .0289917 .009246826 .07899475-.0107421879 .12298584-.0107421879 .18899536-.0107421879 .22499085 .059280397 .22799683 .0652771 .23999024 .028274537 .27598573-.0107421879 .33599855-.0107421879 .43899537-.0107421879 .49598695 .118270877 .49598695 .14328003 .49598695 .1532898 .4869995 .1532898 .48399354 .1532898 .47499085 .1532898 .47299195 .14929199 .47099305 .14228821 .43798829 .03527832 .36999513 .011245728 .33799745 .011245728 .29899598 .011245728 .2829895 .043273927 .2829895 .07727051 .2829895 .09927368 .2889862 .121276859 .2999878 .16529846L.33399964 .30233766Z"/>
<path id="font_1_3" d="M.48599244 .38136292C.48999024 .39537049 .48999024 .39736939 .48999024 .40437318 .48999024 .42237855 .47599793 .43138124 .46099855 .43138124 .45098878 .43138124 .43499757 .42536927 .42599488 .41036988 .42399598 .405365 .41600038 .37435914 .4119873 .35635377 .40499879 .33035279 .397995 .30334474 .3919983 .27633668L.34700013 .09628296C.34298707 .08126831 .2999878 .011245728 .23399353 .011245728 .18299866 .011245728 .17199707 .055267335 .17199707 .0922699 .17199707 .1382904 .18899536 .20030213 .22299195 .28833009 .23899842 .3293457 .24299622 .3403473 .24299622 .36035157 .24299622 .405365 .21099854 .4423828 .16099549 .4423828 .06599426 .4423828 .0289917 .29733277 .0289917 .28833009 .0289917 .27833558 .038986207 .27833558 .040985109 .27833558 .050994874 .27833558 .051986696 .28033448 .056991579 .29634095 .083999637 .3903656 .12399292 .42037965 .1579895 .42037965 .1659851 .42037965 .18299866 .42037965 .18299866 .3883667 .18299866 .36335755 .17298889 .3373413 .1659851 .31834413 .12599182 .21231079 .10798645 .1552887 .10798645 .10827637 .10798645 .019256592 .17098999-.0107421879 .22999573-.0107421879 .2689972-.0107421879 .30299378 .0062561037 .33099366 .03425598 .31799317-.017745972 .30599977-.06674194 .2659912-.11973572 .23999024-.15385437 .20199585-.18309021 .1559906-.18309021 .14199829-.18309021 .09700012-.18005371 .07998657-.14074707 .09599304-.14074707 .10899353-.14074707 .12298584-.1287384 .1329956-.11973572 .14299011-.10673523 .14299011-.08773804 .14299011-.056747438 .115997318-.052734376 .10598755-.052734376 .08299255-.052734376 .049987794-.068740848 .049987794-.11773682 .049987794-.16796875 .09399414-.20507813 .1559906-.20507813 .25898744-.20507813 .3619995-.11373901 .3899994-.00074768069L.48599244 .38136292Z"/>
<path id="font_2_7" d="M.68699648 .32714845C.70199587 .32714845 .72099307 .32714845 .72099307 .34713746 .72099307 .36714173 .70199587 .36714173 .6879883 .36714173H.08898926C.07499695 .36714173 .055999757 .36714173 .055999757 .34713746 .055999757 .32714845 .07499695 .32714845 .08999634 .32714845H.68699648M.6879883 .13284302C.70199587 .13284302 .72099307 .13284302 .72099307 .15284729 .72099307 .17285156 .70199587 .17285156 .68699648 .17285156H.08999634C.07499695 .17285156 .055999757 .17285156 .055999757 .15284729 .055999757 .13284302 .07499695 .13284302 .08898926 .13284302H.6879883Z"/>
<path id="font_2_6" d="M.2939911 .16503906V.07800293C.2939911 .041992189 .2919922 .0309906 .21798706 .0309906H.19699097V0C.23799134 .0029907227 .2899933 .0029907227 .33198548 .0029907227 .37399293 .0029907227 .4269867 .0029907227 .46798707 0V.0309906H.44699098C.37298585 .0309906 .37098695 .041992189 .37098695 .07800293V.16503906H.47099305V.19602967H.37098695V.65075686C.37098695 .67074587 .37098695 .6767578 .35499574 .6767578 .34599305 .6767578 .34298707 .6767578 .33499146 .66474917L.027999878 .19602967V.16503906H.2939911M.2999878 .19602967H.055999757L.2999878 .5688019V.19602967Z"/>
<path id="font_3_1" d="M.6589966 .23046875C.6759949 .23046875 .69400027 .23046875 .69400027 .25045777 .69400027 .27046205 .6759949 .27046205 .6589966 .27046205H.117996219C.100997928 .27046205 .08299255 .27046205 .08299255 .25045777 .08299255 .23046875 .100997928 .23046875 .117996219 .23046875H.6589966Z"/>
<path id="font_4_1" d="M.5049896 .18203736H.47099305C.46798707 .16001892 .45799256 .100997928 .44499208 .09098816 .43699647 .084991458 .3600006 .084991458 .34599305 .084991458H.1619873C.2669983 .17803955 .3019867 .20603943 .3619995 .25306703 .43598939 .312088 .5049896 .374115 .5049896 .46914674 .5049896 .5900879 .39898683 .6640625 .2709961 .6640625 .14698792 .6640625 .06298828 .57710269 .06298828 .4851532 .06298828 .43414308 .10598755 .42915345 .115997318 .42915345 .13999939 .42915345 .16899109 .44615174 .16899109 .48214723 .16899109 .5001526 .1619873 .53515627 .10998535 .53515627 .14099121 .6060791 .20899964 .62805178 .2559967 .62805178 .35598756 .62805178 .4079895 .5501404 .4079895 .46914674 .4079895 .38212586 .34599305 .3130951 .31399537 .27708436L.07299805 .038986207C.06298828 .02999878 .06298828 .027999878 .06298828 0H.47499085L.5049896 .18203736Z"/>
<path id="font_2_5" d="M.2899933 .35191346C.37199403 .37893678 .42999269 .4490509 .42999269 .52809146 .42999269 .6100464 .34199525 .6660156 .24598694 .6660156 .14498902 .6660156 .068984989 .60606387 .068984989 .53009036 .068984989 .49710084 .09098816 .47808839 .11999512 .47808839 .15098572 .47808839 .17098999 .50009158 .17098999 .5290985 .17098999 .57910159 .12399292 .57910159 .10899353 .57910159 .13999939 .62802127 .20599365 .64100649 .24198914 .64100649 .2829895 .64100649 .33799745 .6190338 .33799745 .5290985 .33799745 .51708987 .33599855 .45906068 .30999757 .4149933 .27999879 .36691285 .24598694 .36390687 .22099304 .36291505 .21299744 .36190797 .18899536 .35990907 .18199158 .35990907 .17399597 .35890199 .16699219 .35791017 .16699219 .3479004 .16699219 .33691407 .17399597 .33691407 .19099427 .33691407H.23498535C.31698609 .33691407 .35398866 .2686615 .35398866 .17037964 .35398866 .034469606 .2849884 .0055389406 .24099732 .0055389406 .19799805 .0055389406 .12298584 .022491456 .08799744 .08137512 .12298584 .07637024 .1539917 .09837341 .1539917 .1363678 .1539917 .17237854 .1269989 .19238281 .09799194 .19238281 .07398987 .19238281 .041992189 .17837525 .041992189 .1343689 .041992189 .043441774 .1349945-.022460938 .24398804-.022460938 .3659973-.022460938 .45700074 .06838989 .45700074 .17037964 .45700074 .252594 .3939972 .33088685 .2899933 .35191346Z"/>
<path id="font_2_1" d="M.33099366-.2400055C.33099366-.23701477 .33099366-.23500061 .31399537-.21800232 .18899536-.0920105 .15699768 .09700012 .15699768 .25 .15699768 .42399598 .19499207 .59799197 .31799317 .72299197 .33099366 .73498538 .33099366 .7369995 .33099366 .73999026 .33099366 .746994 .32699586 .75 .32099916 .75 .31098939 .75 .22099304 .6819916 .1619873 .5549927 .11099243 .44499208 .09899902 .33399964 .09899902 .25 .09899902 .17199707 .10998535 .050994874 .16499329-.06201172 .22499085-.18501282 .31098939-.25 .32099916-.25 .32699586-.25 .33099366-.24700928 .33099366-.2400055Z"/>
<path id="font_1_1" d="M.20298767 .0009918213C.20298767 .066986087 .17799378 .10598755 .13899231 .10598755 .10598755 .10598755 .085998538 .08099365 .085998538 .052993776 .085998538 .025985718 .10598755 0 .13899231 0 .15098572 0 .1639862 .0039978029 .17399597 .0129852299 .1769867 .01499939 .17799378 .015991211 .1789856 .015991211 .17999268 .015991211 .18099976 .01499939 .18099976 .0009918213 .18099976-.07316589 .1459961-.13328552 .11299133-.16635132 .101989749-.17736817 .101989749-.17936707 .101989749-.18237305 .101989749-.18936157 .10699463-.19335938 .11199951-.19335938 .12298584-.19335938 .20298767-.116256717 .20298767 .0009918213Z"/>
<path id="font_2_3" d="M.2939911 .64004519C.2939911 .66400149 .2939911 .6660156 .2709961 .6660156 .20899964 .60227969 .12098694 .60227969 .08898926 .60227969V.57128909C.10899353 .57128909 .16799927 .57128909 .21998596 .5972748V.07902527C.21998596 .042999269 .21699524 .0309906 .1269989 .0309906H.09498596V0C.12998963 .0029907227 .21699524 .0029907227 .25698854 .0029907227 .29699708 .0029907227 .38398744 .0029907227 .4189911 0V.0309906H.3869934C.29699708 .0309906 .2939911 .041992189 .2939911 .07902527V.64004519Z"/>
<path id="font_2_4" d="M.1269989 .07699585 .23298645 .18003845C.3889923 .31811524 .44898988 .3721466 .44898988 .47216798 .44898988 .5860901 .35899354 .6660156 .23699951 .6660156 .12399292 .6660156 .049987794 .57411196 .049987794 .48516847 .049987794 .4291687 .099990848 .4291687 .102996829 .4291687 .11999512 .4291687 .15499878 .44117738 .15499878 .48217774 .15499878 .5081787 .13699341 .5341797 .101989749 .5341797 .09399414 .5341797 .09199524 .5341797 .08898926 .5331726 .11199951 .59806826 .1659851 .63500979 .22399903 .63500979 .31498719 .63500979 .35798646 .5541382 .35798646 .47216798 .35798646 .39215089 .30799867 .31311036 .25299073 .25108338L.06098938 .036987306C.049987794 .025985718 .049987794 .023986817 .049987794 0H.42099L.44898988 .17404175H.42399598C.4189911 .14402771 .4119873 .1000061 .4019928 .084991458 .394989 .07699585 .32899476 .07699585 .30699159 .07699585H.1269989Z"/>
<path id="font_2_2" d="M.2889862 .25C.2889862 .32798768 .27799989 .44898988 .22299195 .56199648 .16299439 .68499758 .07699585 .75 .066986087 .75 .06098938 .75 .056991579 .74598696 .056991579 .73999026 .056991579 .7369995 .056991579 .73498538 .07598877 .71699526 .17399597 .6179962 .23098755 .45899964 .23098755 .25 .23098755 .07899475 .19400025-.09700012 .069992069-.2230072 .056991579-.23500061 .056991579-.23701477 .056991579-.2400055 .056991579-.2460022 .06098938-.25 .066986087-.25 .07699585-.25 .16699219-.18200684 .22599793-.055007936 .2769928 .054992677 .2889862 .16600037 .2889862 .25Z"/>
</defs>
<path transform="matrix(1.00005,0,0,-1.00002,159.74927,75.90026)" d="M-113.38724-170.08077-110.49484-158.65872-107.60246-147.5319-104.71008-136.70009-101.8177-126.16347-98.92532-115.92206-96.03294-105.97585-93.14055-96.32463-90.24818-86.96841-87.35579-77.90761-84.46341-69.1418-81.57103-60.67097-78.67865-52.49536-75.78627-44.61496-72.89389-37.02975-70.0015-29.73955-67.10913-22.74434-64.21674-16.04454-61.32436-9.63953-58.43198-3.52992-55.5396 2.28465-52.64722 7.80405-49.75484 13.02846-46.86244 17.95764-43.97008 22.59166-41.07768 26.93065-38.1853 30.97444-35.29292 34.72302-32.40054 38.17664-29.50816 41.33502-26.61578 44.19843-23.72339 46.76662-20.83102 49.0396-17.93863 51.01761-15.04625 52.7004-12.15387 54.08818-9.26149 55.18077-6.36911 55.97816-3.47673 56.48056-.58434 56.68773 2.308 56.59972 5.2004 56.21669 8.09276 55.53847 10.98515 54.56506 13.87753 53.29665 16.76991 51.73323 19.6623 49.8744 22.55469 47.72058 25.44705 45.27177 28.33945 42.52753 28.3468 42.52019Z" fill="#d9d9ff"/>
<path transform="matrix(1.00005,0,0,-1.00002,159.74927,75.90026)" stroke-width=".79701" stroke-linecap="butt" stroke-miterlimit="10" stroke-linejoin="miter" fill="none" stroke="#000000" d="M-136.06476 0H52.03113"/>
<path transform="matrix(1.00005,0,0,-1.00002,211.78299,75.90026)" d="M4.66248 0C3.28098 .25902 1.0361 1.0361-.51805 1.94269V-1.94269C1.0361-1.0361 3.28098-.25902 4.66248 0"/>
<use data-text="x" xlink:href="#font_1_2" transform="matrix(9.963098,0,0,-9.962799,213.59896,83.909427)"/>
<path transform="matrix(1.00005,0,0,-1.00002,159.74927,75.90026)" stroke-width=".79701" stroke-linecap="butt" stroke-miterlimit="10" stroke-linejoin="miter" fill="none" stroke="#000000" d="M0-184.25415V66.2045"/>
<path transform="matrix(0,-1.00002,-1.00005,-0,159.74927,9.694435)" d="M4.66248 0C3.28098 .25902 1.0361 1.0361-.51805 1.94269V-1.94269C1.0361-1.0361 3.28098-.25902 4.66248 0"/>
<use data-text="y" xlink:href="#font_1_3" transform="matrix(9.963098,0,0,-9.962799,150.78781,6.207863)"/>
<path transform="matrix(1.00005,0,0,-1.00002,159.74927,75.90026)" stroke-width=".79701" stroke-linecap="butt" stroke-miterlimit="10" stroke-linejoin="miter" fill="none" stroke="#0000cc" d="M-121.89136-205.3728-118.53616-191.14405-115.18095-177.31237-111.82576-163.87773-108.47057-150.8404-105.11537-138.20014-101.76016-125.95692-98.40497-114.11101-95.04977-102.66217-91.69458-91.6104-88.33939-80.95569-84.98419-70.69829-81.629-60.83794-78.27379-51.37465-74.9186-42.30846-71.5634-33.63953-68.2082-25.36768-64.853-17.49289-61.4978-10.0154-58.14261-2.93497-54.7874 3.74835-51.4322 10.03465-48.07701 15.92365-44.72182 21.41559-41.36662 26.51044-38.01143 31.20801-34.65623 35.50874-31.30104 39.41217-27.94583 42.91832-24.59064 46.02763-21.23544 48.73964-17.88023 51.05458-14.52504 52.97223-11.16985 54.49304-7.81465 55.61655-4.45944 56.343-1.10425 56.67216 2.25092 56.60425 5.60611 56.13927 8.9613 55.27722 12.3165 54.0179 15.67169 52.3615 19.0269 50.30801 22.3821 47.85748 25.73729 45.00964 29.09248 41.76476 32.4477 38.12279 35.80289 34.08353 39.15808 29.64742 42.51328 24.81381"/>
<use data-text="y" xlink:href="#font_1_3" transform="matrix(9.963098,0,0,-9.962799,179.34024,45.42965)" fill="#0000cc"/>
<use data-text="=" xlink:href="#font_2_7" transform="matrix(9.963098,0,0,-9.962799,187.34967,45.42965)" fill="#0000cc"/>
<use data-text="4" xlink:href="#font_2_6" transform="matrix(9.963098,0,0,-9.962799,197.85077,45.42965)" fill="#0000cc"/>
<use data-text="&#x2212;" xlink:href="#font_3_1" transform="matrix(9.963098,0,0,-9.962799,205.06153,45.42965)" fill="#0000cc"/>
<use data-text="x" xlink:href="#font_1_2" transform="matrix(9.963098,0,0,-9.962799,215.02506,45.42965)" fill="#0000cc"/>
<use data-text="2" xlink:href="#font_4_1" transform="matrix(6.9741489,0,0,-6.97394,220.71933,41.814577)" fill="#0000cc"/>
<path transform="matrix(1.00005,0,0,-1.00002,159.74927,75.90026)" stroke-width=".79701" stroke-linecap="butt" stroke-miterlimit="10" stroke-linejoin="miter" fill="none" stroke="#0000cc" d="M-127.56062-191.34085-120.47392-180.7108-113.38724-170.08077-106.30052-159.4507-99.21382-148.82067-92.1271-138.19062-85.04042-127.56056-77.95372-116.93051-70.867-106.30046-63.7803-95.67043-56.69362-85.04037-49.6069-74.41032-42.5202-63.78027-35.43349-53.15022-28.3468-42.52019-21.2601-31.89012-14.17339-21.26009-7.08669-10.63004 0 0 7.08669 10.63004 14.17339 21.26009 21.2601 31.89012 28.3468 42.52019 35.43349 53.15022 42.5202 63.78027"/>
<use data-text="y" xlink:href="#font_1_3" transform="matrix(9.963098,0,0,-9.962799,205.99057,22.258187)" fill="#0000cc"/>
<use data-text="=" xlink:href="#font_2_7" transform="matrix(9.963098,0,0,-9.962799,213.99999,22.258187)" fill="#0000cc"/>
<use data-text="3" xlink:href="#font_2_5" transform="matrix(9.963098,0,0,-9.962799,224.5011,22.258187)" fill="#0000cc"/>
<use data-text="x" xlink:href="#font_1_2" transform="matrix(9.963098,0,0,-9.962799,229.49777,22.258187)" fill="#0000cc"/>
<path transform="matrix(1.00005,0,0,-1.00002,159.74927,75.90026)" d="M-111.39468-170.08077C-111.39468-168.98029-112.28676-168.08821-113.38724-168.08821-114.4877-168.08821-115.37979-168.98029-115.37979-170.08077-115.37979-171.18123-114.4877-172.07332-113.38724-172.07332-112.28676-172.07332-111.39468-171.18123-111.39468-170.08077ZM-113.38724-170.08077"/>
<use data-text="(" xlink:href="#font_2_1" transform="matrix(9.963098,0,0,-9.962799,.21530152,256.97688)"/>
<use data-text="&#x2212;" xlink:href="#font_3_1" transform="matrix(9.963098,0,0,-9.962799,4.089493,256.97688)"/>
<use data-text="4" xlink:href="#font_2_6" transform="matrix(9.963098,0,0,-9.962799,11.838867,256.97688)"/>
<use data-text="," xlink:href="#font_1_1" transform="matrix(9.963098,0,0,-9.962799,16.820099,256.97688)"/>
<use data-text="&#x2212;" xlink:href="#font_3_1" transform="matrix(9.963098,0,0,-9.962799,21.248353,256.97688)"/>
<use data-text="1" xlink:href="#font_2_3" transform="matrix(9.963098,0,0,-9.962799,28.997712,256.97688)"/>
<use data-text="2" xlink:href="#font_2_4" transform="matrix(9.963098,0,0,-9.962799,33.979249,256.97688)"/>
<use data-text=")" xlink:href="#font_2_2" transform="matrix(9.963098,0,0,-9.962799,38.960817,256.97688)"/>
<path transform="matrix(1.00005,0,0,-1.00002,159.74927,75.90026)" d="M30.33936 42.52019C30.33936 43.62065 29.44728 44.51274 28.3468 44.51274 27.24634 44.51274 26.35425 43.62065 26.35425 42.52019 26.35425 41.41971 27.24634 40.52763 28.3468 40.52763 29.44728 40.52763 30.33936 41.41971 30.33936 42.52019ZM28.3468 42.52019"/>
<use data-text="(" xlink:href="#font_2_1" transform="matrix(9.963098,0,0,-9.962799,191.61786,27.36829)"/>
<use data-text="1" xlink:href="#font_2_3" transform="matrix(9.963098,0,0,-9.962799,195.48355,27.36829)"/>
<use data-text="," xlink:href="#font_1_1" transform="matrix(9.963098,0,0,-9.962799,200.4733,27.36829)"/>
<use data-text="3" xlink:href="#font_2_5" transform="matrix(9.963098,0,0,-9.962799,204.90152,27.36829)"/>
<use data-text=")" xlink:href="#font_2_2" transform="matrix(9.963098,0,0,-9.962799,209.88306,27.36829)"/>
</svg>
