<svg xmlns="http://www.w3.org/2000/svg" xmlns:xlink="http://www.w3.org/1999/xlink" xmlns:inkscape="http://www.inkscape.org/namespaces/inkscape" version="1.1" width="321" height="96" viewBox="0 0 321 96">
<defs>
<path id="font_1_1" d="M.1329956 .08345032C.18699646 .14138794 .21598816 .16636658 .2519989 .19732666 .2519989 .19833374 .31399537 .25128175 .34999085 .2872467 .44499208 .3803711 .46699525 .42837525 .46699525 .43237306 .46699525 .4423828 .45799256 .4423828 .45599366 .4423828 .44898988 .4423828 .44599916 .44036866 .44099427 .43138124 .41099549 .38337709 .3899994 .3671875 .3659973 .3671875 .34199525 .3671875 .32998658 .38237 .31498719 .3993683 .29599 .42237855 .2789917 .4423828 .24598694 .4423828 .17098999 .4423828 .125 .34918214 .125 .3282013 .125 .3231964 .12799073 .31721498 .13699341 .31721498 .1459961 .31721498 .147995 .3222046 .1499939 .3282013 .16899109 .37434388 .22698975 .37538148 .23498535 .37538148 .2559967 .37538148 .2749939 .36820985 .2979889 .36018373 .33799745 .34518434 .34899903 .34518434 .375 .34518434 .33898927 .30223084 .25498963 .2303009 .23599243 .21430969L.1459961 .13040161C.07798767 .06341553 .042999269 .0062561037 .042999269-.00074768069 .042999269-.0107421879 .052993776-.0107421879 .054992677-.0107421879 .06298828-.0107421879 .06498718-.008743286 .070999149 .002243042 .09399414 .037246705 .12399292 .064453128 .1559906 .064453128 .1789856 .064453128 .18899536 .055252077 .21398926 .026245118 .23098755 .0052490236 .24899292-.0107421879 .27799989-.0107421879 .3769989-.0107421879 .43499757 .1164093 .43499757 .14338684 .43499757 .14837647 .43099977 .15338135 .4229889 .15338135 .4139862 .15338135 .4119873 .14738465 .40899659 .14039612 .38598634 .07543945 .32199098 .056243898 .2889862 .056243898 .2689972 .056243898 .25099183 .06239319 .22999573 .06944275 .19599915 .08244324 .18099976 .08644104 .1599884 .08644104 .1579895 .08644104 .14199829 .08644104 .1329956 .08345032Z"/>
<path id="font_2_5" d="M.68699648 .32714845C.70199587 .32714845 .72099307 .32714845 .72099307 .34713746 .72099307 .36714173 .70199587 .36714173 .6879883 .36714173H.08898926C.07499695 .36714173 .055999757 .36714173 .055999757 .34713746 .055999757 .32714845 .07499695 .32714845 .08999634 .32714845H.68699648M.6879883 .13284302C.70199587 .13284302 .72099307 .13284302 .72099307 .15284729 .72099307 .17285156 .70199587 .17285156 .68699648 .17285156H.08999634C.07499695 .17285156 .055999757 .17285156 .055999757 .15284729 .055999757 .13284302 .07499695 .13284302 .08898926 .13284302H.6879883Z"/>
<path id="font_3_1" d="M.6589966 .23046875C.6759949 .23046875 .69400027 .23046875 .69400027 .25045777 .69400027 .27046205 .6759949 .27046205 .6589966 .27046205H.117996219C.100997928 .27046205 .08299255 .27046205 .08299255 .25045777 .08299255 .23046875 .100997928 .23046875 .117996219 .23046875H.6589966Z"/>
<path id="font_2_4" d="M.2899933 .35191346C.37199403 .37893678 .42999269 .4490509 .42999269 .52809146 .42999269 .6100464 .34199525 .6660156 .24598694 .6660156 .14498902 .6660156 .068984989 .60606387 .068984989 .53009036 .068984989 .49710084 .09098816 .47808839 .11999512 .47808839 .15098572 .47808839 .17098999 .50009158 .17098999 .5290985 .17098999 .57910159 .12399292 .57910159 .10899353 .57910159 .13999939 .62802127 .20599365 .64100649 .24198914 .64100649 .2829895 .64100649 .33799745 .6190338 .33799745 .5290985 .33799745 .51708987 .33599855 .45906068 .30999757 .4149933 .27999879 .36691285 .24598694 .36390687 .22099304 .36291505 .21299744 .36190797 .18899536 .35990907 .18199158 .35990907 .17399597 .35890199 .16699219 .35791017 .16699219 .3479004 .16699219 .33691407 .17399597 .33691407 .19099427 .33691407H.23498535C.31698609 .33691407 .35398866 .2686615 .35398866 .17037964 .35398866 .034469606 .2849884 .0055389406 .24099732 .0055389406 .19799805 .0055389406 .12298584 .022491456 .08799744 .08137512 .12298584 .07637024 .1539917 .09837341 .1539917 .1363678 .1539917 .17237854 .1269989 .19238281 .09799194 .19238281 .07398987 .19238281 .041992189 .17837525 .041992189 .1343689 .041992189 .043441774 .1349945-.022460938 .24398804-.022460938 .3659973-.022460938 .45700074 .06838989 .45700074 .17037964 .45700074 .252594 .3939972 .33088685 .2899933 .35191346Z"/>
<path id="font_2_3" d="M.1269989 .07699585 .23298645 .18003845C.3889923 .31811524 .44898988 .3721466 .44898988 .47216798 .44898988 .5860901 .35899354 .6660156 .23699951 .6660156 .12399292 .6660156 .049987794 .57411196 .049987794 .48516847 .049987794 .4291687 .099990848 .4291687 .102996829 .4291687 .11999512 .4291687 .15499878 .44117738 .15499878 .48217774 .15499878 .5081787 .13699341 .5341797 .101989749 .5341797 .09399414 .5341797 .09199524 .5341797 .08898926 .5331726 .11199951 .59806826 .1659851 .63500979 .22399903 .63500979 .31498719 .63500979 .35798646 .5541382 .35798646 .47216798 .35798646 .39215089 .30799867 .31311036 .25299073 .25108338L.06098938 .036987306C.049987794 .025985718 .049987794 .023986817 .049987794 0H.42099L.44898988 .17404175H.42399598C.4189911 .14402771 .4119873 .1000061 .4019928 .084991458 .394989 .07699585 .32899476 .07699585 .30699159 .07699585H.1269989Z"/>
<path id="font_2_2" d="M.2939911 .64004519C.2939911 .66400149 .2939911 .6660156 .2709961 .6660156 .20899964 .60227969 .12098694 .60227969 .08898926 .60227969V.57128909C.10899353 .57128909 .16799927 .57128909 .21998596 .5972748V.07902527C.21998596 .042999269 .21699524 .0309906 .1269989 .0309906H.09498596V0C.12998963 .0029907227 .21699524 .0029907227 .25698854 .0029907227 .29699708 .0029907227 .38398744 .0029907227 .4189911 0V.0309906H.3869934C.29699708 .0309906 .2939911 .041992189 .2939911 .07902527V.64004519Z"/>
<path id="font_2_1" d="M.45999146 .31976319C.45999146 .39982606 .45498658 .47988893 .41999818 .5539398 .37399293 .65000918 .2919922 .6660156 .25 .6660156 .18998719 .6660156 .116989139 .64001467 .07598877 .54693606 .04399109 .47789 .038986207 .39982606 .038986207 .31976319 .038986207 .24472046 .042999269 .15464783 .083999637 .07859802 .1269989-.0024719239 .19999695-.022460938 .24899292-.022460938 .30299378-.022460938 .3789978-.0014648438 .4229889 .09359741 .45498658 .16265869 .45999146 .2407074 .45999146 .31976319M.24899292-.00047302247C.20999146-.00047302247 .15098572 .024551392 .1329956 .12062073 .12199402 .18066406 .12199402 .2727356 .12199402 .3317871 .12199402 .39582826 .12199402 .46188355 .12998963 .5159149 .14898682 .63500979 .22399903 .64401248 .24899292 .64401248 .28199769 .64401248 .34799195 .6259918 .36698915 .52693179 .3769989 .47088624 .3769989 .39482118 .3769989 .3317871 .3769989 .25672914 .3769989 .18867493 .3659973 .12461853 .35099793 .029556275 .2939911-.00047302247 .24899292-.00047302247Z"/>
<path id="font_4_121" d="M.47299195 .31976319C.47299195 .38682557 .46998597 .47288514 .43499757 .5479431 .3909912 .64201357 .31498719 .6660156 .25698854 .6660156 .19699097 .6660156 .12098694 .64201357 .07699585 .5459442 .04499817 .47688294 .039993287 .39582826 .039993287 .31976319 .039993287 .25471498 .041992189 .15765381 .084991458 .07858276 .13198853-.0064697267 .20999146-.022460938 .2559967-.022460938 .32099916-.022460938 .394989 .0055389406 .43699647 .097595218 .46699525 .1646576 .47299195 .23971558 .47299195 .31976319M.3869934 .33177186C.3869934 .2697296 .3869934 .18566895 .3769989 .12661743 .35598756 .012542725 .28199769 .002532959 .25698854 .002532959 .22698975 .002532959 .15499878 .016540528 .13598633 .12962342 .12599182 .18867493 .12599182 .2747345 .12599182 .33177186 .12599182 .39982606 .12599182 .47888185 .13798523 .53393557 .1579895 .6230011 .22200012 .64100649 .2559967 .64100649 .2939911 .64100649 .35699464 .62098696 .37599183 .5279236 .3869934 .47288514 .3869934 .39482118 .3869934 .33177186Z"/>
<path id="font_4_88" d="M.19599915 .053985597C.19599915 .08299255 .17199707 .10798645 .14199829 .10798645 .11199951 .10798645 .08799744 .08299255 .08799744 .053985597 .08799744 .023986817 .11199951 0 .14199829 0 .17199707 0 .19599915 .023986817 .19599915 .053985597Z"/>
<path id="font_4_107" d="M.46199037 .17704773H.43399049C.43199159 .16404724 .42399598 .10501099 .41099549 .08900452 .40499879 .07998657 .33599855 .07998657 .31599427 .07998657H.13798523L.23699951 .17404175C.40098573 .3161316 .46199037 .36915589 .46199037 .4711914 .46199037 .5860901 .36698915 .6660156 .24398804 .6660156 .1289978 .6660156 .050994874 .575119 .050994874 .4841919 .050994874 .43418885 .09399414 .42919923 .102996829 .42919923 .125 .42919923 .15499878 .44519044 .15499878 .48120118 .15499878 .51119998 .13398743 .5332031 .102996829 .5332031 .09799194 .5332031 .09498596 .5332031 .09098816 .53219607 .114990238 .6030731 .1789856 .63500979 .23298645 .63500979 .33499146 .63500979 .36999513 .5401764 .36999513 .4711914 .36999513 .36915589 .29299928 .28611756 .24499512 .23408509L.06199646 .035995485C.050994874 .024993897 .050994874 .022994996 .050994874 0H.43399049L.46199037 .17704773Z"/>
<path id="font_4_82" d="M.43199159 0V.0309906H.3999939C.30699159 .0309906 .3039856 .042999269 .3039856 .08001709V.63912966C.3039856 .6640167 .30299378 .6660156 .27799989 .6660156 .21598816 .60227969 .12399292 .60227969 .09298706 .60227969V.57128909C.11199951 .57128909 .17298889 .57128909 .22698975 .5972748V.08001709C.22698975 .042999269 .22399903 .0309906 .1309967 .0309906H.09899902V0C.1349945 .0029907227 .22399903 .0029907227 .2649994 .0029907227 .30599977 .0029907227 .3959961 .0029907227 .43199159 0Z"/>
<path id="font_4_57" d="M.48399354 .16503906V.19602967H.38198854V.649765C.38198854 .669754 .38198854 .6767578 .36299134 .6767578 .35099793 .6767578 .34999085 .67575076 .34098817 .6617584L.0289917 .19602967V.16503906H.3019867V.07901001C.3019867 .041992189 .29899598 .0309906 .22399903 .0309906H.20199585V0C.2649994 .0029907227 .33499146 .0029907227 .34199525 .0029907227 .34700013 .0029907227 .4189911 .0029907227 .48199464 0V.0309906H.45999146C.3849945 .0309906 .38198854 .041992189 .38198854 .07901001V.16503906H.48399354M.30799867 .19602967H.06098938L.30799867 .56581118V.19602967Z"/>
<path id="font_4_106" d="M.46998597 .17008972C.46998597 .25709535 .40098573 .33110047 .30499269 .35209657 .397995 .38710023 .44198609 .46009828 .44198609 .5290985 .44198609 .60606387 .35699464 .6660156 .25299073 .6660156 .14898682 .6660156 .070999149 .60705569 .070999149 .5310974 .070999149 .49809266 .09298706 .47909547 .12199402 .47909547 .15098572 .47909547 .17199707 .50009158 .17199707 .5290985 .17199707 .5640869 .147995 .57910159 .11399841 .57910159 .13999939 .6210327 .20098877 .64100649 .25 .64100649 .33299256 .64100649 .34899903 .5750885 .34899903 .52809146 .34899903 .49809266 .34298707 .45005799 .31799317 .41201783 .2869873 .36695863 .2519989 .36495973 .22299195 .36296083 .19799805 .36094667 .19599915 .36094667 .18798828 .36094667 .1789856 .35995484 .17098999 .35894776 .17098999 .34794618 .17098999 .33496095 .1789856 .33496095 .19599915 .33496095H.24299622C.32998658 .33496095 .36799623 .2646637 .36799623 .16937256 .36799623 .04145813 .2999878 .0055389406 .24899292 .0055389406 .22999573 .0055389406 .1329956 .010528564 .08799744 .0843811 .12399292 .07939148 .1519928 .10437012 .1519928 .13838196 .1519928 .17137146 .1269989 .19238281 .09799194 .19238281 .07299805 .19238281 .042999269 .17736817 .042999269 .13537598 .042999269 .046447755 .13598633-.022460938 .2519989-.022460938 .3769989-.022460938 .46998597 .06741333 .46998597 .16937256V.17008972Z"/>
</defs>
<path transform="matrix(1,0,0,-1.00002,160.385,80.5843)" d="M-136.0652 0V1.70088C-118.23741 2.8707-108.33446 9.13374-90.71013 6.80309V0Z" fill="#e6e6ff"/>
<path transform="matrix(1,0,0,-1.00002,160.385,80.5843)" d="M-90.71013 0V6.80309C-69.39317 9.62207-56.17786 16.55507-45.35506 30.61424V0Z" fill="#ccccff"/>
<path transform="matrix(1,0,0,-1.00002,160.385,80.5843)" d="M-45.35506 0V30.61424C-30.13045 50.39151-30.4492 78.23708 0 78.23708V0Z" fill="#b3b3ff"/>
<path transform="matrix(1,0,0,-1.00002,160.385,80.5843)" d="M0 0V78.23708C30.4492 78.23708 30.13045 50.39151 45.35506 30.61424V0Z" fill="#b3b3ff"/>
<path transform="matrix(1,0,0,-1.00002,160.385,80.5843)" d="M45.35506 0V30.61424C56.17786 16.55507 69.39317 9.62207 90.71013 6.80309V0Z" fill="#ccccff"/>
<path transform="matrix(1,0,0,-1.00002,160.385,80.5843)" d="M90.71013 0V6.80309C108.33446 4.47246 118.23741 2.8707 136.0652 1.70088V0Z" fill="#e6e6ff"/>
<path transform="matrix(1,0,0,-1.00002,160.385,80.5843)" stroke-width="1.49442" stroke-linecap="butt" stroke-miterlimit="10" stroke-linejoin="miter" fill="none" stroke="#000000" d="M-158.74272 0H158.74272"/>
<path transform="matrix(1,0,0,-1.00002,160.385,80.5843)" stroke-width="1.49442" stroke-linecap="butt" stroke-miterlimit="10" stroke-linejoin="miter" fill="none" stroke="#000000" d="M-158.74272 .33995C-149.86463 .33995-144.4079-.57646-136.0652 1.70088-118.23741 2.8707-108.33446 9.13374-90.71013 6.80309-69.39317 9.62207-56.17786 16.55507-45.35506 30.61424-30.13045 50.39151-30.4492 78.23708 0 78.23708 30.4492 78.23708 30.13045 50.39151 45.35506 30.61424 56.17786 16.55507 69.39317 9.62207 90.71013 6.80309 108.33446 4.47246 118.23741 2.8707 136.0652 1.70088 144.9094 1.12054 149.86463 .33995 158.74272 .33995"/>
<path transform="matrix(1,0,0,-1.00002,160.385,80.5843)" stroke-width=".3985" stroke-linecap="butt" stroke-dasharray="2.98883,2.98883" stroke-miterlimit="10" stroke-linejoin="miter" fill="none" stroke="#000000" stroke-opacity=".6" d="M-136.0652 0V1.70088"/>
<path transform="matrix(1,0,0,-1.00002,160.385,80.5843)" stroke-width=".3985" stroke-linecap="butt" stroke-dasharray="2.98883,2.98883" stroke-miterlimit="10" stroke-linejoin="miter" fill="none" stroke="#000000" stroke-opacity=".6" d="M-90.71013 0V6.80309"/>
<path transform="matrix(1,0,0,-1.00002,160.385,80.5843)" stroke-width=".3985" stroke-linecap="butt" stroke-dasharray="2.98883,2.98883" stroke-miterlimit="10" stroke-linejoin="miter" fill="none" stroke="#000000" stroke-opacity=".6" d="M-45.35506 0V30.61424"/>
<path transform="matrix(1,0,0,-1.00002,160.385,80.5843)" stroke-width=".3985" stroke-linecap="butt" stroke-dasharray="2.98883,2.98883" stroke-miterlimit="10" stroke-linejoin="miter" fill="none" stroke="#000000" stroke-opacity=".6" d="M0 0V78.23708"/>
<path transform="matrix(1,0,0,-1.00002,160.385,80.5843)" stroke-width=".3985" stroke-linecap="butt" stroke-dasharray="2.98883,2.98883" stroke-miterlimit="10" stroke-linejoin="miter" fill="none" stroke="#000000" stroke-opacity=".6" d="M45.35506 0V30.61424"/>
<path transform="matrix(1,0,0,-1.00002,160.385,80.5843)" stroke-width=".3985" stroke-linecap="butt" stroke-dasharray="2.98883,2.98883" stroke-miterlimit="10" stroke-linejoin="miter" fill="none" stroke="#000000" stroke-opacity=".6" d="M90.71013 0V6.80309"/>
<path transform="matrix(1,0,0,-1.00002,160.385,80.5843)" stroke-width=".3985" stroke-linecap="butt" stroke-dasharray="2.98883,2.98883" stroke-miterlimit="10" stroke-linejoin="miter" fill="none" stroke="#000000" stroke-opacity=".6" d="M136.0652 0V1.70088"/>
<use data-text="z" xlink:href="#font_1_1" transform="matrix(9.9626,0,0,-9.962799,8.776993,93.92656)"/>
<use data-text="=" xlink:href="#font_2_5" transform="matrix(9.9626,0,0,-9.962799,16.61499,93.92656)"/>
<use data-text="&#x2212;" xlink:href="#font_3_1" transform="matrix(9.9626,0,0,-9.962799,27.130982,93.92656)"/>
<use data-text="3" xlink:href="#font_2_4" transform="matrix(9.9626,0,0,-9.962799,34.879976,93.92656)"/>
<use data-text="z" xlink:href="#font_1_1" transform="matrix(9.9626,0,0,-9.962799,54.132005,93.92656)"/>
<use data-text="=" xlink:href="#font_2_5" transform="matrix(9.9626,0,0,-9.962799,61.97,93.92656)"/>
<use data-text="&#x2212;" xlink:href="#font_3_1" transform="matrix(9.9626,0,0,-9.962799,72.48599,93.92656)"/>
<use data-text="2" xlink:href="#font_2_3" transform="matrix(9.9626,0,0,-9.962799,80.234989,93.92656)"/>
<use data-text="z" xlink:href="#font_1_1" transform="matrix(9.9626,0,0,-9.962799,99.487,93.92656)"/>
<use data-text="=" xlink:href="#font_2_5" transform="matrix(9.9626,0,0,-9.962799,107.325,93.92656)"/>
<use data-text="&#x2212;" xlink:href="#font_3_1" transform="matrix(9.9626,0,0,-9.962799,117.84099,93.92656)"/>
<use data-text="1" xlink:href="#font_2_2" transform="matrix(9.9626,0,0,-9.962799,125.58998,93.92656)"/>
<use data-text="z" xlink:href="#font_1_1" transform="matrix(9.9626,0,0,-9.962799,148.717,93.92656)"/>
<use data-text="=" xlink:href="#font_2_5" transform="matrix(9.9626,0,0,-9.962799,156.555,93.92656)"/>
<use data-text="0" xlink:href="#font_2_1" transform="matrix(9.9626,0,0,-9.962799,167.05558,93.92656)"/>
<use data-text="z" xlink:href="#font_1_1" transform="matrix(9.9626,0,0,-9.962799,194.07199,93.92656)"/>
<use data-text="=" xlink:href="#font_2_5" transform="matrix(9.9626,0,0,-9.962799,201.90999,93.92656)"/>
<use data-text="1" xlink:href="#font_2_2" transform="matrix(9.9626,0,0,-9.962799,212.41057,93.92656)"/>
<use data-text="z" xlink:href="#font_1_1" transform="matrix(9.9626,0,0,-9.962799,239.427,93.92656)"/>
<use data-text="=" xlink:href="#font_2_5" transform="matrix(9.9626,0,0,-9.962799,247.26499,93.92656)"/>
<use data-text="2" xlink:href="#font_2_3" transform="matrix(9.9626,0,0,-9.962799,257.76557,93.92656)"/>
<use data-text="z" xlink:href="#font_1_1" transform="matrix(9.9626,0,0,-9.962799,284.78199,93.92656)"/>
<use data-text="=" xlink:href="#font_2_5" transform="matrix(9.9626,0,0,-9.962799,292.62,93.92656)"/>
<use data-text="3" xlink:href="#font_2_4" transform="matrix(9.9626,0,0,-9.962799,303.12059,93.92656)"/>
<use data-text="0" xlink:href="#font_4_121" transform="matrix(8.9664,0,0,-8.966579,38.801988,73.26615)"/>
<use data-text="." xlink:href="#font_4_88" transform="matrix(8.9664,0,0,-8.966579,43.41072,73.26615)"/>
<use data-text="0" xlink:href="#font_4_121" transform="matrix(8.9664,0,0,-8.966579,45.975114,73.26615)"/>
<use data-text="2" xlink:href="#font_4_107" transform="matrix(8.9664,0,0,-8.966579,50.583848,73.26615)"/>
<use data-text="0" xlink:href="#font_4_121" transform="matrix(8.9664,0,0,-8.966579,84.157,66.513019)"/>
<use data-text="." xlink:href="#font_4_88" transform="matrix(8.9664,0,0,-8.966579,88.76573,66.513019)"/>
<use data-text="1" xlink:href="#font_4_82" transform="matrix(8.9664,0,0,-8.966579,91.330127,66.513019)"/>
<use data-text="4" xlink:href="#font_4_57" transform="matrix(8.9664,0,0,-8.966579,95.93886,66.513019)"/>
<use data-text="0" xlink:href="#font_4_121" transform="matrix(8.9664,0,0,-8.966579,129.512,46.102609)"/>
<use data-text="." xlink:href="#font_4_88" transform="matrix(8.9664,0,0,-8.966579,134.12073,46.102609)"/>
<use data-text="3" xlink:href="#font_4_106" transform="matrix(8.9664,0,0,-8.966579,136.68512,46.102609)"/>
<use data-text="4" xlink:href="#font_4_57" transform="matrix(8.9664,0,0,-8.966579,141.29386,46.102609)"/>
<use data-text="0" xlink:href="#font_4_121" transform="matrix(8.9664,0,0,-8.966579,174.867,46.102609)"/>
<use data-text="." xlink:href="#font_4_88" transform="matrix(8.9664,0,0,-8.966579,179.47574,46.102609)"/>
<use data-text="3" xlink:href="#font_4_106" transform="matrix(8.9664,0,0,-8.966579,182.04013,46.102609)"/>
<use data-text="4" xlink:href="#font_4_57" transform="matrix(8.9664,0,0,-8.966579,186.64887,46.102609)"/>
<use data-text="0" xlink:href="#font_4_121" transform="matrix(8.9664,0,0,-8.966579,220.222,66.513019)"/>
<use data-text="." xlink:href="#font_4_88" transform="matrix(8.9664,0,0,-8.966579,224.83074,66.513019)"/>
<use data-text="1" xlink:href="#font_4_82" transform="matrix(8.9664,0,0,-8.966579,227.39513,66.513019)"/>
<use data-text="4" xlink:href="#font_4_57" transform="matrix(8.9664,0,0,-8.966579,232.00386,66.513019)"/>
<use data-text="0" xlink:href="#font_4_121" transform="matrix(8.9664,0,0,-8.966579,265.577,73.26615)"/>
<use data-text="." xlink:href="#font_4_88" transform="matrix(8.9664,0,0,-8.966579,270.18574,73.26615)"/>
<use data-text="0" xlink:href="#font_4_121" transform="matrix(8.9664,0,0,-8.966579,272.75013,73.26615)"/>
<use data-text="2" xlink:href="#font_4_107" transform="matrix(8.9664,0,0,-8.966579,277.35887,73.26615)"/>
</svg>
