<svg xmlns="http://www.w3.org/2000/svg" xmlns:xlink="http://www.w3.org/1999/xlink" xmlns:inkscape="http://www.inkscape.org/namespaces/inkscape" version="1.1" width="175" height="95" viewBox="0 0 175 95">
<defs>
<path id="font_1_1" d="M.33399964 .30233766C.33999635 .32835389 .36299134 .42037965 .43299867 .42037965 .43798829 .42037965 .46199037 .42037965 .48298646 .40734864 .45498658 .402359 .43499757 .37734986 .43499757 .35334779 .43499757 .33735658 .44599916 .31835938 .47299195 .31835938 .49499513 .31835938 .5269928 .3363495 .5269928 .37635804 .5269928 .42837525 .46798707 .4423828 .43399049 .4423828 .37599183 .4423828 .34098817 .38935853 .32899476 .36634828 .3039856 .43237306 .25 .4423828 .22099304 .4423828 .116989139 .4423828 .05999756 .3133545 .05999756 .28834535 .05999756 .27833558 .069992069 .27833558 .07199097 .27833558 .07998657 .27833558 .08299255 .28033448 .084991458 .28933717 .11898804 .39535523 .18499756 .42037965 .21899414 .42037965 .23799134 .42037965 .272995 .4113617 .272995 .35334779 .272995 .32235719 .2559967 .25532533 .21899414 .11528015 .20298767 .053268434 .16799927 .011245728 .12399292 .011245728 .117996219 .011245728 .09498596 .011245728 .07398987 .024276734 .09899902 .029266358 .12098694 .05027771 .12098694 .07827759 .12098694 .105270389 .09899902 .11328125 .083999637 .11328125 .053985597 .11328125 .0289917 .08728027 .0289917 .055267335 .0289917 .009246826 .07899475-.0107421879 .12298584-.0107421879 .18899536-.0107421879 .22499085 .059280397 .22799683 .0652771 .23999024 .028274537 .27598573-.0107421879 .33599855-.0107421879 .43899537-.0107421879 .49598695 .118270877 .49598695 .14328003 .49598695 .1532898 .4869995 .1532898 .48399354 .1532898 .47499085 .1532898 .47299195 .14929199 .47099305 .14228821 .43798829 .03527832 .36999513 .011245728 .33799745 .011245728 .29899598 .011245728 .2829895 .043273927 .2829895 .07727051 .2829895 .09927368 .2889862 .121276859 .2999878 .16529846L.33399964 .30233766Z"/>
<path id="font_1_2" d="M.48599244 .38136292C.48999024 .39537049 .48999024 .39736939 .48999024 .40437318 .48999024 .42237855 .47599793 .43138124 .46099855 .43138124 .45098878 .43138124 .43499757 .42536927 .42599488 .41036988 .42399598 .405365 .41600038 .37435914 .4119873 .35635377 .40499879 .33035279 .397995 .30334474 .3919983 .27633668L.34700013 .09628296C.34298707 .08126831 .2999878 .011245728 .23399353 .011245728 .18299866 .011245728 .17199707 .055267335 .17199707 .0922699 .17199707 .1382904 .18899536 .20030213 .22299195 .28833009 .23899842 .3293457 .24299622 .3403473 .24299622 .36035157 .24299622 .405365 .21099854 .4423828 .16099549 .4423828 .06599426 .4423828 .0289917 .29733277 .0289917 .28833009 .0289917 .27833558 .038986207 .27833558 .040985109 .27833558 .050994874 .27833558 .051986696 .28033448 .056991579 .29634095 .083999637 .3903656 .12399292 .42037965 .1579895 .42037965 .1659851 .42037965 .18299866 .42037965 .18299866 .3883667 .18299866 .36335755 .17298889 .3373413 .1659851 .31834413 .12599182 .21231079 .10798645 .1552887 .10798645 .10827637 .10798645 .019256592 .17098999-.0107421879 .22999573-.0107421879 .2689972-.0107421879 .30299378 .0062561037 .33099366 .03425598 .31799317-.017745972 .30599977-.06674194 .2659912-.11973572 .23999024-.15385437 .20199585-.18309021 .1559906-.18309021 .14199829-.18309021 .09700012-.18005371 .07998657-.14074707 .09599304-.14074707 .10899353-.14074707 .12298584-.1287384 .1329956-.11973572 .14299011-.10673523 .14299011-.08773804 .14299011-.056747438 .115997318-.052734376 .10598755-.052734376 .08299255-.052734376 .049987794-.068740848 .049987794-.11773682 .049987794-.16796875 .09399414-.20507813 .1559906-.20507813 .25898744-.20507813 .3619995-.11373901 .3899994-.00074768069L.48599244 .38136292Z"/>
<path id="font_2_1" d="M.45999146 .31976319C.45999146 .39982606 .45498658 .47988893 .41999818 .5539398 .37399293 .65000918 .2919922 .6660156 .25 .6660156 .18998719 .6660156 .116989139 .64001467 .07598877 .54693606 .04399109 .47789 .038986207 .39982606 .038986207 .31976319 .038986207 .24472046 .042999269 .15464783 .083999637 .07859802 .1269989-.0024719239 .19999695-.022460938 .24899292-.022460938 .30299378-.022460938 .3789978-.0014648438 .4229889 .09359741 .45498658 .16265869 .45999146 .2407074 .45999146 .31976319M.24899292-.00047302247C.20999146-.00047302247 .15098572 .024551392 .1329956 .12062073 .12199402 .18066406 .12199402 .2727356 .12199402 .3317871 .12199402 .39582826 .12199402 .46188355 .12998963 .5159149 .14898682 .63500979 .22399903 .64401248 .24899292 .64401248 .28199769 .64401248 .34799195 .6259918 .36698915 .52693179 .3769989 .47088624 .3769989 .39482118 .3769989 .3317871 .3769989 .25672914 .3769989 .18867493 .3659973 .12461853 .35099793 .029556275 .2939911-.00047302247 .24899292-.00047302247Z"/>
<path id="font_2_2" d="M.2939911 .64004519C.2939911 .66400149 .2939911 .6660156 .2709961 .6660156 .20899964 .60227969 .12098694 .60227969 .08898926 .60227969V.57128909C.10899353 .57128909 .16799927 .57128909 .21998596 .5972748V.07902527C.21998596 .042999269 .21699524 .0309906 .1269989 .0309906H.09498596V0C.12998963 .0029907227 .21699524 .0029907227 .25698854 .0029907227 .29699708 .0029907227 .38398744 .0029907227 .4189911 0V.0309906H.3869934C.29699708 .0309906 .2939911 .041992189 .2939911 .07902527V.64004519Z"/>
<path id="font_2_3" d="M.1269989 .07699585 .23298645 .18003845C.3889923 .31811524 .44898988 .3721466 .44898988 .47216798 .44898988 .5860901 .35899354 .6660156 .23699951 .6660156 .12399292 .6660156 .049987794 .57411196 .049987794 .48516847 .049987794 .4291687 .099990848 .4291687 .102996829 .4291687 .11999512 .4291687 .15499878 .44117738 .15499878 .48217774 .15499878 .5081787 .13699341 .5341797 .101989749 .5341797 .09399414 .5341797 .09199524 .5341797 .08898926 .5331726 .11199951 .59806826 .1659851 .63500979 .22399903 .63500979 .31498719 .63500979 .35798646 .5541382 .35798646 .47216798 .35798646 .39215089 .30799867 .31311036 .25299073 .25108338L.06098938 .036987306C.049987794 .025985718 .049987794 .023986817 .049987794 0H.42099L.44898988 .17404175H.42399598C.4189911 .14402771 .4119873 .1000061 .4019928 .084991458 .394989 .07699585 .32899476 .07699585 .30699159 .07699585H.1269989Z"/>
<path id="font_3_1" d="M.6589966 .23046875C.6759949 .23046875 .69400027 .23046875 .69400027 .25045777 .69400027 .27046205 .6759949 .27046205 .6589966 .27046205H.117996219C.100997928 .27046205 .08299255 .27046205 .08299255 .25045777 .08299255 .23046875 .100997928 .23046875 .117996219 .23046875H.6589966Z"/>
<path id="font_4_95" d="M.7519989 .088897708C.7519989 .09489441 .7519989 .10687256 .73799136 .10687256 .72499087 .10687256 .72499087 .09788513 .723999 .08988953 .71899417 .026992798 .6879883 .0029907227 .6569977 .0029907227 .625 .0029907227 .6139984 .022994996 .60598757 .039978029 .5970001 .061935426 .58799746 .12983704 .58200076 .17475891 .57398989 .23666382 .5649872 .3035431 .45399476 .33850099 .548996 .36550904 .6269989 .42453004 .6269989 .5025635 .6269989 .601593 .5059967 .6826172 .35899354 .6826172H.039993287V.6516113H.06298828C.13999939 .6516113 .14199829 .64060977 .14199829 .6035919V.07891846C.14199829 .04197693 .13999939 .0309906 .06298828 .0309906H.039993287V0C.08699036 .0029907227 .13699341 .0029907227 .18499756 .0029907227 .23298645 .0029907227 .2829895 .0029907227 .33099366 0V.0309906H.30799867C.23098755 .0309906 .22898865 .04197693 .22898865 .07891846V.32850648H.34899903C.42099 .32850648 .45298768 .29057313 .45700074 .28657533 .4869995 .24963379 .4869995 .23466492 .4869995 .16377259 .4869995 .09687805 .4869995 .052963258 .5349884 .01499939 .58200076-.022003174 .6419983-.022003174 .6529999-.022003174 .7369995-.022003174 .7519989 .064941409 .7519989 .088897708M.5249939 .5025635C.5249939 .41653443 .48098756 .35351563 .34498597 .35351563H.22898865V.6105957C.22898865 .63661196 .23098755 .6456146 .25 .6496124 .25898744 .6516113 .29100038 .6516113 .31199647 .6516113 .397995 .6516113 .5249939 .6516113 .5249939 .5025635Z"/>
<path id="font_4_50" d="M.4269867 .11936951C.4269867 .12637329 .42199708 .13237 .41299439 .13237 .40299989 .13237 .3999939 .12536621 .39898683 .12136841 .36499024 .019256592 .27598573 .01725769 .26098634 .01725769 .21299744 .01725769 .17199707 .044281007 .14898682 .078323367 .115997318 .12736511 .114990238 .18743897 .114990238 .22949219H.3999939C.42199708 .22949219 .4269867 .22949219 .4269867 .25048829 .4269867 .35333253 .37098695 .4482422 .24299622 .4482422 .12298584 .4482422 .0289917 .3443451 .0289917 .22047425 .0289917 .08932495 .13398743-.0107421879 .2559967-.0107421879 .37799073-.0107421879 .4269867 .096343997 .4269867 .11936951M.35899354 .253479H.115997318C.125 .40725709 .21499634 .42323304 .24299622 .42323304 .2979889 .42323304 .35798646 .38130189 .35899354 .253479Z"/>
<path id="font_4_59" d="M.49899293 .40338136C.49899293 .42237855 .4850006 .45336915 .44499208 .45336915 .41600038 .45336915 .37098695 .4423828 .33599855 .40637208 .30899049 .42837525 .269989 .4423828 .22799683 .4423828 .1329956 .4423828 .06098938 .3743744 .06098938 .29537965 .06098938 .2443695 .09098816 .20837403 .10699463 .19337464 .10499573 .19137573 .07699585 .15637207 .07699585 .11038208 .07699585 .07637024 .09298706 .040374757 .11999512 .022369385 .068984989 .005874634 .0289917-.03111267 .0289917-.07809448 .0289917-.14907837 .12799073-.20605469 .2559967-.20605469 .3789978-.20605469 .48399354-.15307617 .48399354-.07609558 .48399354-.035110475 .46499635 .008880615 .42799378 .03288269 .37199403 .067871097 .31399537 .067871097 .21899414 .067871097 .19898987 .067871097 .16699219 .067871097 .15899658 .069885257 .12998963 .075927738 .11099243 .1031189 .11099243 .13534546 .11099243 .15142823 .115997318 .16642761 .125 .1794281 .1499939 .16343689 .18099976 .1484375 .22698975 .1484375 .32199098 .1484375 .3939972 .21643067 .3939972 .29542542 .3939972 .34443666 .3659973 .37843324 .35299684 .39242555 .3929901 .42843629 .43998719 .42843629 .45199586 .42843629 .44699098 .4254303 .43899537 .42042542 .43899537 .4024353 .43899537 .39143373 .44599916 .37243653 .46899415 .37243653 .48298646 .37243653 .49899293 .38243104 .49899293 .40342713V.40338136M.31698609 .29542542C.31698609 .27243043 .31698609 .1754303 .22698975 .1754303 .13798523 .17520142 .13798523 .27326966 .13798523 .2952881 .13798523 .3223114 .13999939 .35632325 .15699768 .38034059 .17199707 .4003601 .19898987 .41537477 .22698975 .41537477 .31698609 .41537477 .31698609 .31829835 .31698609 .2952881V.29542542M.42799378-.07698059C.42799378-.1340332 .35099793-.17906189 .25698854-.17906189 .15899658-.17912293 .084991458-.13212586 .084991458-.07711792 .084991458-.06112671 .09498596 .0048828127 .18099976 .0048828127H.272995C.30499269 .0048828127 .42799378 .0038757325 .42799378-.07711792V-.07698059Z"/>
<path id="font_4_66" d="M.25299073 0V.0309906C.18798828 .0309906 .18399048 .035995485 .18399048 .075042728V.4423828L.039993287 .43066407V.3996582C.10398865 .3996582 .11299133 .3936615 .11299133 .3447113V.07695007C.11299133 .0309906 .101989749 .0309906 .035995485 .0309906V0C.08099365 .0019989014 .101989749 .0029907227 .1459961 .0029907227 .1619873 .0029907227 .20399475 .0029907227 .25299073 0M.19699097 .6028137C.19699097 .63282778 .17298889 .6568146 .14299011 .6568146 .11299133 .6568146 .08898926 .63282778 .08898926 .6028137 .08898926 .57281497 .11299133 .5488281 .14299011 .5488281 .17298889 .5488281 .19699097 .57281497 .19699097 .6028137Z"/>
<path id="font_4_81" d="M.48399354 .21324158C.48399354 .34423829 .37998963 .4482422 .25698854 .4482422 .12998963 .4482422 .0289917 .3412323 .0289917 .21324158 .0289917 .08824158 .1329956-.0107421879 .2559967-.0107421879 .3829956-.0107421879 .48399354 .09024048 .48399354 .21324158M.397995 .22224427C.397995 .1852417 .397995 .12724304 .37298585 .08325195 .34498597 .037246705 .29899598 .01725769 .25698854 .01725769 .20698548 .01725769 .16499329 .042251588 .14199829 .08125305 .115997318 .12324524 .114990238 .17623902 .114990238 .22224427 .114990238 .25924684 .114990238 .3162384 .13999939 .35723878 .16999817 .40823365 .21998596 .42323304 .2559967 .42323304 .31298829 .42323304 .35398866 .39123536 .37399293 .35723878 .39698792 .31523133 .397995 .26423646 .397995 .22224427Z"/>
<path id="font_4_77" d="M.5469971 0V.0309906C.49598695 .03125 .47099305 .03125 .46998597 .0622406V.25431825C.46998597 .3373413 .46998597 .36636354 .44198609 .4013672 .4189911 .42938233 .3809967 .4423828 .33099366 .4423828 .23799134 .4423828 .19499207 .37335206 .18099976 .34535218H.17999268V.4423828L.034988405 .43066407V.3996582C.102996829 .3996582 .11199951 .39266969 .11199951 .34370423V.07695007C.11199951 .0309906 .100997928 .0309906 .034988405 .0309906V0C.08198547 .0019989014 .100997928 .0029907227 .14898682 .0029907227 .19699097 .0029907227 .20999146 .0019989014 .2630005 0V.0309906C.19699097 .0309906 .18598938 .0309906 .18598938 .07695007V.25878907C.18598938 .36532594 .26098634 .41737367 .32398988 .41737367 .3829956 .41737367 .3959961 .3683319 .3959961 .30825807V.077041629C.3959961 .0309906 .3849945 .0309906 .31900025 .0309906V0C.3659973 .0019989014 .3849945 .0029907227 .43299867 .0029907227 .48098756 .0029907227 .49398805 .0019989014 .5469971 0Z"/>
<path id="font_5_1" d="M.16099549 .07595825C.1519928 .039993287 .1499939 .0309906 .07499695 .0309906 .055999757 .0309906 .04499817 .0309906 .04499817 .0129852299 .04499817 0 .054992677 0 .07299805 0H.4099884C.6239929 0 .82299807 .21188355 .82299807 .42774964 .82299807 .56466677 .7369995 .6826172 .58099368 .6826172H.23799134C.21998596 .6826172 .20799256 .6826172 .20799256 .6646118 .20799256 .6516113 .21699524 .6516113 .23799134 .6516113 .24198914 .6516113 .2599945 .6516113 .27598573 .6496124 .29299928 .6476135 .2999878 .6456146 .2999878 .63461306 .2999878 .6296234 .29899598 .6256256 .29599 .614624L.16099549 .07595825M.3809967 .6126251C.3899994 .64860537 .3919983 .6516113 .43399049 .6516113H.5469971C.651001 .6516113 .73399356 .5936432 .73399356 .46472169 .73399356 .40675355 .70899966 .24685669 .6309967 .1479187 .58499148 .09095764 .5019989 .0309906 .3919983 .0309906H.27198792C.2579956 .0309906 .2559967 .0309906 .2519989 .03199768 .24198914 .032989503 .23899842 .033996583 .23899842 .040985109 .23899842 .04399109 .23899842 .04598999 .24398804 .063964847L.3809967 .6126251Z"/>
</defs>
<path transform="matrix(1.00006,0,0,-1.00006,86.3391,83.275218)" d="M68.0322 0 67.93356 3.6198 67.64497 7.23029 67.16434 10.81999 66.4927 14.3796 65.63211 17.89871 64.58676 21.36594 63.35767 24.77293 61.94897 28.10936 60.36485 31.36688 58.60945 34.53616 56.689 37.60579 54.60866 40.57057 52.37053 43.4191 49.98604 46.14511 47.4583 48.7393 44.79872 51.1975 42.00937 53.50931 39.10272 55.66957 36.08499 57.67206 32.9645 59.51051 29.74953 61.17976 26.45049 62.67668 23.07773 63.9961 19.63855 65.13176 16.14331 66.08575 12.60446 66.85085 9.02928 67.42699 5.42711 67.81107 1.80937 68.00415H-1.81041L-5.42711 67.81107-9.02824 67.42699-12.60342 66.85085-16.14331 66.0868-19.63855 65.1328-23.07773 63.9961-26.45049 62.67668-29.74953 61.17976-32.9645 59.51051-36.08395 57.67206-39.10272 55.66855-42.00937 53.50829-44.79872 51.1975-47.4583 48.74033-49.98502 46.14511-52.3695 43.4191-54.60658 40.57057-56.689 37.60579-58.60945 34.53616-60.36485 31.36688-61.94897 28.10936-63.35767 24.77293-64.58676 21.36594-65.63211 17.89767-66.49165 14.3796-67.1633 10.82101-67.64497 7.23029-67.93356 3.6198-68.03114 0H-34.0161L-33.96678 1.80989-33.82248 3.61513-33.58217 5.40999-33.24634 7.18979-32.81604 8.94936-32.29337 10.68295-31.67883 12.38646-30.97447 14.05467-30.18242 15.68343-29.30472 17.26807-28.3445 18.80289-27.30432 20.28528-26.18526 21.70955-24.99301 23.07256-23.72914 24.36964-22.39935 25.59874-21.00467 26.75465-19.55135 27.83478-18.0425 28.83601-16.48224 29.75525-14.87476 30.58987-13.22523 31.33833-11.53885 31.99805-9.81927 32.56587-8.07166 33.04288-6.30222 33.42542-4.51463 33.71349-2.71355 33.90553-.90468 34.00208H.9052L2.71355 33.90553 4.51411 33.71349 6.3017 33.42542 8.07166 33.0434 9.81927 32.56639 11.53885 31.99805 13.22523 31.33833 14.87476 30.58987 16.48224 29.75525 18.04198 28.83601 19.55135 27.83427 21.00467 26.75414 22.39935 25.59874 23.72914 24.37016 24.99251 23.07256 26.18475 21.70955 27.30328 20.28528 28.3445 18.80289 29.30472 17.26807 30.18242 15.68343 30.97447 14.05467 31.67883 12.38646 32.29337 10.68295 32.81604 8.94884 33.24582 7.18979 33.58165 5.41049 33.82248 3.61513 33.96678 1.80989 34.01556 0Z" fill="#d9d9ff"/>
<path transform="matrix(1.00006,0,0,-1.00006,86.3391,83.275218)" stroke-width=".79701" stroke-linecap="butt" stroke-miterlimit="10" stroke-linejoin="miter" fill="none" stroke="#000000" d="M-85.04024 0H80.37776"/>
<path transform="matrix(1.00006,0,0,-1.00006,166.72168,83.275218)" d="M4.66248 0C3.28098 .25902 1.0361 1.0361-.51805 1.94269V-1.94269C1.0361-1.0361 3.28098-.25902 4.66248 0"/>
<use data-text="x" xlink:href="#font_1_1" transform="matrix(9.963197,0,0,-9.963197,168.53704,91.2847)"/>
<path transform="matrix(1.00006,0,0,-1.00006,86.3391,83.275218)" stroke-width=".79701" stroke-linecap="butt" stroke-miterlimit="10" stroke-linejoin="miter" fill="none" stroke="#000000" d="M0-10.20491V73.57463"/>
<path transform="matrix(0,-1.00006,-1.00006,-0,86.3391,9.696175)" d="M4.66248 0C3.28098 .25902 1.0361 1.0361-.51805 1.94269V-1.94269C1.0361-1.0361 3.28098-.25902 4.66248 0"/>
<use data-text="y" xlink:href="#font_1_2" transform="matrix(9.963197,0,0,-9.963197,77.37756,6.2095949)"/>
<path transform="matrix(1.00006,0,0,-1.00006,86.3391,83.275218)" stroke-width=".79701" stroke-linecap="butt" stroke-miterlimit="10" stroke-linejoin="miter" fill="none" stroke="#0000cc" d="M68.0322 0 67.93356 3.6198 67.64497 7.23029 67.16434 10.81999 66.4927 14.3796 65.63211 17.89871 64.58676 21.36594 63.35767 24.77293 61.94897 28.10936 60.36485 31.36688 58.60945 34.53616 56.689 37.60579 54.60866 40.57057 52.37053 43.4191 49.98604 46.14511 47.4583 48.7393 44.79872 51.1975 42.00937 53.50931 39.10272 55.66957 36.08499 57.67206 32.9645 59.51051 29.74953 61.17976 26.45049 62.67668 23.07773 63.9961 19.63855 65.13176 16.14331 66.08575 12.60446 66.85085 9.02928 67.42699 5.42711 67.81107 1.80937 68.00415H-1.81041L-5.42711 67.81107-9.02824 67.42699-12.60342 66.85085-16.14331 66.0868-19.63855 65.1328-23.07773 63.9961-26.45049 62.67668-29.74953 61.17976-32.9645 59.51051-36.08395 57.67206-39.10272 55.66855-42.00937 53.50829-44.79872 51.1975-47.4583 48.74033-49.98502 46.14511-52.3695 43.4191-54.60658 40.57057-56.689 37.60579-58.60945 34.53616-60.36485 31.36688-61.94897 28.10936-63.35767 24.77293-64.58676 21.36594-65.63211 17.89767-66.49165 14.3796-67.1633 10.82101-67.64497 7.23029-67.93356 3.6198-68.03114 0"/>
<path transform="matrix(1.00006,0,0,-1.00006,86.3391,83.275218)" stroke-width=".79701" stroke-linecap="butt" stroke-miterlimit="10" stroke-linejoin="miter" fill="none" stroke="#0000cc" d="M34.0161 0 33.90398 2.73691 33.57439 5.45566 33.0268 8.13963 32.2638 10.77068 31.29317 13.33215 30.11806 15.80696 28.74883 18.17952 27.19325 20.43477 25.45964 22.55557 23.56305 24.53157 21.5123 26.34773 19.32245 27.9931 17.0075 29.45836 14.5815 30.73001 12.06154 31.80391 9.46321 32.67177 6.80362 33.32678 4.09991 33.76746 1.36922 33.98701H-1.3687L-4.09941 33.76746-6.80362 33.32678-9.46321 32.67177-12.06102 31.80391-14.5815 30.73001-17.0075 29.45836-19.32193 27.9931-21.5123 26.34825-23.56305 24.53157-25.45964 22.55557-27.19325 20.43425-28.74883 18.17952-30.11858 15.80748-31.29317 13.33267-32.2638 10.77121-33.0268 8.14017-33.57385 5.45618-33.90398 2.73691-34.01556 0"/>
<path transform="matrix(1.00006,0,0,-1.00006,86.3391,83.275218)" stroke-width=".79701" stroke-linecap="butt" stroke-miterlimit="10" stroke-linejoin="miter" fill="none" stroke="#0000cc" d="M34.0161 0H68.0322"/>
<path transform="matrix(1.00006,0,0,-1.00006,86.3391,83.275218)" stroke-width=".79701" stroke-linecap="butt" stroke-miterlimit="10" stroke-linejoin="miter" fill="none" stroke="#0000cc" d="M-68.0322 0H-34.0161"/>
<path transform="matrix(1.00006,0,0,-1.00006,86.3391,83.275218)" stroke-width=".79701" stroke-linecap="butt" stroke-miterlimit="10" stroke-linejoin="miter" fill="none" stroke="#ff0000" d="M48.10606 48.10606 50.5841 45.67056"/>
<path transform="matrix(-.7132127,-.700972,-.700972,.7132127,136.92624,37.601926)" d="M4.66248 0C3.28098 .25902 1.0361 1.0361-.51805 1.94269V-1.94269C1.0361-1.0361 3.28098-.25902 4.66248 0" fill="#ff0000"/>
<path transform="matrix(1.00006,0,0,-1.00006,86.3391,83.275218)" stroke-width=".79701" stroke-linecap="butt" stroke-miterlimit="10" stroke-linejoin="miter" fill="none" stroke="#ff0000" d="M-51.02414 0H-52.28479"/>
<path transform="matrix(1.00006,0,0,-1.00006,34.051179,83.275218)" d="M4.66248 0C3.28098 .25902 1.0361 1.0361-.51805 1.94269V-1.94269C1.0361-1.0361 3.28098-.25902 4.66248 0" fill="#ff0000"/>
<path transform="matrix(1.00006,0,0,-1.00006,86.3391,83.275218)" stroke-width=".79701" stroke-linecap="butt" stroke-miterlimit="10" stroke-linejoin="miter" fill="none" stroke="#ff0000" d="M-24.05302 24.05302-26.95453 21.20125"/>
<path transform="matrix(.71319279,-.700972,-.700972,-.71319279,59.38295,62.072717)" d="M4.66248 0C3.28098 .25902 1.0361 1.0361-.51805 1.94269V-1.94269C1.0361-1.0361 3.28098-.25902 4.66248 0" fill="#ff0000"/>
<path transform="matrix(1.00006,0,0,-1.00006,86.3391,83.275218)" stroke-width=".79701" stroke-linecap="butt" stroke-miterlimit="10" stroke-linejoin="miter" fill="none" stroke="#ff0000" d="M47.62231 0H46.36166"/>
<path transform="matrix(1.00006,0,0,-1.00006,132.70355,83.275218)" d="M4.66248 0C3.28098 .25902 1.0361 1.0361-.51805 1.94269V-1.94269C1.0361-1.0361 3.28098-.25902 4.66248 0" fill="#ff0000"/>
<path transform="matrix(1.00006,0,0,-1.00006,86.3391,83.275218)" d="M1.49442 0C1.49442 .82533 .82533 1.49442 0 1.49442-.82533 1.49442-1.49442 .82533-1.49442 0-1.49442-.82533-.82533-1.49442 0-1.49442 .82533-1.49442 1.49442-.82533 1.49442 0ZM0 0"/>
<use data-text="0" xlink:href="#font_2_1" transform="matrix(9.963197,0,0,-9.963197,77.83759,93.21581)"/>
<path transform="matrix(1.00006,0,0,-1.00006,86.3391,83.275218)" d="M35.21162 0C35.21162 .66026 34.67636 1.19553 34.0161 1.19553 33.35582 1.19553 32.82056 .66026 32.82056 0 32.82056-.66026 33.35582-1.19553 34.0161-1.19553 34.67636-1.19553 35.21162-.66026 35.21162 0ZM34.0161 0"/>
<use data-text="1" xlink:href="#font_2_2" transform="matrix(9.963197,0,0,-9.963197,117.866,93.21581)"/>
<path transform="matrix(1.00006,0,0,-1.00006,86.3391,83.275218)" d="M69.22772 0C69.22772 .66026 68.69246 1.19553 68.0322 1.19553 67.37192 1.19553 66.83665 .66026 66.83665 0 66.83665-.66026 67.37192-1.19553 68.0322-1.19553 68.69246-1.19553 69.22772-.66026 69.22772 0ZM68.0322 0"/>
<use data-text="2" xlink:href="#font_2_3" transform="matrix(9.963197,0,0,-9.963197,151.88404,93.21581)"/>
<path transform="matrix(1.00006,0,0,-1.00006,86.3391,83.275218)" d="M-32.82056 0C-32.82056 .66026-33.35582 1.19553-34.0161 1.19553-34.67636 1.19553-35.21162 .66026-35.21162 0-35.21162-.66026-34.67636-1.19553-34.0161-1.19553-33.35582-1.19553-32.82056-.66026-32.82056 0ZM-34.0161 0"/>
<use data-text="&#x2212;" xlink:href="#font_3_1" transform="matrix(9.963197,0,0,-9.963197,45.95568,93.21581)"/>
<use data-text="1" xlink:href="#font_2_2" transform="matrix(9.963197,0,0,-9.963197,53.70513,93.21581)"/>
<path transform="matrix(1.00006,0,0,-1.00006,86.3391,83.275218)" d="M-66.83665 0C-66.83665 .66026-67.37192 1.19553-68.0322 1.19553-68.69246 1.19553-69.22772 .66026-69.22772 0-69.22772-.66026-68.69246-1.19553-68.0322-1.19553-67.37192-1.19553-66.83665-.66026-66.83665 0ZM-68.0322 0"/>
<use data-text="&#x2212;" xlink:href="#font_3_1" transform="matrix(9.963197,0,0,-9.963197,11.937637,93.21581)"/>
<use data-text="2" xlink:href="#font_2_3" transform="matrix(9.963197,0,0,-9.963197,19.687088,93.21581)"/>
<use data-text="R" xlink:href="#font_4_95" transform="matrix(8.966938,0,0,-8.966938,66.98395,37.79049)"/>
<use data-text="e" xlink:href="#font_4_50" transform="matrix(8.966938,0,0,-8.966938,73.76294,37.79049)"/>
<use data-text="g" xlink:href="#font_4_59" transform="matrix(8.966938,0,0,-8.966938,77.860828,37.79049)"/>
<use data-text="i" xlink:href="#font_4_66" transform="matrix(8.966938,0,0,-8.966938,82.46983,37.79049)"/>
<use data-text="o" xlink:href="#font_4_81" transform="matrix(8.966938,0,0,-8.966938,85.03438,37.79049)"/>
<use data-text="n" xlink:href="#font_4_77" transform="matrix(8.966938,0,0,-8.966938,89.6434,37.79049)"/>
<use data-text="D" xlink:href="#font_5_1" transform="matrix(8.966938,0,0,-8.966938,97.8398,37.79049)"/>
</svg>
