<svg xmlns="http://www.w3.org/2000/svg" xmlns:xlink="http://www.w3.org/1999/xlink" xmlns:inkscape="http://www.inkscape.org/namespaces/inkscape" version="1.1" width="281" height="156" viewBox="0 0 281 156">
<defs>
<path id="font_1_56" d="M.46199037 .19992066C.46199037 .3209076 .37599183 .41992188 .2669983 .41992188 .21899414 .41992188 .16999817 .4039154 .1349945 .36791993V.5647888C.16499329 .55578616 .19599915 .55078127 .22698975 .55078127 .34999085 .55078127 .42199708 .63983157 .42199708 .6529236 .42199708 .6619873 .41600038 .6660156 .41099549 .6660156 .41099549 .6660156 .40699769 .6660156 .397995 .6609802 .35099793 .6418457 .30499269 .63378909 .2630005 .63378909 .21998596 .63378909 .1749878 .6418457 .1289978 .6609802 .11898804 .6660156 .115997318 .6660156 .115997318 .6660156 .10398865 .6660156 .10398865 .6559448 .10398865 .63882449V.34490968C.10398865 .32699586 .10398865 .31599427 .117996219 .31599427 .12599182 .31562806 .1289978 .3196411 .1349945 .32867433 .16499329 .37083436 .21299744 .39491273 .2649994 .39491273 .37199403 .39491273 .37199403 .24035645 .37199403 .20422364 .37199403 .17321778 .37199403 .11122131 .34399415 .06636047 .31698609 .024475098 .2749939 .0055389406 .23599243 .0055389406 .1769867 .0055389406 .10998535 .042419435 .085998538 .11621094 .085998538 .116882327 .09298706 .11488342 .099990848 .11488342 .11999512 .11488342 .14898682 .12788391 .14898682 .1638794 .14898682 .19488526 .1269989 .21289063 .099990848 .21289063 .07899475 .21289063 .050994874 .20088196 .050994874 .16088867 .050994874 .069732669 .1269989-.022460938 .23799134-.022460938 .35899354-.02279663 .46199037 .07521057 .46199037 .19921875V.19992066Z"/>
<path id="font_1_107" d="M.46199037 .17704773H.43399049C.43199159 .16404724 .42399598 .10501099 .41099549 .08900452 .40499879 .07998657 .33599855 .07998657 .31599427 .07998657H.13798523L.23699951 .17404175C.40098573 .3161316 .46199037 .36915589 .46199037 .4711914 .46199037 .5860901 .36698915 .6660156 .24398804 .6660156 .1289978 .6660156 .050994874 .575119 .050994874 .4841919 .050994874 .43418885 .09399414 .42919923 .102996829 .42919923 .125 .42919923 .15499878 .44519044 .15499878 .48120118 .15499878 .51119998 .13398743 .5332031 .102996829 .5332031 .09799194 .5332031 .09498596 .5332031 .09098816 .53219607 .114990238 .6030731 .1789856 .63500979 .23298645 .63500979 .33499146 .63500979 .36999513 .5401764 .36999513 .4711914 .36999513 .36915589 .29299928 .28611756 .24499512 .23408509L.06199646 .035995485C.050994874 .024993897 .050994874 .022994996 .050994874 0H.43399049L.46199037 .17704773Z"/>
<path id="font_1_85" d="M.34098817-.23803711C.34098817-.23303223 .33799745-.23002625 .33198548-.22303772 .20298767-.105026248 .1639862 .07498169 .1639862 .24998474 .1639862 .40498353 .19400025 .59298709 .33499146 .72698977 .33898927 .73098757 .34098817 .7339783 .34098817 .73898318 .34098817 .74598696 .33599855 .75 .32899476 .75 .31698609 .75 .22698975 .6779785 .17298889 .568985 .125 .47297669 .100997928 .36997987 .100997928 .25097657 .100997928 .17897034 .10998535 .064971927 .16499329-.053024293 .22399903-.17602539 .31698609-.24902344 .32899476-.24902344 .33599855-.24902344 .34098817-.24502564 .34098817-.23803711Z"/>
<path id="font_1_64" d="M.2849884 .1850586V.24707031H.010986328V.1850586H.2849884Z"/>
<path id="font_1_106" d="M.46998597 .17008972C.46998597 .25709535 .40098573 .33110047 .30499269 .35209657 .397995 .38710023 .44198609 .46009828 .44198609 .5290985 .44198609 .60606387 .35699464 .6660156 .25299073 .6660156 .14898682 .6660156 .070999149 .60705569 .070999149 .5310974 .070999149 .49809266 .09298706 .47909547 .12199402 .47909547 .15098572 .47909547 .17199707 .50009158 .17199707 .5290985 .17199707 .5640869 .147995 .57910159 .11399841 .57910159 .13999939 .6210327 .20098877 .64100649 .25 .64100649 .33299256 .64100649 .34899903 .5750885 .34899903 .52809146 .34899903 .49809266 .34298707 .45005799 .31799317 .41201783 .2869873 .36695863 .2519989 .36495973 .22299195 .36296083 .19799805 .36094667 .19599915 .36094667 .18798828 .36094667 .1789856 .35995484 .17098999 .35894776 .17098999 .34794618 .17098999 .33496095 .1789856 .33496095 .19599915 .33496095H.24299622C.32998658 .33496095 .36799623 .2646637 .36799623 .16937256 .36799623 .04145813 .2999878 .0055389406 .24899292 .0055389406 .22999573 .0055389406 .1329956 .010528564 .08799744 .0843811 .12399292 .07939148 .1519928 .10437012 .1519928 .13838196 .1519928 .17137146 .1269989 .19238281 .09799194 .19238281 .07299805 .19238281 .042999269 .17736817 .042999269 .13537598 .042999269 .046447755 .13598633-.022460938 .2519989-.022460938 .3769989-.022460938 .46998597 .06741333 .46998597 .16937256V.17008972Z"/>
<path id="font_1_98" d="M.36999513 .12831116C.36999513 .17330933 .34999085 .20030213 .32798768 .22329712 .2939911 .25628663 .2579956 .26327516 .18399048 .2772827 .1579895 .28227235 .084991458 .29527284 .084991458 .35224916 .084991458 .38424684 .10798645 .426239 .19898987 .426239 .30699159 .426239 .31399537 .34326173 .31599427 .31826783 .31698609 .3062744 .31698609 .3002777 .32998658 .3002777 .34399415 .3002777 .34399415 .30726625 .34399415 .32626344V.4222412C.34399415 .4392395 .34399415 .4482422 .33198548 .4482422 .32699586 .4482422 .32499696 .4482422 .31199647 .43623353 .30999757 .43423463 .30099488 .42523194 .29499818 .4202423 .2639923 .44223023 .23298645 .4482422 .19898987 .4482422 .066986087 .4482422 .033996583 .37524415 .033996583 .32426454 .033996583 .29226686 .04798889 .26628114 .070999149 .24429322 .10499573 .21330261 .14299011 .20629883 .19400025 .19729615 .24499512 .18730164 .2619934 .18431092 .28399659 .16731262 .2939911 .15931702 .31900025 .14031983 .31900025 .10229492 .31900025 .014251709 .21798706 .014251709 .20399475 .014251709 .101989749 .014251709 .07598877 .0993042 .06399536 .15332031 .06098938 .16331482 .05999756 .16931153 .04798889 .16931153 .033996583 .16931153 .033996583 .16131592 .033996583 .14331055V.01524353C.033996583-.0017547608 .033996583-.0107421879 .04598999-.0107421879 .051986696-.0107421879 .052993776-.009750366 .070999149 .009246826 .07499695 .01524353 .085998538 .028259278 .09098816 .03326416 .1329956-.007751465 .1789856-.0107421879 .20399475-.0107421879 .32699586-.0107421879 .36999513 .061279298 .36999513 .12831116Z"/>
<path id="font_1_47" d="M.5399933 0V.0309906C.47200013 .0309906 .46299745 .037994386 .46299745 .087020877V.69433596L.31498719 .6826172V.6516113C.3829956 .6516113 .3919983 .64463809 .3919983 .59580996V.38339234C.3869934 .38938905 .34199525 .4423828 .2639923 .4423828 .14099121 .4423828 .033996583 .3443756 .033996583 .21525574 .033996583 .09013367 .13398743-.0107421879 .25299073-.0107421879 .32598878-.0107421879 .37098695 .03224182 .3889923 .053115846V-.0107421879L.5399933 0M.3889923 .12011719C.3889923 .10211182 .3889923 .099121097 .37399293 .078125 .34298707 .033218385 .29699708 .014251709 .25698854 .014251709 .21398926 .014251709 .17399597 .038208009 .147995 .0801239 .12199402 .12312317 .11999512 .18218994 .11999512 .21421814 .11999512 .26127626 .12599182 .3143463 .1519928 .35438539 .17399597 .38638307 .21499634 .41737367 .2679901 .41737367 .30999757 .41737367 .34999085 .39637757 .3769989 .35839845 .3889923 .3423767 .3889923 .34136964 .3889923 .32235719V.12011719Z"/>
<path id="font_1_86" d="M.2979889 .25097657C.2979889 .3329773 .28599549 .4429779 .23399353 .5539856 .1749878 .6769867 .08198547 .75 .069992069 .75 .05999756 .75 .057998659 .74198916 .057998659 .73898318 .057998659 .7339783 .05999756 .73098757 .066986087 .72398379 .125 .6719818 .23498535 .5359802 .23498535 .25097657 .23498535 .10797119 .20899964-.091033939 .06399536-.22602844 .06199646-.22903443 .057998659-.23303223 .057998659-.23803711 .057998659-.24102783 .05999756-.24902344 .069992069-.24902344 .08198547-.24902344 .17199707-.17703247 .22599793-.06802368 .27398683 .02796936 .2979889 .13098145 .2979889 .25097657Z"/>
<path id="font_1_101" d="M.46998597 .20277405C.46998597 .32977296 .37799073 .42578126 .2649994 .42578126 .20498657 .42578126 .1619873 .3907776 .13398743 .33078004 .13398743 .43276979 .14498902 .4897766 .17199707 .54177859 .19198609 .58277896 .24099732 .64100649 .31498719 .64100649 .33499146 .64100649 .3809967 .63697817 .4039917 .6007843 .36698915 .6007843 .35099793 .5817871 .35099793 .55477908 .35099793 .5287781 .36898805 .50878909 .39698792 .50878909 .4249878 .50878909 .44400025 .5267792 .44400025 .55677798 .44400025 .61299136 .4039917 .6660156 .31298829 .6660156 .18399048 .6660156 .042999269 .5389252 .042999269 .31576539 .042999269 .044555665 .16499329-.022460938 .25898744-.022460938 .36999513-.022460938 .46998597 .07052612 .46998597 .2025299V.20277405M.3789978 .20353699C.3789978 .15553284 .3789978 .106536868 .3600006 .0695343 .32899476 .012527466 .2849884 .0055389406 .2579956 .0055389406 .20098877 .0055389406 .16799927 .05253601 .1559906 .08152771 .13699341 .12652588 .13598633 .20953369 .13598633 .2255249 .13598633 .2927704 .16699219 .4007721 .2630005 .4007721 .2789917 .4007721 .32798768 .4007721 .3600006 .33877564 .3789978 .300766 .3789978 .25177003 .3789978 .20376587V.20353699Z"/>
<path id="font_1_51" d="M.46998597 .16764832C.46998597 .26472474 .3959961 .3127594 .37098695 .32876588 .3600006 .33677674 .33099366 .35479737 .31900025 .36180116 .36898805 .38581849 .44198609 .43585206 .44198609 .51690676 .44198609 .6109772 .34799195 .6660156 .2579956 .6660156 .15299988 .6660156 .070999149 .5909729 .070999149 .49890138 .070999149 .46087647 .084991458 .42485047 .10899353 .39582826 .12599182 .3768158 .13198853 .37280274 .18998719 .3357849 .101989749 .29374696 .042999269 .23269654 .042999269 .15063477 .042999269 .044555665 .147995-.022460938 .2559967-.022460938 .37199403-.022460938 .46998597 .059570314 .46998597 .16764832M.3939972 .51690676C.3939972 .44685365 .33399964 .40083314 .2939911 .37780763L.17199707 .45387269C.14199829 .47288514 .11898804 .4998932 .11898804 .53692629 .11898804 .6019745 .18899536 .64100649 .25498963 .64100649 .33198548 .64100649 .3939972 .58695986 .3939972 .51690676M.41600038 .1326294C.41600038 .05357361 .33599855 .0055389406 .25698854 .0055389406 .16999817 .0055389406 .09700012 .06758118 .09700012 .15063477 .09700012 .22268677 .14698792 .28274537 .21699524 .31877137L.34298707 .2407074C.3659973 .22569275 .41600038 .19366455 .41600038 .1326294Z"/>
<path id="font_1_57" d="M.48399354 .16503906V.19602967H.38198854V.649765C.38198854 .669754 .38198854 .6767578 .36299134 .6767578 .35099793 .6767578 .34999085 .67575076 .34098817 .6617584L.0289917 .19602967V.16503906H.3019867V.07901001C.3019867 .041992189 .29899598 .0309906 .22399903 .0309906H.20199585V0C.2649994 .0029907227 .33499146 .0029907227 .34199525 .0029907227 .34700013 .0029907227 .4189911 .0029907227 .48199464 0V.0309906H.45999146C.3849945 .0309906 .38198854 .041992189 .38198854 .07901001V.16503906H.48399354M.30799867 .19602967H.06098938L.30799867 .56581118V.19602967Z"/>
<path id="font_1_82" d="M.43199159 0V.0309906H.3999939C.30699159 .0309906 .3039856 .042999269 .3039856 .08001709V.63912966C.3039856 .6640167 .30299378 .6660156 .27799989 .6660156 .21598816 .60227969 .12399292 .60227969 .09298706 .60227969V.57128909C.11199951 .57128909 .17298889 .57128909 .22698975 .5972748V.08001709C.22698975 .042999269 .22399903 .0309906 .1309967 .0309906H.09899902V0C.1349945 .0029907227 .22399903 .0029907227 .2649994 .0029907227 .30599977 .0029907227 .3959961 .0029907227 .43199159 0Z"/>
<path id="font_1_121" d="M.47299195 .31976319C.47299195 .38682557 .46998597 .47288514 .43499757 .5479431 .3909912 .64201357 .31498719 .6660156 .25698854 .6660156 .19699097 .6660156 .12098694 .64201357 .07699585 .5459442 .04499817 .47688294 .039993287 .39582826 .039993287 .31976319 .039993287 .25471498 .041992189 .15765381 .084991458 .07858276 .13198853-.0064697267 .20999146-.022460938 .2559967-.022460938 .32099916-.022460938 .394989 .0055389406 .43699647 .097595218 .46699525 .1646576 .47299195 .23971558 .47299195 .31976319M.3869934 .33177186C.3869934 .2697296 .3869934 .18566895 .3769989 .12661743 .35598756 .012542725 .28199769 .002532959 .25698854 .002532959 .22698975 .002532959 .15499878 .016540528 .13598633 .12962342 .12599182 .18867493 .12599182 .2747345 .12599182 .33177186 .12599182 .39982606 .12599182 .47888185 .13798523 .53393557 .1579895 .6230011 .22200012 .64100649 .2559967 .64100649 .2939911 .64100649 .35699464 .62098696 .37599183 .5279236 .3869934 .47288514 .3869934 .39482118 .3869934 .33177186Z"/>
<path id="font_1_74" d="M.897995 0V.0309906H.875C.7979889 .0309906 .79599 .041992189 .79599 .07896423V.6036377C.79599 .64060977 .7979889 .6516113 .875 .6516113H.897995V.6826172H.7299957C.70899966 .6826172 .70199587 .6826172 .69499209 .6646118L.47099305 .09794617 .24699402 .660614C.23899842 .680603 .23799134 .6826172 .21099854 .6826172H.042999269V.6516113H.06599426C.14299011 .6516113 .14498902 .64060977 .14498902 .6036377V.10594177C.14498902 .07896423 .14498902 .0309906 .042999269 .0309906V0C.09799194 .0019989014 .11199951 .0029907227 .16099549 .0029907227 .20899964 .0029907227 .22399903 .0019989014 .27799989 0V.0309906C.17599488 .0309906 .17599488 .07896423 .17599488 .10594177V.64060977L.1769867 .6416168 .4229889 .021987915C.42799378 .008987427 .43199159 0 .44400025 0 .45498658 0 .45999146 .008987427 .46398927 .017990113L.71398928 .6496124 .71499636 .64860537V.07896423C.71499636 .041992189 .71299746 .0309906 .6359863 .0309906H.61299136V0C.6729889 .0029907227 .73999026 .0029907227 .7549896 .0029907227 .7609863 .0029907227 .83499148 .0029907227 .897995 0Z"/>
<path id="font_1_89" d="M.7409973 .25045777C.7409973 .27246095 .7220001 .27246095 .70599368 .27246095H.42099V.55784609C.42099 .57380679 .42099 .59277346 .39898683 .59277346 .37799073 .59277346 .37799073 .57180789 .37799073 .55784609V.27246095H.09199524C.07798767 .27246095 .056991579 .27246095 .056991579 .25144959 .056991579 .22944641 .07598877 .22944641 .09199524 .22944641H.37799073V-.056777955C.37799073-.072784427 .37799073-.091796878 .3999939-.091796878 .42099-.091796878 .42099-.07078552 .42099-.056777955V.22944641H.70599368C.7200012 .22944641 .7409973 .22944641 .7409973 .25045777Z"/>
<path id="font_2_65" d="M.33299256 0V.0309906H.30699159C.22799683 .0309906 .22499085 .041992189 .22499085 .07795715V.6046295C.22499085 .64060977 .22799683 .6516113 .30699159 .6516113H.33299256V.6826172C.2979889 .6796112 .21899414 .6796112 .18099976 .6796112 .14199829 .6796112 .06298828 .6796112 .027999878 .6826172V.6516113H.053985597C.1329956 .6516113 .13598633 .64060977 .13598633 .6046295V.07795715C.13598633 .041992189 .1329956 .0309906 .053985597 .0309906H.027999878V0C.06298828 .0029907227 .14199829 .0029907227 .17999268 .0029907227 .21899414 .0029907227 .2979889 .0029907227 .33299256 0Z"/>
<path id="font_2_90" d="M.72698977-.010345459C.72698977-.00033569337 .72698977 .010650635 .71598818 .010650635 .70700076 .010650635 .70599368 .0026550294 .7049866-.0073394777 .69898989-.061340333 .6569977-.09133911 .6139984-.09133911 .5669861-.09133911 .5419922-.05734253 .5179901 .006652832 .6359863 .059570314 .72099307 .1876831 .72099307 .3387909 .72099307 .5429535 .56999209 .7050781 .3880005 .7050781 .20899964 .7050781 .055999757 .54496768 .055999757 .3387909 .055999757 .13664246 .20698548-.022460938 .3889923-.022460938 .41999818-.022460938 .45498658-.016464234 .48399354-.007461548 .49899293-.1023407 .5130005-.19433594 .60598757-.19433594 .70799258-.1945343 .72698977-.061538698 .72698977-.010528564V-.010345459M.62098696 .33866883C.62098696 .2605896 .60899356 .11946106 .5029907 .04147339 .48098756 .097457889 .44898988 .14746094 .3899994 .14746094 .33898927 .14746094 .30799867 .10446167 .30799867 .06347656 .30799867 .036468507 .32099916 .017471314 .32199098 .015472412 .2679901 .035461427 .1559906 .10845947 .1559906 .33866883 .1559906 .59898379 .29599 .68006899 .3880005 .68006899 .4850006 .6794586 .62098696 .5934601 .62098696 .3384552V.33866883M.47698976 .025497437C.44299317 .0065307619 .41099549 .002532959 .3889923 .002532959 .33799745 .002532959 .32998658 .048461915 .32998658 .06347656 .32998658 .09246826 .35099793 .12545777 .3899994 .12545777 .44400025 .12545777 .46598817 .083465579 .47698976 .025497437Z"/>
<path id="font_2_97" d="M.49899293 .18579102C.49899293 .2858429 .43299867 .36791993 .34899903 .38793946L.22099304 .4189453C.15899658 .43388368 .11999512 .48773194 .11999512 .5458069 .11999512 .61595156 .17399597 .677063 .2519989 .677063 .4189911 .677063 .44099427 .5127411 .44699098 .46777345 .44799806 .461792 .44799806 .45581056 .45899964 .45581056 .47200013 .45581056 .47200013 .46080018 .47200013 .47973634V.68107607C.47200013 .69807437 .47200013 .7050781 .46099855 .7050781 .45399476 .7050781 .45298768 .70407107 .44599916 .69207766L.41099549 .63497927C.3809967 .66404727 .33999635 .7050781 .25099183 .7050781 .13999939 .7050781 .055999757 .61694338 .055999757 .5107422 .055999757 .42790223 .10899353 .35490418 .18699646 .32788087 .19799805 .32388307 .24899292 .3118744 .31900025 .29486085 .34599305 .28785707 .37599183 .280838 .4039917 .24382019 .4249878 .2177887 .43499757 .18478394 .43499757 .1517334 .43499757 .0806427 .3849945 .008529663 .30099488 .008529663 .27198792 .008529663 .19599915 .013534546 .14299011 .06260681 .084991458 .11668396 .08198547 .18078614 .08099365 .21679688 .07998657 .22679138 .07199097 .22679138 .068984989 .22679138 .055999757 .22679138 .055999757 .2197876 .055999757 .20178223V.0015258789C.055999757-.015472412 .055999757-.022460938 .066986087-.022460938 .07398987-.022460938 .07499695-.020462037 .08198547-.009475708 .08198547-.009475708 .084991458-.0054626467 .117996219 .047592164 .14898682 .013534546 .21299744-.022460938 .3019867-.022460938 .4189911-.022460938 .49899293 .07562256 .49899293 .18579102Z"/>
<path id="font_2_43" d="M.4149933 .119140628C.4149933 .12911988 .40499879 .12911988 .4019928 .12911988 .3929901 .12911988 .3909912 .12512207 .3889923 .119140628 .3600006 .026229859 .29499818 .014251709 .2579956 .014251709 .20498657 .014251709 .116989139 .0572052 .116989139 .21801758 .116989139 .38093568 .19898987 .42323304 .2519989 .42323304 .26098634 .42323304 .32398988 .42222596 .35899354 .38594056 .31799317 .38293458 .31199647 .3529358 .31199647 .3399353 .31199647 .31393434 .32998658 .2939453 .35798646 .2939453 .38398744 .2939453 .4039917 .3109436 .4039917 .34094239 .4039917 .40911866 .32798768 .4482422 .25099183 .4482422 .12599182 .4482422 .033996583 .3399353 .033996583 .21601868 .033996583 .08816528 .1329956-.0107421879 .24899292-.0107421879 .3829956-.0107421879 .4149933 .10914612 .4149933 .119140628Z"/>
<path id="font_2_81" d="M.47099305 .21424866C.47099305 .34223939 .37098695 .4482422 .25 .4482422 .125 .4482422 .027999878 .3392334 .027999878 .21424866 .027999878 .085250858 .13198853-.0107421879 .24899292-.0107421879 .36999513-.0107421879 .47099305 .087249759 .47099305 .21424866M.3880005 .22224427C.3880005 .18624878 .3880005 .13224793 .3659973 .08824158 .34399415 .04324341 .2999878 .014251709 .25 .014251709 .20698548 .014251709 .16299439 .035247804 .13598633 .08125305 .11099243 .12524414 .11099243 .18624878 .11099243 .22224427 .11099243 .26124574 .11099243 .31523133 .1349945 .35923768 .1619873 .40522767 .20899964 .426239 .24899292 .426239 .29299928 .426239 .33599855 .40423585 .3619995 .36123658 .3880005 .3182373 .3880005 .26023866 .3880005 .22224427Z"/>
<path id="font_2_96" d="M.3639984 .38137818C.3639984 .41337586 .33299256 .4423828 .2899933 .4423828 .21699524 .4423828 .18099976 .37538148 .16699219 .3323822V.4423828L.027999878 .43066407V.3996582C.09799194 .3996582 .10598755 .39266969 .10598755 .34370423V.07595825C.10598755 .0309906 .09498596 .0309906 .027999878 .0309906V0L.14199829 .0029907227C.18199158 .0029907227 .22898865 .0029907227 .2689972 0V.0309906H.24798584C.17399597 .0309906 .17199707 .04197693 .17199707 .07795715V.23181153C.17199707 .33137513 .21398926 .42037965 .2899933 .42037965 .29699708 .42037965 .29899598 .42037965 .30099488 .41937257 .2979889 .41838075 .27799989 .40637208 .27799989 .3803711 .27799989 .35237123 .29899598 .33737184 .32099916 .33737184 .33898927 .33737184 .3639984 .3493805 .3639984 .38137818Z"/>
<path id="font_2_50" d="M.4149933 .11933899C.4149933 .12934876 .40699769 .13134766 .4019928 .13134766 .3929901 .13134766 .3909912 .12535095 .3889923 .11734009 .35398866 .014251709 .2639923 .014251709 .2539978 .014251709 .20399475 .014251709 .1639862 .044281007 .14099121 .08131409 .11099243 .12934876 .11099243 .19540406 .11099243 .23144531H.3899994C.4119873 .23144531 .4149933 .23144531 .4149933 .2524414 .4149933 .35131837 .36099244 .4482422 .23599243 .4482422 .11999512 .4482422 .027999878 .34532167 .027999878 .22042847 .027999878 .08631897 .1329956-.0107421879 .24798584-.0107421879 .36999513-.0107421879 .4149933 .10032654 .4149933 .11933899M.34899903 .2524414H.11199951C.117996219 .40126039 .20199585 .426239 .23599243 .426239 .33898927 .426239 .34899903 .2913971 .34899903 .2524414Z"/>
<path id="font_2_83" d="M.6239929 .4967041C.6239929 .59465029 .5249939 .6826172 .3880005 .6826172H.034988405V.6516113H.05899048C.13598633 .6516113 .13798523 .64060977 .13798523 .6046295V.07795715C.13798523 .041992189 .13598633 .0309906 .05899048 .0309906H.034988405V0C.069992069 .0029907227 .14399719 .0029907227 .18199158 .0029907227 .21998596 .0029907227 .29499818 .0029907227 .32998658 0V.0309906H.30599977C.22898865 .0309906 .22698975 .041992189 .22698975 .07795715V.3157959H.3959961C.5159912 .3157959 .6239929 .39675904 .6239929 .4967041M.5209961 .4967041C.5209961 .4497223 .5209961 .34179688 .3619995 .34179688H.22399903V.6116333C.22399903 .64460757 .22599793 .6516113 .272995 .6516113H.3619995C.5209961 .6516113 .5209961 .54566958 .5209961 .4967041Z"/>
<path id="font_2_35" d="M.5209961 .2163086C.5209961 .34335328 .4229889 .4423828 .30899049 .4423828 .23098755 .4423828 .18798828 .39537049 .17199707 .3773651V.69433596L.027999878 .68333438V.6523285C.09799194 .6523285 .10598755 .6453247 .10598755 .596344V.00024414063H.1309967L.16699219 .06227112C.18199158 .039260866 .22399903-.0107421879 .2979889-.0107421879 .4169922-.0107421879 .5209961 .08728027 .5209961 .2163086M.43798829 .21731568C.43798829 .18029785 .43598939 .120285037 .40699769 .07527161 .38598634 .044265748 .34799195 .011245728 .2939911 .011245728 .24899292 .011260986 .21299744 .03526306 .18899536 .072265628 .1749878 .09326172 .1749878 .09625244 .1749878 .11425781V.32034303C.1749878 .3393402 .1749878 .3403473 .18598938 .35635377 .22499085 .41236878 .27999879 .42037965 .3039856 .42037965 .34899903 .42037965 .3849945 .3943634 .40899659 .35635377 .43499757 .31533814 .43798829 .25831605 .43798829 .21730042V.21731568Z"/>
<path id="font_2_28" d="M.48298646 .08912659V.14511109H.45799256V.08912659C.45799256 .03112793 .43299867 .025131226 .42199708 .025131226 .3889923 .025131226 .3849945 .070129398 .3849945 .07511902V.27508546C.3849945 .31707765 .3849945 .3560791 .34899903 .39312745 .30999757 .43223573 .2599945 .4482422 .21199036 .4482422 .12998963 .4482422 .06098938 .40115357 .06098938 .335083 .06098938 .30508424 .08099365 .28808595 .10699463 .28808595 .1349945 .28808595 .15299988 .30807496 .15299988 .33407594 .15299988 .3460846 .147995 .37908937 .101989749 .38008119 .1289978 .41519166 .17799378 .426239 .20999146 .426239 .25898744 .426239 .31599427 .38710023 .31599427 .29808045V.26107789C.2649994 .25808717 .19499207 .25508119 .13198853 .22509766 .056991579 .19110108 .03199768 .13911438 .03199768 .09512329 .03199768 .014251709 .1289978-.0107421879 .19198609-.0107421879 .2579956-.0107421879 .3039856 .029251099 .32299806 .07624817 .32699586 .036132814 .35398866-.005859375 .40098573-.005859375 .42199708-.005859375 .48298646 .008132935 .48298646 .08912659M.31599427 .14013672C.31599427 .04525757 .24398804 .011245728 .19898987 .011245728 .1499939 .011245728 .10899353 .04624939 .10899353 .09625244 .10899353 .15124512 .15098572 .23425293 .31599427 .24024964V.14013672Z"/>
<path id="font_2_66" d="M.24699402 0V.0309906C.18099976 .0309906 .1769867 .035995485 .1769867 .075042728V.4423828L.036987306 .43066407V.3996582C.101989749 .3996582 .11099243 .3936615 .11099243 .3447113V.07595825C.11099243 .0309906 .099990848 .0309906 .032989503 .0309906V0L.14299011 .0029907227C.17799378 .0029907227 .21299744 .0009918213 .24699402 0M.19198609 .603775C.19198609 .6307678 .16899109 .6567688 .13899231 .6567688 .10499573 .6567688 .084991458 .6287689 .084991458 .603775 .084991458 .57676699 .10798645 .55078127 .13798523 .55078127 .17199707 .55078127 .19198609 .5787811 .19198609 .603775Z"/>
<path id="font_2_72" d="M.25498963 0V.0309906C.18798828 .0309906 .1769867 .0309906 .1769867 .07601929V.69433596L.032989503 .6826172V.6516113C.102996829 .6516113 .11099243 .64460757 .11099243 .5956421V.07595825C.11099243 .0309906 .099990848 .0309906 .032989503 .0309906V0L.14399719 .0029907227 .25498963 0Z"/>
<path id="font_2_105" d="M.33198548 .12385559V.18066406H.30699159V.12585449C.30699159 .052108766 .2769928 .014251709 .23999024 .014251709 .17298889 .014251709 .17298889 .10491943 .17298889 .12187195V.3996582H.31599427V.43066407H.17298889V.6142578H.147995C.14698792 .5324249 .116989139 .42565919 .018997193 .42166139V.3996582H.10398865V.12408447C.10398865 .0012512207 .19699097-.0107421879 .23298645-.0107421879 .3039856-.0107421879 .33198548 .060180665 .33198548 .12408447V.12385559Z"/>
<path id="font_2_118" d="M.5079956 .3996582V.43066407C.4850006 .4286499 .45599366 .42765809 .43299867 .42765809L.34599305 .43066407V.3996582C.3769989 .39866639 .3929901 .3816681 .3929901 .35668946 .3929901 .34669496 .3919983 .34469605 .3869934 .33270265L.28599549 .08685303 .1749878 .35568238C.17098999 .36567689 .16899109 .36967469 .16899109 .3736725 .16899109 .3996582 .20599365 .3996582 .22499085 .3996582V.43066407L.115997318 .42765809C.08898926 .42765809 .04899597 .4286499 .018997193 .43066407V.3996582C.066986087 .3996582 .085998538 .3996582 .099990848 .36468507L.25-.000091552738 .22499085-.059066774C.20298767-.11407471 .1749878-.18309021 .11099243-.18309021 .10598755-.18309021 .08299255-.18309021 .06399536-.16503906 .09498596-.16104126 .102996829-.13905335 .102996829-.123046878 .102996829-.0970459 .083999637-.08103943 .06098938-.08103943 .040985109-.08103943 .018997193-.09403992 .018997193-.124053958 .018997193-.16905213 .06098938-.20507813 .11099243-.20507813 .17399597-.20507813 .21499634-.14804077 .23899842-.091049198L.4149933 .33569337C.44099427 .39865113 .49198915 .3996582 .5079956 .3996582Z"/>
<path id="font_2_46" d="M.70700076 .33580018C.70700076 .52568057 .57199099 .6826172 .40098573 .6826172H.034988405V.6516113H.05899048C.13598633 .6516113 .13798523 .64060977 .13798523 .6046295V.07795715C.13798523 .041992189 .13598633 .0309906 .05899048 .0309906H.034988405V0H.40098573C.56900027 0 .70700076 .1479187 .70700076 .33580018M.6069946 .33580018C.6069946 .22486878 .58799746 .16490174 .5519867 .11593628 .5319977 .08895874 .47499085 .0309906 .37399293 .0309906H.272995C.22599793 .0309906 .22399903 .037994386 .22399903 .07096863V.6116333C.22399903 .64460757 .22599793 .6516113 .272995 .6516113H.37298585C.43499757 .6516113 .5039978 .6296234 .5549927 .55867007 .59799197 .49969483 .6069946 .41375733 .6069946 .33580018Z"/>
<path id="font_2_77" d="M.5349884 0V.0309906C.48298646 .0309906 .45799256 .0309906 .45700074 .061019899V.25221253C.45700074 .3383026 .45700074 .36932374 .42599488 .405365 .4119873 .42237855 .3789978 .4423828 .32099916 .4423828 .24798584 .4423828 .20098877 .39935304 .17298889 .33729554V.4423828L.03199768 .43066407V.3996582C.101989749 .3996582 .10998535 .39266969 .10998535 .34370423V.07595825C.10998535 .0309906 .09899902 .0309906 .03199768 .0309906V0L.14498902 .0029907227 .25698854 0V.0309906C.18998719 .0309906 .1789856 .0309906 .1789856 .07595825V.25978089C.1789856 .36431886 .25 .42037965 .31399537 .42037965 .3769989 .42037965 .3880005 .36631776 .3880005 .30926515V.076034549C.3880005 .0309906 .3769989 .0309906 .30999757 .0309906V0L.4229889 .0029907227 .5349884 0Z"/>
<path id="font_2_98" d="M.3600006 .12823487C.3600006 .18122864 .32998658 .21122742 .31799317 .22323609 .2849884 .25523377 .24598694 .26322938 .20399475 .27124024 .147995 .28224183 .08099365 .29522706 .08099365 .35324098 .08099365 .38822938 .10699463 .42922975 .19299317 .42922975 .30299378 .42922975 .30799867 .3392334 .30999757 .30822755 .31098939 .2992401 .32199098 .2992401 .32199098 .2992401 .33499146 .2992401 .33499146 .30422975 .33499146 .32322694V.4242401C.33499146 .4412384 .33499146 .4482422 .32398988 .4482422 .31900025 .4482422 .31698609 .4482422 .3039856 .43623353 .30099488 .43223573 .29100038 .42323304 .2869873 .42022706 .24899292 .4482422 .20799256 .4482422 .19299317 .4482422 .070999149 .4482422 .032989503 .38124085 .032989503 .3252411 .032989503 .29023744 .04899597 .26223756 .07598877 .24023438 .10798645 .2142334 .13598633 .2082367 .20799256 .19422913 .22999573 .19021607 .31199647 .17422486 .31199647 .10221863 .31199647 .051223756 .2769928 .011245728 .19898987 .011245728 .114990238 .011245728 .07899475 .068222049 .05999756 .1532135 .056991579 .16621399 .055999757 .17021179 .04598999 .17021179 .032989503 .17021179 .032989503 .16322327 .032989503 .1452179V.013214111C.032989503-.003753662 .032989503-.0107421879 .04399109-.0107421879 .04899597-.0107421879 .049987794-.009750366 .068984989 .009246826 .070999149 .011245728 .070999149 .013214111 .08898926 .032226564 .1329956-.009750366 .17799378-.0107421879 .19898987-.0107421879 .31399537-.0107421879 .3600006 .05621338 .3600006 .1282196V.12823487Z"/>
</defs>
<path transform="matrix(1.00003,0,0,-1.00009,40.565774,127.45503)" stroke-width=".19925" stroke-linecap="butt" stroke-miterlimit="10" stroke-linejoin="miter" fill="none" stroke="#7f807f" d="M15.18748-2.1261V2.1261M49.90175-2.1261V2.1261M84.61601-2.1261V2.1261M119.33028-2.1261V2.1261M154.04454-2.1261V2.1261M188.7588-2.1261V2.1261M223.47307-2.1261V2.1261"/>
<path transform="matrix(1.00003,0,0,-1.00009,40.565774,127.45503)" stroke-width=".19925" stroke-linecap="butt" stroke-miterlimit="10" stroke-linejoin="miter" fill="none" stroke="#7f807f" d=""/>
<path transform="matrix(1.00003,0,0,-1.00009,40.565774,127.45503)" stroke-width=".3985" stroke-linecap="butt" stroke-miterlimit="10" stroke-linejoin="miter" fill="none" stroke="#000000" d="M0 0H236.64337"/>
<path transform="matrix(1.00003,0,0,-1.00009,277.21626,127.45503)" d="M1.99252 0-1.19551 1.59401 0 0-1.19551-1.59401"/>
<path transform="matrix(1.00003,0,0,-1.00009,40.565774,127.45503)" stroke-width=".3985" stroke-linecap="butt" stroke-miterlimit="10" stroke-linejoin="miter" fill="none" stroke="#000000" d="M0 0V123.2545"/>
<path transform="matrix(0,-1.00009,-1.00003,-0,40.565774,4.189438)" d="M1.99252 0-1.19551 1.59401 0 0-1.19551-1.59401"/>
<use data-text="5" xlink:href="#font_1_56" transform="matrix(8.966669,0,0,-8.967207,51.14408,139.07408)"/>
<use data-text="2" xlink:href="#font_1_107" transform="matrix(8.966669,0,0,-8.967207,55.752954,139.07408)"/>
<use data-text="(" xlink:href="#font_1_85" transform="matrix(8.966669,0,0,-8.967207,43.94886,150.03406)"/>
<use data-text="-" xlink:href="#font_1_64" transform="matrix(8.966669,0,0,-8.967207,47.53553,150.03406)"/>
<use data-text="3" xlink:href="#font_1_106" transform="matrix(8.966669,0,0,-8.967207,50.61109,150.03406)"/>
<use data-text="s" xlink:href="#font_1_98" transform="matrix(8.966669,0,0,-8.967207,55.219964,150.03406)"/>
<use data-text="d" xlink:href="#font_1_47" transform="matrix(8.966669,0,0,-8.967207,58.85148,150.03406)"/>
<use data-text=")" xlink:href="#font_1_86" transform="matrix(8.966669,0,0,-8.967207,63.971445,150.03406)"/>
<use data-text="6" xlink:href="#font_1_101" transform="matrix(8.966669,0,0,-8.967207,85.85912,139.07408)"/>
<use data-text="8" xlink:href="#font_1_51" transform="matrix(8.966669,0,0,-8.967207,90.467998,139.07408)"/>
<use data-text="(" xlink:href="#font_1_85" transform="matrix(8.966669,0,0,-8.967207,78.6639,150.03406)"/>
<use data-text="-" xlink:href="#font_1_64" transform="matrix(8.966669,0,0,-8.967207,82.25057,150.03406)"/>
<use data-text="2" xlink:href="#font_1_107" transform="matrix(8.966669,0,0,-8.967207,85.32613,150.03406)"/>
<use data-text="s" xlink:href="#font_1_98" transform="matrix(8.966669,0,0,-8.967207,89.935009,150.03406)"/>
<use data-text="d" xlink:href="#font_1_47" transform="matrix(8.966669,0,0,-8.967207,93.56652,150.03406)"/>
<use data-text=")" xlink:href="#font_1_86" transform="matrix(8.966669,0,0,-8.967207,98.686489,150.03406)"/>
<use data-text="8" xlink:href="#font_1_51" transform="matrix(8.966669,0,0,-8.967207,120.575168,139.17209)"/>
<use data-text="4" xlink:href="#font_1_57" transform="matrix(8.966669,0,0,-8.967207,125.18404,139.17209)"/>
<use data-text="(" xlink:href="#font_1_85" transform="matrix(8.966669,0,0,-8.967207,113.379947,150.13208)"/>
<use data-text="-" xlink:href="#font_1_64" transform="matrix(8.966669,0,0,-8.967207,116.96661,150.13208)"/>
<use data-text="1" xlink:href="#font_1_82" transform="matrix(8.966669,0,0,-8.967207,120.042179,150.13208)"/>
<use data-text="s" xlink:href="#font_1_98" transform="matrix(8.966669,0,0,-8.967207,124.65105,150.13208)"/>
<use data-text="d" xlink:href="#font_1_47" transform="matrix(8.966669,0,0,-8.967207,128.28256,150.13208)"/>
<use data-text=")" xlink:href="#font_1_86" transform="matrix(8.966669,0,0,-8.967207,133.40253,150.13208)"/>
<use data-text="1" xlink:href="#font_1_82" transform="matrix(8.966669,0,0,-8.967207,152.98514,139.07408)"/>
<use data-text="0" xlink:href="#font_1_121" transform="matrix(8.966669,0,0,-8.967207,157.59403,139.07408)"/>
<use data-text="0" xlink:href="#font_1_121" transform="matrix(8.966669,0,0,-8.967207,162.20288,139.07408)"/>
<use data-text="(" xlink:href="#font_1_85" transform="matrix(8.966669,0,0,-8.967207,152.08911,150.03406)"/>
<use data-text="M" xlink:href="#font_1_74" transform="matrix(8.966669,0,0,-8.967207,155.67578,150.03406)"/>
<use data-text=")" xlink:href="#font_1_86" transform="matrix(8.966669,0,0,-8.967207,164.1224,150.03406)"/>
<use data-text="1" xlink:href="#font_1_82" transform="matrix(8.966669,0,0,-8.967207,187.7012,139.07408)"/>
<use data-text="1" xlink:href="#font_1_82" transform="matrix(8.966669,0,0,-8.967207,192.31006,139.07408)"/>
<use data-text="6" xlink:href="#font_1_101" transform="matrix(8.966669,0,0,-8.967207,196.91895,139.07408)"/>
<use data-text="(" xlink:href="#font_1_85" transform="matrix(8.966669,0,0,-8.967207,180.76599,150.03406)"/>
<use data-text="+" xlink:href="#font_1_89" transform="matrix(8.966669,0,0,-8.967207,184.35266,150.03406)"/>
<use data-text="1" xlink:href="#font_1_82" transform="matrix(8.966669,0,0,-8.967207,191.51703,150.03406)"/>
<use data-text="s" xlink:href="#font_1_98" transform="matrix(8.966669,0,0,-8.967207,196.12589,150.03406)"/>
<use data-text="d" xlink:href="#font_1_47" transform="matrix(8.966669,0,0,-8.967207,199.75742,150.03406)"/>
<use data-text=")" xlink:href="#font_1_86" transform="matrix(8.966669,0,0,-8.967207,204.87738,150.03406)"/>
<use data-text="1" xlink:href="#font_1_82" transform="matrix(8.966669,0,0,-8.967207,222.41623,139.07408)"/>
<use data-text="3" xlink:href="#font_1_106" transform="matrix(8.966669,0,0,-8.967207,227.02512,139.07408)"/>
<use data-text="2" xlink:href="#font_1_107" transform="matrix(8.966669,0,0,-8.967207,231.63397,139.07408)"/>
<use data-text="(" xlink:href="#font_1_85" transform="matrix(8.966669,0,0,-8.967207,215.48102,150.03406)"/>
<use data-text="+" xlink:href="#font_1_89" transform="matrix(8.966669,0,0,-8.967207,219.06769,150.03406)"/>
<use data-text="2" xlink:href="#font_1_107" transform="matrix(8.966669,0,0,-8.967207,226.23206,150.03406)"/>
<use data-text="s" xlink:href="#font_1_98" transform="matrix(8.966669,0,0,-8.967207,230.84095,150.03406)"/>
<use data-text="d" xlink:href="#font_1_47" transform="matrix(8.966669,0,0,-8.967207,234.47245,150.03406)"/>
<use data-text=")" xlink:href="#font_1_86" transform="matrix(8.966669,0,0,-8.967207,239.5924,150.03406)"/>
<use data-text="1" xlink:href="#font_1_82" transform="matrix(8.966669,0,0,-8.967207,257.1313,139.17209)"/>
<use data-text="4" xlink:href="#font_1_57" transform="matrix(8.966669,0,0,-8.967207,261.74015,139.17209)"/>
<use data-text="8" xlink:href="#font_1_51" transform="matrix(8.966669,0,0,-8.967207,266.34904,139.17209)"/>
<use data-text="(" xlink:href="#font_1_85" transform="matrix(8.966669,0,0,-8.967207,250.19608,150.13208)"/>
<use data-text="+" xlink:href="#font_1_89" transform="matrix(8.966669,0,0,-8.967207,253.78275,150.13208)"/>
<use data-text="3" xlink:href="#font_1_106" transform="matrix(8.966669,0,0,-8.967207,260.9471,150.13208)"/>
<use data-text="s" xlink:href="#font_1_98" transform="matrix(8.966669,0,0,-8.967207,265.55598,150.13208)"/>
<use data-text="d" xlink:href="#font_1_47" transform="matrix(8.966669,0,0,-8.967207,269.1875,150.13208)"/>
<use data-text=")" xlink:href="#font_1_86" transform="matrix(8.966669,0,0,-8.967207,274.30747,150.13208)"/>
<path transform="matrix(1.00003,0,0,-1.00009,40.565774,127.45503)" stroke-width="1.19553" stroke-linecap="butt" stroke-miterlimit="10" stroke-linejoin="miter" fill="none" stroke="#0092b8" d="M0 0 2.41043 .09093 4.82094 .20354 7.23138 .3422 9.64188 .51193 12.05234 .71861 14.46281 .9693 16.87328 1.27104 19.28377 1.63318 21.69421 2.06506 24.1047 2.57674 26.51517 3.18034 28.92564 3.88882 31.33614 4.7155 33.7466 5.67365 36.15707 6.77965 38.56754 8.04877 40.978 9.49657 43.38847 11.13698 45.79893 12.99101 48.20941 15.06398 50.61987 17.37567 53.03036 19.94113 55.44081 22.75536 57.8513 25.84598 60.26181 29.20168 62.67226 32.82121 65.08275 36.71715 67.49321 40.86311 69.90369 45.26158 72.31415 49.87363 74.72464 54.69928 77.13509 59.68825 79.54555 64.8154 81.95602 70.04305 84.36649 75.31973 86.77698 80.61147 89.18742 85.85295 91.59792 90.99144 94.00838 95.96655 96.41885 100.71683 98.82935 105.2045 101.2398 109.363 103.65028 113.13332 106.06075 116.46388 108.47124 119.31581 110.88168 121.65262 113.29218 123.42659 115.70264 124.63266 118.11313 125.23572 120.52357 125.24702 122.93402 124.64398 125.34448 123.4517 127.75494 121.66644 130.16539 119.34091 132.57585 116.50159 134.98632 113.17226 137.39676 109.40071 139.80722 105.25475 142.21768 100.76958 144.62813 96.01808 147.03859 91.04167 149.44905 85.90195 151.8595 80.66046 154.26996 75.3838 156.68042 70.09206 159.09087 64.8644 161.50133 59.7385 163.91179 54.74828 166.32224 49.9239 168.7327 45.29927 171.14315 40.91336 173.55359 36.75359 175.96405 32.85765 178.3745 29.23813 180.78496 25.87236 183.19542 22.78049 185.60587 19.96626 188.01633 17.40079 190.42679 15.0778 192.83724 13.00357 195.2477 11.15411 197.65816 9.51152 200.0686 8.06296 202.47907 6.79106 204.88953 5.6838 207.29998 4.72408 209.71044 3.89645 212.1209 3.18736 214.53134 2.58261 216.9418 2.06989 219.35225 1.63751 221.7627 1.27444 224.17316 .97206 226.5836 .72107 228.99407 .51381 231.40453 .34377 233.81497 .20485 236.22544 .09196 238.6359 .0008"/>
<path transform="matrix(1.00003,0,0,-1.00009,40.565774,127.45503)" stroke-width=".3985" stroke-linecap="butt" stroke-dasharray="2.98883,2.98883" stroke-miterlimit="10" stroke-linejoin="miter" fill="none" stroke="#7f807f" d="M119.33028-.34132V120.58734"/>
<path transform="matrix(1.00003,0,0,-1.00009,40.565774,127.45503)" stroke-width=".3985" stroke-linecap="butt" stroke-dasharray="2.98883,2.98883" stroke-miterlimit="10" stroke-linejoin="miter" fill="none" stroke="#7f807f" d="M154.04454-.34132V70.2004"/>
<use data-text="I" xlink:href="#font_2_65" transform="matrix(9.962899,0,0,-9.963496,140.91779,152.94533)"/>
<use data-text="Q" xlink:href="#font_2_90" transform="matrix(9.962899,0,0,-9.963496,144.51439,152.94533)"/>
<use data-text="S" xlink:href="#font_2_97" transform="matrix(9.962899,0,0,-9.963496,155.57321,152.94533)"/>
<use data-text="c" xlink:href="#font_2_43" transform="matrix(9.962899,0,0,-9.963496,161.11258,152.94533)"/>
<use data-text="o" xlink:href="#font_2_81" transform="matrix(9.962899,0,0,-9.963496,165.53612,152.94533)"/>
<use data-text="r" xlink:href="#font_2_96" transform="matrix(9.962899,0,0,-9.963496,170.51755,152.94533)"/>
<use data-text="e" xlink:href="#font_2_50" transform="matrix(9.962899,0,0,-9.963496,174.423,152.94533)"/>
<use data-text="P" xlink:href="#font_2_83" transform="matrix(0,-9.963496,-9.962899,-0,8.130806,107.49924)"/>
<use data-text="r" xlink:href="#font_2_96" transform="matrix(0,-9.963496,-9.962899,-0,8.130806,100.714099)"/>
<use data-text="o" xlink:href="#font_2_81" transform="matrix(0,-9.963496,-9.962899,-0,8.130806,96.80841)"/>
<use data-text="b" xlink:href="#font_2_35" transform="matrix(0,-9.963496,-9.962899,-0,8.130806,91.82666)"/>
<use data-text="a" xlink:href="#font_2_28" transform="matrix(0,-9.963496,-9.962899,-0,8.130806,86.28697)"/>
<use data-text="b" xlink:href="#font_2_35" transform="matrix(0,-9.963496,-9.962899,-0,8.130806,81.30522)"/>
<use data-text="i" xlink:href="#font_2_66" transform="matrix(0,-9.963496,-9.962899,-0,8.130806,75.76553)"/>
<use data-text="l" xlink:href="#font_2_72" transform="matrix(0,-9.963496,-9.962899,-0,8.130806,72.99567)"/>
<use data-text="i" xlink:href="#font_2_66" transform="matrix(0,-9.963496,-9.962899,-0,8.130806,70.225818)"/>
<use data-text="t" xlink:href="#font_2_105" transform="matrix(0,-9.963496,-9.962899,-0,8.130806,67.45596)"/>
<use data-text="y" xlink:href="#font_2_118" transform="matrix(0,-9.963496,-9.962899,-0,8.130806,63.859117)"/>
<use data-text="D" xlink:href="#font_2_46" transform="matrix(0,-9.963496,-9.962899,-0,8.130806,55.290513)"/>
<use data-text="e" xlink:href="#font_2_50" transform="matrix(0,-9.963496,-9.962899,-0,8.130806,47.678407)"/>
<use data-text="n" xlink:href="#font_2_77" transform="matrix(0,-9.963496,-9.962899,-0,8.130806,43.25461)"/>
<use data-text="s" xlink:href="#font_2_98" transform="matrix(0,-9.963496,-9.962899,-0,8.130806,37.714906)"/>
<use data-text="i" xlink:href="#font_2_66" transform="matrix(0,-9.963496,-9.962899,-0,8.130806,33.78929)"/>
<use data-text="t" xlink:href="#font_2_105" transform="matrix(0,-9.963496,-9.962899,-0,8.130806,31.01944)"/>
<use data-text="y" xlink:href="#font_2_118" transform="matrix(0,-9.963496,-9.962899,-0,8.130806,27.412644)"/>
</svg>
