<svg xmlns="http://www.w3.org/2000/svg" xmlns:xlink="http://www.w3.org/1999/xlink" xmlns:inkscape="http://www.inkscape.org/namespaces/inkscape" version="1.1" width="246" height="100" viewBox="0 0 246 100">
<defs>
<path id="font_1_1" d="M.45999146 .31976319C.45999146 .39982606 .45498658 .47988893 .41999818 .5539398 .37399293 .65000918 .2919922 .6660156 .25 .6660156 .18998719 .6660156 .116989139 .64001467 .07598877 .54693606 .04399109 .47789 .038986207 .39982606 .038986207 .31976319 .038986207 .24472046 .042999269 .15464783 .083999637 .07859802 .1269989-.0024719239 .19999695-.022460938 .24899292-.022460938 .30299378-.022460938 .3789978-.0014648438 .4229889 .09359741 .45498658 .16265869 .45999146 .2407074 .45999146 .31976319M.24899292-.00047302247C.20999146-.00047302247 .15098572 .024551392 .1329956 .12062073 .12199402 .18066406 .12199402 .2727356 .12199402 .3317871 .12199402 .39582826 .12199402 .46188355 .12998963 .5159149 .14898682 .63500979 .22399903 .64401248 .24899292 .64401248 .28199769 .64401248 .34799195 .6259918 .36698915 .52693179 .3769989 .47088624 .3769989 .39482118 .3769989 .3317871 .3769989 .25672914 .3769989 .18867493 .3659973 .12461853 .35099793 .029556275 .2939911-.00047302247 .24899292-.00047302247Z"/>
<path id="font_1_2" d="M.2939911 .64004519C.2939911 .66400149 .2939911 .6660156 .2709961 .6660156 .20899964 .60227969 .12098694 .60227969 .08898926 .60227969V.57128909C.10899353 .57128909 .16799927 .57128909 .21998596 .5972748V.07902527C.21998596 .042999269 .21699524 .0309906 .1269989 .0309906H.09498596V0C.12998963 .0029907227 .21699524 .0029907227 .25698854 .0029907227 .29699708 .0029907227 .38398744 .0029907227 .4189911 0V.0309906H.3869934C.29699708 .0309906 .2939911 .041992189 .2939911 .07902527V.64004519Z"/>
<path id="font_1_3" d="M.1269989 .07699585 .23298645 .18003845C.3889923 .31811524 .44898988 .3721466 .44898988 .47216798 .44898988 .5860901 .35899354 .6660156 .23699951 .6660156 .12399292 .6660156 .049987794 .57411196 .049987794 .48516847 .049987794 .4291687 .099990848 .4291687 .102996829 .4291687 .11999512 .4291687 .15499878 .44117738 .15499878 .48217774 .15499878 .5081787 .13699341 .5341797 .101989749 .5341797 .09399414 .5341797 .09199524 .5341797 .08898926 .5331726 .11199951 .59806826 .1659851 .63500979 .22399903 .63500979 .31498719 .63500979 .35798646 .5541382 .35798646 .47216798 .35798646 .39215089 .30799867 .31311036 .25299073 .25108338L.06098938 .036987306C.049987794 .025985718 .049987794 .023986817 .049987794 0H.42099L.44898988 .17404175H.42399598C.4189911 .14402771 .4119873 .1000061 .4019928 .084991458 .394989 .07699585 .32899476 .07699585 .30699159 .07699585H.1269989Z"/>
<path id="font_1_4" d="M.2899933 .35191346C.37199403 .37893678 .42999269 .4490509 .42999269 .52809146 .42999269 .6100464 .34199525 .6660156 .24598694 .6660156 .14498902 .6660156 .068984989 .60606387 .068984989 .53009036 .068984989 .49710084 .09098816 .47808839 .11999512 .47808839 .15098572 .47808839 .17098999 .50009158 .17098999 .5290985 .17098999 .57910159 .12399292 .57910159 .10899353 .57910159 .13999939 .62802127 .20599365 .64100649 .24198914 .64100649 .2829895 .64100649 .33799745 .6190338 .33799745 .5290985 .33799745 .51708987 .33599855 .45906068 .30999757 .4149933 .27999879 .36691285 .24598694 .36390687 .22099304 .36291505 .21299744 .36190797 .18899536 .35990907 .18199158 .35990907 .17399597 .35890199 .16699219 .35791017 .16699219 .3479004 .16699219 .33691407 .17399597 .33691407 .19099427 .33691407H.23498535C.31698609 .33691407 .35398866 .2686615 .35398866 .17037964 .35398866 .034469606 .2849884 .0055389406 .24099732 .0055389406 .19799805 .0055389406 .12298584 .022491456 .08799744 .08137512 .12298584 .07637024 .1539917 .09837341 .1539917 .1363678 .1539917 .17237854 .1269989 .19238281 .09799194 .19238281 .07398987 .19238281 .041992189 .17837525 .041992189 .1343689 .041992189 .043441774 .1349945-.022460938 .24398804-.022460938 .3659973-.022460938 .45700074 .06838989 .45700074 .17037964 .45700074 .252594 .3939972 .33088685 .2899933 .35191346Z"/>
<path id="font_1_5" d="M.2939911 .16503906V.07800293C.2939911 .041992189 .2919922 .0309906 .21798706 .0309906H.19699097V0C.23799134 .0029907227 .2899933 .0029907227 .33198548 .0029907227 .37399293 .0029907227 .4269867 .0029907227 .46798707 0V.0309906H.44699098C.37298585 .0309906 .37098695 .041992189 .37098695 .07800293V.16503906H.47099305V.19602967H.37098695V.65075686C.37098695 .67074587 .37098695 .6767578 .35499574 .6767578 .34599305 .6767578 .34298707 .6767578 .33499146 .66474917L.027999878 .19602967V.16503906H.2939911M.2999878 .19602967H.055999757L.2999878 .5688019V.19602967Z"/>
<path id="font_1_6" d="M.44898988 .20022583C.44898988 .3193512 .36698915 .41944886 .25898744 .41944886 .21099854 .41944886 .16799927 .40345765 .13198853 .36842347V.5637665C.1519928 .5577698 .18499756 .55078127 .21699524 .55078127 .33999635 .55078127 .4099884 .6417694 .4099884 .6547699 .4099884 .6607666 .40699769 .6657715 .3999939 .6657715 .39898683 .6657715 .39698792 .6657715 .3919983 .66278079 .37199403 .6537781 .32299806 .6337738 .2559967 .6337738 .21598816 .6337738 .16999817 .6407776 .12298584 .6617737 .114990238 .66477969 .11299133 .66477969 .11099243 .66477969 .100997928 .66477969 .100997928 .6567688 .100997928 .6407776V.34439088C.100997928 .32637025 .100997928 .31835938 .114990238 .31835938 .12199402 .31835938 .12399292 .32136537 .12799073 .32736207 .13899231 .3433838 .17599488 .39746095 .25698854 .39746095 .30899049 .39746095 .33399964 .35139466 .34199525 .33337403 .35798646 .29632569 .3600006 .25727845 .3600006 .20722962 .3600006 .17222595 .3600006 .11222839 .33599855 .07035828 .31199647 .031463624 .2749939 .0055389406 .22898865 .0055389406 .1559906 .0055389406 .09899902 .058380128 .08198547 .11723328 .084991458 .1162262 .08799744 .115234378 .09899902 .115234378 .13198853 .115234378 .14898682 .14022827 .14898682 .16423035 .14898682 .18823242 .13198853 .21322632 .09899902 .21322632 .084991458 .21322632 .049987794 .20622254 .049987794 .16023255 .049987794 .07434082 .11898804-.022460938 .23098755-.022460938 .34700013-.022460938 .44898988 .073349 .44898988 .20022583Z"/>
<clipPath id="clip_2">
<path transform="matrix(1.00002,0,0,-1,3.7077714,70.344)" d="M0 0H238.63304V68.54572H0Z"/>
</clipPath>
<path id="font_3_74" d="M.8789978 0V.0309906H.8549957C.7779999 .0309906 .776001 .041992189 .776001 .07795715V.6046295C.776001 .64060977 .7779999 .6516113 .8549957 .6516113H.8789978V.6826172H.70999148C.6839905 .6826172 .6839905 .6816101 .6769867 .66360476L.45799256 .10095215 .24099732 .660614C.23199463 .6826172 .22898865 .6826172 .20599365 .6826172H.036987306V.6516113H.06098938C.13798523 .6516113 .13999939 .64060977 .13999939 .6046295V.10494995C.13999939 .07795715 .13999939 .0309906 .036987306 .0309906V0L.1539917 .0029907227 .2709961 0V.0309906C.16799927 .0309906 .16799927 .07795715 .16799927 .10494995V.6436157H.16899109L.4099884 .021987915C.4149933 .008987427 .41999818 0 .42999269 0 .44099427 0 .44400025 .0079956059 .44799806 .018997193L.69400027 .6516113H.69499209V.07795715C.69499209 .041992189 .69299319 .0309906 .6159973 .0309906H.59199526V0C.6289978 .0029907227 .69699099 .0029907227 .73599246 .0029907227 .7749939 .0029907227 .84199526 .0029907227 .8789978 0Z"/>
<path id="font_3_50" d="M.4149933 .11933899C.4149933 .12934876 .40699769 .13134766 .4019928 .13134766 .3929901 .13134766 .3909912 .12535095 .3889923 .11734009 .35398866 .014251709 .2639923 .014251709 .2539978 .014251709 .20399475 .014251709 .1639862 .044281007 .14099121 .08131409 .11099243 .12934876 .11099243 .19540406 .11099243 .23144531H.3899994C.4119873 .23144531 .4149933 .23144531 .4149933 .2524414 .4149933 .35131837 .36099244 .4482422 .23599243 .4482422 .11999512 .4482422 .027999878 .34532167 .027999878 .22042847 .027999878 .08631897 .1329956-.0107421879 .24798584-.0107421879 .36999513-.0107421879 .4149933 .10032654 .4149933 .11933899M.34899903 .2524414H.11199951C.117996219 .40126039 .20199585 .426239 .23599243 .426239 .33898927 .426239 .34899903 .2913971 .34899903 .2524414Z"/>
<path id="font_3_28" d="M.48298646 .08912659V.14511109H.45799256V.08912659C.45799256 .03112793 .43299867 .025131226 .42199708 .025131226 .3889923 .025131226 .3849945 .070129398 .3849945 .07511902V.27508546C.3849945 .31707765 .3849945 .3560791 .34899903 .39312745 .30999757 .43223573 .2599945 .4482422 .21199036 .4482422 .12998963 .4482422 .06098938 .40115357 .06098938 .335083 .06098938 .30508424 .08099365 .28808595 .10699463 .28808595 .1349945 .28808595 .15299988 .30807496 .15299988 .33407594 .15299988 .3460846 .147995 .37908937 .101989749 .38008119 .1289978 .41519166 .17799378 .426239 .20999146 .426239 .25898744 .426239 .31599427 .38710023 .31599427 .29808045V.26107789C.2649994 .25808717 .19499207 .25508119 .13198853 .22509766 .056991579 .19110108 .03199768 .13911438 .03199768 .09512329 .03199768 .014251709 .1289978-.0107421879 .19198609-.0107421879 .2579956-.0107421879 .3039856 .029251099 .32299806 .07624817 .32699586 .036132814 .35398866-.005859375 .40098573-.005859375 .42199708-.005859375 .48298646 .008132935 .48298646 .08912659M.31599427 .14013672C.31599427 .04525757 .24398804 .011245728 .19898987 .011245728 .1499939 .011245728 .10899353 .04624939 .10899353 .09625244 .10899353 .15124512 .15098572 .23425293 .31599427 .24024964V.14013672Z"/>
<path id="font_3_77" d="M.5349884 0V.0309906C.48298646 .0309906 .45799256 .0309906 .45700074 .061019899V.25221253C.45700074 .3383026 .45700074 .36932374 .42599488 .405365 .4119873 .42237855 .3789978 .4423828 .32099916 .4423828 .24798584 .4423828 .20098877 .39935304 .17298889 .33729554V.4423828L.03199768 .43066407V.3996582C.101989749 .3996582 .10998535 .39266969 .10998535 .34370423V.07595825C.10998535 .0309906 .09899902 .0309906 .03199768 .0309906V0L.14498902 .0029907227 .25698854 0V.0309906C.18998719 .0309906 .1789856 .0309906 .1789856 .07595825V.25978089C.1789856 .36431886 .25 .42037965 .31399537 .42037965 .3769989 .42037965 .3880005 .36631776 .3880005 .30926515V.076034549C.3880005 .0309906 .3769989 .0309906 .30999757 .0309906V0L.4229889 .0029907227 .5349884 0Z"/>
<path id="font_3_44" d="M.19198609 .37765504C.19198609 .406662 .16799927 .43066407 .13899231 .43066407 .10998535 .43066407 .085998538 .406662 .085998538 .37765504 .085998538 .34866334 .10998535 .32466126 .13899231 .32466126 .16799927 .32466126 .19198609 .34866334 .19198609 .37765504M.19198609 .052993776C.19198609 .08198547 .16799927 .10598755 .13899231 .10598755 .10998535 .10598755 .085998538 .08198547 .085998538 .052993776 .085998538 .023986817 .10998535 0 .13899231 0 .16799927 0 .19198609 .023986817 .19198609 .052993776Z"/>
<path id="font_3_82" d="M.4189911 0V.0309906H.3869934C.29699708 .0309906 .2939911 .041992189 .2939911 .07902527V.64012148C.2939911 .6640167 .2939911 .6660156 .2709961 .6660156 .20899964 .60227969 .12098694 .60227969 .08898926 .60227969V.57128909C.10899353 .57128909 .16799927 .57128909 .21998596 .5972748V.07902527C.21998596 .042999269 .21699524 .0309906 .1269989 .0309906H.09498596V0C.12998963 .0029907227 .21699524 .0029907227 .25698854 .0029907227 .29699708 .0029907227 .38398744 .0029907227 .4189911 0Z"/>
<path id="font_3_88" d="M.19198609 .052993776C.19198609 .08198547 .16799927 .10598755 .13899231 .10598755 .10998535 .10598755 .085998538 .08198547 .085998538 .052993776 .085998538 .023986817 .10998535 0 .13899231 0 .16799927 0 .19198609 .023986817 .19198609 .052993776Z"/>
<path id="font_3_78" d="M.45700074 .32888795C.45700074 .598114 .34199525 .6660156 .25299073 .6660156 .19799805 .6660156 .14898682 .64801028 .10598755 .6031189 .06498718 .5580902 .041992189 .5160217 .041992189 .44091798 .041992189 .3158722 .12998963 .21777344 .24198914 .21777344 .30299378 .21777344 .34399415 .25979615 .36698915 .3178711V.28582765C.36698915 .05178833 .2630005 .0055389406 .20498657 .0055389406 .18798828 .0055389406 .13398743 .007537842 .10699463 .041778566 .15098572 .041778566 .15899658 .07078552 .15899658 .08778381 .15899658 .118774417 .1349945 .13378906 .11299133 .13378906 .09700012 .13378906 .066986087 .12478638 .066986087 .08578491 .066986087 .018615723 .12098694-.022460938 .20599365-.022460938 .33499146-.022460938 .45700074 .11378479 .45700074 .32888795M.36499024 .42089845C.36499024 .33789063 .33099366 .24076844 .24299622 .24076844 .22698975 .2407074 .18099976 .2407074 .1499939 .30371095 .13198853 .34072877 .13198853 .3908081 .13198853 .43988038 .13198853 .49397279 .13198853 .5410614 .15299988 .578125 .17999268 .62805178 .21798706 .64100649 .25299073 .64100649 .29899598 .64100649 .33198548 .60710147 .34899903 .562088 .36099244 .52989199 .36499024 .46688844 .36499024 .42089845Z"/>
<path id="font_3_57" d="M.47099305 .16503906V.19602967H.37098695V.6507721C.37098695 .6707611 .37098695 .6767578 .35499574 .6767578 .34599305 .6767578 .34298707 .6767578 .33499146 .6647644L.027999878 .19602967V.16503906H.2939911V.07800293C.2939911 .041992189 .2919922 .0309906 .21798706 .0309906H.19699097V0C.23799134 .0029907227 .2899933 .0029907227 .33198548 .0029907227 .37399293 .0029907227 .4269867 .0029907227 .46798707 0V.0309906H.44699098C.37298585 .0309906 .37098695 .041992189 .37098695 .07800293V.16503906H.47099305M.2999878 .19602967H.055999757L.2999878 .56881716V.19602967Z"/>
<path id="font_4_1" d="M.40899659 .31253053H.68699648C.70399478 .31253053 .7220001 .31253053 .7220001 .3325348 .7220001 .35253907 .70399478 .35253907 .68699648 .35253907H.40899659V.62898257C.40899659 .6450043 .40899659 .6660156 .3889923 .6660156 .36898805 .6660156 .36898805 .64801028 .36898805 .6319885V.35253907H.08999634C.07299805 .35253907 .054992677 .35253907 .054992677 .3325348 .054992677 .31253053 .07299805 .31253053 .08999634 .31253053H.36898805V.039993287H.08999634C.07299805 .039993287 .054992677 .039993287 .054992677 .019989014 .054992677 0 .07299805 0 .08999634 0H.68699648C.70399478 0 .7220001 0 .7220001 .019989014 .7220001 .039993287 .70399478 .039993287 .68699648 .039993287H.40899659V.31253053Z"/>
<path id="font_5_1" d="M.5179901 .37265016C.5309906 .37265016 .5669861 .37265016 .5669861 .406662 .5669861 .43066407 .54599 .43066407 .5279999 .43066407H.2999878C.14898682 .43066407 .037994386 .26583863 .037994386 .14703369 .037994386 .059173585 .09700012-.0107421879 .18798828-.0107421879 .30599977-.0107421879 .43899537 .11009216 .43899537 .26383973 .43899537 .2808075 .43899537 .32873536 .4079895 .37265016H.5179901M.18899536 .011245728C.13999939 .011245728 .099990848 .047195436 .099990848 .11907959 .099990848 .14901734 .11199951 .230896 .14698792 .28979493 .18899536 .3586731 .24899292 .37265016 .2829895 .37265016 .36698915 .37265016 .375 .3067627 .375 .27581788 .375 .2288971 .35499574 .14703369 .32099916 .09611511 .28199769 .037200929 .22799683 .011245728 .18899536 .011245728Z"/>
<path id="font_3_95" d="M.7319946 .08753967C.7319946 .09353638 .7319946 .104537967 .71899417 .104537967 .70799258 .104537967 .70799258 .09555054 .70700076 .08854675 .70098879 .017532349 .66600039-.00047302247 .6409912-.00047302247 .59199526-.00047302247 .58399966 .05053711 .56999209 .14355469L.5569916 .22355652C.5389862 .28756715 .48999024 .3205719 .43499757 .3395691 .5319977 .36357118 .6100006 .4245758 .6100006 .502594 .6100006 .5986023 .49598695 .6826172 .34899903 .6826172H.034988405V.6516113H.05899048C.13598633 .6516113 .13798523 .64060977 .13798523 .604599V.077545169C.13798523 .04197693 .13598633 .0309906 .05899048 .0309906H.034988405V0C.070999149 .0029907227 .14199829 .0029907227 .18099976 .0029907227 .21998596 .0029907227 .29100038 .0029907227 .32699586 0V.0309906H.30299378C.22599793 .0309906 .22399903 .04197693 .22399903 .077926639V.3305359H.33898927C.35499574 .3305359 .39698792 .3305359 .43199159 .29658509 .46998597 .26063539 .46998597 .22969055 .46998597 .16279602 .46998597 .09788513 .46998597 .05795288 .5109863 .019989014 .5519867-.016464234 .6069946-.022460938 .6369934-.022460938 .71499636-.022460938 .7319946 .059524537 .7319946 .087524417V.08753967M.5069885 .5025635C.5069885 .43354798 .48298646 .35253907 .33499146 .35253907H.22399903V.6116028C.22399903 .6345978 .22399903 .64660647 .24598694 .6496124 .2559967 .6516113 .2849884 .6516113 .30499269 .6516113 .394989 .6516113 .5069885 .6476135 .5069885 .5025635Z"/>
<path id="font_3_66" d="M.24699402 0V.0309906C.18099976 .0309906 .1769867 .035995485 .1769867 .075042728V.4423828L.036987306 .43066407V.3996582C.101989749 .3996582 .11099243 .3936615 .11099243 .3447113V.07595825C.11099243 .0309906 .099990848 .0309906 .032989503 .0309906V0L.14299011 .0029907227C.17799378 .0029907227 .21299744 .0009918213 .24699402 0M.19198609 .603775C.19198609 .6307678 .16899109 .6567688 .13899231 .6567688 .10499573 .6567688 .084991458 .6287689 .084991458 .603775 .084991458 .57676699 .10798645 .55078127 .13798523 .55078127 .17199707 .55078127 .19198609 .5787811 .19198609 .603775Z"/>
<path id="font_3_55" d="M.35699464 .63479617C.35699464 .6717987 .31999208 .7050781 .2669983 .7050781 .19699097 .7050781 .11199951 .65179446 .11199951 .5457611V.43066407H.032989503V.3996582H.11199951V.07595825C.11199951 .0309906 .100997928 .0309906 .033996583 .0309906V0L.147995 .0029907227C.18798828 .0029907227 .23498535 .0029907227 .2749939 0V.0309906H.2539978C.17999268 .0309906 .17799378 .04197693 .17799378 .07795715V.3996582H.2919922V.43066407H.1749878V.5467529C.1749878 .63479617 .22299195 .68307498 .2669983 .68307498 .269989 .68307498 .2849884 .68307498 .2999878 .675827 .28799439 .6717987 .269989 .6587982 .269989 .6338043 .269989 .61079409 .28599549 .5907898 .31298829 .5907898 .34199525 .5907898 .35699464 .61079409 .35699464 .63479617Z"/>
<path id="font_3_72" d="M.25498963 0V.0309906C.18798828 .0309906 .1769867 .0309906 .1769867 .07601929V.69433596L.032989503 .6826172V.6516113C.102996829 .6516113 .11099243 .64460757 .11099243 .5956421V.07595825C.11099243 .0309906 .099990848 .0309906 .032989503 .0309906V0L.14399719 .0029907227 .25498963 0Z"/>
<path id="font_3_85" d="M.33099366-.2400055C.33099366-.23701477 .33099366-.23500061 .31399537-.21800232 .18899536-.0920105 .15699768 .09700012 .15699768 .25 .15699768 .42399598 .19499207 .59799197 .31799317 .72299197 .33099366 .7350006 .33099366 .7369995 .33099366 .73999026 .33099366 .746994 .32699586 .75 .32099916 .75 .31098939 .75 .22099304 .6819916 .1619873 .5549927 .11099243 .44499208 .09899902 .33399964 .09899902 .25 .09899902 .17199707 .10998535 .050994874 .16499329-.06201172 .22499085-.18501282 .31098939-.25 .32099916-.25 .32699586-.25 .33099366-.24700928 .33099366-.2400055Z"/>
<path id="font_3_43" d="M.4149933 .119140628C.4149933 .12911988 .40499879 .12911988 .4019928 .12911988 .3929901 .12911988 .3909912 .12512207 .3889923 .119140628 .3600006 .026229859 .29499818 .014251709 .2579956 .014251709 .20498657 .014251709 .116989139 .0572052 .116989139 .21801758 .116989139 .38093568 .19898987 .42323304 .2519989 .42323304 .26098634 .42323304 .32398988 .42222596 .35899354 .38594056 .31799317 .38293458 .31199647 .3529358 .31199647 .3399353 .31199647 .31393434 .32998658 .2939453 .35798646 .2939453 .38398744 .2939453 .4039917 .3109436 .4039917 .34094239 .4039917 .40911866 .32798768 .4482422 .25099183 .4482422 .12599182 .4482422 .033996583 .3399353 .033996583 .21601868 .033996583 .08816528 .1329956-.0107421879 .24899292-.0107421879 .3829956-.0107421879 .4149933 .10914612 .4149933 .119140628Z"/>
<path id="font_3_63" d="M.5349884 0V.0309906C.48298646 .0309906 .45799256 .0309906 .45700074 .061019899V.25221253C.45700074 .3383026 .45700074 .36932374 .42599488 .405365 .4119873 .42237855 .3789978 .4423828 .32099916 .4423828 .23699951 .4423828 .19299317 .38233949 .1769867 .34629823H.17599488V.69433596L.03199768 .6826172V.6516113C.101989749 .6516113 .10998535 .64463809 .10998535 .59580996V.076034549C.10998535 .0309906 .09899902 .0309906 .03199768 .0309906V0L.14498902 .0029907227 .25698854 0V.0309906C.18998719 .0309906 .1789856 .0309906 .1789856 .076034549V.2602234C.1789856 .36431886 .25 .42037965 .31399537 .42037965 .3769989 .42037965 .3880005 .36631776 .3880005 .30926515V.076034549C.3880005 .0309906 .3769989 .0309906 .30999757 .0309906V0L.4229889 .0029907227 .5349884 0Z"/>
<path id="font_3_98" d="M.3600006 .12823487C.3600006 .18122864 .32998658 .21122742 .31799317 .22323609 .2849884 .25523377 .24598694 .26322938 .20399475 .27124024 .147995 .28224183 .08099365 .29522706 .08099365 .35324098 .08099365 .38822938 .10699463 .42922975 .19299317 .42922975 .30299378 .42922975 .30799867 .3392334 .30999757 .30822755 .31098939 .2992401 .32199098 .2992401 .32199098 .2992401 .33499146 .2992401 .33499146 .30422975 .33499146 .32322694V.4242401C.33499146 .4412384 .33499146 .4482422 .32398988 .4482422 .31900025 .4482422 .31698609 .4482422 .3039856 .43623353 .30099488 .43223573 .29100038 .42323304 .2869873 .42022706 .24899292 .4482422 .20799256 .4482422 .19299317 .4482422 .070999149 .4482422 .032989503 .38124085 .032989503 .3252411 .032989503 .29023744 .04899597 .26223756 .07598877 .24023438 .10798645 .2142334 .13598633 .2082367 .20799256 .19422913 .22999573 .19021607 .31199647 .17422486 .31199647 .10221863 .31199647 .051223756 .2769928 .011245728 .19898987 .011245728 .114990238 .011245728 .07899475 .068222049 .05999756 .1532135 .056991579 .16621399 .055999757 .17021179 .04598999 .17021179 .032989503 .17021179 .032989503 .16322327 .032989503 .1452179V.013214111C.032989503-.003753662 .032989503-.0107421879 .04399109-.0107421879 .04899597-.0107421879 .049987794-.009750366 .068984989 .009246826 .070999149 .011245728 .070999149 .013214111 .08898926 .032226564 .1329956-.009750366 .17799378-.0107421879 .19898987-.0107421879 .31399537-.0107421879 .3600006 .05621338 .3600006 .1282196V.12823487Z"/>
<path id="font_3_86" d="M.2889862 .25C.2889862 .32798768 .27799989 .44898988 .22299195 .56199648 .16299439 .68499758 .07699585 .75 .066986087 .75 .06098938 .75 .056991579 .74598696 .056991579 .73999026 .056991579 .7369995 .056991579 .7350006 .07598877 .71699526 .17399597 .6179962 .23098755 .45899964 .23098755 .25 .23098755 .07899475 .19400025-.09700012 .069992069-.2230072 .056991579-.23500061 .056991579-.23701477 .056991579-.2400055 .056991579-.2460022 .06098938-.25 .066986087-.25 .07699585-.25 .16699219-.18200684 .22599793-.055007936 .2769928 .054992677 .2889862 .16600037 .2889862 .25Z"/>
</defs>
<path transform="matrix(1.00002,0,0,-1,3.7077714,70.344)" stroke-width=".3985" stroke-linecap="butt" stroke-dasharray="2.98883,2.98883" stroke-miterlimit="10" stroke-linejoin="miter" fill="none" stroke="#d9d9d9" d="M0 0V68.54572M47.72661 0V68.54572M95.45322 0V68.54572M143.17983 0V68.54572M190.90644 0V68.54572M238.63304 0V68.54572"/>
<path transform="matrix(1.00002,0,0,-1,3.7077714,70.344)" stroke-width=".19925" stroke-linecap="butt" stroke-miterlimit="10" stroke-linejoin="miter" fill="none" stroke="#7f807f" d="M0-2.12598V2.12598M47.72661-2.12598V2.12598M95.45322-2.12598V2.12598M143.17983-2.12598V2.12598M190.90644-2.12598V2.12598M238.63304-2.12598V2.12598"/>
<path transform="matrix(1.00002,0,0,-1,3.7077714,70.344)" stroke-width=".3985" stroke-linecap="butt" stroke-miterlimit="10" stroke-linejoin="miter" fill="none" stroke="#000000" d="M0 0H236.64052"/>
<path transform="matrix(1.00002,0,0,-1,240.35303,70.344)" d="M1.99252 0-1.19551 1.59401 0 0-1.19551-1.59401"/>
<use data-text="0" xlink:href="#font_1_1" transform="matrix(9.962799,0,0,-9.9626,1.2167206,82.41)"/>
<use data-text="1" xlink:href="#font_1_2" transform="matrix(9.962799,0,0,-9.9626,48.944677,82.41)"/>
<use data-text="2" xlink:href="#font_1_3" transform="matrix(9.962799,0,0,-9.9626,96.67263,82.41)"/>
<use data-text="3" xlink:href="#font_1_4" transform="matrix(9.962799,0,0,-9.9626,144.3996,82.41)"/>
<use data-text="4" xlink:href="#font_1_5" transform="matrix(9.962799,0,0,-9.9626,192.12754,82.41)"/>
<use data-text="5" xlink:href="#font_1_6" transform="matrix(9.962799,0,0,-9.9626,239.8545,82.41)"/>
<g clip-path="url(#clip_2)">
<path transform="matrix(1.00002,0,0,-1,3.7077714,70.344)" d="M42.95395 6.85457H142.2253V61.69115H42.95395" fill="#e6e6ff" fill-opacity=".5"/>
<path transform="matrix(1.00002,0,0,-1,3.7077714,70.344)" stroke-width=".79701" stroke-linecap="butt" stroke-dasharray="2.98883,2.98883" stroke-miterlimit="10" stroke-linejoin="miter" fill="none" stroke="#ff0000" d="M92.58961 6.85457V61.69115"/>
<use data-text="M" xlink:href="#font_3_74" transform="matrix(9.962799,0,0,-9.9626,71.80514,4.715004)" fill="#ff0000"/>
<use data-text="e" xlink:href="#font_3_50" transform="matrix(9.962799,0,0,-9.9626,80.941028,4.715004)" fill="#ff0000"/>
<use data-text="a" xlink:href="#font_3_28" transform="matrix(9.962799,0,0,-9.9626,85.36451,4.715004)" fill="#ff0000"/>
<use data-text="n" xlink:href="#font_3_77" transform="matrix(9.962799,0,0,-9.9626,90.34591,4.715004)" fill="#ff0000"/>
<use data-text=":" xlink:href="#font_3_44" transform="matrix(9.962799,0,0,-9.9626,95.88522,4.715004)" fill="#ff0000"/>
<use data-text="1" xlink:href="#font_3_82" transform="matrix(9.962799,0,0,-9.9626,103.07836,4.715004)" fill="#ff0000"/>
<use data-text="." xlink:href="#font_3_88" transform="matrix(9.962799,0,0,-9.9626,108.05976,4.715004)" fill="#ff0000"/>
<use data-text="9" xlink:href="#font_3_78" transform="matrix(9.962799,0,0,-9.9626,110.829418,4.715004)" fill="#ff0000"/>
<use data-text="4" xlink:href="#font_3_57" transform="matrix(9.962799,0,0,-9.9626,115.810817,4.715004)" fill="#ff0000"/>
<use data-text="&#x00b1;" xlink:href="#font_4_1" transform="matrix(9.962799,0,0,-9.9626,113.63598,52.866)" fill="#0000ff"/>
<use data-text="1" xlink:href="#font_1_2" transform="matrix(9.962799,0,0,-9.9626,121.38513,52.866)" fill="#0000ff"/>
<use data-text="&#x03c3;" xlink:href="#font_5_1" transform="matrix(9.962799,0,0,-9.9626,126.36624,52.866)" fill="#0000ff"/>
</g>
<path transform="matrix(1.00002,0,0,-1,3.7077714,70.344)" d="M22.07947 34.27286C22.07947 35.92355 20.74135 37.26169 19.09064 37.26169 17.43993 37.26169 16.1018 35.92355 16.1018 34.27286 16.1018 32.62215 17.43993 31.28403 19.09064 31.28403 20.74135 31.28403 22.07947 32.62215 22.07947 34.27286ZM19.09064 34.27286" fill="#0000ff"/>
<path transform="matrix(1.00002,0,0,-1,3.7077714,70.344)" stroke-width=".3985" stroke-linecap="butt" stroke-miterlimit="10" stroke-linejoin="miter" fill="none" stroke="#0000ff" d="M22.07947 34.27286C22.07947 35.92355 20.74135 37.26169 19.09064 37.26169 17.43993 37.26169 16.1018 35.92355 16.1018 34.27286 16.1018 32.62215 17.43993 31.28403 19.09064 31.28403 20.74135 31.28403 22.07947 32.62215 22.07947 34.27286ZM19.09064 34.27286"/>
<path transform="matrix(1.00002,0,0,-1,3.7077714,70.344)" d="M41.1701 34.27286C41.1701 35.92355 39.83199 37.26169 38.18127 37.26169 36.53058 37.26169 35.19244 35.92355 35.19244 34.27286 35.19244 32.62215 36.53058 31.28403 38.18127 31.28403 39.83199 31.28403 41.1701 32.62215 41.1701 34.27286ZM38.18127 34.27286" fill="#0000ff"/>
<path transform="matrix(1.00002,0,0,-1,3.7077714,70.344)" stroke-width=".3985" stroke-linecap="butt" stroke-miterlimit="10" stroke-linejoin="miter" fill="none" stroke="#0000ff" d="M41.1701 34.27286C41.1701 35.92355 39.83199 37.26169 38.18127 37.26169 36.53058 37.26169 35.19244 35.92355 35.19244 34.27286 35.19244 32.62215 36.53058 31.28403 38.18127 31.28403 39.83199 31.28403 41.1701 32.62215 41.1701 34.27286ZM38.18127 34.27286"/>
<path transform="matrix(1.00002,0,0,-1,3.7077714,70.344)" d="M50.71544 34.27286C50.71544 35.92355 49.3773 37.26169 47.72661 37.26169 46.0759 37.26169 44.73778 35.92355 44.73778 34.27286 44.73778 32.62215 46.0759 31.28403 47.72661 31.28403 49.3773 31.28403 50.71544 32.62215 50.71544 34.27286ZM47.72661 34.27286" fill="#0000ff"/>
<path transform="matrix(1.00002,0,0,-1,3.7077714,70.344)" stroke-width=".3985" stroke-linecap="butt" stroke-miterlimit="10" stroke-linejoin="miter" fill="none" stroke="#0000ff" d="M50.71544 34.27286C50.71544 35.92355 49.3773 37.26169 47.72661 37.26169 46.0759 37.26169 44.73778 35.92355 44.73778 34.27286 44.73778 32.62215 46.0759 31.28403 47.72661 31.28403 49.3773 31.28403 50.71544 32.62215 50.71544 34.27286ZM47.72661 34.27286"/>
<path transform="matrix(1.00002,0,0,-1,3.7077714,70.344)" d="M60.26076 34.27286C60.26076 35.92355 58.92264 37.26169 57.27193 37.26169 55.62122 37.26169 54.2831 35.92355 54.2831 34.27286 54.2831 32.62215 55.62122 31.28403 57.27193 31.28403 58.92264 31.28403 60.26076 32.62215 60.26076 34.27286ZM57.27193 34.27286" fill="#0000ff"/>
<path transform="matrix(1.00002,0,0,-1,3.7077714,70.344)" stroke-width=".3985" stroke-linecap="butt" stroke-miterlimit="10" stroke-linejoin="miter" fill="none" stroke="#0000ff" d="M60.26076 34.27286C60.26076 35.92355 58.92264 37.26169 57.27193 37.26169 55.62122 37.26169 54.2831 35.92355 54.2831 34.27286 54.2831 32.62215 55.62122 31.28403 57.27193 31.28403 58.92264 31.28403 60.26076 32.62215 60.26076 34.27286ZM57.27193 34.27286"/>
<path transform="matrix(1.00002,0,0,-1,3.7077714,70.344)" d="M65.03342 34.27286C65.03342 35.92355 63.6953 37.26169 62.04459 37.26169 60.39388 37.26169 59.05576 35.92355 59.05576 34.27286 59.05576 32.62215 60.39388 31.28403 62.04459 31.28403 63.6953 31.28403 65.03342 32.62215 65.03342 34.27286ZM62.04459 34.27286" fill="#0000ff"/>
<path transform="matrix(1.00002,0,0,-1,3.7077714,70.344)" stroke-width=".3985" stroke-linecap="butt" stroke-miterlimit="10" stroke-linejoin="miter" fill="none" stroke="#0000ff" d="M65.03342 34.27286C65.03342 35.92355 63.6953 37.26169 62.04459 37.26169 60.39388 37.26169 59.05576 35.92355 59.05576 34.27286 59.05576 32.62215 60.39388 31.28403 62.04459 31.28403 63.6953 31.28403 65.03342 32.62215 65.03342 34.27286ZM62.04459 34.27286"/>
<path transform="matrix(1.00002,0,0,-1,3.7077714,70.344)" d="M69.80608 34.27286C69.80608 35.92355 68.46796 37.26169 66.81725 37.26169 65.16653 37.26169 63.82841 35.92355 63.82841 34.27286 63.82841 32.62215 65.16653 31.28403 66.81725 31.28403 68.46796 31.28403 69.80608 32.62215 69.80608 34.27286ZM66.81725 34.27286" fill="#0000ff"/>
<path transform="matrix(1.00002,0,0,-1,3.7077714,70.344)" stroke-width=".3985" stroke-linecap="butt" stroke-miterlimit="10" stroke-linejoin="miter" fill="none" stroke="#0000ff" d="M69.80608 34.27286C69.80608 35.92355 68.46796 37.26169 66.81725 37.26169 65.16653 37.26169 63.82841 35.92355 63.82841 34.27286 63.82841 32.62215 65.16653 31.28403 66.81725 31.28403 68.46796 31.28403 69.80608 32.62215 69.80608 34.27286ZM66.81725 34.27286"/>
<path transform="matrix(1.00002,0,0,-1,3.7077714,70.344)" d="M88.89673 34.27286C88.89673 35.92355 87.5586 37.26169 85.9079 37.26169 84.25719 37.26169 82.91907 35.92355 82.91907 34.27286 82.91907 32.62215 84.25719 31.28403 85.9079 31.28403 87.5586 31.28403 88.89673 32.62215 88.89673 34.27286ZM85.9079 34.27286" fill="#0000ff"/>
<path transform="matrix(1.00002,0,0,-1,3.7077714,70.344)" stroke-width=".3985" stroke-linecap="butt" stroke-miterlimit="10" stroke-linejoin="miter" fill="none" stroke="#0000ff" d="M88.89673 34.27286C88.89673 35.92355 87.5586 37.26169 85.9079 37.26169 84.25719 37.26169 82.91907 35.92355 82.91907 34.27286 82.91907 32.62215 84.25719 31.28403 85.9079 31.28403 87.5586 31.28403 88.89673 32.62215 88.89673 34.27286ZM85.9079 34.27286"/>
<path transform="matrix(1.00002,0,0,-1,3.7077714,70.344)" d="M98.44205 34.27286C98.44205 35.92355 97.10393 37.26169 95.45322 37.26169 93.8025 37.26169 92.46439 35.92355 92.46439 34.27286 92.46439 32.62215 93.8025 31.28403 95.45322 31.28403 97.10393 31.28403 98.44205 32.62215 98.44205 34.27286ZM95.45322 34.27286" fill="#0000ff"/>
<path transform="matrix(1.00002,0,0,-1,3.7077714,70.344)" stroke-width=".3985" stroke-linecap="butt" stroke-miterlimit="10" stroke-linejoin="miter" fill="none" stroke="#0000ff" d="M98.44205 34.27286C98.44205 35.92355 97.10393 37.26169 95.45322 37.26169 93.8025 37.26169 92.46439 35.92355 92.46439 34.27286 92.46439 32.62215 93.8025 31.28403 95.45322 31.28403 97.10393 31.28403 98.44205 32.62215 98.44205 34.27286ZM95.45322 34.27286"/>
<path transform="matrix(1.00002,0,0,-1,3.7077714,70.344)" d="M103.2147 34.27286C103.2147 35.92355 101.87659 37.26169 100.22588 37.26169 98.57516 37.26169 97.23705 35.92355 97.23705 34.27286 97.23705 32.62215 98.57516 31.28403 100.22588 31.28403 101.87659 31.28403 103.2147 32.62215 103.2147 34.27286ZM100.22588 34.27286" fill="#0000ff"/>
<path transform="matrix(1.00002,0,0,-1,3.7077714,70.344)" stroke-width=".3985" stroke-linecap="butt" stroke-miterlimit="10" stroke-linejoin="miter" fill="none" stroke="#0000ff" d="M103.2147 34.27286C103.2147 35.92355 101.87659 37.26169 100.22588 37.26169 98.57516 37.26169 97.23705 35.92355 97.23705 34.27286 97.23705 32.62215 98.57516 31.28403 100.22588 31.28403 101.87659 31.28403 103.2147 32.62215 103.2147 34.27286ZM100.22588 34.27286"/>
<path transform="matrix(1.00002,0,0,-1,3.7077714,70.344)" d="M112.76003 34.27286C112.76003 35.92355 111.4219 37.26169 109.7712 37.26169 108.1205 37.26169 106.78236 35.92355 106.78236 34.27286 106.78236 32.62215 108.1205 31.28403 109.7712 31.28403 111.4219 31.28403 112.76003 32.62215 112.76003 34.27286ZM109.7712 34.27286" fill="#0000ff"/>
<path transform="matrix(1.00002,0,0,-1,3.7077714,70.344)" stroke-width=".3985" stroke-linecap="butt" stroke-miterlimit="10" stroke-linejoin="miter" fill="none" stroke="#0000ff" d="M112.76003 34.27286C112.76003 35.92355 111.4219 37.26169 109.7712 37.26169 108.1205 37.26169 106.78236 35.92355 106.78236 34.27286 106.78236 32.62215 108.1205 31.28403 109.7712 31.28403 111.4219 31.28403 112.76003 32.62215 112.76003 34.27286ZM109.7712 34.27286"/>
<path transform="matrix(1.00002,0,0,-1,3.7077714,70.344)" d="M150.94132 34.27286C150.94132 35.92355 149.6032 37.26169 147.95249 37.26169 146.30178 37.26169 144.96366 35.92355 144.96366 34.27286 144.96366 32.62215 146.30178 31.28403 147.95249 31.28403 149.6032 31.28403 150.94132 32.62215 150.94132 34.27286ZM147.95249 34.27286" fill="#0000ff"/>
<path transform="matrix(1.00002,0,0,-1,3.7077714,70.344)" stroke-width=".3985" stroke-linecap="butt" stroke-miterlimit="10" stroke-linejoin="miter" fill="none" stroke="#0000ff" d="M150.94132 34.27286C150.94132 35.92355 149.6032 37.26169 147.95249 37.26169 146.30178 37.26169 144.96366 35.92355 144.96366 34.27286 144.96366 32.62215 146.30178 31.28403 147.95249 31.28403 149.6032 31.28403 150.94132 32.62215 150.94132 34.27286ZM147.95249 34.27286"/>
<path transform="matrix(1.00002,0,0,-1,3.7077714,70.344)" d="M155.71398 34.27286C155.71398 35.92355 154.37586 37.26169 152.72515 37.26169 151.07445 37.26169 149.73632 35.92355 149.73632 34.27286 149.73632 32.62215 151.07445 31.28403 152.72515 31.28403 154.37586 31.28403 155.71398 32.62215 155.71398 34.27286ZM152.72515 34.27286" fill="#0000ff"/>
<path transform="matrix(1.00002,0,0,-1,3.7077714,70.344)" stroke-width=".3985" stroke-linecap="butt" stroke-miterlimit="10" stroke-linejoin="miter" fill="none" stroke="#0000ff" d="M155.71398 34.27286C155.71398 35.92355 154.37586 37.26169 152.72515 37.26169 151.07445 37.26169 149.73632 35.92355 149.73632 34.27286 149.73632 32.62215 151.07445 31.28403 152.72515 31.28403 154.37586 31.28403 155.71398 32.62215 155.71398 34.27286ZM152.72515 34.27286"/>
<path transform="matrix(1.00002,0,0,-1,3.7077714,70.344)" d="M203.44058 34.27286C203.44058 35.92355 202.10247 37.26169 200.45175 37.26169 198.80106 37.26169 197.46292 35.92355 197.46292 34.27286 197.46292 32.62215 198.80106 31.28403 200.45175 31.28403 202.10247 31.28403 203.44058 32.62215 203.44058 34.27286ZM200.45175 34.27286" fill="#0000ff"/>
<path transform="matrix(1.00002,0,0,-1,3.7077714,70.344)" stroke-width=".3985" stroke-linecap="butt" stroke-miterlimit="10" stroke-linejoin="miter" fill="none" stroke="#0000ff" d="M203.44058 34.27286C203.44058 35.92355 202.10247 37.26169 200.45175 37.26169 198.80106 37.26169 197.46292 35.92355 197.46292 34.27286 197.46292 32.62215 198.80106 31.28403 200.45175 31.28403 202.10247 31.28403 203.44058 32.62215 203.44058 34.27286ZM200.45175 34.27286"/>
<path transform="matrix(1.00002,0,0,-1,3.7077714,70.344)" stroke-width=".3985" stroke-linecap="butt" stroke-miterlimit="10" stroke-linejoin="miter" fill="none" stroke="#0000ff" d=""/>
<use data-text="R" xlink:href="#font_3_95" transform="matrix(9.962799,0,0,-9.9626,87.22444,96.28)"/>
<use data-text="a" xlink:href="#font_3_28" transform="matrix(9.962799,0,0,-9.9626,94.55706,96.28)"/>
<use data-text="i" xlink:href="#font_3_66" transform="matrix(9.962799,0,0,-9.9626,99.53846,96.28)"/>
<use data-text="n" xlink:href="#font_3_77" transform="matrix(9.962799,0,0,-9.9626,102.30812,96.28)"/>
<use data-text="f" xlink:href="#font_3_55" transform="matrix(9.962799,0,0,-9.9626,107.847438,96.28)"/>
<use data-text="a" xlink:href="#font_3_28" transform="matrix(9.962799,0,0,-9.9626,110.89605,96.28)"/>
<use data-text="l" xlink:href="#font_3_72" transform="matrix(9.962799,0,0,-9.9626,115.87745,96.28)"/>
<use data-text="l" xlink:href="#font_3_72" transform="matrix(9.962799,0,0,-9.9626,118.64711,96.28)"/>
<use data-text="(" xlink:href="#font_3_85" transform="matrix(9.962799,0,0,-9.9626,124.734378,96.28)"/>
<use data-text="i" xlink:href="#font_3_66" transform="matrix(9.962799,0,0,-9.9626,128.60991,96.28)"/>
<use data-text="n" xlink:href="#font_3_77" transform="matrix(9.962799,0,0,-9.9626,131.37958,96.28)"/>
<use data-text="c" xlink:href="#font_3_43" transform="matrix(9.962799,0,0,-9.9626,136.91889,96.28)"/>
<use data-text="h" xlink:href="#font_3_63" transform="matrix(9.962799,0,0,-9.9626,141.07338,96.28)"/>
<use data-text="e" xlink:href="#font_3_50" transform="matrix(9.962799,0,0,-9.9626,146.61269,96.28)"/>
<use data-text="s" xlink:href="#font_3_98" transform="matrix(9.962799,0,0,-9.9626,151.03618,96.28)"/>
<use data-text=")" xlink:href="#font_3_86" transform="matrix(9.962799,0,0,-9.9626,154.96152,96.28)"/>
</svg>
