<svg xmlns="http://www.w3.org/2000/svg" xmlns:xlink="http://www.w3.org/1999/xlink" xmlns:inkscape="http://www.inkscape.org/namespaces/inkscape" version="1.1" width="241" height="165" viewBox="0 0 241 165">
<defs>
<path id="font_1_1" d="M.23098755 .35134889C.23599243 .37236024 .24598694 .41036988 .24598694 .41537477 .24598694 .43237306 .23399353 .4423828 .21699524 .4423828 .21398926 .4423828 .18598938 .44137574 .1769867 .40637208L.032989503-.17282105C.02999878-.18482971 .02999878-.18682862 .02999878-.18882752 .02999878-.2038269 .040985109-.21582031 .057998659-.21582031 .07899475-.21582031 .09098816-.1978302 .09298706-.19482422 .09700012-.18582154 .10998535-.13380432 .147995 .020248414 .17999268-.0067443849 .22499085-.0107421879 .24499512-.0107421879 .31498719-.0107421879 .35398866 .03425598 .37799073 .06227112 .3869934 .01725769 .42399598-.0107421879 .46798707-.0107421879 .5029907-.0107421879 .526001 .012252808 .5419922 .044265748 .5589905 .08027649 .57199099 .14129639 .57199099 .14329529 .57199099 .1532898 .5629883 .1532898 .55999758 .1532898 .5499878 .1532898 .548996 .14929199 .54599 .13528443 .5289917 .07026672 .5109863 .011245728 .46998597 .011245728 .44299317 .011245728 .43998719 .037261964 .43998719 .057266237 .43998719 .07926941 .45199586 .12628174 .45999146 .16130066L.48799134 .2693329C.4909973 .28433229 .5009918 .32234193 .5049896 .3373413 .5099945 .36035157 .519989 .3983612 .519989 .40437318 .519989 .42237855 .5059967 .43138124 .4909973 .43138124 .48599244 .43138124 .45999146 .43037416 .45199586 .3963623L.40499879 .20930481C.3929901 .15930176 .38198854 .11727905 .3789978 .107284549 .37799073 .10227966 .32998658 .011245728 .24899292 .011245728 .19898987 .011245728 .1749878 .044265748 .1749878 .09828186 .1749878 .12728882 .18199158 .1552887 .18899536 .18330384L.23098755 .35134889Z"/>
<path id="font_2_1" d="M.40899659 .23046875H.6879883C.70199587 .23046875 .72099307 .23046875 .72099307 .25045777 .72099307 .27046205 .70199587 .27046205 .6879883 .27046205H.40899659V.5500183C.40899659 .56399539 .40899659 .5830078 .3889923 .5830078 .36898805 .5830078 .36898805 .56399539 .36898805 .5500183V.27046205H.08898926C.07499695 .27046205 .055999757 .27046205 .055999757 .25045777 .055999757 .23046875 .07499695 .23046875 .08898926 .23046875H.36898805V-.05000305C.36898805-.06401062 .36898805-.08300781 .3889923-.08300781 .40899659-.08300781 .40899659-.06401062 .40899659-.05000305V.23046875Z"/>
<path id="font_2_2" d="M.2939911 .64004519C.2939911 .66400149 .2939911 .6660156 .2709961 .6660156 .20899964 .60227969 .12098694 .60227969 .08898926 .60227969V.57128909C.10899353 .57128909 .16799927 .57128909 .21998596 .5972748V.07902527C.21998596 .042999269 .21699524 .0309906 .1269989 .0309906H.09498596V0C.12998963 .0029907227 .21699524 .0029907227 .25698854 .0029907227 .29699708 .0029907227 .38398744 .0029907227 .4189911 0V.0309906H.3869934C.29699708 .0309906 .2939911 .041992189 .2939911 .07902527V.64004519Z"/>
<path id="font_1_2" d="M.5179901 .37265016C.5309906 .37265016 .5669861 .37265016 .5669861 .406662 .5669861 .43066407 .54599 .43066407 .5279999 .43066407H.2999878C.14898682 .43066407 .037994386 .26583863 .037994386 .14703369 .037994386 .059173585 .09700012-.0107421879 .18798828-.0107421879 .30599977-.0107421879 .43899537 .11009216 .43899537 .26383973 .43899537 .2808075 .43899537 .32873536 .4079895 .37265016H.5179901M.18899536 .011245728C.13999939 .011245728 .099990848 .047195436 .099990848 .11907959 .099990848 .14901734 .11199951 .230896 .14698792 .28979493 .18899536 .3586731 .24899292 .37265016 .2829895 .37265016 .36698915 .37265016 .375 .3067627 .375 .27581788 .375 .2288971 .35499574 .14703369 .32099916 .09611511 .28199769 .037200929 .22799683 .011245728 .18899536 .011245728Z"/>
<path id="font_3_1" d="M.6589966 .23046875C.6759949 .23046875 .69400027 .23046875 .69400027 .25045777 .69400027 .27046205 .6759949 .27046205 .6589966 .27046205H.117996219C.100997928 .27046205 .08299255 .27046205 .08299255 .25045777 .08299255 .23046875 .100997928 .23046875 .117996219 .23046875H.6589966Z"/>
<path id="font_2_3" d="M.1269989 .07699585 .23298645 .18003845C.3889923 .31811524 .44898988 .3721466 .44898988 .47216798 .44898988 .5860901 .35899354 .6660156 .23699951 .6660156 .12399292 .6660156 .049987794 .57411196 .049987794 .48516847 .049987794 .4291687 .099990848 .4291687 .102996829 .4291687 .11999512 .4291687 .15499878 .44117738 .15499878 .48217774 .15499878 .5081787 .13699341 .5341797 .101989749 .5341797 .09399414 .5341797 .09199524 .5341797 .08898926 .5331726 .11199951 .59806826 .1659851 .63500979 .22399903 .63500979 .31498719 .63500979 .35798646 .5541382 .35798646 .47216798 .35798646 .39215089 .30799867 .31311036 .25299073 .25108338L.06098938 .036987306C.049987794 .025985718 .049987794 .023986817 .049987794 0H.42099L.44898988 .17404175H.42399598C.4189911 .14402771 .4119873 .1000061 .4019928 .084991458 .394989 .07699585 .32899476 .07699585 .30699159 .07699585H.1269989Z"/>
<path id="font_2_4" d="M.2899933 .35191346C.37199403 .37893678 .42999269 .4490509 .42999269 .52809146 .42999269 .6100464 .34199525 .6660156 .24598694 .6660156 .14498902 .6660156 .068984989 .60606387 .068984989 .53009036 .068984989 .49710084 .09098816 .47808839 .11999512 .47808839 .15098572 .47808839 .17098999 .50009158 .17098999 .5290985 .17098999 .57910159 .12399292 .57910159 .10899353 .57910159 .13999939 .62802127 .20599365 .64100649 .24198914 .64100649 .2829895 .64100649 .33799745 .6190338 .33799745 .5290985 .33799745 .51708987 .33599855 .45906068 .30999757 .4149933 .27999879 .36691285 .24598694 .36390687 .22099304 .36291505 .21299744 .36190797 .18899536 .35990907 .18199158 .35990907 .17399597 .35890199 .16699219 .35791017 .16699219 .3479004 .16699219 .33691407 .17399597 .33691407 .19099427 .33691407H.23498535C.31698609 .33691407 .35398866 .2686615 .35398866 .17037964 .35398866 .034469606 .2849884 .0055389406 .24099732 .0055389406 .19799805 .0055389406 .12298584 .022491456 .08799744 .08137512 .12298584 .07637024 .1539917 .09837341 .1539917 .1363678 .1539917 .17237854 .1269989 .19238281 .09799194 .19238281 .07398987 .19238281 .041992189 .17837525 .041992189 .1343689 .041992189 .043441774 .1349945-.022460938 .24398804-.022460938 .3659973-.022460938 .45700074 .06838989 .45700074 .17037964 .45700074 .252594 .3939972 .33088685 .2899933 .35191346Z"/>
<path id="font_4_3" d="M.13398743 .33073426C.13398743 .43276979 .14498902 .4897766 .17199707 .54177859 .19198609 .58277896 .24099732 .64100649 .31498719 .64100649 .33499146 .64100649 .3809967 .63697817 .4039917 .6007843 .36698915 .6007843 .35099793 .5817871 .35099793 .55477908 .35099793 .5287781 .36898805 .50878909 .39698792 .50878909 .4249878 .50878909 .44400025 .5267792 .44400025 .55677798 .44400025 .612854 .4039917 .6660156 .31298829 .6660156 .18399048 .6660156 .042999269 .53878787 .042999269 .3157196 .042999269 .044555665 .16499329-.022460938 .25898744-.022460938 .36999513-.022460938 .46998597 .0705719 .46998597 .20265198 .46998597 .32972718 .37799073 .42578126 .2649994 .42578126 .20498657 .42578126 .1619873 .39076234 .13398743 .33073426M.2579956 .0055389406C.20098877 .0055389406 .16799927 .05256653 .1559906 .08157349 .13699341 .12660218 .13598633 .20965576 .13598633 .22566223 .13598633 .29270936 .16699219 .4007721 .2630005 .4007721 .2789917 .4007721 .32798768 .4007721 .3600006 .33872987 .3789978 .30070497 .3789978 .25167848 .3789978 .20365906 .3789978 .15562439 .3789978 .1065979 .3600006 .06956482 .32899476 .012542725 .2849884 .0055389406 .2579956 .0055389406Z"/>
<path id="font_4_5" d="M.17199707 .45387269C.14199829 .47288514 .11898804 .4998932 .11898804 .53692629 .11898804 .6019745 .18899536 .64100649 .25498963 .64100649 .33198548 .64100649 .3939972 .58695986 .3939972 .51690676 .3939972 .44685365 .33399964 .40083314 .2939911 .37780763L.17199707 .45387269M.31900025 .36180116C.36898805 .38581849 .44198609 .43585206 .44198609 .51690676 .44198609 .6109772 .34799195 .6660156 .2579956 .6660156 .15299988 .6660156 .070999149 .5909729 .070999149 .49890138 .070999149 .46087647 .084991458 .42485047 .10899353 .39582826 .12599182 .3768158 .13198853 .37280274 .18998719 .3357849 .101989749 .29374696 .042999269 .23269654 .042999269 .15063477 .042999269 .044555665 .147995-.022460938 .2559967-.022460938 .37199403-.022460938 .46998597 .059570314 .46998597 .16764832 .46998597 .26472474 .3959961 .3127594 .37098695 .32876588 .3600006 .33677674 .33099366 .35479737 .31900025 .36180116M.21699524 .31877137 .34298707 .2407074C.3659973 .22569275 .41600038 .19366455 .41600038 .1326294 .41600038 .05357361 .33599855 .0055389406 .25698854 .0055389406 .16999817 .0055389406 .09700012 .06758118 .09700012 .15063477 .09700012 .22268677 .14698792 .28274537 .21699524 .31877137Z"/>
<path id="font_4_1" d="M.70399478 .71003726C.70899966 .7170105 .71199038 .7210083 .71199038 .7279968 .71199038 .74198916 .69999697 .75 .69099429 .75 .6799927 .75 .6749878 .74398806 .6689911 .73498538 .6049957 .65119937 .5209961 .6402283 .47499085 .6402283 .37799073 .6402283 .31399537 .6880951 .2789917 .7210083 .2519989 .7449951 .22599793 .75 .20799256 .75 .1309967 .75 .056991579 .66716006 .056991579 .5492401 .056991579 .4272461 .1329956 .34725953 .20799256 .34725953 .28199769 .34725953 .34199525 .4352417 .34199525 .54823306 .34199525 .5632324 .34199525 .6082306 .32199098 .6571808 .38398744 .6222229 .43998719 .6152344 .47499085 .6152344 .5189972 .6152344 .5649872 .6252289 .6069946 .6482086L.60798647 .64720156 .1519928-.01423645C.15098572-.016235352 .14299011-.027252198 .14299011-.03425598 .14299011-.04725647 .15299988-.056259157 .16499329-.056259157 .17599488-.056259157 .18099976-.04826355 .18699646-.040252687L.70399478 .71003726M.20999146 .37225343C.18899536 .37225343 .12298584 .3852539 .12298584 .54823306 .12298584 .71302798 .18899536 .72499087 .20999146 .72499087 .2630005 .72499087 .31399537 .65119937 .31399537 .5492401 .31399537 .44325257 .26098634 .37225343 .20999146 .37225343M.7979889 .14500427C.7979889 .2621765 .7369995 .34725953 .6639862 .34725953 .58699038 .34725953 .5130005 .26417542 .5130005 .1459961 .5130005 .02381897 .58898928-.056259157 .6639862-.056259157 .73799136-.056259157 .7979889 .031829835 .7979889 .14500427M.66600039-.03125C.644989-.03125 .57899478-.018234253 .57899478 .14500427 .57899478 .3102417 .644989 .32226563 .66600039 .32226563 .71899417 .32226563 .769989 .24815369 .769989 .1459961 .769989 .0398407 .71699526-.03125 .66600039-.03125Z"/>
<path id="font_4_6" d="M.3789978 .31478883V.2927704C.3789978 .04875183 .2679901 .0055389406 .21099854 .0055389406 .18798828 .0055389406 .13699341 .009552002 .11099243 .042755128H.114990238C.12298584 .040740968 .1619873 .04875183 .1619873 .088760379 .1619873 .11476135 .14399719 .13476563 .115997318 .13476563 .08799744 .13476563 .068984989 .116760257 .068984989 .086761478 .068984989 .020629883 .12199402-.022460938 .21199036-.022460938 .34098817-.022460938 .46998597 .10975647 .46998597 .3287964 .46998597 .5999756 .34999085 .6660156 .2599945 .6660156 .14498902 .6660156 .042999269 .5729675 .042999269 .44187928 .042999269 .31478883 .1349945 .21875 .24798584 .21875 .32099916 .21875 .36099244 .27175904 .3789978 .31478883M.25 .2437439C.23399353 .2437439 .18499756 .2437439 .15299988 .30578614 .13398743 .34381105 .13398743 .39283753 .13398743 .4408722 .13398743 .48890687 .13398743 .5389404 .15499878 .57696536 .18499756 .628006 .22399903 .64100649 .2599945 .64100649 .32798768 .64100649 .35499574 .57196047 .35899354 .5619507 .37298585 .52493289 .3769989 .4638977 .3769989 .42086793 .3769989 .34780885 .34399415 .2437439 .25 .2437439Z"/>
<path id="font_4_2" d="M.10398865 .3444519C.10398865 .32641603 .10398865 .31539918 .117996219 .31539918 .12599182 .31539918 .1289978 .31941224 .1349945 .32843019 .16499329 .3704834 .21299744 .39453126 .2649994 .39453126 .37199403 .39453126 .37199403 .24029541 .37199403 .20425415 .37199403 .17324829 .37199403 .11125183 .34399415 .06637573 .31698609 .024475098 .2749939 .0055389406 .23599243 .0055389406 .1769867 .0055389406 .10998535 .042434694 .085998538 .116256717 .08699036 .116256717 .09298706 .11425781 .099990848 .11425781 .11999512 .11425781 .14898682 .12724304 .14898682 .16325379 .14898682 .19424439 .1269989 .21224976 .099990848 .21224976 .07899475 .21224976 .050994874 .20025635 .050994874 .1602478 .050994874 .069366458 .1269989-.022460938 .23799134-.022460938 .35899354-.022460938 .46199037 .0753479 .46199037 .19924927 .46199037 .3204193 .37599183 .41952516 .2669983 .41952516 .21899414 .41952516 .16999817 .40351869 .1349945 .36747743V.56477358C.16499329 .5557709 .19599915 .55078127 .22698975 .55078127 .34999085 .55078127 .42199708 .6397705 .42199708 .652771 .42199708 .6617737 .41600038 .6657715 .41099549 .6657715 .40899659 .6657715 .40699769 .6657715 .397995 .6607666 .35099793 .6417694 .30499269 .6337738 .2630005 .6337738 .21998596 .6337738 .1749878 .6417694 .1289978 .6607666 .11898804 .6657715 .116989139 .6657715 .115997318 .6657715 .10398865 .6657715 .10398865 .655777 .10398865 .6387787V.3444519Z"/>
<path id="font_5_1" d="M.19599915 .053985597C.19599915 .08299255 .17298889 .10798645 .14199829 .10798645 .11099243 .10798645 .08799744 .08299255 .08799744 .053985597 .08799744 .024993897 .11099243 0 .14199829 0 .17298889 0 .19599915 .024993897 .19599915 .053985597Z"/>
<path id="font_4_4" d="M.48999024 .60954287C.49899293 .62054446 .49899293 .62254336 .49899293 .6435547H.25C.12399292 .6435547 .12098694 .6565399 .117996219 .67555239H.08999634L.056991579 .46655274H.084991458C.08898926 .48954774 .09700012 .5455475 .10998535 .55755618 .116989139 .56355288 .19599915 .56355288 .20999146 .56355288H.41999818L.32398988 .4325409C.19400025 .25354005 .18199158 .090530399 .18199158 .03353882 .18199158 .022537232 .18199158-.022460938 .22799683-.022460938 .2749939-.022460938 .2749939 .021530152 .2749939 .03453064V.08352661C.2749939 .23054505 .29699708 .34654237 .34999085 .41854859L.48999024 .60954287Z"/>
</defs>
<path transform="matrix(1.00003,0,0,-1,120.553089,115.02)" stroke-width="1.19553" stroke-linecap="butt" stroke-miterlimit="10" stroke-linejoin="miter" fill="none" stroke="#000000" d="M-119.05634 .24654-114.19704 .39792-109.33774 .64447-104.47844 1.0078-99.61916 1.54846-94.75986 2.32704-89.90057 3.43433-85.04128 4.9612-80.18198 7.02008-75.32268 9.73642-70.46338 13.23132-65.6041 17.60861-60.7448 22.95912-55.8855 29.3304-51.02621 36.71382-46.16692 45.03154-41.30762 54.11484-36.44833 63.70421-31.58904 73.49254-26.72974 83.06029-21.87044 91.99652-17.01114 99.81248-12.15186 106.12323-7.29256 110.53511-2.43327 112.82324H2.426L7.2853 110.5481 12.14459 106.12323 17.00388 99.82547 21.86317 92.00517 26.72247 83.08192 31.58177 73.50119 36.44107 63.71718 41.30035 54.12349 46.15964 45.04019 51.01894 36.7268 55.87823 29.33905 60.73753 22.97208 65.59683 17.60861 70.45612 13.23132 75.31541 9.73642 80.17471 7.02008 85.03401 4.9612 89.89331 3.43433 94.75258 2.32704 99.61188 1.54846 104.47118 1.0078 109.33047 .64447 114.18977 .40225 119.04906 .24654"/>
<path transform="matrix(1.00003,0,0,-1,120.553089,115.02)" stroke-width=".3985" stroke-linecap="butt" stroke-dasharray="2.98883,2.98883" stroke-miterlimit="10" stroke-linejoin="miter" fill="none" stroke="#cccccc" d="M-102.0483 0V1.24568"/>
<path transform="matrix(1.00003,0,0,-1,120.553089,115.02)" stroke-width=".3985" stroke-linecap="butt" stroke-dasharray="2.98883,2.98883" stroke-miterlimit="10" stroke-linejoin="miter" fill="none" stroke="#cccccc" d="M-68.0322 0V15.30753"/>
<path transform="matrix(1.00003,0,0,-1,120.553089,115.02)" stroke-width=".3985" stroke-linecap="butt" stroke-dasharray="2.98883,2.98883" stroke-miterlimit="10" stroke-linejoin="miter" fill="none" stroke="#cccccc" d="M-34.0161 0V68.60054"/>
<path transform="matrix(1.00003,0,0,-1,120.553089,115.02)" stroke-width=".3985" stroke-linecap="butt" stroke-dasharray="2.98883,2.98883" stroke-miterlimit="10" stroke-linejoin="miter" fill="none" stroke="#cccccc" d="M0 0V112.81892"/>
<path transform="matrix(1.00003,0,0,-1,120.553089,115.02)" stroke-width=".3985" stroke-linecap="butt" stroke-dasharray="2.98883,2.98883" stroke-miterlimit="10" stroke-linejoin="miter" fill="none" stroke="#cccccc" d="M34.0161 0V68.60054"/>
<path transform="matrix(1.00003,0,0,-1,120.553089,115.02)" stroke-width=".3985" stroke-linecap="butt" stroke-dasharray="2.98883,2.98883" stroke-miterlimit="10" stroke-linejoin="miter" fill="none" stroke="#cccccc" d="M68.0322 0V15.30753"/>
<path transform="matrix(1.00003,0,0,-1,120.553089,115.02)" stroke-width=".3985" stroke-linecap="butt" stroke-dasharray="2.98883,2.98883" stroke-miterlimit="10" stroke-linejoin="miter" fill="none" stroke="#cccccc" d="M102.0483 0V1.24568"/>
<path transform="matrix(1.00003,0,0,-1,120.553089,115.02)" stroke-width=".79701" stroke-linecap="butt" stroke-miterlimit="10" stroke-linejoin="miter" fill="none" stroke="#000000" d="M-119.05634 0H119.05634"/>
<use data-text="&#x00b5;" xlink:href="#font_1_1" transform="matrix(9.962899,0,0,-9.9626,117.550998,124.822)"/>
<use data-text="+" xlink:href="#font_2_1" transform="matrix(9.962899,0,0,-9.9626,145.17983,126.952999)"/>
<use data-text="1" xlink:href="#font_2_2" transform="matrix(9.962899,0,0,-9.9626,152.92099,126.952999)"/>
<use data-text="&#x03c3;" xlink:href="#font_1_2" transform="matrix(9.962899,0,0,-9.9626,157.9102,126.952999)"/>
<use data-text="&#x2212;" xlink:href="#font_3_1" transform="matrix(9.962899,0,0,-9.9626,77.14578,126.952999)"/>
<use data-text="1" xlink:href="#font_2_2" transform="matrix(9.962899,0,0,-9.9626,84.895008,126.952999)"/>
<use data-text="&#x03c3;" xlink:href="#font_1_2" transform="matrix(9.962899,0,0,-9.9626,89.87616,126.952999)"/>
<use data-text="+" xlink:href="#font_2_1" transform="matrix(9.962899,0,0,-9.9626,179.19684,126.952999)"/>
<use data-text="2" xlink:href="#font_2_3" transform="matrix(9.962899,0,0,-9.9626,186.93802,126.952999)"/>
<use data-text="&#x03c3;" xlink:href="#font_1_2" transform="matrix(9.962899,0,0,-9.9626,191.92722,126.952999)"/>
<use data-text="&#x2212;" xlink:href="#font_3_1" transform="matrix(9.962899,0,0,-9.9626,43.128755,126.952999)"/>
<use data-text="2" xlink:href="#font_2_3" transform="matrix(9.962899,0,0,-9.9626,50.877977,126.952999)"/>
<use data-text="&#x03c3;" xlink:href="#font_1_2" transform="matrix(9.962899,0,0,-9.9626,55.85913,126.952999)"/>
<use data-text="+" xlink:href="#font_2_1" transform="matrix(9.962899,0,0,-9.9626,213.21387,126.952999)"/>
<use data-text="3" xlink:href="#font_2_4" transform="matrix(9.962899,0,0,-9.9626,220.95503,126.952999)"/>
<use data-text="&#x03c3;" xlink:href="#font_1_2" transform="matrix(9.962899,0,0,-9.9626,225.94425,126.952999)"/>
<use data-text="&#x2212;" xlink:href="#font_3_1" transform="matrix(9.962899,0,0,-9.9626,9.110733,126.952999)"/>
<use data-text="3" xlink:href="#font_2_4" transform="matrix(9.962899,0,0,-9.9626,16.859955,126.952999)"/>
<use data-text="&#x03c3;" xlink:href="#font_1_2" transform="matrix(9.962899,0,0,-9.9626,21.84111,126.952999)"/>
<path transform="matrix(1.00003,0,0,-1,120.553089,115.02)" stroke-width=".79701" stroke-linecap="butt" stroke-miterlimit="10" stroke-linejoin="miter" fill="none" stroke="#0000cc" d="M-34.0161-11.3368V-17.00739H34.0161V-11.3368"/>
<path transform="matrix(1.00003,0,0,-1,120.553089,115.02)" d="M-11.7681-23.93944H11.768109V-10.075339H-11.7681Z" fill="#ffffff"/>
<use data-text="6" xlink:href="#font_4_3" transform="matrix(8.966669,0,0,-8.9664,112.10483,135.14099)" fill="#0000cc"/>
<use data-text="8" xlink:href="#font_4_5" transform="matrix(8.966669,0,0,-8.9664,116.70473,135.14099)" fill="#0000cc"/>
<use data-text="%" xlink:href="#font_4_1" transform="matrix(8.966669,0,0,-8.9664,121.30463,135.14099)" fill="#0000cc"/>
<path transform="matrix(1.00003,0,0,-1,120.553089,115.02)" stroke-width=".79701" stroke-linecap="butt" stroke-miterlimit="10" stroke-linejoin="miter" fill="none" stroke="#990033" d="M-68.0322-25.5111V-31.18167H68.0322V-25.5111"/>
<path transform="matrix(1.00003,0,0,-1,120.553089,115.02)" d="M-11.7681-38.11372H11.768109V-24.249619H-11.7681Z" fill="#ffffff"/>
<use data-text="9" xlink:href="#font_4_6" transform="matrix(8.966669,0,0,-8.9664,112.10483,149.315)" fill="#990033"/>
<use data-text="5" xlink:href="#font_4_2" transform="matrix(8.966669,0,0,-8.9664,116.70473,149.315)" fill="#990033"/>
<use data-text="%" xlink:href="#font_4_1" transform="matrix(8.966669,0,0,-8.9664,121.30463,149.315)" fill="#990033"/>
<path transform="matrix(1.00003,0,0,-1,120.553089,115.02)" stroke-width=".79701" stroke-linecap="butt" stroke-miterlimit="10" stroke-linejoin="miter" fill="none" stroke="#cc0000" d="M-102.0483-39.68536V-45.35593H102.0483V-39.68536"/>
<path transform="matrix(1.00003,0,0,-1,120.553089,115.02)" d="M-15.35191-52.288H15.351921V-38.423898H-15.35191Z" fill="#ffffff"/>
<use data-text="9" xlink:href="#font_4_6" transform="matrix(8.966669,0,0,-8.9664,108.52172,163.489)" fill="#cc0000"/>
<use data-text="9" xlink:href="#font_4_6" transform="matrix(8.966669,0,0,-8.9664,113.12162,163.489)" fill="#cc0000"/>
<use data-text="." xlink:href="#font_5_1" transform="matrix(8.966669,0,0,-8.9664,117.738,163.489)" fill="#cc0000"/>
<use data-text="7" xlink:href="#font_4_4" transform="matrix(8.966669,0,0,-8.9664,120.29708,163.489)" fill="#cc0000"/>
<use data-text="%" xlink:href="#font_4_1" transform="matrix(8.966669,0,0,-8.9664,124.89698,163.489)" fill="#cc0000"/>
</svg>
