<svg xmlns="http://www.w3.org/2000/svg" xmlns:xlink="http://www.w3.org/1999/xlink" xmlns:inkscape="http://www.inkscape.org/namespaces/inkscape" version="1.1" width="157" height="133" viewBox="0 0 157 133">
<defs>
<path id="font_1_1" d="M.33399964 .30233766C.33999635 .32835389 .36299134 .42037965 .43299867 .42037965 .43798829 .42037965 .46199037 .42037965 .48298646 .40734864 .45498658 .402359 .43499757 .37734986 .43499757 .35334779 .43499757 .33735658 .44599916 .31835938 .47299195 .31835938 .49499513 .31835938 .5269928 .3363495 .5269928 .37635804 .5269928 .42837525 .46798707 .4423828 .43399049 .4423828 .37599183 .4423828 .34098817 .38935853 .32899476 .36634828 .3039856 .43237306 .25 .4423828 .22099304 .4423828 .116989139 .4423828 .05999756 .3133545 .05999756 .28834535 .05999756 .27833558 .069992069 .27833558 .07199097 .27833558 .07998657 .27833558 .08299255 .28033448 .084991458 .28933717 .11898804 .39535523 .18499756 .42037965 .21899414 .42037965 .23799134 .42037965 .272995 .4113617 .272995 .35334779 .272995 .32235719 .2559967 .25532533 .21899414 .11528015 .20298767 .053268434 .16799927 .011245728 .12399292 .011245728 .117996219 .011245728 .09498596 .011245728 .07398987 .024276734 .09899902 .029266358 .12098694 .05027771 .12098694 .07827759 .12098694 .105270389 .09899902 .11328125 .083999637 .11328125 .053985597 .11328125 .0289917 .08728027 .0289917 .055267335 .0289917 .009246826 .07899475-.0107421879 .12298584-.0107421879 .18899536-.0107421879 .22499085 .059280397 .22799683 .0652771 .23999024 .028274537 .27598573-.0107421879 .33599855-.0107421879 .43899537-.0107421879 .49598695 .118270877 .49598695 .14328003 .49598695 .1532898 .4869995 .1532898 .48399354 .1532898 .47499085 .1532898 .47299195 .14929199 .47099305 .14228821 .43798829 .03527832 .36999513 .011245728 .33799745 .011245728 .29899598 .011245728 .2829895 .043273927 .2829895 .07727051 .2829895 .09927368 .2889862 .121276859 .2999878 .16529846L.33399964 .30233766Z"/>
<path id="font_1_2" d="M.48599244 .38136292C.48999024 .39537049 .48999024 .39736939 .48999024 .40437318 .48999024 .42237855 .47599793 .43138124 .46099855 .43138124 .45098878 .43138124 .43499757 .42536927 .42599488 .41036988 .42399598 .405365 .41600038 .37435914 .4119873 .35635377 .40499879 .33035279 .397995 .30334474 .3919983 .27633668L.34700013 .09628296C.34298707 .08126831 .2999878 .011245728 .23399353 .011245728 .18299866 .011245728 .17199707 .055267335 .17199707 .0922699 .17199707 .1382904 .18899536 .20030213 .22299195 .28833009 .23899842 .3293457 .24299622 .3403473 .24299622 .36035157 .24299622 .405365 .21099854 .4423828 .16099549 .4423828 .06599426 .4423828 .0289917 .29733277 .0289917 .28833009 .0289917 .27833558 .038986207 .27833558 .040985109 .27833558 .050994874 .27833558 .051986696 .28033448 .056991579 .29634095 .083999637 .3903656 .12399292 .42037965 .1579895 .42037965 .1659851 .42037965 .18299866 .42037965 .18299866 .3883667 .18299866 .36335755 .17298889 .3373413 .1659851 .31834413 .12599182 .21231079 .10798645 .1552887 .10798645 .10827637 .10798645 .019256592 .17098999-.0107421879 .22999573-.0107421879 .2689972-.0107421879 .30299378 .0062561037 .33099366 .03425598 .31799317-.017745972 .30599977-.06674194 .2659912-.11973572 .23999024-.15385437 .20199585-.18309021 .1559906-.18309021 .14199829-.18309021 .09700012-.18005371 .07998657-.14074707 .09599304-.14074707 .10899353-.14074707 .12298584-.1287384 .1329956-.11973572 .14299011-.10673523 .14299011-.08773804 .14299011-.056747438 .115997318-.052734376 .10598755-.052734376 .08299255-.052734376 .049987794-.068740848 .049987794-.11773682 .049987794-.16796875 .09399414-.20507813 .1559906-.20507813 .25898744-.20507813 .3619995-.11373901 .3899994-.00074768069L.48599244 .38136292Z"/>
<path id="font_1_3" d="M.1329956 .08345032C.18699646 .14138794 .21598816 .16636658 .2519989 .19732666 .2519989 .19833374 .31399537 .25128175 .34999085 .2872467 .44499208 .3803711 .46699525 .42837525 .46699525 .43237306 .46699525 .4423828 .45799256 .4423828 .45599366 .4423828 .44898988 .4423828 .44599916 .44036866 .44099427 .43138124 .41099549 .38337709 .3899994 .3671875 .3659973 .3671875 .34199525 .3671875 .32998658 .38237 .31498719 .3993683 .29599 .42237855 .2789917 .4423828 .24598694 .4423828 .17098999 .4423828 .125 .34918214 .125 .3282013 .125 .3231964 .12799073 .31721498 .13699341 .31721498 .1459961 .31721498 .147995 .3222046 .1499939 .3282013 .16899109 .37434388 .22698975 .37538148 .23498535 .37538148 .2559967 .37538148 .2749939 .36820985 .2979889 .36018373 .33799745 .34518434 .34899903 .34518434 .375 .34518434 .33898927 .30223084 .25498963 .2303009 .23599243 .21430969L.1459961 .13040161C.07798767 .06341553 .042999269 .0062561037 .042999269-.00074768069 .042999269-.0107421879 .052993776-.0107421879 .054992677-.0107421879 .06298828-.0107421879 .06498718-.008743286 .070999149 .002243042 .09399414 .037246705 .12399292 .064453128 .1559906 .064453128 .1789856 .064453128 .18899536 .055252077 .21398926 .026245118 .23098755 .0052490236 .24899292-.0107421879 .27799989-.0107421879 .3769989-.0107421879 .43499757 .1164093 .43499757 .14338684 .43499757 .14837647 .43099977 .15338135 .4229889 .15338135 .4139862 .15338135 .4119873 .14738465 .40899659 .14039612 .38598634 .07543945 .32199098 .056243898 .2889862 .056243898 .2689972 .056243898 .25099183 .06239319 .22999573 .06944275 .19599915 .08244324 .18099976 .08644104 .1599884 .08644104 .1579895 .08644104 .14199829 .08644104 .1329956 .08345032Z"/>
<path id="font_2_1" d="M.5179901 .37738038C.5219879 .39138795 .5219879 .39338685 .5219879 .40039063 .5219879 .42539979 .5019989 .43139649 .48999024 .43139649 .4850006 .43139649 .46199037 .43040467 .44898988 .40438844 .44699098 .3993988 .43798829 .3633728 .43299867 .34236146L.37298585 .102264408C.37199403 .09925842 .32899476 .018234253 .2559967 .018234253 .20698548 .018234253 .18998719 .054244996 .18998719 .09925842 .18998719 .1572876 .22399903 .24632263 .24699402 .3043518 .25698854 .32936097 .2599945 .33836366 .2599945 .35636903 .2599945 .4113922 .21598816 .44140626 .16999817 .44140626 .070999149 .44140626 .02999878 .300354 .02999878 .28834535 .02999878 .27934266 .036987306 .27534486 .04499817 .27534486 .057998659 .27534486 .05899048 .28134156 .06199646 .29135133 .08799744 .37838746 .1309967 .4133911 .16699219 .4133911 .18199158 .4133911 .19099427 .4033966 .19099427 .38038636 .19099427 .359375 .18299866 .33636476 .17599488 .31835938 .1349945 .21231079 .117996219 .1612854 .117996219 .11427307 .117996219 .016220093 .19198609-.009765625 .25099183-.009765625 .2979889-.009765625 .33198548 .011230469 .35598756 .034240724 .34199525-.021774292 .33198548-.060791017 .2939911-.108795169 .26098634-.14985657 .22099304-.17610169 .17599488-.17610169 .15899658-.17610169 .12098694-.17308045 .100997928-.14279175 .1539917-.13879395 .1579895-.09379578 .1579895-.08778381 .1579895-.06378174 .13999939-.05078125 .11898804-.05078125 .09700012-.05078125 .06199646-.0677948 .06199646-.11679077 .06199646-.1639862 .10499573-.20410156 .17599488-.20410156 .27799989-.20410156 .3929901-.121795658 .4229889-.00077819827L.5179901 .37738038Z"/>
<path id="font_3_64" d="M.2939911 .18304444V.24804688H.011993408V.18304444H.2939911Z"/>
<path id="font_3_28" d="M.5139923 .09020996V.14530945H.48298646V.09020996C.48298646 .0491333 .46798707 .033111574 .44699098 .033111574 .4099884 .033111574 .4099884 .079193118 .4099884 .09020996V.29856874C.4099884 .39653016 .31498719 .44628907 .22399903 .44628907 .14099121 .44628907 .066986087 .4143219 .066986087 .34857179 .066986087 .318573 .08799744 .30056764 .11399841 .30056764 .14199829 .30056764 .16099549 .3205719 .16099549 .3475647 .16099549 .37156678 .1459961 .38856507 .12399292 .3935547 .16099549 .41827394 .21499634 .41827394 .22200012 .41827394 .27799989 .41827394 .33399964 .37957765 .33399964 .29756166V.26651C.27598573 .26350404 .20899964 .26049806 .13899231 .23144531 .050994874 .1933899 .033996583 .13528443 .033996583 .10223389 .033996583 .016220093 .1349945-.009765625 .20399475-.009765625 .2769928-.009765625 .32199098 .031219483 .34399415 .07122803 .34899903 .033111574 .375-.0048828127 .4189911-.0048828127 .42900086-.0048828127 .5139923-.00088500979 .5139923 .09010315V.09020996M.33399964 .14111328C.33399964 .04421997 .2519989 .018234253 .21199036 .018234253 .1599884 .018234253 .115997318 .053222658 .115997318 .10122681 .115997318 .16722107 .17799378 .23522949 .33399964 .24023438V.14111328Z"/>
<path id="font_3_116" d="M.5439911 0V.032989503C.48199464 .032989503 .47200013 .037994386 .44599916 .06895447L.30799867 .23381043C.33599855 .2687683 .36499024 .30274964 .394989 .33570863 .42799378 .37068177 .46299745 .39665223 .526001 .3976593V.43066407C.4869995 .42765809 .4850006 .42765809 .43998719 .42765809 .43499757 .42765809 .37599183 .42765809 .34498597 .43066407V.3976593C.3639984 .3956604 .36799623 .383667 .36799623 .37068177 .36799623 .35769654 .36299134 .34570313 .35099793 .33171083L.28799439 .25778199 .20899964 .35169984C.19699097 .36569215 .19699097 .37467958 .19699097 .37467958 .19699097 .3816681 .20298767 .39665223 .22799683 .3976593V.43066407C.18798828 .42765809 .13198853 .42765809 .12098694 .42765809 .102996829 .42765809 .051986696 .42765809 .021987915 .43066407V.3976593C.08999634 .3976593 .09098816 .39665223 .14299011 .33570863L.24598694 .21083069 .15499878 .10392761C.12998963 .07595825 .09298706 .034988405 .016998291 .032989503V0C.053985597 .0029907227 .06098938 .0029907227 .102996829 .0029907227 .102996829 .0029907227 .1659851 .0029907227 .19799805 0V.032989503C.18499756 .034988405 .17399597 .04197693 .17399597 .05996704 .17399597 .07795715 .18598938 .091934207 .18899536 .09693909L.2669983 .18585205 .34899903 .0879364C.36898805 .064956668 .36898805 .06295776 .36898805 .05596924 .36898805 .047973634 .3619995 .033996583 .33799745 .032989503V0C.3809967 .0029907227 .42599488 .0029907227 .44499208 .0029907227 .46299745 .0029907227 .5139923 .0029907227 .5439911 0Z"/>
<path id="font_3_66" d="M.2599945 .0001373291V.03314209C.19499207 .03314209 .19099427 .038146974 .19099427 .07714844V.44140626L.04499817 .43045045V.39746095C.10899353 .39746095 .117996219 .39144898 .117996219 .34239198V.07814026C.117996219 .03314209 .10598755 .03314209 .041992189 .03314209V0C.08099365 .0029907227 .13699341 .0029907227 .1519928 .0029907227 .16499329 .0029907227 .22499085 .0029907227 .2599945 0V.0001373291M.20298767 .6021881C.20298767 .6351929 .1769867 .6582031 .147995 .6582031 .11898804 .6582031 .09298706 .6351929 .09298706 .6021881 .09298706 .5731964 .115997318 .54719546 .147995 .54719546 .1789856 .54719546 .20298767 .5731964 .20298767 .6021881Z"/>
<path id="font_3_98" d="M.3829956 .12924195C.3829956 .1772461 .35398866 .24725342 .23498535 .2692566 .22698975 .2712555 .17098999 .28126527 .16699219 .28126527 .13598633 .28826905 .08898926 .30926515 .08898926 .34927369 .08898926 .37927247 .11099243 .4212799 .20599365 .4212799 .31799317 .4212799 .32299806 .33926393 .32499696 .31126405 .32598878 .30326844 .33299256 .30026246 .33999635 .30026246 .35598756 .30026246 .35598756 .30726625 .35598756 .32626344V.4202881C.35598756 .4362793 .35598756 .44628907 .34298707 .44628907 .33799745 .44628907 .33499146 .44628907 .31900025 .4302826 .31698609 .4292755 .30799867 .4202881 .30499269 .4202881 .30499269 .4202881 .3019867 .4202881 .29599 .4242859 .27999879 .43528749 .25099183 .44628907 .20599365 .44628907 .06599426 .44628907 .034988405 .37026979 .034988405 .32226563 .034988405 .27226258 .07199097 .24325562 .07499695 .24024964 .114990238 .21025086 .13798523 .20625305 .20498657 .19424439 .2519989 .18525696 .32899476 .17124939 .32899476 .10324097 .32899476 .0642395 .30299378 .018234253 .21099854 .018234253 .10998535 .018234253 .08099365 .09623718 .067993167 .14924622 .06399536 .1622467 .06298828 .16725159 .050994874 .16725159 .034988405 .16725159 .034988405 .15924073 .034988405 .14024353V.016220093C.034988405 .00022888184 .034988405-.009765625 .04798889-.009765625 .053985597-.009765625 .054992677-.008773804 .07299805 .010223389 .07798767 .0152282719 .08898926 .02822876 .09399414 .033233644 .13899231-.0077667238 .18598938-.009765625 .21199036-.009765625 .33898927-.009765625 .3829956 .06323242 .3829956 .12924195Z"/>
<path id="font_3_84" d="M.55400088 .21640015C.55400088 .34140016 .45298768 .44140626 .33198548 .44140626 .29299928 .44140626 .23498535 .43139649 .18399048 .37939454V.44140626L.034988405 .43045045V.39746095C.10598755 .39746095 .11099243 .39144898 .11099243 .34947206V-.1159668C.11099243-.16113281 .09899902-.16113281 .034988405-.16113281V-.19413758C.07798767-.19114685 .12199402-.19114685 .14898682-.19114685 .17799378-.19114685 .21998596-.19114685 .2630005-.19413758V-.16113281C.19898987-.16113281 .18699646-.16113281 .18699646-.1159668V.049545289C.23399353-.0017700195 .2849884-.009765625 .31698609-.009765625 .44400025-.009765625 .55400088 .088256839 .55400088 .2163086V.21640015M.46499635 .2163086C.46499635 .101257327 .3929901 .018234253 .31199647 .018234253 .2769928 .018234253 .23098755 .033233644 .19898987 .08325195 .18699646 .1002655 .18699646 .101257327 .18699646 .120269779V.33335877C.20999146 .37338258 .2599945 .4104004 .32299806 .4104004 .3999939 .4104004 .46499635 .32536317 .46499635 .2163086Z"/>
<path id="font_3_105" d="M.35299684 .1250763V.1809845H.32199098V.12705994C.32199098 .058166505 .29100038 .021224976 .25299073 .021224976 .18598938 .021224976 .18598938 .10710144 .18598938 .12307739V.3976593H.33499146V.43066407H.18598938V.6142578H.15499878C.1539917 .52345278 .11299133 .4286499 .019989014 .42565919V.3976593H.10998535V.1250763C.10998535 .008224487 .19999695-.009765625 .24598694-.009765625 .31298829-.010009766 .35299684 .049987794 .35299684 .125V.1250763Z"/>
<path id="font_3_63" d="M.56199648 0V.032989503C.49798585 .032989503 .48599244 .032989503 .48599244 .07814026V.30371095C.48599244 .38746644 .44799806 .44140626 .34298707 .44140626 .25498963 .44140626 .20899964 .3854828 .19099427 .3535614H.18998719V.69433596L.040985109 .6826172V.6496124C.10899353 .6496124 .116989139 .64263918 .116989139 .5938263V.07814026C.116989139 .032989503 .10499573 .032989503 .040985109 .032989503V0C.083999637 .0029907227 .12799073 .0029907227 .15499878 .0029907227 .18399048 .0029907227 .22599793 .0029907227 .2689972 0V.032989503C.20498657 .032989503 .19299317 .032989503 .19299317 .07814026V.2597046C.19299317 .36453248 .272995 .4133911 .33399964 .4133911 .394989 .4133911 .4099884 .37051393 .4099884 .30769349V.07814026C.4099884 .032989503 .397995 .032989503 .33399964 .032989503V0C.3769989 .0029907227 .42099 .0029907227 .44799806 .0029907227 .47698976 .0029907227 .5189972 .0029907227 .56199648 0Z"/>
</defs>
<path transform="matrix(1.00008,0,0,-1,53.155046,86.465)" stroke-width=".79701" stroke-linecap="butt" stroke-miterlimit="10" stroke-linejoin="miter" fill="none" stroke="#000000" d="M0 0-40.68903-40.68903"/>
<path transform="matrix(-.70715656,.7071,.70715656,.7071,12.462761,127.15402)" d="M2.59026 0-1.55415 2.0722 0 0-1.55415-2.0722"/>
<use data-text="x" xlink:href="#font_1_1" transform="matrix(9.963397,0,0,-9.9626,1.2168884,131.13)"/>
<path transform="matrix(1.00008,0,0,-1,53.155046,86.465)" stroke-width=".79701" stroke-linecap="butt" stroke-miterlimit="10" stroke-linejoin="miter" fill="none" stroke="#000000" d="M0 0H90.95514"/>
<path transform="matrix(1.00008,0,0,-1,144.11746,86.465)" d="M2.59026 0-1.55415 2.0722 0 0-1.55415-2.0722"/>
<use data-text="y" xlink:href="#font_1_2" transform="matrix(9.963397,0,0,-9.9626,150.42682,87.641)"/>
<path transform="matrix(1.00008,0,0,-1,53.155046,86.465)" stroke-width=".79701" stroke-linecap="butt" stroke-miterlimit="10" stroke-linejoin="miter" fill="none" stroke="#000000" d="M0 0V73.94688"/>
<path transform="matrix(0,-1,-1.00008,-0,53.155046,12.51812)" d="M2.59026 0-1.55415 2.0722 0 0-1.55415-2.0722"/>
<use data-text="z" xlink:href="#font_1_3" transform="matrix(9.963397,0,0,-9.9626,50.618844,6.2089998)"/>
<path transform="matrix(1.00008,0,0,-1,53.155046,86.465)" stroke-width=".79701" stroke-linecap="butt" stroke-dasharray="2.98883,2.98883" stroke-miterlimit="10" stroke-linejoin="miter" fill="none" stroke="#ffcc99" d="M-25.51236 38.26855C-22.64215 29.6579-12.75618 0 0 0 12.75616 0 22.64214 29.6579 25.51236 38.26855"/>
<g>
<path transform="matrix(1.00008,0,0,-1,53.155046,86.465)" d="M-25.51236 38.26855 34.0165 55.27682C20.40985 29.76443 56.12729 3.40158 59.52888 17.00824L0 0C-3.40158 13.60663-39.1205 63.78319-25.51385 38.27081Z" fill="#fff2e6" fill-opacity=".5"/>
<path transform="matrix(1.00008,0,0,-1,53.155046,86.465)" stroke-width=".79701" stroke-linecap="butt" stroke-miterlimit="10" stroke-linejoin="miter" fill="none" stroke="#ff8000" stroke-opacity=".5" d="M-25.51236 38.26855 34.0165 55.27682C20.40985 29.76443 56.12729 3.40158 59.52888 17.00824L0 0C-3.40158 13.60663-39.1205 63.78319-25.51385 38.27081Z"/>
</g>
<path transform="matrix(1.00008,0,0,-1,53.155046,86.465)" stroke-width=".79701" stroke-linecap="butt" stroke-miterlimit="10" stroke-linejoin="miter" fill="none" stroke="#ff8000" d="M34.0165 55.27682C36.88672 46.66615 46.77267 17.00826 59.52887 17.00826 72.28505 17.00826 82.17104 46.66615 85.04126 55.27682"/>
<path transform="matrix(1.00008,0,0,-1,53.155046,86.465)" stroke-width=".79701" stroke-linecap="butt" stroke-miterlimit="10" stroke-linejoin="miter" fill="none" stroke="#ff8000" d="M-25.51236 38.26855 34.0165 55.27682"/>
<path transform="matrix(1.00008,0,0,-1,53.155046,86.465)" stroke-width=".79701" stroke-linecap="butt" stroke-miterlimit="10" stroke-linejoin="miter" fill="none" stroke="#ff8000" d="M25.51236 38.26855 85.04128 55.27682"/>
<path transform="matrix(1.00008,0,0,-1,53.155046,86.465)" stroke-width=".79701" stroke-linecap="butt" stroke-miterlimit="10" stroke-linejoin="miter" fill="none" stroke="#ff8000" d="M0 0 59.52888 17.00824"/>
<use data-text="y" xlink:href="#font_2_1" transform="matrix(7.9707376,0,0,-7.9701,86.640727,87.211)" fill="#ff8000"/>
<use data-text="-" xlink:href="#font_3_64" transform="matrix(7.9707376,0,0,-7.9701,91.11309,87.211)" fill="#ff8000"/>
<use data-text="a" xlink:href="#font_3_28" transform="matrix(7.9707376,0,0,-7.9701,93.934719,87.211)" fill="#ff8000"/>
<use data-text="x" xlink:href="#font_3_116" transform="matrix(7.9707376,0,0,-7.9701,98.16718,87.211)" fill="#ff8000"/>
<use data-text="i" xlink:href="#font_3_66" transform="matrix(7.9707376,0,0,-7.9701,102.638759,87.211)" fill="#ff8000"/>
<use data-text="s" xlink:href="#font_3_98" transform="matrix(7.9707376,0,0,-7.9701,104.99012,87.211)" fill="#ff8000"/>
<use data-text="p" xlink:href="#font_3_84" transform="matrix(7.9707376,0,0,-7.9701,111.14355,87.211)" fill="#ff8000"/>
<use data-text="a" xlink:href="#font_3_28" transform="matrix(7.9707376,0,0,-7.9701,115.846279,87.211)" fill="#ff8000"/>
<use data-text="t" xlink:href="#font_3_105" transform="matrix(7.9707376,0,0,-7.9701,120.08671,87.211)" fill="#ff8000"/>
<use data-text="h" xlink:href="#font_3_63" transform="matrix(7.9707376,0,0,-7.9701,123.378627,87.211)" fill="#ff8000"/>
</svg>
