<svg xmlns="http://www.w3.org/2000/svg" xmlns:xlink="http://www.w3.org/1999/xlink" xmlns:inkscape="http://www.inkscape.org/namespaces/inkscape" version="1.1" width="195" height="100" viewBox="0 0 195 100">
<defs>
<path id="font_1_7" d="M.5369873 .5947571C.522995 .5818329 .48999024 .55400088 .48999024 .5361023 .48999024 .5261078 .5 .516098 .5099945 .516098 .5189972 .516098 .5239868 .5231018 .5289917 .5290985 .54100039 .5440674 .56399539 .5718994 .60798647 .59376528 .61499026 .59776309 .625 .6027527 .625 .61476138 .625 .62475588 .6179962 .62976077 .61099246 .6347656 .58898928 .6497803 .5779877 .66781619 .56999209 .69184878 .56799319 .7008667 .56399539 .7138672 .5499878 .7138672 .5359955 .7138672 .5299988 .7008667 .5299988 .69285586 .5299988 .68785098 .5379944 .65579226 .55400088 .6347656H.21699524C.19999695 .6347656 .18199158 .6347656 .18199158 .61476138 .18199158 .5947571 .19999695 .5947571 .21699524 .5947571H.5369873Z"/>
<path id="font_1_2" d="M.15899658 .07795715C.14898682 .038986207 .14698792 .0309906 .067993167 .0309906 .050994874 .0309906 .039993287 .0309906 .039993287 .011993408 .039993287 0 .04899597 0 .067993167 0H.39898683C.6069946 0 .80400088 .21087647 .80400088 .42974855 .80400088 .5706482 .71899417 .6826172 .56900027 .6826172H.23298645C.21398926 .6826172 .20298767 .6826172 .20298767 .66360476 .20298767 .6516113 .21199036 .6516113 .23199463 .6516113 .24499512 .6516113 .2630005 .65060427 .2749939 .6496124 .29100038 .6476135 .29699708 .64460757 .29699708 .6336212 .29699708 .6296234 .29599 .62661746 .29299928 .614624L.15899658 .07795715M.375 .6136322C.38398744 .64860537 .38598634 .6516113 .42900086 .6516113H.5359955C.6339874 .6516113 .71699526 .5986328 .71699526 .46672059 .71699526 .41775514 .69699099 .25386048 .6119995 .1439209 .58299258 .10694885 .5039978 .0309906 .3809967 .0309906H.2679901C.2539978 .0309906 .2519989 .0309906 .24598694 .03199768 .23599243 .032989503 .23298645 .033996583 .23298645 .041992189 .23298645 .04498291 .23298645 .04698181 .23799134 .064971927L.375 .6136322Z"/>
<path id="font_2_1" d="M.68699648 .32714845C.70199587 .32714845 .72099307 .32714845 .72099307 .34713746 .72099307 .36714173 .70199587 .36714173 .6879883 .36714173H.08898926C.07499695 .36714173 .055999757 .36714173 .055999757 .34713746 .055999757 .32714845 .07499695 .32714845 .08999634 .32714845H.68699648M.6879883 .13284302C.70199587 .13284302 .72099307 .13284302 .72099307 .15284729 .72099307 .17285156 .70199587 .17285156 .68699648 .17285156H.08999634C.07499695 .17285156 .055999757 .17285156 .055999757 .15284729 .055999757 .13284302 .07499695 .13284302 .08898926 .13284302H.6879883Z"/>
<path id="font_1_4" d="M.30299378 .3157959H.47299195C.61499026 .3157959 .7539978 .41973878 .7539978 .53167727 .7539978 .6086273 .6879883 .6826172 .5569916 .6826172H.23298645C.21398926 .6826172 .20298767 .6826172 .20298767 .66360476 .20298767 .6516113 .21199036 .6516113 .23199463 .6516113 .24499512 .6516113 .2630005 .65060427 .2749939 .6496124 .29100038 .6476135 .29699708 .64460757 .29699708 .6336212 .29699708 .6296234 .29599 .62661746 .29299928 .614624L.15899658 .07795715C.14898682 .038986207 .14698792 .0309906 .067993167 .0309906 .050994874 .0309906 .039993287 .0309906 .039993287 .011993408 .039993287 0 .051986696 0 .054992677 0 .08299255 0 .1539917 .0029907227 .18199158 .0029907227 .20298767 .0029907227 .22499085 .0019989014 .24598694 .0019989014 .2679901 .0019989014 .2899933 0 .31098939 0 .31799317 0 .33099366 0 .33099366 .019989014 .33099366 .0309906 .32199098 .0309906 .30299378 .0309906 .2659912 .0309906 .23799134 .0309906 .23799134 .048980714 .23799134 .054977418 .23999024 .05996704 .24099732 .065963748L.30299378 .3157959M.375 .6136322C.38398744 .64860537 .38598634 .6516113 .42900086 .6516113H.5249939C.60798647 .6516113 .6609955 .62461856 .6609955 .55566409 .6609955 .5166931 .6409912 .43074037 .60198977 .39476014 .5519867 .34977723 .49198915 .34179688 .44799806 .34179688H.30699159L.375 .6136322Z"/>
<path id="font_1_5" d="M.43798829 .0055236818C.59298709 .0644989 .73999026 .24256897 .73999026 .43579103 .73999026 .5969696 .6339874 .7050781 .4850006 .7050781 .2689972 .7050781 .04899597 .47784425 .04899597 .24456787 .04899597 .07847595 .16099549-.022460938 .30499269-.022460938 .32998658-.022460938 .3639984-.018463135 .40299989-.007461548 .39898683-.06939697 .39898683-.071380618 .39898683-.084365848 .39898683-.11634827 .39898683-.19433594 .48199464-.19433594 .6009979-.19433594 .6489868-.011474609 .6489868-.00047302247 .6489868 .0065307619 .6419983 .009521484 .6380005 .009521484 .6299896 .009521484 .6279907 .0045318605 .6259918-.0014648438 .60198977-.072387699 .5439911-.097335819 .5089874-.097335819 .46299745-.097335819 .44799806-.070388797 .43798829 .0055236818M.24899292 .013519287C.17098999 .044509889 .13699341 .12245178 .13699341 .21252442 .13699341 .2816162 .16299439 .4237671 .23899842 .5319061 .31199647 .63401797 .4059906 .68006899 .47898866 .68006899 .57899478 .68006899 .6519928 .6019745 .6519928 .4678192 .6519928 .3677063 .6009979 .13345337 .43299867 .039505006 .42799378 .07447815 .41799928 .14746094 .34498597 .14746094 .2919922 .14746094 .24299622 .097473148 .24299622 .04550171 .24299622 .025512696 .24899292 .014526367 .24899292 .013519287M.31098939 .002532959C.29699708 .002532959 .2649994 .002532959 .2649994 .04550171 .2649994 .08547974 .30299378 .12545777 .34498597 .12545777 .3869934 .12545777 .4059906 .10147095 .4059906 .040512086 .4059906 .025512696 .40499879 .024520874 .394989 .020523072 .36898805 .009521484 .33898927 .002532959 .31098939 .002532959Z"/>
<path id="font_1_3" d="M.30299378 .3244629H.3999939C.47499085 .3244629 .48298646 .30848695 .48298646 .27954103 .48298646 .2725525 .48298646 .26057435 .47599793 .2306366 .47399903 .22564698 .47299195 .22164917 .47299195 .21965027 .47299195 .21166992 .47898866 .20767212 .4850006 .20767212 .49499513 .20767212 .49499513 .21066284 .5 .2286377L.5549927 .44551087C.55799868 .45651246 .55799868 .45851136 .55799868 .46151734 .55799868 .46351625 .55599978 .47251893 .54599 .47251893 .5359955 .47251893 .5349884 .46751405 .5309906 .45150758 .5099945 .37347413 .4869995 .35546876 .4019928 .35546876H.31098939L.375 .6095886C.38398744 .64460757 .3849945 .64860537 .42900086 .64860537H.5609894C.6839905 .64860537 .70700076 .6156006 .70700076 .53855898 .70700076 .5155487 .70700076 .51153567 .70399478 .4845276 .70199587 .4715271 .70199587 .46951295 .70199587 .46652223 .70199587 .46151734 .7049866 .45451356 .71398928 .45451356 .72499087 .45451356 .7259979 .46051026 .7279968 .4795227L.7480011 .65260317C.7509918 .6796112 .74598696 .6796112 .72099307 .6796112H.23098755C.21099854 .6796112 .20098877 .6796112 .20098877 .65960696 .20098877 .64860537 .20999146 .64860537 .22898865 .64860537 .2659912 .64860537 .2939911 .64860537 .2939911 .6306 .2939911 .6266022 .2939911 .6246033 .2889862 .60658267L.15699768 .07791138C.14698792 .038970949 .14498902 .0309906 .06599426 .0309906 .04899597 .0309906 .037994386 .0309906 .037994386 .011993408 .037994386 0 .049987794 0 .052993776 0 .08198547 0 .1559906 .0029907227 .18499756 .0029907227 .21798706 .0029907227 .30099488 0 .33399964 0 .34298707 0 .35499574 0 .35499574 .018997193 .35499574 .026992798 .34899903 .0289917 .34899903 .02999878 .34599305 .0309906 .34399415 .0309906 .32099916 .0309906 .29899598 .0309906 .2939911 .0309906 .2689972 .032989503 .23999024 .035980226 .23699951 .039978029 .23699951 .052947999 .23699951 .0549469 .23699951 .060943605 .24099732 .075912479L.30299378 .3244629Z"/>
<path id="font_1_6" d="M.375 .6136017C.3809967 .63760378 .38398744 .6476135 .40299989 .65060427 .4119873 .6516113 .44400025 .6516113 .46398927 .6516113 .5349884 .6516113 .6459961 .6516113 .6459961 .5525818 .6459961 .51856997 .6299896 .44955445 .59098818 .41055299 .5649872 .38453675 .5119934 .35253907 .42199708 .35253907H.30999757L.375 .6136017M.5189972 .33953858C.6199951 .3615265 .7389984 .43154908 .7389984 .5325775 .7389984 .61860659 .6489868 .6826172 .5179901 .6826172H.23298645C.21299744 .6826172 .20399475 .6826172 .20399475 .6626129 .20399475 .6516113 .21299744 .6516113 .23199463 .6516113 .23399353 .6516113 .25299073 .6516113 .269989 .6496124 .28799439 .6476135 .29699708 .64660647 .29699708 .63360598 .29699708 .62960818 .29599 .6266022 .29299928 .6145935L.15899658 .07752991C.14898682 .038528444 .14698792 .030532837 .067993167 .030532837 .049987794 .030532837 .040985109 .030532837 .040985109 .010528564 .040985109-.00047302247 .052993776-.00047302247 .054992677-.00047302247 .08299255-.00047302247 .15299988 .002532959 .18099976 .002532959 .20899964 .002532959 .27999879-.00047302247 .30799867-.00047302247 .31599427-.00047302247 .32798768-.00047302247 .32798768 .01953125 .32798768 .030532837 .31900025 .030532837 .2999878 .030532837 .2630005 .030532837 .23498535 .030532837 .23498535 .048538209 .23498535 .054534913 .23699951 .059524537 .23799134 .0655365L.3039856 .3305359H.4229889C.5139923 .3305359 .5319977 .27453614 .5319977 .23953247 .5319977 .22453308 .5239868 .19352722 .5179901 .17053223 .5109863 .14253235 .5019989 .105529788 .5019989 .08552551 .5019989-.022460938 .621994-.022460938 .6349945-.022460938 .7200012-.022460938 .7549896 .07853699 .7549896 .0925293 .7549896 .104537967 .74398806 .104537967 .7429962 .104537967 .73399356 .104537967 .7319946 .09753418 .7299957 .090530399 .7049866 .016525269 .6619873-.00047302247 .6389923-.00047302247 .60598757-.00047302247 .598999 .021530152 .598999 .060531618 .598999 .091537479 .6049957 .14253235 .60899356 .17453003 .61099246 .1885376 .61299136 .20753479 .61299136 .2215271 .61299136 .2985382 .54599 .3295288 .5189972 .33953858Z"/>
<path id="font_1_1" d="M.45498658 .5001831C.45498658 .56614688 .43699647 .7050781 .33499146 .7050781 .19599915 .7050781 .041992189 .42323304 .041992189 .19425965 .041992189 .100250247 .070999149-.0107421879 .1619873-.0107421879 .30299378-.0107421879 .45498658 .27627564 .45498658 .5001831M.147995 .36328126C.16499329 .42723084 .18499756 .5071869 .22499085 .57814028 .2519989 .6271057 .2889862 .68307498 .33399964 .68307498 .3829956 .68307498 .3889923 .6191101 .3889923 .56214907 .3889923 .5131836 .3809967 .46220399 .35699464 .36328126H.147995M.34799195 .3312683C.33699037 .28527833 .31599427 .2002716 .27799989 .12826538 .24299622 .060256959 .20498657 .011245728 .1619873 .011245728 .1289978 .011245728 .10798645 .040252687 .10798645 .133255 .10798645 .17526245 .11399841 .23326111 .13999939 .3312683H.34799195Z"/>
<path id="font_3_1" d="M.18199158 .71299746C.18199158 .72898867 .18199158 .75 .15899658 .75 .13598633 .75 .13598633 .72499087 .13598633 .70899966V-.2090149C.13598633-.2250061 .13598633-.25 .15899658-.25 .18199158-.25 .18199158-.2290039 .18199158-.2130127V.71299746M.3939972 .70899966C.3939972 .72499087 .3939972 .75 .37098695 .75 .34799195 .75 .34799195 .72898867 .34799195 .71299746V-.2130127C.34799195-.2290039 .34799195-.25 .37098695-.25 .3939972-.25 .3939972-.2250061 .3939972-.2090149V.70899966Z"/>
<path id="font_4_3" d="M.5509949 .5917969 .5269928 .5679474C.5099945 .5500641 .5069885 .5431061 .5069885 .53616335 .5069885 .5241699 .5179901 .51316836 .5299988 .51316836 .54100039 .51316836 .54599 .5201721 .548996 .5231781 .5629883 .5391388 .58699038 .5689392 .6339874 .5907898 .6439972 .5957947 .6549988 .6007843 .6549988 .61479189 .6549988 .62779238 .644989 .632782 .6399994 .63679507 .6069946 .65678408 .59799197 .6797943 .59298709 .6947937 .59098818 .7027893 .58599856 .7167969 .56999209 .7167969 .5549927 .7167969 .5469971 .7037964 .5469971 .6937866 .5469971 .6877899 .55400088 .66178897 .57099917 .63778689H.22099304C.20498657 .63778689 .18299866 .63778689 .18299866 .61479189 .18299866 .5917969 .20498657 .5917969 .22099304 .5917969H.5509949Z"/>
<path id="font_4_2" d="M.31599427 .32344056H.41999818C.5019989 .32344056 .5059967 .3074646 .5059967 .27851869 .5059967 .27153016 .5059967 .2615509 .49899293 .23561096 .49798585 .23161316 .49699403 .22363281 .49699403 .22062683 .49699403 .21963501 .49699403 .20666504 .5119934 .20666504 .5239868 .20666504 .5269928 .21664429 .5299988 .22961426L.58299258 .4434967C.58399966 .4454956 .58699038 .4584961 .58699038 .45950318 .58699038 .46350099 .58399966 .47351075 .57099917 .47351075 .5589905 .47351075 .5569916 .46450807 .55400088 .4524994 .5339966 .37445069 .5109863 .3564453 .42199708 .3564453H.32499696L.3880005 .60858157C.39698792 .64460757 .397995 .64660647 .43899537 .64660647H.58599856C.7049866 .64660647 .7389984 .6215973 .7389984 .5355377 .7389984 .51452639 .73399356 .48851014 .73399356 .46949769 .73399356 .45750428 .7409973 .4524994 .7489929 .4524994 .7630005 .4524994 .7639923 .46150209 .7659912 .47851563L.7839966 .64860537C.7849884 .6536102 .7849884 .660614 .7849884 .66560366 .7849884 .6796112 .772995 .6796112 .7549896 .6796112H.24198914C.22399903 .6796112 .21099854 .6796112 .21099854 .66160586 .21099854 .64660647 .22299195 .64660647 .23999024 .64660647 .24699402 .64660647 .26098634 .64660647 .27799989 .64460757 .29899598 .64260867 .3019867 .64060977 .3019867 .6306 .3019867 .6255951 .30099488 .6215973 .2979889 .6105957L.16499329 .0789032C.1559906 .04096985 .1539917 .032989503 .07998657 .032989503 .06098938 .032989503 .04899597 .032989503 .04899597 .01399231 .04899597 .009994507 .051986696 0 .06498718 0 .085998538 0 .10998535 .0029907227 .13198853 .0029907227H.269989C.2889862 .0019989014 .32499696 0 .34399415 0 .35099793 0 .36499024 0 .36499024 .018997193 .36499024 .032989503 .35299684 .032989503 .33198548 .032989503 .31098939 .032989503 .30299378 .032989503 .27999879 .034988405 .25299073 .037979127 .25 .04096985 .25 .052947999 .25 .053955079 .25 .059936525 .2539978 .074905399L.31599427 .32344056Z"/>
<path id="font_5_3" d="M.36799623 .39746095C.33999635 .3884735 .33599855 .36547853 .33599855 .35346986 .33599855 .32647706 .35499574 .30647279 .3829956 .30647279 .40899659 .30647279 .42999269 .32447816 .42999269 .35447694 .42999269 .41627503 .3619995 .44628907 .2679901 .44628907 .1289978 .44628907 .034988405 .33547975 .034988405 .21640015 .034988405 .089279178 .13899231-.009765625 .2649994-.009765625 .4059906-.009765625 .44099427 .108306888 .44099427 .12031555 .44099427 .13232422 .42799378 .13232422 .4249878 .13232422 .41799928 .13232422 .41299439 .13131714 .4099884 .12130737 .40299989 .10029602 .375 .021224976 .2749939 .021224976 .21299744 .021224976 .12399292 .0692749 .12399292 .21739197 .12399292 .3614807 .19799805 .4152832 .2709961 .4152832 .27999879 .4152832 .33299256 .4152832 .36799623 .39746095Z"/>
<path id="font_5_4" d="M.5 .21325684C.5 .3382721 .39698792 .44628907 .2649994 .44628907 .1329956 .44628907 .02999878 .3382721 .02999878 .21325684 .02999878 .08824158 .13699341-.009765625 .2649994-.009765625 .3939972-.009765625 .5 .08824158 .5 .21325684M.2649994 .021224976C.21099854 .021224976 .16899109 .047225954 .14698792 .082229617 .12199402 .12324524 .11898804 .17224121 .11898804 .22225952 .11898804 .2602539 .11898804 .32026673 .1499939 .363266 .17599488 .3982849 .21798706 .41827394 .2649994 .41827394 .31698609 .41827394 .3600006 .39328004 .3829956 .35827638 .4099884 .31626893 .41099549 .2622528 .41099549 .22225952 .41099549 .17625427 .40899659 .12124634 .3809967 .07923889 .35398866 .039230348 .30899049 .021224976 .2649994 .021224976Z"/>
<path id="font_5_5" d="M.35598756 .4202881C.35598756 .4362793 .35598756 .44628907 .34298707 .44628907 .33799745 .44628907 .33499146 .44628907 .31900025 .4302826 .31698609 .4292755 .30799867 .4202881 .30499269 .4202881 .3039856 .4202881 .3019867 .4202881 .29599 .4242859 .27999879 .43528749 .25099183 .44628907 .20599365 .44628907 .06599426 .44628907 .034988405 .37026979 .034988405 .32226563 .034988405 .27226258 .07199097 .24325562 .07499695 .24024964 .114990238 .21025086 .13798523 .20625305 .20498657 .19424439 .2519989 .18525696 .32899476 .17124939 .32899476 .10324097 .32899476 .0642395 .30299378 .018234253 .21099854 .018234253 .10998535 .018234253 .08099365 .09623718 .067993167 .14924622 .06399536 .1622467 .06298828 .16725159 .050994874 .16725159 .034988405 .16725159 .034988405 .15924073 .034988405 .14024353V.016220093C.034988405 .00022888184 .034988405-.009765625 .04798889-.009765625 .053985597-.009765625 .054992677-.008773804 .07299805 .010223389 .07798767 .0152282719 .08898926 .02822876 .09399414 .033233644 .13899231-.0077667238 .18598938-.009765625 .21199036-.009765625 .33898927-.009765625 .3829956 .06323242 .3829956 .12924195 .3829956 .1772461 .35398866 .24725342 .23498535 .2692566 .22698975 .2712555 .17098999 .28126527 .16699219 .28126527 .13598633 .28826905 .08898926 .30926515 .08898926 .34927369 .08898926 .37927247 .11099243 .4212799 .20599365 .4212799 .31799317 .4212799 .32299806 .33926393 .32499696 .31126405 .32598878 .30326844 .33299256 .30026246 .33999635 .30026246 .35598756 .30026246 .35598756 .30726625 .35598756 .32626344V.4202881Z"/>
<path id="font_5_1" d="M.33299256-.25C.34098817-.25 .35299684-.25 .35299684-.23800659 .35299684-.23400879 .35198976-.23300171 .33898927-.22000122 .20199585-.09100342 .16799927 .09498596 .16799927 .25 .16799927 .5379944 .2869873 .6729889 .33799745 .71899417 .35198976 .7319946 .35299684 .73298647 .35299684 .73799136 .35299684 .7429962 .34899903 .75 .33898927 .75 .32299806 .75 .272995 .69898989 .2649994 .6899872 .1309967 .5499878 .102996829 .36999513 .102996829 .25 .102996829 .025985718 .19699097-.15400696 .33299256-.25Z"/>
<path id="font_4_1" d="M.47898866 .4910736C.47898866 .61608889 .43099977 .70410159 .34799195 .70410159 .19898987 .70410159 .04399109 .42607118 .04399109 .20314026 .04399109 .107177738 .07699585-.009765625 .17599488-.009765625 .32199098-.009765625 .47898866 .2611084 .47898866 .4910736M.1559906 .3640747C.20298767 .5660858 .2849884 .6760864 .34700013 .6760864 .40699769 .6760864 .40699769 .5690918 .40699769 .55007937 .40699769 .4940796 .3889923 .41307069 .3769989 .3640747H.1559906M.36799623 .33007813C.32099916 .12916565 .23899842 .018234253 .1769867 .018234253 .12298584 .018234253 .116989139 .09819031 .116989139 .14416504 .116989139 .20713806 .13598633 .28808595 .14698792 .33007813H.36799623Z"/>
<path id="font_5_2" d="M.30899049 .25C.30899049 .34500123 .29299928 .45899964 .23098755 .57699587 .18199158 .6689911 .09098816 .75 .07299805 .75 .06298828 .75 .05999756 .7429962 .05999756 .73799136 .05999756 .73399356 .05999756 .7319946 .07199097 .7200012 .21199036 .58699038 .24398804 .4039917 .24398804 .25 .24398804-.037002565 .125-.17300415 .07398987-.2190094 .06098938-.23200989 .05999756-.23300171 .05999756-.23800659 .05999756-.24301148 .06298828-.25 .07299805-.25 .08898926-.25 .13899231-.19900513 .14698792-.19000244 .2809906-.05000305 .30899049 .12998963 .30899049 .25Z"/>
</defs>
<path transform="matrix(1.00005,0,0,-1.00003,12.517868,79.29502)" stroke-width="1.59404" stroke-linecap="butt" stroke-miterlimit="10" stroke-linejoin="miter" fill="none" stroke="#0000ff" d="M0 0H166.32735"/>
<path transform="matrix(1.00005,0,0,-1.00003,178.85352,79.29502)" d="M3.78581 0-2.27148 3.02866 0 0-2.27148-3.02866" fill="#0000ff"/>
<use data-text="&#x20d7;" xlink:href="#font_1_7" transform="matrix(9.963098,0,0,-9.962899,80.40426,94.51548)" fill="#0000ff"/>
<use data-text="D" xlink:href="#font_1_2" transform="matrix(9.963098,0,0,-9.962899,78.84518,97.03455)" fill="#0000ff"/>
<use data-text="=" xlink:href="#font_2_1" transform="matrix(9.963098,0,0,-9.962899,90.13774,97.03455)" fill="#0000ff"/>
<use data-text="&#x20d7;" xlink:href="#font_1_7" transform="matrix(9.963098,0,0,-9.962899,105.225498,94.51548)" fill="#0000ff"/>
<use data-text="P" xlink:href="#font_1_4" transform="matrix(9.963098,0,0,-9.962899,100.65427,97.03455)" fill="#0000ff"/>
<use data-text="Q" xlink:href="#font_1_5" transform="matrix(9.963098,0,0,-9.962899,108.42548,97.03455)" fill="#0000ff"/>
<path transform="matrix(1.00005,0,0,-1.00003,12.517868,79.29502)" stroke-width="1.59404" stroke-linecap="butt" stroke-miterlimit="10" stroke-linejoin="miter" fill="none" stroke="#ff0000" d="M0 0 115.79239 66.16707"/>
<path transform="matrix(.8682434,-.4961249,-.49613477,-.8682261,128.31603,13.125961)" d="M3.78581 0-2.27148 3.02866 0 0-2.27148-3.02866" fill="#ff0000"/>
<use data-text="&#x20d7;" xlink:href="#font_1_7" transform="matrix(9.963098,0,0,-9.962899,32.913896,38.634805)" fill="#ff0000"/>
<use data-text="F" xlink:href="#font_1_3" transform="matrix(9.963098,0,0,-9.962899,31.445816,41.153879)" fill="#ff0000"/>
<use data-text="=" xlink:href="#font_2_1" transform="matrix(9.963098,0,0,-9.962899,42.00335,41.153879)" fill="#ff0000"/>
<use data-text="&#x20d7;" xlink:href="#font_1_7" transform="matrix(9.963098,0,0,-9.962899,56.9741,38.634805)" fill="#ff0000"/>
<use data-text="P" xlink:href="#font_1_4" transform="matrix(9.963098,0,0,-9.962899,52.519868,41.153879)" fill="#ff0000"/>
<use data-text="R" xlink:href="#font_1_6" transform="matrix(9.963098,0,0,-9.962899,60.291086,41.153879)" fill="#ff0000"/>
<path transform="matrix(1.00005,0,0,-1.00003,12.517868,79.29502)" stroke-width=".79701" stroke-linecap="butt" stroke-dasharray="2.98883,2.98883" stroke-miterlimit="10" stroke-linejoin="miter" fill="none" stroke="#7f807f" d="M119.07921 68.04524V0"/>
<path transform="matrix(1.00005,0,0,-1.00003,12.517868,79.29502)" stroke-width=".79701" stroke-linecap="butt" stroke-miterlimit="10" stroke-linejoin="miter" fill="none" stroke="#7f807f" d="M119.05627 6.80309H112.25316V0"/>
<path transform="matrix(1.00005,0,0,-1.00003,12.517868,79.29502)" stroke-width="1.19553" stroke-linecap="butt" stroke-miterlimit="10" stroke-linejoin="miter" fill="none" stroke="#bf0040" d="M0 0H119.07921"/>
<path transform="matrix(1.00005,0,0,-1.00003,12.517868,79.29502)" d="M2.39105 0C2.39105 1.32054 1.32054 2.39105 0 2.39105-1.32054 2.39105-2.39105 1.32054-2.39105 0-2.39105-1.32054-1.32054-2.39105 0-2.39105 1.32054-2.39105 2.39105-1.32054 2.39105 0ZM0 0"/>
<path transform="matrix(1.00005,0,0,-1.00003,12.517868,79.29502)" stroke-width=".3985" stroke-linecap="butt" stroke-miterlimit="10" stroke-linejoin="miter" fill="none" stroke="#000000" d="M2.39105 0C2.39105 1.32054 1.32054 2.39105 0 2.39105-1.32054 2.39105-2.39105 1.32054-2.39105 0-2.39105-1.32054-1.32054-2.39105 0-2.39105 1.32054-2.39105 2.39105-1.32054 2.39105 0ZM0 0"/>
<use data-text="P" xlink:href="#font_1_4" transform="matrix(9.963098,0,0,-9.962899,1.2173004,89.62333)"/>
<path transform="matrix(1.00005,0,0,-1.00003,12.517868,79.29502)" d="M172.50423 0C172.50423 1.32054 171.43372 2.39105 170.11318 2.39105 168.79262 2.39105 167.7221 1.32054 167.7221 0 167.7221-1.32054 168.79262-2.39105 170.11318-2.39105 171.43372-2.39105 172.50423-1.32054 172.50423 0ZM170.11318 0"/>
<path transform="matrix(1.00005,0,0,-1.00003,12.517868,79.29502)" stroke-width=".3985" stroke-linecap="butt" stroke-miterlimit="10" stroke-linejoin="miter" fill="none" stroke="#000000" d="M172.50423 0C172.50423 1.32054 171.43372 2.39105 170.11318 2.39105 168.79262 2.39105 167.7221 1.32054 167.7221 0 167.7221-1.32054 168.79262-2.39105 170.11318-2.39105 171.43372-2.39105 172.50423-1.32054 172.50423 0ZM170.11318 0"/>
<use data-text="Q" xlink:href="#font_1_5" transform="matrix(9.963098,0,0,-9.962899,186.15953,89.62333)"/>
<path transform="matrix(1.00005,0,0,-1.00003,12.517868,79.29502)" d="M121.47026 68.04524C121.47026 69.3658 120.39975 70.43631 119.07921 70.43631 117.75865 70.43631 116.68814 69.3658 116.68814 68.04524 116.68814 66.7247 117.75865 65.65419 119.07921 65.65419 120.39975 65.65419 121.47026 66.7247 121.47026 68.04524ZM119.07921 68.04524"/>
<path transform="matrix(1.00005,0,0,-1.00003,12.517868,79.29502)" stroke-width=".3985" stroke-linecap="butt" stroke-miterlimit="10" stroke-linejoin="miter" fill="none" stroke="#000000" d="M121.47026 68.04524C121.47026 69.3658 120.39975 70.43631 119.07921 70.43631 117.75865 70.43631 116.68814 69.3658 116.68814 68.04524 116.68814 66.7247 117.75865 65.65419 119.07921 65.65419 120.39975 65.65419 121.47026 66.7247 121.47026 68.04524ZM119.07921 68.04524"/>
<use data-text="R" xlink:href="#font_1_6" transform="matrix(9.963098,0,0,-9.962899,135.12299,7.727867)"/>
<path transform="matrix(1.00005,0,0,-1.00003,12.517868,79.29502)" stroke-width=".79701" stroke-linecap="butt" stroke-miterlimit="10" stroke-linejoin="miter" fill="none" stroke="#000000" d="M23.81113 0C23.81113 4.1423 22.7284 8.21486 20.67377 11.81108"/>
<use data-text="&#x03b8;" xlink:href="#font_1_1" transform="matrix(9.963098,0,0,-9.962899,42.899385,73.94986)"/>
<use data-text="&#x2225;" xlink:href="#font_3_1" transform="matrix(7.970498,0,0,-7.9703395,52.784879,93.94646)" fill="#bf0040"/>
<use data-text="&#x20d7;" xlink:href="#font_4_3" transform="matrix(7.970498,0,0,-7.9703395,58.26215,91.9314)" fill="#bf0040"/>
<use data-text="F" xlink:href="#font_4_2" transform="matrix(7.970498,0,0,-7.9703395,57.019086,93.94646)" fill="#bf0040"/>
<use data-text="&#x2225;" xlink:href="#font_3_1" transform="matrix(7.970498,0,0,-7.9703395,63.554418,93.94646)" fill="#bf0040"/>
<use data-text="c" xlink:href="#font_5_3" transform="matrix(7.970498,0,0,-7.9703395,69.2007,93.94646)" fill="#bf0040"/>
<use data-text="o" xlink:href="#font_5_4" transform="matrix(7.970498,0,0,-7.9703395,72.96277,93.94646)" fill="#bf0040"/>
<use data-text="s" xlink:href="#font_5_5" transform="matrix(7.970498,0,0,-7.9703395,77.1951,93.94646)" fill="#bf0040"/>
<use data-text="(" xlink:href="#font_5_1" transform="matrix(7.970498,0,0,-7.9703395,80.534748,93.94646)" fill="#bf0040"/>
<use data-text="&#x03b8;" xlink:href="#font_4_1" transform="matrix(7.970498,0,0,-7.9703395,83.83243,93.94646)" fill="#bf0040"/>
<use data-text=")" xlink:href="#font_5_2" transform="matrix(7.970498,0,0,-7.9703395,88.01865,93.94646)" fill="#bf0040"/>
</svg>
