<svg xmlns="http://www.w3.org/2000/svg" xmlns:xlink="http://www.w3.org/1999/xlink" xmlns:inkscape="http://www.inkscape.org/namespaces/inkscape" version="1.1" width="136" height="178" viewBox="0 0 136 178">
<defs>
<path id="font_1_1" d="M.33399964 .30233766C.33999635 .32835389 .36299134 .42037965 .43299867 .42037965 .43798829 .42037965 .46199037 .42037965 .48298646 .40734864 .45498658 .402359 .43499757 .37734986 .43499757 .35334779 .43499757 .33735658 .44599916 .31835938 .47299195 .31835938 .49499513 .31835938 .5269928 .3363495 .5269928 .37635804 .5269928 .42837525 .46798707 .4423828 .43399049 .4423828 .37599183 .4423828 .34098817 .38935853 .32899476 .36634828 .3039856 .43237306 .25 .4423828 .22099304 .4423828 .116989139 .4423828 .05999756 .3133545 .05999756 .28834535 .05999756 .27833558 .069992069 .27833558 .07199097 .27833558 .07998657 .27833558 .08299255 .28033448 .084991458 .28933717 .11898804 .39535523 .18499756 .42037965 .21899414 .42037965 .23799134 .42037965 .272995 .4113617 .272995 .35334779 .272995 .32235719 .2559967 .25532533 .21899414 .11528015 .20298767 .053268434 .16799927 .011245728 .12399292 .011245728 .117996219 .011245728 .09498596 .011245728 .07398987 .024276734 .09899902 .029266358 .12098694 .05027771 .12098694 .07827759 .12098694 .105270389 .09899902 .11328125 .083999637 .11328125 .053985597 .11328125 .0289917 .08728027 .0289917 .055267335 .0289917 .009246826 .07899475-.0107421879 .12298584-.0107421879 .18899536-.0107421879 .22499085 .059280397 .22799683 .0652771 .23999024 .028274537 .27598573-.0107421879 .33599855-.0107421879 .43899537-.0107421879 .49598695 .118270877 .49598695 .14328003 .49598695 .1532898 .4869995 .1532898 .48399354 .1532898 .47499085 .1532898 .47299195 .14929199 .47099305 .14228821 .43798829 .03527832 .36999513 .011245728 .33799745 .011245728 .29899598 .011245728 .2829895 .043273927 .2829895 .07727051 .2829895 .09927368 .2889862 .121276859 .2999878 .16529846L.33399964 .30233766Z"/>
<path id="font_1_2" d="M.48599244 .38136292C.48999024 .39537049 .48999024 .39736939 .48999024 .40437318 .48999024 .42237855 .47599793 .43138124 .46099855 .43138124 .45098878 .43138124 .43499757 .42536927 .42599488 .41036988 .42399598 .405365 .41600038 .37435914 .4119873 .35635377 .40499879 .33035279 .397995 .30334474 .3919983 .27633668L.34700013 .09628296C.34298707 .08126831 .2999878 .011245728 .23399353 .011245728 .18299866 .011245728 .17199707 .055267335 .17199707 .0922699 .17199707 .1382904 .18899536 .20030213 .22299195 .28833009 .23899842 .3293457 .24299622 .3403473 .24299622 .36035157 .24299622 .405365 .21099854 .4423828 .16099549 .4423828 .06599426 .4423828 .0289917 .29733277 .0289917 .28833009 .0289917 .27833558 .038986207 .27833558 .040985109 .27833558 .050994874 .27833558 .051986696 .28033448 .056991579 .29634095 .083999637 .3903656 .12399292 .42037965 .1579895 .42037965 .1659851 .42037965 .18299866 .42037965 .18299866 .3883667 .18299866 .36335755 .17298889 .3373413 .1659851 .31834413 .12599182 .21231079 .10798645 .1552887 .10798645 .10827637 .10798645 .019256592 .17098999-.0107421879 .22999573-.0107421879 .2689972-.0107421879 .30299378 .0062561037 .33099366 .03425598 .31799317-.017745972 .30599977-.06674194 .2659912-.11973572 .23999024-.15385437 .20199585-.18309021 .1559906-.18309021 .14199829-.18309021 .09700012-.18005371 .07998657-.14074707 .09599304-.14074707 .10899353-.14074707 .12298584-.1287384 .1329956-.11973572 .14299011-.10673523 .14299011-.08773804 .14299011-.056747438 .115997318-.052734376 .10598755-.052734376 .08299255-.052734376 .049987794-.068740848 .049987794-.11773682 .049987794-.16796875 .09399414-.20507813 .1559906-.20507813 .25898744-.20507813 .3619995-.11373901 .3899994-.00074768069L.48599244 .38136292Z"/>
<path id="font_1_3" d="M.1329956 .08345032C.18699646 .14138794 .21598816 .16636658 .2519989 .19732666 .2519989 .19833374 .31399537 .25128175 .34999085 .2872467 .44499208 .3803711 .46699525 .42837525 .46699525 .43237306 .46699525 .4423828 .45799256 .4423828 .45599366 .4423828 .44898988 .4423828 .44599916 .44036866 .44099427 .43138124 .41099549 .38337709 .3899994 .3671875 .3659973 .3671875 .34199525 .3671875 .32998658 .38237 .31498719 .3993683 .29599 .42237855 .2789917 .4423828 .24598694 .4423828 .17098999 .4423828 .125 .34918214 .125 .3282013 .125 .3231964 .12799073 .31721498 .13699341 .31721498 .1459961 .31721498 .147995 .3222046 .1499939 .3282013 .16899109 .37434388 .22698975 .37538148 .23498535 .37538148 .2559967 .37538148 .2749939 .36820985 .2979889 .36018373 .33799745 .34518434 .34899903 .34518434 .375 .34518434 .33898927 .30223084 .25498963 .2303009 .23599243 .21430969L.1459961 .13040161C.07798767 .06341553 .042999269 .0062561037 .042999269-.00074768069 .042999269-.0107421879 .052993776-.0107421879 .054992677-.0107421879 .06298828-.0107421879 .06498718-.008743286 .070999149 .002243042 .09399414 .037246705 .12399292 .064453128 .1559906 .064453128 .1789856 .064453128 .18899536 .055252077 .21398926 .026245118 .23098755 .0052490236 .24899292-.0107421879 .27799989-.0107421879 .3769989-.0107421879 .43499757 .1164093 .43499757 .14338684 .43499757 .14837647 .43099977 .15338135 .4229889 .15338135 .4139862 .15338135 .4119873 .14738465 .40899659 .14039612 .38598634 .07543945 .32199098 .056243898 .2889862 .056243898 .2689972 .056243898 .25099183 .06239319 .22999573 .06944275 .19599915 .08244324 .18099976 .08644104 .1599884 .08644104 .1579895 .08644104 .14199829 .08644104 .1329956 .08345032Z"/>
<path id="font_2_6" d="M.68699648 .32714845C.70199587 .32714845 .72099307 .32714845 .72099307 .34713746 .72099307 .36714173 .70199587 .36714173 .6879883 .36714173H.08898926C.07499695 .36714173 .055999757 .36714173 .055999757 .34713746 .055999757 .32714845 .07499695 .32714845 .08999634 .32714845H.68699648M.6879883 .13284302C.70199587 .13284302 .72099307 .13284302 .72099307 .15284729 .72099307 .17285156 .70199587 .17285156 .68699648 .17285156H.08999634C.07499695 .17285156 .055999757 .17285156 .055999757 .15284729 .055999757 .13284302 .07499695 .13284302 .08898926 .13284302H.6879883Z"/>
<path id="font_2_5" d="M.2939911 .16503906V.07800293C.2939911 .041992189 .2919922 .0309906 .21798706 .0309906H.19699097V0C.23799134 .0029907227 .2899933 .0029907227 .33198548 .0029907227 .37399293 .0029907227 .4269867 .0029907227 .46798707 0V.0309906H.44699098C.37298585 .0309906 .37098695 .041992189 .37098695 .07800293V.16503906H.47099305V.19602967H.37098695V.65075686C.37098695 .67074587 .37098695 .6767578 .35499574 .6767578 .34599305 .6767578 .34298707 .6767578 .33499146 .66474917L.027999878 .19602967V.16503906H.2939911M.2999878 .19602967H.055999757L.2999878 .5688019V.19602967Z"/>
<path id="font_3_1" d="M.6589966 .23046875C.6759949 .23046875 .69400027 .23046875 .69400027 .25045777 .69400027 .27046205 .6759949 .27046205 .6589966 .27046205H.117996219C.100997928 .27046205 .08299255 .27046205 .08299255 .25045777 .08299255 .23046875 .100997928 .23046875 .117996219 .23046875H.6589966Z"/>
<path id="font_2_1" d="M.33099366-.2400055C.33099366-.23701477 .33099366-.23500061 .31399537-.21800232 .18899536-.0920105 .15699768 .09700012 .15699768 .25 .15699768 .42399598 .19499207 .59799197 .31799317 .72299197 .33099366 .73498538 .33099366 .7369995 .33099366 .73999026 .33099366 .746994 .32699586 .75 .32099916 .75 .31098939 .75 .22099304 .6819916 .1619873 .5549927 .11099243 .44499208 .09899902 .33399964 .09899902 .25 .09899902 .17199707 .10998535 .050994874 .16499329-.06201172 .22499085-.18501282 .31098939-.25 .32099916-.25 .32699586-.25 .33099366-.24700928 .33099366-.2400055Z"/>
<path id="font_4_1" d="M.5049896 .18203736H.47099305C.46798707 .16001892 .45799256 .100997928 .44499208 .09098816 .43699647 .084991458 .3600006 .084991458 .34599305 .084991458H.1619873C.2669983 .17803955 .3019867 .20603943 .3619995 .25306703 .43598939 .312088 .5049896 .374115 .5049896 .46914674 .5049896 .5900879 .39898683 .6640625 .2709961 .6640625 .14698792 .6640625 .06298828 .57710269 .06298828 .4851532 .06298828 .43414308 .10598755 .42915345 .115997318 .42915345 .13999939 .42915345 .16899109 .44615174 .16899109 .48214723 .16899109 .5001526 .1619873 .53515627 .10998535 .53515627 .14099121 .6060791 .20899964 .62805178 .2559967 .62805178 .35598756 .62805178 .4079895 .5501404 .4079895 .46914674 .4079895 .38212586 .34599305 .3130951 .31399537 .27708436L.07299805 .038986207C.06298828 .02999878 .06298828 .027999878 .06298828 0H.47499085L.5049896 .18203736Z"/>
<path id="font_2_3" d="M.40899659 .23046875H.6879883C.70199587 .23046875 .72099307 .23046875 .72099307 .25045777 .72099307 .27046205 .70199587 .27046205 .6879883 .27046205H.40899659V.5500183C.40899659 .56399539 .40899659 .5830078 .3889923 .5830078 .36898805 .5830078 .36898805 .56399539 .36898805 .5500183V.27046205H.08898926C.07499695 .27046205 .055999757 .27046205 .055999757 .25045777 .055999757 .23046875 .07499695 .23046875 .08898926 .23046875H.36898805V-.05000305C.36898805-.06401062 .36898805-.08300781 .3889923-.08300781 .40899659-.08300781 .40899659-.06401062 .40899659-.05000305V.23046875Z"/>
<path id="font_2_2" d="M.2889862 .25C.2889862 .32798768 .27799989 .44898988 .22299195 .56199648 .16299439 .68499758 .07699585 .75 .066986087 .75 .06098938 .75 .056991579 .74598696 .056991579 .73999026 .056991579 .7369995 .056991579 .73498538 .07598877 .71699526 .17399597 .6179962 .23098755 .45899964 .23098755 .25 .23098755 .07899475 .19400025-.09700012 .069992069-.2230072 .056991579-.23500061 .056991579-.23701477 .056991579-.2400055 .056991579-.2460022 .06098938-.25 .066986087-.25 .07699585-.25 .16699219-.18200684 .22599793-.055007936 .2769928 .054992677 .2889862 .16600037 .2889862 .25Z"/>
<path id="font_2_4" d="M.2939911 .64004519C.2939911 .66400149 .2939911 .6660156 .2709961 .6660156 .20899964 .60227969 .12098694 .60227969 .08898926 .60227969V.57128909C.10899353 .57128909 .16799927 .57128909 .21998596 .5972748V.07902527C.21998596 .042999269 .21699524 .0309906 .1269989 .0309906H.09498596V0C.12998963 .0029907227 .21699524 .0029907227 .25698854 .0029907227 .29699708 .0029907227 .38398744 .0029907227 .4189911 0V.0309906H.3869934C.29699708 .0309906 .2939911 .041992189 .2939911 .07902527V.64004519Z"/>
</defs>
<path transform="matrix(1,0,0,-1.00006,48.048006,132.39316)" d="M-17.00826-12.75597-14.35071-13.58716-11.53056-14.26479-8.57971-14.78072-5.53195-15.12907-2.42087-15.30627 .71654-15.31046 3.84654-15.14053 6.9328-14.79947 9.94069-14.29048 12.83562-13.61969 15.58548-12.7941 18.15802-11.82376 20.5254-10.71976 22.65985-9.49403 24.53764-8.16116 26.1377-6.73567 27.44183-5.23409 28.43498-3.67255 29.1055-2.06955 29.44681-.44337 29.45349 1.18811 29.12708 2.80577 28.47028 4.39178 27.49127 5.92836 26.2006 7.39746 24.61343 8.78285 22.74702 10.06873 20.6235 11.24042 18.26563 12.285 15.70157 13.18994 12.95891 13.94556 10.0694 14.54318 7.06615 14.97603 3.9828 15.23932 .85356 15.3299-2.28494 15.24686-5.39702 14.99106-8.44829 14.5655-11.40434 13.97498-14.23029 13.22574-16.89574 12.32684-19.36948 11.28786-21.62328 10.12144-23.63243 8.84004-25.3738 7.45903-26.82808 5.99326-27.97751 4.45967-28.8109 2.87523-29.31842 1.25821-29.49203-.37276-29.33217-1.99976-28.83961-3.60393-28.02069-5.1673-26.88422-6.67215-25.44328-8.10153-23.71405-9.4392-21.71655-10.66972-19.47255-11.77945-17.00798-12.75577 0-25.51195Z" fill="#d4effc" fill-opacity=".8"/>
<path transform="matrix(1,0,0,-1.00006,48.048006,132.39316)" d="M-17.00826-12.75597-14.35071-13.58716-11.53056-14.26479-8.57971-14.78072-5.53195-15.12907-2.42087-15.30627 .71654-15.31046 3.84654-15.14053 6.9328-14.79947 9.94069-14.29048 12.83562-13.61969 15.58548-12.7941 18.15802-11.82376 20.5254-10.71976 22.65985-9.49403 24.53764-8.16116 26.1377-6.73567 27.44183-5.23409 28.43498-3.67255 29.1055-2.06955 29.44681-.44337 29.45349 1.18811 29.12708 2.80577 28.47028 4.39178 27.49127 5.92836 26.2006 7.39746 24.61343 8.78285 22.74702 10.06873 20.6235 11.24042 18.26563 12.285 15.70157 13.18994 12.95891 13.94556 10.0694 14.54318 7.06615 14.97603 3.9828 15.23932 .85356 15.3299-2.28494 15.24686-5.39702 14.99106-8.44829 14.5655-11.40434 13.97498-14.23029 13.22574-16.89574 12.32684-19.36948 11.28786-21.62328 10.12144-23.63243 8.84004-25.3738 7.45903-26.82808 5.99326-27.97751 4.45967-28.8109 2.87523-29.31842 1.25821-29.49203-.37276-29.33217-1.99976-28.83961-3.60393-28.02069-5.1673-26.88422-6.67215-25.44328-8.10153-23.71405-9.4392-21.71655-10.66972-19.47255-11.77945-17.00798-12.75577 0 102.04784Z" fill="#b9e5fa" fill-opacity=".7"/>
<path transform="matrix(1,0,0,-1.00006,48.048006,132.39316)" d="M0 102.04784-12.36278 13.74278-14.47672 13.15044-16.4975 12.47424-18.41104 11.71672-20.20511 10.88293-21.86887 9.97942-23.38974 9.0103-24.75899 7.98337-25.96857 6.90468-27.00867 5.78076-27.87437 4.61934-28.55893 3.42833-29.05814 2.21455-29.37039 .98688-29.48972-.24733-29.41942-1.48007-29.15811-2.70294-28.70699-3.90834-28.0718-5.08885-27.25188-6.23581-26.25629-7.3423-25.09085-8.40169-23.76202-9.40622-22.27924-10.35005-20.65186-11.22641-18.89049-12.02982-17.00798-12.75577-15.01353-13.39815-12.92267-13.95406-10.74832-14.41978-8.50278-14.79155-6.20306-15.06796-3.86275-15.2462-1.49768-15.32555 .87761-15.30605 3.2464-15.18633 5.59503-14.96906 7.90686-14.65408 10.16728-14.24423 12.36267-13.74246Z" fill="#8dd8f8" fill-opacity=".4"/>
<path transform="matrix(1,0,0,-1.00006,48.048006,132.39316)" stroke-width=".79701" stroke-linecap="round" stroke-linejoin="round" fill="none" stroke="#000000" d="M0 0-33.6882-25.26581"/>
<path transform="matrix(-.79999,.59999606,.59996,.800038,14.359814,157.66048)" d="M4.66248 0C3.28098 .25902 1.0361 1.0361-.51805 1.94269V-1.94269C1.0361-1.0361 3.28098-.25902 4.66248 0"/>
<use data-text="x" xlink:href="#font_1_1" transform="matrix(9.9626,0,0,-9.963197,1.2170105,168.46732)"/>
<path transform="matrix(1,0,0,-1.00006,48.048006,132.39316)" stroke-width=".79701" stroke-linecap="round" stroke-linejoin="round" fill="none" stroke="#000000" d="M0 0 53.4313-18.8582"/>
<path transform="matrix(.94295,.33281998,.3328,-.9430066,101.479297,151.25247)" d="M4.66248 0C3.28098 .25902 1.0361 1.0361-.51805 1.94269V-1.94269C1.0361-1.0361 3.28098-.25902 4.66248 0"/>
<use data-text="y" xlink:href="#font_1_2" transform="matrix(9.9626,0,0,-9.963197,109.595,160.81287)"/>
<path transform="matrix(1,0,0,-1.00006,48.048006,132.39316)" stroke-width=".79701" stroke-linecap="round" stroke-linejoin="round" fill="none" stroke="#000000" d="M0-35.71657V117.795"/>
<path transform="matrix(0,-1.00006,-1,-0,48.048006,14.591095)" d="M4.66248 0C3.28098 .25902 1.0361 1.0361-.51805 1.94269V-1.94269C1.0361-1.0361 3.28098-.25902 4.66248 0"/>
<use data-text="z" xlink:href="#font_1_3" transform="matrix(9.9626,0,0,-9.963197,45.512,6.2085878)"/>
<path transform="matrix(1,0,0,-1.00006,48.048006,132.39316)" stroke-width=".3985" stroke-linecap="round" stroke-dasharray="2.98883,2.98883" stroke-linejoin="round" fill="none" stroke="#999999" d="M0 0 25.51237 19.13396"/>
<path transform="matrix(1,0,0,-1.00006,48.048006,132.39316)" stroke-width=".3985" stroke-linecap="round" stroke-dasharray="2.98883,2.98883" stroke-linejoin="round" fill="none" stroke="#999999" d="M0 0-43.371 15.30743"/>
<path transform="matrix(1,0,0,-1.00006,48.048006,132.39316)" stroke-width=".3985" stroke-linecap="round" stroke-dasharray="2.98883,2.98883" stroke-linejoin="round" fill="none" stroke="#999999" d="M0 0V-30.61426"/>
<path transform="matrix(1,0,0,-1.00006,48.048006,132.39316)" stroke-width=".79701" stroke-linecap="round" stroke-linejoin="round" fill="none" stroke="#009bca" d="M-17.00826-12.75597-14.35071-13.58716-11.53056-14.26479-8.57971-14.78072-5.53195-15.12907-2.42087-15.30627 .71654-15.31046 3.84654-15.14053 6.9328-14.79947 9.94069-14.29048 12.83562-13.61969 15.58548-12.7941 18.15802-11.82376 20.5254-10.71976 22.65985-9.49403 24.53764-8.16116 26.1377-6.73567 27.44183-5.23409 28.43498-3.67255 29.1055-2.06955 29.44681-.44337 29.45349 1.18811 29.12708 2.80577 28.47028 4.39178 27.49127 5.92836 26.2006 7.39746 24.61343 8.78285 22.74702 10.06873 20.6235 11.24042 18.26563 12.285 15.70157 13.18994 12.95891 13.94556 10.0694 14.54318 7.06615 14.97603 3.9828 15.23932 .85356 15.3299-2.28494 15.24686-5.39702 14.99106-8.44829 14.5655-11.40434 13.97498-14.23029 13.22574-16.89574 12.32684-19.36948 11.28786-21.62328 10.12144-23.63243 8.84004-25.3738 7.45903-26.82808 5.99326-27.97751 4.45967-28.8109 2.87523-29.31842 1.25821-29.49203-.37276-29.33217-1.99976-28.83961-3.60393-28.02069-5.1673-26.88422-6.67215-25.44328-8.10153-23.71405-9.4392-21.71655-10.66972-19.47255-11.77945-17.00798-12.75577"/>
<path transform="matrix(1,0,0,-1.00006,48.048006,132.39316)" stroke-width=".3985" stroke-linecap="round" stroke-dasharray="2.98883,2.98883" stroke-linejoin="round" fill="none" stroke="#a6a6a6" d="M17.00826 12.75597-17.00826-12.75597"/>
<path transform="matrix(1,0,0,-1.00006,48.048006,132.39316)" stroke-width=".3985" stroke-linecap="round" stroke-dasharray="2.98883,2.98883" stroke-linejoin="round" fill="none" stroke="#a6a6a6" d="M-24.09496 8.50412 24.09496-8.50412"/>
<path transform="matrix(1,0,0,-1.00006,48.048006,132.39316)" stroke-width=".79701" stroke-linecap="round" stroke-linejoin="round" fill="none" stroke="#009bca" d="M0 102.04784-.58626 101.48708-1.17252 100.68379-1.75879 99.63759-2.34505 98.34927-2.93134 96.81842-3.5176 95.04504-4.10385 93.02914-4.69012 90.77074-5.2764 88.26979-5.86267 85.52634-6.44893 82.54034-7.03519 79.31183-7.62148 75.8412-8.20773 72.12766-8.794 68.17157-9.38026 63.97336-9.96655 59.53224-10.55281 54.84898-11.13907 49.92322-11.72534 44.75491-12.31161 39.34372-12.89789 33.69037-13.48415 27.7945-14.0704 21.65613-14.6567 15.27519-15.24295 8.65216-15.82922 1.78621-16.41548-5.32225-17.00177-12.67325"/>
<path transform="matrix(1,0,0,-1.00006,48.048006,132.39316)" stroke-width=".79701" stroke-linecap="round" stroke-linejoin="round" fill="none" stroke="#009bca" d="M0 102.04784 .58626 102.36646 1.17252 102.44254 1.75879 102.27574 2.34505 101.86679 2.93134 101.21535 3.5176 100.32135 4.10385 99.18484 4.69012 97.80582 5.2764 96.18428 5.86267 94.32019 6.44893 92.21358 7.03519 89.86447 7.62148 87.27321 8.20773 84.43906 8.794 81.36237 9.38026 78.04355 9.96655 74.48181 10.55281 70.67796 11.13907 66.63156 11.72534 62.34264 12.31161 57.81084 12.89789 53.03687 13.48415 48.0204 14.0704 42.7614 14.6567 37.25987 15.24295 31.51622 15.82922 25.52966 16.41548 19.30057 17.00177 12.82895"/>
<path transform="matrix(1,0,0,-1.00006,48.048006,132.39316)" stroke-width=".79701" stroke-linecap="round" stroke-linejoin="round" fill="none" stroke="#009bca" d="M0 102.04784 .83052 101.63364 1.66107 100.9769 2.49161 100.07727 3.32216 98.9355 4.1527 97.55121 4.98325 95.9244 5.8138 94.05505 6.64433 91.94322 7.47488 89.58884 8.30542 86.99193 9.13597 84.15251 9.96652 81.07054 10.79706 77.74648 11.62761 74.17949 12.45815 70.36996 13.2887 66.31831 14.11925 62.02376 14.94977 57.48708 15.78032 52.70786 16.61086 47.68611 17.4414 42.42148 18.27194 36.91469 19.1025 31.16539 19.93304 25.17355 20.76358 18.9392 21.59413 12.46272 22.42467 5.74333 23.25522-1.21857 24.08577-8.42302"/>
<path transform="matrix(1,0,0,-1.00006,48.048006,132.39316)" stroke-width=".79701" stroke-linecap="round" stroke-linejoin="round" fill="none" stroke="#009bca" d="M0 102.04784-.83052 102.2199-1.66107 102.14943-2.49161 101.83606-3.32216 101.28056-4.1527 100.48254-4.98325 99.44199-5.8138 98.15892-6.64433 96.63333-7.47488 94.86523-8.30542 92.8546-9.13597 90.60143-9.96652 88.10574-10.79706 85.36794-11.62761 82.38722-12.45815 79.16397-13.2887 75.69858-14.11925 71.9903-14.94977 68.03987-15.78032 63.84692-16.61086 59.41145-17.4414 54.73308-18.27194 49.81256-19.1025 44.6495-19.93304 39.24396-20.76358 33.59587-21.59413 27.70566-22.42467 21.57254-23.25522 15.19688-24.08577 8.5787"/>
<path transform="matrix(1,0,0,-1.00006,48.048006,132.39316)" stroke-width=".79701" stroke-linecap="round" stroke-linejoin="round" fill="none" stroke="#009bca" d="M0-25.51195-.58626-25.95164-1.17252-26.39093-1.75879-26.8283-2.34505-27.26176-2.93134-27.68822-3.5176-28.10378-4.10385-28.50377-4.69012-28.88234-5.2764-29.23328-5.86267-29.54918-6.44893-29.82147-7.03519-30.04163-7.62148-30.19946-8.20773-30.28453-8.794-30.28435-9.38026-30.18721-9.96655-29.97914-10.55281-29.64612-11.13907-29.17294-11.72534-28.54405-12.31161-27.74155-12.89789-26.74867-13.48415-25.54678-14.0704-24.11597-14.6567-22.43643-15.24295-20.4867-15.82922-18.24425-16.41548-15.68686-17.00177-12.79001"/>
<path transform="matrix(1,0,0,-1.00006,48.048006,132.39316)" stroke-width=".79701" stroke-linecap="round" stroke-linejoin="round" fill="none" stroke="#009bca" d="M0-25.51195 .58626-25.07227 1.17252-24.63219 1.75879-24.19014 2.34505-23.74423 2.93134-23.29129 3.5176-22.82747 4.10385-22.34805 4.69012-21.84726 5.2764-21.31879 5.86267-20.75531 6.44893-20.14824 7.03519-19.48898 7.62148-18.76746 8.20773-17.97313 8.794-17.09355 9.38026-16.11702 9.96655-15.02959 10.55281-13.81715 11.13907-12.4646 11.72534-10.95633 12.31161-9.27443 12.89789-7.40219 13.48415-5.32088 14.0704-3.0107 14.6567-.45175 15.24295 2.37733 15.82922 5.49919 16.41548 8.93596 17.00177 12.71217"/>
<path transform="matrix(1,0,0,-1.00006,48.048006,132.39316)" stroke-width=".79701" stroke-linecap="round" stroke-linejoin="round" fill="none" stroke="#009bca" d="M0-25.51195 .83052-25.80508 1.66107-26.09782 2.49161-26.38861 3.32216-26.67552 4.1527-26.95543 4.98325-27.22441 5.8138-27.47784 6.64433-27.70985 7.47488-27.91423 8.30542-28.08357 9.13597-28.20932 9.96652-28.28291 10.79706-28.29419 11.62761-28.2327 12.45815-28.08595 13.2887-27.84225 14.11925-27.48763 14.94977-27.00803 15.78032-26.3883 16.61086-25.61287 17.4414-24.66379 18.27194-23.52437 19.1025-22.17589 19.93304-20.59854 20.76358-18.77243 21.59413-16.67613 22.42467-14.28712 23.25522-11.58318 24.08577-8.53978"/>
<path transform="matrix(1,0,0,-1.00006,48.048006,132.39316)" stroke-width=".79701" stroke-linecap="round" stroke-linejoin="round" fill="none" stroke="#009bca" d="M0-25.51195-.83052-25.21883-1.66107-24.9253-2.49161-24.62982-3.32216-24.33047-4.1527-24.0241-4.98325-23.70682-5.8138-23.37398-6.64433-23.01974-7.47488-22.63783-8.30542-22.2209-9.13597-21.76039-9.96652-21.24771-10.79706-20.67274-11.62761-20.02496-12.45815-19.29195-13.2887-18.46199-14.11925-17.52109-14.94977-16.45523-15.78032-15.24924-16.61086-13.88751-17.4414-12.35219-18.27194-10.6265-19.1025-8.69177-19.93304-6.52814-20.76358-4.11575-21.59413-1.4332-22.42467 1.54207-23.25522 4.83228-24.08577 8.46194"/>
<use data-text="z" xlink:href="#font_1_3" transform="matrix(9.9626,0,0,-9.963197,51.001008,59.512788)"/>
<use data-text="=" xlink:href="#font_2_6" transform="matrix(9.9626,0,0,-9.963197,58.839006,59.512788)"/>
<use data-text="4" xlink:href="#font_2_5" transform="matrix(9.9626,0,0,-9.963197,69.339588,59.512788)"/>
<use data-text="&#x2212;" xlink:href="#font_3_1" transform="matrix(9.9626,0,0,-9.963197,76.55101,59.512788)"/>
<use data-text="4" xlink:href="#font_2_5" transform="matrix(9.9626,0,0,-9.963197,86.513019,59.512788)"/>
<use data-text="(" xlink:href="#font_2_1" transform="matrix(9.9626,0,0,-9.963197,91.49431,59.512788)"/>
<use data-text="x" xlink:href="#font_1_1" transform="matrix(9.9626,0,0,-9.963197,95.36902,59.512788)"/>
<use data-text="2" xlink:href="#font_4_1" transform="matrix(6.9738,0,0,-6.9742186,101.06302,55.897577)"/>
<use data-text="+" xlink:href="#font_2_3" transform="matrix(9.9626,0,0,-9.963197,107.74602,59.512788)"/>
<use data-text="y" xlink:href="#font_1_2" transform="matrix(9.9626,0,0,-9.963197,117.709018,59.512788)"/>
<use data-text="2" xlink:href="#font_4_1" transform="matrix(6.9738,0,0,-6.9742186,122.95102,55.897577)"/>
<use data-text=")" xlink:href="#font_2_2" transform="matrix(9.9626,0,0,-9.963197,127.42001,59.512788)"/>
<use data-text="z" xlink:href="#font_1_3" transform="matrix(9.9626,0,0,-9.963197,55.111009,173.89865)"/>
<use data-text="=" xlink:href="#font_2_6" transform="matrix(9.9626,0,0,-9.963197,62.949007,173.89865)"/>
<use data-text="(" xlink:href="#font_2_1" transform="matrix(9.9626,0,0,-9.963197,73.449588,173.89865)"/>
<use data-text="x" xlink:href="#font_1_1" transform="matrix(9.9626,0,0,-9.963197,77.34001,173.89865)"/>
<use data-text="2" xlink:href="#font_4_1" transform="matrix(6.9738,0,0,-6.9742186,83.03401,170.28343)"/>
<use data-text="+" xlink:href="#font_2_3" transform="matrix(9.9626,0,0,-9.963197,89.71701,173.89865)"/>
<use data-text="y" xlink:href="#font_1_2" transform="matrix(9.9626,0,0,-9.963197,99.68001,173.89865)"/>
<use data-text="2" xlink:href="#font_4_1" transform="matrix(6.9738,0,0,-6.9742186,104.92201,170.28343)"/>
<use data-text=")" xlink:href="#font_2_2" transform="matrix(9.9626,0,0,-9.963197,109.39101,173.89865)"/>
<use data-text="2" xlink:href="#font_4_1" transform="matrix(6.9738,0,0,-6.9742186,113.265,170.28343)"/>
<use data-text="&#x2212;" xlink:href="#font_3_1" transform="matrix(9.9626,0,0,-9.963197,119.948,173.89865)"/>
<use data-text="1" xlink:href="#font_2_4" transform="matrix(9.9626,0,0,-9.963197,129.911,173.89865)"/>
</svg>
