<svg xmlns="http://www.w3.org/2000/svg" xmlns:xlink="http://www.w3.org/1999/xlink" xmlns:inkscape="http://www.inkscape.org/namespaces/inkscape" version="1.1" width="184" height="170" viewBox="0 0 184 170">
<defs>
<path id="font_1_106" d="M.46998597 .17008972C.46998597 .25709535 .40098573 .33110047 .30499269 .35209657 .397995 .38710023 .44198609 .46009828 .44198609 .5290985 .44198609 .60606387 .35699464 .6660156 .25299073 .6660156 .14898682 .6660156 .070999149 .60705569 .070999149 .5310974 .070999149 .49809266 .09298706 .47909547 .12199402 .47909547 .15098572 .47909547 .17199707 .50009158 .17199707 .5290985 .17199707 .5640869 .147995 .57910159 .11399841 .57910159 .13999939 .6210327 .20098877 .64100649 .25 .64100649 .33299256 .64100649 .34899903 .5750885 .34899903 .52809146 .34899903 .49809266 .34298707 .45005799 .31799317 .41201783 .2869873 .36695863 .2519989 .36495973 .22299195 .36296083 .19799805 .36094667 .19599915 .36094667 .18798828 .36094667 .1789856 .35995484 .17098999 .35894776 .17098999 .34794618 .17098999 .33496095 .1789856 .33496095 .19599915 .33496095H.24299622C.32998658 .33496095 .36799623 .2646637 .36799623 .16937256 .36799623 .04145813 .2999878 .0055389406 .24899292 .0055389406 .22999573 .0055389406 .1329956 .010528564 .08799744 .0843811 .12399292 .07939148 .1519928 .10437012 .1519928 .13838196 .1519928 .17137146 .1269989 .19238281 .09799194 .19238281 .07299805 .19238281 .042999269 .17736817 .042999269 .13537598 .042999269 .046447755 .13598633-.022460938 .2519989-.022460938 .3769989-.022460938 .46998597 .06741333 .46998597 .16937256V.17008972Z"/>
<path id="font_1_82" d="M.43199159 0V.0309906H.3999939C.30699159 .0309906 .3039856 .042999269 .3039856 .08001709V.63912966C.3039856 .6640167 .30299378 .6660156 .27799989 .6660156 .21598816 .60227969 .12399292 .60227969 .09298706 .60227969V.57128909C.11199951 .57128909 .17298889 .57128909 .22698975 .5972748V.08001709C.22698975 .042999269 .22399903 .0309906 .1309967 .0309906H.09899902V0C.1349945 .0029907227 .22399903 .0029907227 .2649994 .0029907227 .30599977 .0029907227 .3959961 .0029907227 .43199159 0Z"/>
<path id="font_1_87" d="M.71199038 .7282562C.71199038 .7422638 .69999697 .7502594 .69099429 .7502594 .6799927 .7502594 .6749878 .7442627 .6689911 .73526 .6049957 .6512604 .5209961 .6402588 .47499085 .6402588 .37799073 .6402588 .31399537 .68826296 .2789917 .72125247 .2519989 .7452545 .22599793 .7502594 .20799256 .7502594 .1309967 .7502594 .056991579 .6672516 .056991579 .5492554 .056991579 .42726136 .1329956 .34725953 .20799256 .34725953 .28199769 .34725953 .34199525 .43525697 .34199525 .54826357 .34199525 .56326296 .34199525 .6082611 .32199098 .6572571 .38398744 .6222534 .43998719 .6152649 .47499085 .6152649 .5189972 .6152649 .5649872 .6252594 .6069946 .6482544L.60798647 .6472626 .1519928-.013748169C.15098572-.01574707 .14299011-.026748658 .14299011-.033737184 .14299011-.04673767 .15299988-.055740358 .16499329-.055740358 .17599488-.055740358 .18099976-.04774475 .18699646-.039749147L.70399478 .7102661C.70899966 .71725466 .71199038 .72125247 .71199038 .7282562M.7979889 .14526367C.7979889 .2622528 .7369995 .34725953 .6639862 .34725953 .58699038 .34725953 .5130005 .2642517 .5130005 .1462555 .5130005 .024261475 .58898928-.055740358 .6639862-.055740358 .73799136-.055740358 .7979889 .03225708 .7979889 .14526367M.31399537 .5492554C.31399537 .44325257 .26098634 .37225343 .20999146 .37225343 .18899536 .37225343 .12298584 .3852539 .12298584 .54826357 .12298584 .71325686 .18899536 .7252655 .20999146 .7252655 .2630005 .7252655 .31399537 .6512604 .31399537 .5492554M.769989 .1462555C.769989 .040252687 .71699526-.03074646 .66600039-.03074646 .644989-.03074646 .57899478-.017745972 .57899478 .14526367 .57899478 .31025697 .644989 .32226563 .66600039 .32226563 .71899417 .32226563 .769989 .2482605 .769989 .1462555Z"/>
<path id="font_1_95" d="M.7519989 .088897708C.7519989 .09489441 .7519989 .10687256 .73799136 .10687256 .72499087 .10687256 .72499087 .09788513 .723999 .08988953 .71899417 .026992798 .6879883 .0029907227 .6569977 .0029907227 .625 .0029907227 .6139984 .022994996 .60598757 .039978029 .5970001 .061935426 .58799746 .12983704 .58200076 .17475891 .57398989 .23666382 .5649872 .3035431 .45399476 .33850099 .548996 .36550904 .6269989 .42453004 .6269989 .5025635 .6269989 .601593 .5059967 .6826172 .35899354 .6826172H.039993287V.6516113H.06298828C.13999939 .6516113 .14199829 .64060977 .14199829 .6035919V.07891846C.14199829 .04197693 .13999939 .0309906 .06298828 .0309906H.039993287V0C.08699036 .0029907227 .13699341 .0029907227 .18499756 .0029907227 .23298645 .0029907227 .2829895 .0029907227 .33099366 0V.0309906H.30799867C.23098755 .0309906 .22898865 .04197693 .22898865 .07891846V.32850648H.34899903C.42099 .32850648 .45298768 .29057313 .45700074 .28657533 .4869995 .24963379 .4869995 .23466492 .4869995 .16377259 .4869995 .09687805 .4869995 .052963258 .5349884 .01499939 .58200076-.022003174 .6419983-.022003174 .6529999-.022003174 .7369995-.022003174 .7519989 .064941409 .7519989 .088897708M.5249939 .5025635C.5249939 .41653443 .48098756 .35351563 .34498597 .35351563H.22898865V.6105957C.22898865 .63661196 .23098755 .6456146 .25 .6496124 .25898744 .6516113 .29100038 .6516113 .31199647 .6516113 .397995 .6516113 .5249939 .6516113 .5249939 .5025635Z"/>
<path id="font_1_50" d="M.4269867 .11936951C.4269867 .12637329 .42199708 .13237 .41299439 .13237 .40299989 .13237 .3999939 .12536621 .39898683 .12136841 .36499024 .019256592 .27598573 .01725769 .26098634 .01725769 .21299744 .01725769 .17199707 .044281007 .14898682 .078323367 .115997318 .12736511 .114990238 .18743897 .114990238 .22949219H.3999939C.42199708 .22949219 .4269867 .22949219 .4269867 .25048829 .4269867 .35333253 .37098695 .4482422 .24299622 .4482422 .12298584 .4482422 .0289917 .3443451 .0289917 .22047425 .0289917 .08932495 .13398743-.0107421879 .2559967-.0107421879 .37799073-.0107421879 .4269867 .096343997 .4269867 .11936951M.35899354 .253479H.115997318C.125 .40725709 .21499634 .42323304 .24299622 .42323304 .2979889 .42323304 .35798646 .38130189 .35899354 .253479Z"/>
<path id="font_1_77" d="M.5469971 0V.0309906C.49598695 .03125 .47099305 .03125 .46998597 .0622406V.25431825C.46998597 .3373413 .46998597 .36636354 .44198609 .4013672 .4189911 .42938233 .3809967 .4423828 .33099366 .4423828 .23799134 .4423828 .19499207 .37335206 .18099976 .34535218H.17999268V.4423828L.034988405 .43066407V.3996582C.102996829 .3996582 .11199951 .39266969 .11199951 .34370423V.07695007C.11199951 .0309906 .100997928 .0309906 .034988405 .0309906V0C.08198547 .0019989014 .100997928 .0029907227 .14898682 .0029907227 .19699097 .0029907227 .20999146 .0019989014 .2630005 0V.0309906C.19699097 .0309906 .18598938 .0309906 .18598938 .07695007V.25878907C.18598938 .36532594 .26098634 .41737367 .32398988 .41737367 .3829956 .41737367 .3959961 .3683319 .3959961 .30825807V.077041629C.3959961 .0309906 .3849945 .0309906 .31900025 .0309906V0C.3659973 .0019989014 .3849945 .0029907227 .43299867 .0029907227 .48098756 .0029907227 .49398805 .0019989014 .5469971 0Z"/>
<path id="font_1_105" d="M.34199525 .12408447V.18099976H.31399537V.1270752C.31399537 .05319214 .2829895 .01725769 .24699402 .01725769 .17999268 .01725769 .17999268 .1051178 .17999268 .12309265V.3996582H.32499696V.43066407H.17999268V.6142578H.1519928C.15098572 .5304413 .115997318 .42765809 .018997193 .4246521V.3996582H.10598755V.12408447C.10598755 .012252808 .18699646-.0107421879 .23999024-.0107421879 .30699159-.011001587 .34199525 .052993776 .34199525 .12399292V.12408447Z"/>
<path id="font_1_107" d="M.46199037 .17704773H.43399049C.43199159 .16404724 .42399598 .10501099 .41099549 .08900452 .40499879 .07998657 .33599855 .07998657 .31599427 .07998657H.13798523L.23699951 .17404175C.40098573 .3161316 .46199037 .36915589 .46199037 .4711914 .46199037 .5860901 .36698915 .6660156 .24398804 .6660156 .1289978 .6660156 .050994874 .575119 .050994874 .4841919 .050994874 .43418885 .09399414 .42919923 .102996829 .42919923 .125 .42919923 .15499878 .44519044 .15499878 .48120118 .15499878 .51119998 .13398743 .5332031 .102996829 .5332031 .09799194 .5332031 .09498596 .5332031 .09098816 .53219607 .114990238 .6030731 .1789856 .63500979 .23298645 .63500979 .33499146 .63500979 .36999513 .5401764 .36999513 .4711914 .36999513 .36915589 .29299928 .28611756 .24499512 .23408509L.06199646 .035995485C.050994874 .024993897 .050994874 .022994996 .050994874 0H.43399049L.46199037 .17704773Z"/>
<path id="font_1_78" d="M.46998597 .3287964C.46998597 .5999756 .34999085 .6660156 .2599945 .6660156 .14498902 .6660156 .042999269 .5729675 .042999269 .44187928 .042999269 .31478883 .1349945 .21875 .24798584 .21875 .32099916 .21875 .36099244 .27175904 .3789978 .31478883V.2927704C.3789978 .04875183 .2679901 .0055389406 .21099854 .0055389406 .18798828 .0055389406 .13699341 .009552002 .11099243 .042755128H.114990238C.12298584 .040740968 .1619873 .04875183 .1619873 .088760379 .1619873 .11476135 .14399719 .13476563 .115997318 .13476563 .08799744 .13476563 .068984989 .116760257 .068984989 .086761478 .068984989 .020629883 .12199402-.022460938 .21199036-.022460938 .34098817-.022460938 .46998597 .10975647 .46998597 .32888795V.3287964M.3769989 .42089845C.3769989 .34788514 .34399415 .2437439 .25 .2437439 .23399353 .2437439 .18499756 .2437439 .15299988 .30584718 .13398743 .34388734 .13398743 .3928833 .13398743 .4409027 .13398743 .48892213 .13398743 .5389557 .15499878 .5769806 .18499756 .628006 .22399903 .64100649 .2599945 .64100649 .32798768 .64100649 .35499574 .5719757 .35899354 .56196597 .37298585 .5249481 .3769989 .46391297 .3769989 .42089845Z"/>
<path id="font_1_80" d="M.7409973 .3387909C.7409973 .54296877 .58599856 .7050781 .39898683 .7050781 .21199036 .7050781 .056991579 .54196169 .056991579 .3387909 .056991579 .13563538 .21299744-.022460938 .39898683-.022460938 .58499148-.022460938 .7409973 .13563538 .7409973 .3387909M.6389923 .35380555C.6389923 .09559631 .5 .007537842 .39898683 .007537842 .2979889 .007537842 .15899658 .09559631 .15899658 .35380555 .15899658 .5980072 .3019867 .677063 .39898683 .677063 .49598695 .677063 .6389923 .5980072 .6389923 .35380555Z"/>
<path id="font_1_63" d="M.5469971 0V.0309906C.49598695 .03125 .47099305 .03125 .46998597 .0622406V.25431825C.46998597 .3373413 .46998597 .36636354 .44198609 .4013672 .4189911 .42938233 .3809967 .4423828 .33099366 .4423828 .2639923 .4423828 .21499634 .40737916 .18399048 .35134889H.18299866V.69433596L.034988405 .6826172V.6516113C.102996829 .6516113 .11199951 .64463809 .11199951 .59580996V.077041629C.11199951 .0309906 .100997928 .0309906 .034988405 .0309906V0C.08198547 .0019989014 .100997928 .0029907227 .14898682 .0029907227 .19699097 .0029907227 .20999146 .0019989014 .2630005 0V.0309906C.19699097 .0309906 .18598938 .0309906 .18598938 .077041629V.2592163C.18598938 .36532594 .26098634 .41737367 .32398988 .41737367 .3829956 .41737367 .3959961 .3683319 .3959961 .30825807V.077041629C.3959961 .0309906 .3849945 .0309906 .31900025 .0309906V0C.3659973 .0019989014 .3849945 .0029907227 .43299867 .0029907227 .48098756 .0029907227 .49398805 .0019989014 .5469971 0Z"/>
<path id="font_1_96" d="M.37298585 .3798828C.37298585 .41236878 .34298707 .4423828 .2979889 .4423828 .23799134 .4423828 .19599915 .40037538 .17298889 .33787538H.17199707V.4423828L.02999878 .43066407V.3996582C.09799194 .3996582 .10699463 .3927307 .10699463 .34387208V.07698059C.10699463 .0309906 .09599304 .0309906 .02999878 .0309906V0C.08299255 .0019989014 .09599304 .0029907227 .14698792 .0029907227L.27398683 0V.0309906H.2539978C.18099976 .0309906 .17799378 .041992189 .17799378 .07897949V.22891236C.17799378 .26989747 .18899536 .4166565 .30299378 .4166565V.4156494C.30099488 .4146576 .2849884 .40264894 .2849884 .37887574 .2849884 .35186769 .30599977 .33486939 .32899476 .33486939 .34999085 .33486939 .37298585 .34986878 .37298585 .3798828Z"/>
<path id="font_1_57" d="M.48399354 .16503906V.19602967H.38198854V.649765C.38198854 .669754 .38198854 .6767578 .36299134 .6767578 .35099793 .6767578 .34999085 .67575076 .34098817 .6617584L.0289917 .19602967V.16503906H.3019867V.07901001C.3019867 .041992189 .29899598 .0309906 .22399903 .0309906H.20199585V0C.2649994 .0029907227 .33499146 .0029907227 .34199525 .0029907227 .34700013 .0029907227 .4189911 .0029907227 .48199464 0V.0309906H.45999146C.3849945 .0309906 .38198854 .041992189 .38198854 .07901001V.16503906H.48399354M.30799867 .19602967H.06098938L.30799867 .56581118V.19602967Z"/>
<path id="font_1_54" d="M.6269989 .4550171 .598999 .6796875H.037994386V.64868167H.06098938C.13798523 .64868167 .13999939 .6376953 .13999939 .60076907V.07902527C.13999939 .041992189 .13798523 .0309906 .06098938 .0309906H.037994386V0C.08299255 .0029907227 .14498902 .0029907227 .19099427 .0029907227 .23098755 .0029907227 .32199098 .0029907227 .35699464 0V.0309906H.32499696C.23399353 .0309906 .22999573 .042999269 .22999573 .08001709V.3251953H.31999208C.4169922 .3251953 .42799378 .29318238 .42799378 .20819092H.45599366V.47299195H.42799378C.42799378 .38813783 .4169922 .3561859 .31999208 .3561859H.22999573V.60775759C.22999573 .6416931 .23199463 .64868167 .2789917 .64868167H.40499879C.55799868 .64868167 .58299258 .59277346 .598999 .4550171H.6269989Z"/>
<path id="font_1_81" d="M.48399354 .21324158C.48399354 .34423829 .37998963 .4482422 .25698854 .4482422 .12998963 .4482422 .0289917 .3412323 .0289917 .21324158 .0289917 .08824158 .1329956-.0107421879 .2559967-.0107421879 .3829956-.0107421879 .48399354 .09024048 .48399354 .21324158M.397995 .22224427C.397995 .1852417 .397995 .12724304 .37298585 .08325195 .34498597 .037246705 .29899598 .01725769 .25698854 .01725769 .20698548 .01725769 .16499329 .042251588 .14199829 .08125305 .115997318 .12324524 .114990238 .17623902 .114990238 .22224427 .114990238 .25924684 .114990238 .3162384 .13999939 .35723878 .16999817 .40823365 .21998596 .42323304 .2559967 .42323304 .31298829 .42323304 .35398866 .39123536 .37399293 .35723878 .39698792 .31523133 .397995 .26423646 .397995 .22224427Z"/>
<path id="font_1_47" d="M.5399933 0V.0309906C.47200013 .0309906 .46299745 .037994386 .46299745 .087020877V.69433596L.31498719 .6826172V.6516113C.3829956 .6516113 .3919983 .64463809 .3919983 .59580996V.38339234C.3869934 .38938905 .34199525 .4423828 .2639923 .4423828 .14099121 .4423828 .033996583 .3443756 .033996583 .21525574 .033996583 .09013367 .13398743-.0107421879 .25299073-.0107421879 .32598878-.0107421879 .37098695 .03224182 .3889923 .053115846V-.0107421879L.5399933 0M.3889923 .12011719C.3889923 .10211182 .3889923 .099121097 .37399293 .078125 .34298707 .033218385 .29699708 .014251709 .25698854 .014251709 .21398926 .014251709 .17399597 .038208009 .147995 .0801239 .12199402 .12312317 .11999512 .18218994 .11999512 .21421814 .11999512 .26127626 .12599182 .3143463 .1519928 .35438539 .17399597 .38638307 .21499634 .41737367 .2679901 .41737367 .30999757 .41737367 .34999085 .39637757 .3769989 .35839845 .3889923 .3423767 .3889923 .34136964 .3889923 .32235719V.12011719Z"/>
<path id="font_1_101" d="M.46998597 .20277405C.46998597 .32977296 .37799073 .42578126 .2649994 .42578126 .20498657 .42578126 .1619873 .3907776 .13398743 .33078004 .13398743 .43276979 .14498902 .4897766 .17199707 .54177859 .19198609 .58277896 .24099732 .64100649 .31498719 .64100649 .33499146 .64100649 .3809967 .63697817 .4039917 .6007843 .36698915 .6007843 .35099793 .5817871 .35099793 .55477908 .35099793 .5287781 .36898805 .50878909 .39698792 .50878909 .4249878 .50878909 .44400025 .5267792 .44400025 .55677798 .44400025 .61299136 .4039917 .6660156 .31298829 .6660156 .18399048 .6660156 .042999269 .5389252 .042999269 .31576539 .042999269 .044555665 .16499329-.022460938 .25898744-.022460938 .36999513-.022460938 .46998597 .07052612 .46998597 .2025299V.20277405M.3789978 .20353699C.3789978 .15553284 .3789978 .106536868 .3600006 .0695343 .32899476 .012527466 .2849884 .0055389406 .2579956 .0055389406 .20098877 .0055389406 .16799927 .05253601 .1559906 .08152771 .13699341 .12652588 .13598633 .20953369 .13598633 .2255249 .13598633 .2927704 .16699219 .4007721 .2630005 .4007721 .2789917 .4007721 .32798768 .4007721 .3600006 .33877564 .3789978 .300766 .3789978 .25177003 .3789978 .20376587V.20353699Z"/>
<path id="font_1_109" d="M.5469971 .00024414063V.03125C.47898866 .03125 .46998597 .038253786 .46998597 .087265018V.4423828L.31900025 .43138124V.40037538C.3869934 .40037538 .3959961 .39337159 .3959961 .34436036V.16729737C.3959961 .07826233 .34599305 .014251709 .27398683 .014251709 .19099427 .014251709 .18598938 .057266237 .18598938 .11128235V.4423828L.034988405 .43138124V.40037538C.11199951 .40037538 .11199951 .39736939 .11199951 .3083496V.15829468C.11199951 .09327698 .11199951 .051254274 .1579895 .01625061 .18699646-.003753662 .22799683-.0107421879 .2679901-.0107421879 .31999208-.0107421879 .36898805 .012252808 .397995 .072265628H.39898683V-.0107421879L.5469971 .00024414063Z"/>
</defs>
<path transform="matrix(1.00002,0,0,-1,97.930667,78.225)" d="M0 0H73.70186C73.70186 26.32802 59.65108 50.6644 36.85092 63.82785 17.36385 75.07835-6.21005 76.80461-27.12987 68.52194Z" fill="#ccccff"/>
<path transform="matrix(1.00002,0,0,-1,97.930667,78.225)" stroke-width=".3985" stroke-linecap="butt" stroke-miterlimit="10" stroke-linejoin="miter" fill="none" stroke="#000000" d="M0 0H73.70186C73.70186 26.32802 59.65108 50.6644 36.85092 63.82785 17.36385 75.07835-6.21005 76.80461-27.12987 68.52194Z"/>
<use data-text="3" xlink:href="#font_1_106" transform="matrix(8.966579,0,0,-8.9664,118.48108,38.668)"/>
<use data-text="1" xlink:href="#font_1_82" transform="matrix(8.966579,0,0,-8.9664,123.089908,38.668)"/>
<use data-text="%" xlink:href="#font_1_87" transform="matrix(8.966579,0,0,-8.9664,127.69873,38.668)"/>
<use data-text="R" xlink:href="#font_1_95" transform="matrix(8.966579,0,0,-8.9664,137.97847,8.042999)"/>
<use data-text="e" xlink:href="#font_1_50" transform="matrix(8.966579,0,0,-8.9664,144.7572,8.042999)"/>
<use data-text="n" xlink:href="#font_1_77" transform="matrix(8.966579,0,0,-8.9664,148.85492,8.042999)"/>
<use data-text="t" xlink:href="#font_1_105" transform="matrix(8.966579,0,0,-8.9664,153.71482,8.042999)"/>
<path transform="matrix(1.00002,0,0,-1,97.930667,78.225)" d="M0 0-27.12985 68.52194C-51.60678 58.83125-69.06287 36.80818-72.90787 10.76466-75.72275-8.3018-70.95557-27.72816-59.62633-43.32076Z" fill="#e5e6e5"/>
<path transform="matrix(1.00002,0,0,-1,97.930667,78.225)" stroke-width=".3985" stroke-linecap="butt" stroke-miterlimit="10" stroke-linejoin="miter" fill="none" stroke="#000000" d="M0 0-27.12985 68.52194C-51.60678 58.83125-69.06287 36.80818-72.90787 10.76466-75.72275-8.3018-70.95557-27.72816-59.62633-43.32076Z"/>
<use data-text="2" xlink:href="#font_1_107" transform="matrix(8.966579,0,0,-8.9664,39.942506,66.944)"/>
<use data-text="9" xlink:href="#font_1_78" transform="matrix(8.966579,0,0,-8.9664,44.55133,66.944)"/>
<use data-text="%" xlink:href="#font_1_87" transform="matrix(8.966579,0,0,-8.9664,49.160158,66.944)"/>
<use data-text="O" xlink:href="#font_1_80" transform="matrix(8.966579,0,0,-8.9664,1.2157288,56.614)"/>
<use data-text="t" xlink:href="#font_1_105" transform="matrix(8.966579,0,0,-8.9664,8.38002,56.614)"/>
<use data-text="h" xlink:href="#font_1_63" transform="matrix(8.966579,0,0,-8.9664,11.96666,56.614)"/>
<use data-text="e" xlink:href="#font_1_50" transform="matrix(8.966579,0,0,-8.9664,17.086579,56.614)"/>
<use data-text="r" xlink:href="#font_1_96" transform="matrix(8.966579,0,0,-8.9664,21.184296,56.614)"/>
<path transform="matrix(1.00002,0,0,-1,97.930667,78.225)" d="M0 0-59.62633-43.32076C-36.76094-74.79158 6.64641-83.06752 39.48924-62.2253Z" fill="#ccffcc"/>
<path transform="matrix(1.00002,0,0,-1,97.930667,78.225)" stroke-width=".3985" stroke-linecap="butt" stroke-miterlimit="10" stroke-linejoin="miter" fill="none" stroke="#000000" d="M0 0-59.62633-43.32076C-36.76094-74.79158 6.64641-83.06752 39.48924-62.2253Z"/>
<use data-text="2" xlink:href="#font_1_107" transform="matrix(8.966579,0,0,-8.9664,79.8183,132.01099)"/>
<use data-text="4" xlink:href="#font_1_57" transform="matrix(8.966579,0,0,-8.9664,84.427127,132.01099)"/>
<use data-text="%" xlink:href="#font_1_87" transform="matrix(8.966579,0,0,-8.9664,89.03595,132.01099)"/>
<use data-text="F" xlink:href="#font_1_54" transform="matrix(8.966579,0,0,-8.9664,71.30813,168.159)"/>
<use data-text="o" xlink:href="#font_1_81" transform="matrix(8.966579,0,0,-8.9664,76.55358,168.159)"/>
<use data-text="o" xlink:href="#font_1_81" transform="matrix(8.966579,0,0,-8.9664,81.41346,168.159)"/>
<use data-text="d" xlink:href="#font_1_47" transform="matrix(8.966579,0,0,-8.9664,86.282329,168.159)"/>
<path transform="matrix(1.00002,0,0,-1,97.930667,78.225)" d="M0 0 39.48923-62.2253C60.7858-48.71097 73.70186-25.2248 73.70186 0Z" fill="#ffe6cc"/>
<path transform="matrix(1.00002,0,0,-1,97.930667,78.225)" stroke-width=".3985" stroke-linecap="butt" stroke-miterlimit="10" stroke-linejoin="miter" fill="none" stroke="#000000" d="M0 0 39.48923-62.2253C60.7858-48.71097 73.70186-25.2248 73.70186 0Z"/>
<use data-text="1" xlink:href="#font_1_82" transform="matrix(8.966579,0,0,-8.9664,134.6924,106.19)"/>
<use data-text="6" xlink:href="#font_1_101" transform="matrix(8.966579,0,0,-8.9664,139.30123,106.19)"/>
<use data-text="%" xlink:href="#font_1_87" transform="matrix(8.966579,0,0,-8.9664,143.91005,106.19)"/>
<use data-text="F" xlink:href="#font_1_54" transform="matrix(8.966579,0,0,-8.9664,167.68805,123.83)"/>
<use data-text="u" xlink:href="#font_1_109" transform="matrix(8.966579,0,0,-8.9664,172.9335,123.83)"/>
<use data-text="n" xlink:href="#font_1_77" transform="matrix(8.966579,0,0,-8.9664,178.05344,123.83)"/>
</svg>
