<svg xmlns="http://www.w3.org/2000/svg" xmlns:xlink="http://www.w3.org/1999/xlink" xmlns:inkscape="http://www.inkscape.org/namespaces/inkscape" version="1.1" width="185" height="178" viewBox="0 0 185 178">
<defs>
<path id="font_1_106" d="M.46998597 .17008972C.46998597 .25709535 .40098573 .33110047 .30499269 .35209657 .397995 .38710023 .44198609 .46009828 .44198609 .5290985 .44198609 .60606387 .35699464 .6660156 .25299073 .6660156 .14898682 .6660156 .070999149 .60705569 .070999149 .5310974 .070999149 .49809266 .09298706 .47909547 .12199402 .47909547 .15098572 .47909547 .17199707 .50009158 .17199707 .5290985 .17199707 .5640869 .147995 .57910159 .11399841 .57910159 .13999939 .6210327 .20098877 .64100649 .25 .64100649 .33299256 .64100649 .34899903 .5750885 .34899903 .52809146 .34899903 .49809266 .34298707 .45005799 .31799317 .41201783 .2869873 .36695863 .2519989 .36495973 .22299195 .36296083 .19799805 .36094667 .19599915 .36094667 .18798828 .36094667 .1789856 .35995484 .17098999 .35894776 .17098999 .34794618 .17098999 .33496095 .1789856 .33496095 .19599915 .33496095H.24299622C.32998658 .33496095 .36799623 .2646637 .36799623 .16937256 .36799623 .04145813 .2999878 .0055389406 .24899292 .0055389406 .22999573 .0055389406 .1329956 .010528564 .08799744 .0843811 .12399292 .07939148 .1519928 .10437012 .1519928 .13838196 .1519928 .17137146 .1269989 .19238281 .09799194 .19238281 .07299805 .19238281 .042999269 .17736817 .042999269 .13537598 .042999269 .046447755 .13598633-.022460938 .2519989-.022460938 .3769989-.022460938 .46998597 .06741333 .46998597 .16937256V.17008972Z"/>
<path id="font_1_121" d="M.47299195 .31976319C.47299195 .38682557 .46998597 .47288514 .43499757 .5479431 .3909912 .64201357 .31498719 .6660156 .25698854 .6660156 .19699097 .6660156 .12098694 .64201357 .07699585 .5459442 .04499817 .47688294 .039993287 .39582826 .039993287 .31976319 .039993287 .25471498 .041992189 .15765381 .084991458 .07858276 .13198853-.0064697267 .20999146-.022460938 .2559967-.022460938 .32099916-.022460938 .394989 .0055389406 .43699647 .097595218 .46699525 .1646576 .47299195 .23971558 .47299195 .31976319M.3869934 .33177186C.3869934 .2697296 .3869934 .18566895 .3769989 .12661743 .35598756 .012542725 .28199769 .002532959 .25698854 .002532959 .22698975 .002532959 .15499878 .016540528 .13598633 .12962342 .12599182 .18867493 .12599182 .2747345 .12599182 .33177186 .12599182 .39982606 .12599182 .47888185 .13798523 .53393557 .1579895 .6230011 .22200012 .64100649 .2559967 .64100649 .2939911 .64100649 .35699464 .62098696 .37599183 .5279236 .3869934 .47288514 .3869934 .39482118 .3869934 .33177186Z"/>
<path id="font_1_82" d="M.43199159 0V.0309906H.3999939C.30699159 .0309906 .3039856 .042999269 .3039856 .08001709V.63912966C.3039856 .6640167 .30299378 .6660156 .27799989 .6660156 .21598816 .60227969 .12399292 .60227969 .09298706 .60227969V.57128909C.11199951 .57128909 .17298889 .57128909 .22698975 .5972748V.08001709C.22698975 .042999269 .22399903 .0309906 .1309967 .0309906H.09899902V0C.1349945 .0029907227 .22399903 .0029907227 .2649994 .0029907227 .30599977 .0029907227 .3959961 .0029907227 .43199159 0Z"/>
<path id="font_1_101" d="M.46998597 .20277405C.46998597 .32977296 .37799073 .42578126 .2649994 .42578126 .20498657 .42578126 .1619873 .3907776 .13398743 .33078004 .13398743 .43276979 .14498902 .4897766 .17199707 .54177859 .19198609 .58277896 .24099732 .64100649 .31498719 .64100649 .33499146 .64100649 .3809967 .63697817 .4039917 .6007843 .36698915 .6007843 .35099793 .5817871 .35099793 .55477908 .35099793 .5287781 .36898805 .50878909 .39698792 .50878909 .4249878 .50878909 .44400025 .5267792 .44400025 .55677798 .44400025 .61299136 .4039917 .6660156 .31298829 .6660156 .18399048 .6660156 .042999269 .5389252 .042999269 .31576539 .042999269 .044555665 .16499329-.022460938 .25898744-.022460938 .36999513-.022460938 .46998597 .07052612 .46998597 .2025299V.20277405M.3789978 .20353699C.3789978 .15553284 .3789978 .106536868 .3600006 .0695343 .32899476 .012527466 .2849884 .0055389406 .2579956 .0055389406 .20098877 .0055389406 .16799927 .05253601 .1559906 .08152771 .13699341 .12652588 .13598633 .20953369 .13598633 .2255249 .13598633 .2927704 .16699219 .4007721 .2630005 .4007721 .2789917 .4007721 .32798768 .4007721 .3600006 .33877564 .3789978 .300766 .3789978 .25177003 .3789978 .20376587V.20353699Z"/>
<path id="font_1_88" d="M.19599915 .053985597C.19599915 .08299255 .17199707 .10798645 .14199829 .10798645 .11199951 .10798645 .08799744 .08299255 .08799744 .053985597 .08799744 .023986817 .11199951 0 .14199829 0 .17199707 0 .19599915 .023986817 .19599915 .053985597Z"/>
<path id="font_1_100" d="M.49899293 .6435547H.25C.12399292 .6435547 .12098694 .6566467 .117996219 .67578127H.08999634L.056991579 .46655274H.084991458C.08898926 .48954774 .09700012 .5455475 .10998535 .55755618 .116989139 .56355288 .19599915 .56355288 .20999146 .56355288H.41999818L.32398988 .4325409C.19400025 .25354005 .18199158 .090530399 .18199158 .03353882 .18199158 .022537232 .18199158-.022460938 .22799683-.022460938 .2749939-.022460938 .2749939 .021530152 .2749939 .03453064V.08354187C.2749939 .23054505 .29699708 .34654237 .34999085 .41854859L.48999024 .60954287C.49899293 .62054446 .49899293 .62254336 .49899293 .6435547Z"/>
<path id="font_1_87" d="M.71199038 .7282562C.71199038 .7422638 .69999697 .7502594 .69099429 .7502594 .6799927 .7502594 .6749878 .7442627 .6689911 .73526 .6049957 .6512604 .5209961 .6402588 .47499085 .6402588 .37799073 .6402588 .31399537 .68826296 .2789917 .72125247 .2519989 .7452545 .22599793 .7502594 .20799256 .7502594 .1309967 .7502594 .056991579 .6672516 .056991579 .5492554 .056991579 .42726136 .1329956 .34725953 .20799256 .34725953 .28199769 .34725953 .34199525 .43525697 .34199525 .54826357 .34199525 .56326296 .34199525 .6082611 .32199098 .6572571 .38398744 .6222534 .43998719 .6152649 .47499085 .6152649 .5189972 .6152649 .5649872 .6252594 .6069946 .6482544L.60798647 .6472626 .1519928-.013748169C.15098572-.01574707 .14299011-.026748658 .14299011-.033737184 .14299011-.04673767 .15299988-.055740358 .16499329-.055740358 .17599488-.055740358 .18099976-.04774475 .18699646-.039749147L.70399478 .7102661C.70899966 .71725466 .71199038 .72125247 .71199038 .7282562M.7979889 .14526367C.7979889 .2622528 .7369995 .34725953 .6639862 .34725953 .58699038 .34725953 .5130005 .2642517 .5130005 .1462555 .5130005 .024261475 .58898928-.055740358 .6639862-.055740358 .73799136-.055740358 .7979889 .03225708 .7979889 .14526367M.31399537 .5492554C.31399537 .44325257 .26098634 .37225343 .20999146 .37225343 .18899536 .37225343 .12298584 .3852539 .12298584 .54826357 .12298584 .71325686 .18899536 .7252655 .20999146 .7252655 .2630005 .7252655 .31399537 .6512604 .31399537 .5492554M.769989 .1462555C.769989 .040252687 .71699526-.03074646 .66600039-.03074646 .644989-.03074646 .57899478-.017745972 .57899478 .14526367 .57899478 .31025697 .644989 .32226563 .66600039 .32226563 .71899417 .32226563 .769989 .2482605 .769989 .1462555Z"/>
<path id="font_1_56" d="M.46199037 .19992066C.46199037 .3209076 .37599183 .41992188 .2669983 .41992188 .21899414 .41992188 .16999817 .4039154 .1349945 .36791993V.5647888C.16499329 .55578616 .19599915 .55078127 .22698975 .55078127 .34999085 .55078127 .42199708 .63983157 .42199708 .6529236 .42199708 .6619873 .41600038 .6660156 .41099549 .6660156 .41099549 .6660156 .40699769 .6660156 .397995 .6609802 .35099793 .6418457 .30499269 .63378909 .2630005 .63378909 .21998596 .63378909 .1749878 .6418457 .1289978 .6609802 .11898804 .6660156 .115997318 .6660156 .115997318 .6660156 .10398865 .6660156 .10398865 .6559448 .10398865 .63882449V.34490968C.10398865 .32699586 .10398865 .31599427 .117996219 .31599427 .12599182 .31562806 .1289978 .3196411 .1349945 .32867433 .16499329 .37083436 .21299744 .39491273 .2649994 .39491273 .37199403 .39491273 .37199403 .24035645 .37199403 .20422364 .37199403 .17321778 .37199403 .11122131 .34399415 .06636047 .31698609 .024475098 .2749939 .0055389406 .23599243 .0055389406 .1769867 .0055389406 .10998535 .042419435 .085998538 .11621094 .085998538 .116882327 .09298706 .11488342 .099990848 .11488342 .11999512 .11488342 .14898682 .12788391 .14898682 .1638794 .14898682 .19488526 .1269989 .21289063 .099990848 .21289063 .07899475 .21289063 .050994874 .20088196 .050994874 .16088867 .050994874 .069732669 .1269989-.022460938 .23799134-.022460938 .35899354-.02279663 .46199037 .07521057 .46199037 .19921875V.19992066Z"/>
<path id="font_1_107" d="M.46199037 .17704773H.43399049C.43199159 .16404724 .42399598 .10501099 .41099549 .08900452 .40499879 .07998657 .33599855 .07998657 .31599427 .07998657H.13798523L.23699951 .17404175C.40098573 .3161316 .46199037 .36915589 .46199037 .4711914 .46199037 .5860901 .36698915 .6660156 .24398804 .6660156 .1289978 .6660156 .050994874 .575119 .050994874 .4841919 .050994874 .43418885 .09399414 .42919923 .102996829 .42919923 .125 .42919923 .15499878 .44519044 .15499878 .48120118 .15499878 .51119998 .13398743 .5332031 .102996829 .5332031 .09799194 .5332031 .09498596 .5332031 .09098816 .53219607 .114990238 .6030731 .1789856 .63500979 .23298645 .63500979 .33499146 .63500979 .36999513 .5401764 .36999513 .4711914 .36999513 .36915589 .29299928 .28611756 .24499512 .23408509L.06199646 .035995485C.050994874 .024993897 .050994874 .022994996 .050994874 0H.43399049L.46199037 .17704773Z"/>
<path id="font_1_51" d="M.46998597 .16764832C.46998597 .26472474 .3959961 .3127594 .37098695 .32876588 .3600006 .33677674 .33099366 .35479737 .31900025 .36180116 .36898805 .38581849 .44198609 .43585206 .44198609 .51690676 .44198609 .6109772 .34799195 .6660156 .2579956 .6660156 .15299988 .6660156 .070999149 .5909729 .070999149 .49890138 .070999149 .46087647 .084991458 .42485047 .10899353 .39582826 .12599182 .3768158 .13198853 .37280274 .18998719 .3357849 .101989749 .29374696 .042999269 .23269654 .042999269 .15063477 .042999269 .044555665 .147995-.022460938 .2559967-.022460938 .37199403-.022460938 .46998597 .059570314 .46998597 .16764832M.3939972 .51690676C.3939972 .44685365 .33399964 .40083314 .2939911 .37780763L.17199707 .45387269C.14199829 .47288514 .11898804 .4998932 .11898804 .53692629 .11898804 .6019745 .18899536 .64100649 .25498963 .64100649 .33198548 .64100649 .3939972 .58695986 .3939972 .51690676M.41600038 .1326294C.41600038 .05357361 .33599855 .0055389406 .25698854 .0055389406 .16999817 .0055389406 .09700012 .06758118 .09700012 .15063477 .09700012 .22268677 .14698792 .28274537 .21699524 .31877137L.34298707 .2407074C.3659973 .22569275 .41600038 .19366455 .41600038 .1326294Z"/>
<path id="font_1_78" d="M.46998597 .3287964C.46998597 .5999756 .34999085 .6660156 .2599945 .6660156 .14498902 .6660156 .042999269 .5729675 .042999269 .44187928 .042999269 .31478883 .1349945 .21875 .24798584 .21875 .32099916 .21875 .36099244 .27175904 .3789978 .31478883V.2927704C.3789978 .04875183 .2679901 .0055389406 .21099854 .0055389406 .18798828 .0055389406 .13699341 .009552002 .11099243 .042755128H.114990238C.12298584 .040740968 .1619873 .04875183 .1619873 .088760379 .1619873 .11476135 .14399719 .13476563 .115997318 .13476563 .08799744 .13476563 .068984989 .116760257 .068984989 .086761478 .068984989 .020629883 .12199402-.022460938 .21199036-.022460938 .34098817-.022460938 .46998597 .10975647 .46998597 .32888795V.3287964M.3769989 .42089845C.3769989 .34788514 .34399415 .2437439 .25 .2437439 .23399353 .2437439 .18499756 .2437439 .15299988 .30584718 .13398743 .34388734 .13398743 .3928833 .13398743 .4409027 .13398743 .48892213 .13398743 .5389557 .15499878 .5769806 .18499756 .628006 .22399903 .64100649 .2599945 .64100649 .32798768 .64100649 .35499574 .5719757 .35899354 .56196597 .37298585 .5249481 .3769989 .46391297 .3769989 .42089845Z"/>
</defs>
<path transform="matrix(1.00002,0,0,-1.00002,91.25453,91.6866)" d="M0 0H73.70186C73.70186 6.43834 72.85614 12.85756 71.19061 19.07547Z" fill="#ccccff"/>
<path transform="matrix(1.00002,0,0,-1.00002,91.25453,91.6866)" stroke-width=".3985" stroke-linecap="butt" stroke-miterlimit="10" stroke-linejoin="miter" fill="none" stroke="#000000" d="M0 0H73.70186C73.70186 6.43834 72.85614 12.85756 71.19061 19.07547Z"/>
<use data-text="3" xlink:href="#font_1_106" transform="matrix(8.966579,0,0,-8.966579,174.3292,83.031429)"/>
<use data-text="0" xlink:href="#font_1_121" transform="matrix(8.966579,0,0,-8.966579,178.93802,83.031429)"/>
<path transform="matrix(1.00002,0,0,-1.00002,91.25453,91.6866)" d="M0 0 71.19063 19.07545C64.37668 44.50604 44.50607 64.37665 19.07549 71.1906Z" fill="#ccffcc"/>
<path transform="matrix(1.00002,0,0,-1.00002,91.25453,91.6866)" stroke-width=".3985" stroke-linecap="butt" stroke-miterlimit="10" stroke-linejoin="miter" fill="none" stroke="#000000" d="M0 0 71.19063 19.07545C64.37668 44.50604 44.50607 64.37665 19.07549 71.1906Z"/>
<use data-text="1" xlink:href="#font_1_82" transform="matrix(8.966579,0,0,-8.966579,115.70203,58.316934)"/>
<use data-text="6" xlink:href="#font_1_101" transform="matrix(8.966579,0,0,-8.966579,120.31085,58.316934)"/>
<use data-text="." xlink:href="#font_1_88" transform="matrix(8.966579,0,0,-8.966579,124.91968,58.316934)"/>
<use data-text="7" xlink:href="#font_1_100" transform="matrix(8.966579,0,0,-8.966579,127.48413,58.316934)"/>
<use data-text="%" xlink:href="#font_1_87" transform="matrix(8.966579,0,0,-8.966579,132.09296,58.316934)"/>
<use data-text="5" xlink:href="#font_1_56" transform="matrix(8.966579,0,0,-8.966579,149.1847,32.034406)"/>
<use data-text="0" xlink:href="#font_1_121" transform="matrix(8.966579,0,0,-8.966579,153.79352,32.034406)"/>
<path transform="matrix(1.00002,0,0,-1.00002,91.25453,91.6866)" d="M0 0 19.07545 71.19063C.19904 76.24794-19.92682 73.59952-36.85094 63.82787Z" fill="#ffe6cc"/>
<path transform="matrix(1.00002,0,0,-1.00002,91.25453,91.6866)" stroke-width=".3985" stroke-linecap="butt" stroke-miterlimit="10" stroke-linejoin="miter" fill="none" stroke="#000000" d="M0 0 19.07545 71.19063C.19904 76.24794-19.92682 73.59952-36.85094 63.82787Z"/>
<use data-text="1" xlink:href="#font_1_82" transform="matrix(8.966579,0,0,-8.966579,72.48816,43.64964)"/>
<use data-text="2" xlink:href="#font_1_107" transform="matrix(8.966579,0,0,-8.966579,77.096988,43.64964)"/>
<use data-text="." xlink:href="#font_1_88" transform="matrix(8.966579,0,0,-8.966579,81.70581,43.64964)"/>
<use data-text="5" xlink:href="#font_1_56" transform="matrix(8.966579,0,0,-8.966579,84.27026,43.64964)"/>
<use data-text="%" xlink:href="#font_1_87" transform="matrix(8.966579,0,0,-8.966579,88.87909,43.64964)"/>
<use data-text="6" xlink:href="#font_1_101" transform="matrix(8.966579,0,0,-8.966579,75.10321,6.8899)"/>
<use data-text="0" xlink:href="#font_1_121" transform="matrix(8.966579,0,0,-8.966579,79.712039,6.8899)"/>
<path transform="matrix(1.00002,0,0,-1.00002,91.25453,91.6866)" d="M0 0-36.85092 63.82784C-72.10155 43.47594-84.17976-1.60033-63.82785-36.85094Z" fill="#f2ccd9"/>
<path transform="matrix(1.00002,0,0,-1.00002,91.25453,91.6866)" stroke-width=".3985" stroke-linecap="butt" stroke-miterlimit="10" stroke-linejoin="miter" fill="none" stroke="#000000" d="M0 0-36.85092 63.82784C-72.10155 43.47594-84.17976-1.60033-63.82785-36.85094Z"/>
<use data-text="2" xlink:href="#font_1_107" transform="matrix(8.966579,0,0,-8.966579,32.974367,81.4454)"/>
<use data-text="5" xlink:href="#font_1_56" transform="matrix(8.966579,0,0,-8.966579,37.58319,81.4454)"/>
<use data-text="%" xlink:href="#font_1_87" transform="matrix(8.966579,0,0,-8.966579,42.192018,81.4454)"/>
<use data-text="7" xlink:href="#font_1_100" transform="matrix(8.966579,0,0,-8.966579,1.2157288,71.728199)"/>
<use data-text="0" xlink:href="#font_1_121" transform="matrix(8.966579,0,0,-8.966579,5.8245546,71.728199)"/>
<path transform="matrix(1.00002,0,0,-1.00002,91.25453,91.6866)" d="M0 0-63.82784-36.85092C-47.15114-65.73517-13.14095-79.82304 19.07549-71.19061Z" fill="#c7eafb"/>
<path transform="matrix(1.00002,0,0,-1.00002,91.25453,91.6866)" stroke-width=".3985" stroke-linecap="butt" stroke-miterlimit="10" stroke-linejoin="miter" fill="none" stroke="#000000" d="M0 0-63.82784-36.85092C-47.15114-65.73517-13.14095-79.82304 19.07549-71.19061Z"/>
<use data-text="2" xlink:href="#font_1_107" transform="matrix(8.966579,0,0,-8.966579,59.478899,142.46062)"/>
<use data-text="0" xlink:href="#font_1_121" transform="matrix(8.966579,0,0,-8.966579,64.08772,142.46062)"/>
<use data-text="." xlink:href="#font_1_88" transform="matrix(8.966579,0,0,-8.966579,68.69655,142.46062)"/>
<use data-text="8" xlink:href="#font_1_51" transform="matrix(8.966579,0,0,-8.966579,71.261,142.46062)"/>
<use data-text="%" xlink:href="#font_1_87" transform="matrix(8.966579,0,0,-8.966579,75.86983,142.46062)"/>
<use data-text="8" xlink:href="#font_1_51" transform="matrix(8.966579,0,0,-8.966579,52.801759,176.2813)"/>
<use data-text="0" xlink:href="#font_1_121" transform="matrix(8.966579,0,0,-8.966579,57.410585,176.2813)"/>
<path transform="matrix(1.00002,0,0,-1.00002,91.25453,91.6866)" d="M0 0 19.07545-71.19063C31.56863-67.84383 42.96986-61.26039 52.11511-52.11514Z" fill="#fffcd5"/>
<path transform="matrix(1.00002,0,0,-1.00002,91.25453,91.6866)" stroke-width=".3985" stroke-linecap="butt" stroke-miterlimit="10" stroke-linejoin="miter" fill="none" stroke="#000000" d="M0 0 19.07545-71.19063C31.56863-67.84383 42.96986-61.26039 52.11511-52.11514Z"/>
<use data-text="9" xlink:href="#font_1_78" transform="matrix(8.966579,0,0,-8.966579,130.86733,171.1682)"/>
<use data-text="0" xlink:href="#font_1_121" transform="matrix(8.966579,0,0,-8.966579,135.47615,171.1682)"/>
<path transform="matrix(1.00002,0,0,-1.00002,91.25453,91.6866)" d="M0 0 52.11514-52.11514C65.93423-38.29604 73.70187-19.54332 73.70187 0Z" fill="#ffcccc"/>
<path transform="matrix(1.00002,0,0,-1.00002,91.25453,91.6866)" stroke-width=".3985" stroke-linecap="butt" stroke-miterlimit="10" stroke-linejoin="miter" fill="none" stroke="#000000" d="M0 0 52.11514-52.11514C65.93423-38.29604 73.70187-19.54332 73.70187 0Z"/>
<use data-text="1" xlink:href="#font_1_82" transform="matrix(8.966579,0,0,-8.966579,126.88425,114.540058)"/>
<use data-text="2" xlink:href="#font_1_107" transform="matrix(8.966579,0,0,-8.966579,131.49308,114.540058)"/>
<use data-text="." xlink:href="#font_1_88" transform="matrix(8.966579,0,0,-8.966579,136.1019,114.540058)"/>
<use data-text="5" xlink:href="#font_1_56" transform="matrix(8.966579,0,0,-8.966579,138.66635,114.540058)"/>
<use data-text="%" xlink:href="#font_1_87" transform="matrix(8.966579,0,0,-8.966579,143.27518,114.540058)"/>
<use data-text="1" xlink:href="#font_1_82" transform="matrix(8.966579,0,0,-8.966579,166.04903,128.41733)"/>
<use data-text="0" xlink:href="#font_1_121" transform="matrix(8.966579,0,0,-8.966579,170.65785,128.41733)"/>
<use data-text="0" xlink:href="#font_1_121" transform="matrix(8.966579,0,0,-8.966579,175.26668,128.41733)"/>
</svg>
