<svg xmlns="http://www.w3.org/2000/svg" xmlns:xlink="http://www.w3.org/1999/xlink" xmlns:inkscape="http://www.inkscape.org/namespaces/inkscape" version="1.1" width="181" height="180" viewBox="0 0 181 180">
<defs>
<path id="font_1_3" d="M.33399964 .30233766C.33999635 .32835389 .36299134 .42037965 .43299867 .42037965 .43798829 .42037965 .46199037 .42037965 .48298646 .40734864 .45498658 .402359 .43499757 .37734986 .43499757 .35334779 .43499757 .33735658 .44599916 .31835938 .47299195 .31835938 .49499513 .31835938 .5269928 .3363495 .5269928 .37635804 .5269928 .42837525 .46798707 .4423828 .43399049 .4423828 .37599183 .4423828 .34098817 .38935853 .32899476 .36634828 .3039856 .43237306 .25 .4423828 .22099304 .4423828 .116989139 .4423828 .05999756 .3133545 .05999756 .28834535 .05999756 .27833558 .069992069 .27833558 .07199097 .27833558 .07998657 .27833558 .08299255 .28033448 .084991458 .28933717 .11898804 .39535523 .18499756 .42037965 .21899414 .42037965 .23799134 .42037965 .272995 .4113617 .272995 .35334779 .272995 .32235719 .2559967 .25532533 .21899414 .11528015 .20298767 .053268434 .16799927 .011245728 .12399292 .011245728 .117996219 .011245728 .09498596 .011245728 .07398987 .024276734 .09899902 .029266358 .12098694 .05027771 .12098694 .07827759 .12098694 .105270389 .09899902 .11328125 .083999637 .11328125 .053985597 .11328125 .0289917 .08728027 .0289917 .055267335 .0289917 .009246826 .07899475-.0107421879 .12298584-.0107421879 .18899536-.0107421879 .22499085 .059280397 .22799683 .0652771 .23999024 .028274537 .27598573-.0107421879 .33599855-.0107421879 .43899537-.0107421879 .49598695 .118270877 .49598695 .14328003 .49598695 .1532898 .4869995 .1532898 .48399354 .1532898 .47499085 .1532898 .47299195 .14929199 .47099305 .14228821 .43798829 .03527832 .36999513 .011245728 .33799745 .011245728 .29899598 .011245728 .2829895 .043273927 .2829895 .07727051 .2829895 .09927368 .2889862 .121276859 .2999878 .16529846L.33399964 .30233766Z"/>
<path id="font_1_4" d="M.48599244 .38136292C.48999024 .39537049 .48999024 .39736939 .48999024 .40437318 .48999024 .42237855 .47599793 .43138124 .46099855 .43138124 .45098878 .43138124 .43499757 .42536927 .42599488 .41036988 .42399598 .405365 .41600038 .37435914 .4119873 .35635377 .40499879 .33035279 .397995 .30334474 .3919983 .27633668L.34700013 .09628296C.34298707 .08126831 .2999878 .011245728 .23399353 .011245728 .18299866 .011245728 .17199707 .055267335 .17199707 .0922699 .17199707 .1382904 .18899536 .20030213 .22299195 .28833009 .23899842 .3293457 .24299622 .3403473 .24299622 .36035157 .24299622 .405365 .21099854 .4423828 .16099549 .4423828 .06599426 .4423828 .0289917 .29733277 .0289917 .28833009 .0289917 .27833558 .038986207 .27833558 .040985109 .27833558 .050994874 .27833558 .051986696 .28033448 .056991579 .29634095 .083999637 .3903656 .12399292 .42037965 .1579895 .42037965 .1659851 .42037965 .18299866 .42037965 .18299866 .3883667 .18299866 .36335755 .17298889 .3373413 .1659851 .31834413 .12599182 .21231079 .10798645 .1552887 .10798645 .10827637 .10798645 .019256592 .17098999-.0107421879 .22999573-.0107421879 .2689972-.0107421879 .30299378 .0062561037 .33099366 .03425598 .31799317-.017745972 .30599977-.06674194 .2659912-.11973572 .23999024-.15385437 .20199585-.18309021 .1559906-.18309021 .14199829-.18309021 .09700012-.18005371 .07998657-.14074707 .09599304-.14074707 .10899353-.14074707 .12298584-.1287384 .1329956-.11973572 .14299011-.10673523 .14299011-.08773804 .14299011-.056747438 .115997318-.052734376 .10598755-.052734376 .08299255-.052734376 .049987794-.068740848 .049987794-.11773682 .049987794-.16796875 .09399414-.20507813 .1559906-.20507813 .25898744-.20507813 .3619995-.11373901 .3899994-.00074768069L.48599244 .38136292Z"/>
<path id="font_1_5" d="M.1329956 .08345032C.18699646 .14138794 .21598816 .16636658 .2519989 .19732666 .2519989 .19833374 .31399537 .25128175 .34999085 .2872467 .44499208 .3803711 .46699525 .42837525 .46699525 .43237306 .46699525 .4423828 .45799256 .4423828 .45599366 .4423828 .44898988 .4423828 .44599916 .44036866 .44099427 .43138124 .41099549 .38337709 .3899994 .3671875 .3659973 .3671875 .34199525 .3671875 .32998658 .38237 .31498719 .3993683 .29599 .42237855 .2789917 .4423828 .24598694 .4423828 .17098999 .4423828 .125 .34918214 .125 .3282013 .125 .3231964 .12799073 .31721498 .13699341 .31721498 .1459961 .31721498 .147995 .3222046 .1499939 .3282013 .16899109 .37434388 .22698975 .37538148 .23498535 .37538148 .2559967 .37538148 .2749939 .36820985 .2979889 .36018373 .33799745 .34518434 .34899903 .34518434 .375 .34518434 .33898927 .30223084 .25498963 .2303009 .23599243 .21430969L.1459961 .13040161C.07798767 .06341553 .042999269 .0062561037 .042999269-.00074768069 .042999269-.0107421879 .052993776-.0107421879 .054992677-.0107421879 .06298828-.0107421879 .06498718-.008743286 .070999149 .002243042 .09399414 .037246705 .12399292 .064453128 .1559906 .064453128 .1789856 .064453128 .18899536 .055252077 .21398926 .026245118 .23098755 .0052490236 .24899292-.0107421879 .27799989-.0107421879 .3769989-.0107421879 .43499757 .1164093 .43499757 .14338684 .43499757 .14837647 .43099977 .15338135 .4229889 .15338135 .4139862 .15338135 .4119873 .14738465 .40899659 .14039612 .38598634 .07543945 .32199098 .056243898 .2889862 .056243898 .2689972 .056243898 .25099183 .06239319 .22999573 .06944275 .19599915 .08244324 .18099976 .08644104 .1599884 .08644104 .1579895 .08644104 .14199829 .08644104 .1329956 .08345032Z"/>
<path id="font_1_2" d="M.08799744 .059265138C.084991458 .044265748 .07899475 .021255494 .07899475 .01625061 .07899475-.0017547608 .09298706-.0107421879 .10798645-.0107421879 .11999512-.0107421879 .13798523-.002746582 .14498902 .01725769 .14698792 .021255494 .18099976 .15730286 .18499756 .17530823 .19299317 .20831299 .21099854 .27833558 .21699524 .30534364 .22099304 .31835938 .24899292 .36535646 .272995 .38734437 .2809906 .39434815 .30999757 .42037965 .35299684 .42037965 .3789978 .42037965 .3939972 .4083557 .394989 .4083557 .36499024 .40335084 .34298707 .37934876 .34298707 .35334779 .34298707 .33735658 .35398866 .31835938 .3809967 .31835938 .4079895 .31835938 .43598939 .34135438 .43598939 .37734986 .43598939 .41235353 .4039917 .4423828 .35299684 .4423828 .28799439 .4423828 .24398804 .39335633 .22499085 .36535646 .21699524 .4103546 .18099976 .4423828 .13398743 .4423828 .08799744 .4423828 .068984989 .40335084 .05999756 .38534547 .041992189 .35134889 .0289917 .29133607 .0289917 .28834535 .0289917 .27833558 .038986207 .27833558 .040985109 .27833558 .050994874 .27833558 .051986696 .27934266 .057998659 .30134584 .07499695 .37234498 .09498596 .42037965 .1309967 .42037965 .147995 .42037965 .1619873 .41235353 .1619873 .37435914 .1619873 .35334779 .15899658 .3423462 .1459961 .29034425L.08799744 .059265138Z"/>
<path id="font_2_2" d="M.68699648 .32714845C.70199587 .32714845 .72099307 .32714845 .72099307 .34713746 .72099307 .36714173 .70199587 .36714173 .6879883 .36714173H.08898926C.07499695 .36714173 .055999757 .36714173 .055999757 .34713746 .055999757 .32714845 .07499695 .32714845 .08999634 .32714845H.68699648M.6879883 .13284302C.70199587 .13284302 .72099307 .13284302 .72099307 .15284729 .72099307 .17285156 .70199587 .17285156 .68699648 .17285156H.08999634C.07499695 .17285156 .055999757 .17285156 .055999757 .15284729 .055999757 .13284302 .07499695 .13284302 .08898926 .13284302H.6879883Z"/>
<path id="font_2_1" d="M.2899933 .35191346C.37199403 .37893678 .42999269 .4490509 .42999269 .52809146 .42999269 .6100464 .34199525 .6660156 .24598694 .6660156 .14498902 .6660156 .068984989 .60606387 .068984989 .53009036 .068984989 .49710084 .09098816 .47808839 .11999512 .47808839 .15098572 .47808839 .17098999 .50009158 .17098999 .5290985 .17098999 .57910159 .12399292 .57910159 .10899353 .57910159 .13999939 .62802127 .20599365 .64100649 .24198914 .64100649 .2829895 .64100649 .33799745 .6190338 .33799745 .5290985 .33799745 .51708987 .33599855 .45906068 .30999757 .4149933 .27999879 .36691285 .24598694 .36390687 .22099304 .36291505 .21299744 .36190797 .18899536 .35990907 .18199158 .35990907 .17399597 .35890199 .16699219 .35791017 .16699219 .3479004 .16699219 .33691407 .17399597 .33691407 .19099427 .33691407H.23498535C.31698609 .33691407 .35398866 .2686615 .35398866 .17037964 .35398866 .034469606 .2849884 .0055389406 .24099732 .0055389406 .19799805 .0055389406 .12298584 .022491456 .08799744 .08137512 .12298584 .07637024 .1539917 .09837341 .1539917 .1363678 .1539917 .17237854 .1269989 .19238281 .09799194 .19238281 .07398987 .19238281 .041992189 .17837525 .041992189 .1343689 .041992189 .043441774 .1349945-.022460938 .24398804-.022460938 .3659973-.022460938 .45700074 .06838989 .45700074 .17037964 .45700074 .252594 .3939972 .33088685 .2899933 .35191346Z"/>
<path id="font_2_3" d="M.116989139 .21801758C.116989139 .38093568 .19898987 .42323304 .2519989 .42323304 .26098634 .42323304 .32398988 .42222596 .35899354 .38594056 .31799317 .38293458 .31199647 .3529358 .31199647 .3399353 .31199647 .31393434 .32998658 .2939453 .35798646 .2939453 .38398744 .2939453 .4039917 .3109436 .4039917 .34094239 .4039917 .40911866 .32798768 .4482422 .25099183 .4482422 .12599182 .4482422 .033996583 .3399353 .033996583 .21601868 .033996583 .08816528 .1329956-.0107421879 .24899292-.0107421879 .3829956-.0107421879 .4149933 .10914612 .4149933 .119140628 .4149933 .12911988 .40499879 .12911988 .4019928 .12911988 .3929901 .12911988 .3909912 .12512207 .3889923 .119140628 .3600006 .026229859 .29499818 .014251709 .2579956 .014251709 .20498657 .014251709 .116989139 .0572052 .116989139 .21801758Z"/>
<path id="font_2_4" d="M.47099305 .21424866C.47099305 .34223939 .37098695 .4482422 .25 .4482422 .125 .4482422 .027999878 .3392334 .027999878 .21424866 .027999878 .085250858 .13198853-.0107421879 .24899292-.0107421879 .36999513-.0107421879 .47099305 .087249759 .47099305 .21424866M.25 .014251709C.20698548 .014251709 .16299439 .035247804 .13598633 .08125305 .11099243 .12524414 .11099243 .18624878 .11099243 .22224427 .11099243 .26124574 .11099243 .31523133 .1349945 .35923768 .1619873 .40522767 .20899964 .426239 .24899292 .426239 .29299928 .426239 .33599855 .40423585 .3619995 .36123658 .3880005 .3182373 .3880005 .26023866 .3880005 .22224427 .3880005 .18624878 .3880005 .13224793 .3659973 .08824158 .34399415 .04324341 .2999878 .014251709 .25 .014251709Z"/>
<path id="font_2_5" d="M.20799256 .19424439C.22999573 .19024658 .31199647 .17424011 .31199647 .102249149 .31199647 .051254274 .2769928 .011245728 .19898987 .011245728 .114990238 .011245728 .07899475 .06825256 .05999756 .15324402 .056991579 .1662445 .055999757 .17024231 .04598999 .17024231 .032989503 .17024231 .032989503 .16323853 .032989503 .14524842V.013244629C.032989503-.003753662 .032989503-.0107421879 .04399109-.0107421879 .04899597-.0107421879 .049987794-.009750366 .068984989 .009246826 .070999149 .011245728 .070999149 .013244629 .08898926 .03224182 .1329956-.009750366 .17799378-.0107421879 .19898987-.0107421879 .31399537-.0107421879 .3600006 .056243898 .3600006 .12825012 .3600006 .1812439 .32998658 .21124268 .31799317 .22323609 .2849884 .25523377 .24598694 .26324464 .20399475 .27124024 .147995 .28224183 .08099365 .2952423 .08099365 .35324098 .08099365 .38822938 .10699463 .42922975 .19299317 .42922975 .30299378 .42922975 .30799867 .3392334 .30999757 .3082428 .31098939 .2992401 .31999208 .2992401 .32199098 .2992401 .33499146 .2992401 .33499146 .304245 .33499146 .3232422V.4242401C.33499146 .4412384 .33499146 .4482422 .32398988 .4482422 .31900025 .4482422 .31698609 .4482422 .3039856 .43623353 .30099488 .43223573 .29100038 .42323304 .2869873 .42022706 .24899292 .4482422 .20799256 .4482422 .19299317 .4482422 .070999149 .4482422 .032989503 .38124085 .032989503 .3252411 .032989503 .29023744 .04899597 .26223756 .07598877 .24023438 .10798645 .21424866 .13598633 .2082367 .20799256 .19424439Z"/>
<path id="font_1_1" d="M.45498658 .5001831C.45498658 .56614688 .43699647 .7050781 .33499146 .7050781 .19599915 .7050781 .041992189 .42323304 .041992189 .19425965 .041992189 .100250247 .070999149-.0107421879 .1619873-.0107421879 .30299378-.0107421879 .45498658 .27627564 .45498658 .5001831M.147995 .36328126C.16499329 .42723084 .18499756 .5071869 .22499085 .57814028 .2519989 .6271057 .2889862 .68307498 .33399964 .68307498 .3829956 .68307498 .3889923 .6191101 .3889923 .56214907 .3889923 .5131836 .3809967 .46220399 .35699464 .36328126H.147995M.34799195 .3312683C.33699037 .28527833 .31599427 .2002716 .27799989 .12826538 .24299622 .060256959 .20498657 .011245728 .1619873 .011245728 .1289978 .011245728 .10798645 .040252687 .10798645 .133255 .10798645 .17526245 .11399841 .23326111 .13999939 .3312683H.34799195Z"/>
<path id="font_3_1" d="M.6589966 .23046875C.6759949 .23046875 .69400027 .23046875 .69400027 .25045777 .69400027 .27046205 .6759949 .27046205 .6589966 .27046205H.117996219C.100997928 .27046205 .08299255 .27046205 .08299255 .25045777 .08299255 .23046875 .100997928 .23046875 .117996219 .23046875H.6589966Z"/>
</defs>
<path transform="matrix(1.00003,0,0,-1.00006,123.94127,118.78634)" d="M0 0V0L-2.65443 1.13513-5.47118 2.13878-8.43388 3.00525-11.51814 3.72743-14.70949 4.30179-17.98262 4.72401-21.31859 4.99144-24.6976 5.10237-28.09459 5.05647-31.48753 4.85359-34.85608 4.49466-38.17772 3.98283-41.43422 3.32135-44.59639 2.51387-47.6482 1.56624-50.57693 .4846-53.35005-.72502-55.9574-2.05376-58.38327-3.49257-60.60966-5.03394-62.61833-6.66518-64.40355-8.37822-65.95445-10.16216-67.2485-12.00209-68.2909-13.89006-69.07251-15.81175-69.57454-17.75346-69.8108-19.70483-69.7762-21.65324-69.46548-23.5842-68.88364-25.4869-68.03525-27.34981-66.92596-29.15878-65.55634-30.89996-63.94518-32.56715-62.10147-34.14932-60.02745-35.6288-57.7473-37.00504-55.27406-38.26677-55.27576-38.26793Z" fill="#c7eafb" fill-opacity=".75"/>
<path transform="matrix(1.00003,0,0,-1.00006,123.94127,118.78634)" d="M0 0V0L-2.65443 5.23921-5.47118 10.32047-8.43388 15.21472-11.51814 19.88164-14.70949 24.299-17.98262 28.43239-21.31859 32.25735-24.6976 35.7509-28.09459 38.8883-31.48753 41.64812-34.85608 44.01314-38.17772 45.96938-41.43422 47.50708-44.59639 48.60709-47.6482 49.26797-50.57693 49.49225-53.35005 49.26309-55.9574 48.592-58.38327 47.48537-60.60966 45.944-62.61833 43.98056-64.40355 41.60886-65.95445 38.84445-67.2485 35.70119-68.2909 32.20316-69.07251 28.37552-69.57454 24.23306-69.8108 19.81364-69.7762 15.1423-69.46548 10.24864-68.88364 5.16318-68.03525-.08234-66.92596-5.44884-65.55634-10.90274-63.94518-16.41139-62.10147-21.93985-60.02745-27.44398-57.7473-32.8994-55.27406-38.26677-55.27576-38.26793Z" fill="#9cdcf9" fill-opacity=".7"/>
<path transform="matrix(1.00003,0,0,-1.00006,123.94127,118.78634)" stroke-width=".79701" stroke-linecap="round" stroke-linejoin="round" fill="none" stroke="#000000" d="M0 0-69.86778-48.37012"/>
<path transform="matrix(-.82216468,.56921419,.5691971,.8221893,54.07139,167.15933)" d="M4.66248 0C3.28098 .25902 1.0361 1.0361-.51805 1.94269V-1.94269C1.0361-1.0361 3.28098-.25902 4.66248 0"/>
<use data-text="x" xlink:href="#font_1_3" transform="matrix(9.962899,0,0,-9.963197,40.824769,177.82189)"/>
<path transform="matrix(1.00003,0,0,-1.00006,123.94127,118.78634)" stroke-width=".79701" stroke-linecap="round" stroke-linejoin="round" fill="none" stroke="#000000" d="M-46.77214 21.82738 42.54713-19.85571"/>
<path transform="matrix(.90619727,.42290537,.4228927,-.90622439,166.48969,138.64324)" d="M4.66248 0C3.28098 .25902 1.0361 1.0361-.51805 1.94269V-1.94269C1.0361-1.0361 3.28098-.25902 4.66248 0"/>
<use data-text="y" xlink:href="#font_1_4" transform="matrix(9.962899,0,0,-9.963197,174.43379,148.62413)"/>
<path transform="matrix(1.00003,0,0,-1.00006,123.94127,118.78634)" stroke-width=".79701" stroke-linecap="round" stroke-linejoin="round" fill="none" stroke="#000000" d="M0-6.8031V104.18892"/>
<path transform="matrix(0,-1.00006,-1.00003,-0,123.94127,14.591171)" d="M4.66248 0C3.28098 .25902 1.0361 1.0361-.51805 1.94269V-1.94269C1.0361-1.0361 3.28098-.25902 4.66248 0"/>
<use data-text="z" xlink:href="#font_1_5" transform="matrix(9.962899,0,0,-9.963197,121.40519,6.209587)"/>
<path transform="matrix(1.00003,0,0,-1.00006,123.94127,118.78634)" stroke-width=".79701" stroke-linecap="round" stroke-linejoin="round" fill="none" stroke="#009bca" d="M0 0-2.65443 1.13513-5.47118 2.13878-8.43388 3.00525-11.51814 3.72743-14.70949 4.30179-17.98262 4.72401-21.31859 4.99144-24.6976 5.10237-28.09459 5.05647-31.48753 4.85359-34.85608 4.49466-38.17772 3.98283-41.43422 3.32135-44.59639 2.51387-47.6482 1.56624-50.57693 .4846-53.35005-.72502-55.9574-2.05376-58.38327-3.49257-60.60966-5.03394-62.61833-6.66518-64.40355-8.37822-65.95445-10.16216-67.2485-12.00209-68.2909-13.89006-69.07251-15.81175-69.57454-17.75346-69.8108-19.70483-69.7762-21.65324-69.46548-23.5842-68.88364-25.4869-68.03525-27.34981-66.92596-29.15878-65.55634-30.89996-63.94518-32.56715-62.10147-34.14932-60.02745-35.6288-57.7473-37.00504-55.27406-38.26677"/>
<path transform="matrix(1.00003,0,0,-1.00006,123.94127,118.78634)" stroke-width=".79701" stroke-linecap="round" stroke-linejoin="round" fill="none" stroke="#009bca" d="M-59.52802-4.25163V1.41734 7.08635 12.75536 18.42435 24.09337 29.76236 35.43137 41.10037 46.76938"/>
<path transform="matrix(1.00003,0,0,-1.00006,123.94127,118.78634)" stroke-width=".79701" stroke-linecap="round" stroke-linejoin="round" fill="none" stroke="#009bca" d="M0 0-2.65443 5.23921-5.47118 10.32047-8.43388 15.21472-11.51814 19.88164-14.70949 24.299-17.98262 28.43239-21.31859 32.25735-24.6976 35.7509-28.09459 38.8883-31.48753 41.64812-34.85608 44.01314-38.17772 45.96938-41.43422 47.50708-44.59639 48.60709-47.6482 49.26797-50.57693 49.49225-53.35005 49.26309-55.9574 48.592-58.38327 47.48537-60.60966 45.944-62.61833 43.98056-64.40355 41.60886-65.95445 38.84445-67.2485 35.70119-68.2909 32.20316-69.07251 28.37552-69.57454 24.23306-69.8108 19.81364-69.7762 15.1423-69.46548 10.24864-68.88364 5.16318-68.03525-.08234-66.92596-5.44884-65.55634-10.90274-63.94518-16.41139-62.10147-21.93985-60.02745-27.44398-57.7473-32.8994-55.27406-38.26677"/>
<path transform="matrix(1.00003,0,0,-1.00006,123.94127,118.78634)" stroke-width=".3985" stroke-linecap="round" stroke-linejoin="round" fill="none" stroke="#0092b8" d="M0 0-2.65443 3.18692-5.47118 6.22935-8.43388 9.10973-11.51814 11.80426-14.70949 14.30013-17.98262 16.57793-21.31859 18.62413-24.6976 20.42664-28.09459 21.97212-31.48753 23.2506-34.85608 24.25363-38.17772 24.9761-41.43422 25.41394-44.59639 25.55997-47.6482 25.41685-50.57693 24.98817-53.35005 24.26903-55.9574 23.26886-58.38327 21.99612-60.60966 20.45477-62.61833 18.65742-64.40355 16.61479-65.95445 14.34088-67.2485 11.84953-68.2909 9.15654-69.07251 6.28188-69.57454 3.23978-69.8108 .05414-69.7762-3.25572-69.46548-6.66803-68.88364-10.16212-68.03525-13.71608-66.92596-17.30382-65.55634-20.90161-63.94518-24.48929-62.10147-28.04485-60.02745-31.53665-57.7473-34.95221-55.27406-38.26677"/>
<use data-text="r" xlink:href="#font_1_2" transform="matrix(9.962899,0,0,-9.963197,1.2155762,120.82846)"/>
<use data-text="=" xlink:href="#font_2_2" transform="matrix(9.962899,0,0,-9.963197,8.7548069,120.82846)"/>
<use data-text="3" xlink:href="#font_2_1" transform="matrix(9.962899,0,0,-9.963197,19.255707,120.82846)"/>
<use data-text="c" xlink:href="#font_2_3" transform="matrix(9.962899,0,0,-9.963197,25.900956,120.82846)"/>
<use data-text="o" xlink:href="#font_2_4" transform="matrix(9.962899,0,0,-9.963197,30.324494,120.82846)"/>
<use data-text="s" xlink:href="#font_2_5" transform="matrix(9.962899,0,0,-9.963197,35.305925,120.82846)"/>
<use data-text="&#x03b8;" xlink:href="#font_1_1" transform="matrix(9.962899,0,0,-9.963197,40.912767,120.82846)"/>
<use data-text="z" xlink:href="#font_1_5" transform="matrix(9.962899,0,0,-9.963197,81.68,61.025876)"/>
<use data-text="=" xlink:href="#font_2_2" transform="matrix(9.962899,0,0,-9.963197,89.51925,61.025876)"/>
<use data-text="&#x2212;" xlink:href="#font_3_1" transform="matrix(9.962899,0,0,-9.963197,100.03556,61.025876)"/>
<use data-text="y" xlink:href="#font_1_4" transform="matrix(9.962899,0,0,-9.963197,107.7848,61.025876)"/>
</svg>
