<svg xmlns="http://www.w3.org/2000/svg" xmlns:xlink="http://www.w3.org/1999/xlink" xmlns:inkscape="http://www.inkscape.org/namespaces/inkscape" version="1.1" width="100" height="146" viewBox="0 0 100 146">
<defs>
<path id="font_1_2" d="M.33399964 .30233766C.33999635 .32835389 .36299134 .42037965 .43299867 .42037965 .43798829 .42037965 .46199037 .42037965 .48298646 .40734864 .45498658 .402359 .43499757 .37734986 .43499757 .35334779 .43499757 .33735658 .44599916 .31835938 .47299195 .31835938 .49499513 .31835938 .5269928 .3363495 .5269928 .37635804 .5269928 .42837525 .46798707 .4423828 .43399049 .4423828 .37599183 .4423828 .34098817 .38935853 .32899476 .36634828 .3039856 .43237306 .25 .4423828 .22099304 .4423828 .116989139 .4423828 .05999756 .3133545 .05999756 .28834535 .05999756 .27833558 .069992069 .27833558 .07199097 .27833558 .07998657 .27833558 .08299255 .28033448 .084991458 .28933717 .11898804 .39535523 .18499756 .42037965 .21899414 .42037965 .23799134 .42037965 .272995 .4113617 .272995 .35334779 .272995 .32235719 .2559967 .25532533 .21899414 .11528015 .20298767 .053268434 .16799927 .011245728 .12399292 .011245728 .117996219 .011245728 .09498596 .011245728 .07398987 .024276734 .09899902 .029266358 .12098694 .05027771 .12098694 .07827759 .12098694 .105270389 .09899902 .11328125 .083999637 .11328125 .053985597 .11328125 .0289917 .08728027 .0289917 .055267335 .0289917 .009246826 .07899475-.0107421879 .12298584-.0107421879 .18899536-.0107421879 .22499085 .059280397 .22799683 .0652771 .23999024 .028274537 .27598573-.0107421879 .33599855-.0107421879 .43899537-.0107421879 .49598695 .118270877 .49598695 .14328003 .49598695 .1532898 .4869995 .1532898 .48399354 .1532898 .47499085 .1532898 .47299195 .14929199 .47099305 .14228821 .43798829 .03527832 .36999513 .011245728 .33799745 .011245728 .29899598 .011245728 .2829895 .043273927 .2829895 .07727051 .2829895 .09927368 .2889862 .121276859 .2999878 .16529846L.33399964 .30233766Z"/>
<path id="font_1_3" d="M.48599244 .38136292C.48999024 .39537049 .48999024 .39736939 .48999024 .40437318 .48999024 .42237855 .47599793 .43138124 .46099855 .43138124 .45098878 .43138124 .43499757 .42536927 .42599488 .41036988 .42399598 .405365 .41600038 .37435914 .4119873 .35635377 .40499879 .33035279 .397995 .30334474 .3919983 .27633668L.34700013 .09628296C.34298707 .08126831 .2999878 .011245728 .23399353 .011245728 .18299866 .011245728 .17199707 .055267335 .17199707 .0922699 .17199707 .1382904 .18899536 .20030213 .22299195 .28833009 .23899842 .3293457 .24299622 .3403473 .24299622 .36035157 .24299622 .405365 .21099854 .4423828 .16099549 .4423828 .06599426 .4423828 .0289917 .29733277 .0289917 .28833009 .0289917 .27833558 .038986207 .27833558 .040985109 .27833558 .050994874 .27833558 .051986696 .28033448 .056991579 .29634095 .083999637 .3903656 .12399292 .42037965 .1579895 .42037965 .1659851 .42037965 .18299866 .42037965 .18299866 .3883667 .18299866 .36335755 .17298889 .3373413 .1659851 .31834413 .12599182 .21231079 .10798645 .1552887 .10798645 .10827637 .10798645 .019256592 .17098999-.0107421879 .22999573-.0107421879 .2689972-.0107421879 .30299378 .0062561037 .33099366 .03425598 .31799317-.017745972 .30599977-.06674194 .2659912-.11973572 .23999024-.15385437 .20199585-.18309021 .1559906-.18309021 .14199829-.18309021 .09700012-.18005371 .07998657-.14074707 .09599304-.14074707 .10899353-.14074707 .12298584-.1287384 .1329956-.11973572 .14299011-.10673523 .14299011-.08773804 .14299011-.056747438 .115997318-.052734376 .10598755-.052734376 .08299255-.052734376 .049987794-.068740848 .049987794-.11773682 .049987794-.16796875 .09399414-.20507813 .1559906-.20507813 .25898744-.20507813 .3619995-.11373901 .3899994-.00074768069L.48599244 .38136292Z"/>
<path id="font_1_4" d="M.1329956 .08345032C.18699646 .14138794 .21598816 .16636658 .2519989 .19732666 .2519989 .19833374 .31399537 .25128175 .34999085 .2872467 .44499208 .3803711 .46699525 .42837525 .46699525 .43237306 .46699525 .4423828 .45799256 .4423828 .45599366 .4423828 .44898988 .4423828 .44599916 .44036866 .44099427 .43138124 .41099549 .38337709 .3899994 .3671875 .3659973 .3671875 .34199525 .3671875 .32998658 .38237 .31498719 .3993683 .29599 .42237855 .2789917 .4423828 .24598694 .4423828 .17098999 .4423828 .125 .34918214 .125 .3282013 .125 .3231964 .12799073 .31721498 .13699341 .31721498 .1459961 .31721498 .147995 .3222046 .1499939 .3282013 .16899109 .37434388 .22698975 .37538148 .23498535 .37538148 .2559967 .37538148 .2749939 .36820985 .2979889 .36018373 .33799745 .34518434 .34899903 .34518434 .375 .34518434 .33898927 .30223084 .25498963 .2303009 .23599243 .21430969L.1459961 .13040161C.07798767 .06341553 .042999269 .0062561037 .042999269-.00074768069 .042999269-.0107421879 .052993776-.0107421879 .054992677-.0107421879 .06298828-.0107421879 .06498718-.008743286 .070999149 .002243042 .09399414 .037246705 .12399292 .064453128 .1559906 .064453128 .1789856 .064453128 .18899536 .055252077 .21398926 .026245118 .23098755 .0052490236 .24899292-.0107421879 .27799989-.0107421879 .3769989-.0107421879 .43499757 .1164093 .43499757 .14338684 .43499757 .14837647 .43099977 .15338135 .4229889 .15338135 .4139862 .15338135 .4119873 .14738465 .40899659 .14039612 .38598634 .07543945 .32199098 .056243898 .2889862 .056243898 .2689972 .056243898 .25099183 .06239319 .22999573 .06944275 .19599915 .08244324 .18099976 .08644104 .1599884 .08644104 .1579895 .08644104 .14199829 .08644104 .1329956 .08345032Z"/>
<path id="font_2_1" d="M.33099366-.2400055C.33099366-.23701477 .33099366-.23500061 .31399537-.21800232 .18899536-.0920105 .15699768 .09700012 .15699768 .25 .15699768 .42399598 .19499207 .59799197 .31799317 .72299197 .33099366 .73498538 .33099366 .7369995 .33099366 .73999026 .33099366 .746994 .32699586 .75 .32099916 .75 .31098939 .75 .22099304 .6819916 .1619873 .5549927 .11099243 .44499208 .09899902 .33399964 .09899902 .25 .09899902 .17199707 .10998535 .050994874 .16499329-.06201172 .22499085-.18501282 .31098939-.25 .32099916-.25 .32699586-.25 .33099366-.24700928 .33099366-.2400055Z"/>
<path id="font_2_3" d="M.45999146 .31976319C.45999146 .39982606 .45498658 .47988893 .41999818 .5539398 .37399293 .65000918 .2919922 .6660156 .25 .6660156 .18998719 .6660156 .116989139 .64001467 .07598877 .54693606 .04399109 .47789 .038986207 .39982606 .038986207 .31976319 .038986207 .24472046 .042999269 .15464783 .083999637 .07859802 .1269989-.0024719239 .19999695-.022460938 .24899292-.022460938 .30299378-.022460938 .3789978-.0014648438 .4229889 .09359741 .45498658 .16265869 .45999146 .2407074 .45999146 .31976319M.24899292-.00047302247C.20999146-.00047302247 .15098572 .024551392 .1329956 .12062073 .12199402 .18066406 .12199402 .2727356 .12199402 .3317871 .12199402 .39582826 .12199402 .46188355 .12998963 .5159149 .14898682 .63500979 .22399903 .64401248 .24899292 .64401248 .28199769 .64401248 .34799195 .6259918 .36698915 .52693179 .3769989 .47088624 .3769989 .39482118 .3769989 .3317871 .3769989 .25672914 .3769989 .18867493 .3659973 .12461853 .35099793 .029556275 .2939911-.00047302247 .24899292-.00047302247Z"/>
<path id="font_1_1" d="M.20298767 .0009918213C.20298767 .066986087 .17799378 .10598755 .13899231 .10598755 .10598755 .10598755 .085998538 .08099365 .085998538 .052993776 .085998538 .025985718 .10598755 0 .13899231 0 .15098572 0 .1639862 .0039978029 .17399597 .0129852299 .1769867 .01499939 .17799378 .015991211 .1789856 .015991211 .17999268 .015991211 .18099976 .01499939 .18099976 .0009918213 .18099976-.07316589 .1459961-.13328552 .11299133-.16635132 .101989749-.17736817 .101989749-.17936707 .101989749-.18237305 .101989749-.18936157 .10699463-.19335938 .11199951-.19335938 .12298584-.19335938 .20298767-.116256717 .20298767 .0009918213Z"/>
<path id="font_2_2" d="M.2889862 .25C.2889862 .32798768 .27799989 .44898988 .22299195 .56199648 .16299439 .68499758 .07699585 .75 .066986087 .75 .06098938 .75 .056991579 .74598696 .056991579 .73999026 .056991579 .7369995 .056991579 .73498538 .07598877 .71699526 .17399597 .6179962 .23098755 .45899964 .23098755 .25 .23098755 .07899475 .19400025-.09700012 .069992069-.2230072 .056991579-.23500061 .056991579-.23701477 .056991579-.2400055 .056991579-.2460022 .06098938-.25 .066986087-.25 .07699585-.25 .16699219-.18200684 .22599793-.055007936 .2769928 .054992677 .2889862 .16600037 .2889862 .25Z"/>
</defs>
<path transform="matrix(1.00006,0,0,-1.00006,39.97943,88.310398)" stroke-width=".3985" stroke-linecap="round" stroke-linejoin="round" fill="none" stroke="#d9d9d9" d="M-12.7562 0H12.7562M0-27.63785V27.63785M12.7562-27.63785"/>
<path transform="matrix(1.00006,0,0,-1.00006,39.97943,88.310398)" stroke-width=".79701" stroke-linecap="round" stroke-linejoin="round" fill="none" stroke="#000000" d="M0 0-24.70616-19.76476"/>
<path transform="matrix(-.7808868,.6246674,.6246674,.7808868,15.27179,108.07634)" d="M4.66248 0C3.28098 .25902 1.0361 1.0361-.51805 1.94269V-1.94269C1.0361-1.0361 3.28098-.25902 4.66248 0"/>
<use data-text="x" xlink:href="#font_1_2" transform="matrix(9.963197,0,0,-9.963197,2.2171708,118.99824)"/>
<path transform="matrix(1.00006,0,0,-1.00006,39.97943,88.310398)" stroke-width=".79701" stroke-linecap="round" stroke-linejoin="round" fill="none" stroke="#000000" d="M0 0 45.44054-14.20012"/>
<path transform="matrix(.9544772,.29826788,.29826788,-.9544772,85.4227,102.511348)" d="M4.66248 0C3.28098 .25902 1.0361 1.0361-.51805 1.94269V-1.94269C1.0361-1.0361 3.28098-.25902 4.66248 0"/>
<use data-text="y" xlink:href="#font_1_3" transform="matrix(9.963197,0,0,-9.963197,93.59265,111.91081)"/>
<path transform="matrix(1.00006,0,0,-1.00006,39.97943,88.310398)" stroke-width=".79701" stroke-linecap="round" stroke-linejoin="round" fill="none" stroke="#000000" d="M0-45.9216V59.11742"/>
<path transform="matrix(0,-1.00006,-1.00006,-0,39.97943,29.18943)" d="M4.66248 0C3.28098 .25902 1.0361 1.0361-.51805 1.94269V-1.94269C1.0361-1.0361 3.28098-.25902 4.66248 0"/>
<use data-text="z" xlink:href="#font_1_4" transform="matrix(9.963197,0,0,-9.963197,37.443277,20.80735)"/>
<path transform="matrix(1.00006,0,0,-1.00006,39.97943,88.310398)" d="M9.69966-43.9372C9.69966-43.27692 9.1644-42.74167 8.50414-42.74167 7.84386-42.74167 7.30861-43.27692 7.30861-43.9372 7.30861-44.59746 7.84386-45.13272 8.50414-45.13272 9.1644-45.13272 9.69966-44.59746 9.69966-43.9372ZM8.50414-43.9372"/>
<path transform="matrix(1.00006,0,0,-1.00006,39.97943,88.310398)" d="M38.04645-21.2601C38.04645-20.59982 37.5112-20.06456 36.85092-20.06456 36.19066-20.06456 35.6554-20.59982 35.6554-21.2601 35.6554-21.92036 36.19066-22.45563 36.85092-22.45563 37.5112-22.45563 38.04645-21.92036 38.04645-21.2601ZM36.85092-21.2601"/>
<path transform="matrix(1.00006,0,0,-1.00006,39.97943,88.310398)" d="M-35.6554-29.76381C-35.6554-29.10355-36.19066-28.56828-36.85092-28.56828-37.5112-28.56828-38.04645-29.10355-38.04645-29.76381-38.04645-30.42407-37.5112-30.95934-36.85092-30.95934-36.19066-30.95934-35.6554-30.42407-35.6554-29.76381ZM-36.85092-29.76381"/>
<path transform="matrix(1.00006,0,0,-1.00006,39.97943,88.310398)" d="M-7.30861-7.08672C-7.30861-6.42645-7.84386-5.89119-8.50414-5.89119-9.1644-5.89119-9.69966-6.42645-9.69966-7.08672-9.69966-7.74698-9.1644-8.28224-8.50414-8.28224-7.84386-8.28224-7.30861-7.74698-7.30861-7.08672ZM-8.50414-7.08672"/>
<path transform="matrix(1.00006,0,0,-1.00006,39.97943,88.310398)" stroke-width=".79701" stroke-linecap="round" stroke-linejoin="round" fill="none" stroke="#0000ff" d="M8.50414-43.9372V-52.0307"/>
<path transform="matrix(0,1.00006,1.00006,0,48.48408,140.34421)" d="M4.66248 0C3.28098 .25902 1.0361 1.0361-.51805 1.94269V-1.94269C1.0361-1.0361 3.28098-.25902 4.66248 0" fill="#0000ff"/>
<path transform="matrix(1.00006,0,0,-1.00006,39.97943,88.310398)" stroke-width=".79701" stroke-linecap="round" stroke-linejoin="round" fill="none" stroke="#0000ff" d="M36.85092-21.2601V-29.35359"/>
<path transform="matrix(0,1.00006,1.00006,0,76.832569,117.66574)" d="M4.66248 0C3.28098 .25902 1.0361 1.0361-.51805 1.94269V-1.94269C1.0361-1.0361 3.28098-.25902 4.66248 0" fill="#0000ff"/>
<path transform="matrix(1.00006,0,0,-1.00006,39.97943,88.310398)" stroke-width=".79701" stroke-linecap="round" stroke-linejoin="round" fill="none" stroke="#0000ff" d="M-36.85092-29.76381V-37.85732"/>
<path transform="matrix(0,1.00006,1.00006,0,3.1263009,126.16998)" d="M4.66248 0C3.28098 .25902 1.0361 1.0361-.51805 1.94269V-1.94269C1.0361-1.0361 3.28098-.25902 4.66248 0" fill="#0000ff"/>
<path transform="matrix(1.00006,0,0,-1.00006,39.97943,88.310398)" stroke-width=".79701" stroke-linecap="round" stroke-linejoin="round" fill="none" stroke="#0000ff" d="M-8.50414-7.08672V-15.18022"/>
<path transform="matrix(0,1.00006,1.00006,0,31.474781,103.49152)" d="M4.66248 0C3.28098 .25902 1.0361 1.0361-.51805 1.94269V-1.94269C1.0361-1.0361 3.28098-.25902 4.66248 0" fill="#0000ff"/>
<path transform="matrix(1.00006,0,0,-1.00006,39.97943,88.310398)" d="M-12.97786 14.1734C-12.97786 14.83368-13.51312 15.36893-14.17339 15.36893-14.83366 15.36893-15.36891 14.83368-15.36891 14.1734-15.36891 13.51314-14.83366 12.97787-14.17339 12.97787-13.51312 12.97787-12.97786 13.51314-12.97786 14.1734ZM-14.17339 14.1734"/>
<path transform="matrix(1.00006,0,0,-1.00006,39.97943,88.310398)" d="M23.87306 18.42526C23.87306 19.08553 23.3378 19.62079 22.67754 19.62079 22.01726 19.62079 21.482 19.08553 21.482 18.42526 21.482 17.765 22.01726 17.22974 22.67754 17.22974 23.3378 17.22974 23.87306 17.765 23.87306 18.42526ZM22.67754 18.42526"/>
<path transform="matrix(1.00006,0,0,-1.00006,39.97943,88.310398)" d="M15.36891 36.8505C15.36891 37.51077 14.83366 38.04604 14.17339 38.04604 13.51312 38.04604 12.97786 37.51077 12.97786 36.8505 12.97786 36.19023 13.51312 35.65497 14.17339 35.65497 14.83366 35.65497 15.36891 36.19023 15.36891 36.8505ZM14.17339 36.8505"/>
<path transform="matrix(1.00006,0,0,-1.00006,39.97943,88.310398)" d="M-21.482 32.59865C-21.482 33.25891-22.01726 33.79417-22.67754 33.79417-23.3378 33.79417-23.87306 33.25891-23.87306 32.59865-23.87306 31.93837-23.3378 31.40312-22.67754 31.40312-22.01726 31.40312-21.482 31.93837-21.482 32.59865ZM-22.67754 32.59865"/>
<path transform="matrix(1.00006,0,0,-1.00006,39.97943,88.310398)" stroke-width=".79701" stroke-linecap="round" stroke-linejoin="round" fill="none" stroke="#0000ff" d="M-14.17339 14.1734V22.2669"/>
<path transform="matrix(0,-1.00006,-1.00006,-0,25.805191,66.04216)" d="M4.66248 0C3.28098 .25902 1.0361 1.0361-.51805 1.94269V-1.94269C1.0361-1.0361 3.28098-.25902 4.66248 0" fill="#0000ff"/>
<path transform="matrix(1.00006,0,0,-1.00006,39.97943,88.310398)" stroke-width=".79701" stroke-linecap="round" stroke-linejoin="round" fill="none" stroke="#0000ff" d="M22.67754 18.42526V26.51877"/>
<path transform="matrix(0,-1.00006,-1.00006,-0,62.658334,61.79003)" d="M4.66248 0C3.28098 .25902 1.0361 1.0361-.51805 1.94269V-1.94269C1.0361-1.0361 3.28098-.25902 4.66248 0" fill="#0000ff"/>
<path transform="matrix(1.00006,0,0,-1.00006,39.97943,88.310398)" stroke-width=".79701" stroke-linecap="round" stroke-linejoin="round" fill="none" stroke="#0000ff" d="M14.17339 36.8505V44.944"/>
<path transform="matrix(0,-1.00006,-1.00006,-0,54.15367,43.3637)" d="M4.66248 0C3.28098 .25902 1.0361 1.0361-.51805 1.94269V-1.94269C1.0361-1.0361 3.28098-.25902 4.66248 0" fill="#0000ff"/>
<path transform="matrix(1.00006,0,0,-1.00006,39.97943,88.310398)" stroke-width=".79701" stroke-linecap="round" stroke-linejoin="round" fill="none" stroke="#0000ff" d="M-22.67754 32.59865V40.69215"/>
<path transform="matrix(0,-1.00006,-1.00006,-0,17.300532,47.615804)" d="M4.66248 0C3.28098 .25902 1.0361 1.0361-.51805 1.94269V-1.94269C1.0361-1.0361 3.28098-.25902 4.66248 0" fill="#0000ff"/>
<path transform="matrix(1.00006,0,0,-1.00006,39.97943,88.310398)" d="M9.69966 27.49635C9.69966 28.15663 9.1644 28.6919 8.50414 28.6919 7.84386 28.6919 7.30861 28.15663 7.30861 27.49635 7.30861 26.83609 7.84386 26.30083 8.50414 26.30083 9.1644 26.30083 9.69966 26.83609 9.69966 27.49635ZM8.50414 27.49635"/>
<path transform="matrix(1.00006,0,0,-1.00006,39.97943,88.310398)" d="M38.04645 50.17345C38.04645 50.83372 37.5112 51.36899 36.85092 51.36899 36.19066 51.36899 35.6554 50.83372 35.6554 50.17345 35.6554 49.51318 36.19066 48.97792 36.85092 48.97792 37.5112 48.97792 38.04645 49.51318 38.04645 50.17345ZM36.85092 50.17345"/>
<path transform="matrix(1.00006,0,0,-1.00006,39.97943,88.310398)" d="M-35.6554 41.66974C-35.6554 42.33-36.19066 42.86526-36.85092 42.86526-37.5112 42.86526-38.04645 42.33-38.04645 41.66974-38.04645 41.00948-37.5112 40.47421-36.85092 40.47421-36.19066 40.47421-35.6554 41.00948-35.6554 41.66974ZM-36.85092 41.66974"/>
<path transform="matrix(1.00006,0,0,-1.00006,39.97943,88.310398)" d="M-7.30861 64.34683C-7.30861 65.0071-7.84386 65.54236-8.50414 65.54236-9.1644 65.54236-9.69966 65.0071-9.69966 64.34683-9.69966 63.68657-9.1644 63.1513-8.50414 63.1513-7.84386 63.1513-7.30861 63.68657-7.30861 64.34683ZM-8.50414 64.34683"/>
<path transform="matrix(1.00006,0,0,-1.00006,39.97943,88.310398)" stroke-width=".79701" stroke-linecap="round" stroke-linejoin="round" fill="none" stroke="#0000ff" d="M8.50414 27.49635V45.79448"/>
<path transform="matrix(0,-1.00006,-1.00006,-0,48.48408,42.51317)" d="M4.66248 0C3.28098 .25902 1.0361 1.0361-.51805 1.94269V-1.94269C1.0361-1.0361 3.28098-.25902 4.66248 0" fill="#0000ff"/>
<path transform="matrix(1.00006,0,0,-1.00006,39.97943,88.310398)" stroke-width=".79701" stroke-linecap="round" stroke-linejoin="round" fill="none" stroke="#0000ff" d="M36.85092 50.17345V68.47157"/>
<path transform="matrix(0,-1.00006,-1.00006,-0,76.832569,19.834717)" d="M4.66248 0C3.28098 .25902 1.0361 1.0361-.51805 1.94269V-1.94269C1.0361-1.0361 3.28098-.25902 4.66248 0" fill="#0000ff"/>
<path transform="matrix(1.00006,0,0,-1.00006,39.97943,88.310398)" stroke-width=".79701" stroke-linecap="round" stroke-linejoin="round" fill="none" stroke="#0000ff" d="M-36.85092 41.66974V59.96786"/>
<path transform="matrix(0,-1.00006,-1.00006,-0,3.1263009,28.338936)" d="M4.66248 0C3.28098 .25902 1.0361 1.0361-.51805 1.94269V-1.94269C1.0361-1.0361 3.28098-.25902 4.66248 0" fill="#0000ff"/>
<path transform="matrix(1.00006,0,0,-1.00006,39.97943,88.310398)" stroke-width=".79701" stroke-linecap="round" stroke-linejoin="round" fill="none" stroke="#0000ff" d="M-8.50414 64.34683V82.64496"/>
<path transform="matrix(0,-1.00006,-1.00006,-0,31.474781,5.6604769)" d="M4.66248 0C3.28098 .25902 1.0361 1.0361-.51805 1.94269V-1.94269C1.0361-1.0361 3.28098-.25902 4.66248 0" fill="#0000ff"/>
<path transform="matrix(1.00006,0,0,-1.00006,39.97943,88.310398)" d="M1.49442 0C1.49442 .82533 .82533 1.49442 0 1.49442-.82533 1.49442-1.49442 .82533-1.49442 0-1.49442-.82533-.82533-1.49442 0-1.49442 .82533-1.49442 1.49442-.82533 1.49442 0ZM0 0"/>
<use data-text="(" xlink:href="#font_2_1" transform="matrix(9.963197,0,0,-9.963197,4.908333,99.303058)"/>
<use data-text="0" xlink:href="#font_2_3" transform="matrix(9.963197,0,0,-9.963197,8.7740559,99.303058)"/>
<use data-text="," xlink:href="#font_1_1" transform="matrix(9.963197,0,0,-9.963197,13.76387,99.303058)"/>
<use data-text="0" xlink:href="#font_2_3" transform="matrix(9.963197,0,0,-9.963197,18.192124,99.303058)"/>
<use data-text="," xlink:href="#font_1_1" transform="matrix(9.963197,0,0,-9.963197,23.173432,99.303058)"/>
<use data-text="0" xlink:href="#font_2_3" transform="matrix(9.963197,0,0,-9.963197,27.601685,99.303058)"/>
<use data-text=")" xlink:href="#font_2_2" transform="matrix(9.963197,0,0,-9.963197,32.583284,99.303058)"/>
</svg>
