<svg xmlns="http://www.w3.org/2000/svg" xmlns:xlink="http://www.w3.org/1999/xlink" xmlns:inkscape="http://www.inkscape.org/namespaces/inkscape" version="1.1" width="175" height="101" viewBox="0 0 175 101">
<defs>
<path id="font_1_1" d="M.34999085 .056259157C.36099244 .015258789 .3959961-.0107421879 .43899537-.0107421879 .47399903-.0107421879 .49699403 .012252808 .5130005 .044265748 .5299988 .08027649 .54299929 .14129639 .54299929 .14329529 .54299929 .1532898 .5339966 .1532898 .5309906 .1532898 .5209961 .1532898 .519989 .14929199 .5169983 .13528443 .5029907 .07926941 .48399354 .011245728 .44198609 .011245728 .42099 .011245728 .41099549 .024261475 .41099549 .057266237 .41099549 .07926941 .4229889 .12628174 .43099977 .16130066L.45899964 .2693329C.46199037 .28433229 .47200013 .32234193 .47599793 .3373413 .48098756 .36035157 .4909973 .3983612 .4909973 .40437318 .4909973 .42237855 .47698976 .43138124 .46199037 .43138124 .45700074 .43138124 .43099977 .43037416 .4229889 .3963623 .4039917 .323349 .3600006 .14828491 .34799195 .09527588 .34700013 .091278079 .30699159 .011245728 .23399353 .011245728 .18199158 .011245728 .17199707 .056259157 .17199707 .09327698 .17199707 .14929199 .19999695 .22831726 .22599793 .29733277 .23799134 .3273468 .24299622 .34135438 .24299622 .36035157 .24299622 .405365 .21099854 .4423828 .16099549 .4423828 .06599426 .4423828 .0289917 .29733277 .0289917 .28833009 .0289917 .27833558 .038986207 .27833558 .040985109 .27833558 .050994874 .27833558 .051986696 .28033448 .056991579 .29634095 .08198547 .38336183 .11999512 .42037965 .1579895 .42037965 .16699219 .42037965 .18299866 .41937257 .18299866 .38735963 .18299866 .36335755 .17199707 .3343506 .1659851 .31933595 .1289978 .2203064 .10798645 .15829468 .10798645 .10928345 .10798645 .014251709 .1769867-.0107421879 .23098755-.0107421879 .29699708-.0107421879 .33299256 .03425598 .34999085 .056259157Z"/>
<path id="font_1_2" d="M.46798707 .37236024C.46798707 .42637635 .44198609 .4423828 .42399598 .4423828 .39898683 .4423828 .375 .41636659 .375 .3943634 .375 .38136292 .37998963 .3753662 .3909912 .36434938 .4119873 .3443451 .4249878 .31834413 .4249878 .28233338 .4249878 .24032593 .3639984 .011245728 .24699402 .011245728 .19599915 .011245728 .17298889 .04626465 .17298889 .09828186 .17298889 .15429688 .19999695 .22731018 .23098755 .31033326 .23799134 .3273468 .24299622 .34135438 .24299622 .36035157 .24299622 .405365 .21099854 .4423828 .16099549 .4423828 .066986087 .4423828 .0289917 .29733277 .0289917 .28833009 .0289917 .27833558 .038986207 .27833558 .040985109 .27833558 .050994874 .27833558 .051986696 .28033448 .056991579 .29634095 .085998538 .39736939 .1289978 .42037965 .1579895 .42037965 .1659851 .42037965 .18299866 .42037965 .18299866 .3883667 .18299866 .36335755 .17298889 .3363495 .1659851 .31834413 .12199402 .20230103 .10899353 .15629578 .10899353 .11328125 .10899353 .0052490236 .19699097-.0107421879 .24299622-.0107421879 .41099549-.0107421879 .46798707 .32034303 .46798707 .37236024Z"/>
<path id="font_2_3" d="M.4869995 .32635499C.49299623 .35235597 .5049896 .39837647 .5049896 .40237428 .5049896 .41537477 .49598695 .43138124 .47399903 .43138124 .45999146 .43138124 .44499208 .42237855 .43798829 .41036988 .43299867 .40037538 .36499024 .12928772 .35899354 .09628296 .33799745 .060272218 .2979889 .014251709 .24299622 .014251709 .18099976 .014251709 .18099976 .07727051 .18099976 .09628296 .18099976 .14129639 .19400025 .19030762 .23699951 .30233766 .24499512 .3253479 .25099183 .33935548 .25099183 .35835267 .25099183 .40737916 .21398926 .4423828 .16499329 .4423828 .068984989 .4423828 .0289917 .30033876 .0289917 .28833009 .0289917 .2793274 .035995485 .27633668 .042999269 .27633668 .053985597 .27633668 .054992677 .28233338 .05899048 .29533387 .07998657 .36735536 .11898804 .41737367 .1619873 .41737367 .18299866 .41737367 .18598938 .40237428 .18598938 .3843689 .18598938 .36735536 .18199158 .34934999 .17298889 .3253479 .12599182 .2013092 .11299133 .15930176 .11299133 .11128235 .11299133 .00024414063 .20298767-.0107421879 .23999024-.0107421879 .29699708-.0107421879 .33799745 .024246216 .3619995 .055267335 .3809967-.0107421879 .44699098-.0107421879 .45298768-.0107421879 .48199464-.0107421879 .5069885 .003250122 .5279999 .042251588 .54599 .07527161 .5609894 .13928223 .5609894 .14329529 .5609894 .14828491 .55799868 .1552887 .5479889 .1552887 .5359955 .1552887 .5349884 .15029907 .5309906 .13128662 .5109863 .052261354 .48999024 .014251709 .45599366 .014251709 .43199159 .014251709 .4249878 .03526306 .4249878 .060272218 .4249878 .07926941 .42999269 .09927368 .43899537 .1342926L.46398927 .23731995 .4869995 .32635499Z"/>
<path id="font_3_5" d="M.70799258 .3310089C.7220001 .3310089 .7409973 .3310089 .7409973 .35202027 .7409973 .37402345 .71899417 .37402345 .70399478 .37402345H.09399414C.07899475 .37402345 .056991579 .37402345 .056991579 .35202027 .056991579 .3310089 .07699585 .3310089 .08999634 .3310089H.70799258M.70399478 .12695313C.71899417 .12695313 .7409973 .12695313 .7409973 .14894104 .7409973 .1699524 .7220001 .1699524 .70799258 .1699524H.08999634C.07699585 .1699524 .056991579 .1699524 .056991579 .14894104 .056991579 .12695313 .07899475 .12695313 .09399414 .12695313H.70399478Z"/>
<path id="font_2_4" d="M.48098756 .3693695C.48098756 .43937684 .44400025 .44337464 .43499757 .44337464 .4099884 .44337464 .38398744 .41638185 .38398744 .39337159 .38398744 .3783722 .3929901 .37036134 .3999939 .36436463 .4269867 .33935548 .43598939 .30734254 .43598939 .28134156 .43598939 .23731995 .37298585 .014251709 .25698854 .014251709 .18199158 .014251709 .18199158 .08427429 .18199158 .10227966 .18199158 .14529419 .19599915 .19630432 .23098755 .28733827 .24699402 .3293457 .25099183 .33935548 .25099183 .35835267 .25099183 .40737916 .21398926 .4423828 .16499329 .4423828 .068984989 .4423828 .0289917 .30033876 .0289917 .28833009 .0289917 .2793274 .035995485 .27633668 .042999269 .27633668 .053985597 .27633668 .054992677 .28233338 .05899048 .29533387 .07998657 .36836244 .11999512 .41737367 .1619873 .41737367 .18199158 .41737367 .18598938 .40437318 .18598938 .3843689 .18598938 .36735536 .18199158 .34934999 .17298889 .3253479 .13699341 .22932434 .11299133 .16529846 .11299133 .11528015 .11299133 .021255494 .18399048-.0107421879 .25299073-.0107421879 .42099-.0107421879 .48098756 .30534364 .48098756 .3693695Z"/>
<path id="font_4_1" d="M.6749878 .22944641C.69299319 .22944641 .71199038 .22944641 .71199038 .25144959 .71199038 .27246095 .69200137 .27246095 .6749878 .27246095H.12298584C.10598755 .27246095 .085998538 .27246095 .085998538 .25144959 .085998538 .22944641 .10499573 .22944641 .12298584 .22944641H.6749878Z"/>
<path id="font_5_95" d="M.7519989 .088897708C.7519989 .09489441 .7519989 .10687256 .73799136 .10687256 .72499087 .10687256 .72499087 .09788513 .723999 .08988953 .71899417 .026992798 .6879883 .0029907227 .6569977 .0029907227 .625 .0029907227 .6139984 .022994996 .60598757 .039978029 .5970001 .061935426 .58799746 .12983704 .58200076 .17475891 .57398989 .23666382 .5649872 .3035431 .45399476 .33850099 .548996 .36550904 .6269989 .42453004 .6269989 .5025635 .6269989 .601593 .5059967 .6826172 .35899354 .6826172H.039993287V.6516113H.06298828C.13999939 .6516113 .14199829 .64060977 .14199829 .6035919V.07891846C.14199829 .04197693 .13999939 .0309906 .06298828 .0309906H.039993287V0C.08699036 .0029907227 .13699341 .0029907227 .18499756 .0029907227 .23298645 .0029907227 .2829895 .0029907227 .33099366 0V.0309906H.30799867C.23098755 .0309906 .22898865 .04197693 .22898865 .07891846V.32850648H.34899903C.42099 .32850648 .45298768 .29057313 .45700074 .28657533 .4869995 .24963379 .4869995 .23466492 .4869995 .16377259 .4869995 .09687805 .4869995 .052963258 .5349884 .01499939 .58200076-.022003174 .6419983-.022003174 .6529999-.022003174 .7369995-.022003174 .7519989 .064941409 .7519989 .088897708M.5249939 .5025635C.5249939 .41653443 .48098756 .35351563 .34498597 .35351563H.22898865V.6105957C.22898865 .63661196 .23098755 .6456146 .25 .6496124 .25898744 .6516113 .29100038 .6516113 .31199647 .6516113 .397995 .6516113 .5249939 .6516113 .5249939 .5025635Z"/>
<path id="font_5_50" d="M.4269867 .11936951C.4269867 .12637329 .42199708 .13237 .41299439 .13237 .40299989 .13237 .3999939 .12536621 .39898683 .12136841 .36499024 .019256592 .27598573 .01725769 .26098634 .01725769 .21299744 .01725769 .17199707 .044281007 .14898682 .078323367 .115997318 .12736511 .114990238 .18743897 .114990238 .22949219H.3999939C.42199708 .22949219 .4269867 .22949219 .4269867 .25048829 .4269867 .35333253 .37098695 .4482422 .24299622 .4482422 .12298584 .4482422 .0289917 .3443451 .0289917 .22047425 .0289917 .08932495 .13398743-.0107421879 .2559967-.0107421879 .37799073-.0107421879 .4269867 .096343997 .4269867 .11936951M.35899354 .253479H.115997318C.125 .40725709 .21499634 .42323304 .24299622 .42323304 .2979889 .42323304 .35798646 .38130189 .35899354 .253479Z"/>
<path id="font_5_59" d="M.49899293 .40338136C.49899293 .42237855 .4850006 .45336915 .44499208 .45336915 .41600038 .45336915 .37098695 .4423828 .33599855 .40637208 .30899049 .42837525 .269989 .4423828 .22799683 .4423828 .1329956 .4423828 .06098938 .3743744 .06098938 .29537965 .06098938 .2443695 .09098816 .20837403 .10699463 .19337464 .10499573 .19137573 .07699585 .15637207 .07699585 .11038208 .07699585 .07637024 .09298706 .040374757 .11999512 .022369385 .068984989 .005874634 .0289917-.03111267 .0289917-.07809448 .0289917-.14907837 .12799073-.20605469 .2559967-.20605469 .3789978-.20605469 .48399354-.15307617 .48399354-.07609558 .48399354-.035110475 .46499635 .008880615 .42799378 .03288269 .37199403 .067871097 .31399537 .067871097 .21899414 .067871097 .19898987 .067871097 .16699219 .067871097 .15899658 .069885257 .12998963 .075927738 .11099243 .1031189 .11099243 .13534546 .11099243 .15142823 .115997318 .16642761 .125 .1794281 .1499939 .16343689 .18099976 .1484375 .22698975 .1484375 .32199098 .1484375 .3939972 .21643067 .3939972 .29542542 .3939972 .34443666 .3659973 .37843324 .35299684 .39242555 .3929901 .42843629 .43998719 .42843629 .45199586 .42843629 .44699098 .4254303 .43899537 .42042542 .43899537 .4024353 .43899537 .39143373 .44599916 .37243653 .46899415 .37243653 .48298646 .37243653 .49899293 .38243104 .49899293 .40342713V.40338136M.31698609 .29542542C.31698609 .27243043 .31698609 .1754303 .22698975 .1754303 .13798523 .17520142 .13798523 .27326966 .13798523 .2952881 .13798523 .3223114 .13999939 .35632325 .15699768 .38034059 .17199707 .4003601 .19898987 .41537477 .22698975 .41537477 .31698609 .41537477 .31698609 .31829835 .31698609 .2952881V.29542542M.42799378-.07698059C.42799378-.1340332 .35099793-.17906189 .25698854-.17906189 .15899658-.17912293 .084991458-.13212586 .084991458-.07711792 .084991458-.06112671 .09498596 .0048828127 .18099976 .0048828127H.272995C.30499269 .0048828127 .42799378 .0038757325 .42799378-.07711792V-.07698059Z"/>
<path id="font_5_66" d="M.25299073 0V.0309906C.18798828 .0309906 .18399048 .035995485 .18399048 .075042728V.4423828L.039993287 .43066407V.3996582C.10398865 .3996582 .11299133 .3936615 .11299133 .3447113V.07695007C.11299133 .0309906 .101989749 .0309906 .035995485 .0309906V0C.08099365 .0019989014 .101989749 .0029907227 .1459961 .0029907227 .1619873 .0029907227 .20399475 .0029907227 .25299073 0M.19699097 .6028137C.19699097 .63282778 .17298889 .6568146 .14299011 .6568146 .11299133 .6568146 .08898926 .63282778 .08898926 .6028137 .08898926 .57281497 .11299133 .5488281 .14299011 .5488281 .17298889 .5488281 .19699097 .57281497 .19699097 .6028137Z"/>
<path id="font_5_81" d="M.48399354 .21324158C.48399354 .34423829 .37998963 .4482422 .25698854 .4482422 .12998963 .4482422 .0289917 .3412323 .0289917 .21324158 .0289917 .08824158 .1329956-.0107421879 .2559967-.0107421879 .3829956-.0107421879 .48399354 .09024048 .48399354 .21324158M.397995 .22224427C.397995 .1852417 .397995 .12724304 .37298585 .08325195 .34498597 .037246705 .29899598 .01725769 .25698854 .01725769 .20698548 .01725769 .16499329 .042251588 .14199829 .08125305 .115997318 .12324524 .114990238 .17623902 .114990238 .22224427 .114990238 .25924684 .114990238 .3162384 .13999939 .35723878 .16999817 .40823365 .21998596 .42323304 .2559967 .42323304 .31298829 .42323304 .35398866 .39123536 .37399293 .35723878 .39698792 .31523133 .397995 .26423646 .397995 .22224427Z"/>
<path id="font_5_77" d="M.5469971 0V.0309906C.49598695 .03125 .47099305 .03125 .46998597 .0622406V.25431825C.46998597 .3373413 .46998597 .36636354 .44198609 .4013672 .4189911 .42938233 .3809967 .4423828 .33099366 .4423828 .23799134 .4423828 .19499207 .37335206 .18099976 .34535218H.17999268V.4423828L.034988405 .43066407V.3996582C.102996829 .3996582 .11199951 .39266969 .11199951 .34370423V.07695007C.11199951 .0309906 .100997928 .0309906 .034988405 .0309906V0C.08198547 .0019989014 .100997928 .0029907227 .14898682 .0029907227 .19699097 .0029907227 .20999146 .0019989014 .2630005 0V.0309906C.19699097 .0309906 .18598938 .0309906 .18598938 .07695007V.25878907C.18598938 .36532594 .26098634 .41737367 .32398988 .41737367 .3829956 .41737367 .3959961 .3683319 .3959961 .30825807V.077041629C.3959961 .0309906 .3849945 .0309906 .31900025 .0309906V0C.3659973 .0019989014 .3849945 .0029907227 .43299867 .0029907227 .48098756 .0029907227 .49398805 .0019989014 .5469971 0Z"/>
<path id="font_2_2" d="M.6539917 .67807009C.6569977 .68907168 .6569977 .69107058 .6569977 .69407656 .6569977 .69506838 .6559906 .7050781 .644989 .7050781 .6399994 .7050781 .6389923 .70407107 .6269989 .6900635 .61299136 .6750641 .625 .6880646 .57899478 .6340332 .5419922 .6900635 .48399354 .7050781 .43099977 .7050781 .3019867 .7050781 .17999268 .58999636 .17999268 .46990968 .17999268 .42886354 .19299317 .39483644 .21899414 .3668213 .24798584 .336792 .272995 .3307953 .34498597 .31178285L.42900086 .29075624C.46099855 .27975465 .49398805 .24871826 .49398805 .19168091 .49398805 .1026001 .40899659 .008529663 .30899049 .008529663 .25 .008529663 .1309967 .026550293 .1309967 .15464783 .1309967 .16365052 .1309967 .17866516 .13699341 .20869446 .13899231 .21269226 .13899231 .21469116 .13899231 .21569824 .13899231 .21969605 .13699341 .22669983 .125 .22669983 .11299133 .22669983 .11199951 .2217102 .10798645 .20469666L.054992677-.011474609C.054992677-.017471314 .05999756-.022460938 .066986087-.022460938 .07199097-.022460938 .07299805-.021469117 .085998538-.007461548 .09199524-.00047302247 .12098694 .03555298 .1329956 .048568727 .18499756-.018463135 .2769928-.022460938 .30699159-.022460938 .44499208-.022460938 .5649872 .10661316 .5649872 .23271179 .5649872 .35681153 .46699525 .38183595 .43598939 .38883973L.34498597 .41285707C.31199647 .42086793 .25099183 .4368744 .25099183 .51293948 .25099183 .5890045 .33099366 .677063 .43099977 .677063 .47099305 .677063 .5099945 .6660614 .5379944 .63804629 .57598879 .6010132 .57699587 .54696658 .57699587 .5209503 .57699587 .48791505 .57299807 .47691346 .57299807 .4689026 .57299807 .46089173 .57699587 .45588685 .58699038 .45588685 .59799197 .45588685 .59799197 .457901 .6029968 .47691346L.6539917 .67807009Z"/>
<path id="font_6_1" d="M.45999146 .31976319C.45999146 .39982606 .45498658 .47988893 .41999818 .5539398 .37399293 .65000918 .2919922 .6660156 .25 .6660156 .18998719 .6660156 .116989139 .64001467 .07598877 .54693606 .04399109 .47789 .038986207 .39982606 .038986207 .31976319 .038986207 .24472046 .042999269 .15464783 .083999637 .07859802 .1269989-.0024719239 .19999695-.022460938 .24899292-.022460938 .30299378-.022460938 .3789978-.0014648438 .4229889 .09359741 .45498658 .16265869 .45999146 .2407074 .45999146 .31976319M.24899292-.00047302247C.20999146-.00047302247 .15098572 .024551392 .1329956 .12062073 .12199402 .18066406 .12199402 .2727356 .12199402 .3317871 .12199402 .39582826 .12199402 .46188355 .12998963 .5159149 .14898682 .63500979 .22399903 .64401248 .24899292 .64401248 .28199769 .64401248 .34799195 .6259918 .36698915 .52693179 .3769989 .47088624 .3769989 .39482118 .3769989 .3317871 .3769989 .25672914 .3769989 .18867493 .3659973 .12461853 .35099793 .029556275 .2939911-.00047302247 .24899292-.00047302247Z"/>
<path id="font_3_3" d="M.3039856 .6392822C.3039856 .6642761 .30299378 .666275 .27799989 .666275 .21598816 .60227969 .12399292 .60227969 .09298706 .60227969V.57128909C.11199951 .57128909 .17298889 .57128909 .22698975 .5972748V.08001709C.22698975 .042999269 .22399903 .0309906 .1309967 .0309906H.09899902V0C.1349945 .0029907227 .22399903 .0029907227 .2649994 .0029907227 .30599977 .0029907227 .3959961 .0029907227 .43199159 0V.0309906H.3999939C.30699159 .0309906 .3039856 .042999269 .3039856 .08001709V.6392822Z"/>
<path id="font_3_4" d="M.46199037 .17704773H.43399049C.43199159 .16404724 .42399598 .10501099 .41099549 .08900452 .40499879 .07998657 .33599855 .07998657 .31599427 .07998657H.13798523L.23699951 .17404175C.40098573 .3161316 .46199037 .36915589 .46199037 .4711914 .46199037 .5860901 .36698915 .6660156 .24398804 .6660156 .1289978 .6660156 .050994874 .575119 .050994874 .4841919 .050994874 .43418885 .09399414 .42919923 .102996829 .42919923 .125 .42919923 .15499878 .44519044 .15499878 .48120118 .15499878 .51119998 .13398743 .5332031 .102996829 .5332031 .09799194 .5332031 .09498596 .5332031 .09098816 .53219607 .114990238 .6030731 .1789856 .63500979 .23298645 .63500979 .33499146 .63500979 .36999513 .5401764 .36999513 .4711914 .36999513 .36915589 .29299928 .28611756 .24499512 .23408509L.06199646 .035995485C.050994874 .024993897 .050994874 .022994996 .050994874 0H.43399049L.46199037 .17704773Z"/>
<path id="font_3_1" d="M.34098817-.23803711C.34098817-.23303223 .33799745-.23002625 .33198548-.22303772 .20298767-.105026248 .1639862 .07498169 .1639862 .24996948 .1639862 .40498353 .19400025 .59298709 .33499146 .72698977 .33898927 .73098757 .34098817 .73399356 .34098817 .7389984 .34098817 .74598696 .33599855 .75 .32899476 .75 .31698609 .75 .22698975 .6779785 .17298889 .568985 .125 .47297669 .100997928 .36997987 .100997928 .25097657 .100997928 .17897034 .10998535 .064971927 .16499329-.053024293 .22399903-.17602539 .31698609-.24902344 .32899476-.24902344 .33599855-.24902344 .34098817-.24502564 .34098817-.23803711Z"/>
<path id="font_2_1" d="M.18199158 .015991211C.18199158-.017044068 .18199158-.09921265 .10798645-.17036438 .101989749-.17636109 .101989749-.17736817 .101989749-.18136597 .101989749-.18836975 .10899353-.19335938 .114990238-.19335938 .12599182-.19335938 .20698548-.115249637 .20698548 .0019989014 .20698548 .06399536 .18499756 .10798645 .14199829 .10798645 .10798645 .10798645 .08799744 .08198547 .08799744 .053985597 .08799744 .025985718 .10798645 0 .14199829 0 .15699768 0 .17199707 .004989624 .18199158 .015991211Z"/>
<path id="font_3_2" d="M.2979889 .25097657C.2979889 .3329773 .28599549 .4429779 .23399353 .5539856 .1749878 .6769867 .08198547 .75 .069992069 .75 .05999756 .75 .057998659 .74198916 .057998659 .7389984 .057998659 .73399356 .05999756 .73098757 .066986087 .72398379 .125 .6719818 .23498535 .5359802 .23498535 .25097657 .23498535 .10797119 .20899964-.091033939 .06399536-.22602844 .06199646-.22903443 .057998659-.23303223 .057998659-.23803711 .057998659-.24102783 .05999756-.24902344 .069992069-.24902344 .08198547-.24902344 .17199707-.17703247 .22599793-.06802368 .27398683 .02796936 .2979889 .13098145 .2979889 .25097657Z"/>
</defs>
<path transform="matrix(1.00002,0,0,-1.00005,90.98352,89.1088)" d="M-28.3468 34.0161H28.3468L56.69362 68.0322H-56.69362Z" fill="#d9d9ff"/>
<path transform="matrix(1.00002,0,0,-1.00005,90.98352,89.1088)" stroke-width=".79701" stroke-linecap="butt" stroke-miterlimit="10" stroke-linejoin="miter" fill="none" stroke="#000000" d="M-70.867 0H66.20453"/>
<path transform="matrix(1.00002,0,0,-1.00005,157.18938,89.1088)" d="M4.66248 0C3.28098 .25902 1.0361 1.0361-.51805 1.94269V-1.94269C1.0361-1.0361 3.28098-.25902 4.66248 0"/>
<use data-text="u" xlink:href="#font_1_1" transform="matrix(9.962799,0,0,-9.963098,158.99988,97.1182)"/>
<path transform="matrix(1.00002,0,0,-1.00005,90.98352,89.1088)" stroke-width=".79701" stroke-linecap="butt" stroke-miterlimit="10" stroke-linejoin="miter" fill="none" stroke="#000000" d="M0-10.20491V80.37776"/>
<path transform="matrix(0,-1.00005,-1.00002,-0,90.98352,8.727028)" d="M4.66248 0C3.28098 .25902 1.0361 1.0361-.51805 1.94269V-1.94269C1.0361-1.0361 3.28098-.25902 4.66248 0"/>
<use data-text="v" xlink:href="#font_1_2" transform="matrix(9.962799,0,0,-9.963098,82.07734,6.2096636)"/>
<path transform="matrix(1.00002,0,0,-1.00005,90.98352,89.1088)" stroke-width=".79701" stroke-linecap="butt" stroke-miterlimit="10" stroke-linejoin="miter" fill="none" stroke="#0000cc" d="M-28.3468 34.0161H28.3468L56.69362 68.0322H-56.69362Z"/>
<path transform="matrix(1.00002,0,0,-1.00005,90.98352,89.1088)" stroke-width=".3985" stroke-linecap="butt" stroke-dasharray="2.98883,2.98883" stroke-miterlimit="10" stroke-linejoin="miter" fill="none" stroke="#7f807f" d="M-56.69362 34.0161H56.69362"/>
<path transform="matrix(1.00002,0,0,-1.00005,90.98352,89.1088)" stroke-width=".3985" stroke-linecap="butt" stroke-dasharray="2.98883,2.98883" stroke-miterlimit="10" stroke-linejoin="miter" fill="none" stroke="#7f807f" d="M-56.69362 68.0322H56.69362"/>
<path transform="matrix(1.00002,0,0,-1.00005,90.98352,89.1088)" stroke-width=".3985" stroke-linecap="butt" stroke-miterlimit="10" stroke-linejoin="miter" fill="none" stroke="#000099" d="M0 0 2.36208 2.83449 4.72415 5.66899 7.08626 8.5035 9.44833 11.338 11.81044 14.17249 14.17252 17.00699 16.53462 19.84149 18.8967 22.676 21.25879 25.51051 23.62088 28.345 25.98297 31.1795 28.34506 34.014 30.70715 36.84851 33.06924 39.68301 35.43134 42.5175 37.79341 45.352 40.15552 48.18652 42.5176 51.02103 44.8797 53.85553 47.24178 56.69002 49.60388 59.52452 51.96596 62.35902 54.32805 65.19353 56.69014 68.02803"/>
<use data-text="u" xlink:href="#font_2_3" transform="matrix(8.966579,0,0,-8.966848,151.19474,23.0075)" fill="#000099"/>
<use data-text="=" xlink:href="#font_3_5" transform="matrix(8.966579,0,0,-8.966848,159.05789,23.0075)" fill="#000099"/>
<use data-text="v" xlink:href="#font_2_4" transform="matrix(8.966579,0,0,-8.966848,168.7851,23.0075)" fill="#000099"/>
<path transform="matrix(1.00002,0,0,-1.00005,90.98352,89.1088)" stroke-width=".3985" stroke-linecap="butt" stroke-miterlimit="10" stroke-linejoin="miter" fill="none" stroke="#000099" d="M0 0-2.36208 2.83449-4.72415 5.66899-7.08626 8.5035-9.44833 11.338-11.81044 14.17249-14.17252 17.00699-16.53462 19.84149-18.8967 22.676-21.25879 25.51051-23.62088 28.345-25.98297 31.1795-28.34506 34.014-30.70715 36.84851-33.06924 39.68301-35.43134 42.5175-37.79341 45.352-40.15552 48.18652-42.5176 51.02103-44.8797 53.85553-47.24178 56.69002-49.60388 59.52452-51.96596 62.35902-54.32805 65.19353-56.69014 68.02803"/>
<use data-text="u" xlink:href="#font_2_3" transform="matrix(8.966579,0,0,-8.966848,1.2157135,23.319512)" fill="#000099"/>
<use data-text="=" xlink:href="#font_3_5" transform="matrix(8.966579,0,0,-8.966848,9.078873,23.319512)" fill="#000099"/>
<use data-text="&#x2212;" xlink:href="#font_4_1" transform="matrix(8.966579,0,0,-8.966848,18.806077,23.319512)" fill="#000099"/>
<use data-text="v" xlink:href="#font_2_4" transform="matrix(8.966579,0,0,-8.966848,25.974213,23.319512)" fill="#000099"/>
<use data-text="R" xlink:href="#font_5_95" transform="matrix(8.966579,0,0,-8.966848,72.48615,40.222364)"/>
<use data-text="e" xlink:href="#font_5_50" transform="matrix(8.966579,0,0,-8.966848,79.264888,40.222364)"/>
<use data-text="g" xlink:href="#font_5_59" transform="matrix(8.966579,0,0,-8.966848,83.3626,40.222364)"/>
<use data-text="i" xlink:href="#font_5_66" transform="matrix(8.966579,0,0,-8.966848,87.97143,40.222364)"/>
<use data-text="o" xlink:href="#font_5_81" transform="matrix(8.966579,0,0,-8.966848,90.53588,40.222364)"/>
<use data-text="n" xlink:href="#font_5_77" transform="matrix(8.966579,0,0,-8.966848,95.14471,40.222364)"/>
<use data-text="S" xlink:href="#font_2_2" transform="matrix(8.966579,0,0,-8.966848,103.33976,40.222364)"/>
<path transform="matrix(1.00002,0,0,-1.00005,90.98352,89.1088)" d="M1.49442 0C1.49442 .82533 .82533 1.49442 0 1.49442-.82533 1.49442-1.49442 .82533-1.49442 0-1.49442-.82533-.82533-1.49442 0-1.49442 .82533-1.49442 1.49442-.82533 1.49442 0ZM0 0"/>
<use data-text="0" xlink:href="#font_6_1" transform="matrix(9.962799,0,0,-9.963098,82.482349,99.0493)"/>
<use data-text="1" xlink:href="#font_3_3" transform="matrix(8.966579,0,0,-8.966848,82.855358,57.980249)"/>
<use data-text="2" xlink:href="#font_3_4" transform="matrix(8.966579,0,0,-8.966848,82.855358,23.962555)"/>
<path transform="matrix(1.00002,0,0,-1.00005,90.98352,89.1088)" d="M29.54233 34.0161C29.54233 34.67636 29.00706 35.21162 28.3468 35.21162 27.68654 35.21162 27.15128 34.67636 27.15128 34.0161 27.15128 33.35582 27.68654 32.82056 28.3468 32.82056 29.00706 32.82056 29.54233 33.35582 29.54233 34.0161ZM28.3468 34.0161"/>
<use data-text="(" xlink:href="#font_3_1" transform="matrix(8.966579,0,0,-8.966848,122.85116,65.33662)"/>
<use data-text="1" xlink:href="#font_3_3" transform="matrix(8.966579,0,0,-8.966848,126.428829,65.33662)"/>
<use data-text="," xlink:href="#font_2_1" transform="matrix(8.966579,0,0,-8.966848,131.04233,65.33662)"/>
<use data-text="1" xlink:href="#font_3_3" transform="matrix(8.966579,0,0,-8.966848,135.1384,65.33662)"/>
<use data-text=")" xlink:href="#font_3_2" transform="matrix(8.966579,0,0,-8.966848,139.73825,65.33662)"/>
<path transform="matrix(1.00002,0,0,-1.00005,90.98352,89.1088)" d="M57.88914 68.0322C57.88914 68.69246 57.35388 69.22772 56.69362 69.22772 56.03334 69.22772 55.49808 68.69246 55.49808 68.0322 55.49808 67.37192 56.03334 66.83665 56.69362 66.83665 57.35388 66.83665 57.88914 67.37192 57.88914 68.0322ZM56.69362 68.0322"/>
<use data-text="(" xlink:href="#font_3_1" transform="matrix(8.966579,0,0,-8.966848,151.19773,15.311119)"/>
<use data-text="2" xlink:href="#font_3_4" transform="matrix(8.966579,0,0,-8.966848,154.77539,15.311119)"/>
<use data-text="," xlink:href="#font_2_1" transform="matrix(8.966579,0,0,-8.966848,159.38889,15.311119)"/>
<use data-text="2" xlink:href="#font_3_4" transform="matrix(8.966579,0,0,-8.966848,163.48496,15.311119)"/>
<use data-text=")" xlink:href="#font_3_2" transform="matrix(8.966579,0,0,-8.966848,168.08481,15.311119)"/>
<path transform="matrix(1.00002,0,0,-1.00005,90.98352,89.1088)" d="M-27.15128 34.0161C-27.15128 34.67636-27.68654 35.21162-28.3468 35.21162-29.00706 35.21162-29.54233 34.67636-29.54233 34.0161-29.54233 33.35582-29.00706 32.82056-28.3468 32.82056-27.68654 32.82056-27.15128 33.35582-27.15128 34.0161ZM-28.3468 34.0161"/>
<use data-text="(" xlink:href="#font_3_1" transform="matrix(8.966579,0,0,-8.966848,31.46933,65.33662)"/>
<use data-text="&#x2212;" xlink:href="#font_4_1" transform="matrix(8.966579,0,0,-8.966848,35.053407,65.33662)"/>
<use data-text="1" xlink:href="#font_3_3" transform="matrix(8.966579,0,0,-8.966848,42.22055,65.33662)"/>
<use data-text="," xlink:href="#font_2_1" transform="matrix(8.966579,0,0,-8.966848,46.828645,65.33662)"/>
<use data-text="1" xlink:href="#font_3_3" transform="matrix(8.966579,0,0,-8.966848,50.92473,65.33662)"/>
<use data-text=")" xlink:href="#font_3_2" transform="matrix(8.966579,0,0,-8.966848,55.524583,65.33662)"/>
<path transform="matrix(1.00002,0,0,-1.00005,90.98352,89.1088)" d="M-55.49808 68.0322C-55.49808 68.69246-56.03334 69.22772-56.69362 69.22772-57.35388 69.22772-57.88914 68.69246-57.88914 68.0322-57.88914 67.37192-57.35388 66.83665-56.69362 66.83665-56.03334 66.83665-55.49808 67.37192-55.49808 68.0322ZM-56.69362 68.0322"/>
<use data-text="(" xlink:href="#font_3_1" transform="matrix(8.966579,0,0,-8.966848,3.1217499,15.311119)"/>
<use data-text="&#x2212;" xlink:href="#font_4_1" transform="matrix(8.966579,0,0,-8.966848,6.705826,15.311119)"/>
<use data-text="2" xlink:href="#font_3_4" transform="matrix(8.966579,0,0,-8.966848,13.872971,15.311119)"/>
<use data-text="," xlink:href="#font_2_1" transform="matrix(8.966579,0,0,-8.966848,18.481064,15.311119)"/>
<use data-text="2" xlink:href="#font_3_4" transform="matrix(8.966579,0,0,-8.966848,22.577149,15.311119)"/>
<use data-text=")" xlink:href="#font_3_2" transform="matrix(8.966579,0,0,-8.966848,27.177002,15.311119)"/>
</svg>
