<svg xmlns="http://www.w3.org/2000/svg" xmlns:xlink="http://www.w3.org/1999/xlink" xmlns:inkscape="http://www.inkscape.org/namespaces/inkscape" version="1.1" width="409" height="262" viewBox="0 0 409 262">
<defs>
<clipPath id="clip_1">
<path transform="matrix(1.00002,0,0,-1.0001,12.323944,112.62397)" d="M0 0H91.23163V91.23163H0Z"/>
</clipPath>
<path id="font_2_97" d="M.49899293 .18579102C.49899293 .2858429 .43299867 .36791993 .34899903 .38793946L.22099304 .4189453C.15899658 .43388368 .11999512 .48773194 .11999512 .5458069 .11999512 .61595156 .17399597 .677063 .2519989 .677063 .4189911 .677063 .44099427 .5127411 .44699098 .46777345 .44799806 .461792 .44799806 .45581056 .45899964 .45581056 .47200013 .45581056 .47200013 .46080018 .47200013 .47973634V.68107607C.47200013 .69807437 .47200013 .7050781 .46099855 .7050781 .45399476 .7050781 .45298768 .70407107 .44599916 .69207766L.41099549 .63497927C.3809967 .66404727 .33999635 .7050781 .25099183 .7050781 .13999939 .7050781 .055999757 .61694338 .055999757 .5107422 .055999757 .42790223 .10899353 .35490418 .18699646 .32788087 .19799805 .32388307 .24899292 .3118744 .31900025 .29486085 .34599305 .28785707 .37599183 .280838 .4039917 .24382019 .4249878 .2177887 .43499757 .18478394 .43499757 .1517334 .43499757 .0806427 .3849945 .008529663 .30099488 .008529663 .27198792 .008529663 .19599915 .013534546 .14299011 .06260681 .084991458 .11668396 .08198547 .18078614 .08099365 .21679688 .07998657 .22679138 .07199097 .22679138 .068984989 .22679138 .055999757 .22679138 .055999757 .2197876 .055999757 .20178223V.0015258789C.055999757-.015472412 .055999757-.022460938 .066986087-.022460938 .07398987-.022460938 .07499695-.020462037 .08198547-.009475708 .08198547-.009475708 .084991458-.0054626467 .117996219 .047592164 .14898682 .013534546 .21299744-.022460938 .3019867-.022460938 .4189911-.022460938 .49899293 .07562256 .49899293 .18579102Z"/>
<path id="font_2_105" d="M.33198548 .12385559V.18066406H.30699159V.12585449C.30699159 .052108766 .2769928 .014251709 .23999024 .014251709 .17298889 .014251709 .17298889 .10491943 .17298889 .12187195V.3996582H.31599427V.43066407H.17298889V.6142578H.147995C.14698792 .5324249 .116989139 .42565919 .018997193 .42166139V.3996582H.10398865V.12408447C.10398865 .0012512207 .19699097-.0107421879 .23298645-.0107421879 .3039856-.0107421879 .33198548 .060180665 .33198548 .12408447V.12385559Z"/>
<path id="font_2_96" d="M.3639984 .38137818C.3639984 .41337586 .33299256 .4423828 .2899933 .4423828 .21699524 .4423828 .18099976 .37538148 .16699219 .3323822V.4423828L.027999878 .43066407V.3996582C.09799194 .3996582 .10598755 .39266969 .10598755 .34370423V.07595825C.10598755 .0309906 .09498596 .0309906 .027999878 .0309906V0L.14199829 .0029907227C.18199158 .0029907227 .22898865 .0029907227 .2689972 0V.0309906H.24798584C.17399597 .0309906 .17199707 .04197693 .17199707 .07795715V.23181153C.17199707 .33137513 .21398926 .42037965 .2899933 .42037965 .29699708 .42037965 .29899598 .42037965 .30099488 .41937257 .2979889 .41838075 .27799989 .40637208 .27799989 .3803711 .27799989 .35237123 .29899598 .33737184 .32099916 .33737184 .33898927 .33737184 .3639984 .3493805 .3639984 .38137818Z"/>
<path id="font_2_81" d="M.47099305 .21424866C.47099305 .34223939 .37098695 .4482422 .25 .4482422 .125 .4482422 .027999878 .3392334 .027999878 .21424866 .027999878 .085250858 .13198853-.0107421879 .24899292-.0107421879 .36999513-.0107421879 .47099305 .087249759 .47099305 .21424866M.3880005 .22224427C.3880005 .18624878 .3880005 .13224793 .3659973 .08824158 .34399415 .04324341 .2999878 .014251709 .25 .014251709 .20698548 .014251709 .16299439 .035247804 .13598633 .08125305 .11099243 .12524414 .11099243 .18624878 .11099243 .22224427 .11099243 .26124574 .11099243 .31523133 .1349945 .35923768 .1619873 .40522767 .20899964 .426239 .24899292 .426239 .29299928 .426239 .33599855 .40423585 .3619995 .36123658 .3880005 .3182373 .3880005 .26023866 .3880005 .22224427Z"/>
<path id="font_2_77" d="M.5349884 0V.0309906C.48298646 .0309906 .45799256 .0309906 .45700074 .061019899V.25221253C.45700074 .3383026 .45700074 .36932374 .42599488 .405365 .4119873 .42237855 .3789978 .4423828 .32099916 .4423828 .24798584 .4423828 .20098877 .39935304 .17298889 .33729554V.4423828L.03199768 .43066407V.3996582C.101989749 .3996582 .10998535 .39266969 .10998535 .34370423V.07595825C.10998535 .0309906 .09899902 .0309906 .03199768 .0309906V0L.14498902 .0029907227 .25698854 0V.0309906C.18998719 .0309906 .1789856 .0309906 .1789856 .07595825V.25978089C.1789856 .36431886 .25 .42037965 .31399537 .42037965 .3769989 .42037965 .3880005 .36631776 .3880005 .30926515V.076034549C.3880005 .0309906 .3769989 .0309906 .30999757 .0309906V0L.4229889 .0029907227 .5349884 0Z"/>
<path id="font_2_59" d="M.4850006 .40411378C.4850006 .42111207 .47299195 .453125 .43399049 .453125 .4139862 .453125 .36999513 .44711305 .32798768 .40611268 .28599549 .43937684 .24398804 .4423828 .22200012 .4423828 .1289978 .4423828 .05999756 .37338258 .05999756 .29638673 .05999756 .25239564 .08198547 .21440125 .10699463 .19340515 .09399414 .17840576 .07598877 .14538574 .07598877 .11035156 .07598877 .07899475 .08898926 .04083252 .11999512 .020828248 .05999756 .003829956 .027999878-.039138795 .027999878-.07911682 .027999878-.15107727 .1269989-.20605469 .24899292-.20605469 .36698915-.20605469 .47099305-.15507508 .47099305-.07711792 .47099305-.042144777 .45700074 .008834839 .4059906 .036834718 .35299684 .064834598 .29499818 .064834598 .23399353 .064834598 .20899964 .064834598 .1659851 .064834598 .15899658 .065841678 .1269989 .069885257 .10598755 .101242069 .10598755 .13334656 .10598755 .13735962 .10598755 .16040039 .12298584 .18040467 .1619873 .15240479 .20298767 .14941406 .22200012 .14941406 .31498719 .14941406 .38398744 .21839905 .38398744 .2953949 .38398744 .3323822 .36799623 .36938478 .34298707 .39237977 .3789978 .42637635 .4149933 .43138124 .43299867 .43138124 .43299867 .43112184 .43998719 .43112184 .44299317 .43011476 .43199159 .42611695 .4269867 .41513063 .4269867 .40315248 .4269867 .38616944 .43998719 .37417604 .45599366 .37417604 .46598817 .37417604 .4850006 .3811798 .4850006 .4041443V.40411378M.30899049 .29626466C.30899049 .26930238 .30799867 .2373352 .29299928 .21235657 .2849884 .20037842 .2619934 .17240906 .22200012 .17240906 .1349945 .17240906 .1349945 .2722931 .1349945 .29527284 .1349945 .3222351 .13598633 .35420228 .15098572 .3791809 .15899658 .3913269 .18199158 .41937257 .22200012 .41937257 .30899049 .41937257 .30899049 .31922914 .30899049 .29618836V.29626466M.4189911-.07911682C.4189911-.13308716 .34799195-.18305969 .25-.18305969 .14898682-.18305969 .07998657-.13209534 .07998657-.07911682 .07998657-.03314209 .117996219 .003829956 .1619873 .0068359377H.22099304C.30699159 .0068359377 .4189911 .0068359377 .4189911-.07911682Z"/>
<path id="font_2_83" d="M.6239929 .4967041C.6239929 .59465029 .5249939 .6826172 .3880005 .6826172H.034988405V.6516113H.05899048C.13598633 .6516113 .13798523 .64060977 .13798523 .6046295V.07795715C.13798523 .041992189 .13598633 .0309906 .05899048 .0309906H.034988405V0C.069992069 .0029907227 .14399719 .0029907227 .18199158 .0029907227 .21998596 .0029907227 .29499818 .0029907227 .32998658 0V.0309906H.30599977C.22898865 .0309906 .22698975 .041992189 .22698975 .07795715V.3157959H.3959961C.5159912 .3157959 .6239929 .39675904 .6239929 .4967041M.5209961 .4967041C.5209961 .4497223 .5209961 .34179688 .3619995 .34179688H.22399903V.6116333C.22399903 .64460757 .22599793 .6516113 .272995 .6516113H.3619995C.5209961 .6516113 .5209961 .54566958 .5209961 .4967041Z"/>
<path id="font_2_98" d="M.3600006 .12823487C.3600006 .18122864 .32998658 .21122742 .31799317 .22323609 .2849884 .25523377 .24598694 .26322938 .20399475 .27124024 .147995 .28224183 .08099365 .29522706 .08099365 .35324098 .08099365 .38822938 .10699463 .42922975 .19299317 .42922975 .30299378 .42922975 .30799867 .3392334 .30999757 .30822755 .31098939 .2992401 .32199098 .2992401 .32199098 .2992401 .33499146 .2992401 .33499146 .30422975 .33499146 .32322694V.4242401C.33499146 .4412384 .33499146 .4482422 .32398988 .4482422 .31900025 .4482422 .31698609 .4482422 .3039856 .43623353 .30099488 .43223573 .29100038 .42323304 .2869873 .42022706 .24899292 .4482422 .20799256 .4482422 .19299317 .4482422 .070999149 .4482422 .032989503 .38124085 .032989503 .3252411 .032989503 .29023744 .04899597 .26223756 .07598877 .24023438 .10798645 .2142334 .13598633 .2082367 .20799256 .19422913 .22999573 .19021607 .31199647 .17422486 .31199647 .10221863 .31199647 .051223756 .2769928 .011245728 .19898987 .011245728 .114990238 .011245728 .07899475 .068222049 .05999756 .1532135 .056991579 .16621399 .055999757 .17021179 .04598999 .17021179 .032989503 .17021179 .032989503 .16322327 .032989503 .1452179V.013214111C.032989503-.003753662 .032989503-.0107421879 .04399109-.0107421879 .04899597-.0107421879 .049987794-.009750366 .068984989 .009246826 .070999149 .011245728 .070999149 .013214111 .08898926 .032226564 .1329956-.009750366 .17799378-.0107421879 .19898987-.0107421879 .31399537-.0107421879 .3600006 .05621338 .3600006 .1282196V.12823487Z"/>
<path id="font_2_66" d="M.24699402 0V.0309906C.18099976 .0309906 .1769867 .035995485 .1769867 .075042728V.4423828L.036987306 .43066407V.3996582C.101989749 .3996582 .11099243 .3936615 .11099243 .3447113V.07595825C.11099243 .0309906 .099990848 .0309906 .032989503 .0309906V0L.14299011 .0029907227C.17799378 .0029907227 .21299744 .0009918213 .24699402 0M.19198609 .603775C.19198609 .6307678 .16899109 .6567688 .13899231 .6567688 .10499573 .6567688 .084991458 .6287689 .084991458 .603775 .084991458 .57676699 .10798645 .55078127 .13798523 .55078127 .17199707 .55078127 .19198609 .5787811 .19198609 .603775Z"/>
<path id="font_2_112" d="M.5079956 .3996582V.43066407C.4850006 .4286499 .45599366 .42765809 .43299867 .42765809L.34599305 .43066407V.3996582C.3829956 .39865113 .3939972 .37568666 .3939972 .35671998 .3939972 .34773255 .3919983 .34373475 .3880005 .3327484L.28599549 .078125 .17399597 .35671998C.16799927 .3697052 .16799927 .37368775 .16799927 .37368775 .16799927 .3996582 .20698548 .3996582 .22499085 .3996582V.43066407L.115997318 .42765809C.08898926 .42765809 .04899597 .4286499 .018997193 .43066407V.3996582C.08198547 .3996582 .085998538 .3936615 .09899902 .36271668L.24299622 .008224487C.24899292-.0057525637 .25099183-.0107421879 .2639923-.0107421879 .2769928-.0107421879 .2809906-.0017700195 .2849884 .008224487L.41600038 .3327484C.4249878 .3557129 .44198609 .39865113 .5079956 .3996582Z"/>
<path id="font_2_50" d="M.4149933 .11933899C.4149933 .12934876 .40699769 .13134766 .4019928 .13134766 .3929901 .13134766 .3909912 .12535095 .3889923 .11734009 .35398866 .014251709 .2639923 .014251709 .2539978 .014251709 .20399475 .014251709 .1639862 .044281007 .14099121 .08131409 .11099243 .12934876 .11099243 .19540406 .11099243 .23144531H.3899994C.4119873 .23144531 .4149933 .23144531 .4149933 .2524414 .4149933 .35131837 .36099244 .4482422 .23599243 .4482422 .11999512 .4482422 .027999878 .34532167 .027999878 .22042847 .027999878 .08631897 .1329956-.0107421879 .24798584-.0107421879 .36999513-.0107421879 .4149933 .10032654 .4149933 .11933899M.34899903 .2524414H.11199951C.117996219 .40126039 .20199585 .426239 .23599243 .426239 .33898927 .426239 .34899903 .2913971 .34899903 .2524414Z"/>
<path id="font_2_85" d="M.33099366-.2400055C.33099366-.23701477 .33099366-.23500061 .31399537-.21800232 .18899536-.0920105 .15699768 .09700012 .15699768 .25 .15699768 .42399598 .19499207 .59799197 .31799317 .72299197 .33099366 .7350006 .33099366 .7369995 .33099366 .73999026 .33099366 .746994 .32699586 .75 .32099916 .75 .31098939 .75 .22099304 .6819916 .1619873 .5549927 .11099243 .44499208 .09899902 .33399964 .09899902 .25 .09899902 .17199707 .10998535 .050994874 .16499329-.06201172 .22499085-.18501282 .31098939-.25 .32099916-.25 .32699586-.25 .33099366-.24700928 .33099366-.2400055Z"/>
<path id="font_2_52" d="M.72099307 .34713746C.72099307 .36714173 .70199587 .36714173 .6879883 .36714173H.08898926C.07499695 .36714173 .055999757 .36714173 .055999757 .34713746 .055999757 .32714845 .07499695 .32714845 .08999634 .32714845H.68699648C.70199587 .32714845 .72099307 .32714845 .72099307 .34713746M.72099307 .15284729C.72099307 .17285156 .70199587 .17285156 .68699648 .17285156H.08999634C.07499695 .17285156 .055999757 .17285156 .055999757 .15284729 .055999757 .13284302 .07499695 .13284302 .08898926 .13284302H.6879883C.70199587 .13284302 .72099307 .13284302 .72099307 .15284729Z"/>
<path id="font_2_121" d="M.45999146 .31976319C.45999146 .39982606 .45498658 .47988893 .41999818 .5539398 .37399293 .65000918 .2919922 .6660156 .25 .6660156 .18998719 .6660156 .116989139 .64001467 .07598877 .54693606 .04399109 .47789 .038986207 .39982606 .038986207 .31976319 .038986207 .24472046 .042999269 .15464783 .083999637 .07859802 .1269989-.0024719239 .19999695-.022460938 .24899292-.022460938 .30299378-.022460938 .3789978-.0014648438 .4229889 .09359741 .45498658 .16265869 .45999146 .2407074 .45999146 .31976319M.3769989 .3317871C.3769989 .25672914 .3769989 .18867493 .3659973 .12461853 .35099793 .029556275 .2939911-.00047302247 .24899292-.00047302247 .20999146-.00047302247 .15098572 .024551392 .1329956 .12062073 .12199402 .18066406 .12199402 .2727356 .12199402 .3317871 .12199402 .39582826 .12199402 .46188355 .12998963 .5159149 .14898682 .63500979 .22399903 .64401248 .24899292 .64401248 .28199769 .64401248 .34799195 .6259918 .36698915 .52693179 .3769989 .47088624 .3769989 .39482118 .3769989 .3317871Z"/>
<path id="font_2_88" d="M.19198609 .052993776C.19198609 .08198547 .16799927 .10598755 .13899231 .10598755 .10998535 .10598755 .085998538 .08198547 .085998538 .052993776 .085998538 .023986817 .10998535 0 .13899231 0 .16799927 0 .19198609 .023986817 .19198609 .052993776Z"/>
<path id="font_2_51" d="M.45700074 .16764832C.45700074 .20367432 .44599916 .24871826 .4079895 .29074098 .3889923 .31176759 .37298585 .32176209 .30899049 .36180116 .3809967 .39881898 .42999269 .4508667 .42999269 .51690676 .42999269 .6089783 .34098817 .6660156 .25 .6660156 .1499939 .6660156 .068984989 .5919647 .068984989 .49890138 .068984989 .48088075 .070999149 .43585206 .11299133 .38882447 .12399292 .3768158 .16099549 .35179139 .18598938 .33477784 .12799073 .30575563 .041992189 .24971009 .041992189 .15063477 .041992189 .044555665 .14399719-.022460938 .24899292-.022460938 .3619995-.022460938 .45700074 .060577394 .45700074 .16764832M.38598634 .51690676C.38598634 .45986939 .34700013 .41183473 .2869873 .3768158L.16299439 .4568634C.116989139 .4868927 .11299133 .5209198 .11299133 .53793337 .11299133 .5989685 .17799378 .64100649 .24899292 .64100649 .32199098 .64100649 .38598634 .588974 .38598634 .51690676M.40699769 .13162232C.40699769 .05757141 .33198548 .0055389406 .25 .0055389406 .1639862 .0055389406 .09199524 .06758118 .09199524 .15063477 .09199524 .2086792 .12399292 .2727356 .20899964 .31976319L.33198548 .24171448C.3600006 .22268677 .40699769 .19267273 .40699769 .13162232Z"/>
<path id="font_2_86" d="M.2889862 .25C.2889862 .32798768 .27799989 .44898988 .22299195 .56199648 .16299439 .68499758 .07699585 .75 .066986087 .75 .06098938 .75 .056991579 .74598696 .056991579 .73999026 .056991579 .7369995 .056991579 .7350006 .07598877 .71699526 .17399597 .6179962 .23098755 .45899964 .23098755 .25 .23098755 .07899475 .19400025-.09700012 .069992069-.2230072 .056991579-.23500061 .056991579-.23701477 .056991579-.2400055 .056991579-.2460022 .06098938-.25 .066986087-.25 .07699585-.25 .16699219-.18200684 .22599793-.055007936 .2769928 .054992677 .2889862 .16600037 .2889862 .25Z"/>
<clipPath id="clip_3">
<path transform="matrix(1.00002,0,0,-1.0001,159.7309,112.62397)" d="M0 0H91.23163V91.23163H0Z"/>
</clipPath>
<path id="font_2_113" d="M1.0089874 .6516113V.6826172C.97898867 .680603 .94799807 .6796112 .91799929 .6796112L.798996 .6826172V.6516113C.8659973 .65060427 .8860016 .6174164 .8860016 .5983734 .8860016 .59236147 .8829956 .58436587 .8809967 .57836917L.73098757 .116363529 .57099917 .606369C.56999209 .6103668 .56799319 .6164093 .56799319 .62142947 .56799319 .6516113 .6259918 .6516113 .6519928 .6516113V.6826172C.6159973 .6796112 .5479889 .6796112 .5099945 .6796112L.3880005 .6826172V.6516113C.44499208 .6516113 .46598817 .6516113 .47799684 .61595156L.5 .5459595 .36099244 .11695862 .19999695 .60894778C.19898987 .61195376 .19799805 .618927 .19799805 .62190249 .19799805 .6516113 .2559967 .6516113 .28199769 .6516113V.6826172C.24598694 .6796112 .17799378 .6796112 .13999939 .6796112L.017990113 .6826172V.6516113C.09298706 .6513672 .09700012 .6463623 .10899353 .609375L.30899049-.003479004C.31199647-.012466431 .31498719-.022460938 .32798768-.022460938 .34199525-.022460938 .34399415-.015472412 .34799195-.0024719239L.5130005 .50538638 .67900088-.003479004C.6819916-.012466431 .68499758-.022460938 .69799807-.022460938 .71199038-.022460938 .71398928-.015472412 .71798709-.0024719239L.9089966 .58496096C.9269867 .6417084 .9700012 .6516113 1.0089874 .6516113Z"/>
<path id="font_2_28" d="M.48298646 .08912659V.14511109H.45799256V.08912659C.45799256 .03112793 .43299867 .025131226 .42199708 .025131226 .3889923 .025131226 .3849945 .070129398 .3849945 .07511902V.27508546C.3849945 .31707765 .3849945 .3560791 .34899903 .39312745 .30999757 .43223573 .2599945 .4482422 .21199036 .4482422 .12998963 .4482422 .06098938 .40115357 .06098938 .335083 .06098938 .30508424 .08099365 .28808595 .10699463 .28808595 .1349945 .28808595 .15299988 .30807496 .15299988 .33407594 .15299988 .3460846 .147995 .37908937 .101989749 .38008119 .1289978 .41519166 .17799378 .426239 .20999146 .426239 .25898744 .426239 .31599427 .38710023 .31599427 .29808045V.26107789C.2649994 .25808717 .19499207 .25508119 .13198853 .22509766 .056991579 .19110108 .03199768 .13911438 .03199768 .09512329 .03199768 .014251709 .1289978-.0107421879 .19198609-.0107421879 .2579956-.0107421879 .3039856 .029251099 .32299806 .07624817 .32699586 .036132814 .35398866-.005859375 .40098573-.005859375 .42199708-.005859375 .48298646 .008132935 .48298646 .08912659M.31599427 .14013672C.31599427 .04525757 .24398804 .011245728 .19898987 .011245728 .1499939 .011245728 .10899353 .04624939 .10899353 .09625244 .10899353 .15124512 .15098572 .23425293 .31599427 .24024964V.14013672Z"/>
<path id="font_2_70" d="M.5109863 0V.0309906C.47399903 .0309906 .45199586 .0309906 .4139862 .0839386L.2869873 .26278688C.28599549 .26478578 .2809906 .2707672 .2809906 .2737732 .2809906 .277771 .35198976 .33770753 .3619995 .34570313 .4249878 .39666749 .46699525 .39865113 .48799134 .3996582V.43066407C.45899964 .42765809 .44599916 .42765809 .41799928 .42765809 .38198854 .42765809 .31999208 .42965699 .30599977 .43066407V.3996582C.32499696 .39865113 .33499146 .3876648 .33499146 .37467958 .33499146 .3547058 .32099916 .3427124 .31298829 .33570863L.17199707 .21382141V.69433596L.027999878 .6826172V.6516113C.09799194 .6516113 .10598755 .64460757 .10598755 .5956421V.07595825C.10598755 .0309906 .09498596 .0309906 .027999878 .0309906V0L.13699341 .0029907227 .24699402 0V.0309906C.17999268 .0309906 .16899109 .0309906 .16899109 .07595825V.17889405L.23298645 .23387146C.30999757 .12792969 .35198976 .07196045 .35198976 .053985597 .35198976 .034988405 .33499146 .0309906 .31599427 .0309906V0L.42399598 .0029907227C.45298768 .0029907227 .48199464 .0019989014 .5109863 0Z"/>
<path id="font_2_106" d="M.45700074 .17037964C.45700074 .252594 .3939972 .33088685 .2899933 .35191346 .37199403 .37893678 .42999269 .4490509 .42999269 .52809146 .42999269 .6100464 .34199525 .6660156 .24598694 .6660156 .14498902 .6660156 .068984989 .60606387 .068984989 .53009036 .068984989 .49710084 .09098816 .47808839 .11999512 .47808839 .15098572 .47808839 .17098999 .50009158 .17098999 .5290985 .17098999 .57910159 .12399292 .57910159 .10899353 .57910159 .13999939 .62802127 .20599365 .64100649 .24198914 .64100649 .2829895 .64100649 .33799745 .6190338 .33799745 .5290985 .33799745 .51708987 .33599855 .45906068 .30999757 .4149933 .27999879 .36691285 .24598694 .36390687 .22099304 .36291505 .21299744 .36190797 .18899536 .35990907 .18199158 .35990907 .17399597 .35890199 .16699219 .35791017 .16699219 .3479004 .16699219 .33691407 .17399597 .33691407 .19099427 .33691407H.23498535C.31698609 .33691407 .35398866 .2686615 .35398866 .17037964 .35398866 .034469606 .2849884 .0055389406 .24099732 .0055389406 .19799805 .0055389406 .12298584 .022491456 .08799744 .08137512 .12298584 .07637024 .1539917 .09837341 .1539917 .1363678 .1539917 .17237854 .1269989 .19238281 .09799194 .19238281 .07398987 .19238281 .041992189 .17837525 .041992189 .1343689 .041992189 .043441774 .1349945-.022460938 .24398804-.022460938 .3659973-.022460938 .45700074 .06838989 .45700074 .17037964Z"/>
<path id="font_2_82" d="M.4189911 0V.0309906H.3869934C.29699708 .0309906 .2939911 .041992189 .2939911 .07902527V.64012148C.2939911 .6640167 .2939911 .6660156 .2709961 .6660156 .20899964 .60227969 .12098694 .60227969 .08898926 .60227969V.57128909C.10899353 .57128909 .16799927 .57128909 .21998596 .5972748V.07902527C.21998596 .042999269 .21699524 .0309906 .1269989 .0309906H.09498596V0C.12998963 .0029907227 .21699524 .0029907227 .25698854 .0029907227 .29699708 .0029907227 .38398744 .0029907227 .4189911 0Z"/>
<clipPath id="clip_4">
<path transform="matrix(1.00002,0,0,-1.0001,307.13685,112.62397)" d="M0 0H91.23163V91.23163H0Z"/>
</clipPath>
<path id="font_2_76" d="M.71598818 .6516113V.6826172L.598999 .6796112 .48199464 .6826172V.6516113C.58499148 .6516113 .58499148 .6046295 .58499148 .577652V.15092469L.23199463 .6696167C.22299195 .6816101 .22200012 .6826172 .20298767 .6826172H.032989503V.6516113H.06199646C.07699585 .6516113 .09700012 .65060427 .11199951 .6496124 .1349945 .64660647 .13598633 .6456146 .13598633 .62661746V.10494995C.13598633 .07795715 .13598633 .0309906 .032989503 .0309906V0L.1499939 .0029907227 .2669983 0V.0309906C.1639862 .0309906 .1639862 .07795715 .1639862 .10494995V.62461856C.16899109 .6196289 .16999817 .6186218 .17399597 .6126251L.58200076 .0129852299C.59098818 .0009918213 .59199526 0 .598999 0 .61299136 0 .61299136 .0069885256 .61299136 .025985718V.577652C.61299136 .6046295 .61299136 .6516113 .71598818 .6516113Z"/>
<path id="font_2_42" d="M.6649933 .23271179C.6649933 .24272156 .6649933 .24972534 .6519928 .24972534 .6409912 .24972534 .6409912 .24372864 .6399994 .23371887 .6319885 .09059143 .5249939 .008529663 .41600038 .008529663 .35499574 .008529663 .15899658 .042556764 .15899658 .34080506 .15899658 .64004519 .35398866 .67407229 .4149933 .67407229 .5239868 .67407229 .61299136 .58299258 .6329956 .4368744 .6349945 .42286683 .6349945 .41986085 .6489868 .41986085 .6649933 .41986085 .6649933 .42286683 .6649933 .44387818V.68107607C.6649933 .69807437 .6649933 .7050781 .6539917 .7050781 .6499939 .7050781 .6459961 .7050781 .6380005 .69306948L.58799746 .61901858C.5509949 .6550598 .5 .7050781 .4039917 .7050781 .21699524 .7050781 .055999757 .5459595 .055999757 .34179688 .055999757 .1346283 .21798706-.022460938 .4039917-.022460938 .5669861-.022460938 .6649933 .116622928 .6649933 .23271179Z"/>
<path id="font_2_72" d="M.25498963 0V.0309906C.18798828 .0309906 .1769867 .0309906 .1769867 .07601929V.69433596L.032989503 .6826172V.6516113C.102996829 .6516113 .11099243 .64460757 .11099243 .5956421V.07595825C.11099243 .0309906 .099990848 .0309906 .032989503 .0309906V0L.14399719 .0029907227 .25498963 0Z"/>
<path id="font_2_107" d="M.44898988 .17396546H.42399598C.4189911 .14398194 .4119873 .099990848 .4019928 .084991458 .394989 .07699585 .32899476 .07699585 .30699159 .07699585H.1269989L.23298645 .17996216C.3889923 .31803895 .44898988 .37210084 .44898988 .47216798 .44898988 .5860901 .35899354 .6660156 .23699951 .6660156 .12399292 .6660156 .049987794 .57411196 .049987794 .48516847 .049987794 .4291687 .099990848 .4291687 .102996829 .4291687 .11999512 .4291687 .15499878 .44117738 .15499878 .48217774 .15499878 .5081787 .13699341 .5341797 .101989749 .5341797 .09399414 .5341797 .09199524 .5341797 .08898926 .5331726 .11199951 .59806826 .1659851 .63500979 .22399903 .63500979 .31498719 .63500979 .35798646 .5541382 .35798646 .47216798 .35798646 .39196778 .30799867 .31297303 .25299073 .25097657L.06098938 .036987306C.049987794 .025985718 .049987794 .023986817 .049987794 0H.42099L.44898988 .17396546Z"/>
<clipPath id="clip_5">
<path transform="matrix(1.00002,0,0,-1.0001,86.02742,260.0427)" d="M0 0H91.23163V91.23163H0Z"/>
</clipPath>
<path id="font_2_64" d="M.27598573 .18710327V.24511719H.010986328V.18710327H.27598573Z"/>
<path id="font_2_56" d="M.44898988 .20091248C.44898988 .31991578 .36698915 .41992188 .25898744 .41992188 .21099854 .41992188 .16799927 .4039154 .13198853 .36891175V.5641022C.1519928 .55778506 .18499756 .55078127 .21699524 .55078127 .33999635 .55078127 .4099884 .6418457 .4099884 .65493777 .4099884 .6609802 .40699769 .6660156 .3999939 .6660156 .3999939 .66607668 .39698792 .66607668 .3919983 .66308596 .37199403 .65408328 .32299806 .63378909 .2559967 .63378909 .21598816 .63409426 .16999817 .641098 .12298584 .6621094 .114990238 .6651001 .11099243 .6651001 .11099243 .6651001 .100997928 .66508486 .100997928 .657074 .100997928 .64108279V.3447113C.100997928 .3266449 .100997928 .31861878 .114990238 .31861878 .12199402 .31861878 .12399292 .32164 .12799073 .32765199 .13899231 .34371949 .17599488 .3979187 .25698854 .3979187 .30899049 .3979187 .33399964 .3517456 .34199525 .3336792 .35798646 .2965393 .3600006 .2574005 .3600006 .20721436 .3600006 .17218018 .3600006 .112197879 .33599855 .07032776 .31199647 .031448366 .2749939 .0055389406 .22898865 .0055389406 .1559906 .0055389406 .09899902 .05836487 .08198547 .1171875 .084991458 .11685181 .08799744 .115859989 .09899902 .115859989 .13198853 .115859989 .14898682 .14085388 .14898682 .16485596 .14898682 .18885803 .13198853 .21386719 .09899902 .21386719 .084991458 .21386719 .049987794 .2068634 .049987794 .16085816 .049987794 .07432556 .11898804-.022460938 .23098755-.022460938 .34700013-.022460938 .44898988 .07331848 .44898988 .20019531V.20091248Z"/>
<clipPath id="clip_6">
<path transform="matrix(1.00002,0,0,-1.0001,233.43439,260.0427)" d="M0 0H91.23163V91.23163H0Z"/>
</clipPath>
</defs>
<path transform="matrix(1.00002,0,0,-1.0001,12.323944,112.62397)" stroke-width=".19925" stroke-linecap="butt" stroke-miterlimit="10" stroke-linejoin="miter" fill="none" stroke="#7f807f" d=""/>
<path transform="matrix(1.00002,0,0,-1.0001,12.323944,112.62397)" stroke-width=".19925" stroke-linecap="butt" stroke-miterlimit="10" stroke-linejoin="miter" fill="none" stroke="#7f807f" d=""/>
<path transform="matrix(1.00002,0,0,-1.0001,12.323944,112.62397)" stroke-width=".3985" stroke-linecap="butt" stroke-miterlimit="10" stroke-linejoin="miter" fill="none" stroke="#000000" d="M0 0V91.23163H91.23163V0H0Z"/>
<g clip-path="url(#clip_1)">
<path transform="matrix(1.00002,0,0,-1.0001,12.323944,112.62397)" stroke-width=".79701" stroke-linecap="butt" stroke-miterlimit="10" stroke-linejoin="miter" fill="none" stroke="#ff0000" d="M0 9.12315 91.23163 82.10846"/>
</g>
<path transform="matrix(1.00002,0,0,-1.0001,12.323944,112.62397)" d="M10.61757 13.68474C10.61757 14.51009 9.9485 15.17915 9.12315 15.17915 8.2978 15.17915 7.62874 14.51009 7.62874 13.68474 7.62874 12.85939 8.2978 12.19032 9.12315 12.19032 9.9485 12.19032 10.61757 12.85939 10.61757 13.68474ZM9.12315 13.68474" fill="#4d4dff"/>
<path transform="matrix(1.00002,0,0,-1.0001,12.323944,112.62397)" stroke-width=".3985" stroke-linecap="butt" stroke-miterlimit="10" stroke-linejoin="miter" fill="none" stroke="#4d4dff" d="M10.61757 13.68474C10.61757 14.51009 9.9485 15.17915 9.12315 15.17915 8.2978 15.17915 7.62874 14.51009 7.62874 13.68474 7.62874 12.85939 8.2978 12.19032 9.12315 12.19032 9.9485 12.19032 10.61757 12.85939 10.61757 13.68474ZM9.12315 13.68474"/>
<path transform="matrix(1.00002,0,0,-1.0001,12.323944,112.62397)" d="M19.74074 28.2818C19.74074 29.10715 19.07167 29.77621 18.24632 29.77621 17.42097 29.77621 16.7519 29.10715 16.7519 28.2818 16.7519 27.45645 17.42097 26.78738 18.24632 26.78738 19.07167 26.78738 19.74074 27.45645 19.74074 28.2818ZM18.24632 28.2818" fill="#4d4dff"/>
<path transform="matrix(1.00002,0,0,-1.0001,12.323944,112.62397)" stroke-width=".3985" stroke-linecap="butt" stroke-miterlimit="10" stroke-linejoin="miter" fill="none" stroke="#4d4dff" d="M19.74074 28.2818C19.74074 29.10715 19.07167 29.77621 18.24632 29.77621 17.42097 29.77621 16.7519 29.10715 16.7519 28.2818 16.7519 27.45645 17.42097 26.78738 18.24632 26.78738 19.07167 26.78738 19.74074 27.45645 19.74074 28.2818ZM18.24632 28.2818"/>
<path transform="matrix(1.00002,0,0,-1.0001,12.323944,112.62397)" d="M28.86389 25.54485C28.86389 26.3702 28.19482 27.03926 27.36948 27.03926 26.54414 27.03926 25.87506 26.3702 25.87506 25.54485 25.87506 24.7195 26.54414 24.05043 27.36948 24.05043 28.19482 24.05043 28.86389 24.7195 28.86389 25.54485ZM27.36948 25.54485" fill="#4d4dff"/>
<path transform="matrix(1.00002,0,0,-1.0001,12.323944,112.62397)" stroke-width=".3985" stroke-linecap="butt" stroke-miterlimit="10" stroke-linejoin="miter" fill="none" stroke="#4d4dff" d="M28.86389 25.54485C28.86389 26.3702 28.19482 27.03926 27.36948 27.03926 26.54414 27.03926 25.87506 26.3702 25.87506 25.54485 25.87506 24.7195 26.54414 24.05043 27.36948 24.05043 28.19482 24.05043 28.86389 24.7195 28.86389 25.54485ZM27.36948 25.54485"/>
<path transform="matrix(1.00002,0,0,-1.0001,12.323944,112.62397)" d="M37.98706 41.05423C37.98706 41.87958 37.318 42.54865 36.49265 42.54865 35.6673 42.54865 34.99823 41.87958 34.99823 41.05423 34.99823 40.22888 35.6673 39.55981 36.49265 39.55981 37.318 39.55981 37.98706 40.22888 37.98706 41.05423ZM36.49265 41.05423" fill="#4d4dff"/>
<path transform="matrix(1.00002,0,0,-1.0001,12.323944,112.62397)" stroke-width=".3985" stroke-linecap="butt" stroke-miterlimit="10" stroke-linejoin="miter" fill="none" stroke="#4d4dff" d="M37.98706 41.05423C37.98706 41.87958 37.318 42.54865 36.49265 42.54865 35.6673 42.54865 34.99823 41.87958 34.99823 41.05423 34.99823 40.22888 35.6673 39.55981 36.49265 39.55981 37.318 39.55981 37.98706 40.22888 37.98706 41.05423ZM36.49265 41.05423"/>
<path transform="matrix(1.00002,0,0,-1.0001,12.323944,112.62397)" d="M47.11023 43.79118C47.11023 44.61652 46.44116 45.2856 45.61581 45.2856 44.79047 45.2856 44.1214 44.61652 44.1214 43.79118 44.1214 42.96584 44.79047 42.29677 45.61581 42.29677 46.44116 42.29677 47.11023 42.96584 47.11023 43.79118ZM45.61581 43.79118" fill="#4d4dff"/>
<path transform="matrix(1.00002,0,0,-1.0001,12.323944,112.62397)" stroke-width=".3985" stroke-linecap="butt" stroke-miterlimit="10" stroke-linejoin="miter" fill="none" stroke="#4d4dff" d="M47.11023 43.79118C47.11023 44.61652 46.44116 45.2856 45.61581 45.2856 44.79047 45.2856 44.1214 44.61652 44.1214 43.79118 44.1214 42.96584 44.79047 42.29677 45.61581 42.29677 46.44116 42.29677 47.11023 42.96584 47.11023 43.79118ZM45.61581 43.79118"/>
<path transform="matrix(1.00002,0,0,-1.0001,12.323944,112.62397)" d="M56.23338 56.5636C56.23338 57.38895 55.56432 58.05801 54.73897 58.05801 53.91362 58.05801 53.24455 57.38895 53.24455 56.5636 53.24455 55.73827 53.91362 55.06918 54.73897 55.06918 55.56432 55.06918 56.23338 55.73827 56.23338 56.5636ZM54.73897 56.5636" fill="#4d4dff"/>
<path transform="matrix(1.00002,0,0,-1.0001,12.323944,112.62397)" stroke-width=".3985" stroke-linecap="butt" stroke-miterlimit="10" stroke-linejoin="miter" fill="none" stroke="#4d4dff" d="M56.23338 56.5636C56.23338 57.38895 55.56432 58.05801 54.73897 58.05801 53.91362 58.05801 53.24455 57.38895 53.24455 56.5636 53.24455 55.73827 53.91362 55.06918 54.73897 55.06918 55.56432 55.06918 56.23338 55.73827 56.23338 56.5636ZM54.73897 56.5636"/>
<path transform="matrix(1.00002,0,0,-1.0001,12.323944,112.62397)" d="M65.35655 55.65129C65.35655 56.47664 64.68748 57.1457 63.86214 57.1457 63.03679 57.1457 62.36772 56.47664 62.36772 55.65129 62.36772 54.82594 63.03679 54.15688 63.86214 54.15688 64.68748 54.15688 65.35655 54.82594 65.35655 55.65129ZM63.86214 55.65129" fill="#4d4dff"/>
<path transform="matrix(1.00002,0,0,-1.0001,12.323944,112.62397)" stroke-width=".3985" stroke-linecap="butt" stroke-miterlimit="10" stroke-linejoin="miter" fill="none" stroke="#4d4dff" d="M65.35655 55.65129C65.35655 56.47664 64.68748 57.1457 63.86214 57.1457 63.03679 57.1457 62.36772 56.47664 62.36772 55.65129 62.36772 54.82594 63.03679 54.15688 63.86214 54.15688 64.68748 54.15688 65.35655 54.82594 65.35655 55.65129ZM63.86214 55.65129"/>
<path transform="matrix(1.00002,0,0,-1.0001,12.323944,112.62397)" d="M74.47972 72.07298C74.47972 72.89833 73.81064 73.5674 72.9853 73.5674 72.15996 73.5674 71.49089 72.89833 71.49089 72.07298 71.49089 71.24763 72.15996 70.57857 72.9853 70.57857 73.81064 70.57857 74.47972 71.24763 74.47972 72.07298ZM72.9853 72.07298" fill="#4d4dff"/>
<path transform="matrix(1.00002,0,0,-1.0001,12.323944,112.62397)" stroke-width=".3985" stroke-linecap="butt" stroke-miterlimit="10" stroke-linejoin="miter" fill="none" stroke="#4d4dff" d="M74.47972 72.07298C74.47972 72.89833 73.81064 73.5674 72.9853 73.5674 72.15996 73.5674 71.49089 72.89833 71.49089 72.07298 71.49089 71.24763 72.15996 70.57857 72.9853 70.57857 73.81064 70.57857 74.47972 71.24763 74.47972 72.07298ZM72.9853 72.07298"/>
<path transform="matrix(1.00002,0,0,-1.0001,12.323944,112.62397)" d="M83.60287 76.63457C83.60287 77.45992 82.9338 78.12898 82.10846 78.12898 81.28311 78.12898 80.61404 77.45992 80.61404 76.63457 80.61404 75.80922 81.28311 75.14015 82.10846 75.14015 82.9338 75.14015 83.60287 75.80922 83.60287 76.63457ZM82.10846 76.63457" fill="#4d4dff"/>
<path transform="matrix(1.00002,0,0,-1.0001,12.323944,112.62397)" stroke-width=".3985" stroke-linecap="butt" stroke-miterlimit="10" stroke-linejoin="miter" fill="none" stroke="#4d4dff" d="M83.60287 76.63457C83.60287 77.45992 82.9338 78.12898 82.10846 78.12898 81.28311 78.12898 80.61404 77.45992 80.61404 76.63457 80.61404 75.80922 81.28311 75.14015 82.10846 75.14015 82.9338 75.14015 83.60287 75.80922 83.60287 76.63457ZM82.10846 76.63457"/>
<path transform="matrix(1.00002,0,0,-1.0001,12.323944,112.62397)" stroke-width=".3985" stroke-linecap="butt" stroke-miterlimit="10" stroke-linejoin="miter" fill="none" stroke="#4d4dff" d=""/>
<use data-text="S" xlink:href="#font_2_97" transform="matrix(9.962799,0,0,-9.963596,1.2167206,9.393646)"/>
<use data-text="t" xlink:href="#font_2_105" transform="matrix(9.962799,0,0,-9.963596,6.7560427,9.393646)"/>
<use data-text="r" xlink:href="#font_2_96" transform="matrix(9.962799,0,0,-9.963596,10.631569,9.393646)"/>
<use data-text="o" xlink:href="#font_2_81" transform="matrix(9.962799,0,0,-9.963596,14.536987,9.393646)"/>
<use data-text="n" xlink:href="#font_2_77" transform="matrix(9.962799,0,0,-9.963596,19.518395,9.393646)"/>
<use data-text="g" xlink:href="#font_2_59" transform="matrix(9.962799,0,0,-9.963596,25.057702,9.393646)"/>
<use data-text="P" xlink:href="#font_2_83" transform="matrix(9.962799,0,0,-9.963596,33.34675,9.393646)"/>
<use data-text="o" xlink:href="#font_2_81" transform="matrix(9.962799,0,0,-9.963596,39.862405,9.393646)"/>
<use data-text="s" xlink:href="#font_2_98" transform="matrix(9.962799,0,0,-9.963596,44.843805,9.393646)"/>
<use data-text="i" xlink:href="#font_2_66" transform="matrix(9.962799,0,0,-9.963596,48.769144,9.393646)"/>
<use data-text="t" xlink:href="#font_2_105" transform="matrix(9.962799,0,0,-9.963596,51.53881,9.393646)"/>
<use data-text="i" xlink:href="#font_2_66" transform="matrix(9.962799,0,0,-9.963596,55.414346,9.393646)"/>
<use data-text="v" xlink:href="#font_2_112" transform="matrix(9.962799,0,0,-9.963596,58.184,9.393646)"/>
<use data-text="e" xlink:href="#font_2_50" transform="matrix(9.962799,0,0,-9.963596,63.165414,9.393646)"/>
<use data-text="(" xlink:href="#font_2_85" transform="matrix(9.962799,0,0,-9.963596,70.89655,9.393646)"/>
<use data-text="r" xlink:href="#font_2_96" transform="matrix(9.962799,0,0,-9.963596,74.77209,9.393646)"/>
<use data-text="=" xlink:href="#font_2_52" transform="matrix(9.962799,0,0,-9.963596,81.995128,9.393646)"/>
<use data-text="0" xlink:href="#font_2_121" transform="matrix(9.962799,0,0,-9.963596,93.06379,9.393646)"/>
<use data-text="." xlink:href="#font_2_88" transform="matrix(9.962799,0,0,-9.963596,98.04519,9.393646)"/>
<use data-text="8" xlink:href="#font_2_51" transform="matrix(9.962799,0,0,-9.963596,100.81484,9.393646)"/>
<use data-text="8" xlink:href="#font_2_51" transform="matrix(9.962799,0,0,-9.963596,105.79624,9.393646)"/>
<use data-text=")" xlink:href="#font_2_86" transform="matrix(9.962799,0,0,-9.963596,110.777629,9.393646)"/>
<path transform="matrix(1.00002,0,0,-1.0001,159.7309,112.62397)" stroke-width=".19925" stroke-linecap="butt" stroke-miterlimit="10" stroke-linejoin="miter" fill="none" stroke="#7f807f" d=""/>
<path transform="matrix(1.00002,0,0,-1.0001,159.7309,112.62397)" stroke-width=".19925" stroke-linecap="butt" stroke-miterlimit="10" stroke-linejoin="miter" fill="none" stroke="#7f807f" d=""/>
<path transform="matrix(1.00002,0,0,-1.0001,159.7309,112.62397)" stroke-width=".3985" stroke-linecap="butt" stroke-miterlimit="10" stroke-linejoin="miter" fill="none" stroke="#000000" d="M0 0V91.23163H91.23163V0H0Z"/>
<g clip-path="url(#clip_3)">
<path transform="matrix(1.00002,0,0,-1.0001,159.7309,112.62397)" stroke-width=".79701" stroke-linecap="butt" stroke-miterlimit="10" stroke-linejoin="miter" fill="none" stroke="#ff0000" d="M0 31.93106 91.23163 59.30055"/>
</g>
<path transform="matrix(1.00002,0,0,-1.0001,159.7309,112.62397)" d="M10.61757 47.44044C10.61757 48.2658 9.9485 48.93486 9.12315 48.93486 8.2978 48.93486 7.62874 48.2658 7.62874 47.44044 7.62874 46.6151 8.2978 45.94603 9.12315 45.94603 9.9485 45.94603 10.61757 46.6151 10.61757 47.44044ZM9.12315 47.44044" fill="#4d4dff"/>
<path transform="matrix(1.00002,0,0,-1.0001,159.7309,112.62397)" stroke-width=".3985" stroke-linecap="butt" stroke-miterlimit="10" stroke-linejoin="miter" fill="none" stroke="#4d4dff" d="M10.61757 47.44044C10.61757 48.2658 9.9485 48.93486 9.12315 48.93486 8.2978 48.93486 7.62874 48.2658 7.62874 47.44044 7.62874 46.6151 8.2978 45.94603 9.12315 45.94603 9.9485 45.94603 10.61757 46.6151 10.61757 47.44044ZM9.12315 47.44044"/>
<path transform="matrix(1.00002,0,0,-1.0001,159.7309,112.62397)" d="M19.74074 16.42169C19.74074 17.24702 19.07167 17.9161 18.24632 17.9161 17.42097 17.9161 16.7519 17.24702 16.7519 16.42169 16.7519 15.59634 17.42097 14.92728 18.24632 14.92728 19.07167 14.92728 19.74074 15.59634 19.74074 16.42169ZM18.24632 16.42169" fill="#4d4dff"/>
<path transform="matrix(1.00002,0,0,-1.0001,159.7309,112.62397)" stroke-width=".3985" stroke-linecap="butt" stroke-miterlimit="10" stroke-linejoin="miter" fill="none" stroke="#4d4dff" d="M19.74074 16.42169C19.74074 17.24702 19.07167 17.9161 18.24632 17.9161 17.42097 17.9161 16.7519 17.24702 16.7519 16.42169 16.7519 15.59634 17.42097 14.92728 18.24632 14.92728 19.07167 14.92728 19.74074 15.59634 19.74074 16.42169ZM18.24632 16.42169"/>
<path transform="matrix(1.00002,0,0,-1.0001,159.7309,112.62397)" d="M28.86389 55.65129C28.86389 56.47664 28.19482 57.1457 27.36948 57.1457 26.54414 57.1457 25.87506 56.47664 25.87506 55.65129 25.87506 54.82594 26.54414 54.15688 27.36948 54.15688 28.19482 54.15688 28.86389 54.82594 28.86389 55.65129ZM27.36948 55.65129" fill="#4d4dff"/>
<path transform="matrix(1.00002,0,0,-1.0001,159.7309,112.62397)" stroke-width=".3985" stroke-linecap="butt" stroke-miterlimit="10" stroke-linejoin="miter" fill="none" stroke="#4d4dff" d="M28.86389 55.65129C28.86389 56.47664 28.19482 57.1457 27.36948 57.1457 26.54414 57.1457 25.87506 56.47664 25.87506 55.65129 25.87506 54.82594 26.54414 54.15688 27.36948 54.15688 28.19482 54.15688 28.86389 54.82594 28.86389 55.65129ZM27.36948 55.65129"/>
<path transform="matrix(1.00002,0,0,-1.0001,159.7309,112.62397)" d="M37.98706 29.19412C37.98706 30.01945 37.318 30.68854 36.49265 30.68854 35.6673 30.68854 34.99823 30.01945 34.99823 29.19412 34.99823 28.36877 35.6673 27.6997 36.49265 27.6997 37.318 27.6997 37.98706 28.36877 37.98706 29.19412ZM36.49265 29.19412" fill="#4d4dff"/>
<path transform="matrix(1.00002,0,0,-1.0001,159.7309,112.62397)" stroke-width=".3985" stroke-linecap="butt" stroke-miterlimit="10" stroke-linejoin="miter" fill="none" stroke="#4d4dff" d="M37.98706 29.19412C37.98706 30.01945 37.318 30.68854 36.49265 30.68854 35.6673 30.68854 34.99823 30.01945 34.99823 29.19412 34.99823 28.36877 35.6673 27.6997 36.49265 27.6997 37.318 27.6997 37.98706 28.36877 37.98706 29.19412ZM36.49265 29.19412"/>
<path transform="matrix(1.00002,0,0,-1.0001,159.7309,112.62397)" d="M47.11023 68.42372C47.11023 69.24907 46.44116 69.91814 45.61581 69.91814 44.79047 69.91814 44.1214 69.24907 44.1214 68.42372 44.1214 67.59837 44.79047 66.9293 45.61581 66.9293 46.44116 66.9293 47.11023 67.59837 47.11023 68.42372ZM45.61581 68.42372" fill="#4d4dff"/>
<path transform="matrix(1.00002,0,0,-1.0001,159.7309,112.62397)" stroke-width=".3985" stroke-linecap="butt" stroke-miterlimit="10" stroke-linejoin="miter" fill="none" stroke="#4d4dff" d="M47.11023 68.42372C47.11023 69.24907 46.44116 69.91814 45.61581 69.91814 44.79047 69.91814 44.1214 69.24907 44.1214 68.42372 44.1214 67.59837 44.79047 66.9293 45.61581 66.9293 46.44116 66.9293 47.11023 67.59837 47.11023 68.42372ZM45.61581 68.42372"/>
<path transform="matrix(1.00002,0,0,-1.0001,159.7309,112.62397)" d="M56.23338 37.40497C56.23338 38.2303 55.56432 38.89938 54.73897 38.89938 53.91362 38.89938 53.24455 38.2303 53.24455 37.40497 53.24455 36.57962 53.91362 35.91055 54.73897 35.91055 55.56432 35.91055 56.23338 36.57962 56.23338 37.40497ZM54.73897 37.40497" fill="#4d4dff"/>
<path transform="matrix(1.00002,0,0,-1.0001,159.7309,112.62397)" stroke-width=".3985" stroke-linecap="butt" stroke-miterlimit="10" stroke-linejoin="miter" fill="none" stroke="#4d4dff" d="M56.23338 37.40497C56.23338 38.2303 55.56432 38.89938 54.73897 38.89938 53.91362 38.89938 53.24455 38.2303 53.24455 37.40497 53.24455 36.57962 53.91362 35.91055 54.73897 35.91055 55.56432 35.91055 56.23338 36.57962 56.23338 37.40497ZM54.73897 37.40497"/>
<path transform="matrix(1.00002,0,0,-1.0001,159.7309,112.62397)" d="M65.35655 74.80994C65.35655 75.63528 64.68748 76.30435 63.86214 76.30435 63.03679 76.30435 62.36772 75.63528 62.36772 74.80994 62.36772 73.98459 63.03679 73.31552 63.86214 73.31552 64.68748 73.31552 65.35655 73.98459 65.35655 74.80994ZM63.86214 74.80994" fill="#4d4dff"/>
<path transform="matrix(1.00002,0,0,-1.0001,159.7309,112.62397)" stroke-width=".3985" stroke-linecap="butt" stroke-miterlimit="10" stroke-linejoin="miter" fill="none" stroke="#4d4dff" d="M65.35655 74.80994C65.35655 75.63528 64.68748 76.30435 63.86214 76.30435 63.03679 76.30435 62.36772 75.63528 62.36772 74.80994 62.36772 73.98459 63.03679 73.31552 63.86214 73.31552 64.68748 73.31552 65.35655 73.98459 65.35655 74.80994ZM63.86214 74.80994"/>
<path transform="matrix(1.00002,0,0,-1.0001,159.7309,112.62397)" d="M74.47972 44.70349C74.47972 45.52884 73.81064 46.1979 72.9853 46.1979 72.15996 46.1979 71.49089 45.52884 71.49089 44.70349 71.49089 43.87814 72.15996 43.20908 72.9853 43.20908 73.81064 43.20908 74.47972 43.87814 74.47972 44.70349ZM72.9853 44.70349" fill="#4d4dff"/>
<path transform="matrix(1.00002,0,0,-1.0001,159.7309,112.62397)" stroke-width=".3985" stroke-linecap="butt" stroke-miterlimit="10" stroke-linejoin="miter" fill="none" stroke="#4d4dff" d="M74.47972 44.70349C74.47972 45.52884 73.81064 46.1979 72.9853 46.1979 72.15996 46.1979 71.49089 45.52884 71.49089 44.70349 71.49089 43.87814 72.15996 43.20908 72.9853 43.20908 73.81064 43.20908 74.47972 43.87814 74.47972 44.70349ZM72.9853 44.70349"/>
<path transform="matrix(1.00002,0,0,-1.0001,159.7309,112.62397)" d="M83.60287 64.77444C83.60287 65.5998 82.9338 66.26886 82.10846 66.26886 81.28311 66.26886 80.61404 65.5998 80.61404 64.77444 80.61404 63.94911 81.28311 63.28003 82.10846 63.28003 82.9338 63.28003 83.60287 63.94911 83.60287 64.77444ZM82.10846 64.77444" fill="#4d4dff"/>
<path transform="matrix(1.00002,0,0,-1.0001,159.7309,112.62397)" stroke-width=".3985" stroke-linecap="butt" stroke-miterlimit="10" stroke-linejoin="miter" fill="none" stroke="#4d4dff" d="M83.60287 64.77444C83.60287 65.5998 82.9338 66.26886 82.10846 66.26886 81.28311 66.26886 80.61404 65.5998 80.61404 64.77444 80.61404 63.94911 81.28311 63.28003 82.10846 63.28003 82.9338 63.28003 83.60287 63.94911 83.60287 64.77444ZM82.10846 64.77444"/>
<path transform="matrix(1.00002,0,0,-1.0001,159.7309,112.62397)" stroke-width=".3985" stroke-linecap="butt" stroke-miterlimit="10" stroke-linejoin="miter" fill="none" stroke="#4d4dff" d=""/>
<use data-text="W" xlink:href="#font_2_113" transform="matrix(9.962799,0,0,-9.963596,150.99472,9.393646)"/>
<use data-text="e" xlink:href="#font_2_50" transform="matrix(9.962799,0,0,-9.963596,160.40958,9.393646)"/>
<use data-text="a" xlink:href="#font_2_28" transform="matrix(9.962799,0,0,-9.963596,164.83304,9.393646)"/>
<use data-text="k" xlink:href="#font_2_70" transform="matrix(9.962799,0,0,-9.963596,169.81446,9.393646)"/>
<use data-text="P" xlink:href="#font_2_83" transform="matrix(9.962799,0,0,-9.963596,178.38248,9.393646)"/>
<use data-text="o" xlink:href="#font_2_81" transform="matrix(9.962799,0,0,-9.963596,184.89813,9.393646)"/>
<use data-text="s" xlink:href="#font_2_98" transform="matrix(9.962799,0,0,-9.963596,189.87952,9.393646)"/>
<use data-text="i" xlink:href="#font_2_66" transform="matrix(9.962799,0,0,-9.963596,193.80487,9.393646)"/>
<use data-text="t" xlink:href="#font_2_105" transform="matrix(9.962799,0,0,-9.963596,196.57453,9.393646)"/>
<use data-text="i" xlink:href="#font_2_66" transform="matrix(9.962799,0,0,-9.963596,200.45005,9.393646)"/>
<use data-text="v" xlink:href="#font_2_112" transform="matrix(9.962799,0,0,-9.963596,203.21973,9.393646)"/>
<use data-text="e" xlink:href="#font_2_50" transform="matrix(9.962799,0,0,-9.963596,208.20114,9.393646)"/>
<use data-text="(" xlink:href="#font_2_85" transform="matrix(9.962799,0,0,-9.963596,215.93228,9.393646)"/>
<use data-text="r" xlink:href="#font_2_96" transform="matrix(9.962799,0,0,-9.963596,219.8078,9.393646)"/>
<use data-text="=" xlink:href="#font_2_52" transform="matrix(9.962799,0,0,-9.963596,227.03083,9.393646)"/>
<use data-text="0" xlink:href="#font_2_121" transform="matrix(9.962799,0,0,-9.963596,238.09952,9.393646)"/>
<use data-text="." xlink:href="#font_2_88" transform="matrix(9.962799,0,0,-9.963596,243.0809,9.393646)"/>
<use data-text="3" xlink:href="#font_2_106" transform="matrix(9.962799,0,0,-9.963596,245.85056,9.393646)"/>
<use data-text="1" xlink:href="#font_2_82" transform="matrix(9.962799,0,0,-9.963596,250.83197,9.393646)"/>
<use data-text=")" xlink:href="#font_2_86" transform="matrix(9.962799,0,0,-9.963596,255.81336,9.393646)"/>
<path transform="matrix(1.00002,0,0,-1.0001,307.13685,112.62397)" stroke-width=".19925" stroke-linecap="butt" stroke-miterlimit="10" stroke-linejoin="miter" fill="none" stroke="#7f807f" d=""/>
<path transform="matrix(1.00002,0,0,-1.0001,307.13685,112.62397)" stroke-width=".19925" stroke-linecap="butt" stroke-miterlimit="10" stroke-linejoin="miter" fill="none" stroke="#7f807f" d=""/>
<path transform="matrix(1.00002,0,0,-1.0001,307.13685,112.62397)" stroke-width=".3985" stroke-linecap="butt" stroke-miterlimit="10" stroke-linejoin="miter" fill="none" stroke="#000000" d="M0 0V91.23163H91.23163V0H0Z"/>
<g clip-path="url(#clip_4)">
<path transform="matrix(1.00002,0,0,-1.0001,307.13685,112.62397)" stroke-width=".79701" stroke-linecap="butt" stroke-miterlimit="10" stroke-linejoin="miter" fill="none" stroke="#ff0000" d="M0 45.61581H91.23163"/>
</g>
<path transform="matrix(1.00002,0,0,-1.0001,307.13685,112.62397)" d="M10.61757 73.89761C10.61757 74.72296 9.9485 75.39203 9.12315 75.39203 8.2978 75.39203 7.62874 74.72296 7.62874 73.89761 7.62874 73.07227 8.2978 72.4032 9.12315 72.4032 9.9485 72.4032 10.61757 73.07227 10.61757 73.89761ZM9.12315 73.89761" fill="#4d4dff"/>
<path transform="matrix(1.00002,0,0,-1.0001,307.13685,112.62397)" stroke-width=".3985" stroke-linecap="butt" stroke-miterlimit="10" stroke-linejoin="miter" fill="none" stroke="#4d4dff" d="M10.61757 73.89761C10.61757 74.72296 9.9485 75.39203 9.12315 75.39203 8.2978 75.39203 7.62874 74.72296 7.62874 73.89761 7.62874 73.07227 8.2978 72.4032 9.12315 72.4032 9.9485 72.4032 10.61757 73.07227 10.61757 73.89761ZM9.12315 73.89761"/>
<path transform="matrix(1.00002,0,0,-1.0001,307.13685,112.62397)" d="M19.74074 22.8079C19.74074 23.63324 19.07167 24.30232 18.24632 24.30232 17.42097 24.30232 16.7519 23.63324 16.7519 22.8079 16.7519 21.98256 17.42097 21.31349 18.24632 21.31349 19.07167 21.31349 19.74074 21.98256 19.74074 22.8079ZM18.24632 22.8079" fill="#4d4dff"/>
<path transform="matrix(1.00002,0,0,-1.0001,307.13685,112.62397)" stroke-width=".3985" stroke-linecap="butt" stroke-miterlimit="10" stroke-linejoin="miter" fill="none" stroke="#4d4dff" d="M19.74074 22.8079C19.74074 23.63324 19.07167 24.30232 18.24632 24.30232 17.42097 24.30232 16.7519 23.63324 16.7519 22.8079 16.7519 21.98256 17.42097 21.31349 18.24632 21.31349 19.07167 21.31349 19.74074 21.98256 19.74074 22.8079ZM18.24632 22.8079"/>
<path transform="matrix(1.00002,0,0,-1.0001,307.13685,112.62397)" d="M28.86389 65.68677C28.86389 66.51212 28.19482 67.18118 27.36948 67.18118 26.54414 67.18118 25.87506 66.51212 25.87506 65.68677 25.87506 64.86142 26.54414 64.19235 27.36948 64.19235 28.19482 64.19235 28.86389 64.86142 28.86389 65.68677ZM27.36948 65.68677" fill="#4d4dff"/>
<path transform="matrix(1.00002,0,0,-1.0001,307.13685,112.62397)" stroke-width=".3985" stroke-linecap="butt" stroke-miterlimit="10" stroke-linejoin="miter" fill="none" stroke="#4d4dff" d="M28.86389 65.68677C28.86389 66.51212 28.19482 67.18118 27.36948 67.18118 26.54414 67.18118 25.87506 66.51212 25.87506 65.68677 25.87506 64.86142 26.54414 64.19235 27.36948 64.19235 28.19482 64.19235 28.86389 64.86142 28.86389 65.68677ZM27.36948 65.68677"/>
<path transform="matrix(1.00002,0,0,-1.0001,307.13685,112.62397)" d="M37.98706 13.68474C37.98706 14.51009 37.318 15.17915 36.49265 15.17915 35.6673 15.17915 34.99823 14.51009 34.99823 13.68474 34.99823 12.85939 35.6673 12.19032 36.49265 12.19032 37.318 12.19032 37.98706 12.85939 37.98706 13.68474ZM36.49265 13.68474" fill="#4d4dff"/>
<path transform="matrix(1.00002,0,0,-1.0001,307.13685,112.62397)" stroke-width=".3985" stroke-linecap="butt" stroke-miterlimit="10" stroke-linejoin="miter" fill="none" stroke="#4d4dff" d="M37.98706 13.68474C37.98706 14.51009 37.318 15.17915 36.49265 15.17915 35.6673 15.17915 34.99823 14.51009 34.99823 13.68474 34.99823 12.85939 35.6673 12.19032 36.49265 12.19032 37.318 12.19032 37.98706 12.85939 37.98706 13.68474ZM36.49265 13.68474"/>
<path transform="matrix(1.00002,0,0,-1.0001,307.13685,112.62397)" d="M47.11023 83.02078C47.11023 83.84613 46.44116 84.5152 45.61581 84.5152 44.79047 84.5152 44.1214 83.84613 44.1214 83.02078 44.1214 82.19543 44.79047 81.52637 45.61581 81.52637 46.44116 81.52637 47.11023 82.19543 47.11023 83.02078ZM45.61581 83.02078" fill="#4d4dff"/>
<path transform="matrix(1.00002,0,0,-1.0001,307.13685,112.62397)" stroke-width=".3985" stroke-linecap="butt" stroke-miterlimit="10" stroke-linejoin="miter" fill="none" stroke="#4d4dff" d="M47.11023 83.02078C47.11023 83.84613 46.44116 84.5152 45.61581 84.5152 44.79047 84.5152 44.1214 83.84613 44.1214 83.02078 44.1214 82.19543 44.79047 81.52637 45.61581 81.52637 46.44116 81.52637 47.11023 82.19543 47.11023 83.02078ZM45.61581 83.02078"/>
<path transform="matrix(1.00002,0,0,-1.0001,307.13685,112.62397)" d="M56.23338 43.79118C56.23338 44.61652 55.56432 45.2856 54.73897 45.2856 53.91362 45.2856 53.24455 44.61652 53.24455 43.79118 53.24455 42.96584 53.91362 42.29677 54.73897 42.29677 55.56432 42.29677 56.23338 42.96584 56.23338 43.79118ZM54.73897 43.79118" fill="#4d4dff"/>
<path transform="matrix(1.00002,0,0,-1.0001,307.13685,112.62397)" stroke-width=".3985" stroke-linecap="butt" stroke-miterlimit="10" stroke-linejoin="miter" fill="none" stroke="#4d4dff" d="M56.23338 43.79118C56.23338 44.61652 55.56432 45.2856 54.73897 45.2856 53.91362 45.2856 53.24455 44.61652 53.24455 43.79118 53.24455 42.96584 53.91362 42.29677 54.73897 42.29677 55.56432 42.29677 56.23338 42.96584 56.23338 43.79118ZM54.73897 43.79118"/>
<path transform="matrix(1.00002,0,0,-1.0001,307.13685,112.62397)" d="M65.35655 19.15863C65.35655 19.98398 64.68748 20.65305 63.86214 20.65305 63.03679 20.65305 62.36772 19.98398 62.36772 19.15863 62.36772 18.33328 63.03679 17.66422 63.86214 17.66422 64.68748 17.66422 65.35655 18.33328 65.35655 19.15863ZM63.86214 19.15863" fill="#4d4dff"/>
<path transform="matrix(1.00002,0,0,-1.0001,307.13685,112.62397)" stroke-width=".3985" stroke-linecap="butt" stroke-miterlimit="10" stroke-linejoin="miter" fill="none" stroke="#4d4dff" d="M65.35655 19.15863C65.35655 19.98398 64.68748 20.65305 63.86214 20.65305 63.03679 20.65305 62.36772 19.98398 62.36772 19.15863 62.36772 18.33328 63.03679 17.66422 63.86214 17.66422 64.68748 17.66422 65.35655 18.33328 65.35655 19.15863ZM63.86214 19.15863"/>
<path transform="matrix(1.00002,0,0,-1.0001,307.13685,112.62397)" d="M74.47972 72.07298C74.47972 72.89833 73.81064 73.5674 72.9853 73.5674 72.15996 73.5674 71.49089 72.89833 71.49089 72.07298 71.49089 71.24763 72.15996 70.57857 72.9853 70.57857 73.81064 70.57857 74.47972 71.24763 74.47972 72.07298ZM72.9853 72.07298" fill="#4d4dff"/>
<path transform="matrix(1.00002,0,0,-1.0001,307.13685,112.62397)" stroke-width=".3985" stroke-linecap="butt" stroke-miterlimit="10" stroke-linejoin="miter" fill="none" stroke="#4d4dff" d="M74.47972 72.07298C74.47972 72.89833 73.81064 73.5674 72.9853 73.5674 72.15996 73.5674 71.49089 72.89833 71.49089 72.07298 71.49089 71.24763 72.15996 70.57857 72.9853 70.57857 73.81064 70.57857 74.47972 71.24763 74.47972 72.07298ZM72.9853 72.07298"/>
<path transform="matrix(1.00002,0,0,-1.0001,307.13685,112.62397)" d="M83.60287 48.35275C83.60287 49.1781 82.9338 49.84717 82.10846 49.84717 81.28311 49.84717 80.61404 49.1781 80.61404 48.35275 80.61404 47.5274 81.28311 46.85834 82.10846 46.85834 82.9338 46.85834 83.60287 47.5274 83.60287 48.35275ZM82.10846 48.35275" fill="#4d4dff"/>
<path transform="matrix(1.00002,0,0,-1.0001,307.13685,112.62397)" stroke-width=".3985" stroke-linecap="butt" stroke-miterlimit="10" stroke-linejoin="miter" fill="none" stroke="#4d4dff" d="M83.60287 48.35275C83.60287 49.1781 82.9338 49.84717 82.10846 49.84717 81.28311 49.84717 80.61404 49.1781 80.61404 48.35275 80.61404 47.5274 81.28311 46.85834 82.10846 46.85834 82.9338 46.85834 83.60287 47.5274 83.60287 48.35275ZM82.10846 48.35275"/>
<path transform="matrix(1.00002,0,0,-1.0001,307.13685,112.62397)" stroke-width=".3985" stroke-linecap="butt" stroke-miterlimit="10" stroke-linejoin="miter" fill="none" stroke="#4d4dff" d=""/>
<use data-text="N" xlink:href="#font_2_76" transform="matrix(9.962799,0,0,-9.963596,296.66664,9.393646)"/>
<use data-text="o" xlink:href="#font_2_81" transform="matrix(9.962799,0,0,-9.963596,304.13874,9.393646)"/>
<use data-text="C" xlink:href="#font_2_42" transform="matrix(9.962799,0,0,-9.963596,312.43775,9.393646)"/>
<use data-text="o" xlink:href="#font_2_81" transform="matrix(9.962799,0,0,-9.963596,319.63087,9.393646)"/>
<use data-text="r" xlink:href="#font_2_96" transform="matrix(9.962799,0,0,-9.963596,324.61228,9.393646)"/>
<use data-text="r" xlink:href="#font_2_96" transform="matrix(9.962799,0,0,-9.963596,328.5177,9.393646)"/>
<use data-text="e" xlink:href="#font_2_50" transform="matrix(9.962799,0,0,-9.963596,332.4231,9.393646)"/>
<use data-text="l" xlink:href="#font_2_72" transform="matrix(9.962799,0,0,-9.963596,336.8466,9.393646)"/>
<use data-text="a" xlink:href="#font_2_28" transform="matrix(9.962799,0,0,-9.963596,339.61625,9.393646)"/>
<use data-text="t" xlink:href="#font_2_105" transform="matrix(9.962799,0,0,-9.963596,344.59767,9.393646)"/>
<use data-text="i" xlink:href="#font_2_66" transform="matrix(9.962799,0,0,-9.963596,348.47319,9.393646)"/>
<use data-text="o" xlink:href="#font_2_81" transform="matrix(9.962799,0,0,-9.963596,351.24284,9.393646)"/>
<use data-text="n" xlink:href="#font_2_77" transform="matrix(9.962799,0,0,-9.963596,356.22425,9.393646)"/>
<use data-text="(" xlink:href="#font_2_85" transform="matrix(9.962799,0,0,-9.963596,365.08119,9.393646)"/>
<use data-text="r" xlink:href="#font_2_96" transform="matrix(9.962799,0,0,-9.963596,368.9567,9.393646)"/>
<use data-text="=" xlink:href="#font_2_52" transform="matrix(9.962799,0,0,-9.963596,376.17973,9.393646)"/>
<use data-text="0" xlink:href="#font_2_121" transform="matrix(9.962799,0,0,-9.963596,387.2484,9.393646)"/>
<use data-text="." xlink:href="#font_2_88" transform="matrix(9.962799,0,0,-9.963596,392.2298,9.393646)"/>
<use data-text="0" xlink:href="#font_2_121" transform="matrix(9.962799,0,0,-9.963596,394.99946,9.393646)"/>
<use data-text="2" xlink:href="#font_2_107" transform="matrix(9.962799,0,0,-9.963596,399.98085,9.393646)"/>
<use data-text=")" xlink:href="#font_2_86" transform="matrix(9.962799,0,0,-9.963596,404.96223,9.393646)"/>
<path transform="matrix(1.00002,0,0,-1.0001,86.02742,260.0427)" stroke-width=".19925" stroke-linecap="butt" stroke-miterlimit="10" stroke-linejoin="miter" fill="none" stroke="#7f807f" d=""/>
<path transform="matrix(1.00002,0,0,-1.0001,86.02742,260.0427)" stroke-width=".19925" stroke-linecap="butt" stroke-miterlimit="10" stroke-linejoin="miter" fill="none" stroke="#7f807f" d=""/>
<path transform="matrix(1.00002,0,0,-1.0001,86.02742,260.0427)" stroke-width=".3985" stroke-linecap="butt" stroke-miterlimit="10" stroke-linejoin="miter" fill="none" stroke="#000000" d="M0 0V91.23163H91.23163V0H0Z"/>
<g clip-path="url(#clip_5)">
<path transform="matrix(1.00002,0,0,-1.0001,86.02742,260.0427)" stroke-width=".79701" stroke-linecap="butt" stroke-miterlimit="10" stroke-linejoin="miter" fill="none" stroke="#ff0000" d="M0 59.30055 91.23163 31.93106"/>
</g>
<path transform="matrix(1.00002,0,0,-1.0001,86.02742,260.0427)" d="M10.61757 74.80994C10.61757 75.63528 9.9485 76.30435 9.12315 76.30435 8.2978 76.30435 7.62874 75.63528 7.62874 74.80994 7.62874 73.98459 8.2978 73.31552 9.12315 73.31552 9.9485 73.31552 10.61757 73.98459 10.61757 74.80994ZM9.12315 74.80994" fill="#4d4dff"/>
<path transform="matrix(1.00002,0,0,-1.0001,86.02742,260.0427)" stroke-width=".3985" stroke-linecap="butt" stroke-miterlimit="10" stroke-linejoin="miter" fill="none" stroke="#4d4dff" d="M10.61757 74.80994C10.61757 75.63528 9.9485 76.30435 9.12315 76.30435 8.2978 76.30435 7.62874 75.63528 7.62874 74.80994 7.62874 73.98459 8.2978 73.31552 9.12315 73.31552 9.9485 73.31552 10.61757 73.98459 10.61757 74.80994ZM9.12315 74.80994"/>
<path transform="matrix(1.00002,0,0,-1.0001,86.02742,260.0427)" d="M19.74074 37.40497C19.74074 38.2303 19.07167 38.89938 18.24632 38.89938 17.42097 38.89938 16.7519 38.2303 16.7519 37.40497 16.7519 36.57962 17.42097 35.91055 18.24632 35.91055 19.07167 35.91055 19.74074 36.57962 19.74074 37.40497ZM18.24632 37.40497" fill="#4d4dff"/>
<path transform="matrix(1.00002,0,0,-1.0001,86.02742,260.0427)" stroke-width=".3985" stroke-linecap="butt" stroke-miterlimit="10" stroke-linejoin="miter" fill="none" stroke="#4d4dff" d="M19.74074 37.40497C19.74074 38.2303 19.07167 38.89938 18.24632 38.89938 17.42097 38.89938 16.7519 38.2303 16.7519 37.40497 16.7519 36.57962 17.42097 35.91055 18.24632 35.91055 19.07167 35.91055 19.74074 36.57962 19.74074 37.40497ZM18.24632 37.40497"/>
<path transform="matrix(1.00002,0,0,-1.0001,86.02742,260.0427)" d="M28.86389 68.42372C28.86389 69.24907 28.19482 69.91814 27.36948 69.91814 26.54414 69.91814 25.87506 69.24907 25.87506 68.42372 25.87506 67.59837 26.54414 66.9293 27.36948 66.9293 28.19482 66.9293 28.86389 67.59837 28.86389 68.42372ZM27.36948 68.42372" fill="#4d4dff"/>
<path transform="matrix(1.00002,0,0,-1.0001,86.02742,260.0427)" stroke-width=".3985" stroke-linecap="butt" stroke-miterlimit="10" stroke-linejoin="miter" fill="none" stroke="#4d4dff" d="M28.86389 68.42372C28.86389 69.24907 28.19482 69.91814 27.36948 69.91814 26.54414 69.91814 25.87506 69.24907 25.87506 68.42372 25.87506 67.59837 26.54414 66.9293 27.36948 66.9293 28.19482 66.9293 28.86389 67.59837 28.86389 68.42372ZM27.36948 68.42372"/>
<path transform="matrix(1.00002,0,0,-1.0001,86.02742,260.0427)" d="M37.98706 29.19412C37.98706 30.01945 37.318 30.68854 36.49265 30.68854 35.6673 30.68854 34.99823 30.01945 34.99823 29.19412 34.99823 28.36877 35.6673 27.6997 36.49265 27.6997 37.318 27.6997 37.98706 28.36877 37.98706 29.19412ZM36.49265 29.19412" fill="#4d4dff"/>
<path transform="matrix(1.00002,0,0,-1.0001,86.02742,260.0427)" stroke-width=".3985" stroke-linecap="butt" stroke-miterlimit="10" stroke-linejoin="miter" fill="none" stroke="#4d4dff" d="M37.98706 29.19412C37.98706 30.01945 37.318 30.68854 36.49265 30.68854 35.6673 30.68854 34.99823 30.01945 34.99823 29.19412 34.99823 28.36877 35.6673 27.6997 36.49265 27.6997 37.318 27.6997 37.98706 28.36877 37.98706 29.19412ZM36.49265 29.19412"/>
<path transform="matrix(1.00002,0,0,-1.0001,86.02742,260.0427)" d="M47.11023 46.52812C47.11023 47.35347 46.44116 48.02254 45.61581 48.02254 44.79047 48.02254 44.1214 47.35347 44.1214 46.52812 44.1214 45.70277 44.79047 45.0337 45.61581 45.0337 46.44116 45.0337 47.11023 45.70277 47.11023 46.52812ZM45.61581 46.52812" fill="#4d4dff"/>
<path transform="matrix(1.00002,0,0,-1.0001,86.02742,260.0427)" stroke-width=".3985" stroke-linecap="butt" stroke-miterlimit="10" stroke-linejoin="miter" fill="none" stroke="#4d4dff" d="M47.11023 46.52812C47.11023 47.35347 46.44116 48.02254 45.61581 48.02254 44.79047 48.02254 44.1214 47.35347 44.1214 46.52812 44.1214 45.70277 44.79047 45.0337 45.61581 45.0337 46.44116 45.0337 47.11023 45.70277 47.11023 46.52812ZM45.61581 46.52812"/>
<path transform="matrix(1.00002,0,0,-1.0001,86.02742,260.0427)" d="M56.23338 16.42169C56.23338 17.24702 55.56432 17.9161 54.73897 17.9161 53.91362 17.9161 53.24455 17.24702 53.24455 16.42169 53.24455 15.59634 53.91362 14.92728 54.73897 14.92728 55.56432 14.92728 56.23338 15.59634 56.23338 16.42169ZM54.73897 16.42169" fill="#4d4dff"/>
<path transform="matrix(1.00002,0,0,-1.0001,86.02742,260.0427)" stroke-width=".3985" stroke-linecap="butt" stroke-miterlimit="10" stroke-linejoin="miter" fill="none" stroke="#4d4dff" d="M56.23338 16.42169C56.23338 17.24702 55.56432 17.9161 54.73897 17.9161 53.91362 17.9161 53.24455 17.24702 53.24455 16.42169 53.24455 15.59634 53.91362 14.92728 54.73897 14.92728 55.56432 14.92728 56.23338 15.59634 56.23338 16.42169ZM54.73897 16.42169"/>
<path transform="matrix(1.00002,0,0,-1.0001,86.02742,260.0427)" d="M65.35655 56.5636C65.35655 57.38895 64.68748 58.05801 63.86214 58.05801 63.03679 58.05801 62.36772 57.38895 62.36772 56.5636 62.36772 55.73827 63.03679 55.06918 63.86214 55.06918 64.68748 55.06918 65.35655 55.73827 65.35655 56.5636ZM63.86214 56.5636" fill="#4d4dff"/>
<path transform="matrix(1.00002,0,0,-1.0001,86.02742,260.0427)" stroke-width=".3985" stroke-linecap="butt" stroke-miterlimit="10" stroke-linejoin="miter" fill="none" stroke="#4d4dff" d="M65.35655 56.5636C65.35655 57.38895 64.68748 58.05801 63.86214 58.05801 63.03679 58.05801 62.36772 57.38895 62.36772 56.5636 62.36772 55.73827 63.03679 55.06918 63.86214 55.06918 64.68748 55.06918 65.35655 55.73827 65.35655 56.5636ZM63.86214 56.5636"/>
<path transform="matrix(1.00002,0,0,-1.0001,86.02742,260.0427)" d="M74.47972 22.8079C74.47972 23.63324 73.81064 24.30232 72.9853 24.30232 72.15996 24.30232 71.49089 23.63324 71.49089 22.8079 71.49089 21.98256 72.15996 21.31349 72.9853 21.31349 73.81064 21.31349 74.47972 21.98256 74.47972 22.8079ZM72.9853 22.8079" fill="#4d4dff"/>
<path transform="matrix(1.00002,0,0,-1.0001,86.02742,260.0427)" stroke-width=".3985" stroke-linecap="butt" stroke-miterlimit="10" stroke-linejoin="miter" fill="none" stroke="#4d4dff" d="M74.47972 22.8079C74.47972 23.63324 73.81064 24.30232 72.9853 24.30232 72.15996 24.30232 71.49089 23.63324 71.49089 22.8079 71.49089 21.98256 72.15996 21.31349 72.9853 21.31349 73.81064 21.31349 74.47972 21.98256 74.47972 22.8079ZM72.9853 22.8079"/>
<path transform="matrix(1.00002,0,0,-1.0001,86.02742,260.0427)" d="M83.60287 44.70349C83.60287 45.52884 82.9338 46.1979 82.10846 46.1979 81.28311 46.1979 80.61404 45.52884 80.61404 44.70349 80.61404 43.87814 81.28311 43.20908 82.10846 43.20908 82.9338 43.20908 83.60287 43.87814 83.60287 44.70349ZM82.10846 44.70349" fill="#4d4dff"/>
<path transform="matrix(1.00002,0,0,-1.0001,86.02742,260.0427)" stroke-width=".3985" stroke-linecap="butt" stroke-miterlimit="10" stroke-linejoin="miter" fill="none" stroke="#4d4dff" d="M83.60287 44.70349C83.60287 45.52884 82.9338 46.1979 82.10846 46.1979 81.28311 46.1979 80.61404 45.52884 80.61404 44.70349 80.61404 43.87814 81.28311 43.20908 82.10846 43.20908 82.9338 43.20908 83.60287 43.87814 83.60287 44.70349ZM82.10846 44.70349"/>
<path transform="matrix(1.00002,0,0,-1.0001,86.02742,260.0427)" stroke-width=".3985" stroke-linecap="butt" stroke-miterlimit="10" stroke-linejoin="miter" fill="none" stroke="#4d4dff" d=""/>
<use data-text="W" xlink:href="#font_2_113" transform="matrix(9.962799,0,0,-9.963596,73.794178,156.81238)"/>
<use data-text="e" xlink:href="#font_2_50" transform="matrix(9.962799,0,0,-9.963596,83.20902,156.81238)"/>
<use data-text="a" xlink:href="#font_2_28" transform="matrix(9.962799,0,0,-9.963596,87.63251,156.81238)"/>
<use data-text="k" xlink:href="#font_2_70" transform="matrix(9.962799,0,0,-9.963596,92.6139,156.81238)"/>
<use data-text="N" xlink:href="#font_2_76" transform="matrix(9.962799,0,0,-9.963596,101.18191,156.81238)"/>
<use data-text="e" xlink:href="#font_2_50" transform="matrix(9.962799,0,0,-9.963596,108.654018,156.81238)"/>
<use data-text="g" xlink:href="#font_2_59" transform="matrix(9.962799,0,0,-9.963596,113.07751,156.81238)"/>
<use data-text="a" xlink:href="#font_2_28" transform="matrix(9.962799,0,0,-9.963596,118.05889,156.81238)"/>
<use data-text="t" xlink:href="#font_2_105" transform="matrix(9.962799,0,0,-9.963596,123.04029,156.81238)"/>
<use data-text="i" xlink:href="#font_2_66" transform="matrix(9.962799,0,0,-9.963596,126.915828,156.81238)"/>
<use data-text="v" xlink:href="#font_2_112" transform="matrix(9.962799,0,0,-9.963596,129.68549,156.81238)"/>
<use data-text="e" xlink:href="#font_2_50" transform="matrix(9.962799,0,0,-9.963596,134.67685,156.81238)"/>
<use data-text="(" xlink:href="#font_2_85" transform="matrix(9.962799,0,0,-9.963596,142.40799,156.81238)"/>
<use data-text="r" xlink:href="#font_2_96" transform="matrix(9.962799,0,0,-9.963596,146.28351,156.81238)"/>
<use data-text="=" xlink:href="#font_2_52" transform="matrix(9.962799,0,0,-9.963596,153.50656,156.81238)"/>
<use data-text="-" xlink:href="#font_2_64" transform="matrix(9.962799,0,0,-9.963596,164.57523,156.81238)"/>
<use data-text="0" xlink:href="#font_2_121" transform="matrix(9.962799,0,0,-9.963596,167.89286,156.81238)"/>
<use data-text="." xlink:href="#font_2_88" transform="matrix(9.962799,0,0,-9.963596,172.87424,156.81238)"/>
<use data-text="2" xlink:href="#font_2_107" transform="matrix(9.962799,0,0,-9.963596,175.64389,156.81238)"/>
<use data-text="5" xlink:href="#font_2_56" transform="matrix(9.962799,0,0,-9.963596,180.62528,156.81238)"/>
<use data-text=")" xlink:href="#font_2_86" transform="matrix(9.962799,0,0,-9.963596,185.60669,156.81238)"/>
<path transform="matrix(1.00002,0,0,-1.0001,233.43439,260.0427)" stroke-width=".19925" stroke-linecap="butt" stroke-miterlimit="10" stroke-linejoin="miter" fill="none" stroke="#7f807f" d=""/>
<path transform="matrix(1.00002,0,0,-1.0001,233.43439,260.0427)" stroke-width=".19925" stroke-linecap="butt" stroke-miterlimit="10" stroke-linejoin="miter" fill="none" stroke="#7f807f" d=""/>
<path transform="matrix(1.00002,0,0,-1.0001,233.43439,260.0427)" stroke-width=".3985" stroke-linecap="butt" stroke-miterlimit="10" stroke-linejoin="miter" fill="none" stroke="#000000" d="M0 0V91.23163H91.23163V0H0Z"/>
<g clip-path="url(#clip_6)">
<path transform="matrix(1.00002,0,0,-1.0001,233.43439,260.0427)" stroke-width=".79701" stroke-linecap="butt" stroke-miterlimit="10" stroke-linejoin="miter" fill="none" stroke="#ff0000" d="M0 82.10846 91.23163 9.12315"/>
</g>
<path transform="matrix(1.00002,0,0,-1.0001,233.43439,260.0427)" d="M10.61757 77.54688C10.61757 78.37222 9.9485 79.04129 9.12315 79.04129 8.2978 79.04129 7.62874 78.37222 7.62874 77.54688 7.62874 76.72153 8.2978 76.05246 9.12315 76.05246 9.9485 76.05246 10.61757 76.72153 10.61757 77.54688ZM9.12315 77.54688" fill="#4d4dff"/>
<path transform="matrix(1.00002,0,0,-1.0001,233.43439,260.0427)" stroke-width=".3985" stroke-linecap="butt" stroke-miterlimit="10" stroke-linejoin="miter" fill="none" stroke="#4d4dff" d="M10.61757 77.54688C10.61757 78.37222 9.9485 79.04129 9.12315 79.04129 8.2978 79.04129 7.62874 78.37222 7.62874 77.54688 7.62874 76.72153 8.2978 76.05246 9.12315 76.05246 9.9485 76.05246 10.61757 76.72153 10.61757 77.54688ZM9.12315 77.54688"/>
<path transform="matrix(1.00002,0,0,-1.0001,233.43439,260.0427)" d="M19.74074 64.77444C19.74074 65.5998 19.07167 66.26886 18.24632 66.26886 17.42097 66.26886 16.7519 65.5998 16.7519 64.77444 16.7519 63.94911 17.42097 63.28003 18.24632 63.28003 19.07167 63.28003 19.74074 63.94911 19.74074 64.77444ZM18.24632 64.77444" fill="#4d4dff"/>
<path transform="matrix(1.00002,0,0,-1.0001,233.43439,260.0427)" stroke-width=".3985" stroke-linecap="butt" stroke-miterlimit="10" stroke-linejoin="miter" fill="none" stroke="#4d4dff" d="M19.74074 64.77444C19.74074 65.5998 19.07167 66.26886 18.24632 66.26886 17.42097 66.26886 16.7519 65.5998 16.7519 64.77444 16.7519 63.94911 17.42097 63.28003 18.24632 63.28003 19.07167 63.28003 19.74074 63.94911 19.74074 64.77444ZM18.24632 64.77444"/>
<path transform="matrix(1.00002,0,0,-1.0001,233.43439,260.0427)" d="M28.86389 56.5636C28.86389 57.38895 28.19482 58.05801 27.36948 58.05801 26.54414 58.05801 25.87506 57.38895 25.87506 56.5636 25.87506 55.73827 26.54414 55.06918 27.36948 55.06918 28.19482 55.06918 28.86389 55.73827 28.86389 56.5636ZM27.36948 56.5636" fill="#4d4dff"/>
<path transform="matrix(1.00002,0,0,-1.0001,233.43439,260.0427)" stroke-width=".3985" stroke-linecap="butt" stroke-miterlimit="10" stroke-linejoin="miter" fill="none" stroke="#4d4dff" d="M28.86389 56.5636C28.86389 57.38895 28.19482 58.05801 27.36948 58.05801 26.54414 58.05801 25.87506 57.38895 25.87506 56.5636 25.87506 55.73827 26.54414 55.06918 27.36948 55.06918 28.19482 55.06918 28.86389 55.73827 28.86389 56.5636ZM27.36948 56.5636"/>
<path transform="matrix(1.00002,0,0,-1.0001,233.43439,260.0427)" d="M37.98706 55.65129C37.98706 56.47664 37.318 57.1457 36.49265 57.1457 35.6673 57.1457 34.99823 56.47664 34.99823 55.65129 34.99823 54.82594 35.6673 54.15688 36.49265 54.15688 37.318 54.15688 37.98706 54.82594 37.98706 55.65129ZM36.49265 55.65129" fill="#4d4dff"/>
<path transform="matrix(1.00002,0,0,-1.0001,233.43439,260.0427)" stroke-width=".3985" stroke-linecap="butt" stroke-miterlimit="10" stroke-linejoin="miter" fill="none" stroke="#4d4dff" d="M37.98706 55.65129C37.98706 56.47664 37.318 57.1457 36.49265 57.1457 35.6673 57.1457 34.99823 56.47664 34.99823 55.65129 34.99823 54.82594 35.6673 54.15688 36.49265 54.15688 37.318 54.15688 37.98706 54.82594 37.98706 55.65129ZM36.49265 55.65129"/>
<path transform="matrix(1.00002,0,0,-1.0001,233.43439,260.0427)" d="M47.11023 43.79118C47.11023 44.61652 46.44116 45.2856 45.61581 45.2856 44.79047 45.2856 44.1214 44.61652 44.1214 43.79118 44.1214 42.96584 44.79047 42.29677 45.61581 42.29677 46.44116 42.29677 47.11023 42.96584 47.11023 43.79118ZM45.61581 43.79118" fill="#4d4dff"/>
<path transform="matrix(1.00002,0,0,-1.0001,233.43439,260.0427)" stroke-width=".3985" stroke-linecap="butt" stroke-miterlimit="10" stroke-linejoin="miter" fill="none" stroke="#4d4dff" d="M47.11023 43.79118C47.11023 44.61652 46.44116 45.2856 45.61581 45.2856 44.79047 45.2856 44.1214 44.61652 44.1214 43.79118 44.1214 42.96584 44.79047 42.29677 45.61581 42.29677 46.44116 42.29677 47.11023 42.96584 47.11023 43.79118ZM45.61581 43.79118"/>
<path transform="matrix(1.00002,0,0,-1.0001,233.43439,260.0427)" d="M56.23338 41.05423C56.23338 41.87958 55.56432 42.54865 54.73897 42.54865 53.91362 42.54865 53.24455 41.87958 53.24455 41.05423 53.24455 40.22888 53.91362 39.55981 54.73897 39.55981 55.56432 39.55981 56.23338 40.22888 56.23338 41.05423ZM54.73897 41.05423" fill="#4d4dff"/>
<path transform="matrix(1.00002,0,0,-1.0001,233.43439,260.0427)" stroke-width=".3985" stroke-linecap="butt" stroke-miterlimit="10" stroke-linejoin="miter" fill="none" stroke="#4d4dff" d="M56.23338 41.05423C56.23338 41.87958 55.56432 42.54865 54.73897 42.54865 53.91362 42.54865 53.24455 41.87958 53.24455 41.05423 53.24455 40.22888 53.91362 39.55981 54.73897 39.55981 55.56432 39.55981 56.23338 40.22888 56.23338 41.05423ZM54.73897 41.05423"/>
<path transform="matrix(1.00002,0,0,-1.0001,233.43439,260.0427)" d="M65.35655 25.54485C65.35655 26.3702 64.68748 27.03926 63.86214 27.03926 63.03679 27.03926 62.36772 26.3702 62.36772 25.54485 62.36772 24.7195 63.03679 24.05043 63.86214 24.05043 64.68748 24.05043 65.35655 24.7195 65.35655 25.54485ZM63.86214 25.54485" fill="#4d4dff"/>
<path transform="matrix(1.00002,0,0,-1.0001,233.43439,260.0427)" stroke-width=".3985" stroke-linecap="butt" stroke-miterlimit="10" stroke-linejoin="miter" fill="none" stroke="#4d4dff" d="M65.35655 25.54485C65.35655 26.3702 64.68748 27.03926 63.86214 27.03926 63.03679 27.03926 62.36772 26.3702 62.36772 25.54485 62.36772 24.7195 63.03679 24.05043 63.86214 24.05043 64.68748 24.05043 65.35655 24.7195 65.35655 25.54485ZM63.86214 25.54485"/>
<path transform="matrix(1.00002,0,0,-1.0001,233.43439,260.0427)" d="M74.47972 28.2818C74.47972 29.10715 73.81064 29.77621 72.9853 29.77621 72.15996 29.77621 71.49089 29.10715 71.49089 28.2818 71.49089 27.45645 72.15996 26.78738 72.9853 26.78738 73.81064 26.78738 74.47972 27.45645 74.47972 28.2818ZM72.9853 28.2818" fill="#4d4dff"/>
<path transform="matrix(1.00002,0,0,-1.0001,233.43439,260.0427)" stroke-width=".3985" stroke-linecap="butt" stroke-miterlimit="10" stroke-linejoin="miter" fill="none" stroke="#4d4dff" d="M74.47972 28.2818C74.47972 29.10715 73.81064 29.77621 72.9853 29.77621 72.15996 29.77621 71.49089 29.10715 71.49089 28.2818 71.49089 27.45645 72.15996 26.78738 72.9853 26.78738 73.81064 26.78738 74.47972 27.45645 74.47972 28.2818ZM72.9853 28.2818"/>
<path transform="matrix(1.00002,0,0,-1.0001,233.43439,260.0427)" d="M83.60287 13.68474C83.60287 14.51009 82.9338 15.17915 82.10846 15.17915 81.28311 15.17915 80.61404 14.51009 80.61404 13.68474 80.61404 12.85939 81.28311 12.19032 82.10846 12.19032 82.9338 12.19032 83.60287 12.85939 83.60287 13.68474ZM82.10846 13.68474" fill="#4d4dff"/>
<path transform="matrix(1.00002,0,0,-1.0001,233.43439,260.0427)" stroke-width=".3985" stroke-linecap="butt" stroke-miterlimit="10" stroke-linejoin="miter" fill="none" stroke="#4d4dff" d="M83.60287 13.68474C83.60287 14.51009 82.9338 15.17915 82.10846 15.17915 81.28311 15.17915 80.61404 14.51009 80.61404 13.68474 80.61404 12.85939 81.28311 12.19032 82.10846 12.19032 82.9338 12.19032 83.60287 12.85939 83.60287 13.68474ZM82.10846 13.68474"/>
<path transform="matrix(1.00002,0,0,-1.0001,233.43439,260.0427)" stroke-width=".3985" stroke-linecap="butt" stroke-miterlimit="10" stroke-linejoin="miter" fill="none" stroke="#4d4dff" d=""/>
<use data-text="S" xlink:href="#font_2_97" transform="matrix(9.962799,0,0,-9.963596,218.8301,156.81238)"/>
<use data-text="t" xlink:href="#font_2_105" transform="matrix(9.962799,0,0,-9.963596,224.36942,156.81238)"/>
<use data-text="r" xlink:href="#font_2_96" transform="matrix(9.962799,0,0,-9.963596,228.24494,156.81238)"/>
<use data-text="o" xlink:href="#font_2_81" transform="matrix(9.962799,0,0,-9.963596,232.15036,156.81238)"/>
<use data-text="n" xlink:href="#font_2_77" transform="matrix(9.962799,0,0,-9.963596,237.13175,156.81238)"/>
<use data-text="g" xlink:href="#font_2_59" transform="matrix(9.962799,0,0,-9.963596,242.67107,156.81238)"/>
<use data-text="N" xlink:href="#font_2_76" transform="matrix(9.962799,0,0,-9.963596,250.9601,156.81238)"/>
<use data-text="e" xlink:href="#font_2_50" transform="matrix(9.962799,0,0,-9.963596,258.4322,156.81238)"/>
<use data-text="g" xlink:href="#font_2_59" transform="matrix(9.962799,0,0,-9.963596,262.8557,156.81238)"/>
<use data-text="a" xlink:href="#font_2_28" transform="matrix(9.962799,0,0,-9.963596,267.8371,156.81238)"/>
<use data-text="t" xlink:href="#font_2_105" transform="matrix(9.962799,0,0,-9.963596,272.81849,156.81238)"/>
<use data-text="i" xlink:href="#font_2_66" transform="matrix(9.962799,0,0,-9.963596,276.69404,156.81238)"/>
<use data-text="v" xlink:href="#font_2_112" transform="matrix(9.962799,0,0,-9.963596,279.46369,156.81238)"/>
<use data-text="e" xlink:href="#font_2_50" transform="matrix(9.962799,0,0,-9.963596,284.45503,156.81238)"/>
<use data-text="(" xlink:href="#font_2_85" transform="matrix(9.962799,0,0,-9.963596,292.1862,156.81238)"/>
<use data-text="r" xlink:href="#font_2_96" transform="matrix(9.962799,0,0,-9.963596,296.0617,156.81238)"/>
<use data-text="=" xlink:href="#font_2_52" transform="matrix(9.962799,0,0,-9.963596,303.28474,156.81238)"/>
<use data-text="-" xlink:href="#font_2_64" transform="matrix(9.962799,0,0,-9.963596,314.35343,156.81238)"/>
<use data-text="0" xlink:href="#font_2_121" transform="matrix(9.962799,0,0,-9.963596,317.67103,156.81238)"/>
<use data-text="." xlink:href="#font_2_88" transform="matrix(9.962799,0,0,-9.963596,322.65245,156.81238)"/>
<use data-text="8" xlink:href="#font_2_51" transform="matrix(9.962799,0,0,-9.963596,325.4221,156.81238)"/>
<use data-text="5" xlink:href="#font_2_56" transform="matrix(9.962799,0,0,-9.963596,330.4035,156.81238)"/>
<use data-text=")" xlink:href="#font_2_86" transform="matrix(9.962799,0,0,-9.963596,335.3849,156.81238)"/>
</svg>
