<svg xmlns="http://www.w3.org/2000/svg" xmlns:xlink="http://www.w3.org/1999/xlink" xmlns:inkscape="http://www.inkscape.org/namespaces/inkscape" version="1.1" width="241" height="129" viewBox="0 0 241 129">
<defs>
<path id="font_1_56" d="M.44898988 .20091248C.44898988 .31991578 .36698915 .41992188 .25898744 .41992188 .21099854 .41992188 .16799927 .4039154 .13198853 .36891175V.5641022C.1519928 .55778506 .18499756 .55078127 .21699524 .55078127 .33999635 .55078127 .4099884 .6418457 .4099884 .65493777 .4099884 .6609802 .40699769 .6660156 .3999939 .6660156 .3999939 .66607668 .39698792 .66607668 .3919983 .66308596 .37199403 .65408328 .32299806 .63378909 .2559967 .63378909 .21598816 .63409426 .16999817 .641098 .12298584 .6621094 .114990238 .6651001 .11099243 .6651001 .11099243 .6651001 .100997928 .66508486 .100997928 .657074 .100997928 .64108279V.3447113C.100997928 .3266449 .100997928 .31861878 .114990238 .31861878 .12199402 .31861878 .12399292 .32164 .12799073 .32765199 .13899231 .34371949 .17599488 .3979187 .25698854 .3979187 .30899049 .3979187 .33399964 .3517456 .34199525 .3336792 .35798646 .2965393 .3600006 .2574005 .3600006 .20721436 .3600006 .17218018 .3600006 .112197879 .33599855 .07032776 .31199647 .031448366 .2749939 .0055389406 .22898865 .0055389406 .1559906 .0055389406 .09899902 .05836487 .08198547 .1171875 .084991458 .11685181 .08799744 .115859989 .09899902 .115859989 .13198853 .115859989 .14898682 .14085388 .14898682 .16485596 .14898682 .18885803 .13198853 .21386719 .09899902 .21386719 .084991458 .21386719 .049987794 .2068634 .049987794 .16085816 .049987794 .07432556 .11898804-.022460938 .23098755-.022460938 .34700013-.022460938 .44898988 .07331848 .44898988 .20019531V.20091248Z"/>
<path id="font_1_502" d="M.20599365 .58932498C.20599365 .6493225 .18199158 .69433596 .13899231 .69433596 .10398865 .69433596 .085998538 .6673279 .085998538 .6413269 .085998538 .6153259 .102996829 .58833315 .13899231 .58833315 .15899658 .58833315 .17298889 .59832766 .1789856 .60432437 .17999268 .60632327 .18199158 .6073303 .18199158 .6073303 .18199158 .6073303 .18399048 .59332278 .18399048 .58932498 .18399048 .5573578 .1769867 .4854126 .11399841 .42347718 .101989749 .41148377 .101989749 .40948487 .101989749 .40649415 .101989749 .39949037 .10699463 .3955078 .11199951 .3955078 .12298584 .3955078 .20599365 .47143556 .20599365 .58932498Z"/>
<path id="font_1_51" d="M.45700074 .16764832C.45700074 .20367432 .44599916 .24871826 .4079895 .29074098 .3889923 .31176759 .37298585 .32176209 .30899049 .36180116 .3809967 .39881898 .42999269 .4508667 .42999269 .51690676 .42999269 .6089783 .34098817 .6660156 .25 .6660156 .1499939 .6660156 .068984989 .5919647 .068984989 .49890138 .068984989 .48088075 .070999149 .43585206 .11299133 .38882447 .12399292 .3768158 .16099549 .35179139 .18598938 .33477784 .12799073 .30575563 .041992189 .24971009 .041992189 .15063477 .041992189 .044555665 .14399719-.022460938 .24899292-.022460938 .3619995-.022460938 .45700074 .060577394 .45700074 .16764832M.38598634 .51690676C.38598634 .45986939 .34700013 .41183473 .2869873 .3768158L.16299439 .4568634C.116989139 .4868927 .11299133 .5209198 .11299133 .53793337 .11299133 .5989685 .17799378 .64100649 .24899292 .64100649 .32199098 .64100649 .38598634 .588974 .38598634 .51690676M.40699769 .13162232C.40699769 .05757141 .33198548 .0055389406 .25 .0055389406 .1639862 .0055389406 .09199524 .06758118 .09199524 .15063477 .09199524 .2086792 .12399292 .2727356 .20899964 .31976319L.33198548 .24171448C.3600006 .22268677 .40699769 .19267273 .40699769 .13162232Z"/>
<path id="font_1_500" d="M.20599365 .58932498C.20599365 .6493225 .18199158 .69433596 .13899231 .69433596 .10398865 .69433596 .085998538 .6673279 .085998538 .6413269 .085998538 .6153259 .102996829 .58833315 .13899231 .58833315 .15899658 .58833315 .17298889 .59832766 .1789856 .60432437 .17999268 .60632327 .18199158 .6073303 .18199158 .6073303 .18199158 .6073303 .18399048 .59332278 .18399048 .58932498 .18399048 .5573273 .1769867 .48532105 .11399841 .42332459 .101989749 .41133119 .101989749 .40933229 .101989749 .4063263 .101989749 .3993225 .10699463 .3953247 .11199951 .3953247 .12298584 .3953247 .20599365 .47132875 .20599365 .58932498M.3999939 .58932498C.3999939 .6493225 .37599183 .69433596 .33299256 .69433596 .2979889 .69433596 .27999879 .6673279 .27999879 .6413269 .27999879 .6153259 .29699708 .58833315 .33299256 .58833315 .35299684 .58833315 .36698915 .59832766 .37298585 .60432437 .37399293 .60632327 .37599183 .6073303 .37599183 .6073303 .37599183 .6073303 .37799073 .59332278 .37799073 .58932498 .37799073 .5573273 .37098695 .48532105 .30799867 .42332459 .29599 .41133119 .29599 .40933229 .29599 .4063263 .29599 .3993225 .30099488 .3953247 .30599977 .3953247 .31698609 .3953247 .3999939 .47132875 .3999939 .58932498Z"/>
<path id="font_1_78" d="M.45700074 .32888795C.45700074 .598114 .34199525 .6660156 .25299073 .6660156 .19799805 .6660156 .14898682 .64801028 .10598755 .6031189 .06498718 .5580902 .041992189 .5160217 .041992189 .44091798 .041992189 .3158722 .12998963 .21777344 .24198914 .21777344 .30299378 .21777344 .34399415 .25979615 .36698915 .3178711V.28582765C.36698915 .05178833 .2630005 .0055389406 .20498657 .0055389406 .18798828 .0055389406 .13398743 .007537842 .10699463 .041778566 .15098572 .041778566 .15899658 .07078552 .15899658 .08778381 .15899658 .118774417 .1349945 .13378906 .11299133 .13378906 .09700012 .13378906 .066986087 .12478638 .066986087 .08578491 .066986087 .018615723 .12098694-.022460938 .20599365-.022460938 .33499146-.022460938 .45700074 .11378479 .45700074 .32888795M.36499024 .42089845C.36499024 .33789063 .33099366 .24076844 .24299622 .24076844 .22698975 .2407074 .18099976 .2407074 .1499939 .30371095 .13198853 .34072877 .13198853 .3908081 .13198853 .43988038 .13198853 .49397279 .13198853 .5410614 .15299988 .578125 .17999268 .62805178 .21798706 .64100649 .25299073 .64100649 .29899598 .64100649 .33198548 .60710147 .34899903 .562088 .36099244 .52989199 .36499024 .46688844 .36499024 .42089845Z"/>
<path id="font_1_88" d="M.19198609 .052993776C.19198609 .08198547 .16799927 .10598755 .13899231 .10598755 .10998535 .10598755 .085998538 .08198547 .085998538 .052993776 .085998538 .023986817 .10998535 0 .13899231 0 .16799927 0 .19198609 .023986817 .19198609 .052993776Z"/>
<path id="font_1_101" d="M.45700074 .2036438C.45700074 .33070375 .36799623 .4267578 .25698854 .4267578 .18899536 .4267578 .1519928 .37573243 .13198853 .327713V.35173036C.13198853 .6047821 .2559967 .64100649 .30699159 .64100649 .33099366 .64100649 .37298585 .634964 .394989 .6007538 .37998963 .6007538 .33999635 .6007538 .33999635 .5557556 .33999635 .524765 .3639984 .5097656 .38598634 .5097656 .4019928 .5097656 .43199159 .51875308 .43199159 .5577545 .43199159 .6178589 .3880005 .6660156 .30499269 .6660156 .1769867 .6660156 .041992189 .5367584 .041992189 .31570436 .041992189 .048553468 .1579895-.022460938 .25099183-.022460938 .3619995-.022460938 .45700074 .07156372 .45700074 .2036438M.36698915 .20463562C.36698915 .15661621 .36698915 .10658264 .34999085 .0705719 .31999208 .010528564 .27398683 .0055389406 .25099183 .0055389406 .18798828 .0055389406 .1579895 .06556702 .1519928 .080566409 .13398743 .127594 .13398743 .2076416 .13398743 .22564698 .13398743 .30369569 .1659851 .40374757 .2559967 .40374757 .27198792 .40374757 .31799317 .40374757 .34899903 .34172059 .36698915 .30470277 .36698915 .2536621 .36698915 .20463562Z"/>
<path id="font_1_82" d="M.4189911 0V.0309906H.3869934C.29699708 .0309906 .2939911 .041992189 .2939911 .07902527V.64012148C.2939911 .6640167 .2939911 .6660156 .2709961 .6660156 .20899964 .60227969 .12098694 .60227969 .08898926 .60227969V.57128909C.10899353 .57128909 .16799927 .57128909 .21998596 .5972748V.07902527C.21998596 .042999269 .21699524 .0309906 .1269989 .0309906H.09498596V0C.12998963 .0029907227 .21699524 .0029907227 .25698854 .0029907227 .29699708 .0029907227 .38398744 .0029907227 .4189911 0Z"/>
<path id="font_1_121" d="M.45999146 .31976319C.45999146 .39982606 .45498658 .47988893 .41999818 .5539398 .37399293 .65000918 .2919922 .6660156 .25 .6660156 .18998719 .6660156 .116989139 .64001467 .07598877 .54693606 .04399109 .47789 .038986207 .39982606 .038986207 .31976319 .038986207 .24472046 .042999269 .15464783 .083999637 .07859802 .1269989-.0024719239 .19999695-.022460938 .24899292-.022460938 .30299378-.022460938 .3789978-.0014648438 .4229889 .09359741 .45498658 .16265869 .45999146 .2407074 .45999146 .31976319M.3769989 .3317871C.3769989 .25672914 .3769989 .18867493 .3659973 .12461853 .35099793 .029556275 .2939911-.00047302247 .24899292-.00047302247 .20999146-.00047302247 .15098572 .024551392 .1329956 .12062073 .12199402 .18066406 .12199402 .2727356 .12199402 .3317871 .12199402 .39582826 .12199402 .46188355 .12998963 .5159149 .14898682 .63500979 .22399903 .64401248 .24899292 .64401248 .28199769 .64401248 .34799195 .6259918 .36698915 .52693179 .3769989 .47088624 .3769989 .39482118 .3769989 .3317871Z"/>
<path id="font_1_106" d="M.45700074 .17037964C.45700074 .252594 .3939972 .33088685 .2899933 .35191346 .37199403 .37893678 .42999269 .4490509 .42999269 .52809146 .42999269 .6100464 .34199525 .6660156 .24598694 .6660156 .14498902 .6660156 .068984989 .60606387 .068984989 .53009036 .068984989 .49710084 .09098816 .47808839 .11999512 .47808839 .15098572 .47808839 .17098999 .50009158 .17098999 .5290985 .17098999 .57910159 .12399292 .57910159 .10899353 .57910159 .13999939 .62802127 .20599365 .64100649 .24198914 .64100649 .2829895 .64100649 .33799745 .6190338 .33799745 .5290985 .33799745 .51708987 .33599855 .45906068 .30999757 .4149933 .27999879 .36691285 .24598694 .36390687 .22099304 .36291505 .21299744 .36190797 .18899536 .35990907 .18199158 .35990907 .17399597 .35890199 .16699219 .35791017 .16699219 .3479004 .16699219 .33691407 .17399597 .33691407 .19099427 .33691407H.23498535C.31698609 .33691407 .35398866 .2686615 .35398866 .17037964 .35398866 .034469606 .2849884 .0055389406 .24099732 .0055389406 .19799805 .0055389406 .12298584 .022491456 .08799744 .08137512 .12298584 .07637024 .1539917 .09837341 .1539917 .1363678 .1539917 .17237854 .1269989 .19238281 .09799194 .19238281 .07398987 .19238281 .041992189 .17837525 .041992189 .1343689 .041992189 .043441774 .1349945-.022460938 .24398804-.022460938 .3659973-.022460938 .45700074 .06838989 .45700074 .17037964Z"/>
<path id="font_2_107" d="M.46199037 .17704773H.43399049C.43199159 .16404724 .42399598 .10501099 .41099549 .08900452 .40499879 .07998657 .33599855 .07998657 .31599427 .07998657H.13798523L.23699951 .17404175C.40098573 .3161316 .46199037 .36915589 .46199037 .4711914 .46199037 .5860901 .36698915 .6660156 .24398804 .6660156 .1289978 .6660156 .050994874 .575119 .050994874 .4841919 .050994874 .43418885 .09399414 .42919923 .102996829 .42919923 .125 .42919923 .15499878 .44519044 .15499878 .48120118 .15499878 .51119998 .13398743 .5332031 .102996829 .5332031 .09799194 .5332031 .09498596 .5332031 .09098816 .53219607 .114990238 .6030731 .1789856 .63500979 .23298645 .63500979 .33499146 .63500979 .36999513 .5401764 .36999513 .4711914 .36999513 .36915589 .29299928 .28611756 .24499512 .23408509L.06199646 .035995485C.050994874 .024993897 .050994874 .022994996 .050994874 0H.43399049L.46199037 .17704773Z"/>
<path id="font_2_88" d="M.19599915 .053985597C.19599915 .08299255 .17199707 .10798645 .14199829 .10798645 .11199951 .10798645 .08799744 .08299255 .08799744 .053985597 .08799744 .023986817 .11199951 0 .14199829 0 .17199707 0 .19599915 .023986817 .19599915 .053985597Z"/>
<path id="font_2_56" d="M.46199037 .19992066C.46199037 .3209076 .37599183 .41992188 .2669983 .41992188 .21899414 .41992188 .16999817 .4039154 .1349945 .36791993V.5647888C.16499329 .55578616 .19599915 .55078127 .22698975 .55078127 .34999085 .55078127 .42199708 .63983157 .42199708 .6529236 .42199708 .6619873 .41600038 .6660156 .41099549 .6660156 .41099549 .6660156 .40699769 .6660156 .397995 .6609802 .35099793 .6418457 .30499269 .63378909 .2630005 .63378909 .21998596 .63378909 .1749878 .6418457 .1289978 .6609802 .11898804 .6660156 .115997318 .6660156 .115997318 .6660156 .10398865 .6660156 .10398865 .6559448 .10398865 .63882449V.34490968C.10398865 .32699586 .10398865 .31599427 .117996219 .31599427 .12599182 .31562806 .1289978 .3196411 .1349945 .32867433 .16499329 .37083436 .21299744 .39491273 .2649994 .39491273 .37199403 .39491273 .37199403 .24035645 .37199403 .20422364 .37199403 .17321778 .37199403 .11122131 .34399415 .06636047 .31698609 .024475098 .2749939 .0055389406 .23599243 .0055389406 .1769867 .0055389406 .10998535 .042419435 .085998538 .11621094 .085998538 .116882327 .09298706 .11488342 .099990848 .11488342 .11999512 .11488342 .14898682 .12788391 .14898682 .1638794 .14898682 .19488526 .1269989 .21289063 .099990848 .21289063 .07899475 .21289063 .050994874 .20088196 .050994874 .16088867 .050994874 .069732669 .1269989-.022460938 .23799134-.022460938 .35899354-.02279663 .46199037 .07521057 .46199037 .19921875V.19992066Z"/>
<path id="font_2_87" d="M.71199038 .7282562C.71199038 .7422638 .69999697 .7502594 .69099429 .7502594 .6799927 .7502594 .6749878 .7442627 .6689911 .73526 .6049957 .6512604 .5209961 .6402588 .47499085 .6402588 .37799073 .6402588 .31399537 .68826296 .2789917 .72125247 .2519989 .7452545 .22599793 .7502594 .20799256 .7502594 .1309967 .7502594 .056991579 .6672516 .056991579 .5492554 .056991579 .42726136 .1329956 .34725953 .20799256 .34725953 .28199769 .34725953 .34199525 .43525697 .34199525 .54826357 .34199525 .56326296 .34199525 .6082611 .32199098 .6572571 .38398744 .6222534 .43998719 .6152649 .47499085 .6152649 .5189972 .6152649 .5649872 .6252594 .6069946 .6482544L.60798647 .6472626 .1519928-.013748169C.15098572-.01574707 .14299011-.026748658 .14299011-.033737184 .14299011-.04673767 .15299988-.055740358 .16499329-.055740358 .17599488-.055740358 .18099976-.04774475 .18699646-.039749147L.70399478 .7102661C.70899966 .71725466 .71199038 .72125247 .71199038 .7282562M.7979889 .14526367C.7979889 .2622528 .7369995 .34725953 .6639862 .34725953 .58699038 .34725953 .5130005 .2642517 .5130005 .1462555 .5130005 .024261475 .58898928-.055740358 .6639862-.055740358 .73799136-.055740358 .7979889 .03225708 .7979889 .14526367M.31399537 .5492554C.31399537 .44325257 .26098634 .37225343 .20999146 .37225343 .18899536 .37225343 .12298584 .3852539 .12298584 .54826357 .12298584 .71325686 .18899536 .7252655 .20999146 .7252655 .2630005 .7252655 .31399537 .6512604 .31399537 .5492554M.769989 .1462555C.769989 .040252687 .71699526-.03074646 .66600039-.03074646 .644989-.03074646 .57899478-.017745972 .57899478 .14526367 .57899478 .31025697 .644989 .32226563 .66600039 .32226563 .71899417 .32226563 .769989 .2482605 .769989 .1462555Z"/>
</defs>
<path transform="matrix(1.00003,0,0,-1.00008,120.553089,115.027919)" d="M-119.05634 .24654-116.37132 .32439-113.6863 .42387-111.00128 .5493-108.31627 .70502-105.63124 .90831-102.94623 1.15054-100.2612 1.45764-97.5762 1.84259-94.89119 2.30542-92.20616 2.85905-89.52115 3.53815-86.83612 4.34267-84.15111 5.28993-81.46608 6.42317-78.78107 7.73376-76.09607 9.26062-73.41104 11.0124-70.72603 13.01506-68.041 15.2902-68.0322 0H-119.05634Z" fill="#b3b3ff"/>
<path transform="matrix(1.00003,0,0,-1.00008,120.553089,115.027919)" stroke-width="1.19553" stroke-linecap="butt" stroke-miterlimit="10" stroke-linejoin="miter" fill="none" stroke="#000000" d="M-119.05634 .24654-114.19704 .39792-109.33774 .64447-104.47844 1.0078-99.61916 1.54846-94.75986 2.32704-89.90057 3.43433-85.04128 4.9612-80.18198 7.02008-75.32268 9.73642-70.46338 13.23132-65.6041 17.60861-60.7448 22.95912-55.8855 29.3304-51.02621 36.71382-46.16692 45.03154-41.30762 54.11484-36.44833 63.70421-31.58904 73.49254-26.72974 83.06029-21.87044 91.99652-17.01114 99.81248-12.15186 106.12323-7.29256 110.53511-2.43327 112.82324H2.426L7.2853 110.5481 12.14459 106.12323 17.00388 99.82547 21.86317 92.00517 26.72247 83.08192 31.58177 73.50119 36.44107 63.71718 41.30035 54.12349 46.15964 45.04019 51.01894 36.7268 55.87823 29.33905 60.73753 22.97208 65.59683 17.60861 70.45612 13.23132 75.31541 9.73642 80.17471 7.02008 85.03401 4.9612 89.89331 3.43433 94.75258 2.32704 99.61188 1.54846 104.47118 1.0078 109.33047 .64447 114.18977 .40225 119.04906 .24654"/>
<path transform="matrix(1.00003,0,0,-1.00008,120.553089,115.027919)" stroke-width=".3985" stroke-linecap="butt" stroke-dasharray="2.98883,2.98883" stroke-miterlimit="10" stroke-linejoin="miter" fill="none" stroke="#cccccc" d="M-102.0483 0V1.24568"/>
<path transform="matrix(1.00003,0,0,-1.00008,120.553089,115.027919)" stroke-width=".3985" stroke-linecap="butt" stroke-dasharray="2.98883,2.98883" stroke-miterlimit="10" stroke-linejoin="miter" fill="none" stroke="#cccccc" d="M-68.0322 0V15.30753"/>
<path transform="matrix(1.00003,0,0,-1.00008,120.553089,115.027919)" stroke-width=".3985" stroke-linecap="butt" stroke-dasharray="2.98883,2.98883" stroke-miterlimit="10" stroke-linejoin="miter" fill="none" stroke="#cccccc" d="M-34.0161 0V68.60054"/>
<path transform="matrix(1.00003,0,0,-1.00008,120.553089,115.027919)" stroke-width=".3985" stroke-linecap="butt" stroke-dasharray="2.98883,2.98883" stroke-miterlimit="10" stroke-linejoin="miter" fill="none" stroke="#cccccc" d="M0 0V112.81892"/>
<path transform="matrix(1.00003,0,0,-1.00008,120.553089,115.027919)" stroke-width=".3985" stroke-linecap="butt" stroke-dasharray="2.98883,2.98883" stroke-miterlimit="10" stroke-linejoin="miter" fill="none" stroke="#cccccc" d="M34.0161 0V68.60054"/>
<path transform="matrix(1.00003,0,0,-1.00008,120.553089,115.027919)" stroke-width=".3985" stroke-linecap="butt" stroke-dasharray="2.98883,2.98883" stroke-miterlimit="10" stroke-linejoin="miter" fill="none" stroke="#cccccc" d="M68.0322 0V15.30753"/>
<path transform="matrix(1.00003,0,0,-1.00008,120.553089,115.027919)" stroke-width=".3985" stroke-linecap="butt" stroke-dasharray="2.98883,2.98883" stroke-miterlimit="10" stroke-linejoin="miter" fill="none" stroke="#cccccc" d="M102.0483 0V1.24568"/>
<path transform="matrix(1.00003,0,0,-1.00008,120.553089,115.027919)" stroke-width=".79701" stroke-linecap="butt" stroke-miterlimit="10" stroke-linejoin="miter" fill="none" stroke="#000000" d="M-119.05634 0H119.05634"/>
<use data-text="5" xlink:href="#font_1_56" transform="matrix(9.962899,0,0,-9.963397,111.83582,127.45591)"/>
<use data-text="&#x2019;" xlink:href="#font_1_502" transform="matrix(9.962899,0,0,-9.963397,116.81727,127.45591)"/>
<use data-text="8" xlink:href="#font_1_51" transform="matrix(9.962899,0,0,-9.963397,119.58695,127.45591)"/>
<use data-text="&#x201d;" xlink:href="#font_1_500" transform="matrix(9.962899,0,0,-9.963397,124.5684,127.45591)"/>
<use data-text="5" xlink:href="#font_1_56" transform="matrix(9.962899,0,0,-9.963397,141.97673,127.45591)"/>
<use data-text="&#x2019;" xlink:href="#font_1_502" transform="matrix(9.962899,0,0,-9.963397,146.95818,127.45591)"/>
<use data-text="9" xlink:href="#font_1_78" transform="matrix(9.962899,0,0,-9.963397,149.72786,127.45591)"/>
<use data-text="." xlink:href="#font_1_88" transform="matrix(9.962899,0,0,-9.963397,154.7093,127.45591)"/>
<use data-text="5" xlink:href="#font_1_56" transform="matrix(9.962899,0,0,-9.963397,157.47899,127.45591)"/>
<use data-text="&#x201d;" xlink:href="#font_1_500" transform="matrix(9.962899,0,0,-9.963397,162.46044,127.45591)"/>
<use data-text="5" xlink:href="#font_1_56" transform="matrix(9.962899,0,0,-9.963397,73.94269,127.45591)"/>
<use data-text="&#x2019;" xlink:href="#font_1_502" transform="matrix(9.962899,0,0,-9.963397,78.92413,127.45591)"/>
<use data-text="6" xlink:href="#font_1_101" transform="matrix(9.962899,0,0,-9.963397,81.69382,127.45591)"/>
<use data-text="." xlink:href="#font_1_88" transform="matrix(9.962899,0,0,-9.963397,86.67526,127.45591)"/>
<use data-text="5" xlink:href="#font_1_56" transform="matrix(9.962899,0,0,-9.963397,89.44495,127.45591)"/>
<use data-text="&#x201d;" xlink:href="#font_1_500" transform="matrix(9.962899,0,0,-9.963397,94.42639,127.45591)"/>
<use data-text="5" xlink:href="#font_1_56" transform="matrix(9.962899,0,0,-9.963397,177.37879,127.45591)"/>
<use data-text="&#x2019;" xlink:href="#font_1_502" transform="matrix(9.962899,0,0,-9.963397,182.36023,127.45591)"/>
<use data-text="1" xlink:href="#font_1_82" transform="matrix(9.962899,0,0,-9.963397,185.12992,127.45591)"/>
<use data-text="1" xlink:href="#font_1_82" transform="matrix(9.962899,0,0,-9.963397,190.11136,127.45591)"/>
<use data-text="&#x201d;" xlink:href="#font_1_500" transform="matrix(9.962899,0,0,-9.963397,195.0928,127.45591)"/>
<use data-text="5" xlink:href="#font_1_56" transform="matrix(9.962899,0,0,-9.963397,43.80078,127.45591)"/>
<use data-text="&#x2019;" xlink:href="#font_1_502" transform="matrix(9.962899,0,0,-9.963397,48.782228,127.45591)"/>
<use data-text="5" xlink:href="#font_1_56" transform="matrix(9.962899,0,0,-9.963397,51.55191,127.45591)"/>
<use data-text="&#x201d;" xlink:href="#font_1_500" transform="matrix(9.962899,0,0,-9.963397,56.533357,127.45591)"/>
<use data-text="6" xlink:href="#font_1_101" transform="matrix(9.962899,0,0,-9.963397,210.01078,127.45591)"/>
<use data-text="&#x2019;" xlink:href="#font_1_502" transform="matrix(9.962899,0,0,-9.963397,214.99222,127.45591)"/>
<use data-text="0" xlink:href="#font_1_121" transform="matrix(9.962899,0,0,-9.963397,217.7619,127.45591)"/>
<use data-text="." xlink:href="#font_1_88" transform="matrix(9.962899,0,0,-9.963397,222.74335,127.45591)"/>
<use data-text="5" xlink:href="#font_1_56" transform="matrix(9.962899,0,0,-9.963397,225.51303,127.45591)"/>
<use data-text="&#x201d;" xlink:href="#font_1_500" transform="matrix(9.962899,0,0,-9.963397,230.49448,127.45591)"/>
<use data-text="5" xlink:href="#font_1_56" transform="matrix(9.962899,0,0,-9.963397,5.9086458,127.45591)"/>
<use data-text="&#x2019;" xlink:href="#font_1_502" transform="matrix(9.962899,0,0,-9.963397,10.890091,127.45591)"/>
<use data-text="3" xlink:href="#font_1_106" transform="matrix(9.962899,0,0,-9.963397,13.659775,127.45591)"/>
<use data-text="." xlink:href="#font_1_88" transform="matrix(9.962899,0,0,-9.963397,18.64122,127.45591)"/>
<use data-text="5" xlink:href="#font_1_56" transform="matrix(9.962899,0,0,-9.963397,21.410904,127.45591)"/>
<use data-text="&#x201d;" xlink:href="#font_1_500" transform="matrix(9.962899,0,0,-9.963397,26.39235,127.45591)"/>
<use data-text="2" xlink:href="#font_2_107" transform="matrix(8.966669,0,0,-8.967117,22.379136,101.130809)" fill="#0000cc"/>
<use data-text="." xlink:href="#font_2_88" transform="matrix(8.966669,0,0,-8.967117,26.988007,101.130809)" fill="#0000cc"/>
<use data-text="5" xlink:href="#font_2_56" transform="matrix(8.966669,0,0,-8.967117,29.552475,101.130809)" fill="#0000cc"/>
<use data-text="%" xlink:href="#font_2_87" transform="matrix(8.966669,0,0,-8.967117,34.161348,101.130809)" fill="#0000cc"/>
<path transform="matrix(1.00003,0,0,-1.00008,120.553089,115.027919)" stroke-width=".79701" stroke-linecap="butt" stroke-miterlimit="10" stroke-linejoin="miter" fill="none" stroke="#0000cc" d="M-85.04024 11.3368-74.8353 2.83311"/>
</svg>
