<svg xmlns="http://www.w3.org/2000/svg" xmlns:xlink="http://www.w3.org/1999/xlink" xmlns:inkscape="http://www.inkscape.org/namespaces/inkscape" version="1.1" width="194" height="177" viewBox="0 0 194 177">
<defs>
<clipPath id="clip_1">
<path transform="matrix(1.0001,0,0,-1.00003,1.0963059,103.00506)" d="M194.96537-18.79268V71.38849L124.01166 116.40154 0 90.18117V0L70.9537-45.01305Z"/>
</clipPath>
<path id="font_2_1" d="M.20298767 .3371582V.4501953L.036987306 .44218446V.39518739C.09899902 .39518739 .10598755 .39518739 .10598755 .35617066V.04699707H.036987306V0C.07199097 .0009918213 .116989139 .0029907227 .16299439 .0029907227 .20098877 .0029907227 .2649994 .0029907227 .30099488 0V.04699707H.21398926V.22209168C.21398926 .2921753 .23899842 .41418458 .33898927 .41418458 .33799745 .41319276 .31999208 .39718629 .31999208 .36819459 .31999208 .3271942 .35198976 .30718995 .3809967 .30718995 .4099884 .30718995 .44198609 .32818605 .44198609 .36819459 .44198609 .42118836 .3880005 .4501953 .33599855 .4501953 .2659912 .4501953 .22599793 .40019227 .20298767 .3371582Z"/>
<path id="font_3_1" d="M.33099366-.2400055C.33099366-.23701477 .33099366-.23500061 .31399537-.21800232 .18899536-.0920105 .15699768 .09700012 .15699768 .25 .15699768 .42399598 .19499207 .59799197 .31799317 .72299197 .33099366 .73498538 .33099366 .7369995 .33099366 .73999026 .33099366 .746994 .32699586 .75 .32099916 .75 .31098939 .75 .22099304 .6819916 .1619873 .5549927 .11099243 .44499208 .09899902 .33399964 .09899902 .25 .09899902 .17199707 .10998535 .050994874 .16499329-.06201172 .22499085-.18501282 .31098939-.25 .32099916-.25 .32699586-.25 .33099366-.24700928 .33099366-.2400055Z"/>
<path id="font_3_3" d="M.2939911 .64004519C.2939911 .66400149 .2939911 .6660156 .2709961 .6660156 .20899964 .60227969 .12098694 .60227969 .08898926 .60227969V.57128909C.10899353 .57128909 .16799927 .57128909 .21998596 .5972748V.07902527C.21998596 .042999269 .21699524 .0309906 .1269989 .0309906H.09498596V0C.12998963 .0029907227 .21699524 .0029907227 .25698854 .0029907227 .29699708 .0029907227 .38398744 .0029907227 .4189911 0V.0309906H.3869934C.29699708 .0309906 .2939911 .041992189 .2939911 .07902527V.64004519Z"/>
<path id="font_3_2" d="M.2889862 .25C.2889862 .32798768 .27799989 .44898988 .22299195 .56199648 .16299439 .68499758 .07699585 .75 .066986087 .75 .06098938 .75 .056991579 .74598696 .056991579 .73999026 .056991579 .7369995 .056991579 .73498538 .07598877 .71699526 .17399597 .6179962 .23098755 .45899964 .23098755 .25 .23098755 .07899475 .19400025-.09700012 .069992069-.2230072 .056991579-.23500061 .056991579-.23701477 .056991579-.2400055 .056991579-.2460022 .06098938-.25 .066986087-.25 .07699585-.25 .16699219-.18200684 .22599793-.055007936 .2769928 .054992677 .2889862 .16600037 .2889862 .25Z"/>
<path id="font_3_4" d="M.2899933 .35191346C.37199403 .37893678 .42999269 .4490509 .42999269 .52809146 .42999269 .6100464 .34199525 .6660156 .24598694 .6660156 .14498902 .6660156 .068984989 .60606387 .068984989 .53009036 .068984989 .49710084 .09098816 .47808839 .11999512 .47808839 .15098572 .47808839 .17098999 .50009158 .17098999 .5290985 .17098999 .57910159 .12399292 .57910159 .10899353 .57910159 .13999939 .62802127 .20599365 .64100649 .24198914 .64100649 .2829895 .64100649 .33799745 .6190338 .33799745 .5290985 .33799745 .51708987 .33599855 .45906068 .30999757 .4149933 .27999879 .36691285 .24598694 .36390687 .22099304 .36291505 .21299744 .36190797 .18899536 .35990907 .18199158 .35990907 .17399597 .35890199 .16699219 .35791017 .16699219 .3479004 .16699219 .33691407 .17399597 .33691407 .19099427 .33691407H.23498535C.31698609 .33691407 .35398866 .2686615 .35398866 .17037964 .35398866 .034469606 .2849884 .0055389406 .24099732 .0055389406 .19799805 .0055389406 .12298584 .022491456 .08799744 .08137512 .12298584 .07637024 .1539917 .09837341 .1539917 .1363678 .1539917 .17237854 .1269989 .19238281 .09799194 .19238281 .07398987 .19238281 .041992189 .17837525 .041992189 .1343689 .041992189 .043441774 .1349945-.022460938 .24398804-.022460938 .3659973-.022460938 .45700074 .06838989 .45700074 .17037964 .45700074 .252594 .3939972 .33088685 .2899933 .35191346Z"/>
<path id="font_4_1" d="M.33399964 .30233766C.33999635 .32835389 .36299134 .42037965 .43299867 .42037965 .43798829 .42037965 .46199037 .42037965 .48298646 .40734864 .45498658 .402359 .43499757 .37734986 .43499757 .35334779 .43499757 .33735658 .44599916 .31835938 .47299195 .31835938 .49499513 .31835938 .5269928 .3363495 .5269928 .37635804 .5269928 .42837525 .46798707 .4423828 .43399049 .4423828 .37599183 .4423828 .34098817 .38935853 .32899476 .36634828 .3039856 .43237306 .25 .4423828 .22099304 .4423828 .116989139 .4423828 .05999756 .3133545 .05999756 .28834535 .05999756 .27833558 .069992069 .27833558 .07199097 .27833558 .07998657 .27833558 .08299255 .28033448 .084991458 .28933717 .11898804 .39535523 .18499756 .42037965 .21899414 .42037965 .23799134 .42037965 .272995 .4113617 .272995 .35334779 .272995 .32235719 .2559967 .25532533 .21899414 .11528015 .20298767 .053268434 .16799927 .011245728 .12399292 .011245728 .117996219 .011245728 .09498596 .011245728 .07398987 .024276734 .09899902 .029266358 .12098694 .05027771 .12098694 .07827759 .12098694 .105270389 .09899902 .11328125 .083999637 .11328125 .053985597 .11328125 .0289917 .08728027 .0289917 .055267335 .0289917 .009246826 .07899475-.0107421879 .12298584-.0107421879 .18899536-.0107421879 .22499085 .059280397 .22799683 .0652771 .23999024 .028274537 .27598573-.0107421879 .33599855-.0107421879 .43899537-.0107421879 .49598695 .118270877 .49598695 .14328003 .49598695 .1532898 .4869995 .1532898 .48399354 .1532898 .47499085 .1532898 .47299195 .14929199 .47099305 .14228821 .43798829 .03527832 .36999513 .011245728 .33799745 .011245728 .29899598 .011245728 .2829895 .043273927 .2829895 .07727051 .2829895 .09927368 .2889862 .121276859 .2999878 .16529846L.33399964 .30233766Z"/>
<path id="font_4_2" d="M.48599244 .38136292C.48999024 .39537049 .48999024 .39736939 .48999024 .40437318 .48999024 .42237855 .47599793 .43138124 .46099855 .43138124 .45098878 .43138124 .43499757 .42536927 .42599488 .41036988 .42399598 .405365 .41600038 .37435914 .4119873 .35635377 .40499879 .33035279 .397995 .30334474 .3919983 .27633668L.34700013 .09628296C.34298707 .08126831 .2999878 .011245728 .23399353 .011245728 .18299866 .011245728 .17199707 .055267335 .17199707 .0922699 .17199707 .1382904 .18899536 .20030213 .22299195 .28833009 .23899842 .3293457 .24299622 .3403473 .24299622 .36035157 .24299622 .405365 .21099854 .4423828 .16099549 .4423828 .06599426 .4423828 .0289917 .29733277 .0289917 .28833009 .0289917 .27833558 .038986207 .27833558 .040985109 .27833558 .050994874 .27833558 .051986696 .28033448 .056991579 .29634095 .083999637 .3903656 .12399292 .42037965 .1579895 .42037965 .1659851 .42037965 .18299866 .42037965 .18299866 .3883667 .18299866 .36335755 .17298889 .3373413 .1659851 .31834413 .12599182 .21231079 .10798645 .1552887 .10798645 .10827637 .10798645 .019256592 .17098999-.0107421879 .22999573-.0107421879 .2689972-.0107421879 .30299378 .0062561037 .33099366 .03425598 .31799317-.017745972 .30599977-.06674194 .2659912-.11973572 .23999024-.15385437 .20199585-.18309021 .1559906-.18309021 .14199829-.18309021 .09700012-.18005371 .07998657-.14074707 .09599304-.14074707 .10899353-.14074707 .12298584-.1287384 .1329956-.11973572 .14299011-.10673523 .14299011-.08773804 .14299011-.056747438 .115997318-.052734376 .10598755-.052734376 .08299255-.052734376 .049987794-.068740848 .049987794-.11773682 .049987794-.16796875 .09399414-.20507813 .1559906-.20507813 .25898744-.20507813 .3619995-.11373901 .3899994-.00074768069L.48599244 .38136292Z"/>
<path id="font_4_3" d="M.1329956 .08345032C.18699646 .14138794 .21598816 .16636658 .2519989 .19732666 .2519989 .19833374 .31399537 .25128175 .34999085 .2872467 .44499208 .3803711 .46699525 .42837525 .46699525 .43237306 .46699525 .4423828 .45799256 .4423828 .45599366 .4423828 .44898988 .4423828 .44599916 .44036866 .44099427 .43138124 .41099549 .38337709 .3899994 .3671875 .3659973 .3671875 .34199525 .3671875 .32998658 .38237 .31498719 .3993683 .29599 .42237855 .2789917 .4423828 .24598694 .4423828 .17098999 .4423828 .125 .34918214 .125 .3282013 .125 .3231964 .12799073 .31721498 .13699341 .31721498 .1459961 .31721498 .147995 .3222046 .1499939 .3282013 .16899109 .37434388 .22698975 .37538148 .23498535 .37538148 .2559967 .37538148 .2749939 .36820985 .2979889 .36018373 .33799745 .34518434 .34899903 .34518434 .375 .34518434 .33898927 .30223084 .25498963 .2303009 .23599243 .21430969L.1459961 .13040161C.07798767 .06341553 .042999269 .0062561037 .042999269-.00074768069 .042999269-.0107421879 .052993776-.0107421879 .054992677-.0107421879 .06298828-.0107421879 .06498718-.008743286 .070999149 .002243042 .09399414 .037246705 .12399292 .064453128 .1559906 .064453128 .1789856 .064453128 .18899536 .055252077 .21398926 .026245118 .23098755 .0052490236 .24899292-.0107421879 .27799989-.0107421879 .3769989-.0107421879 .43499757 .1164093 .43499757 .14338684 .43499757 .14837647 .43099977 .15338135 .4229889 .15338135 .4139862 .15338135 .4119873 .14738465 .40899659 .14039612 .38598634 .07543945 .32199098 .056243898 .2889862 .056243898 .2689972 .056243898 .25099183 .06239319 .22999573 .06944275 .19599915 .08244324 .18099976 .08644104 .1599884 .08644104 .1579895 .08644104 .14199829 .08644104 .1329956 .08345032Z"/>
</defs>
<path transform="matrix(1.0001,0,0,-1.00003,1.0963059,103.00506)" stroke-width=".3985" stroke-linecap="butt" stroke-miterlimit="10" stroke-linejoin="miter" fill="none" stroke="#000000" d="M56.36893 11.91835 125.64024-32.02737"/>
<path transform="matrix(.84444448,.5356961,.5357336,-.8443854,126.749118,135.03339)" d="M1.99252 0-1.19551 1.59401 0 0-1.19551-1.59401"/>
<path transform="matrix(1.0001,0,0,-1.00003,1.0963059,103.00506)" stroke-width=".3985" stroke-linecap="butt" stroke-miterlimit="10" stroke-linejoin="miter" fill="none" stroke="#000000" d="M0 0 122.06227 25.80823"/>
<path transform="matrix(.97844788,-.20685622,-.20687069,-.97837939,123.170787,77.196079)" d="M1.99252 0-1.19551 1.59401 0 0-1.19551-1.59401"/>
<path transform="matrix(1.0001,0,0,-1.00003,1.0963059,103.00506)" stroke-width=".3985" stroke-linecap="butt" stroke-miterlimit="10" stroke-linejoin="miter" fill="none" stroke="#000000" d="M56.36893 11.91835V100.107"/>
<path transform="matrix(0,-1.00003,-1.0001,-0,57.470876,2.89505)" d="M1.99252 0-1.19551 1.59401 0 0-1.19551-1.59401"/>
<g clip-path="url(#clip_1)">
<path transform="matrix(1.0001,0,0,-1.00003,1.0963059,103.00506)" stroke-width=".79701" stroke-linecap="butt" stroke-miterlimit="10" stroke-linejoin="miter" fill="none" stroke="#0000ff" d="M23.0994-5.1185C23.0994-5.1185 23.83421-5.5291 24.14558-5.65732 24.45695-5.78554 24.99008-5.95699 25.34358-6.04259 25.69707-6.12819 26.29778-6.23134 26.69339-6.27435 27.089-6.31735 27.75723-6.35217 28.19498-6.35257 28.63272-6.35297 29.36853-6.31947 29.84839-6.27728 30.32826-6.23509 31.13158-6.13326 31.65356-6.04848 32.17555-5.9637 33.04646-5.79355 33.61058-5.66615 34.1747-5.53876 35.11313-5.30028 35.71936-5.1303 36.3256-4.96031 37.3316-4.65352 37.97997-4.44092 38.62833-4.22832 39.70186-3.85321 40.39235-3.598 41.08284-3.34282 42.22392-2.89938 42.95654-2.6016 43.68916-2.3038 44.8978-1.79205 45.67253-1.45164 46.44725-1.11124 47.72345-.53119 48.5403-.1482 49.35715 .23479 50.70091 .88318 51.55989 1.30878 52.41885 1.73438 53.83015 2.45107 54.73125 2.91928 55.63234 3.38748 57.11122 4.1725 58.05444 4.6833 58.99767 5.19412 60.5441 6.04747 61.52943 6.60089 62.51479 7.1543 64.12875 8.07594 65.15622 8.67195 66.18369 9.26796 67.8652 10.25795 68.9348 10.89656 70.0044 11.53516 71.75342 12.59341 72.86513 13.27461 73.97684 13.95583 75.79344 15.08246 76.94728 15.80626 78.10114 16.53008 79.98528 17.72499 81.18124 18.49142 82.37721 19.25784 84.32893 20.5211 85.56703 21.33012 86.80513 22.13913 88.82437 23.47072 90.1046 24.32234 91.38481 25.17395 93.47165 26.57382 94.79398 27.46805 96.1163 28.36227 98.27068 29.83049 99.63513 30.7673 100.99959 31.70413 103.22151 33.24065 104.6281 34.22008 106.03467 35.1995 108.32417 36.80435 109.77287 37.82637 111.22157 38.8484 113.5786 40.52156 115.06943 41.5862 116.56026 42.65082 118.98486 44.39232 120.5178 45.49954 122.05077 46.60677 124.54282 48.4165 126.11789 49.56631 127.69295 50.71614 130.25264 52.59427 131.86985 53.7867 133.48705 54.97914 136.11428 56.9256 137.77359 58.16063 139.43292 59.39568 142.12769 61.4104 143.82913 62.68803 145.53058 63.96568 148.29294 66.04874 150.03652 67.36899 151.78009 68.68924 154.60996 70.84062 156.39565 72.20346 158.18135 73.5663 161.07878 75.78604 162.90662 77.19147 164.73444 78.59691 167.6994 80.88493 169.56935 82.33298 171.4393 83.78104 176.384 87.6281 176.384 87.6281"/>
<path transform="matrix(1.0001,0,0,-1.00003,1.0963059,103.00506)" stroke-width="1.59404" stroke-linecap="butt" stroke-miterlimit="10" stroke-linejoin="miter" fill="none" stroke="#ff0000" d="M56.36893 11.91835 46.9367-.26569"/>
<path transform="matrix(-.6121812,.79073378,.79078909,.6121384,48.037725,103.27076)" stroke-width="1.27522" stroke-linecap="round" stroke-linejoin="round" fill="none" stroke="#ff0000" d="M-2.27148 3.02866C-2.0822 1.8929 0 .18927 .56786 0 0-.18927-2.0822-1.8929-2.27148-3.02866"/>
<use data-text="r" xlink:href="#font_2_1" transform="matrix(9.963596,0,0,-9.962899,25.73177,115.81444)" fill="#ff0000"/>
<use data-text="(" xlink:href="#font_3_1" transform="matrix(9.963596,0,0,-9.962899,30.451245,115.81444)" fill="#ff0000"/>
<use data-text="1" xlink:href="#font_3_3" transform="matrix(9.963596,0,0,-9.962899,34.317113,115.81444)" fill="#ff0000"/>
<use data-text=")" xlink:href="#font_3_2" transform="matrix(9.963596,0,0,-9.962899,39.298917,115.81444)" fill="#ff0000"/>
<path transform="matrix(1.0001,0,0,-1.00003,1.0963059,103.00506)" stroke-width="1.59404" stroke-linecap="butt" stroke-miterlimit="10" stroke-linejoin="miter" fill="none" stroke="#404040" d="M56.36893 11.91835 159.01052 74.36455"/>
<path transform="matrix(.8543654,-.5197256,-.519762,-.8543057,160.12271,28.638276)" stroke-width="1.27522" stroke-linecap="round" stroke-linejoin="round" fill="none" stroke="#404040" d="M-2.27148 3.02866C-2.0822 1.8929 0 .18927 .56786 0 0-.18927-2.0822-1.8929-2.27148-3.02866"/>
<use data-text="r" xlink:href="#font_2_1" transform="matrix(9.963596,0,0,-9.962899,139.58417,21.40361)" fill="#404040"/>
<use data-text="(" xlink:href="#font_3_1" transform="matrix(9.963596,0,0,-9.962899,144.30364,21.40361)" fill="#404040"/>
<use data-text="3" xlink:href="#font_3_4" transform="matrix(9.963596,0,0,-9.962899,148.1695,21.40361)" fill="#404040"/>
<use data-text=")" xlink:href="#font_3_2" transform="matrix(9.963596,0,0,-9.962899,153.1513,21.40361)" fill="#404040"/>
<path transform="matrix(1.0001,0,0,-1.00003,1.0963059,103.00506)" d="M48.31224-1.21889C48.31224-.05167 47.36603 .89453 46.1988 .89453 45.03159 .89453 44.08536-.05167 44.08536-1.21889 44.08536-2.38611 45.03159-3.33232 46.1988-3.33232 47.36603-3.33232 48.31224-2.38611 48.31224-1.21889ZM46.1988-1.21889" fill="#ff0000"/>
<path transform="matrix(1.0001,0,0,-1.00003,1.0963059,103.00506)" d="M162.15378 74.99104C162.15378 76.15826 161.20757 77.10449 160.04035 77.10449 158.87313 77.10449 157.9269 76.15826 157.9269 74.99104 157.9269 73.82382 158.87313 72.87761 160.04035 72.87761 161.20757 72.87761 162.15378 73.82382 162.15378 74.99104ZM160.04035 74.99104" fill="#404040"/>
</g>
<use data-text="x" xlink:href="#font_4_1" transform="matrix(9.963596,0,0,-9.962899,186.8779,175.49623)"/>
<use data-text="y" xlink:href="#font_4_2" transform="matrix(9.963596,0,0,-9.962899,555.26876,-5.5982058)"/>
<use data-text="z" xlink:href="#font_4_3" transform="matrix(9.963596,0,0,-9.962899,555.26876,-5.5982058)"/>
</svg>
