<svg xmlns="http://www.w3.org/2000/svg" xmlns:xlink="http://www.w3.org/1999/xlink" xmlns:inkscape="http://www.inkscape.org/namespaces/inkscape" version="1.1" width="391" height="172" viewBox="0 0 391 172">
<defs>
<path id="font_1_2" d="M.33399964 .30233766C.33999635 .32835389 .36299134 .42037965 .43299867 .42037965 .43798829 .42037965 .46199037 .42037965 .48298646 .40734864 .45498658 .402359 .43499757 .37734986 .43499757 .35334779 .43499757 .33735658 .44599916 .31835938 .47299195 .31835938 .49499513 .31835938 .5269928 .3363495 .5269928 .37635804 .5269928 .42837525 .46798707 .4423828 .43399049 .4423828 .37599183 .4423828 .34098817 .38935853 .32899476 .36634828 .3039856 .43237306 .25 .4423828 .22099304 .4423828 .116989139 .4423828 .05999756 .3133545 .05999756 .28834535 .05999756 .27833558 .069992069 .27833558 .07199097 .27833558 .07998657 .27833558 .08299255 .28033448 .084991458 .28933717 .11898804 .39535523 .18499756 .42037965 .21899414 .42037965 .23799134 .42037965 .272995 .4113617 .272995 .35334779 .272995 .32235719 .2559967 .25532533 .21899414 .11528015 .20298767 .053268434 .16799927 .011245728 .12399292 .011245728 .117996219 .011245728 .09498596 .011245728 .07398987 .024276734 .09899902 .029266358 .12098694 .05027771 .12098694 .07827759 .12098694 .105270389 .09899902 .11328125 .083999637 .11328125 .053985597 .11328125 .0289917 .08728027 .0289917 .055267335 .0289917 .009246826 .07899475-.0107421879 .12298584-.0107421879 .18899536-.0107421879 .22499085 .059280397 .22799683 .0652771 .23999024 .028274537 .27598573-.0107421879 .33599855-.0107421879 .43899537-.0107421879 .49598695 .118270877 .49598695 .14328003 .49598695 .1532898 .4869995 .1532898 .48399354 .1532898 .47499085 .1532898 .47299195 .14929199 .47099305 .14228821 .43798829 .03527832 .36999513 .011245728 .33799745 .011245728 .29899598 .011245728 .2829895 .043273927 .2829895 .07727051 .2829895 .09927368 .2889862 .121276859 .2999878 .16529846L.33399964 .30233766Z"/>
<path id="font_1_3" d="M.48599244 .38136292C.48999024 .39537049 .48999024 .39736939 .48999024 .40437318 .48999024 .42237855 .47599793 .43138124 .46099855 .43138124 .45098878 .43138124 .43499757 .42536927 .42599488 .41036988 .42399598 .405365 .41600038 .37435914 .4119873 .35635377 .40499879 .33035279 .397995 .30334474 .3919983 .27633668L.34700013 .09628296C.34298707 .08126831 .2999878 .011245728 .23399353 .011245728 .18299866 .011245728 .17199707 .055267335 .17199707 .0922699 .17199707 .1382904 .18899536 .20030213 .22299195 .28833009 .23899842 .3293457 .24299622 .3403473 .24299622 .36035157 .24299622 .405365 .21099854 .4423828 .16099549 .4423828 .06599426 .4423828 .0289917 .29733277 .0289917 .28833009 .0289917 .27833558 .038986207 .27833558 .040985109 .27833558 .050994874 .27833558 .051986696 .28033448 .056991579 .29634095 .083999637 .3903656 .12399292 .42037965 .1579895 .42037965 .1659851 .42037965 .18299866 .42037965 .18299866 .3883667 .18299866 .36335755 .17298889 .3373413 .1659851 .31834413 .12599182 .21231079 .10798645 .1552887 .10798645 .10827637 .10798645 .019256592 .17098999-.0107421879 .22999573-.0107421879 .2689972-.0107421879 .30299378 .0062561037 .33099366 .03425598 .31799317-.017745972 .30599977-.06674194 .2659912-.11973572 .23999024-.15385437 .20199585-.18309021 .1559906-.18309021 .14199829-.18309021 .09700012-.18005371 .07998657-.14074707 .09599304-.14074707 .10899353-.14074707 .12298584-.1287384 .1329956-.11973572 .14299011-.10673523 .14299011-.08773804 .14299011-.056747438 .115997318-.052734376 .10598755-.052734376 .08299255-.052734376 .049987794-.068740848 .049987794-.11773682 .049987794-.16796875 .09399414-.20507813 .1559906-.20507813 .25898744-.20507813 .3619995-.11373901 .3899994-.00074768069L.48599244 .38136292Z"/>
<path id="font_2_7" d="M.68699648 .32714845C.70199587 .32714845 .72099307 .32714845 .72099307 .34713746 .72099307 .36714173 .70199587 .36714173 .6879883 .36714173H.08898926C.07499695 .36714173 .055999757 .36714173 .055999757 .34713746 .055999757 .32714845 .07499695 .32714845 .08999634 .32714845H.68699648M.6879883 .13284302C.70199587 .13284302 .72099307 .13284302 .72099307 .15284729 .72099307 .17285156 .70199587 .17285156 .68699648 .17285156H.08999634C.07499695 .17285156 .055999757 .17285156 .055999757 .15284729 .055999757 .13284302 .07499695 .13284302 .08898926 .13284302H.6879883Z"/>
<path id="font_2_6" d="M.2939911 .16503906V.07800293C.2939911 .041992189 .2919922 .0309906 .21798706 .0309906H.19699097V0C.23799134 .0029907227 .2899933 .0029907227 .33198548 .0029907227 .37399293 .0029907227 .4269867 .0029907227 .46798707 0V.0309906H.44699098C.37298585 .0309906 .37098695 .041992189 .37098695 .07800293V.16503906H.47099305V.19602967H.37098695V.65075686C.37098695 .67074587 .37098695 .6767578 .35499574 .6767578 .34599305 .6767578 .34298707 .6767578 .33499146 .66474917L.027999878 .19602967V.16503906H.2939911M.2999878 .19602967H.055999757L.2999878 .5688019V.19602967Z"/>
<path id="font_3_1" d="M.6589966 .23046875C.6759949 .23046875 .69400027 .23046875 .69400027 .25045777 .69400027 .27046205 .6759949 .27046205 .6589966 .27046205H.117996219C.100997928 .27046205 .08299255 .27046205 .08299255 .25045777 .08299255 .23046875 .100997928 .23046875 .117996219 .23046875H.6589966Z"/>
<path id="font_4_1" d="M.5049896 .18203736H.47099305C.46798707 .16001892 .45799256 .100997928 .44499208 .09098816 .43699647 .084991458 .3600006 .084991458 .34599305 .084991458H.1619873C.2669983 .17803955 .3019867 .20603943 .3619995 .25306703 .43598939 .312088 .5049896 .374115 .5049896 .46914674 .5049896 .5900879 .39898683 .6640625 .2709961 .6640625 .14698792 .6640625 .06298828 .57710269 .06298828 .4851532 .06298828 .43414308 .10598755 .42915345 .115997318 .42915345 .13999939 .42915345 .16899109 .44615174 .16899109 .48214723 .16899109 .5001526 .1619873 .53515627 .10998535 .53515627 .14099121 .6060791 .20899964 .62805178 .2559967 .62805178 .35598756 .62805178 .4079895 .5501404 .4079895 .46914674 .4079895 .38212586 .34599305 .3130951 .31399537 .27708436L.07299805 .038986207C.06298828 .02999878 .06298828 .027999878 .06298828 0H.47499085L.5049896 .18203736Z"/>
<path id="font_2_5" d="M.2899933 .35191346C.37199403 .37893678 .42999269 .4490509 .42999269 .52809146 .42999269 .6100464 .34199525 .6660156 .24598694 .6660156 .14498902 .6660156 .068984989 .60606387 .068984989 .53009036 .068984989 .49710084 .09098816 .47808839 .11999512 .47808839 .15098572 .47808839 .17098999 .50009158 .17098999 .5290985 .17098999 .57910159 .12399292 .57910159 .10899353 .57910159 .13999939 .62802127 .20599365 .64100649 .24198914 .64100649 .2829895 .64100649 .33799745 .6190338 .33799745 .5290985 .33799745 .51708987 .33599855 .45906068 .30999757 .4149933 .27999879 .36691285 .24598694 .36390687 .22099304 .36291505 .21299744 .36190797 .18899536 .35990907 .18199158 .35990907 .17399597 .35890199 .16699219 .35791017 .16699219 .3479004 .16699219 .33691407 .17399597 .33691407 .19099427 .33691407H.23498535C.31698609 .33691407 .35398866 .2686615 .35398866 .17037964 .35398866 .034469606 .2849884 .0055389406 .24099732 .0055389406 .19799805 .0055389406 .12298584 .022491456 .08799744 .08137512 .12298584 .07637024 .1539917 .09837341 .1539917 .1363678 .1539917 .17237854 .1269989 .19238281 .09799194 .19238281 .07398987 .19238281 .041992189 .17837525 .041992189 .1343689 .041992189 .043441774 .1349945-.022460938 .24398804-.022460938 .3659973-.022460938 .45700074 .06838989 .45700074 .17037964 .45700074 .252594 .3939972 .33088685 .2899933 .35191346Z"/>
<path id="font_2_1" d="M.33099366-.2400055C.33099366-.23701477 .33099366-.23500061 .31399537-.21800232 .18899536-.0920105 .15699768 .09700012 .15699768 .25 .15699768 .42399598 .19499207 .59799197 .31799317 .72299197 .33099366 .73498538 .33099366 .7369995 .33099366 .73999026 .33099366 .746994 .32699586 .75 .32099916 .75 .31098939 .75 .22099304 .6819916 .1619873 .5549927 .11099243 .44499208 .09899902 .33399964 .09899902 .25 .09899902 .17199707 .10998535 .050994874 .16499329-.06201172 .22499085-.18501282 .31098939-.25 .32099916-.25 .32699586-.25 .33099366-.24700928 .33099366-.2400055Z"/>
<path id="font_1_1" d="M.20298767 .0009918213C.20298767 .066986087 .17799378 .10598755 .13899231 .10598755 .10598755 .10598755 .085998538 .08099365 .085998538 .052993776 .085998538 .025985718 .10598755 0 .13899231 0 .15098572 0 .1639862 .0039978029 .17399597 .0129852299 .1769867 .01499939 .17799378 .015991211 .1789856 .015991211 .17999268 .015991211 .18099976 .01499939 .18099976 .0009918213 .18099976-.07316589 .1459961-.13328552 .11299133-.16635132 .101989749-.17736817 .101989749-.17936707 .101989749-.18237305 .101989749-.18936157 .10699463-.19335938 .11199951-.19335938 .12298584-.19335938 .20298767-.116256717 .20298767 .0009918213Z"/>
<path id="font_2_3" d="M.2939911 .64004519C.2939911 .66400149 .2939911 .6660156 .2709961 .6660156 .20899964 .60227969 .12098694 .60227969 .08898926 .60227969V.57128909C.10899353 .57128909 .16799927 .57128909 .21998596 .5972748V.07902527C.21998596 .042999269 .21699524 .0309906 .1269989 .0309906H.09498596V0C.12998963 .0029907227 .21699524 .0029907227 .25698854 .0029907227 .29699708 .0029907227 .38398744 .0029907227 .4189911 0V.0309906H.3869934C.29699708 .0309906 .2939911 .041992189 .2939911 .07902527V.64004519Z"/>
<path id="font_2_4" d="M.1269989 .07699585 .23298645 .18003845C.3889923 .31811524 .44898988 .3721466 .44898988 .47216798 .44898988 .5860901 .35899354 .6660156 .23699951 .6660156 .12399292 .6660156 .049987794 .57411196 .049987794 .48516847 .049987794 .4291687 .099990848 .4291687 .102996829 .4291687 .11999512 .4291687 .15499878 .44117738 .15499878 .48217774 .15499878 .5081787 .13699341 .5341797 .101989749 .5341797 .09399414 .5341797 .09199524 .5341797 .08898926 .5331726 .11199951 .59806826 .1659851 .63500979 .22399903 .63500979 .31498719 .63500979 .35798646 .5541382 .35798646 .47216798 .35798646 .39215089 .30799867 .31311036 .25299073 .25108338L.06098938 .036987306C.049987794 .025985718 .049987794 .023986817 .049987794 0H.42099L.44898988 .17404175H.42399598C.4189911 .14402771 .4119873 .1000061 .4019928 .084991458 .394989 .07699585 .32899476 .07699585 .30699159 .07699585H.1269989Z"/>
<path id="font_2_2" d="M.2889862 .25C.2889862 .32798768 .27799989 .44898988 .22299195 .56199648 .16299439 .68499758 .07699585 .75 .066986087 .75 .06098938 .75 .056991579 .74598696 .056991579 .73999026 .056991579 .7369995 .056991579 .73498538 .07598877 .71699526 .17399597 .6179962 .23098755 .45899964 .23098755 .25 .23098755 .07899475 .19400025-.09700012 .069992069-.2230072 .056991579-.23500061 .056991579-.23701477 .056991579-.2400055 .056991579-.2460022 .06098938-.25 .066986087-.25 .07699585-.25 .16699219-.18200684 .22599793-.055007936 .2769928 .054992677 .2889862 .16600037 .2889862 .25Z"/>
</defs>
<path transform="matrix(1,0,0,-1.00002,274.127,47.554689)" d="M-226.77454-102.04947-220.98975-95.19618-215.20499-88.52003-209.42023-82.02087-203.63547-75.69884-197.85071-69.55392-192.06594-63.58614-186.28118-57.79535-180.49642-52.18156-174.71166-46.74503-168.92688-41.48549-163.1421-36.40294-157.35735-31.49753-151.57259-26.76923-145.78781-22.21808-140.00305-17.8439-134.21829-13.64673-128.43354-9.62682-122.64876-5.78377-116.864-2.11798-111.07924 1.3708-105.29448 4.68248-99.50969 7.81714-93.72493 10.7747-87.94017 13.55513-82.15541 16.15854-76.37064 18.58485-70.58588 20.83403-64.80112 22.90619-59.01636 24.80125-53.23158 26.51932-47.44682 28.06024-41.66205 29.42404-35.87729 30.61087-30.09251 31.62054-24.30775 32.45322-18.523 33.1088-12.73824 33.58723-6.95348 33.88867-1.1687 34.01297 4.61603 33.96016 10.40079 33.73036 16.18555 33.32341 21.97034 32.73935 27.7551 31.9783 33.53986 31.04024 39.32462 29.92494 45.10939 28.63263 50.89415 27.16333 56.67891 25.51677 56.69363 25.51236Z" fill="#d9d9ff"/>
<path transform="matrix(1,0,0,-1.00002,274.127,47.554689)" stroke-width=".79701" stroke-linecap="butt" stroke-miterlimit="10" stroke-linejoin="miter" fill="none" stroke="#000000" d="M-272.1296 0H108.7248"/>
<path transform="matrix(1,0,0,-1.00002,382.8518,47.554689)" d="M4.66248 0C3.28098 .25902 1.0361 1.0361-.51805 1.94269V-1.94269C1.0361-1.0361 3.28098-.25902 4.66248 0"/>
<use data-text="x" xlink:href="#font_1_2" transform="matrix(9.9626,0,0,-9.962799,384.66703,55.563848)"/>
<path transform="matrix(1,0,0,-1.00002,274.127,47.554689)" stroke-width=".79701" stroke-linecap="butt" stroke-miterlimit="10" stroke-linejoin="miter" fill="none" stroke="#000000" d="M0-110.5536V37.85814"/>
<path transform="matrix(0,-1.00002,-1,-0,274.127,9.695789)" d="M4.66248 0C3.28098 .25902 1.0361 1.0361-.51805 1.94269V-1.94269C1.0361-1.0361 3.28098-.25902 4.66248 0"/>
<use data-text="y" xlink:href="#font_1_3" transform="matrix(9.9626,0,0,-9.962799,265.16603,6.209858)"/>
<path transform="matrix(1,0,0,-1.00002,274.127,47.554689)" stroke-width=".79701" stroke-linecap="butt" stroke-miterlimit="10" stroke-linejoin="miter" fill="none" stroke="#0000cc" d="M-243.78279-123.22491-237.0724-114.68756-230.362-106.38847-223.65161-98.32762-216.94121-90.50514-210.2308-82.9209-203.52042-75.5749-196.81002-68.46729-190.09963-61.5979-183.38922-54.96678-176.67884-48.5739-169.96843-42.41937-163.25804-36.50311-156.54764-30.82509-149.83725-25.38531-143.12685-20.18391-136.41645-15.22075-129.70606-10.49583-122.99565-6.0093-116.28526-1.76099-109.57486 2.24904-102.86447 6.02084-96.15407 9.55429-89.44368 12.84947-82.73328 15.90642-76.02289 18.725-69.31248 21.30545-62.6021 23.64754-55.8917 25.75125-49.18129 27.61685-42.4709 29.24406-35.7605 30.63304-29.05011 31.78365-22.3397 32.69615-15.62932 33.37027-8.91891 33.80614-2.20853 34.00363 4.50185 33.96289 11.21223 33.6839 17.92264 33.16667 24.63304 32.41106 31.34343 31.4172 38.05383 30.1851 44.76422 28.71477 51.47462 27.00604 58.18501 25.0591 64.89542 22.87389 71.6058 20.45032 78.31621 17.78862 85.0266 14.88843"/>
<use data-text="y" xlink:href="#font_1_3" transform="matrix(9.9626,0,0,-9.962799,137.81601,59.14492)"/>
<use data-text="=" xlink:href="#font_2_7" transform="matrix(9.9626,0,0,-9.962799,145.82501,59.14492)"/>
<use data-text="4" xlink:href="#font_2_6" transform="matrix(9.9626,0,0,-9.962799,156.32559,59.14492)"/>
<use data-text="&#x2212;" xlink:href="#font_3_1" transform="matrix(9.9626,0,0,-9.962799,163.53601,59.14492)"/>
<use data-text="x" xlink:href="#font_1_2" transform="matrix(9.9626,0,0,-9.962799,173.49903,59.14492)"/>
<use data-text="2" xlink:href="#font_4_1" transform="matrix(6.9738,0,0,-6.97394,179.19303,55.52885)"/>
<path transform="matrix(1,0,0,-1.00002,274.127,47.554689)" stroke-width=".79701" stroke-linecap="butt" stroke-miterlimit="10" stroke-linejoin="miter" fill="none" stroke="#0000cc" d="M-255.12134-114.80565-240.94792-108.42755-226.77454-102.04947-212.60112-95.67137-198.4277-89.29329-184.25429-82.91519-170.0809-76.53711-155.90749-70.15901-141.73407-63.78091-127.56065-57.40282-113.38727-51.02473-99.21385-44.64664-85.04044-38.26854-70.86702-31.89044-56.69363-25.51236-42.52022-19.13426-28.3468-12.75616-14.17339-6.37807 0 0 14.17339 6.37807 28.3468 12.75616 42.52022 19.13426 56.69363 25.51236 70.86702 31.89044 85.04044 38.26854"/>
<use data-text="y" xlink:href="#font_1_3" transform="matrix(9.9626,0,0,-9.962799,259.527,58.300905)"/>
<use data-text="=" xlink:href="#font_2_7" transform="matrix(9.9626,0,0,-9.962799,267.536,58.300905)"/>
<use data-text="3" xlink:href="#font_2_5" transform="matrix(9.9626,0,0,-9.962799,278.0366,58.300905)"/>
<use data-text="x" xlink:href="#font_1_2" transform="matrix(9.9626,0,0,-9.962799,283.03303,58.300905)"/>
<path transform="matrix(1,0,0,-1.00002,274.127,47.554689)" d="M-224.78199-102.04947C-224.78199-100.949-225.67406-100.05692-226.77454-100.05692-227.875-100.05692-228.76709-100.949-228.76709-102.04947-228.76709-103.14995-227.875-104.04202-226.77454-104.04202-225.67406-104.04202-224.78199-103.14995-224.78199-102.04947ZM-226.77454-102.04947"/>
<use data-text="(" xlink:href="#font_2_1" transform="matrix(9.9626,0,0,-9.962799,1.2140198,160.59796)"/>
<use data-text="&#x2212;" xlink:href="#font_3_1" transform="matrix(9.9626,0,0,-9.962799,5.0880129,160.59796)"/>
<use data-text="4" xlink:href="#font_2_6" transform="matrix(9.9626,0,0,-9.962799,12.837006,160.59796)"/>
<use data-text="," xlink:href="#font_1_1" transform="matrix(9.9626,0,0,-9.962799,17.817994,160.59796)"/>
<use data-text="&#x2212;" xlink:href="#font_3_1" transform="matrix(9.9626,0,0,-9.962799,22.246003,160.59796)"/>
<use data-text="1" xlink:href="#font_2_3" transform="matrix(9.9626,0,0,-9.962799,29.994996,160.59796)"/>
<use data-text="2" xlink:href="#font_2_4" transform="matrix(9.9626,0,0,-9.962799,34.976289,160.59796)"/>
<use data-text=")" xlink:href="#font_2_2" transform="matrix(9.9626,0,0,-9.962799,39.95758,160.59796)"/>
<path transform="matrix(1,0,0,-1.00002,274.127,47.554689)" d="M58.68619 25.51236C58.68619 26.61284 57.7941 27.50491 56.69363 27.50491 55.59315 27.50491 54.70108 26.61284 54.70108 25.51236 54.70108 24.4119 55.59315 23.5198 56.69363 23.5198 57.7941 23.5198 58.68619 24.4119 58.68619 25.51236ZM56.69363 25.51236"/>
<use data-text="(" xlink:href="#font_2_1" transform="matrix(9.9626,0,0,-9.962799,334.34004,16.031056)"/>
<use data-text="1" xlink:href="#font_2_3" transform="matrix(9.9626,0,0,-9.962799,338.2055,16.031056)"/>
<use data-text="," xlink:href="#font_1_1" transform="matrix(9.9626,0,0,-9.962799,343.19505,16.031056)"/>
<use data-text="3" xlink:href="#font_2_5" transform="matrix(9.9626,0,0,-9.962799,347.62306,16.031056)"/>
<use data-text=")" xlink:href="#font_2_2" transform="matrix(9.9626,0,0,-9.962799,352.60435,16.031056)"/>
</svg>
