<svg xmlns="http://www.w3.org/2000/svg" xmlns:xlink="http://www.w3.org/1999/xlink" xmlns:inkscape="http://www.inkscape.org/namespaces/inkscape" version="1.1" width="236" height="211" viewBox="0 0 236 211">
<defs>
<path id="font_1_7" d="M.47599793 .609375C.4850006 .6213684 .4850006 .62338259 .4850006 .64437869H.24198914C.11999512 .64437869 .117996219 .65737918 .11399841 .67637637H.08898926L.055999757 .4702301H.08099365C.083999637 .48625184 .09298706 .5493469 .10598755 .56137087 .11299133 .5673828 .19099427 .5673828 .20399475 .5673828H.41099549C.3999939 .5513611 .32099916 .4421997 .29899598 .40914918 .20899964 .27394105 .17599488 .1347351 .17599488 .032577516 .17599488 .022567749 .17599488-.022460938 .22200012-.022460938 .2679901-.022460938 .2679901 .022567749 .2679901 .032577516V.08366394C.2679901 .13873291 .2709961 .19381714 .2789917 .24790955 .2829895 .27093507 .29699708 .35707093 .34098817 .41915895L.47599793 .609375Z"/>
<path id="font_1_1" d="M.45999146 .31976319C.45999146 .39982606 .45498658 .47988893 .41999818 .5539398 .37399293 .65000918 .2919922 .6660156 .25 .6660156 .18998719 .6660156 .116989139 .64001467 .07598877 .54693606 .04399109 .47789 .038986207 .39982606 .038986207 .31976319 .038986207 .24472046 .042999269 .15464783 .083999637 .07859802 .1269989-.0024719239 .19999695-.022460938 .24899292-.022460938 .30299378-.022460938 .3789978-.0014648438 .4229889 .09359741 .45498658 .16265869 .45999146 .2407074 .45999146 .31976319M.24899292-.00047302247C.20999146-.00047302247 .15098572 .024551392 .1329956 .12062073 .12199402 .18066406 .12199402 .2727356 .12199402 .3317871 .12199402 .39582826 .12199402 .46188355 .12998963 .5159149 .14898682 .63500979 .22399903 .64401248 .24899292 .64401248 .28199769 .64401248 .34799195 .6259918 .36698915 .52693179 .3769989 .47088624 .3769989 .39482118 .3769989 .3317871 .3769989 .25672914 .3769989 .18867493 .3659973 .12461853 .35099793 .029556275 .2939911-.00047302247 .24899292-.00047302247Z"/>
<path id="font_1_6" d="M.44898988 .20022583C.44898988 .3193512 .36698915 .41944886 .25898744 .41944886 .21099854 .41944886 .16799927 .40345765 .13198853 .36842347V.5637665C.1519928 .5577698 .18499756 .55078127 .21699524 .55078127 .33999635 .55078127 .4099884 .6417694 .4099884 .6547699 .4099884 .6607666 .40699769 .6657715 .3999939 .6657715 .39898683 .6657715 .39698792 .6657715 .3919983 .66278079 .37199403 .6537781 .32299806 .6337738 .2559967 .6337738 .21598816 .6337738 .16999817 .6407776 .12298584 .6617737 .114990238 .66477969 .11299133 .66477969 .11099243 .66477969 .100997928 .66477969 .100997928 .6567688 .100997928 .6407776V.34439088C.100997928 .32637025 .100997928 .31835938 .114990238 .31835938 .12199402 .31835938 .12399292 .32136537 .12799073 .32736207 .13899231 .3433838 .17599488 .39746095 .25698854 .39746095 .30899049 .39746095 .33399964 .35139466 .34199525 .33337403 .35798646 .29632569 .3600006 .25727845 .3600006 .20722962 .3600006 .17222595 .3600006 .11222839 .33599855 .07035828 .31199647 .031463624 .2749939 .0055389406 .22898865 .0055389406 .1559906 .0055389406 .09899902 .058380128 .08198547 .11723328 .084991458 .1162262 .08799744 .115234378 .09899902 .115234378 .13198853 .115234378 .14898682 .14022827 .14898682 .16423035 .14898682 .18823242 .13198853 .21322632 .09899902 .21322632 .084991458 .21322632 .049987794 .20622254 .049987794 .16023255 .049987794 .07434082 .11898804-.022460938 .23098755-.022460938 .34700013-.022460938 .44898988 .073349 .44898988 .20022583Z"/>
<path id="font_1_8" d="M.16299439 .4569702C.116989139 .486969 .11299133 .52098086 .11299133 .5379791 .11299133 .598999 .17799378 .64100649 .24899292 .64100649 .32199098 .64100649 .38598634 .58898928 .38598634 .51698306 .38598634 .45996095 .34700013 .4119568 .2869873 .37695313L.16299439 .4569702M.30899049 .36193849C.3809967 .3989563 .42999269 .45095826 .42999269 .51698306 .42999269 .6090088 .34098817 .6660156 .25 .6660156 .1499939 .6660156 .068984989 .59199526 .068984989 .49897767 .068984989 .4809723 .070999149 .43595887 .11299133 .38894654 .12399292 .37695313 .16099549 .35194398 .18598938 .33494569 .12799073 .30592347 .041992189 .24984741 .041992189 .15072632 .041992189 .04458618 .14399719-.022460938 .24899292-.022460938 .3619995-.022460938 .45700074 .06060791 .45700074 .16773987 .45700074 .20379639 .44599916 .24885559 .4079895 .2909088 .3889923 .31193543 .37298585 .3219452 .30899049 .36193849M.20899964 .3199463 .33198548 .24183655C.3600006 .2228241 .40699769 .19277954 .40699769 .13169861 .40699769 .05760193 .33198548 .0055389406 .25 .0055389406 .1639862 .0055389406 .09199524 .067611698 .09199524 .15072632 .09199524 .20880127 .12399292 .27288819 .20899964 .3199463Z"/>
<path id="font_1_9" d="M.36698915 .31781007V.28579713C.36698915 .05178833 .2630005 .0055389406 .20498657 .0055389406 .18798828 .0055389406 .13398743 .007537842 .10699463 .041778566 .15098572 .041778566 .15899658 .07078552 .15899658 .08778381 .15899658 .118774417 .1349945 .13378906 .11299133 .13378906 .09700012 .13378906 .066986087 .12478638 .066986087 .08578491 .066986087 .018615723 .12098694-.022460938 .20599365-.022460938 .33499146-.022460938 .45700074 .11378479 .45700074 .32881166 .45700074 .5979767 .34199525 .6660156 .25299073 .6660156 .19799805 .6660156 .14898682 .64801028 .10598755 .60298159 .06498718 .5579529 .041992189 .5159302 .041992189 .44088746 .041992189 .31581117 .12998963 .21777344 .24198914 .21777344 .30299378 .21777344 .34399415 .25978089 .36698915 .31781007M.24299622 .24076844C.22698975 .24076844 .18099976 .24076844 .1499939 .3038025 .13198853 .3408203 .13198853 .39085389 .13198853 .43988038 .13198853 .49391175 .13198853 .54093936 .15299988 .5779724 .17999268 .6279907 .21798706 .64100649 .25299073 .64100649 .29899598 .64100649 .33198548 .60697939 .34899903 .5619507 .36099244 .52993777 .36499024 .4669037 .36499024 .42086793 .36499024 .3378296 .33099366 .24076844 .24299622 .24076844Z"/>
<path id="font_1_2" d="M.2939911 .64004519C.2939911 .66400149 .2939911 .6660156 .2709961 .6660156 .20899964 .60227969 .12098694 .60227969 .08898926 .60227969V.57128909C.10899353 .57128909 .16799927 .57128909 .21998596 .5972748V.07902527C.21998596 .042999269 .21699524 .0309906 .1269989 .0309906H.09498596V0C.12998963 .0029907227 .21699524 .0029907227 .25698854 .0029907227 .29699708 .0029907227 .38398744 .0029907227 .4189911 0V.0309906H.3869934C.29699708 .0309906 .2939911 .041992189 .2939911 .07902527V.64004519Z"/>
<path id="font_1_3" d="M.1269989 .07699585 .23298645 .18003845C.3889923 .31811524 .44898988 .3721466 .44898988 .47216798 .44898988 .5860901 .35899354 .6660156 .23699951 .6660156 .12399292 .6660156 .049987794 .57411196 .049987794 .48516847 .049987794 .4291687 .099990848 .4291687 .102996829 .4291687 .11999512 .4291687 .15499878 .44117738 .15499878 .48217774 .15499878 .5081787 .13699341 .5341797 .101989749 .5341797 .09399414 .5341797 .09199524 .5341797 .08898926 .5331726 .11199951 .59806826 .1659851 .63500979 .22399903 .63500979 .31498719 .63500979 .35798646 .5541382 .35798646 .47216798 .35798646 .39215089 .30799867 .31311036 .25299073 .25108338L.06098938 .036987306C.049987794 .025985718 .049987794 .023986817 .049987794 0H.42099L.44898988 .17404175H.42399598C.4189911 .14402771 .4119873 .1000061 .4019928 .084991458 .394989 .07699585 .32899476 .07699585 .30699159 .07699585H.1269989Z"/>
<path id="font_1_4" d="M.2899933 .35191346C.37199403 .37893678 .42999269 .4490509 .42999269 .52809146 .42999269 .6100464 .34199525 .6660156 .24598694 .6660156 .14498902 .6660156 .068984989 .60606387 .068984989 .53009036 .068984989 .49710084 .09098816 .47808839 .11999512 .47808839 .15098572 .47808839 .17098999 .50009158 .17098999 .5290985 .17098999 .57910159 .12399292 .57910159 .10899353 .57910159 .13999939 .62802127 .20599365 .64100649 .24198914 .64100649 .2829895 .64100649 .33799745 .6190338 .33799745 .5290985 .33799745 .51708987 .33599855 .45906068 .30999757 .4149933 .27999879 .36691285 .24598694 .36390687 .22099304 .36291505 .21299744 .36190797 .18899536 .35990907 .18199158 .35990907 .17399597 .35890199 .16699219 .35791017 .16699219 .3479004 .16699219 .33691407 .17399597 .33691407 .19099427 .33691407H.23498535C.31698609 .33691407 .35398866 .2686615 .35398866 .17037964 .35398866 .034469606 .2849884 .0055389406 .24099732 .0055389406 .19799805 .0055389406 .12298584 .022491456 .08799744 .08137512 .12298584 .07637024 .1539917 .09837341 .1539917 .1363678 .1539917 .17237854 .1269989 .19238281 .09799194 .19238281 .07398987 .19238281 .041992189 .17837525 .041992189 .1343689 .041992189 .043441774 .1349945-.022460938 .24398804-.022460938 .3659973-.022460938 .45700074 .06838989 .45700074 .17037964 .45700074 .252594 .3939972 .33088685 .2899933 .35191346Z"/>
<path id="font_1_5" d="M.2939911 .16503906V.07800293C.2939911 .041992189 .2919922 .0309906 .21798706 .0309906H.19699097V0C.23799134 .0029907227 .2899933 .0029907227 .33198548 .0029907227 .37399293 .0029907227 .4269867 .0029907227 .46798707 0V.0309906H.44699098C.37298585 .0309906 .37098695 .041992189 .37098695 .07800293V.16503906H.47099305V.19602967H.37098695V.65075686C.37098695 .67074587 .37098695 .6767578 .35499574 .6767578 .34599305 .6767578 .34298707 .6767578 .33499146 .66474917L.027999878 .19602967V.16503906H.2939911M.2999878 .19602967H.055999757L.2999878 .5688019V.19602967Z"/>
<clipPath id="clip_2">
<path transform="matrix(1.00003,0,0,-1,39.708749,181.979)" d="M0 1.21054H194.26912V162.6069H0Z"/>
</clipPath>
<path id="font_3_46" d="M.7509918 .33480836C.7509918 .52767947 .6049957 .6826172 .42599488 .6826172H.04598999V.6496124H.067993167C.14498902 .6496124 .14698792 .63861086 .14698792 .6016388V.080963138C.14698792 .04399109 .14498902 .032989503 .067993167 .032989503H.04598999V0H.42599488C.60598757 0 .7509918 .1499176 .7509918 .33480836M.6499939 .33580018C.6499939 .28483583 .6499939 .18688965 .58699038 .11294556 .5519867 .07197571 .48799134 .032989503 .39898683 .032989503H.28399659C.23799134 .032608034 .23599243 .039611818 .23599243 .0736084V.60861209C.23599243 .64260867 .23799134 .6496124 .28399659 .6496124H.39898683C.47698976 .6496124 .5419922 .61761477 .58599856 .5676117 .6499939 .49160768 .6499939 .38461305 .6499939 .3356018V.33580018Z"/>
<path id="font_3_28" d="M.5139923 .09020996V.14530945H.48298646V.09020996C.48298646 .0491333 .46798707 .033111574 .44699098 .033111574 .4099884 .033111574 .4099884 .079193118 .4099884 .09020996V.29856874C.4099884 .39653016 .31498719 .44628907 .22399903 .44628907 .14099121 .44628907 .066986087 .4143219 .066986087 .34857179 .066986087 .318573 .08799744 .30056764 .11399841 .30056764 .14199829 .30056764 .16099549 .3205719 .16099549 .3475647 .16099549 .37156678 .1459961 .38856507 .12399292 .3935547 .16099549 .41827394 .21499634 .41827394 .22200012 .41827394 .27799989 .41827394 .33399964 .37957765 .33399964 .29756166V.26651C.27598573 .26350404 .20899964 .26049806 .13899231 .23144531 .050994874 .1933899 .033996583 .13528443 .033996583 .10223389 .033996583 .016220093 .1349945-.009765625 .20399475-.009765625 .2769928-.009765625 .32199098 .031219483 .34399415 .07122803 .34899903 .033111574 .375-.0048828127 .4189911-.0048828127 .42900086-.0048828127 .5139923-.00088500979 .5139923 .09010315V.09020996M.33399964 .14111328C.33399964 .04421997 .2519989 .018234253 .21199036 .018234253 .1599884 .018234253 .115997318 .053222658 .115997318 .10122681 .115997318 .16722107 .17799378 .23522949 .33399964 .24023438V.14111328Z"/>
<path id="font_3_118" d="M.5379944 .3976593V.43066407C.5029907 .42765809 .5009918 .42765809 .45899964 .42765809 .45498658 .42765809 .4019928 .42765809 .37298585 .43066407V.3976593C.4019928 .39564515 .41600038 .37954713 .41600038 .3564148 .41600038 .3504181 .4149933 .3434143 .4099884 .3314209L.30299378 .089645389 .18699646 .3514099C.17999268 .36647035 .17999268 .3684845 .17999268 .37249757 .17999268 .39665223 .21099854 .3976593 .23298645 .3976593V.43066407C.18798828 .42765809 .14498902 .42765809 .12298584 .42765809 .101989749 .42765809 .053985597 .42765809 .021987915 .43066407V.3976593C.07398987 .3976593 .08799744 .39564515 .10499573 .35742188L.2630005-.0002746582C.21798706-.106170658 .18798828-.17610169 .117996219-.17610169 .09298706-.17610169 .07699585-.16412354 .07699585-.16412354 .083999637-.16212464 .10699463-.1511383 .10699463-.122161868 .10699463-.094192508 .085998538-.079193118 .06399536-.079193118 .04399109-.079193118 .020996094-.0921936 .020996094-.12315369 .020996094-.16711426 .06399536-.20410156 .117996219-.20410156 .20698548-.20410156 .25498963-.09718323 .25898744-.08718872L.44299317 .32940675C.46798707 .38659669 .5049896 .39665223 .5379944 .3976593Z"/>
<path id="font_3_82" d="M.44699098 0V.032989503H.4119873C.31698609 .032989503 .31399537 .04499817 .31399537 .08203125V.6371765C.31399537 .664032 .31199647 .66503909 .2849884 .66503909 .24398804 .6252289 .19099427 .6013489 .09599304 .6013489V.5683594C.12298584 .5683594 .1769867 .5683594 .23498535 .5953522V.08203125C.23498535 .04499817 .23199463 .032989503 .13699341 .032989503H.101989749V0C.14299011 .0029907227 .22898865 .0029907227 .27398683 .0029907227 .31900025 .0029907227 .4059906 .0029907227 .44699098 0Z"/>
<path id="font_3_107" d="M.47698976 .17900086H.44599916C.44299317 .15899658 .43499757 .10899353 .4229889 .08999634 .4169922 .08198547 .34098817 .08198547 .32499696 .08198547H.14698792L.28199769 .20399475C.2979889 .2190094 .33999635 .2519989 .35598756 .26600648 .41799928 .3230133 .47698976 .37802125 .47698976 .46902467 .47698976 .58802798 .3769989 .66503909 .2519989 .66503909 .13198853 .6651764 .052993776 .574173 .052993776 .48516847 .052993776 .4361725 .09199524 .4291687 .10598755 .4291687 .1269989 .4291687 .1579895 .4441681 .1579895 .48217774 .1579895 .5341797 .10798645 .5341797 .09599304 .5341797 .125 .6070709 .19198609 .6320343 .24099732 .6320343 .33399964 .6320343 .38198854 .55314639 .38198854 .46917726 .38198854 .36517335 .30899049 .2891693 .19099427 .16816712L.06498718 .03817749C.052993776 .026992798 .052993776 .024993897 .052993776 0H.44799806L.47698976 .17900086Z"/>
<path id="font_3_106" d="M.48599244 .17131043C.48599244 .25431825 .41999818 .330307 .31799317 .35231019 .39698792 .38031007 .45599366 .44831849 .45599366 .5283203 .45599366 .6080475 .3659973 .66503909 .2619934 .66503909 .15499878 .66503909 .07398987 .6070404 .07398987 .53105166 .07398987 .49404908 .09899902 .4780426 .125 .4780426 .1559906 .4780426 .17599488 .5000458 .17599488 .52905276 .17599488 .56604006 .14399719 .5800476 .12199402 .5810547 .1639862 .6360321 .24099732 .6390381 .25898744 .6390381 .2849884 .63931277 .36099244 .63131716 .36099244 .5283203 .36099244 .458313 .33198548 .41630555 .31799317 .40031434 .28799439 .36930848 .2649994 .36730958 .20399475 .36331178 .18499756 .36231996 .1769867 .36131288 .1769867 .34831239 .1769867 .3343048 .18598938 .3343048 .20298767 .3343048H.25299073C.33198548 .3343048 .38198854 .27630616 .38198854 .17131043 .38198854 .045440675 .31098939 .008514404 .2579956 .008514404 .20298767 .008514404 .12799073 .0284729 .09298706 .08137512 .1289978 .08137512 .1539917 .10437012 .1539917 .13737488 .1539917 .16937256 .1309967 .19238281 .09899902 .19238281 .07199097 .19238281 .04399109 .17536927 .04399109 .13537598 .04399109 .04045105 .1459961-.021484375 .2599945-.021484375 .3929901-.021484375 .48599244 .070388797 .48599244 .17037964V.17131043Z"/>
<path id="font_3_57" d="M.5 .1640625V.197052H.3939972V.64682009C.3939972 .6668091 .3939972 .6748047 .37298585 .6748047 .3600006 .6748047 .35899354 .6737976 .34899903 .6598053L.02999878 .197052V.1640625H.31199647V.08100891C.31199647 .04399109 .30899049 .032989503 .23199463 .032989503H.20899964V0L.35299684 .0029907227 .49699403 0V.032989503H.47399903C.39698792 .032989503 .3939972 .04399109 .3939972 .08100891V.1640625H.5M.31900025 .197052H.06498718L.31900025 .56585696V.197052Z"/>
<path id="font_3_56" d="M.47698976 .19924927C.47698976 .31576539 .3929901 .4189453 .2749939 .4189453 .22499085 .4189453 .17799378 .40293885 .13999939 .36886598V.5618439C.15299988 .55784609 .19299317 .54785159 .23498535 .54785159 .3600006 .54785159 .43598939 .63586428 .43598939 .6509552 .43598939 .6620178 .42900086 .66503909 .42399598 .66503909 .42399598 .66503909 .41999818 .66503909 .41099549 .66000369 .37199403 .6449127 .32598878 .632843 .27198792 .632843 .21299744 .632843 .1639862 .64793398 .1329956 .66000369 .12298584 .66503909 .11999512 .66503909 .11999512 .66503909 .10699463 .66503909 .10699463 .6539612 .10699463 .63586428V.34277345C.10699463 .32476808 .10699463 .3127594 .12298584 .3127594 .1309967 .3127594 .13398743 .31677247 .13899231 .32476808 .15098572 .33976747 .18899536 .39093019 .27398683 .39093019 .32998658 .39093019 .35699464 .34477235 .3659973 .3257599 .3829956 .2896576 .3849945 .24345398 .3849945 .20426941 .3849945 .16725159 .38398744 .11325073 .35598756 .069366458 .33699037 .03942871 .29699708 .008514404 .24398804 .008514404 .1789856 .008514404 .114990238 .04940796 .09199524 .11425781 .09498596 .11387634 .101989749 .11387634 .101989749 .11387634 .12998963 .11387634 .1519928 .13188172 .1519928 .16288758 .1519928 .19989014 .12298584 .21289063 .102996829 .21289063 .084991458 .21289063 .052993776 .20288086 .052993776 .15988159 .052993776 .069732669 .1309967-.021484375 .24598694-.021484375 .37098695-.021743775 .47698976 .07525635 .47698976 .19924927Z"/>
<path id="font_4_104" d="M.68499758 .45214845 .66600039 .6767578H.054992677L.035995485 .45214845H.06098938C.07499695 .6128235 .08999634 .64575198 .24099732 .64575198 .25898744 .64575198 .2849884 .64575198 .29499818 .64375308 .31599427 .6397705 .31599427 .6287842 .31599427 .60583499V.07901001C.31599427 .04499817 .31599427 .0309906 .21099854 .0309906H.17098999V0C.21199036 .0029907227 .31399537 .0029907227 .3600006 .0029907227 .4059906 .0029907227 .5089874 .0029907227 .5499878 0V.0309906H.5099945C.40499879 .0309906 .40499879 .04499817 .40499879 .07901001V.60583499C.40499879 .62579348 .40499879 .6397705 .4229889 .64375308 .43399049 .64575198 .46099855 .64575198 .47999574 .64575198 .6309967 .64575198 .6459961 .6128235 .6599884 .45214845H.68499758Z"/>
<path id="font_4_50" d="M.4149933 .11933899C.4149933 .12934876 .40699769 .13134766 .4019928 .13134766 .3929901 .13134766 .3909912 .12535095 .3889923 .11734009 .35398866 .014251709 .2639923 .014251709 .2539978 .014251709 .20399475 .014251709 .1639862 .044281007 .14099121 .08131409 .11099243 .12934876 .11099243 .19540406 .11099243 .23144531H.3899994C.4119873 .23144531 .4149933 .23144531 .4149933 .2524414 .4149933 .35131837 .36099244 .4482422 .23599243 .4482422 .11999512 .4482422 .027999878 .34532167 .027999878 .22042847 .027999878 .08631897 .1329956-.0107421879 .24798584-.0107421879 .36999513-.0107421879 .4149933 .10032654 .4149933 .11933899M.34899903 .2524414H.11199951C.117996219 .40126039 .20199585 .426239 .23599243 .426239 .33898927 .426239 .34899903 .2913971 .34899903 .2524414Z"/>
<path id="font_4_75" d="M.8129883 0V.0309906C.7609863 .0309906 .73599246 .0309906 .7350006 .061019899V.25221253C.7350006 .3383026 .7350006 .36932374 .70399478 .405365 .6899872 .42237855 .6569977 .4423828 .598999 .4423828 .5149994 .4423828 .47099305 .38233949 .45399476 .34429933 .43998719 .43138124 .3659973 .4423828 .32099916 .4423828 .24798584 .4423828 .20098877 .39935304 .17298889 .33729554V.4423828L.03199768 .43066407V.3996582C.101989749 .3996582 .10998535 .39266969 .10998535 .34370423V.07595825C.10998535 .0309906 .09899902 .0309906 .03199768 .0309906V0L.14498902 .0029907227 .25698854 0V.0309906C.18998719 .0309906 .1789856 .0309906 .1789856 .07595825V.25978089C.1789856 .36431886 .25 .42037965 .31399537 .42037965 .3769989 .42037965 .3880005 .36631776 .3880005 .30926515V.076034549C.3880005 .0309906 .3769989 .0309906 .30999757 .0309906V0L.4229889 .0029907227 .5349884 0V.0309906C.46798707 .0309906 .45700074 .0309906 .45700074 .076034549V.2602234C.45700074 .36431886 .5279999 .42037965 .59199526 .42037965 .6549988 .42037965 .66600039 .36631776 .66600039 .30926515V.076034549C.66600039 .0309906 .6549988 .0309906 .58799746 .0309906V0L.70098879 .0029907227 .8129883 0Z"/>
<path id="font_4_84" d="M.5209961 .21636963C.5209961 .34336854 .42399598 .4423828 .31199647 .4423828 .23399353 .4423828 .19198609 .39837647 .17199707 .3763733V.4423828L.027999878 .43066407V.3996582C.09899902 .3996582 .10598755 .3936615 .10598755 .34973146V-.117996219C.10598755-.16308594 .09498596-.16308594 .027999878-.16308594V-.1940918L.13999939-.19110108 .25299073-.1940918V-.16308594C.18598938-.16308594 .1749878-.16308594 .1749878-.117996219V.050186159 .059173585C.17999268 .04319763 .22200012-.0107421879 .2979889-.0107421879 .4169922-.0107421879 .5209961 .087127689 .5209961 .21594239V.21636963M.43798829 .21594239C.43798829 .09512329 .36799623 .011245728 .2939911 .011245728 .2539978 .011245728 .21598816 .031219483 .18899536 .07215881 .1749878 .09312439 .1749878 .09411621 .1749878 .114089969V.33674623C.20399475 .38838197 .25299073 .41737367 .3039856 .41737367 .3769989 .41737367 .43798829 .32937623 .43798829 .21636963V.21594239Z"/>
<path id="font_4_96" d="M.3639984 .38137818C.3639984 .41337586 .33299256 .4423828 .2899933 .4423828 .21699524 .4423828 .18099976 .37538148 .16699219 .3323822V.4423828L.027999878 .43066407V.3996582C.09799194 .3996582 .10598755 .39266969 .10598755 .34370423V.07595825C.10598755 .0309906 .09498596 .0309906 .027999878 .0309906V0L.14199829 .0029907227C.18199158 .0029907227 .22898865 .0029907227 .2689972 0V.0309906H.24798584C.17399597 .0309906 .17199707 .04197693 .17199707 .07795715V.23181153C.17199707 .33137513 .21398926 .42037965 .2899933 .42037965 .29699708 .42037965 .29899598 .42037965 .30099488 .41937257 .2979889 .41838075 .27799989 .40637208 .27799989 .3803711 .27799989 .35237123 .29899598 .33737184 .32099916 .33737184 .33898927 .33737184 .3639984 .3493805 .3639984 .38137818Z"/>
<path id="font_4_28" d="M.48298646 .08912659V.14511109H.45799256V.08912659C.45799256 .03112793 .43299867 .025131226 .42199708 .025131226 .3889923 .025131226 .3849945 .070129398 .3849945 .07511902V.27508546C.3849945 .31707765 .3849945 .3560791 .34899903 .39312745 .30999757 .43223573 .2599945 .4482422 .21199036 .4482422 .12998963 .4482422 .06098938 .40115357 .06098938 .335083 .06098938 .30508424 .08099365 .28808595 .10699463 .28808595 .1349945 .28808595 .15299988 .30807496 .15299988 .33407594 .15299988 .3460846 .147995 .37908937 .101989749 .38008119 .1289978 .41519166 .17799378 .426239 .20999146 .426239 .25898744 .426239 .31599427 .38710023 .31599427 .29808045V.26107789C.2649994 .25808717 .19499207 .25508119 .13198853 .22509766 .056991579 .19110108 .03199768 .13911438 .03199768 .09512329 .03199768 .014251709 .1289978-.0107421879 .19198609-.0107421879 .2579956-.0107421879 .3039856 .029251099 .32299806 .07624817 .32699586 .036132814 .35398866-.005859375 .40098573-.005859375 .42199708-.005859375 .48298646 .008132935 .48298646 .08912659M.31599427 .14013672C.31599427 .04525757 .24398804 .011245728 .19898987 .011245728 .1499939 .011245728 .10899353 .04624939 .10899353 .09625244 .10899353 .15124512 .15098572 .23425293 .31599427 .24024964V.14013672Z"/>
<path id="font_4_105" d="M.33198548 .12385559V.18066406H.30699159V.12585449C.30699159 .052108766 .2769928 .014251709 .23999024 .014251709 .17298889 .014251709 .17298889 .10491943 .17298889 .12187195V.3996582H.31599427V.43066407H.17298889V.6142578H.147995C.14698792 .5324249 .116989139 .42565919 .018997193 .42166139V.3996582H.10398865V.12408447C.10398865 .0012512207 .19699097-.0107421879 .23298645-.0107421879 .3039856-.0107421879 .33198548 .060180665 .33198548 .12408447V.12385559Z"/>
<path id="font_4_109" d="M.5349884 0V.0309906C.46499635 .0309906 .45700074 .037994386 .45700074 .08705139V.4423828L.30999757 .43066407V.3996582C.37998963 .3996582 .3880005 .39266969 .3880005 .34373475V.16601563C.3880005 .07910156 .33999635 .011245728 .2669983 .011245728 .18299866 .011245728 .1789856 .058135988 .1789856 .11009216V.4423828L.03199768 .43066407V.3996582C.10998535 .3996582 .10998535 .39666749 .10998535 .3078003V.15802002C.10998535 .080093387 .10998535-.0107421879 .2619934-.0107421879 .31799317-.0107421879 .3619995 .017242432 .3909912 .07910156V-.0107421879L.5349884 0Z"/>
<path id="font_4_85" d="M.33099366-.2400055C.33099366-.23701477 .33099366-.23500061 .31399537-.21800232 .18899536-.0920105 .15699768 .09700012 .15699768 .25 .15699768 .42399598 .19499207 .59799197 .31799317 .72299197 .33099366 .7350006 .33099366 .7369995 .33099366 .73999026 .33099366 .746994 .32699586 .75 .32099916 .75 .31098939 .75 .22099304 .6819916 .1619873 .5549927 .11099243 .44499208 .09899902 .33399964 .09899902 .25 .09899902 .17199707 .10998535 .050994874 .16499329-.06201172 .22499085-.18501282 .31098939-.25 .32099916-.25 .32699586-.25 .33099366-.24700928 .33099366-.2400055Z"/>
<path id="font_5_1" d="M.5069885 .24998474C.5069885 .3710022 .4099884 .4650116 .2919922 .4650116 .17199707 .4650116 .07699585 .36799623 .07699585 .25097657 .07699585 .1299591 .17399597 .035949708 .2919922 .035949708 .4119873 .035949708 .5069885 .13296509 .5069885 .24998474M.2919922 .08496094C.19799805 .08496094 .12599182 .16096497 .12599182 .24998474 .12599182 .34300233 .19999695 .41601563 .2919922 .41601563 .38598634 .41601563 .45799256 .33999635 .45799256 .25097657 .45799256 .15795899 .38398744 .08496094 .2919922 .08496094Z"/>
<path id="font_4_54" d="M.6100006 .45477296 .58200076 .6796875H.032989503V.64868167H.056991579C.13398743 .64868167 .13598633 .63768008 .13598633 .6016998V.07797241C.13598633 .041992189 .13398743 .0309906 .056991579 .0309906H.032989503V0C.067993167 .0029907227 .1459961 .0029907227 .18499756 .0029907227 .22599793 .0029907227 .31698609 .0029907227 .35299684 0V.0309906H.31999208C.22499085 .031188965 .22499085 .044189454 .22499085 .079193118V.3251953H.31098939C.40699769 .3251953 .4169922 .29318238 .4169922 .20819092H.44198609V.4731903H.4169922C.4169922 .38919068 .40699769 .3561859 .31098939 .3561859H.22499085V.6091919C.22499085 .64167788 .22698975 .64868167 .27398683 .64868167H.3939972C.5439911 .64868167 .56900027 .5926819 .58499148 .4546814L.6100006 .45477296Z"/>
<path id="font_4_86" d="M.2889862 .25C.2889862 .32798768 .27799989 .44898988 .22299195 .56199648 .16299439 .68499758 .07699585 .75 .066986087 .75 .06098938 .75 .056991579 .74598696 .056991579 .73999026 .056991579 .7369995 .056991579 .7350006 .07598877 .71699526 .17399597 .6179962 .23098755 .45899964 .23098755 .25 .23098755 .07899475 .19400025-.09700012 .069992069-.2230072 .056991579-.23500061 .056991579-.23701477 .056991579-.2400055 .056991579-.2460022 .06098938-.25 .066986087-.25 .07699585-.25 .16699219-.18200684 .22599793-.055007936 .2769928 .054992677 .2889862 .16600037 .2889862 .25Z"/>
<path id="font_4_42" d="M.6649933 .23271179C.6649933 .24272156 .6649933 .24972534 .6519928 .24972534 .6409912 .24972534 .6409912 .24372864 .6399994 .23371887 .6319885 .09059143 .5249939 .008529663 .41600038 .008529663 .35499574 .008529663 .15899658 .042556764 .15899658 .34080506 .15899658 .64004519 .35398866 .67407229 .4149933 .67407229 .5239868 .67407229 .61299136 .58299258 .6329956 .4368744 .6349945 .42286683 .6349945 .41986085 .6489868 .41986085 .6649933 .41986085 .6649933 .42286683 .6649933 .44387818V.68107607C.6649933 .69807437 .6649933 .7050781 .6539917 .7050781 .6499939 .7050781 .6459961 .7050781 .6380005 .69306948L.58799746 .61901858C.5509949 .6550598 .5 .7050781 .4039917 .7050781 .21699524 .7050781 .055999757 .5459595 .055999757 .34179688 .055999757 .1346283 .21798706-.022460938 .4039917-.022460938 .5669861-.022460938 .6649933 .116622928 .6649933 .23271179Z"/>
<path id="font_4_81" d="M.47099305 .21424866C.47099305 .34223939 .37098695 .4482422 .25 .4482422 .125 .4482422 .027999878 .3392334 .027999878 .21424866 .027999878 .085250858 .13198853-.0107421879 .24899292-.0107421879 .36999513-.0107421879 .47099305 .087249759 .47099305 .21424866M.3880005 .22224427C.3880005 .18624878 .3880005 .13224793 .3659973 .08824158 .34399415 .04324341 .2999878 .014251709 .25 .014251709 .20698548 .014251709 .16299439 .035247804 .13598633 .08125305 .11099243 .12524414 .11099243 .18624878 .11099243 .22224427 .11099243 .26124574 .11099243 .31523133 .1349945 .35923768 .1619873 .40522767 .20899964 .426239 .24899292 .426239 .29299928 .426239 .33599855 .40423585 .3619995 .36123658 .3880005 .3182373 .3880005 .26023866 .3880005 .22224427Z"/>
<path id="font_4_77" d="M.5349884 0V.0309906C.48298646 .0309906 .45799256 .0309906 .45700074 .061019899V.25221253C.45700074 .3383026 .45700074 .36932374 .42599488 .405365 .4119873 .42237855 .3789978 .4423828 .32099916 .4423828 .24798584 .4423828 .20098877 .39935304 .17298889 .33729554V.4423828L.03199768 .43066407V.3996582C.101989749 .3996582 .10998535 .39266969 .10998535 .34370423V.07595825C.10998535 .0309906 .09899902 .0309906 .03199768 .0309906V0L.14498902 .0029907227 .25698854 0V.0309906C.18998719 .0309906 .1789856 .0309906 .1789856 .07595825V.25978089C.1789856 .36431886 .25 .42037965 .31399537 .42037965 .3769989 .42037965 .3880005 .36631776 .3880005 .30926515V.076034549C.3880005 .0309906 .3769989 .0309906 .30999757 .0309906V0L.4229889 .0029907227 .5349884 0Z"/>
<path id="font_4_98" d="M.3600006 .12823487C.3600006 .18122864 .32998658 .21122742 .31799317 .22323609 .2849884 .25523377 .24598694 .26322938 .20399475 .27124024 .147995 .28224183 .08099365 .29522706 .08099365 .35324098 .08099365 .38822938 .10699463 .42922975 .19299317 .42922975 .30299378 .42922975 .30799867 .3392334 .30999757 .30822755 .31098939 .2992401 .32199098 .2992401 .32199098 .2992401 .33499146 .2992401 .33499146 .30422975 .33499146 .32322694V.4242401C.33499146 .4412384 .33499146 .4482422 .32398988 .4482422 .31900025 .4482422 .31698609 .4482422 .3039856 .43623353 .30099488 .43223573 .29100038 .42323304 .2869873 .42022706 .24899292 .4482422 .20799256 .4482422 .19299317 .4482422 .070999149 .4482422 .032989503 .38124085 .032989503 .3252411 .032989503 .29023744 .04899597 .26223756 .07598877 .24023438 .10798645 .2142334 .13598633 .2082367 .20799256 .19422913 .22999573 .19021607 .31199647 .17422486 .31199647 .10221863 .31199647 .051223756 .2769928 .011245728 .19898987 .011245728 .114990238 .011245728 .07899475 .068222049 .05999756 .1532135 .056991579 .16621399 .055999757 .17021179 .04598999 .17021179 .032989503 .17021179 .032989503 .16322327 .032989503 .1452179V.013214111C.032989503-.003753662 .032989503-.0107421879 .04399109-.0107421879 .04899597-.0107421879 .049987794-.009750366 .068984989 .009246826 .070999149 .011245728 .070999149 .013214111 .08898926 .032226564 .1329956-.009750366 .17799378-.0107421879 .19898987-.0107421879 .31399537-.0107421879 .3600006 .05621338 .3600006 .1282196V.12823487Z"/>
<path id="font_4_97" d="M.49899293 .18579102C.49899293 .2858429 .43299867 .36791993 .34899903 .38793946L.22099304 .4189453C.15899658 .43388368 .11999512 .48773194 .11999512 .5458069 .11999512 .61595156 .17399597 .677063 .2519989 .677063 .4189911 .677063 .44099427 .5127411 .44699098 .46777345 .44799806 .461792 .44799806 .45581056 .45899964 .45581056 .47200013 .45581056 .47200013 .46080018 .47200013 .47973634V.68107607C.47200013 .69807437 .47200013 .7050781 .46099855 .7050781 .45399476 .7050781 .45298768 .70407107 .44599916 .69207766L.41099549 .63497927C.3809967 .66404727 .33999635 .7050781 .25099183 .7050781 .13999939 .7050781 .055999757 .61694338 .055999757 .5107422 .055999757 .42790223 .10899353 .35490418 .18699646 .32788087 .19799805 .32388307 .24899292 .3118744 .31900025 .29486085 .34599305 .28785707 .37599183 .280838 .4039917 .24382019 .4249878 .2177887 .43499757 .18478394 .43499757 .1517334 .43499757 .0806427 .3849945 .008529663 .30099488 .008529663 .27198792 .008529663 .19599915 .013534546 .14299011 .06260681 .084991458 .11668396 .08198547 .18078614 .08099365 .21679688 .07998657 .22679138 .07199097 .22679138 .068984989 .22679138 .055999757 .22679138 .055999757 .2197876 .055999757 .20178223V.0015258789C.055999757-.015472412 .055999757-.022460938 .066986087-.022460938 .07398987-.022460938 .07499695-.020462037 .08198547-.009475708 .08198547-.009475708 .084991458-.0054626467 .117996219 .047592164 .14898682 .013534546 .21299744-.022460938 .3019867-.022460938 .4189911-.022460938 .49899293 .07562256 .49899293 .18579102Z"/>
<path id="font_4_72" d="M.25498963 0V.0309906C.18798828 .0309906 .1769867 .0309906 .1769867 .07601929V.69433596L.032989503 .6826172V.6516113C.102996829 .6516113 .11099243 .64460757 .11099243 .5956421V.07595825C.11099243 .0309906 .099990848 .0309906 .032989503 .0309906V0L.14399719 .0029907227 .25498963 0Z"/>
<path id="font_4_47" d="M.5269928 0V.0309906C.45700074 .0309906 .44898988 .038009645 .44898988 .0871582V.69433596L.30499269 .6826172V.6516113C.375 .6516113 .3829956 .64463809 .3829956 .59580996V.38035584C.35398866 .41636659 .31098939 .4423828 .25698854 .4423828 .13899231 .4423828 .033996583 .3443451 .033996583 .21531677 .033996583 .088272098 .13198853-.0107421879 .24598694-.0107421879 .30999757-.0107421879 .35499574 .023254395 .37998963 .055267335V-.0107421879L.5269928 0M.37998963 .117996219C.37998963 .099990848 .37998963 .09799194 .36898805 .08099365 .33898927 .033218385 .2939911 .011245728 .25099183 .011245728 .20599365 .011245728 .16999817 .037216188 .1459961 .075164798 .11999512 .1161499 .116989139 .17320252 .116989139 .21421814 .116989139 .25125123 .11898804 .31129457 .147995 .35632325 .16899109 .38734437 .20698548 .42037965 .26098634 .42037965 .29599 .42037965 .33799745 .405365 .36898805 .3603363 .37998963 .34332276 .37998963 .34132386 .37998963 .32330323V.117996219Z"/>
<path id="font_4_112" d="M.5079956 .3996582V.43066407C.4850006 .4286499 .45599366 .42765809 .43299867 .42765809L.34599305 .43066407V.3996582C.3829956 .39865113 .3939972 .37568666 .3939972 .35671998 .3939972 .34773255 .3919983 .34373475 .3880005 .3327484L.28599549 .078125 .17399597 .35671998C.16799927 .3697052 .16799927 .37368775 .16799927 .37368775 .16799927 .3996582 .20698548 .3996582 .22499085 .3996582V.43066407L.115997318 .42765809C.08898926 .42765809 .04899597 .4286499 .018997193 .43066407V.3996582C.08198547 .3996582 .085998538 .3936615 .09899902 .36271668L.24299622 .008224487C.24899292-.0057525637 .25099183-.0107421879 .2639923-.0107421879 .2769928-.0107421879 .2809906-.0017700195 .2849884 .008224487L.41600038 .3327484C.4249878 .3557129 .44198609 .39865113 .5079956 .3996582Z"/>
<path id="font_4_88" d="M.19198609 .052993776C.19198609 .08198547 .16799927 .10598755 .13899231 .10598755 .10998535 .10598755 .085998538 .08198547 .085998538 .052993776 .085998538 .023986817 .10998535 0 .13899231 0 .16799927 0 .19198609 .023986817 .19198609 .052993776Z"/>
<path id="font_4_65" d="M.33299256 0V.0309906H.30699159C.22799683 .0309906 .22499085 .041992189 .22499085 .07795715V.6046295C.22499085 .64060977 .22799683 .6516113 .30699159 .6516113H.33299256V.6826172C.2979889 .6796112 .21899414 .6796112 .18099976 .6796112 .14199829 .6796112 .06298828 .6796112 .027999878 .6826172V.6516113H.053985597C.1329956 .6516113 .13598633 .64060977 .13598633 .6046295V.07795715C.13598633 .041992189 .1329956 .0309906 .053985597 .0309906H.027999878V0C.06298828 .0029907227 .14199829 .0029907227 .17999268 .0029907227 .21899414 .0029907227 .2979889 .0029907227 .33299256 0Z"/>
<path id="font_4_43" d="M.4149933 .119140628C.4149933 .12911988 .40499879 .12911988 .4019928 .12911988 .3929901 .12911988 .3909912 .12512207 .3889923 .119140628 .3600006 .026229859 .29499818 .014251709 .2579956 .014251709 .20498657 .014251709 .116989139 .0572052 .116989139 .21801758 .116989139 .38093568 .19898987 .42323304 .2519989 .42323304 .26098634 .42323304 .32398988 .42222596 .35899354 .38594056 .31799317 .38293458 .31199647 .3529358 .31199647 .3399353 .31199647 .31393434 .32998658 .2939453 .35798646 .2939453 .38398744 .2939453 .4039917 .3109436 .4039917 .34094239 .4039917 .40911866 .32798768 .4482422 .25099183 .4482422 .12599182 .4482422 .033996583 .3399353 .033996583 .21601868 .033996583 .08816528 .1329956-.0107421879 .24899292-.0107421879 .3829956-.0107421879 .4149933 .10914612 .4149933 .119140628Z"/>
<path id="font_4_95" d="M.7319946 .08753967C.7319946 .09353638 .7319946 .104537967 .71899417 .104537967 .70799258 .104537967 .70799258 .09555054 .70700076 .08854675 .70098879 .017532349 .66600039-.00047302247 .6409912-.00047302247 .59199526-.00047302247 .58399966 .05053711 .56999209 .14355469L.5569916 .22355652C.5389862 .28756715 .48999024 .3205719 .43499757 .3395691 .5319977 .36357118 .6100006 .4245758 .6100006 .502594 .6100006 .5986023 .49598695 .6826172 .34899903 .6826172H.034988405V.6516113H.05899048C.13598633 .6516113 .13798523 .64060977 .13798523 .604599V.077545169C.13798523 .04197693 .13598633 .0309906 .05899048 .0309906H.034988405V0C.070999149 .0029907227 .14199829 .0029907227 .18099976 .0029907227 .21998596 .0029907227 .29100038 .0029907227 .32699586 0V.0309906H.30299378C.22599793 .0309906 .22399903 .04197693 .22399903 .077926639V.3305359H.33898927C.35499574 .3305359 .39698792 .3305359 .43199159 .29658509 .46998597 .26063539 .46998597 .22969055 .46998597 .16279602 .46998597 .09788513 .46998597 .05795288 .5109863 .019989014 .5519867-.016464234 .6069946-.022460938 .6369934-.022460938 .71499636-.022460938 .7319946 .059524537 .7319946 .087524417V.08753967M.5069885 .5025635C.5069885 .43354798 .48298646 .35253907 .33499146 .35253907H.22399903V.6116028C.22399903 .6345978 .22399903 .64660647 .24598694 .6496124 .2559967 .6516113 .2849884 .6516113 .30499269 .6516113 .394989 .6516113 .5069885 .6476135 .5069885 .5025635Z"/>
<path id="font_4_59" d="M.4850006 .40411378C.4850006 .42111207 .47299195 .453125 .43399049 .453125 .4139862 .453125 .36999513 .44711305 .32798768 .40611268 .28599549 .43937684 .24398804 .4423828 .22200012 .4423828 .1289978 .4423828 .05999756 .37338258 .05999756 .29638673 .05999756 .25239564 .08198547 .21440125 .10699463 .19340515 .09399414 .17840576 .07598877 .14538574 .07598877 .11035156 .07598877 .07899475 .08898926 .04083252 .11999512 .020828248 .05999756 .003829956 .027999878-.039138795 .027999878-.07911682 .027999878-.15107727 .1269989-.20605469 .24899292-.20605469 .36698915-.20605469 .47099305-.15507508 .47099305-.07711792 .47099305-.042144777 .45700074 .008834839 .4059906 .036834718 .35299684 .064834598 .29499818 .064834598 .23399353 .064834598 .20899964 .064834598 .1659851 .064834598 .15899658 .065841678 .1269989 .069885257 .10598755 .101242069 .10598755 .13334656 .10598755 .13735962 .10598755 .16040039 .12298584 .18040467 .1619873 .15240479 .20298767 .14941406 .22200012 .14941406 .31498719 .14941406 .38398744 .21839905 .38398744 .2953949 .38398744 .3323822 .36799623 .36938478 .34298707 .39237977 .3789978 .42637635 .4149933 .43138124 .43299867 .43138124 .43299867 .43112184 .43998719 .43112184 .44299317 .43011476 .43199159 .42611695 .4269867 .41513063 .4269867 .40315248 .4269867 .38616944 .43998719 .37417604 .45599366 .37417604 .46598817 .37417604 .4850006 .3811798 .4850006 .4041443V.40411378M.30899049 .29626466C.30899049 .26930238 .30799867 .2373352 .29299928 .21235657 .2849884 .20037842 .2619934 .17240906 .22200012 .17240906 .1349945 .17240906 .1349945 .2722931 .1349945 .29527284 .1349945 .3222351 .13598633 .35420228 .15098572 .3791809 .15899658 .3913269 .18199158 .41937257 .22200012 .41937257 .30899049 .41937257 .30899049 .31922914 .30899049 .29618836V.29626466M.4189911-.07911682C.4189911-.13308716 .34799195-.18305969 .25-.18305969 .14898682-.18305969 .07998657-.13209534 .07998657-.07911682 .07998657-.03314209 .117996219 .003829956 .1619873 .0068359377H.22099304C.30699159 .0068359377 .4189911 .0068359377 .4189911-.07911682Z"/>
<path id="font_4_66" d="M.24699402 0V.0309906C.18099976 .0309906 .1769867 .035995485 .1769867 .075042728V.4423828L.036987306 .43066407V.3996582C.101989749 .3996582 .11099243 .3936615 .11099243 .3447113V.07595825C.11099243 .0309906 .099990848 .0309906 .032989503 .0309906V0L.14299011 .0029907227C.17799378 .0029907227 .21299744 .0009918213 .24699402 0M.19198609 .603775C.19198609 .6307678 .16899109 .6567688 .13899231 .6567688 .10499573 .6567688 .084991458 .6287689 .084991458 .603775 .084991458 .57676699 .10798645 .55078127 .13798523 .55078127 .17199707 .55078127 .19198609 .5787811 .19198609 .603775Z"/>
<path id="font_4_71" d="M.58200076 .2578125H.5569916C.54599 .15588379 .5319977 .0309906 .35598756 .0309906H.27398683C.22698975 .03060913 .22499085 .037612916 .22499085 .07060242V.6036072C.22499085 .63760378 .22499085 .6516113 .31999208 .6516113H.35299684V.6826172C.31698609 .6796112 .22599793 .6796112 .18499756 .6796112 .1459961 .6796112 .067993167 .6796112 .032989503 .6826172V.6516113H.056991579C.13398743 .6518097 .13598633 .6408081 .13598633 .6048126V.07795715C.13598633 .04197693 .13398743 .0309906 .056991579 .0309906H.032989503V0H.55400088L.58200076 .2578125Z"/>
<path id="font_4_80" d="M.72099307 .3387909C.72099307 .5429535 .56999209 .7050781 .3880005 .7050781 .20899964 .7050781 .055999757 .5449524 .055999757 .3387909 .055999757 .13363648 .20999146-.022460938 .3880005-.022460938 .56999209-.022460938 .72099307 .13664246 .72099307 .3387909M.6179962 .35281373C.6179962 .08760071 .48098756 .0035247803 .3889923 .0035247803 .29299928 .0035247803 .15899658 .09159851 .15899658 .35281373 .15899658 .6120148 .30499269 .68006899 .3880005 .68006899 .47499085 .68006899 .6179962 .6090088 .6179962 .35281373Z"/>
<path id="font_4_35" d="M.5209961 .2163086C.5209961 .34335328 .4229889 .4423828 .30899049 .4423828 .23098755 .4423828 .18798828 .39537049 .17199707 .3773651V.69433596L.027999878 .68333438V.6523285C.09799194 .6523285 .10598755 .6453247 .10598755 .596344V.00024414063H.1309967L.16699219 .06227112C.18199158 .039260866 .22399903-.0107421879 .2979889-.0107421879 .4169922-.0107421879 .5209961 .08728027 .5209961 .2163086M.43798829 .21731568C.43798829 .18029785 .43598939 .120285037 .40699769 .07527161 .38598634 .044265748 .34799195 .011245728 .2939911 .011245728 .24899292 .011260986 .21299744 .03526306 .18899536 .072265628 .1749878 .09326172 .1749878 .09625244 .1749878 .11425781V.32034303C.1749878 .3393402 .1749878 .3403473 .18598938 .35635377 .22499085 .41236878 .27999879 .42037965 .3039856 .42037965 .34899903 .42037965 .3849945 .3943634 .40899659 .35635377 .43499757 .31533814 .43798829 .25831605 .43798829 .21730042V.21731568Z"/>
<path id="font_4_46" d="M.70700076 .33580018C.70700076 .52568057 .57199099 .6826172 .40098573 .6826172H.034988405V.6516113H.05899048C.13598633 .6516113 .13798523 .64060977 .13798523 .6046295V.07795715C.13798523 .041992189 .13598633 .0309906 .05899048 .0309906H.034988405V0H.40098573C.56900027 0 .70700076 .1479187 .70700076 .33580018M.6069946 .33580018C.6069946 .22486878 .58799746 .16490174 .5519867 .11593628 .5319977 .08895874 .47499085 .0309906 .37399293 .0309906H.272995C.22599793 .0309906 .22399903 .037994386 .22399903 .07096863V.6116333C.22399903 .64460757 .22599793 .6516113 .272995 .6516113H.37298585C.43499757 .6516113 .5039978 .6296234 .5549927 .55867007 .59799197 .49969483 .6069946 .41375733 .6069946 .33580018Z"/>
<path id="font_4_83" d="M.6239929 .4967041C.6239929 .59465029 .5249939 .6826172 .3880005 .6826172H.034988405V.6516113H.05899048C.13598633 .6516113 .13798523 .64060977 .13798523 .6046295V.07795715C.13798523 .041992189 .13598633 .0309906 .05899048 .0309906H.034988405V0C.069992069 .0029907227 .14399719 .0029907227 .18199158 .0029907227 .21998596 .0029907227 .29499818 .0029907227 .32998658 0V.0309906H.30599977C.22898865 .0309906 .22698975 .041992189 .22698975 .07795715V.3157959H.3959961C.5159912 .3157959 .6239929 .39675904 .6239929 .4967041M.5209961 .4967041C.5209961 .4497223 .5209961 .34179688 .3619995 .34179688H.22399903V.6116333C.22399903 .64460757 .22599793 .6516113 .272995 .6516113H.3619995C.5209961 .6516113 .5209961 .54566958 .5209961 .4967041Z"/>
</defs>
<path transform="matrix(1.00003,0,0,-1,39.708749,181.979)" stroke-width=".19925" stroke-linecap="butt" stroke-miterlimit="10" stroke-linejoin="miter" fill="none" stroke="#bfbfbf" d="M24.28363 1.21054V162.6069M48.56728 1.21054V162.6069M72.8509 1.21054V162.6069M97.13455 1.21054V162.6069M121.4182 1.21054V162.6069M145.70183 1.21054V162.6069M169.98548 1.21054V162.6069"/>
<path transform="matrix(1.00003,0,0,-1,39.708749,181.979)" stroke-width=".19925" stroke-linecap="butt" stroke-miterlimit="10" stroke-linejoin="miter" fill="none" stroke="#bfbfbf" d="M0 21.38509H194.26912M0 41.55963H194.26912M0 61.73418H194.26912M0 81.90872H194.26912M0 102.08327H194.26912M0 122.25781H194.26912M0 142.43236H194.26912"/>
<path transform="matrix(1.00003,0,0,-1,39.708749,181.979)" stroke-width=".19925" stroke-linecap="butt" stroke-miterlimit="10" stroke-linejoin="miter" fill="none" stroke="#7f807f" d="M24.28363 1.21054V5.4625M48.56728 1.21054V5.4625M72.8509 1.21054V5.4625M97.13455 1.21054V5.4625M121.4182 1.21054V5.4625M145.70183 1.21054V5.4625M169.98548 1.21054V5.4625M24.28363 162.6069V158.35495M48.56728 162.6069V158.35495M72.8509 162.6069V158.35495M97.13455 162.6069V158.35495M121.4182 162.6069V158.35495M145.70183 162.6069V158.35495M169.98548 162.6069V158.35495"/>
<path transform="matrix(1.00003,0,0,-1,39.708749,181.979)" stroke-width=".19925" stroke-linecap="butt" stroke-miterlimit="10" stroke-linejoin="miter" fill="none" stroke="#7f807f" d="M0 21.38509H4.25175M0 41.55963H4.25175M0 61.73418H4.25175M0 81.90872H4.25175M0 102.08327H4.25175M0 122.25781H4.25175M0 142.43236H4.25175M194.26912 21.38509H190.01734M194.26912 41.55963H190.01734M194.26912 61.73418H190.01734M194.26912 81.90872H190.01734M194.26912 102.08327H190.01734M194.26912 122.25781H190.01734M194.26912 142.43236H190.01734"/>
<path transform="matrix(1.00003,0,0,-1,39.708749,181.979)" stroke-width=".3985" stroke-linecap="butt" stroke-miterlimit="10" stroke-linejoin="miter" fill="none" stroke="#000000" d="M0 1.21054V162.6069H194.26912V1.21054H0Z"/>
<use data-text="7" xlink:href="#font_1_7" transform="matrix(9.962899,0,0,-9.9626,59.01133,190.709)"/>
<use data-text="0" xlink:href="#font_1_1" transform="matrix(9.962899,0,0,-9.9626,63.992776,190.709)"/>
<use data-text="7" xlink:href="#font_1_7" transform="matrix(9.962899,0,0,-9.9626,83.29605,190.709)"/>
<use data-text="5" xlink:href="#font_1_6" transform="matrix(9.962899,0,0,-9.9626,88.2775,190.709)"/>
<use data-text="8" xlink:href="#font_1_8" transform="matrix(9.962899,0,0,-9.9626,107.58079,190.709)"/>
<use data-text="0" xlink:href="#font_1_1" transform="matrix(9.962899,0,0,-9.9626,112.56223,190.709)"/>
<use data-text="8" xlink:href="#font_1_8" transform="matrix(9.962899,0,0,-9.9626,131.86452,190.709)"/>
<use data-text="5" xlink:href="#font_1_6" transform="matrix(9.962899,0,0,-9.9626,136.84597,190.709)"/>
<use data-text="9" xlink:href="#font_1_9" transform="matrix(9.962899,0,0,-9.9626,156.14923,190.709)"/>
<use data-text="0" xlink:href="#font_1_1" transform="matrix(9.962899,0,0,-9.9626,161.13068,190.709)"/>
<use data-text="9" xlink:href="#font_1_9" transform="matrix(9.962899,0,0,-9.9626,180.43299,190.709)"/>
<use data-text="5" xlink:href="#font_1_6" transform="matrix(9.962899,0,0,-9.9626,185.41443,190.709)"/>
<use data-text="1" xlink:href="#font_1_2" transform="matrix(9.962899,0,0,-9.9626,202.22663,190.709)"/>
<use data-text="0" xlink:href="#font_1_1" transform="matrix(9.962899,0,0,-9.9626,207.20807,190.709)"/>
<use data-text="0" xlink:href="#font_1_1" transform="matrix(9.962899,0,0,-9.9626,212.18952,190.709)"/>
<use data-text="1" xlink:href="#font_1_2" transform="matrix(9.962899,0,0,-9.9626,21.244187,163.804)"/>
<use data-text="0" xlink:href="#font_1_1" transform="matrix(9.962899,0,0,-9.9626,26.225632,163.804)"/>
<use data-text="0" xlink:href="#font_1_1" transform="matrix(9.962899,0,0,-9.9626,31.207062,163.804)"/>
<use data-text="1" xlink:href="#font_1_2" transform="matrix(9.962899,0,0,-9.9626,21.244187,143.63)"/>
<use data-text="5" xlink:href="#font_1_6" transform="matrix(9.962899,0,0,-9.9626,26.225632,143.63)"/>
<use data-text="0" xlink:href="#font_1_1" transform="matrix(9.962899,0,0,-9.9626,31.207062,143.63)"/>
<use data-text="2" xlink:href="#font_1_3" transform="matrix(9.962899,0,0,-9.9626,21.244187,123.455)"/>
<use data-text="0" xlink:href="#font_1_1" transform="matrix(9.962899,0,0,-9.9626,26.225632,123.455)"/>
<use data-text="0" xlink:href="#font_1_1" transform="matrix(9.962899,0,0,-9.9626,31.207062,123.455)"/>
<use data-text="2" xlink:href="#font_1_3" transform="matrix(9.962899,0,0,-9.9626,21.244187,103.281009)"/>
<use data-text="5" xlink:href="#font_1_6" transform="matrix(9.962899,0,0,-9.9626,26.225632,103.281009)"/>
<use data-text="0" xlink:href="#font_1_1" transform="matrix(9.962899,0,0,-9.9626,31.207062,103.281009)"/>
<use data-text="3" xlink:href="#font_1_4" transform="matrix(9.962899,0,0,-9.9626,21.244187,83.106)"/>
<use data-text="0" xlink:href="#font_1_1" transform="matrix(9.962899,0,0,-9.9626,26.225632,83.106)"/>
<use data-text="0" xlink:href="#font_1_1" transform="matrix(9.962899,0,0,-9.9626,31.207062,83.106)"/>
<use data-text="3" xlink:href="#font_1_4" transform="matrix(9.962899,0,0,-9.9626,21.244187,62.931009)"/>
<use data-text="5" xlink:href="#font_1_6" transform="matrix(9.962899,0,0,-9.9626,26.225632,62.931009)"/>
<use data-text="0" xlink:href="#font_1_1" transform="matrix(9.962899,0,0,-9.9626,31.207062,62.931009)"/>
<use data-text="4" xlink:href="#font_1_5" transform="matrix(9.962899,0,0,-9.9626,21.244187,42.757005)"/>
<use data-text="0" xlink:href="#font_1_1" transform="matrix(9.962899,0,0,-9.9626,26.225632,42.757005)"/>
<use data-text="0" xlink:href="#font_1_1" transform="matrix(9.962899,0,0,-9.9626,31.207062,42.757005)"/>
<g clip-path="url(#clip_2)">
<path transform="matrix(1.00003,0,0,-1,39.708749,181.979)" stroke-width=".79701" stroke-linecap="butt" stroke-miterlimit="10" stroke-linejoin="miter" fill="none" stroke="#ff0000" d="M0 0 194.26912 164.62424"/>
</g>
<path transform="matrix(1.00003,0,0,-1,39.708749,181.979)" d="M27.27246 21.38509C27.27246 23.0358 25.93434 24.37392 24.28363 24.37392 22.63292 24.37392 21.2948 23.0358 21.2948 21.38509 21.2948 19.73438 22.63292 18.39626 24.28363 18.39626 25.93434 18.39626 27.27246 19.73438 27.27246 21.38509ZM24.28363 21.38509" fill="#0000ff"/>
<path transform="matrix(1.00003,0,0,-1,39.708749,181.979)" stroke-width=".3985" stroke-linecap="butt" stroke-miterlimit="10" stroke-linejoin="miter" fill="none" stroke="#0000ff" d="M27.27246 21.38509C27.27246 23.0358 25.93434 24.37392 24.28363 24.37392 22.63292 24.37392 21.2948 23.0358 21.2948 21.38509 21.2948 19.73438 22.63292 18.39626 24.28363 18.39626 25.93434 18.39626 27.27246 19.73438 27.27246 21.38509ZM24.28363 21.38509"/>
<path transform="matrix(1.00003,0,0,-1,39.708749,181.979)" stroke-width=".3985" stroke-linecap="butt" stroke-miterlimit="10" stroke-linejoin="miter" fill="none" stroke="#0000ff" d=""/>
<use data-text="D" xlink:href="#font_3_46" transform="matrix(7.9703395,0,0,-7.9701,38.490709,155.448)"/>
<use data-text="a" xlink:href="#font_3_28" transform="matrix(7.9703395,0,0,-7.9701,44.95465,155.448)"/>
<use data-text="y" xlink:href="#font_3_118" transform="matrix(7.9703395,0,0,-7.9701,48.955736,155.448)"/>
<use data-text="1" xlink:href="#font_3_82" transform="matrix(7.9703395,0,0,-7.9701,56.24063,155.448)"/>
<path transform="matrix(1.00003,0,0,-1,39.708749,181.979)" d="M51.5561 41.55963C51.5561 43.21034 50.21799 44.54846 48.56728 44.54846 46.91656 44.54846 45.57845 43.21034 45.57845 41.55963 45.57845 39.90892 46.91656 38.5708 48.56728 38.5708 50.21799 38.5708 51.5561 39.90892 51.5561 41.55963ZM48.56728 41.55963" fill="#0000ff"/>
<path transform="matrix(1.00003,0,0,-1,39.708749,181.979)" stroke-width=".3985" stroke-linecap="butt" stroke-miterlimit="10" stroke-linejoin="miter" fill="none" stroke="#0000ff" d="M51.5561 41.55963C51.5561 43.21034 50.21799 44.54846 48.56728 44.54846 46.91656 44.54846 45.57845 43.21034 45.57845 41.55963 45.57845 39.90892 46.91656 38.5708 48.56728 38.5708 50.21799 38.5708 51.5561 39.90892 51.5561 41.55963ZM48.56728 41.55963"/>
<path transform="matrix(1.00003,0,0,-1,39.708749,181.979)" stroke-width=".3985" stroke-linecap="butt" stroke-miterlimit="10" stroke-linejoin="miter" fill="none" stroke="#0000ff" d=""/>
<use data-text="D" xlink:href="#font_3_46" transform="matrix(7.9703395,0,0,-7.9701,62.775438,135.274)"/>
<use data-text="a" xlink:href="#font_3_28" transform="matrix(7.9703395,0,0,-7.9701,69.23938,135.274)"/>
<use data-text="y" xlink:href="#font_3_118" transform="matrix(7.9703395,0,0,-7.9701,73.24046,135.274)"/>
<use data-text="2" xlink:href="#font_3_107" transform="matrix(7.9703395,0,0,-7.9701,80.52536,135.274)"/>
<path transform="matrix(1.00003,0,0,-1,39.708749,181.979)" d="M75.83974 57.69926C75.83974 59.34998 74.50162 60.6881 72.8509 60.6881 71.20021 60.6881 69.86208 59.34998 69.86208 57.69926 69.86208 56.04857 71.20021 54.71043 72.8509 54.71043 74.50162 54.71043 75.83974 56.04857 75.83974 57.69926ZM72.8509 57.69926" fill="#0000ff"/>
<path transform="matrix(1.00003,0,0,-1,39.708749,181.979)" stroke-width=".3985" stroke-linecap="butt" stroke-miterlimit="10" stroke-linejoin="miter" fill="none" stroke="#0000ff" d="M75.83974 57.69926C75.83974 59.34998 74.50162 60.6881 72.8509 60.6881 71.20021 60.6881 69.86208 59.34998 69.86208 57.69926 69.86208 56.04857 71.20021 54.71043 72.8509 54.71043 74.50162 54.71043 75.83974 56.04857 75.83974 57.69926ZM72.8509 57.69926"/>
<path transform="matrix(1.00003,0,0,-1,39.708749,181.979)" stroke-width=".3985" stroke-linecap="butt" stroke-miterlimit="10" stroke-linejoin="miter" fill="none" stroke="#0000ff" d=""/>
<use data-text="D" xlink:href="#font_3_46" transform="matrix(7.9703395,0,0,-7.9701,87.05917,119.134)"/>
<use data-text="a" xlink:href="#font_3_28" transform="matrix(7.9703395,0,0,-7.9701,93.52312,119.134)"/>
<use data-text="y" xlink:href="#font_3_118" transform="matrix(7.9703395,0,0,-7.9701,97.5242,119.134)"/>
<use data-text="3" xlink:href="#font_3_106" transform="matrix(7.9703395,0,0,-7.9701,104.8091,119.134)"/>
<path transform="matrix(1.00003,0,0,-1,39.708749,181.979)" d="M100.12338 85.94363C100.12338 87.59435 98.78526 88.93246 97.13455 88.93246 95.48384 88.93246 94.14572 87.59435 94.14572 85.94363 94.14572 84.29292 95.48384 82.9548 97.13455 82.9548 98.78526 82.9548 100.12338 84.29292 100.12338 85.94363ZM97.13455 85.94363" fill="#0000ff"/>
<path transform="matrix(1.00003,0,0,-1,39.708749,181.979)" stroke-width=".3985" stroke-linecap="butt" stroke-miterlimit="10" stroke-linejoin="miter" fill="none" stroke="#0000ff" d="M100.12338 85.94363C100.12338 87.59435 98.78526 88.93246 97.13455 88.93246 95.48384 88.93246 94.14572 87.59435 94.14572 85.94363 94.14572 84.29292 95.48384 82.9548 97.13455 82.9548 98.78526 82.9548 100.12338 84.29292 100.12338 85.94363ZM97.13455 85.94363"/>
<path transform="matrix(1.00003,0,0,-1,39.708749,181.979)" stroke-width=".3985" stroke-linecap="butt" stroke-miterlimit="10" stroke-linejoin="miter" fill="none" stroke="#0000ff" d=""/>
<use data-text="D" xlink:href="#font_3_46" transform="matrix(7.9703395,0,0,-7.9701,111.3439,90.89001)"/>
<use data-text="a" xlink:href="#font_3_28" transform="matrix(7.9703395,0,0,-7.9701,117.807849,90.89001)"/>
<use data-text="y" xlink:href="#font_3_118" transform="matrix(7.9703395,0,0,-7.9701,121.80893,90.89001)"/>
<use data-text="4" xlink:href="#font_3_57" transform="matrix(7.9703395,0,0,-7.9701,129.09383,90.89001)"/>
<path transform="matrix(1.00003,0,0,-1,39.708749,181.979)" d="M124.40703 102.08327C124.40703 103.73398 123.0689 105.0721 121.4182 105.0721 119.76749 105.0721 118.42937 103.73398 118.42937 102.08327 118.42937 100.43256 119.76749 99.09444 121.4182 99.09444 123.0689 99.09444 124.40703 100.43256 124.40703 102.08327ZM121.4182 102.08327" fill="#0000ff"/>
<path transform="matrix(1.00003,0,0,-1,39.708749,181.979)" stroke-width=".3985" stroke-linecap="butt" stroke-miterlimit="10" stroke-linejoin="miter" fill="none" stroke="#0000ff" d="M124.40703 102.08327C124.40703 103.73398 123.0689 105.0721 121.4182 105.0721 119.76749 105.0721 118.42937 103.73398 118.42937 102.08327 118.42937 100.43256 119.76749 99.09444 121.4182 99.09444 123.0689 99.09444 124.40703 100.43256 124.40703 102.08327ZM121.4182 102.08327"/>
<path transform="matrix(1.00003,0,0,-1,39.708749,181.979)" stroke-width=".3985" stroke-linecap="butt" stroke-miterlimit="10" stroke-linejoin="miter" fill="none" stroke="#0000ff" d=""/>
<use data-text="D" xlink:href="#font_3_46" transform="matrix(7.9703395,0,0,-7.9701,135.62863,74.75001)"/>
<use data-text="a" xlink:href="#font_3_28" transform="matrix(7.9703395,0,0,-7.9701,142.09258,74.75001)"/>
<use data-text="y" xlink:href="#font_3_118" transform="matrix(7.9703395,0,0,-7.9701,146.09366,74.75001)"/>
<use data-text="5" xlink:href="#font_3_56" transform="matrix(7.9703395,0,0,-7.9701,153.37856,74.75001)"/>
<path transform="matrix(1.00003,0,0,-1,39.708749,181.979)" stroke-width=".3985" stroke-linecap="butt" stroke-miterlimit="10" stroke-linejoin="miter" fill="none" stroke="#0000ff" d=""/>
<use data-text="T" xlink:href="#font_4_104" transform="matrix(9.962899,0,0,-9.9626,97.78749,206.705)"/>
<use data-text="e" xlink:href="#font_4_50" transform="matrix(9.962899,0,0,-9.9626,104.16373,206.705)"/>
<use data-text="m" xlink:href="#font_4_75" transform="matrix(9.962899,0,0,-9.9626,108.587268,206.705)"/>
<use data-text="p" xlink:href="#font_4_84" transform="matrix(9.962899,0,0,-9.9626,116.88635,206.705)"/>
<use data-text="e" xlink:href="#font_4_50" transform="matrix(9.962899,0,0,-9.9626,122.69473,206.705)"/>
<use data-text="r" xlink:href="#font_4_96" transform="matrix(9.962899,0,0,-9.9626,127.11827,206.705)"/>
<use data-text="a" xlink:href="#font_4_28" transform="matrix(9.962899,0,0,-9.9626,131.02371,206.705)"/>
<use data-text="t" xlink:href="#font_4_105" transform="matrix(9.962899,0,0,-9.9626,136.00516,206.705)"/>
<use data-text="u" xlink:href="#font_4_109" transform="matrix(9.962899,0,0,-9.9626,139.88074,206.705)"/>
<use data-text="r" xlink:href="#font_4_96" transform="matrix(9.962899,0,0,-9.9626,145.4201,206.705)"/>
<use data-text="e" xlink:href="#font_4_50" transform="matrix(9.962899,0,0,-9.9626,149.32555,206.705)"/>
<use data-text="(" xlink:href="#font_4_85" transform="matrix(9.962899,0,0,-9.9626,157.06674,206.705)"/>
<use data-text="&#x25e6;" xlink:href="#font_5_1" transform="matrix(6.9740097,0,0,-6.9738,160.94239,203.09)"/>
<use data-text="F" xlink:href="#font_4_54" transform="matrix(9.962899,0,0,-9.9626,165.52252,206.705)"/>
<use data-text=")" xlink:href="#font_4_86" transform="matrix(9.962899,0,0,-9.9626,172.0283,206.705)"/>
<use data-text="C" xlink:href="#font_4_42" transform="matrix(0,-9.9626,-9.962899,-0,8.239792,124.17503)"/>
<use data-text="o" xlink:href="#font_4_81" transform="matrix(0,-9.9626,-9.962899,-0,8.239792,116.98204)"/>
<use data-text="n" xlink:href="#font_4_77" transform="matrix(0,-9.9626,-9.962899,-0,8.239792,112.00075)"/>
<use data-text="e" xlink:href="#font_4_50" transform="matrix(0,-9.9626,-9.962899,-0,8.239792,106.46155)"/>
<use data-text="s" xlink:href="#font_4_98" transform="matrix(0,-9.9626,-9.962899,-0,8.239792,102.03815)"/>
<use data-text="S" xlink:href="#font_4_97" transform="matrix(0,-9.9626,-9.962899,-0,8.239792,94.795337)"/>
<use data-text="o" xlink:href="#font_4_81" transform="matrix(0,-9.9626,-9.962899,-0,8.239792,89.256137)"/>
<use data-text="l" xlink:href="#font_4_72" transform="matrix(0,-9.9626,-9.962899,-0,8.239792,84.27484)"/>
<use data-text="d" xlink:href="#font_4_47" transform="matrix(0,-9.9626,-9.962899,-0,8.239792,81.50523)"/>
<use data-text="T" xlink:href="#font_4_104" transform="matrix(9.962899,0,0,-9.9626,64.255489,7.9420015)"/>
<use data-text="e" xlink:href="#font_4_50" transform="matrix(9.962899,0,0,-9.9626,70.63172,7.9420015)"/>
<use data-text="m" xlink:href="#font_4_75" transform="matrix(9.962899,0,0,-9.9626,75.05526,7.9420015)"/>
<use data-text="p" xlink:href="#font_4_84" transform="matrix(9.962899,0,0,-9.9626,83.35435,7.9420015)"/>
<use data-text="e" xlink:href="#font_4_50" transform="matrix(9.962899,0,0,-9.9626,89.16273,7.9420015)"/>
<use data-text="r" xlink:href="#font_4_96" transform="matrix(9.962899,0,0,-9.9626,93.586269,7.9420015)"/>
<use data-text="a" xlink:href="#font_4_28" transform="matrix(9.962899,0,0,-9.9626,97.49171,7.9420015)"/>
<use data-text="t" xlink:href="#font_4_105" transform="matrix(9.962899,0,0,-9.9626,102.47315,7.9420015)"/>
<use data-text="u" xlink:href="#font_4_109" transform="matrix(9.962899,0,0,-9.9626,106.34873,7.9420015)"/>
<use data-text="r" xlink:href="#font_4_96" transform="matrix(9.962899,0,0,-9.9626,111.8881,7.9420015)"/>
<use data-text="e" xlink:href="#font_4_50" transform="matrix(9.962899,0,0,-9.9626,115.79354,7.9420015)"/>
<use data-text="v" xlink:href="#font_4_112" transform="matrix(9.962899,0,0,-9.9626,123.53474,7.9420015)"/>
<use data-text="s" xlink:href="#font_4_98" transform="matrix(9.962899,0,0,-9.9626,128.79514,7.9420015)"/>
<use data-text="." xlink:href="#font_4_88" transform="matrix(9.962899,0,0,-9.9626,132.72052,7.9420015)"/>
<use data-text="I" xlink:href="#font_4_65" transform="matrix(9.962899,0,0,-9.9626,139.91376,7.9420015)"/>
<use data-text="c" xlink:href="#font_4_43" transform="matrix(9.962899,0,0,-9.9626,143.51035,7.9420015)"/>
<use data-text="e" xlink:href="#font_4_50" transform="matrix(9.962899,0,0,-9.9626,147.9339,7.9420015)"/>
<use data-text="C" xlink:href="#font_4_42" transform="matrix(9.962899,0,0,-9.9626,155.67505,7.9420015)"/>
<use data-text="r" xlink:href="#font_4_96" transform="matrix(9.962899,0,0,-9.9626,162.86826,7.9420015)"/>
<use data-text="e" xlink:href="#font_4_50" transform="matrix(9.962899,0,0,-9.9626,166.77371,7.9420015)"/>
<use data-text="a" xlink:href="#font_4_28" transform="matrix(9.962899,0,0,-9.9626,171.19724,7.9420015)"/>
<use data-text="m" xlink:href="#font_4_75" transform="matrix(9.962899,0,0,-9.9626,176.17868,7.9420015)"/>
<use data-text="S" xlink:href="#font_4_97" transform="matrix(9.962899,0,0,-9.9626,187.79544,7.9420015)"/>
<use data-text="a" xlink:href="#font_4_28" transform="matrix(9.962899,0,0,-9.9626,193.33481,7.9420015)"/>
<use data-text="l" xlink:href="#font_4_72" transform="matrix(9.962899,0,0,-9.9626,198.31626,7.9420015)"/>
<use data-text="e" xlink:href="#font_4_50" transform="matrix(9.962899,0,0,-9.9626,201.08594,7.9420015)"/>
<use data-text="s" xlink:href="#font_4_98" transform="matrix(9.962899,0,0,-9.9626,205.50946,7.9420015)"/>
<path transform="matrix(1.00003,0,0,-1,39.708749,181.979)" d="M6.02707 128.79361H129.68674V157.56594H6.02707Z" fill="#ffffff"/>
<path transform="matrix(1.00003,0,0,-1,39.708749,181.979)" stroke-width=".3985" stroke-linecap="butt" stroke-miterlimit="10" stroke-linejoin="miter" fill="none" stroke="#000000" d="M6.02707 128.79361H129.68674V157.56594H6.02707Z"/>
<path transform="matrix(1.00003,0,0,-1,49.12404,32.54801)" stroke-width=".79701" stroke-linecap="butt" stroke-miterlimit="10" stroke-linejoin="miter" fill="none" stroke="#ff0000" d="M0 0H8.50412 17.00826"/>
<use data-text="R" xlink:href="#font_4_95" transform="matrix(9.962899,0,0,-9.9626,82.22702,35.20301)"/>
<use data-text="e" xlink:href="#font_4_50" transform="matrix(9.962899,0,0,-9.9626,89.55972,35.20301)"/>
<use data-text="g" xlink:href="#font_4_59" transform="matrix(9.962899,0,0,-9.9626,93.983249,35.20301)"/>
<use data-text="r" xlink:href="#font_4_96" transform="matrix(9.962899,0,0,-9.9626,98.96469,35.20301)"/>
<use data-text="e" xlink:href="#font_4_50" transform="matrix(9.962899,0,0,-9.9626,102.87015,35.20301)"/>
<use data-text="s" xlink:href="#font_4_98" transform="matrix(9.962899,0,0,-9.9626,107.293659,35.20301)"/>
<use data-text="s" xlink:href="#font_4_98" transform="matrix(9.962899,0,0,-9.9626,111.21904,35.20301)"/>
<use data-text="i" xlink:href="#font_4_66" transform="matrix(9.962899,0,0,-9.9626,115.144428,35.20301)"/>
<use data-text="o" xlink:href="#font_4_81" transform="matrix(9.962899,0,0,-9.9626,117.91411,35.20301)"/>
<use data-text="n" xlink:href="#font_4_77" transform="matrix(9.962899,0,0,-9.9626,122.89555,35.20301)"/>
<use data-text="L" xlink:href="#font_4_71" transform="matrix(9.962899,0,0,-9.9626,131.7426,35.20301)"/>
<use data-text="i" xlink:href="#font_4_66" transform="matrix(9.962899,0,0,-9.9626,137.9694,35.20301)"/>
<use data-text="n" xlink:href="#font_4_77" transform="matrix(9.962899,0,0,-9.9626,140.73909,35.20301)"/>
<use data-text="e" xlink:href="#font_4_50" transform="matrix(9.962899,0,0,-9.9626,146.27849,35.20301)"/>
<path transform="matrix(1.00003,0,0,-1,49.12404,44.94101)" stroke-width=".3985" stroke-linecap="butt" stroke-miterlimit="10" stroke-linejoin="miter" fill="none" stroke="#0000ff" d=""/>
<path transform="matrix(1.00003,0,0,-1,49.12404,44.94101)" d="M11.49295 0C11.49295 1.6507 10.15482 2.98883 8.50412 2.98883 6.85341 2.98883 5.51529 1.6507 5.51529 0 5.51529-1.6507 6.85341-2.98883 8.50412-2.98883 10.15482-2.98883 11.49295-1.6507 11.49295 0ZM8.50412 0" fill="#0000ff"/>
<path transform="matrix(1.00003,0,0,-1,49.12404,44.94101)" stroke-width=".3985" stroke-linecap="butt" stroke-miterlimit="10" stroke-linejoin="miter" fill="none" stroke="#0000ff" d="M11.49295 0C11.49295 1.6507 10.15482 2.98883 8.50412 2.98883 6.85341 2.98883 5.51529 1.6507 5.51529 0 5.51529-1.6507 6.85341-2.98883 8.50412-2.98883 10.15482-2.98883 11.49295-1.6507 11.49295 0ZM8.50412 0"/>
<use data-text="O" xlink:href="#font_4_80" transform="matrix(9.962899,0,0,-9.9626,68.5226,47.70601)"/>
<use data-text="b" xlink:href="#font_4_35" transform="matrix(9.962899,0,0,-9.9626,76.27373,47.70601)"/>
<use data-text="s" xlink:href="#font_4_98" transform="matrix(9.962899,0,0,-9.9626,81.813098,47.70601)"/>
<use data-text="e" xlink:href="#font_4_50" transform="matrix(9.962899,0,0,-9.9626,85.73848,47.70601)"/>
<use data-text="r" xlink:href="#font_4_96" transform="matrix(9.962899,0,0,-9.9626,90.16202,47.70601)"/>
<use data-text="v" xlink:href="#font_4_112" transform="matrix(9.962899,0,0,-9.9626,94.067478,47.70601)"/>
<use data-text="e" xlink:href="#font_4_50" transform="matrix(9.962899,0,0,-9.9626,99.04892,47.70601)"/>
<use data-text="d" xlink:href="#font_4_47" transform="matrix(9.962899,0,0,-9.9626,103.47244,47.70601)"/>
<use data-text="D" xlink:href="#font_4_46" transform="matrix(9.962899,0,0,-9.9626,112.31952,47.70601)"/>
<use data-text="a" xlink:href="#font_4_28" transform="matrix(9.962899,0,0,-9.9626,119.93115,47.70601)"/>
<use data-text="t" xlink:href="#font_4_105" transform="matrix(9.962899,0,0,-9.9626,124.9126,47.70601)"/>
<use data-text="a" xlink:href="#font_4_28" transform="matrix(9.962899,0,0,-9.9626,128.78818,47.70601)"/>
<use data-text="P" xlink:href="#font_4_83" transform="matrix(9.962899,0,0,-9.9626,137.08725,47.70601)"/>
<use data-text="o" xlink:href="#font_4_81" transform="matrix(9.962899,0,0,-9.9626,143.60303,47.70601)"/>
<use data-text="i" xlink:href="#font_4_66" transform="matrix(9.962899,0,0,-9.9626,148.58444,47.70601)"/>
<use data-text="n" xlink:href="#font_4_77" transform="matrix(9.962899,0,0,-9.9626,151.35413,47.70601)"/>
<use data-text="t" xlink:href="#font_4_105" transform="matrix(9.962899,0,0,-9.9626,156.61454,47.70601)"/>
<use data-text="s" xlink:href="#font_4_98" transform="matrix(9.962899,0,0,-9.9626,160.49011,47.70601)"/>
</svg>
