<svg xmlns="http://www.w3.org/2000/svg" xmlns:xlink="http://www.w3.org/1999/xlink" xmlns:inkscape="http://www.inkscape.org/namespaces/inkscape" version="1.1" width="203" height="172" viewBox="0 0 203 172">
<defs>
<clipPath id="clip_1">
<path transform="matrix(1.00006,0,0,-1.00002,17.534974,170.40912)" d="M-16.43797 0H177.82825V161.39028H-16.43797Z"/>
</clipPath>
<path id="font_2_2" d="M.36698915 .3996582H.45298768C.47299195 .3996582 .48298646 .3996582 .48298646 .41966249 .48298646 .43066407 .47299195 .43066407 .45599366 .43066407H.37298585L.3939972 .5449524C.397995 .5660095 .4119873 .6370239 .41799928 .6490326 .4269867 .66804507 .44400025 .68307498 .46499635 .68307498 .46899415 .68307498 .49499513 .68307498 .5139923 .66503909 .46998597 .661026 .45999146 .6260376 .45999146 .6110382 .45999146 .58802798 .47799684 .57603457 .49699403 .57603457 .522995 .57603457 .5519867 .5980377 .5519867 .6360321 .5519867 .6820679 .5059967 .7050781 .46499635 .7050781 .43099977 .7050781 .36799623 .68707278 .33799745 .58802798 .33198548 .56700137 .32899476 .5569763 .30499269 .43066407H.23599243C.21699524 .43066407 .20599365 .43066407 .20599365 .4116516 .20599365 .3996582 .21499634 .3996582 .23399353 .3996582H.2999878L.22499085 .0048828127C.20698548-.09207153 .18998719-.18309021 .13798523-.18309021 .13398743-.18309021 .10899353-.18309021 .08999634-.16506958 .13598633-.1620636 .14498902-.12606812 .14498902-.111068729 .14498902-.08807373 .1269989-.07606506 .10798645-.07606506 .08198547-.07606506 .052993776-.09806824 .052993776-.13606262 .052993776-.18109131 .09700012-.20507813 .13798523-.20507813 .19299317-.20507813 .23298645-.14607239 .25099183-.108062747 .2829895-.04508972 .30599977 .07583618 .30699159 .082839969L.36698915 .3996582Z"/>
<path id="font_3_3" d="M.68699648 .32714845C.70199587 .32714845 .72099307 .32714845 .72099307 .34713746 .72099307 .36714173 .70199587 .36714173 .6879883 .36714173H.08898926C.07499695 .36714173 .055999757 .36714173 .055999757 .34713746 .055999757 .32714845 .07499695 .32714845 .08999634 .32714845H.68699648M.6879883 .13284302C.70199587 .13284302 .72099307 .13284302 .72099307 .15284729 .72099307 .17285156 .70199587 .17285156 .68699648 .17285156H.08999634C.07499695 .17285156 .055999757 .17285156 .055999757 .15284729 .055999757 .13284302 .07499695 .13284302 .08898926 .13284302H.6879883Z"/>
<path id="font_3_1" d="M.45999146 .31976319C.45999146 .39982606 .45498658 .47988893 .41999818 .5539398 .37399293 .65000918 .2919922 .6660156 .25 .6660156 .18998719 .6660156 .116989139 .64001467 .07598877 .54693606 .04399109 .47789 .038986207 .39982606 .038986207 .31976319 .038986207 .24472046 .042999269 .15464783 .083999637 .07859802 .1269989-.0024719239 .19999695-.022460938 .24899292-.022460938 .30299378-.022460938 .3789978-.0014648438 .4229889 .09359741 .45498658 .16265869 .45999146 .2407074 .45999146 .31976319M.24899292-.00047302247C.20999146-.00047302247 .15098572 .024551392 .1329956 .12062073 .12199402 .18066406 .12199402 .2727356 .12199402 .3317871 .12199402 .39582826 .12199402 .46188355 .12998963 .5159149 .14898682 .63500979 .22399903 .64401248 .24899292 .64401248 .28199769 .64401248 .34799195 .6259918 .36698915 .52693179 .3769989 .47088624 .3769989 .39482118 .3769989 .3317871 .3769989 .25672914 .3769989 .18867493 .3659973 .12461853 .35099793 .029556275 .2939911-.00047302247 .24899292-.00047302247Z"/>
<path id="font_2_1" d="M.19198609 .052993776C.19198609 .08198547 .16799927 .10598755 .13899231 .10598755 .10998535 .10598755 .085998538 .08198547 .085998538 .052993776 .085998538 .023986817 .10998535 0 .13899231 0 .16799927 0 .19198609 .023986817 .19198609 .052993776Z"/>
<path id="font_3_2" d="M.44898988 .20022583C.44898988 .3193512 .36698915 .41944886 .25898744 .41944886 .21099854 .41944886 .16799927 .40345765 .13198853 .36842347V.5637665C.1519928 .5577698 .18499756 .55078127 .21699524 .55078127 .33999635 .55078127 .4099884 .6417694 .4099884 .6547699 .4099884 .6607666 .40699769 .6657715 .3999939 .6657715 .39898683 .6657715 .39698792 .6657715 .3919983 .66278079 .37199403 .6537781 .32299806 .6337738 .2559967 .6337738 .21598816 .6337738 .16999817 .6407776 .12298584 .6617737 .114990238 .66477969 .11299133 .66477969 .11099243 .66477969 .100997928 .66477969 .100997928 .6567688 .100997928 .6407776V.34439088C.100997928 .32637025 .100997928 .31835938 .114990238 .31835938 .12199402 .31835938 .12399292 .32136537 .12799073 .32736207 .13899231 .3433838 .17599488 .39746095 .25698854 .39746095 .30899049 .39746095 .33399964 .35139466 .34199525 .33337403 .35798646 .29632569 .3600006 .25727845 .3600006 .20722962 .3600006 .17222595 .3600006 .11222839 .33599855 .07035828 .31199647 .031463624 .2749939 .0055389406 .22898865 .0055389406 .1559906 .0055389406 .09899902 .058380128 .08198547 .11723328 .084991458 .1162262 .08799744 .115234378 .09899902 .115234378 .13198853 .115234378 .14898682 .14022827 .14898682 .16423035 .14898682 .18823242 .13198853 .21322632 .09899902 .21322632 .084991458 .21322632 .049987794 .20622254 .049987794 .16023255 .049987794 .07434082 .11898804-.022460938 .23098755-.022460938 .34700013-.022460938 .44898988 .073349 .44898988 .20022583Z"/>
<path id="font_4_1" d="M.6589966 .23046875C.6759949 .23046875 .69400027 .23046875 .69400027 .25045777 .69400027 .27046205 .6759949 .27046205 .6589966 .27046205H.117996219C.100997928 .27046205 .08299255 .27046205 .08299255 .25045777 .08299255 .23046875 .100997928 .23046875 .117996219 .23046875H.6589966Z"/>
<path id="font_2_3" d="M.33399964 .30233766C.33999635 .32835389 .36299134 .42037965 .43299867 .42037965 .43798829 .42037965 .46199037 .42037965 .48298646 .40734864 .45498658 .402359 .43499757 .37734986 .43499757 .35334779 .43499757 .33735658 .44599916 .31835938 .47299195 .31835938 .49499513 .31835938 .5269928 .3363495 .5269928 .37635804 .5269928 .42837525 .46798707 .4423828 .43399049 .4423828 .37599183 .4423828 .34098817 .38935853 .32899476 .36634828 .3039856 .43237306 .25 .4423828 .22099304 .4423828 .116989139 .4423828 .05999756 .3133545 .05999756 .28834535 .05999756 .27833558 .069992069 .27833558 .07199097 .27833558 .07998657 .27833558 .08299255 .28033448 .084991458 .28933717 .11898804 .39535523 .18499756 .42037965 .21899414 .42037965 .23799134 .42037965 .272995 .4113617 .272995 .35334779 .272995 .32235719 .2559967 .25532533 .21899414 .11528015 .20298767 .053268434 .16799927 .011245728 .12399292 .011245728 .117996219 .011245728 .09498596 .011245728 .07398987 .024276734 .09899902 .029266358 .12098694 .05027771 .12098694 .07827759 .12098694 .105270389 .09899902 .11328125 .083999637 .11328125 .053985597 .11328125 .0289917 .08728027 .0289917 .055267335 .0289917 .009246826 .07899475-.0107421879 .12298584-.0107421879 .18899536-.0107421879 .22499085 .059280397 .22799683 .0652771 .23999024 .028274537 .27598573-.0107421879 .33599855-.0107421879 .43899537-.0107421879 .49598695 .118270877 .49598695 .14328003 .49598695 .1532898 .4869995 .1532898 .48399354 .1532898 .47499085 .1532898 .47299195 .14929199 .47099305 .14228821 .43798829 .03527832 .36999513 .011245728 .33799745 .011245728 .29899598 .011245728 .2829895 .043273927 .2829895 .07727051 .2829895 .09927368 .2889862 .121276859 .2999878 .16529846L.33399964 .30233766Z"/>
<path id="font_2_4" d="M.48599244 .38136292C.48999024 .39537049 .48999024 .39736939 .48999024 .40437318 .48999024 .42237855 .47599793 .43138124 .46099855 .43138124 .45098878 .43138124 .43499757 .42536927 .42599488 .41036988 .42399598 .405365 .41600038 .37435914 .4119873 .35635377 .40499879 .33035279 .397995 .30334474 .3919983 .27633668L.34700013 .09628296C.34298707 .08126831 .2999878 .011245728 .23399353 .011245728 .18299866 .011245728 .17199707 .055267335 .17199707 .0922699 .17199707 .1382904 .18899536 .20030213 .22299195 .28833009 .23899842 .3293457 .24299622 .3403473 .24299622 .36035157 .24299622 .405365 .21099854 .4423828 .16099549 .4423828 .06599426 .4423828 .0289917 .29733277 .0289917 .28833009 .0289917 .27833558 .038986207 .27833558 .040985109 .27833558 .050994874 .27833558 .051986696 .28033448 .056991579 .29634095 .083999637 .3903656 .12399292 .42037965 .1579895 .42037965 .1659851 .42037965 .18299866 .42037965 .18299866 .3883667 .18299866 .36335755 .17298889 .3373413 .1659851 .31834413 .12599182 .21231079 .10798645 .1552887 .10798645 .10827637 .10798645 .019256592 .17098999-.0107421879 .22999573-.0107421879 .2689972-.0107421879 .30299378 .0062561037 .33099366 .03425598 .31799317-.017745972 .30599977-.06674194 .2659912-.11973572 .23999024-.15385437 .20199585-.18309021 .1559906-.18309021 .14199829-.18309021 .09700012-.18005371 .07998657-.14074707 .09599304-.14074707 .10899353-.14074707 .12298584-.1287384 .1329956-.11973572 .14299011-.10673523 .14299011-.08773804 .14299011-.056747438 .115997318-.052734376 .10598755-.052734376 .08299255-.052734376 .049987794-.068740848 .049987794-.11773682 .049987794-.16796875 .09399414-.20507813 .1559906-.20507813 .25898744-.20507813 .3619995-.11373901 .3899994-.00074768069L.48599244 .38136292Z"/>
</defs>
<path transform="matrix(1.00006,0,0,-1.00002,17.534974,170.40912)" stroke-width=".3985" stroke-linecap="butt" stroke-miterlimit="10" stroke-linejoin="miter" fill="none" stroke="#000000" d="M-16.43797 80.69513H175.83573"/>
<path transform="matrix(1.00006,0,0,-1.00002,193.38124,89.71237)" d="M1.99252 0-1.19551 1.59401 0 0-1.19551-1.59401"/>
<path transform="matrix(1.00006,0,0,-1.00002,17.534974,170.40912)" stroke-width=".3985" stroke-linecap="butt" stroke-miterlimit="10" stroke-linejoin="miter" fill="none" stroke="#000000" d="M80.69513 0V159.39775"/>
<path transform="matrix(0,-1.00002,-1.00006,-0,98.23494,11.008179)" d="M1.99252 0-1.19551 1.59401 0 0-1.19551-1.59401"/>
<g clip-path="url(#clip_1)">
<path transform="matrix(1.00006,0,0,-1.00002,17.534974,170.40912)" stroke-width="1.19553" stroke-linecap="butt" stroke-miterlimit="10" stroke-linejoin="miter" fill="none" stroke="#7f807f" d="M13.44919 80.69513H19.053 24.65681 30.26064 35.86446 41.46826 47.0721 52.67592 58.27972 63.88356 69.48737 75.0912 80.695 86.29883 91.90265 97.50647 103.1103 108.71411 114.31793 119.92175 125.52557 131.1294 136.73322 142.33702 147.94086"/>
<path transform="matrix(1.00006,0,0,-1.00002,17.534974,170.40912)" stroke-width="1.19553" stroke-linecap="butt" stroke-miterlimit="10" stroke-linejoin="miter" fill="none" stroke="#7f807f" d="M80.69513 13.44919V147.94109"/>
<path transform="matrix(1.00006,0,0,-1.00002,17.534974,170.40912)" d="M144.97495 93.104H124.00883V84.42531H144.97495ZM124.00883 84.42531" fill="#ffffff"/>
<use data-text="f" xlink:href="#font_2_2" transform="matrix(7.970558,0,0,-7.9702398,142.34787,83.635379)"/>
<use data-text="=" xlink:href="#font_3_3" transform="matrix(7.970558,0,0,-7.9702398,149.32187,83.635379)"/>
<use data-text="0" xlink:href="#font_3_1" transform="matrix(7.970558,0,0,-7.9702398,157.72286,83.635379)"/>
<path transform="matrix(1.00006,0,0,-1.00002,17.534974,170.40912)" stroke-width=".79701" stroke-linecap="butt" stroke-miterlimit="10" stroke-linejoin="miter" fill="none" stroke="#009bca" d="M21.51869 21.51869 26.45006 26.45006 31.38141 31.38141 36.31277 36.31277 41.24413 41.24413 46.17549 46.17549 51.10686 51.10686 56.03821 56.03821 60.96956 60.96956 65.90094 65.90094 70.83229 70.83229 75.76366 75.76366 80.695 80.695 85.62637 85.62637 90.55774 90.55774 95.48909 95.48909 100.42046 100.42046 105.35182 105.35182 110.28317 110.28317 115.21454 115.21454 120.14589 120.14589 125.07727 125.07727 130.00862 130.00862 134.93997 134.93997 139.87134 139.87134"/>
<path transform="matrix(1.00006,0,0,-1.00002,17.534974,170.40912)" d="M137.31514 136.14142H110.14993V127.4627H137.31514ZM110.14993 127.4627" fill="#ffffff"/>
<use data-text="f" xlink:href="#font_2_2" transform="matrix(7.970558,0,0,-7.9702398,128.48902,40.59652)"/>
<use data-text="=" xlink:href="#font_3_3" transform="matrix(7.970558,0,0,-7.9702398,135.46305,40.59652)"/>
<use data-text="0" xlink:href="#font_3_1" transform="matrix(7.970558,0,0,-7.9702398,143.86402,40.59652)"/>
<use data-text="." xlink:href="#font_2_1" transform="matrix(7.970558,0,0,-7.9702398,147.86219,40.59652)"/>
<use data-text="5" xlink:href="#font_3_2" transform="matrix(7.970558,0,0,-7.9702398,150.07592,40.59652)"/>
<path transform="matrix(1.00006,0,0,-1.00002,17.534974,170.40912)" stroke-width=".79701" stroke-linecap="butt" stroke-miterlimit="10" stroke-linejoin="miter" fill="none" stroke="#0000cc" d="M21.51869 139.87157 26.45006 134.9402 31.38141 130.00885 36.31277 125.07748 41.24413 120.14612 46.17549 115.21477 51.10686 110.2834 56.03821 105.35205 60.96956 100.42068 65.90094 95.48932 70.83229 90.55797 75.76366 85.6266 80.695 80.69524 85.62637 75.76389 90.55774 70.83252 95.48909 65.90117 100.42046 60.96979 105.35182 56.03844 110.28317 51.10709 115.21454 46.17572 120.14589 41.24435 125.07727 36.31299 130.00862 31.38164 134.93997 26.45029 139.87134 21.5189"/>
<path transform="matrix(1.00006,0,0,-1.00002,17.534974,170.40912)" d="M54.33987 136.14142H20.97557V127.4627H54.33987ZM20.97557 127.4627" fill="#ffffff"/>
<use data-text="f" xlink:href="#font_2_2" transform="matrix(7.970558,0,0,-7.9702398,39.308687,40.59652)"/>
<use data-text="=" xlink:href="#font_3_3" transform="matrix(7.970558,0,0,-7.9702398,46.2827,40.59652)"/>
<use data-text="&#x2212;" xlink:href="#font_4_1" transform="matrix(7.970558,0,0,-7.9702398,54.696008,40.59652)"/>
<use data-text="0" xlink:href="#font_3_1" transform="matrix(7.970558,0,0,-7.9702398,60.895578,40.59652)"/>
<use data-text="." xlink:href="#font_2_1" transform="matrix(7.970558,0,0,-7.9702398,64.880619,40.59652)"/>
<use data-text="5" xlink:href="#font_3_2" transform="matrix(7.970558,0,0,-7.9702398,67.09515,40.59652)"/>
</g>
<path transform="matrix(1.00006,0,0,-1.00002,17.534974,170.40912)" stroke-width=".79701" stroke-linecap="butt" stroke-miterlimit="10" stroke-linejoin="miter" fill="none" stroke="#ff0000" d="M83.18582 80.69513C83.18582 82.07071 82.07071 83.18582 80.69513 83.18582 79.31955 83.18582 78.20444 82.07071 78.20444 80.69513 78.20444 79.31955 79.31955 78.20444 80.69513 78.20444 82.07071 78.20444 83.18582 79.31955 83.18582 80.69513ZM80.69513 80.69513"/>
<path transform="matrix(1.00006,0,0,-1.00002,17.534974,170.40912)" stroke-width=".79701" stroke-linecap="butt" stroke-miterlimit="10" stroke-linejoin="miter" fill="none" stroke="#ff0000" d=""/>
<use data-text="x" xlink:href="#font_2_3" transform="matrix(9.963197,0,0,-9.962799,196.56972,95.19762)"/>
<use data-text="y" xlink:href="#font_2_4" transform="matrix(9.963197,0,0,-9.962799,91.79743,5.8828279)"/>
</svg>
