<svg xmlns="http://www.w3.org/2000/svg" xmlns:xlink="http://www.w3.org/1999/xlink" xmlns:inkscape="http://www.inkscape.org/namespaces/inkscape" version="1.1" width="224" height="129" viewBox="0 0 224 129">
<defs>
<path id="font_1_42" d="M.6649933 .23271179C.6649933 .24272156 .6649933 .24972534 .6519928 .24972534 .6409912 .24972534 .6409912 .24372864 .6399994 .23371887 .6319885 .09059143 .5249939 .008529663 .41600038 .008529663 .35499574 .008529663 .15899658 .042556764 .15899658 .34080506 .15899658 .64004519 .35398866 .67407229 .4149933 .67407229 .5239868 .67407229 .61299136 .58299258 .6329956 .4368744 .6349945 .42286683 .6349945 .41986085 .6489868 .41986085 .6649933 .41986085 .6649933 .42286683 .6649933 .44387818V.68107607C.6649933 .69807437 .6649933 .7050781 .6539917 .7050781 .6499939 .7050781 .6459961 .7050781 .6380005 .69306948L.58799746 .61901858C.5509949 .6550598 .5 .7050781 .4039917 .7050781 .21699524 .7050781 .055999757 .5459595 .055999757 .34179688 .055999757 .1346283 .21798706-.022460938 .4039917-.022460938 .5669861-.022460938 .6649933 .116622928 .6649933 .23271179Z"/>
<path id="font_1_50" d="M.4149933 .11933899C.4149933 .12934876 .40699769 .13134766 .4019928 .13134766 .3929901 .13134766 .3909912 .12535095 .3889923 .11734009 .35398866 .014251709 .2639923 .014251709 .2539978 .014251709 .20399475 .014251709 .1639862 .044281007 .14099121 .08131409 .11099243 .12934876 .11099243 .19540406 .11099243 .23144531H.3899994C.4119873 .23144531 .4149933 .23144531 .4149933 .2524414 .4149933 .35131837 .36099244 .4482422 .23599243 .4482422 .11999512 .4482422 .027999878 .34532167 .027999878 .22042847 .027999878 .08631897 .1329956-.0107421879 .24798584-.0107421879 .36999513-.0107421879 .4149933 .10032654 .4149933 .11933899M.34899903 .2524414H.11199951C.117996219 .40126039 .20199585 .426239 .23599243 .426239 .33898927 .426239 .34899903 .2913971 .34899903 .2524414Z"/>
<path id="font_1_77" d="M.5349884 0V.0309906C.48298646 .0309906 .45799256 .0309906 .45700074 .061019899V.25221253C.45700074 .3383026 .45700074 .36932374 .42599488 .405365 .4119873 .42237855 .3789978 .4423828 .32099916 .4423828 .24798584 .4423828 .20098877 .39935304 .17298889 .33729554V.4423828L.03199768 .43066407V.3996582C.101989749 .3996582 .10998535 .39266969 .10998535 .34370423V.07595825C.10998535 .0309906 .09899902 .0309906 .03199768 .0309906V0L.14498902 .0029907227 .25698854 0V.0309906C.18998719 .0309906 .1789856 .0309906 .1789856 .07595825V.25978089C.1789856 .36431886 .25 .42037965 .31399537 .42037965 .3769989 .42037965 .3880005 .36631776 .3880005 .30926515V.076034549C.3880005 .0309906 .3769989 .0309906 .30999757 .0309906V0L.4229889 .0029907227 .5349884 0Z"/>
<path id="font_1_105" d="M.33198548 .12385559V.18066406H.30699159V.12585449C.30699159 .052108766 .2769928 .014251709 .23999024 .014251709 .17298889 .014251709 .17298889 .10491943 .17298889 .12187195V.3996582H.31599427V.43066407H.17298889V.6142578H.147995C.14698792 .5324249 .116989139 .42565919 .018997193 .42166139V.3996582H.10398865V.12408447C.10398865 .0012512207 .19699097-.0107421879 .23298645-.0107421879 .3039856-.0107421879 .33198548 .060180665 .33198548 .12408447V.12385559Z"/>
<path id="font_1_96" d="M.3639984 .38137818C.3639984 .41337586 .33299256 .4423828 .2899933 .4423828 .21699524 .4423828 .18099976 .37538148 .16699219 .3323822V.4423828L.027999878 .43066407V.3996582C.09799194 .3996582 .10598755 .39266969 .10598755 .34370423V.07595825C.10598755 .0309906 .09498596 .0309906 .027999878 .0309906V0L.14199829 .0029907227C.18199158 .0029907227 .22898865 .0029907227 .2689972 0V.0309906H.24798584C.17399597 .0309906 .17199707 .04197693 .17199707 .07795715V.23181153C.17199707 .33137513 .21398926 .42037965 .2899933 .42037965 .29699708 .42037965 .29899598 .42037965 .30099488 .41937257 .2979889 .41838075 .27799989 .40637208 .27799989 .3803711 .27799989 .35237123 .29899598 .33737184 .32099916 .33737184 .33898927 .33737184 .3639984 .3493805 .3639984 .38137818Z"/>
<path id="font_1_83" d="M.6239929 .4967041C.6239929 .59465029 .5249939 .6826172 .3880005 .6826172H.034988405V.6516113H.05899048C.13598633 .6516113 .13798523 .64060977 .13798523 .6046295V.07795715C.13798523 .041992189 .13598633 .0309906 .05899048 .0309906H.034988405V0C.069992069 .0029907227 .14399719 .0029907227 .18199158 .0029907227 .21998596 .0029907227 .29499818 .0029907227 .32998658 0V.0309906H.30599977C.22898865 .0309906 .22698975 .041992189 .22698975 .07795715V.3157959H.3959961C.5159912 .3157959 .6239929 .39675904 .6239929 .4967041M.5209961 .4967041C.5209961 .4497223 .5209961 .34179688 .3619995 .34179688H.22399903V.6116333C.22399903 .64460757 .22599793 .6516113 .272995 .6516113H.3619995C.5209961 .6516113 .5209961 .54566958 .5209961 .4967041Z"/>
<path id="font_1_28" d="M.48298646 .08912659V.14511109H.45799256V.08912659C.45799256 .03112793 .43299867 .025131226 .42199708 .025131226 .3889923 .025131226 .3849945 .070129398 .3849945 .07511902V.27508546C.3849945 .31707765 .3849945 .3560791 .34899903 .39312745 .30999757 .43223573 .2599945 .4482422 .21199036 .4482422 .12998963 .4482422 .06098938 .40115357 .06098938 .335083 .06098938 .30508424 .08099365 .28808595 .10699463 .28808595 .1349945 .28808595 .15299988 .30807496 .15299988 .33407594 .15299988 .3460846 .147995 .37908937 .101989749 .38008119 .1289978 .41519166 .17799378 .426239 .20999146 .426239 .25898744 .426239 .31599427 .38710023 .31599427 .29808045V.26107789C.2649994 .25808717 .19499207 .25508119 .13198853 .22509766 .056991579 .19110108 .03199768 .13911438 .03199768 .09512329 .03199768 .014251709 .1289978-.0107421879 .19198609-.0107421879 .2579956-.0107421879 .3039856 .029251099 .32299806 .07624817 .32699586 .036132814 .35398866-.005859375 .40098573-.005859375 .42199708-.005859375 .48298646 .008132935 .48298646 .08912659M.31599427 .14013672C.31599427 .04525757 .24398804 .011245728 .19898987 .011245728 .1499939 .011245728 .10899353 .04624939 .10899353 .09625244 .10899353 .15124512 .15098572 .23425293 .31599427 .24024964V.14013672Z"/>
<path id="font_1_70" d="M.5109863 0V.0309906C.47399903 .0309906 .45199586 .0309906 .4139862 .0839386L.2869873 .26278688C.28599549 .26478578 .2809906 .2707672 .2809906 .2737732 .2809906 .277771 .35198976 .33770753 .3619995 .34570313 .4249878 .39666749 .46699525 .39865113 .48799134 .3996582V.43066407C.45899964 .42765809 .44599916 .42765809 .41799928 .42765809 .38198854 .42765809 .31999208 .42965699 .30599977 .43066407V.3996582C.32499696 .39865113 .33499146 .3876648 .33499146 .37467958 .33499146 .3547058 .32099916 .3427124 .31298829 .33570863L.17199707 .21382141V.69433596L.027999878 .6826172V.6516113C.09799194 .6516113 .10598755 .64460757 .10598755 .5956421V.07595825C.10598755 .0309906 .09498596 .0309906 .027999878 .0309906V0L.13699341 .0029907227 .24699402 0V.0309906C.17999268 .0309906 .16899109 .0309906 .16899109 .07595825V.17889405L.23298645 .23387146C.30999757 .12792969 .35198976 .07196045 .35198976 .053985597 .35198976 .034988405 .33499146 .0309906 .31599427 .0309906V0L.42399598 .0029907227C.45298768 .0029907227 .48199464 .0019989014 .5109863 0Z"/>
<path id="font_2_1" d="M.45999146 .31976319C.45999146 .39982606 .45498658 .47988893 .41999818 .5539398 .37399293 .65000918 .2919922 .6660156 .25 .6660156 .18998719 .6660156 .116989139 .64001467 .07598877 .54693606 .04399109 .47789 .038986207 .39982606 .038986207 .31976319 .038986207 .24472046 .042999269 .15464783 .083999637 .07859802 .1269989-.0024719239 .19999695-.022460938 .24899292-.022460938 .30299378-.022460938 .3789978-.0014648438 .4229889 .09359741 .45498658 .16265869 .45999146 .2407074 .45999146 .31976319M.24899292-.00047302247C.20999146-.00047302247 .15098572 .024551392 .1329956 .12062073 .12199402 .18066406 .12199402 .2727356 .12199402 .3317871 .12199402 .39582826 .12199402 .46188355 .12998963 .5159149 .14898682 .63500979 .22399903 .64401248 .24899292 .64401248 .28199769 .64401248 .34799195 .6259918 .36698915 .52693179 .3769989 .47088624 .3769989 .39482118 .3769989 .3317871 .3769989 .25672914 .3769989 .18867493 .3659973 .12461853 .35099793 .029556275 .2939911-.00047302247 .24899292-.00047302247Z"/>
<path id="font_3_1" d="M.19198609 .052993776C.19198609 .08198547 .16799927 .10598755 .13899231 .10598755 .10998535 .10598755 .085998538 .08198547 .085998538 .052993776 .085998538 .023986817 .10998535 0 .13899231 0 .16799927 0 .19198609 .023986817 .19198609 .052993776Z"/>
<path id="font_2_2" d="M.1269989 .07699585 .23298645 .18003845C.3889923 .31811524 .44898988 .3721466 .44898988 .47216798 .44898988 .5860901 .35899354 .6660156 .23699951 .6660156 .12399292 .6660156 .049987794 .57411196 .049987794 .48516847 .049987794 .4291687 .099990848 .4291687 .102996829 .4291687 .11999512 .4291687 .15499878 .44117738 .15499878 .48217774 .15499878 .5081787 .13699341 .5341797 .101989749 .5341797 .09399414 .5341797 .09199524 .5341797 .08898926 .5331726 .11199951 .59806826 .1659851 .63500979 .22399903 .63500979 .31498719 .63500979 .35798646 .5541382 .35798646 .47216798 .35798646 .39215089 .30799867 .31311036 .25299073 .25108338L.06098938 .036987306C.049987794 .025985718 .049987794 .023986817 .049987794 0H.42099L.44898988 .17404175H.42399598C.4189911 .14402771 .4119873 .1000061 .4019928 .084991458 .394989 .07699585 .32899476 .07699585 .30699159 .07699585H.1269989Z"/>
<path id="font_2_3" d="M.2939911 .16503906V.07800293C.2939911 .041992189 .2919922 .0309906 .21798706 .0309906H.19699097V0C.23799134 .0029907227 .2899933 .0029907227 .33198548 .0029907227 .37399293 .0029907227 .4269867 .0029907227 .46798707 0V.0309906H.44699098C.37298585 .0309906 .37098695 .041992189 .37098695 .07800293V.16503906H.47099305V.19602967H.37098695V.65075686C.37098695 .67074587 .37098695 .6767578 .35499574 .6767578 .34599305 .6767578 .34298707 .6767578 .33499146 .66474917L.027999878 .19602967V.16503906H.2939911M.2999878 .19602967H.055999757L.2999878 .5688019V.19602967Z"/>
<clipPath id="clip_4">
<path transform="matrix(1.00006,0,0,-1.00009,40.56653,98.70444)" d="M0 0H181.94585V96.8974H0Z"/>
</clipPath>
<path id="font_1_119" d="M.55999758 .2668457H.5349884C.5269928 .12792969 .5079956 .033996583 .32299806 .033996583H.15899658L.5469971 .6476135C.55400088 .6586151 .55400088 .65960696 .55400088 .6666107 .55400088 .6826172 .5479889 .6826172 .5279999 .6826172H.07998657L.068984989 .45773316H.09399414C.100997928 .57066348 .1309967 .6516113 .29499818 .6516113H.45199586L.06298828 .036987306C.055999757 .025985718 .055999757 .024993897 .055999757 .016998291 .055999757 0 .06098938 0 .08198547 0H.54299929L.55999758 .2668457Z"/>
<path id="font_1_64" d="M.27598573 .18710327V.24511719H.010986328V.18710327H.27598573Z"/>
<path id="font_1_97" d="M.49899293 .18579102C.49899293 .2858429 .43299867 .36791993 .34899903 .38793946L.22099304 .4189453C.15899658 .43388368 .11999512 .48773194 .11999512 .5458069 .11999512 .61595156 .17399597 .677063 .2519989 .677063 .4189911 .677063 .44099427 .5127411 .44699098 .46777345 .44799806 .461792 .44799806 .45581056 .45899964 .45581056 .47200013 .45581056 .47200013 .46080018 .47200013 .47973634V.68107607C.47200013 .69807437 .47200013 .7050781 .46099855 .7050781 .45399476 .7050781 .45298768 .70407107 .44599916 .69207766L.41099549 .63497927C.3809967 .66404727 .33999635 .7050781 .25099183 .7050781 .13999939 .7050781 .055999757 .61694338 .055999757 .5107422 .055999757 .42790223 .10899353 .35490418 .18699646 .32788087 .19799805 .32388307 .24899292 .3118744 .31900025 .29486085 .34599305 .28785707 .37599183 .280838 .4039917 .24382019 .4249878 .2177887 .43499757 .18478394 .43499757 .1517334 .43499757 .0806427 .3849945 .008529663 .30099488 .008529663 .27198792 .008529663 .19599915 .013534546 .14299011 .06260681 .084991458 .11668396 .08198547 .18078614 .08099365 .21679688 .07998657 .22679138 .07199097 .22679138 .068984989 .22679138 .055999757 .22679138 .055999757 .2197876 .055999757 .20178223V.0015258789C.055999757-.015472412 .055999757-.022460938 .066986087-.022460938 .07398987-.022460938 .07499695-.020462037 .08198547-.009475708 .08198547-.009475708 .084991458-.0054626467 .117996219 .047592164 .14898682 .013534546 .21299744-.022460938 .3019867-.022460938 .4189911-.022460938 .49899293 .07562256 .49899293 .18579102Z"/>
<path id="font_1_43" d="M.4149933 .119140628C.4149933 .12911988 .40499879 .12911988 .4019928 .12911988 .3929901 .12911988 .3909912 .12512207 .3889923 .119140628 .3600006 .026229859 .29499818 .014251709 .2579956 .014251709 .20498657 .014251709 .116989139 .0572052 .116989139 .21801758 .116989139 .38093568 .19898987 .42323304 .2519989 .42323304 .26098634 .42323304 .32398988 .42222596 .35899354 .38594056 .31799317 .38293458 .31199647 .3529358 .31199647 .3399353 .31199647 .31393434 .32998658 .2939453 .35798646 .2939453 .38398744 .2939453 .4039917 .3109436 .4039917 .34094239 .4039917 .40911866 .32798768 .4482422 .25099183 .4482422 .12599182 .4482422 .033996583 .3399353 .033996583 .21601868 .033996583 .08816528 .1329956-.0107421879 .24899292-.0107421879 .3829956-.0107421879 .4149933 .10914612 .4149933 .119140628Z"/>
<path id="font_1_81" d="M.47099305 .21424866C.47099305 .34223939 .37098695 .4482422 .25 .4482422 .125 .4482422 .027999878 .3392334 .027999878 .21424866 .027999878 .085250858 .13198853-.0107421879 .24899292-.0107421879 .36999513-.0107421879 .47099305 .087249759 .47099305 .21424866M.3880005 .22224427C.3880005 .18624878 .3880005 .13224793 .3659973 .08824158 .34399415 .04324341 .2999878 .014251709 .25 .014251709 .20698548 .014251709 .16299439 .035247804 .13598633 .08125305 .11099243 .12524414 .11099243 .18624878 .11099243 .22224427 .11099243 .26124574 .11099243 .31523133 .1349945 .35923768 .1619873 .40522767 .20899964 .426239 .24899292 .426239 .29299928 .426239 .33599855 .40423585 .3619995 .36123658 .3880005 .3182373 .3880005 .26023866 .3880005 .22224427Z"/>
<path id="font_1_102" d="M.44299317 .7299957C.44299317 .7409973 .43399049 .75 .4229889 .75 .40899659 .75 .40499879 .73999026 .4019928 .7299957L.06098938-.21200562C.055999757-.2250061 .055999757-.23001099 .055999757-.23001099 .055999757-.24101258 .06498718-.25 .07598877-.25 .08999634-.25 .09399414-.2400055 .09700012-.23001099L.43798829 .71199038C.44299317 .72499087 .44299317 .7299957 .44299317 .7299957Z"/>
<path id="font_1_74" d="M.8789978 0V.0309906H.8549957C.7779999 .0309906 .776001 .041992189 .776001 .07795715V.6046295C.776001 .64060977 .7779999 .6516113 .8549957 .6516113H.8789978V.6826172H.70999148C.6839905 .6826172 .6839905 .6816101 .6769867 .66360476L.45799256 .10095215 .24099732 .660614C.23199463 .6826172 .22898865 .6826172 .20599365 .6826172H.036987306V.6516113H.06098938C.13798523 .6516113 .13999939 .64060977 .13999939 .6046295V.10494995C.13999939 .07795715 .13999939 .0309906 .036987306 .0309906V0L.1539917 .0029907227 .2709961 0V.0309906C.16799927 .0309906 .16799927 .07795715 .16799927 .10494995V.6436157H.16899109L.4099884 .021987915C.4149933 .008987427 .41999818 0 .42999269 0 .44099427 0 .44400025 .0079956059 .44799806 .018997193L.69400027 .6516113H.69499209V.07795715C.69499209 .041992189 .69299319 .0309906 .6159973 .0309906H.59199526V0C.6289978 .0029907227 .69699099 .0029907227 .73599246 .0029907227 .7749939 .0029907227 .84199526 .0029907227 .8789978 0Z"/>
<path id="font_1_47" d="M.5269928 0V.0309906C.45700074 .0309906 .44898988 .038009645 .44898988 .0871582V.69433596L.30499269 .6826172V.6516113C.375 .6516113 .3829956 .64463809 .3829956 .59580996V.38035584C.35398866 .41636659 .31098939 .4423828 .25698854 .4423828 .13899231 .4423828 .033996583 .3443451 .033996583 .21531677 .033996583 .088272098 .13198853-.0107421879 .24598694-.0107421879 .30999757-.0107421879 .35499574 .023254395 .37998963 .055267335V-.0107421879L.5269928 0M.37998963 .117996219C.37998963 .099990848 .37998963 .09799194 .36898805 .08099365 .33898927 .033218385 .2939911 .011245728 .25099183 .011245728 .20599365 .011245728 .16999817 .037216188 .1459961 .075164798 .11999512 .1161499 .116989139 .17320252 .116989139 .21421814 .116989139 .25125123 .11898804 .31129457 .147995 .35632325 .16899109 .38734437 .20698548 .42037965 .26098634 .42037965 .29599 .42037965 .33799745 .405365 .36898805 .3603363 .37998963 .34332276 .37998963 .34132386 .37998963 .32330323V.117996219Z"/>
<path id="font_1_66" d="M.24699402 0V.0309906C.18099976 .0309906 .1769867 .035995485 .1769867 .075042728V.4423828L.036987306 .43066407V.3996582C.101989749 .3996582 .11099243 .3936615 .11099243 .3447113V.07595825C.11099243 .0309906 .099990848 .0309906 .032989503 .0309906V0L.14299011 .0029907227C.17799378 .0029907227 .21299744 .0009918213 .24699402 0M.19198609 .603775C.19198609 .6307678 .16899109 .6567688 .13899231 .6567688 .10499573 .6567688 .084991458 .6287689 .084991458 .603775 .084991458 .57676699 .10798645 .55078127 .13798523 .55078127 .17199707 .55078127 .19198609 .5787811 .19198609 .603775Z"/>
<path id="font_1_35" d="M.5209961 .2163086C.5209961 .34335328 .4229889 .4423828 .30899049 .4423828 .23098755 .4423828 .18798828 .39537049 .17199707 .3773651V.69433596L.027999878 .68333438V.6523285C.09799194 .6523285 .10598755 .6453247 .10598755 .596344V.00024414063H.1309967L.16699219 .06227112C.18199158 .039260866 .22399903-.0107421879 .2979889-.0107421879 .4169922-.0107421879 .5209961 .08728027 .5209961 .2163086M.43798829 .21731568C.43798829 .18029785 .43598939 .120285037 .40699769 .07527161 .38598634 .044265748 .34799195 .011245728 .2939911 .011245728 .24899292 .011260986 .21299744 .03526306 .18899536 .072265628 .1749878 .09326172 .1749878 .09625244 .1749878 .11425781V.32034303C.1749878 .3393402 .1749878 .3403473 .18598938 .35635377 .22499085 .41236878 .27999879 .42037965 .3039856 .42037965 .34899903 .42037965 .3849945 .3943634 .40899659 .35635377 .43499757 .31533814 .43798829 .25831605 .43798829 .21730042V.21731568Z"/>
<path id="font_1_72" d="M.25498963 0V.0309906C.18798828 .0309906 .1769867 .0309906 .1769867 .07601929V.69433596L.032989503 .6826172V.6516113C.102996829 .6516113 .11099243 .64460757 .11099243 .5956421V.07595825C.11099243 .0309906 .099990848 .0309906 .032989503 .0309906V0L.14399719 .0029907227 .25498963 0Z"/>
<path id="font_1_118" d="M.5079956 .3996582V.43066407C.4850006 .4286499 .45599366 .42765809 .43299867 .42765809L.34599305 .43066407V.3996582C.3769989 .39866639 .3929901 .3816681 .3929901 .35668946 .3929901 .34669496 .3919983 .34469605 .3869934 .33270265L.28599549 .08685303 .1749878 .35568238C.17098999 .36567689 .16899109 .36967469 .16899109 .3736725 .16899109 .3996582 .20599365 .3996582 .22499085 .3996582V.43066407L.115997318 .42765809C.08898926 .42765809 .04899597 .4286499 .018997193 .43066407V.3996582C.066986087 .3996582 .085998538 .3996582 .099990848 .36468507L.25-.000091552738 .22499085-.059066774C.20298767-.11407471 .1749878-.18309021 .11099243-.18309021 .10598755-.18309021 .08299255-.18309021 .06399536-.16503906 .09498596-.16104126 .102996829-.13905335 .102996829-.123046878 .102996829-.0970459 .083999637-.08103943 .06098938-.08103943 .040985109-.08103943 .018997193-.09403992 .018997193-.124053958 .018997193-.16905213 .06098938-.20507813 .11099243-.20507813 .17399597-.20507813 .21499634-.14804077 .23899842-.091049198L.4149933 .33569337C.44099427 .39865113 .49198915 .3996582 .5079956 .3996582Z"/>
<path id="font_1_46" d="M.70700076 .33580018C.70700076 .52568057 .57199099 .6826172 .40098573 .6826172H.034988405V.6516113H.05899048C.13598633 .6516113 .13798523 .64060977 .13798523 .6046295V.07795715C.13798523 .041992189 .13598633 .0309906 .05899048 .0309906H.034988405V0H.40098573C.56900027 0 .70700076 .1479187 .70700076 .33580018M.6069946 .33580018C.6069946 .22486878 .58799746 .16490174 .5519867 .11593628 .5319977 .08895874 .47499085 .0309906 .37399293 .0309906H.272995C.22599793 .0309906 .22399903 .037994386 .22399903 .07096863V.6116333C.22399903 .64460757 .22599793 .6516113 .272995 .6516113H.37298585C.43499757 .6516113 .5039978 .6296234 .5549927 .55867007 .59799197 .49969483 .6069946 .41375733 .6069946 .33580018Z"/>
<path id="font_1_98" d="M.3600006 .12823487C.3600006 .18122864 .32998658 .21122742 .31799317 .22323609 .2849884 .25523377 .24598694 .26322938 .20399475 .27124024 .147995 .28224183 .08099365 .29522706 .08099365 .35324098 .08099365 .38822938 .10699463 .42922975 .19299317 .42922975 .30299378 .42922975 .30799867 .3392334 .30999757 .30822755 .31098939 .2992401 .32199098 .2992401 .32199098 .2992401 .33499146 .2992401 .33499146 .30422975 .33499146 .32322694V.4242401C.33499146 .4412384 .33499146 .4482422 .32398988 .4482422 .31900025 .4482422 .31698609 .4482422 .3039856 .43623353 .30099488 .43223573 .29100038 .42323304 .2869873 .42022706 .24899292 .4482422 .20799256 .4482422 .19299317 .4482422 .070999149 .4482422 .032989503 .38124085 .032989503 .3252411 .032989503 .29023744 .04899597 .26223756 .07598877 .24023438 .10798645 .2142334 .13598633 .2082367 .20799256 .19422913 .22999573 .19021607 .31199647 .17422486 .31199647 .10221863 .31199647 .051223756 .2769928 .011245728 .19898987 .011245728 .114990238 .011245728 .07899475 .068222049 .05999756 .1532135 .056991579 .16621399 .055999757 .17021179 .04598999 .17021179 .032989503 .17021179 .032989503 .16322327 .032989503 .1452179V.013214111C.032989503-.003753662 .032989503-.0107421879 .04399109-.0107421879 .04899597-.0107421879 .049987794-.009750366 .068984989 .009246826 .070999149 .011245728 .070999149 .013214111 .08898926 .032226564 .1329956-.009750366 .17799378-.0107421879 .19898987-.0107421879 .31399537-.0107421879 .3600006 .05621338 .3600006 .1282196V.12823487Z"/>
</defs>
<path transform="matrix(1.00006,0,0,-1.00009,40.56653,98.70444)" stroke-width=".19925" stroke-linecap="butt" stroke-miterlimit="10" stroke-linejoin="miter" fill="none" stroke="#7f807f" d="M90.97472-2.12589V2.12589"/>
<path transform="matrix(1.00006,0,0,-1.00009,40.56653,98.70444)" stroke-width=".19925" stroke-linecap="butt" stroke-miterlimit="10" stroke-linejoin="miter" fill="none" stroke="#7f807f" d="M-2.12592 0H2.12592M-2.12592 38.75896H2.12592M-2.12592 77.51791H2.12592"/>
<path transform="matrix(1.00006,0,0,-1.00009,40.56653,98.70444)" stroke-width=".3985" stroke-linecap="butt" stroke-miterlimit="10" stroke-linejoin="miter" fill="none" stroke="#000000" d="M0 0H179.95333"/>
<path transform="matrix(1.00006,0,0,-1.00009,220.53064,98.70444)" d="M1.99252 0-1.19551 1.59401 0 0-1.19551-1.59401"/>
<path transform="matrix(1.00006,0,0,-1.00009,40.56653,98.70444)" stroke-width=".3985" stroke-linecap="butt" stroke-miterlimit="10" stroke-linejoin="miter" fill="none" stroke="#000000" d="M0 0V94.90488"/>
<path transform="matrix(0,-1.00009,-1.00006,-0,40.56653,3.7910157)" d="M1.99252 0-1.19551 1.59401 0 0-1.19551-1.59401"/>
<use data-text="C" xlink:href="#font_1_42" transform="matrix(9.963197,0,0,-9.963496,104.760379,111.37457)"/>
<use data-text="e" xlink:href="#font_1_50" transform="matrix(9.963197,0,0,-9.963496,111.9538,111.37457)"/>
<use data-text="n" xlink:href="#font_1_77" transform="matrix(9.963197,0,0,-9.963496,116.37747,111.37457)"/>
<use data-text="t" xlink:href="#font_1_105" transform="matrix(9.963197,0,0,-9.963496,121.63803,111.37457)"/>
<use data-text="e" xlink:href="#font_1_50" transform="matrix(9.963197,0,0,-9.963496,125.51373,111.37457)"/>
<use data-text="r" xlink:href="#font_1_96" transform="matrix(9.963197,0,0,-9.963496,129.9374,111.37457)"/>
<use data-text="P" xlink:href="#font_1_83" transform="matrix(9.963197,0,0,-9.963496,137.15074,111.37457)"/>
<use data-text="e" xlink:href="#font_1_50" transform="matrix(9.963197,0,0,-9.963496,143.66667,111.37457)"/>
<use data-text="a" xlink:href="#font_1_28" transform="matrix(9.963197,0,0,-9.963496,148.09033,111.37457)"/>
<use data-text="k" xlink:href="#font_1_70" transform="matrix(9.963197,0,0,-9.963496,153.07193,111.37457)"/>
<use data-text="0" xlink:href="#font_2_1" transform="matrix(9.963197,0,0,-9.963496,29.938889,101.91473)"/>
<use data-text="0" xlink:href="#font_2_1" transform="matrix(9.963197,0,0,-9.963496,22.189423,63.152238)"/>
<use data-text="." xlink:href="#font_3_1" transform="matrix(9.963197,0,0,-9.963496,27.17073,63.152238)"/>
<use data-text="2" xlink:href="#font_2_2" transform="matrix(9.963197,0,0,-9.963496,29.937897,63.152238)"/>
<use data-text="0" xlink:href="#font_2_1" transform="matrix(9.963197,0,0,-9.963496,22.189423,24.389748)"/>
<use data-text="." xlink:href="#font_3_1" transform="matrix(9.963197,0,0,-9.963496,27.17073,24.389748)"/>
<use data-text="4" xlink:href="#font_2_3" transform="matrix(9.963197,0,0,-9.963496,29.937897,24.389748)"/>
<g clip-path="url(#clip_4)">
<path transform="matrix(1.00006,0,0,-1.00009,40.56653,98.70444)" d="M0 .85886 1.8566 1.03009 3.7132 1.23083 5.5698 1.46523 7.4264 1.73769 9.283 2.05313 11.1396 2.41675 12.99623 2.83417 14.85283 3.31114 16.70943 3.854 18.56602 4.46907 20.42264 5.1629 22.27924 5.94203 24.13583 6.81328 25.99246 7.77956 27.84906 8.85425 29.70566 10.03719 31.56227 11.34462 33.41887 12.76724 35.27547 14.31357 37.13206 15.98438 38.9887 17.78584 40.84529 19.71953 42.70189 21.77692 44.5585 23.96573 46.4151 26.26978 48.2717 28.69055 50.1283 31.21182 51.98492 33.83286 53.84152 36.54047 55.69812 39.30917 57.55473 42.13123 59.41133 44.98497 61.26793 47.86267 63.12456 50.72339 64.98116 53.55396 66.83777 56.33812 68.69437 59.03723 70.55098 61.63504 72.4076 64.11072 74.26419 66.43794 76.12082 68.58888 77.97742 70.5442 79.83403 72.2846 81.69063 73.79228 83.54724 75.04558 85.40385 76.03523 87.26045 76.75504 89.11707 77.188 90.97368 77.31636V0H0Z" fill="#ccccff"/>
<path transform="matrix(1.00006,0,0,-1.00009,40.56653,98.70444)" stroke-width="1.19553" stroke-linecap="butt" stroke-miterlimit="10" stroke-linejoin="miter" fill="none" stroke="#0000ff" d="M0 .85886 1.83781 1.02824 3.67566 1.22649 5.51349 1.45758 7.35133 1.72588 9.18916 2.0361 11.02701 2.39323 12.86485 2.8027 14.70268 3.27023 16.54053 3.8017 18.37834 4.40341 20.21619 5.08163 22.05402 5.84279 23.89186 6.69334 25.7297 7.63954 27.56754 8.68416 29.40538 9.8439 31.24321 11.1119 33.08105 12.4974 34.91887 14.00507 36.75671 15.63644 38.59456 17.3923 40.43239 19.2796 42.27023 21.28981 44.10806 23.42377 45.9459 25.6752 47.78374 28.04185 49.62158 30.51521 51.45941 33.08365 53.29724 35.73561 55.13509 38.46567 56.97292 41.24208 58.81076 44.0649 60.64859 46.90318 62.48643 49.74069 64.32428 52.55656 66.16211 55.333 67.99995 58.03906 69.83778 60.65314 71.67561 63.15123 73.51346 65.51788 75.35129 67.7214 77.18913 69.74013 79.02698 71.55783 80.8648 73.15054 82.70265 74.5036 84.5405 75.61078 86.37831 76.44577 88.21616 77.00941 90.05399 77.29626H91.89183L93.72968 77.00941 95.5675 76.44577 97.40535 75.61078 99.2432 74.5121 101.08102 73.15906 102.91885 71.55783 104.7567 69.74785 106.59453 67.7214 108.43237 65.5256 110.27022 63.15973 112.10805 60.66086 113.94589 58.04758 115.78372 55.33995 117.62157 52.56429 119.4594 49.7492 121.29723 46.91092 123.13507 44.0649 124.9729 41.24982 126.81075 38.46567 128.64859 35.74411 130.48642 33.0914 132.32427 30.52373 134.1621 28.04881 135.99994 25.68216 137.83776 23.42377 139.6756 21.29832 141.51345 19.2796 143.35128 17.40004 145.18912 15.63644 147.02695 14.00507 148.86479 12.4974 150.70262 11.1119 152.54047 9.8439 154.3783 8.68416 156.21613 7.64151 158.05397 6.6951 159.8918 5.84439 161.72965 5.08302 163.56748 4.4046 165.40532 3.80281 167.24317 3.27118 169.081 2.80359 170.91883 2.39397 172.75666 2.03671 174.5945 1.72646 176.43233 1.45805 178.27017 1.2269 180.10802 1.02858 181.94585 .85918"/>
<path transform="matrix(1.00006,0,0,-1.00009,40.56653,98.70444)" stroke-width=".79701" stroke-linecap="butt" stroke-dasharray="2.98883,2.98883" stroke-miterlimit="10" stroke-linejoin="miter" fill="none" stroke="#ff0000" d="M90.97472 0V77.51791"/>
</g>
<use data-text="Z" xlink:href="#font_1_119" transform="matrix(9.963197,0,0,-9.963496,77.00072,124.64278)"/>
<use data-text="-" xlink:href="#font_1_64" transform="matrix(9.963197,0,0,-9.963496,83.08823,124.64278)"/>
<use data-text="S" xlink:href="#font_1_97" transform="matrix(9.963197,0,0,-9.963496,86.405979,124.64278)"/>
<use data-text="c" xlink:href="#font_1_43" transform="matrix(9.963197,0,0,-9.963496,91.94551,124.64278)"/>
<use data-text="o" xlink:href="#font_1_81" transform="matrix(9.963197,0,0,-9.963496,96.36917,124.64278)"/>
<use data-text="r" xlink:href="#font_1_96" transform="matrix(9.963197,0,0,-9.963496,101.35077,124.64278)"/>
<use data-text="e" xlink:href="#font_1_50" transform="matrix(9.963197,0,0,-9.963496,105.25633,124.64278)"/>
<use data-text="/" xlink:href="#font_1_102" transform="matrix(9.963197,0,0,-9.963496,112.98779,124.64278)"/>
<use data-text="M" xlink:href="#font_1_74" transform="matrix(9.963197,0,0,-9.963496,121.287128,124.64278)"/>
<use data-text="e" xlink:href="#font_1_50" transform="matrix(9.963197,0,0,-9.963496,130.42339,124.64278)"/>
<use data-text="d" xlink:href="#font_1_47" transform="matrix(9.963197,0,0,-9.963496,134.84705,124.64278)"/>
<use data-text="i" xlink:href="#font_1_66" transform="matrix(9.963197,0,0,-9.963496,140.38658,124.64278)"/>
<use data-text="a" xlink:href="#font_1_28" transform="matrix(9.963197,0,0,-9.963496,143.15636,124.64278)"/>
<use data-text="n" xlink:href="#font_1_77" transform="matrix(9.963197,0,0,-9.963496,148.13796,124.64278)"/>
<use data-text="C" xlink:href="#font_1_42" transform="matrix(9.963197,0,0,-9.963496,156.99523,124.64278)"/>
<use data-text="e" xlink:href="#font_1_50" transform="matrix(9.963197,0,0,-9.963496,164.18866,124.64278)"/>
<use data-text="n" xlink:href="#font_1_77" transform="matrix(9.963197,0,0,-9.963496,168.61234,124.64278)"/>
<use data-text="t" xlink:href="#font_1_105" transform="matrix(9.963197,0,0,-9.963496,173.88288,124.64278)"/>
<use data-text="e" xlink:href="#font_1_50" transform="matrix(9.963197,0,0,-9.963496,177.75858,124.64278)"/>
<use data-text="r" xlink:href="#font_1_96" transform="matrix(9.963197,0,0,-9.963496,182.18222,124.64278)"/>
<use data-text="P" xlink:href="#font_1_83" transform="matrix(0,-9.963496,-9.963197,-0,8.129581,92.925937)"/>
<use data-text="r" xlink:href="#font_1_96" transform="matrix(0,-9.963496,-9.963197,-0,8.129581,86.14079)"/>
<use data-text="o" xlink:href="#font_1_81" transform="matrix(0,-9.963496,-9.963197,-0,8.129581,82.23511)"/>
<use data-text="b" xlink:href="#font_1_35" transform="matrix(0,-9.963496,-9.963197,-0,8.129581,77.25336)"/>
<use data-text="a" xlink:href="#font_1_28" transform="matrix(0,-9.963496,-9.963197,-0,8.129581,71.71367)"/>
<use data-text="b" xlink:href="#font_1_35" transform="matrix(0,-9.963496,-9.963197,-0,8.129581,66.73192)"/>
<use data-text="i" xlink:href="#font_1_66" transform="matrix(0,-9.963496,-9.963197,-0,8.129581,61.19223)"/>
<use data-text="l" xlink:href="#font_1_72" transform="matrix(0,-9.963496,-9.963197,-0,8.129581,58.422365)"/>
<use data-text="i" xlink:href="#font_1_66" transform="matrix(0,-9.963496,-9.963197,-0,8.129581,55.65251)"/>
<use data-text="t" xlink:href="#font_1_105" transform="matrix(0,-9.963496,-9.963197,-0,8.129581,52.88266)"/>
<use data-text="y" xlink:href="#font_1_118" transform="matrix(0,-9.963496,-9.963197,-0,8.129581,49.285814)"/>
<use data-text="D" xlink:href="#font_1_46" transform="matrix(0,-9.963496,-9.963197,-0,8.129581,40.71721)"/>
<use data-text="e" xlink:href="#font_1_50" transform="matrix(0,-9.963496,-9.963197,-0,8.129581,33.105104)"/>
<use data-text="n" xlink:href="#font_1_77" transform="matrix(0,-9.963496,-9.963197,-0,8.129581,28.681305)"/>
<use data-text="s" xlink:href="#font_1_98" transform="matrix(0,-9.963496,-9.963197,-0,8.129581,23.141602)"/>
<use data-text="i" xlink:href="#font_1_66" transform="matrix(0,-9.963496,-9.963197,-0,8.129581,19.215989)"/>
<use data-text="t" xlink:href="#font_1_105" transform="matrix(0,-9.963496,-9.963197,-0,8.129581,16.446137)"/>
<use data-text="y" xlink:href="#font_1_118" transform="matrix(0,-9.963496,-9.963197,-0,8.129581,12.83934)"/>
</svg>
