<svg xmlns="http://www.w3.org/2000/svg" xmlns:xlink="http://www.w3.org/1999/xlink" xmlns:inkscape="http://www.inkscape.org/namespaces/inkscape" version="1.1" width="148" height="149" viewBox="0 0 148 149">
<defs>
<path id="font_1_4" d="M.33399964 .30233766C.33999635 .32835389 .36299134 .42037965 .43299867 .42037965 .43798829 .42037965 .46199037 .42037965 .48298646 .40734864 .45498658 .402359 .43499757 .37734986 .43499757 .35334779 .43499757 .33735658 .44599916 .31835938 .47299195 .31835938 .49499513 .31835938 .5269928 .3363495 .5269928 .37635804 .5269928 .42837525 .46798707 .4423828 .43399049 .4423828 .37599183 .4423828 .34098817 .38935853 .32899476 .36634828 .3039856 .43237306 .25 .4423828 .22099304 .4423828 .116989139 .4423828 .05999756 .3133545 .05999756 .28834535 .05999756 .27833558 .069992069 .27833558 .07199097 .27833558 .07998657 .27833558 .08299255 .28033448 .084991458 .28933717 .11898804 .39535523 .18499756 .42037965 .21899414 .42037965 .23799134 .42037965 .272995 .4113617 .272995 .35334779 .272995 .32235719 .2559967 .25532533 .21899414 .11528015 .20298767 .053268434 .16799927 .011245728 .12399292 .011245728 .117996219 .011245728 .09498596 .011245728 .07398987 .024276734 .09899902 .029266358 .12098694 .05027771 .12098694 .07827759 .12098694 .105270389 .09899902 .11328125 .083999637 .11328125 .053985597 .11328125 .0289917 .08728027 .0289917 .055267335 .0289917 .009246826 .07899475-.0107421879 .12298584-.0107421879 .18899536-.0107421879 .22499085 .059280397 .22799683 .0652771 .23999024 .028274537 .27598573-.0107421879 .33599855-.0107421879 .43899537-.0107421879 .49598695 .118270877 .49598695 .14328003 .49598695 .1532898 .4869995 .1532898 .48399354 .1532898 .47499085 .1532898 .47299195 .14929199 .47099305 .14228821 .43798829 .03527832 .36999513 .011245728 .33799745 .011245728 .29899598 .011245728 .2829895 .043273927 .2829895 .07727051 .2829895 .09927368 .2889862 .121276859 .2999878 .16529846L.33399964 .30233766Z"/>
<path id="font_1_5" d="M.48599244 .38136292C.48999024 .39537049 .48999024 .39736939 .48999024 .40437318 .48999024 .42237855 .47599793 .43138124 .46099855 .43138124 .45098878 .43138124 .43499757 .42536927 .42599488 .41036988 .42399598 .405365 .41600038 .37435914 .4119873 .35635377 .40499879 .33035279 .397995 .30334474 .3919983 .27633668L.34700013 .09628296C.34298707 .08126831 .2999878 .011245728 .23399353 .011245728 .18299866 .011245728 .17199707 .055267335 .17199707 .0922699 .17199707 .1382904 .18899536 .20030213 .22299195 .28833009 .23899842 .3293457 .24299622 .3403473 .24299622 .36035157 .24299622 .405365 .21099854 .4423828 .16099549 .4423828 .06599426 .4423828 .0289917 .29733277 .0289917 .28833009 .0289917 .27833558 .038986207 .27833558 .040985109 .27833558 .050994874 .27833558 .051986696 .28033448 .056991579 .29634095 .083999637 .3903656 .12399292 .42037965 .1579895 .42037965 .1659851 .42037965 .18299866 .42037965 .18299866 .3883667 .18299866 .36335755 .17298889 .3373413 .1659851 .31834413 .12599182 .21231079 .10798645 .1552887 .10798645 .10827637 .10798645 .019256592 .17098999-.0107421879 .22999573-.0107421879 .2689972-.0107421879 .30299378 .0062561037 .33099366 .03425598 .31799317-.017745972 .30599977-.06674194 .2659912-.11973572 .23999024-.15385437 .20199585-.18309021 .1559906-.18309021 .14199829-.18309021 .09700012-.18005371 .07998657-.14074707 .09599304-.14074707 .10899353-.14074707 .12298584-.1287384 .1329956-.11973572 .14299011-.10673523 .14299011-.08773804 .14299011-.056747438 .115997318-.052734376 .10598755-.052734376 .08299255-.052734376 .049987794-.068740848 .049987794-.11773682 .049987794-.16796875 .09399414-.20507813 .1559906-.20507813 .25898744-.20507813 .3619995-.11373901 .3899994-.00074768069L.48599244 .38136292Z"/>
<path id="font_1_2" d="M.5159912 .68333438C.5159912 .6843262 .5159912 .69433596 .5029907 .69433596 .48799134 .69433596 .3929901 .68533328 .37599183 .68333438 .36799623 .6823273 .3619995 .6773224 .3619995 .6643219 .3619995 .6523285 .37098695 .6523285 .38598634 .6523285 .43399049 .6523285 .43598939 .6453247 .43598939 .6353302L.43299867 .6153412 .37298585 .37835694C.35499574 .41537477 .32598878 .4423828 .2809906 .4423828 .1639862 .4423828 .039993287 .29533387 .039993287 .14929199 .039993287 .055267335 .09498596-.0107421879 .17298889-.0107421879 .19299317-.0107421879 .24299622-.0067443849 .30299378 .06427002 .31098939 .022247315 .34599305-.0107421879 .3939972-.0107421879 .42900086-.0107421879 .45199586 .012252808 .46798707 .044265748 .4850006 .08027649 .49798585 .14129639 .49798585 .14329529 .49798585 .1532898 .4889984 .1532898 .48599244 .1532898 .47599793 .1532898 .47499085 .14929199 .47200013 .13528443 .45498658 .07026672 .43699647 .011245728 .3959961 .011245728 .36898805 .011245728 .3659973 .037261964 .3659973 .057266237 .3659973 .08126831 .36799623 .088272098 .37199403 .105285648L.5159912 .68333438M.30799867 .119277957C.30299378 .10127258 .30299378 .09927368 .28799439 .08227539 .24398804 .027252198 .20298767 .011245728 .1749878 .011245728 .125 .011245728 .11099243 .06626892 .11099243 .105285648 .11099243 .1552887 .14299011 .27833558 .1659851 .32434083 .19699097 .38336183 .24198914 .42037965 .28199769 .42037965 .34700013 .42037965 .36099244 .3383484 .36099244 .33235169 .36099244 .32633973 .35899354 .32034303 .35798646 .31533814L.30799867 .119277957Z"/>
<path id="font_1_3" d="M.08799744 .059265138C.084991458 .044265748 .07899475 .021255494 .07899475 .01625061 .07899475-.0017547608 .09298706-.0107421879 .10798645-.0107421879 .11999512-.0107421879 .13798523-.002746582 .14498902 .01725769 .14698792 .021255494 .18099976 .15730286 .18499756 .17530823 .19299317 .20831299 .21099854 .27833558 .21699524 .30534364 .22099304 .31835938 .24899292 .36535646 .272995 .38734437 .2809906 .39434815 .30999757 .42037965 .35299684 .42037965 .3789978 .42037965 .3939972 .4083557 .394989 .4083557 .36499024 .40335084 .34298707 .37934876 .34298707 .35334779 .34298707 .33735658 .35398866 .31835938 .3809967 .31835938 .4079895 .31835938 .43598939 .34135438 .43598939 .37734986 .43598939 .41235353 .4039917 .4423828 .35299684 .4423828 .28799439 .4423828 .24398804 .39335633 .22499085 .36535646 .21699524 .4103546 .18099976 .4423828 .13398743 .4423828 .08799744 .4423828 .068984989 .40335084 .05999756 .38534547 .041992189 .35134889 .0289917 .29133607 .0289917 .28834535 .0289917 .27833558 .038986207 .27833558 .040985109 .27833558 .050994874 .27833558 .051986696 .27934266 .057998659 .30134584 .07499695 .37234498 .09498596 .42037965 .1309967 .42037965 .147995 .42037965 .1619873 .41235353 .1619873 .37435914 .1619873 .35334779 .15899658 .3423462 .1459961 .29034425L.08799744 .059265138Z"/>
<path id="font_2_5" d="M.68699648 .32714845C.70199587 .32714845 .72099307 .32714845 .72099307 .34713746 .72099307 .36714173 .70199587 .36714173 .6879883 .36714173H.08898926C.07499695 .36714173 .055999757 .36714173 .055999757 .34713746 .055999757 .32714845 .07499695 .32714845 .08999634 .32714845H.68699648M.6879883 .13284302C.70199587 .13284302 .72099307 .13284302 .72099307 .15284729 .72099307 .17285156 .70199587 .17285156 .68699648 .17285156H.08999634C.07499695 .17285156 .055999757 .17285156 .055999757 .15284729 .055999757 .13284302 .07499695 .13284302 .08898926 .13284302H.6879883Z"/>
<path id="font_2_4" d="M.2939911 .64004519C.2939911 .66400149 .2939911 .6660156 .2709961 .6660156 .20899964 .60227969 .12098694 .60227969 .08898926 .60227969V.57128909C.10899353 .57128909 .16799927 .57128909 .21998596 .5972748V.07902527C.21998596 .042999269 .21699524 .0309906 .1269989 .0309906H.09498596V0C.12998963 .0029907227 .21699524 .0029907227 .25698854 .0029907227 .29699708 .0029907227 .38398744 .0029907227 .4189911 0V.0309906H.3869934C.29699708 .0309906 .2939911 .041992189 .2939911 .07902527V.64004519Z"/>
<path id="font_3_95" d="M.7519989 .088897708C.7519989 .09489441 .7519989 .10687256 .73799136 .10687256 .72499087 .10687256 .72499087 .09788513 .723999 .08988953 .71899417 .026992798 .6879883 .0029907227 .6569977 .0029907227 .625 .0029907227 .6139984 .022994996 .60598757 .039978029 .5970001 .061935426 .58799746 .12983704 .58200076 .17475891 .57398989 .23666382 .5649872 .3035431 .45399476 .33850099 .548996 .36550904 .6269989 .42453004 .6269989 .5025635 .6269989 .601593 .5059967 .6826172 .35899354 .6826172H.039993287V.6516113H.06298828C.13999939 .6516113 .14199829 .64060977 .14199829 .6035919V.07891846C.14199829 .04197693 .13999939 .0309906 .06298828 .0309906H.039993287V0C.08699036 .0029907227 .13699341 .0029907227 .18499756 .0029907227 .23298645 .0029907227 .2829895 .0029907227 .33099366 0V.0309906H.30799867C.23098755 .0309906 .22898865 .04197693 .22898865 .07891846V.32850648H.34899903C.42099 .32850648 .45298768 .29057313 .45700074 .28657533 .4869995 .24963379 .4869995 .23466492 .4869995 .16377259 .4869995 .09687805 .4869995 .052963258 .5349884 .01499939 .58200076-.022003174 .6419983-.022003174 .6529999-.022003174 .7369995-.022003174 .7519989 .064941409 .7519989 .088897708M.5249939 .5025635C.5249939 .41653443 .48098756 .35351563 .34498597 .35351563H.22898865V.6105957C.22898865 .63661196 .23098755 .6456146 .25 .6496124 .25898744 .6516113 .29100038 .6516113 .31199647 .6516113 .397995 .6516113 .5249939 .6516113 .5249939 .5025635Z"/>
<path id="font_3_50" d="M.4269867 .11936951C.4269867 .12637329 .42199708 .13237 .41299439 .13237 .40299989 .13237 .3999939 .12536621 .39898683 .12136841 .36499024 .019256592 .27598573 .01725769 .26098634 .01725769 .21299744 .01725769 .17199707 .044281007 .14898682 .078323367 .115997318 .12736511 .114990238 .18743897 .114990238 .22949219H.3999939C.42199708 .22949219 .4269867 .22949219 .4269867 .25048829 .4269867 .35333253 .37098695 .4482422 .24299622 .4482422 .12298584 .4482422 .0289917 .3443451 .0289917 .22047425 .0289917 .08932495 .13398743-.0107421879 .2559967-.0107421879 .37799073-.0107421879 .4269867 .096343997 .4269867 .11936951M.35899354 .253479H.115997318C.125 .40725709 .21499634 .42323304 .24299622 .42323304 .2979889 .42323304 .35798646 .38130189 .35899354 .253479Z"/>
<path id="font_3_59" d="M.49899293 .40338136C.49899293 .42237855 .4850006 .45336915 .44499208 .45336915 .41600038 .45336915 .37098695 .4423828 .33599855 .40637208 .30899049 .42837525 .269989 .4423828 .22799683 .4423828 .1329956 .4423828 .06098938 .3743744 .06098938 .29537965 .06098938 .2443695 .09098816 .20837403 .10699463 .19337464 .10499573 .19137573 .07699585 .15637207 .07699585 .11038208 .07699585 .07637024 .09298706 .040374757 .11999512 .022369385 .068984989 .005874634 .0289917-.03111267 .0289917-.07809448 .0289917-.14907837 .12799073-.20605469 .2559967-.20605469 .3789978-.20605469 .48399354-.15307617 .48399354-.07609558 .48399354-.035110475 .46499635 .008880615 .42799378 .03288269 .37199403 .067871097 .31399537 .067871097 .21899414 .067871097 .19898987 .067871097 .16699219 .067871097 .15899658 .069885257 .12998963 .075927738 .11099243 .1031189 .11099243 .13534546 .11099243 .15142823 .115997318 .16642761 .125 .1794281 .1499939 .16343689 .18099976 .1484375 .22698975 .1484375 .32199098 .1484375 .3939972 .21643067 .3939972 .29542542 .3939972 .34443666 .3659973 .37843324 .35299684 .39242555 .3929901 .42843629 .43998719 .42843629 .45199586 .42843629 .44699098 .4254303 .43899537 .42042542 .43899537 .4024353 .43899537 .39143373 .44599916 .37243653 .46899415 .37243653 .48298646 .37243653 .49899293 .38243104 .49899293 .40342713V.40338136M.31698609 .29542542C.31698609 .27243043 .31698609 .1754303 .22698975 .1754303 .13798523 .17520142 .13798523 .27326966 .13798523 .2952881 .13798523 .3223114 .13999939 .35632325 .15699768 .38034059 .17199707 .4003601 .19898987 .41537477 .22698975 .41537477 .31698609 .41537477 .31698609 .31829835 .31698609 .2952881V.29542542M.42799378-.07698059C.42799378-.1340332 .35099793-.17906189 .25698854-.17906189 .15899658-.17912293 .084991458-.13212586 .084991458-.07711792 .084991458-.06112671 .09498596 .0048828127 .18099976 .0048828127H.272995C.30499269 .0048828127 .42799378 .0038757325 .42799378-.07711792V-.07698059Z"/>
<path id="font_3_66" d="M.25299073 0V.0309906C.18798828 .0309906 .18399048 .035995485 .18399048 .075042728V.4423828L.039993287 .43066407V.3996582C.10398865 .3996582 .11299133 .3936615 .11299133 .3447113V.07695007C.11299133 .0309906 .101989749 .0309906 .035995485 .0309906V0C.08099365 .0019989014 .101989749 .0029907227 .1459961 .0029907227 .1619873 .0029907227 .20399475 .0029907227 .25299073 0M.19699097 .6028137C.19699097 .63282778 .17298889 .6568146 .14299011 .6568146 .11299133 .6568146 .08898926 .63282778 .08898926 .6028137 .08898926 .57281497 .11299133 .5488281 .14299011 .5488281 .17298889 .5488281 .19699097 .57281497 .19699097 .6028137Z"/>
<path id="font_3_81" d="M.48399354 .21324158C.48399354 .34423829 .37998963 .4482422 .25698854 .4482422 .12998963 .4482422 .0289917 .3412323 .0289917 .21324158 .0289917 .08824158 .1329956-.0107421879 .2559967-.0107421879 .3829956-.0107421879 .48399354 .09024048 .48399354 .21324158M.397995 .22224427C.397995 .1852417 .397995 .12724304 .37298585 .08325195 .34498597 .037246705 .29899598 .01725769 .25698854 .01725769 .20698548 .01725769 .16499329 .042251588 .14199829 .08125305 .115997318 .12324524 .114990238 .17623902 .114990238 .22224427 .114990238 .25924684 .114990238 .3162384 .13999939 .35723878 .16999817 .40823365 .21998596 .42323304 .2559967 .42323304 .31298829 .42323304 .35398866 .39123536 .37399293 .35723878 .39698792 .31523133 .397995 .26423646 .397995 .22224427Z"/>
<path id="font_3_77" d="M.5469971 0V.0309906C.49598695 .03125 .47099305 .03125 .46998597 .0622406V.25431825C.46998597 .3373413 .46998597 .36636354 .44198609 .4013672 .4189911 .42938233 .3809967 .4423828 .33099366 .4423828 .23799134 .4423828 .19499207 .37335206 .18099976 .34535218H.17999268V.4423828L.034988405 .43066407V.3996582C.102996829 .3996582 .11199951 .39266969 .11199951 .34370423V.07695007C.11199951 .0309906 .100997928 .0309906 .034988405 .0309906V0C.08198547 .0019989014 .100997928 .0029907227 .14898682 .0029907227 .19699097 .0029907227 .20999146 .0019989014 .2630005 0V.0309906C.19699097 .0309906 .18598938 .0309906 .18598938 .07695007V.25878907C.18598938 .36532594 .26098634 .41737367 .32398988 .41737367 .3829956 .41737367 .3959961 .3683319 .3959961 .30825807V.077041629C.3959961 .0309906 .3849945 .0309906 .31900025 .0309906V0C.3659973 .0019989014 .3849945 .0029907227 .43299867 .0029907227 .48098756 .0029907227 .49398805 .0019989014 .5469971 0Z"/>
<path id="font_4_1" d="M.3809967 .6125946C.3869934 .63760378 .3899994 .6476135 .4079895 .65060427 .4169922 .6516113 .44999696 .6516113 .47099305 .6516113 .5499878 .6516113 .6599884 .6516113 .6599884 .5505829 .6599884 .51356509 .644989 .4385376 .58799746 .39552308 .56399539 .3795166 .5139923 .35351563 .43299867 .35351563H.31599427L.3809967 .6125946M.5359955 .33850099C.6719971 .3735199 .7559967 .44953919 .7559967 .53157046 .7559967 .61860659 .6609955 .6826172 .5279999 .6826172H.23799134C.21998596 .6826172 .20799256 .6826172 .20799256 .6646118 .20799256 .6516113 .21699524 .6516113 .23799134 .6516113 .24198914 .6516113 .2599945 .6516113 .27598573 .6496124 .29299928 .6476135 .2999878 .6456146 .2999878 .6345978 .2999878 .62960818 .29899598 .6255951 .29599 .6145935L.16099549 .075531009C.1519928 .039535524 .1499939 .030532837 .07499695 .030532837 .055999757 .030532837 .04499817 .030532837 .04499817 .012527466 .04499817 .0015258789 .052993776-.00047302247 .05999756-.00047302247 .07598877-.00047302247 .10598755 .0005340576 .12298584 .0015258789 .14399719 .002532959 .1459961 .002532959 .18499756 .002532959 .21699524 .002532959 .21899414 .002532959 .24899292 .0015258789 .2689972 .0005340576 .2939911-.00047302247 .31298829-.00047302247 .31999208-.00047302247 .33299256-.00047302247 .33299256 .017532349 .33299256 .030532837 .32299806 .030532837 .3019867 .030532837 .2979889 .030532837 .27999879 .030532837 .2639923 .03253174 .24198914 .03552246 .24099732 .039535524 .24099732 .04852295 .24099732 .05152893 .24099732 .053527833 .24598694 .0715332L.30999757 .32850648H.43299867C.522995 .32850648 .54599 .27650453 .54599 .23851013 .54599 .2315216 .54599 .22451782 .5399933 .20251465 .5159912 .11051941 .5159912 .10151672 .5159912 .08653259 .5159912-.0034637452 .6009979-.022460938 .6519928-.022460938 .7389984-.022460938 .7749939 .07852173 .7749939 .0945282 .7749939 .10151672 .7689972 .10652161 .7619934 .10652161 .7509918 .10652161 .75 .10151672 .74598696 .089523319 .72898867 .037521364 .69200137 .002532959 .6549988 .002532959 .61698916 .002532959 .61499026 .03253174 .61499026 .061523439 .61499026 .08653259 .621994 .14451599 .6230011 .15151978 .625 .16752625 .6299896 .20751953 .6299896 .22251892 .6299896 .2795105 .59399417 .31851197 .5359955 .33850099Z"/>
<path id="font_2_1" d="M.33099366-.2400055C.33099366-.23701477 .33099366-.23500061 .31399537-.21800232 .18899536-.0920105 .15699768 .09700012 .15699768 .25 .15699768 .42399598 .19499207 .59799197 .31799317 .72299197 .33099366 .73498538 .33099366 .7369995 .33099366 .73999026 .33099366 .746994 .32699586 .75 .32099916 .75 .31098939 .75 .22099304 .6819916 .1619873 .5549927 .11099243 .44499208 .09899902 .33399964 .09899902 .25 .09899902 .17199707 .10998535 .050994874 .16499329-.06201172 .22499085-.18501282 .31098939-.25 .32099916-.25 .32699586-.25 .33099366-.24700928 .33099366-.2400055Z"/>
<path id="font_2_3" d="M.45999146 .31976319C.45999146 .39982606 .45498658 .47988893 .41999818 .5539398 .37399293 .65000918 .2919922 .6660156 .25 .6660156 .18998719 .6660156 .116989139 .64001467 .07598877 .54693606 .04399109 .47789 .038986207 .39982606 .038986207 .31976319 .038986207 .24472046 .042999269 .15464783 .083999637 .07859802 .1269989-.0024719239 .19999695-.022460938 .24899292-.022460938 .30299378-.022460938 .3789978-.0014648438 .4229889 .09359741 .45498658 .16265869 .45999146 .2407074 .45999146 .31976319M.24899292-.00047302247C.20999146-.00047302247 .15098572 .024551392 .1329956 .12062073 .12199402 .18066406 .12199402 .2727356 .12199402 .3317871 .12199402 .39582826 .12199402 .46188355 .12998963 .5159149 .14898682 .63500979 .22399903 .64401248 .24899292 .64401248 .28199769 .64401248 .34799195 .6259918 .36698915 .52693179 .3769989 .47088624 .3769989 .39482118 .3769989 .3317871 .3769989 .25672914 .3769989 .18867493 .3659973 .12461853 .35099793 .029556275 .2939911-.00047302247 .24899292-.00047302247Z"/>
<path id="font_1_1" d="M.20298767 .0009918213C.20298767 .066986087 .17799378 .10598755 .13899231 .10598755 .10598755 .10598755 .085998538 .08099365 .085998538 .052993776 .085998538 .025985718 .10598755 0 .13899231 0 .15098572 0 .1639862 .0039978029 .17399597 .0129852299 .1769867 .01499939 .17799378 .015991211 .1789856 .015991211 .17999268 .015991211 .18099976 .01499939 .18099976 .0009918213 .18099976-.07316589 .1459961-.13328552 .11299133-.16635132 .101989749-.17736817 .101989749-.17936707 .101989749-.18237305 .101989749-.18936157 .10699463-.19335938 .11199951-.19335938 .12298584-.19335938 .20298767-.116256717 .20298767 .0009918213Z"/>
<path id="font_2_2" d="M.2889862 .25C.2889862 .32798768 .27799989 .44898988 .22299195 .56199648 .16299439 .68499758 .07699585 .75 .066986087 .75 .06098938 .75 .056991579 .74598696 .056991579 .73999026 .056991579 .7369995 .056991579 .73498538 .07598877 .71699526 .17399597 .6179962 .23098755 .45899964 .23098755 .25 .23098755 .07899475 .19400025-.09700012 .069992069-.2230072 .056991579-.23500061 .056991579-.23701477 .056991579-.2400055 .056991579-.2460022 .06098938-.25 .066986087-.25 .07699585-.25 .16699219-.18200684 .22599793-.055007936 .2769928 .054992677 .2889862 .16600037 .2889862 .25Z"/>
<path id="font_5_1" d="M.6589966 .23046875C.6759949 .23046875 .69400027 .23046875 .69400027 .25045777 .69400027 .27046205 .6759949 .27046205 .6589966 .27046205H.117996219C.100997928 .27046205 .08299255 .27046205 .08299255 .25045777 .08299255 .23046875 .100997928 .23046875 .117996219 .23046875H.6589966Z"/>
</defs>
<path transform="matrix(1.00006,0,0,-1.00006,72.73228,76.47181)" d="M51.02435 0 50.86006 4.05322 50.37813 8.08154 49.577 12.0577 48.46208 15.9591 47.04118 19.75931 45.32211 23.43416 43.31729 26.96107 41.03763 30.31673 38.50105 33.48317 35.71689 36.43472 32.71082 39.15738 29.49455 41.63245 26.09454 43.84436 22.52869 45.77913 18.81956 47.42424 14.99213 48.7696 11.06969 49.80588 7.07875 50.52995 3.04108 50.93092-1.01367 51.01266-5.06303 50.77052-9.08122 50.20763-13.04103 49.32785-16.9191 48.13507-20.69048 46.63943-24.3303 44.84639-27.81752 42.77306-31.12721 40.42645-34.24149 37.82602-37.13777 34.98581-39.7997 31.92447-42.21094 28.66148-44.35356 25.21709-46.21823 21.61464-47.78862 17.87283-49.05923 14.0197-50.01688 10.07779-50.65997 6.07127-50.98154 2.02817V-2.02817L-50.65997-6.07205-50.01688-10.07779-49.05846-14.0197-47.78862-17.87283-46.21901-21.61464-44.35434-25.21786-42.2117-28.66148-39.80048-31.92447-37.137-34.98581-34.24072-37.82526-31.12721-40.42645-27.81752-42.77306-24.3303-44.84717-20.69048-46.63943-16.91988-48.13507-13.04181-49.32707-9.08122-50.20763-5.06303-50.77052-1.01367-51.01266 3.04108-50.93092 7.07796-50.52995 11.06969-49.80588 14.99292-48.77039 18.81956-47.42346 22.52869-45.77835 26.09454-43.8436 29.49455-41.63245 32.71004-39.15738 35.71689-36.43472 38.50026-33.48317 41.03763-30.31673 43.31729-26.96107 45.32132-23.43416 47.0404-19.75931 48.46208-15.9599 49.577-12.0577 50.37813-8.08154 50.86006-4.05322 51.02356 0" fill="#d9d9ff"/>
<path transform="matrix(1.00006,0,0,-1.00006,72.73228,76.47181)" stroke-width=".79701" stroke-linecap="butt" stroke-miterlimit="10" stroke-linejoin="miter" fill="none" stroke="#000000" d="M-71.43379 0H66.7713"/>
<path transform="matrix(1.00006,0,0,-1.00006,139.50759,76.47181)" d="M4.66248 0C3.28098 .25902 1.0361 1.0361-.51805 1.94269V-1.94269C1.0361-1.0361 3.28098-.25902 4.66248 0"/>
<use data-text="x" xlink:href="#font_1_4" transform="matrix(9.963197,0,0,-9.963197,141.3234,84.48129)"/>
<path transform="matrix(1.00006,0,0,-1.00006,72.73228,76.47181)" stroke-width=".79701" stroke-linecap="butt" stroke-miterlimit="10" stroke-linejoin="miter" fill="none" stroke="#000000" d="M0-71.43379V66.7713"/>
<path transform="matrix(0,-1.00006,-1.00006,-0,72.73228,9.696503)" d="M4.66248 0C3.28098 .25902 1.0361 1.0361-.51805 1.94269V-1.94269C1.0361-1.0361 3.28098-.25902 4.66248 0"/>
<use data-text="y" xlink:href="#font_1_5" transform="matrix(9.963197,0,0,-9.963197,63.770738,6.2095949)"/>
<path transform="matrix(1.00006,0,0,-1.00006,72.73228,76.47181)" stroke-width=".79701" stroke-linecap="butt" stroke-miterlimit="10" stroke-linejoin="miter" fill="none" stroke="#0000cc" d="M51.02435 0 50.86006 4.05322 50.37813 8.08154 49.577 12.0577 48.46208 15.9591 47.04118 19.75931 45.32211 23.43416 43.31729 26.96107 41.03763 30.31673 38.50105 33.48317 35.71689 36.43472 32.71082 39.15738 29.49455 41.63245 26.09454 43.84436 22.52869 45.77913 18.81956 47.42424 14.99213 48.7696 11.06969 49.80588 7.07875 50.52995 3.04108 50.93092-1.01367 51.01266-5.06303 50.77052-9.08122 50.20763-13.04103 49.32785-16.9191 48.13507-20.69048 46.63943-24.3303 44.84639-27.81752 42.77306-31.12721 40.42645-34.24149 37.82602-37.13777 34.98581-39.7997 31.92447-42.21094 28.66148-44.35356 25.21709-46.21823 21.61464-47.78862 17.87283-49.05923 14.0197-50.01688 10.07779-50.65997 6.07127-50.98154 2.02817V-2.02817L-50.65997-6.07205-50.01688-10.07779-49.05846-14.0197-47.78862-17.87283-46.21901-21.61464-44.35434-25.21786-42.2117-28.66148-39.80048-31.92447-37.137-34.98581-34.24072-37.82526-31.12721-40.42645-27.81752-42.77306-24.3303-44.84717-20.69048-46.63943-16.91988-48.13507-13.04181-49.32707-9.08122-50.20763-5.06303-50.77052-1.01367-51.01266 3.04108-50.93092 7.07796-50.52995 11.06969-49.80588 14.99292-48.77039 18.81956-47.42346 22.52869-45.77835 26.09454-43.8436 29.49455-41.63245 32.71004-39.15738 35.71689-36.43472 38.50026-33.48317 41.03763-30.31673 43.31729-26.96107 45.32132-23.43416 47.0404-19.75931 48.46208-15.9599 49.577-12.0577 50.37813-8.08154 50.86006-4.05322 51.02356 0"/>
<path transform="matrix(1.00006,0,0,-1.00006,72.73228,76.47181)" stroke-width=".79701" stroke-linecap="butt" stroke-miterlimit="10" stroke-linejoin="miter" fill="none" stroke="#ff0000" d="M0 0 25.56627 25.56627"/>
<path transform="matrix(.70714238,-.70714238,-.70714238,-.70714238,98.300067,50.904027)" d="M4.66248 0C3.28098 .25902 1.0361 1.0361-.51805 1.94269V-1.94269C1.0361-1.0361 3.28098-.25902 4.66248 0" fill="#ff0000"/>
<use data-text="d" xlink:href="#font_1_2" transform="matrix(9.963197,0,0,-9.963197,73.48732,58.31972)" fill="#ff0000"/>
<use data-text="r" xlink:href="#font_1_3" transform="matrix(9.963197,0,0,-9.963197,78.66818,58.31972)" fill="#ff0000"/>
<path transform="matrix(1.00006,0,0,-1.00006,72.73228,76.47181)" stroke-width=".79701" stroke-linecap="butt" stroke-miterlimit="10" stroke-linejoin="miter" fill="none" stroke="#ff0000" d="M0 0-25.56627 25.56627"/>
<path transform="matrix(-.70714238,-.70714238,-.70714238,.70714238,47.164495,50.904027)" d="M4.66248 0C3.28098 .25902 1.0361 1.0361-.51805 1.94269V-1.94269C1.0361-1.0361 3.28098-.25902 4.66248 0" fill="#ff0000"/>
<path transform="matrix(1.00006,0,0,-1.00006,72.73228,76.47181)" stroke-width=".79701" stroke-linecap="butt" stroke-miterlimit="10" stroke-linejoin="miter" fill="none" stroke="#ff0000" d="M0 0-25.56627-25.56627"/>
<path transform="matrix(-.70714238,.70714238,.70714238,.70714238,47.164495,102.0396)" d="M4.66248 0C3.28098 .25902 1.0361 1.0361-.51805 1.94269V-1.94269C1.0361-1.0361 3.28098-.25902 4.66248 0" fill="#ff0000"/>
<path transform="matrix(1.00006,0,0,-1.00006,72.73228,76.47181)" stroke-width=".79701" stroke-linecap="butt" stroke-miterlimit="10" stroke-linejoin="miter" fill="none" stroke="#ff0000" d="M0 0 25.56627-25.56627"/>
<path transform="matrix(.70714238,.70714238,.70714238,-.70714238,98.300067,102.0396)" d="M4.66248 0C3.28098 .25902 1.0361 1.0361-.51805 1.94269V-1.94269C1.0361-1.0361 3.28098-.25902 4.66248 0" fill="#ff0000"/>
<use data-text="r" xlink:href="#font_1_3" transform="matrix(9.963197,0,0,-9.963197,120.44314,47.43807)" fill="#000099"/>
<use data-text="=" xlink:href="#font_2_5" transform="matrix(9.963197,0,0,-9.963197,127.9826,47.43807)" fill="#000099"/>
<use data-text="1" xlink:href="#font_2_4" transform="matrix(9.963197,0,0,-9.963197,138.4838,47.43807)" fill="#000099"/>
<use data-text="R" xlink:href="#font_3_95" transform="matrix(8.966938,0,0,-8.966938,71.64621,96.472019)"/>
<use data-text="e" xlink:href="#font_3_50" transform="matrix(8.966938,0,0,-8.966938,78.42522,96.472019)"/>
<use data-text="g" xlink:href="#font_3_59" transform="matrix(8.966938,0,0,-8.966938,82.5231,96.472019)"/>
<use data-text="i" xlink:href="#font_3_66" transform="matrix(8.966938,0,0,-8.966938,87.13211,96.472019)"/>
<use data-text="o" xlink:href="#font_3_81" transform="matrix(8.966938,0,0,-8.966938,89.696659,96.472019)"/>
<use data-text="n" xlink:href="#font_3_77" transform="matrix(8.966938,0,0,-8.966938,94.305667,96.472019)"/>
<use data-text="R" xlink:href="#font_4_1" transform="matrix(8.966938,0,0,-8.966938,102.50105,96.472019)"/>
<path transform="matrix(1.00006,0,0,-1.00006,72.73228,76.47181)" d="M1.49442 0C1.49442 .82533 .82533 1.49442 0 1.49442-.82533 1.49442-1.49442 .82533-1.49442 0-1.49442-.82533-.82533-1.49442 0-1.49442 .82533-1.49442 1.49442-.82533 1.49442 0ZM0 0"/>
<use data-text="(" xlink:href="#font_2_1" transform="matrix(9.963197,0,0,-9.963197,47.07174,87.46447)"/>
<use data-text="0" xlink:href="#font_2_3" transform="matrix(9.963197,0,0,-9.963197,50.93746,87.46447)"/>
<use data-text="," xlink:href="#font_1_1" transform="matrix(9.963197,0,0,-9.963197,55.928277,87.46447)"/>
<use data-text="0" xlink:href="#font_2_3" transform="matrix(9.963197,0,0,-9.963197,60.35653,87.46447)"/>
<use data-text=")" xlink:href="#font_2_2" transform="matrix(9.963197,0,0,-9.963197,65.33813,87.46447)"/>
<path transform="matrix(1.00006,0,0,-1.00006,72.73228,76.47181)" d="M52.51877 0C52.51877 .82533 51.8497 1.49442 51.02435 1.49442 50.199 1.49442 49.52994 .82533 49.52994 0 49.52994-.82533 50.199-1.49442 51.02435-1.49442 51.8497-1.49442 52.51877-.82533 52.51877 0ZM51.02435 0"/>
<use data-text="1" xlink:href="#font_2_4" transform="matrix(9.963197,0,0,-9.963197,127.27954,86.41241)"/>
<path transform="matrix(1.00006,0,0,-1.00006,72.73228,76.47181)" d="M-49.52994 0C-49.52994 .82533-50.199 1.49442-51.02435 1.49442-51.8497 1.49442-52.51877 .82533-52.51877 0-52.51877-.82533-51.8497-1.49442-51.02435-1.49442-50.199-1.49442-49.52994-.82533-49.52994 0ZM-51.02435 0"/>
<use data-text="&#x2212;" xlink:href="#font_5_1" transform="matrix(9.963197,0,0,-9.963197,5.454239,86.41241)"/>
<use data-text="1" xlink:href="#font_2_4" transform="matrix(9.963197,0,0,-9.963197,13.20369,86.41241)"/>
<path transform="matrix(1.00006,0,0,-1.00006,72.73228,76.47181)" d="M1.49442 51.02435C1.49442 51.8497 .82533 52.51877 0 52.51877-.82533 52.51877-1.49442 51.8497-1.49442 51.02435-1.49442 50.199-.82533 49.52994 0 49.52994 .82533 49.52994 1.49442 50.199 1.49442 51.02435ZM0 51.02435"/>
<use data-text="1" xlink:href="#font_2_4" transform="matrix(9.963197,0,0,-9.963197,76.25249,21.924542)"/>
<path transform="matrix(1.00006,0,0,-1.00006,72.73228,76.47181)" d="M1.49442-51.02435C1.49442-50.199 .82533-49.52994 0-49.52994-.82533-49.52994-1.49442-50.199-1.49442-51.02435-1.49442-51.8497-.82533-52.51877 0-52.51877 .82533-52.51877 1.49442-51.8497 1.49442-51.02435ZM0-51.02435"/>
<use data-text="&#x2212;" xlink:href="#font_5_1" transform="matrix(9.963197,0,0,-9.963197,56.4813,137.44046)"/>
<use data-text="1" xlink:href="#font_2_4" transform="matrix(9.963197,0,0,-9.963197,64.23075,137.44046)"/>
</svg>
